<svg width="32" height="33" viewBox="0 0 32 33" fill="none" xmlns="http://www.w3.org/2000/svg">
<path d="M30 16.0703C30 19.7703 29.4 22.7703 28.6 22.7703C27.8 22.7703 27.2 19.7703 27.2 16.0703C27.2 12.3703 27.8 9.37031 28.6 9.37031C29.4 9.37031 30 12.3703 30 16.0703ZM26.5 16.0703C26.5 20.1703 24.7 23.5703 22.6 23.5703C20.5 23.5703 18.7 20.1703 18.7 16.0703C18.7 11.9703 20.5 8.57031 22.6 8.57031C24.7 8.57031 26.5 11.9703 26.5 16.0703ZM17.8 16.0703C17.8 20.4703 14.3 24.0703 9.9 24.0703C5.5 24.0703 2 20.4703 2 16.0703C2 11.6703 5.5 8.07031 9.9 8.07031C14.3 8.07031 17.8 11.6703 17.8 16.0703Z" fill="black"/>
</svg>
