<svg width="233" height="251" viewBox="0 0 233 251" fill="none" xmlns="http://www.w3.org/2000/svg">
<g clip-path="url(#clip0_513_4121)">
<path d="M25.23 187.04C15.79 183.04 9.79004 175.04 9.79004 167.6V128.04" stroke="#1B242C" stroke-width="1.5" stroke-miterlimit="10"/>
<path d="M225.22 225.52L83.2901 143.55C77.9001 140.44 74.5801 134.68 74.5801 128.46V26.0604C74.5801 22.6104 78.3101 20.4604 81.3001 22.1804L224.13 104.67C228.87 107.41 231.79 112.46 231.79 117.94V221.73C231.79 225.1 228.14 227.21 225.22 225.52Z" fill="white" stroke="#1B242C" stroke-width="1.5" stroke-miterlimit="10"/>
<path d="M210.22 234.52L68.2901 152.55C62.9001 149.44 59.5801 143.68 59.5801 137.46V35.0604C59.5801 31.6104 63.3101 29.4604 66.3001 31.1804L209.13 113.67C213.87 116.41 216.79 121.46 216.79 126.94V230.73C216.79 234.1 213.14 236.21 210.22 234.52Z" fill="white" stroke="#1B242C" stroke-width="1.5" stroke-miterlimit="10"/>
<path d="M43.79 0L57.32 27.42L87.58 31.82L65.68 53.16L70.85 83.29L43.79 69.07L16.73 83.29L21.89 53.16L0 31.82L30.26 27.42L43.79 0Z" fill="#3418D8"/>
<path d="M194.56 242.09L52.6299 160.12C47.2399 157.01 43.9199 151.25 43.9199 145.03V42.6297C43.9199 39.1797 47.6499 37.0297 50.6399 38.7497L193.48 121.24C198.22 123.98 201.14 129.03 201.14 134.51V238.3C201.14 241.67 197.49 243.78 194.57 242.09H194.56Z" fill="white" stroke="#1B242C" stroke-width="1.5" stroke-miterlimit="10"/>
<path d="M179.43 248.81L37.5 166.84C32.11 163.73 28.79 157.97 28.79 151.75V49.3504C28.79 45.9004 32.52 43.7505 35.51 45.4705L178.34 127.96C183.08 130.7 186 135.75 186 141.23V245.02C186 248.39 182.35 250.5 179.43 248.81Z" fill="white" stroke="#1B242C" stroke-width="1.5" stroke-miterlimit="10"/>
<path d="M161.17 68.3099C161.17 68.3099 163.79 61.0399 163.79 53.0399C163.79 46.0399 153.66 39.9599 153.66 39.9599C153.66 39.9599 186.12 30.8999 197.79 42.0399C219.79 63.0399 208.63 95.7199 208.63 95.7199L161.18 68.3099H161.17Z" fill="#1B242C"/>
<path d="M177.81 164.69V198.91C166.81 193.85 152.81 199.85 152.47 209.83L64.3099 159.34C62.8099 135.84 57.1099 126.95 46.6599 122.41V91.9701C61.2899 95.5901 65.0199 85.9901 65.0199 71.8301L160.27 127.32C157.81 136.83 161.09 157.84 177.81 164.68V164.69Z" fill="#DADADA"/>
<path d="M169.79 167.89V202.11C158.79 197.05 144.79 203.05 144.45 213.03L56.2899 162.54C54.7899 139.04 49.0899 130.15 38.6399 125.61V95.1703C53.2699 98.7903 56.9999 89.1903 56.9999 75.0303L152.25 130.52C149.79 140.03 153.07 161.04 169.79 167.88V167.89Z" stroke="#1B242C" stroke-width="1.5" stroke-miterlimit="10"/>
<path d="M92.1701 158.24L121.39 175.14L121.56 158.16C107.8 151.53 105.14 142.05 108.17 135.66C108.19 135.61 108.22 135.56 108.25 135.51L79.5201 118.84L79.3201 134.88C92.7901 141.52 95.2101 151.83 92.2101 158.14C92.2001 158.17 92.1801 158.2 92.1601 158.23L92.1701 158.24Z" fill="#1B242C"/>
<path d="M208.22 59.3501C207.49 57.4801 201.1 42.4801 183.29 41.5401C174.78 41.0901 166.29 47.5401 163.47 52.9401L190.4 70.6601L127.56 72.4101L102.92 23.8301L124.16 35.3801C127.92 34.2701 143.76 26.6401 157.29 27.5401C172.29 28.5401 183.13 31.7701 193.29 38.5401C202.29 44.5401 207.63 57.5701 208.22 59.3501Z" fill="white" stroke="#1B242C" stroke-width="1.5" stroke-miterlimit="10"/>
</g>
<defs>
<clipPath id="clip0_513_4121">
<rect width="232.54" height="250.16" fill="white"/>
</clipPath>
</defs>
</svg>
