<svg width="150" height="34" viewBox="0 0 150 34" fill="none" xmlns="http://www.w3.org/2000/svg">
<path d="M16.5696 33.5679C13.2925 33.5679 10.089 32.5961 7.36427 30.7755C4.63949 28.9549 2.51579 26.3671 1.26171 23.3395C0.00763619 20.3119 -0.320487 16.9804 0.318835 13.7663C0.958158 10.5522 2.53621 7.59989 4.85344 5.28266C7.17067 2.96543 10.123 1.38738 13.3371 0.748057C16.5512 0.108735 19.8827 0.436859 22.9103 1.69093C25.9379 2.94501 28.5256 5.06872 30.3463 7.79349C32.1669 10.5183 33.1387 13.7217 33.1387 16.9988L24.8541 16.9988C24.8541 15.3603 24.3682 13.7585 23.4579 12.3961C22.5476 11.0338 21.2537 9.9719 19.7399 9.34486C18.2261 8.71782 16.5604 8.55376 14.9533 8.87342C13.3463 9.19308 11.8701 9.98211 10.7115 11.1407C9.55289 12.2993 8.76386 13.7755 8.4442 15.3826C8.12454 16.9896 8.2886 18.6553 8.91564 20.1692C9.54268 21.683 10.6045 22.9768 11.9669 23.8871C13.3293 24.7975 14.931 25.2833 16.5696 25.2833L16.5696 33.5679Z" fill="#8E7AFF"/>
<path fill-rule="evenodd" clip-rule="evenodd" d="M24.9029 17.0977H16.668V25.3325C21.216 25.3325 24.9028 29.0194 24.9028 33.5674V33.5675H33.1379L33.1379 25.3332C28.5898 25.3332 24.9029 21.6463 24.9029 17.0982C24.9029 17.098 24.9029 17.0978 24.9029 17.0977Z" fill="#3418D8"/>
<path d="M49.1416 26.7541C47.7782 26.7541 46.521 26.5239 45.37 26.0635C44.2367 25.5854 43.2451 24.9214 42.3952 24.0714C41.5629 23.2038 40.9166 22.1856 40.4562 21.0169C39.9958 19.8305 39.7656 18.5379 39.7656 17.139C39.7656 15.7756 40.0047 14.5183 40.4828 13.3674C40.9609 12.1987 41.6337 11.1894 42.5014 10.3394C43.3691 9.47177 44.3872 8.79889 45.5559 8.32079C46.7246 7.8427 47.9907 7.60365 49.3541 7.60365C50.2395 7.60365 51.1071 7.7276 51.9571 7.9755C52.8248 8.2057 53.6127 8.55099 54.321 9.01138C55.047 9.47177 55.6668 10.0207 56.1803 10.6582L53.6836 13.4205C53.2586 12.9955 52.8159 12.6325 52.3555 12.3315C51.9128 12.0128 51.4347 11.7737 50.9212 11.6144C50.4254 11.4373 49.8942 11.3487 49.3276 11.3487C48.5662 11.3487 47.849 11.4904 47.1761 11.7737C46.521 12.057 45.9455 12.4554 45.4497 12.969C44.9539 13.4648 44.5554 14.0757 44.2544 14.8017C43.9711 15.51 43.8294 16.2979 43.8294 17.1656C43.8294 18.051 43.9711 18.8566 44.2544 19.5826C44.5377 20.2909 44.9362 20.9018 45.4497 21.4153C45.9632 21.9111 46.5741 22.3007 47.2824 22.584C48.0084 22.8496 48.8052 22.9824 49.6729 22.9824C50.2395 22.9824 50.7884 22.9028 51.3196 22.7434C51.8509 22.584 52.3378 22.3627 52.7805 22.0794C53.2409 21.796 53.6481 21.4685 54.0023 21.0966L55.9412 24.2042C55.5163 24.6823 54.9408 25.1162 54.2148 25.5057C53.5065 25.8953 52.7097 26.2052 51.8243 26.4354C50.9389 26.6478 50.0447 26.7541 49.1416 26.7541Z" fill="#121220"/>
<path d="M58.2375 26.4885V7.49805H61.956V15.3063L61.2123 15.6251C61.4071 14.9876 61.7524 14.4121 62.2482 13.8986C62.7617 13.3674 63.3726 12.9424 64.0809 12.6237C64.7892 12.3049 65.5329 12.1456 66.312 12.1456C67.3745 12.1456 68.2598 12.3581 68.9681 12.783C69.6941 13.208 70.2342 13.8543 70.5884 14.722C70.9602 15.5719 71.1461 16.6255 71.1461 17.8827V26.4885H67.3745V18.1749C67.3745 17.5374 67.2859 17.0062 67.1089 16.5812C66.9318 16.1563 66.6573 15.8464 66.2855 15.6516C65.9313 15.4391 65.4887 15.3506 64.9574 15.386C64.5325 15.386 64.134 15.4568 63.7622 15.5985C63.408 15.7224 63.0982 15.9084 62.8326 16.1563C62.5847 16.4042 62.381 16.6875 62.2217 17.0062C62.08 17.325 62.0092 17.6702 62.0092 18.0421V26.4885H60.1499C59.7426 26.4885 59.3796 26.4885 59.0609 26.4885C58.7422 26.4885 58.4677 26.4885 58.2375 26.4885Z" fill="#121220"/>
<path d="M82.2239 24.7355C81.675 25.3552 81.0552 25.8599 80.3647 26.2494C79.6918 26.639 78.8153 26.8338 77.7351 26.8338C77.1154 26.8338 76.5222 26.7541 75.9555 26.5947C75.4066 26.4354 74.9197 26.1875 74.4947 25.851C74.0874 25.5146 73.7598 25.0896 73.5119 24.5761C73.264 24.0449 73.1401 23.4163 73.1401 22.6903C73.1401 21.7341 73.3526 20.9549 73.7775 20.3529C74.2025 19.7509 74.7603 19.2816 75.4509 18.9452C76.1415 18.6087 76.9117 18.3697 77.7617 18.228C78.6293 18.0864 79.5058 17.9978 80.3912 17.9624L82.1708 17.8827V17.1921C82.1708 16.3422 81.9317 15.7579 81.4536 15.4391C80.9933 15.1204 80.4443 14.961 79.8069 14.961C78.3372 14.961 77.4961 15.5188 77.2836 16.6344L73.8838 16.3156C74.1317 14.8636 74.7691 13.8189 75.7962 13.1814C76.8232 12.5263 78.2044 12.1987 79.9397 12.1987C81.0021 12.1987 81.9052 12.3315 82.6489 12.5971C83.3926 12.845 83.9858 13.208 84.4285 13.6861C84.8889 14.1642 85.2164 14.7485 85.4112 15.4391C85.6237 16.112 85.73 16.8734 85.73 17.7234V26.4885H82.2239V24.7355ZM82.1442 20.2998L80.4975 20.3795C79.7183 20.4149 79.0897 20.4946 78.6116 20.6185C78.1335 20.7425 77.7617 20.9018 77.4961 21.0966C77.2482 21.2737 77.0799 21.4862 76.9914 21.7341C76.9029 21.982 76.8586 22.2564 76.8586 22.5575C76.8586 23.0179 77.018 23.3808 77.3367 23.6465C77.6554 23.9121 78.0981 24.0449 78.6647 24.0449C79.6209 24.0449 80.4001 23.8235 81.0021 23.3808C81.3386 23.1329 81.613 22.8231 81.8255 22.4512C82.038 22.0617 82.1442 21.5836 82.1442 21.0169V20.2998Z" fill="#121220"/>
<path d="M88.5865 26.4885V12.4377H92.1988L92.305 15.3063L91.5613 15.6251C91.7561 14.9876 92.1014 14.4121 92.5972 13.8986C93.1107 13.3674 93.7216 12.9424 94.4299 12.6237C95.1382 12.3049 95.8819 12.1456 96.661 12.1456C97.7235 12.1456 98.6088 12.3581 99.3171 12.783C100.043 13.208 100.583 13.8543 100.937 14.722C101.309 15.5719 101.495 16.6255 101.495 17.8827V26.4885H97.7235V18.1749C97.7235 17.5374 97.6349 17.0062 97.4579 16.5812C97.2808 16.1563 97.0063 15.8464 96.6345 15.6516C96.2803 15.4391 95.8376 15.3506 95.3064 15.386C94.8815 15.386 94.483 15.4568 94.1112 15.5985C93.757 15.7224 93.4472 15.9084 93.1815 16.1563C92.9336 16.4042 92.73 16.6875 92.5706 17.0062C92.429 17.325 92.3582 17.6702 92.3582 18.0421V26.4885H90.4989C90.0916 26.4885 89.7286 26.4885 89.4099 26.4885C89.0912 26.4885 88.8167 26.4885 88.5865 26.4885Z" fill="#121220"/>
<path d="M110.979 32.5975C109.864 32.5975 108.766 32.4293 107.686 32.0928C106.606 31.7741 105.729 31.358 105.056 30.8445L106.384 28.1353C106.738 28.3832 107.146 28.6045 107.606 28.7993C108.066 28.9941 108.544 29.1446 109.04 29.2508C109.554 29.3571 110.076 29.4102 110.607 29.4102C111.528 29.4102 112.281 29.2685 112.865 28.9852C113.467 28.7019 113.919 28.2769 114.22 27.7103C114.521 27.1614 114.671 26.4531 114.671 25.5854V23.1418L115.309 23.2746C115.202 23.8589 114.91 24.399 114.432 24.8948C113.954 25.3729 113.352 25.7625 112.626 26.0635C111.9 26.3468 111.156 26.4885 110.395 26.4885C109.085 26.4885 107.925 26.1875 106.915 25.5854C105.906 24.9834 105.109 24.1511 104.525 23.0887C103.941 22.0262 103.648 20.8044 103.648 19.4233C103.648 18.0067 103.932 16.7583 104.498 15.6782C105.083 14.5803 105.871 13.7215 106.862 13.1018C107.872 12.4643 109.014 12.1456 110.289 12.1456C110.82 12.1456 111.325 12.2075 111.803 12.3315C112.298 12.4554 112.75 12.6325 113.157 12.8627C113.582 13.0752 113.954 13.3231 114.273 13.6064C114.609 13.872 114.884 14.1642 115.096 14.4829C115.309 14.8017 115.441 15.1204 115.495 15.4391L114.724 15.6516L114.831 12.4377H118.443V25.426C118.443 26.577 118.275 27.5952 117.938 28.4806C117.602 29.3659 117.106 30.1096 116.451 30.7117C115.813 31.3314 115.025 31.8007 114.087 32.1194C113.166 32.4381 112.13 32.5975 110.979 32.5975ZM111.085 23.4605C111.829 23.4605 112.476 23.2923 113.024 22.9559C113.591 22.6194 114.025 22.1502 114.326 21.5481C114.627 20.9461 114.777 20.2378 114.777 19.4233C114.777 18.6264 114.627 17.927 114.326 17.325C114.025 16.7052 113.591 16.2271 113.024 15.8907C112.476 15.5542 111.829 15.386 111.085 15.386C110.359 15.386 109.713 15.5631 109.147 15.9172C108.598 16.2537 108.173 16.7229 107.872 17.325C107.571 17.927 107.42 18.6264 107.42 19.4233C107.42 20.2201 107.571 20.9284 107.872 21.5481C108.173 22.1502 108.598 22.6194 109.147 22.9559C109.713 23.2923 110.359 23.4605 111.085 23.4605Z" fill="#121220"/>
<path d="M128.326 26.7541C126.803 26.7541 125.475 26.4442 124.342 25.8245C123.208 25.2047 122.323 24.3548 121.686 23.2746C121.048 22.1945 120.729 20.9549 120.729 19.5561C120.729 18.4759 120.906 17.4843 121.261 16.5812C121.615 15.6782 122.111 14.8991 122.748 14.2439C123.385 13.571 124.138 13.0575 125.006 12.7033C125.891 12.3315 126.847 12.1456 127.874 12.1456C128.83 12.1456 129.716 12.3226 130.53 12.6768C131.345 13.0132 132.044 13.5002 132.629 14.1376C133.231 14.7574 133.691 15.4922 134.01 16.3422C134.329 17.1921 134.47 18.1218 134.435 19.1311L134.408 20.2998H123.12L122.509 17.989H131.301L130.876 18.4671V17.8827C130.84 17.4046 130.681 16.9708 130.398 16.5812C130.132 16.1917 129.787 15.8907 129.362 15.6782C128.937 15.4657 128.459 15.3594 127.927 15.3594C127.148 15.3594 126.484 15.51 125.935 15.811C125.404 16.112 124.997 16.5547 124.714 17.139C124.43 17.7234 124.289 18.4317 124.289 19.2639C124.289 20.1139 124.466 20.8487 124.82 21.4685C125.192 22.0882 125.705 22.5752 126.36 22.9293C127.033 23.2658 127.821 23.434 128.724 23.434C129.344 23.434 129.911 23.3366 130.424 23.1418C130.938 22.947 131.487 22.6106 132.071 22.1325L133.877 24.6558C133.364 25.1162 132.797 25.5057 132.177 25.8245C131.557 26.1255 130.92 26.3557 130.265 26.515C129.61 26.6744 128.963 26.7541 128.326 26.7541Z" fill="#121220"/>
<path d="M145.484 26.4885L142.005 21.5216L140.942 20.0342L135.258 12.4377H139.827L143.227 17.2453L150 26.4885H145.484ZM135.205 26.4885L140.81 18.8124L142.881 21.2825L139.641 26.4885H135.205ZM144.236 20.167L142.217 17.6968L145.219 12.4377H149.654L144.236 20.167Z" fill="#121220"/>
</svg>
