<svg width="292" height="157" viewBox="0 0 292 157" fill="none" xmlns="http://www.w3.org/2000/svg">
<g clip-path="url(#clip0_513_4138)">
<path d="M208 120.4C207.9 139.47 177.67 154.77 140.47 154.57C103.28 154.38 73.1998 138.76 73.2998 119.7L73.3798 104.42L208.07 105.12C208.07 105.12 208.09 101.33 207.99 120.4H208Z" fill="white" stroke="#1B242C" stroke-width="1.5" stroke-miterlimit="10"/>
<path d="M208.094 104.56C208.194 85.4952 178.122 69.8824 140.926 69.6876C103.73 69.4929 73.4961 84.7899 73.3963 103.854C73.2965 122.919 103.369 138.532 140.565 138.727C177.761 138.921 207.995 123.624 208.094 104.56Z" fill="white" stroke="#1B242C" stroke-width="1.5" stroke-miterlimit="10"/>
<path d="M128.64 112.34L120.67 117.05C117.14 115.82 114.41 114.22 112.5 112.26C110.58 110.3 109.56 108.04 109.44 105.5C109.32 103.07 110.1 100.77 111.76 98.6096C113.42 96.4396 115.84 94.5596 119 92.9496C122.17 91.3396 125.87 90.1096 130.1 89.2696L129.87 84.5396L137.03 84.1996L137.23 88.2997C137.74 88.2497 138.51 88.1997 139.53 88.1497C140.55 88.0997 141.32 88.0797 141.83 88.0797L141.63 83.9797L148.79 83.6396L149.02 88.3697C153.31 88.8097 157.11 89.6697 160.42 90.9697C163.73 92.2697 166.31 93.9097 168.17 95.9097C170.03 97.8997 171.02 100.12 171.14 102.55C171.26 104.98 170.46 107.43 168.74 109.57C167.02 111.71 164.49 113.56 161.15 115.12L152.76 111.2C157.32 108.94 159.53 106.35 159.39 103.45C159.3 101.61 158.37 99.9996 156.6 98.6296C154.83 97.2596 152.41 96.2597 149.37 95.6197L149.88 106.21L142.72 106.55L142.16 94.9097C141.65 94.9097 140.88 94.9297 139.86 94.9797C138.84 95.0297 138.07 95.0796 137.56 95.1296L138.12 106.77L130.96 107.11L130.45 96.5196C127.48 97.4496 125.17 98.6796 123.54 100.21C121.91 101.74 121.13 103.43 121.22 105.27C121.36 108.2 123.84 110.56 128.65 112.34H128.64Z" fill="#1B242C"/>
<path d="M208 104.27C207.9 123.34 177.67 138.64 140.47 138.44C103.28 138.25 73.2001 122.63 73.3001 103.57L73.38 88.29L208.07 88.99C208.07 88.99 208.09 85.2 207.99 104.27H208Z" fill="white" stroke="#1B242C" stroke-width="1.5" stroke-miterlimit="10"/>
<path d="M208.095 88.4358C208.195 69.3711 178.122 53.7584 140.926 53.5636C103.731 53.3688 73.4964 68.6659 73.3966 87.7305C73.2967 106.795 103.369 122.408 140.565 122.603C177.761 122.797 207.995 107.5 208.095 88.4358Z" fill="white" stroke="#1B242C" stroke-width="1.5" stroke-miterlimit="10"/>
<path d="M128.64 96.2098L120.67 100.92C117.14 99.6898 114.41 98.0898 112.5 96.1298C110.58 94.1698 109.56 91.9098 109.44 89.3698C109.32 86.9398 110.1 84.6398 111.76 82.4798C113.42 80.3098 115.84 78.4298 119 76.8198C122.17 75.2098 125.87 73.9798 130.1 73.1398L129.87 68.4098L137.03 68.0698L137.23 72.1698C137.74 72.1198 138.51 72.0698 139.53 72.0198C140.55 71.9698 141.32 71.9498 141.83 71.9498L141.63 67.8498L148.79 67.5098L149.02 72.2398C153.31 72.6798 157.11 73.5398 160.42 74.8398C163.73 76.1398 166.31 77.7798 168.17 79.7798C170.03 81.7698 171.02 83.9898 171.14 86.4198C171.26 88.8498 170.46 91.2998 168.74 93.4398C167.02 95.5798 164.49 97.4298 161.15 98.9898L152.76 95.0698C157.32 92.8098 159.53 90.2198 159.39 87.3198C159.3 85.4798 158.37 83.8698 156.6 82.4998C154.83 81.1298 152.41 80.1298 149.37 79.4898L149.88 90.0798L142.72 90.4198L142.16 78.7798C141.65 78.7798 140.88 78.7998 139.86 78.8498C138.84 78.8998 138.07 78.9498 137.56 78.9998L138.12 90.6398L130.96 90.9798L130.45 80.3898C127.48 81.3198 125.17 82.5498 123.54 84.0798C121.91 85.6098 121.13 87.2998 121.22 89.1398C121.36 92.0698 123.84 94.4298 128.65 96.2098H128.64Z" fill="#1B242C"/>
<path d="M208 88.1499C207.9 107.22 177.67 122.52 140.47 122.32C103.28 122.13 73.2001 106.51 73.3001 87.4499L73.38 72.1699L208.07 72.8699C208.07 72.8699 208.09 69.0799 207.99 88.1499H208Z" fill="white" stroke="#1B242C" stroke-width="1.5" stroke-miterlimit="10"/>
<path d="M208.095 72.301C208.195 53.2364 178.122 37.6236 140.927 37.4288C103.731 37.2341 73.4966 52.5311 73.3968 71.5957C73.297 90.6603 103.369 106.273 140.565 106.468C177.761 106.663 207.995 91.3656 208.095 72.301Z" fill="white" stroke="#1B242C" stroke-width="1.5" stroke-miterlimit="10"/>
<path d="M128.64 80.0896L120.67 84.7997C117.14 83.5697 114.41 81.9697 112.5 80.0097C110.58 78.0497 109.56 75.7896 109.44 73.2496C109.32 70.8196 110.1 68.5196 111.76 66.3596C113.42 64.1896 115.84 62.3096 119 60.6996C122.17 59.0896 125.87 57.8596 130.1 57.0196L129.87 52.2896L137.03 51.9496L137.23 56.0496C137.74 55.9996 138.51 55.9497 139.53 55.8997C140.55 55.8497 141.32 55.8297 141.83 55.8297L141.63 51.7296L148.79 51.3896L149.02 56.1196C153.31 56.5596 157.11 57.4197 160.42 58.7197C163.73 60.0197 166.31 61.6596 168.17 63.6596C170.03 65.6496 171.02 67.8697 171.14 70.2997C171.26 72.7297 170.46 75.1796 168.74 77.3196C167.02 79.4596 164.49 81.3097 161.15 82.8697L152.76 78.9496C157.32 76.6896 159.53 74.0996 159.39 71.1996C159.3 69.3596 158.37 67.7496 156.6 66.3796C154.83 65.0096 152.41 64.0096 149.37 63.3696L149.88 73.9596L142.72 74.2997L142.16 62.6596C141.65 62.6596 140.88 62.6796 139.86 62.7296C138.84 62.7796 138.07 62.8296 137.56 62.8797L138.12 74.5196L130.96 74.8596L130.45 64.2696C127.48 65.1996 125.17 66.4296 123.54 67.9596C121.91 69.4896 121.13 71.1796 121.22 73.0196C121.36 75.9496 123.84 78.3096 128.65 80.0896H128.64Z" fill="#1B242C"/>
<path d="M140.36 77.1593C149.81 93.7193 131.27 122.089 98.9698 140.519C66.6598 158.949 32.8098 160.459 23.3698 143.899L15.7998 130.629L132.79 63.8793C132.79 63.8793 130.91 60.5893 140.36 77.1493V77.1593Z" fill="white" stroke="#1B242C" stroke-width="1.5" stroke-miterlimit="10"/>
<path d="M91.1111 126.745C123.421 108.315 141.956 79.9508 132.51 63.3904C123.064 46.8301 89.2146 48.3451 56.9047 66.7744C24.5947 85.2037 6.05972 113.568 15.5056 130.129C24.9514 146.689 58.8012 145.174 91.1111 126.745Z" fill="white" stroke="#1B242C" stroke-width="1.5" stroke-miterlimit="10"/>
<path d="M67.5998 109.86L63.0498 117.92C59.3798 118.62 56.2198 118.6 53.5798 117.86C50.9398 117.12 48.9298 115.68 47.5498 113.54C46.1698 111.4 45.7498 109.12 46.1098 106.41C46.4698 103.7 47.6098 100.86 49.5598 97.8899C51.4998 94.9099 54.0898 91.9999 57.3298 89.1499L54.7698 85.1699L60.7998 81.2899L63.0198 84.7499C63.4398 84.4499 64.0698 84.0199 64.9398 83.4699C65.8098 82.9199 66.4498 82.5099 66.8998 82.2599L64.6798 78.7999L70.7098 74.9199L73.2698 78.8999C77.2098 77.1299 80.9298 75.9799 84.4398 75.4499C87.9498 74.9199 91.0098 75.0499 93.6198 75.8499C96.2298 76.6499 98.1898 78.0699 99.5098 80.1099C100.89 82.2499 101.36 84.6699 100.95 87.3899C100.53 90.0999 99.2598 92.9699 97.1498 95.9899L87.9198 96.7899C90.7398 92.5499 91.3598 89.2099 89.7898 86.7599C88.7898 85.2099 87.1798 84.2799 84.9598 83.9799C82.7398 83.6799 80.1498 84.0199 77.1898 84.9899L82.9298 93.9099L76.8998 97.7899L70.5898 87.9899C70.1398 88.2399 69.4898 88.6499 68.6298 89.1999C67.7698 89.7499 67.1298 90.1799 66.7098 90.4799L73.0198 100.28L66.9898 104.16L61.2498 95.2399C59.1398 97.5299 57.7598 99.7499 57.1098 101.89C56.4598 104.04 56.6398 105.88 57.6298 107.44C59.2198 109.91 62.5398 110.71 67.5998 109.85V109.86Z" fill="#3418D8"/>
<path d="M210.5 70.9496C207.18 89.5196 175.12 99.3297 138.9 92.8596C102.67 86.3896 75.9899 66.0896 79.3099 47.5196L81.9699 32.6396L213.16 56.0797C213.16 56.0797 213.82 52.3896 210.5 70.9596V70.9496Z" fill="#1B242C" stroke="#1B242C" stroke-width="1.5" stroke-miterlimit="10"/>
<path d="M213.259 55.5244C216.577 36.9525 189.901 16.6502 153.676 10.1779C117.451 3.70567 85.3947 13.5144 82.0765 32.0864C78.7583 50.6583 105.435 70.9607 141.66 77.4329C177.885 83.9051 209.941 74.0964 213.259 55.5244Z" fill="white" stroke="#1B242C" stroke-width="1.5" stroke-miterlimit="10"/>
<path d="M147.99 56.9396L116.14 51.2496L118.67 37.0996C133.72 39.7096 146.86 36.2296 148.11 29.2696C148.12 29.2096 148.13 29.1596 148.13 29.0996L179.45 34.6896L176.91 48.9096C162.09 46.4796 149.24 49.9596 148.01 56.8396C148.01 56.8696 148 56.9096 148 56.9396H147.99Z" fill="#11D582"/>
<path d="M198.3 8.25981C211.88 -3.13019 232.13 -1.36019 243.52 12.2298" stroke="#1B242C" stroke-width="1.5" stroke-miterlimit="10"/>
<path d="M3.53994 130.11C0.319941 124.92 -1.94006 112.85 7.53994 103.11" stroke="#1B242C" stroke-width="1.5" stroke-miterlimit="10"/>
<path d="M192.56 38.0004C176.7 48.5904 180.59 82.2504 201.24 113.18C221.89 144.12 251.49 160.61 267.34 150.03L280.05 141.55L205.27 29.5104C205.27 29.5104 208.42 27.4104 192.56 37.9904V38.0004Z" fill="white" stroke="#1B242C" stroke-width="1.5" stroke-miterlimit="10"/>
<path d="M280.517 141.243C296.375 130.659 292.49 96.9992 271.841 66.0607C251.192 35.1223 221.598 18.6213 205.74 29.2049C189.883 39.7885 193.767 73.4488 214.416 104.387C235.065 135.326 264.66 151.827 280.517 141.243Z" fill="white" stroke="#1B242C" stroke-width="1.5" stroke-miterlimit="10"/>
<path d="M258.42 79.6003C256.34 78.1404 254.22 77.4603 252.08 77.5603C252.69 75.8303 252.81 73.8704 252.45 71.6904C252.08 69.5104 251.24 67.2604 249.92 64.9804C247.74 61.2104 245.07 58.7604 241.92 57.6504C239.54 56.8104 237.05 56.8704 234.46 57.8204L230.3 50.6104L225.23 53.5404L229.28 60.5504L224.6 63.2504L220.55 56.2404L215.48 59.1703L219.53 66.1804L213.68 69.5603L218.46 77.8403L222.6 75.4503L240.26 106.04L236.12 108.43L240.9 116.71L246.75 113.33L251.9 122.25L256.97 119.32L251.82 110.4L256.5 107.7L261.65 116.62L266.72 113.69L261.52 104.69C264.34 102.69 266.05 100.27 266.62 97.4004C267.3 94.0404 266.45 90.2904 264.06 86.1604C262.37 83.2404 260.49 81.0503 258.4 79.5903L258.42 79.6003ZM229.21 71.5404L235.84 67.7104C237.49 66.7603 239 66.5003 240.38 66.9203C241.76 67.3503 242.99 68.4904 244.05 70.3304C245.11 72.1704 245.49 73.8103 245.18 75.2403C244.87 76.6803 243.9 77.8703 242.25 78.8204L235.62 82.6504L229.2 71.5404H229.21ZM257.89 94.0504C257.54 95.5104 256.49 96.7504 254.73 97.7604L246.94 102.26L240.21 90.6003L248 86.1003C251.54 84.0504 254.45 84.9903 256.7 88.8904C257.84 90.8703 258.23 92.5804 257.89 94.0404V94.0504Z" fill="white" stroke="#1B242C" stroke-width="1.5" stroke-miterlimit="10"/>
</g>
<defs>
<clipPath id="clip0_513_4138">
<rect width="291.02" height="156.14" fill="white"/>
</clipPath>
</defs>
</svg>
