<svg width="528" height="428" viewBox="0 0 528 428" fill="none" xmlns="http://www.w3.org/2000/svg">
<g clip-path="url(#clip0_535_5338)">
<path d="M346.624 377.819L207.165 385.635C202.704 385.885 199.088 382.181 199.088 377.364V274.434C199.088 269.617 202.704 265.509 207.165 265.259L346.624 257.442C351.084 257.192 354.7 260.896 354.7 265.713V368.643C354.7 373.46 351.084 377.569 346.624 377.819Z" fill="#232C34"/>
<path d="M206.741 386.142C204.723 386.142 202.819 385.381 201.331 383.974C199.592 382.327 198.595 379.917 198.595 377.366V274.437C198.595 269.369 202.428 265.03 207.138 264.767L346.597 256.951C348.778 256.824 350.863 257.594 352.459 259.108C354.199 260.754 355.195 263.162 355.195 265.715V368.645C355.195 373.713 351.362 378.051 346.652 378.315L207.193 386.131C207.041 386.14 206.891 386.144 206.741 386.144V386.142ZM347.045 257.925C346.915 257.925 346.782 257.929 346.65 257.936L207.19 265.752C202.995 265.987 199.581 269.882 199.581 274.434V377.364C199.581 379.646 200.465 381.792 202.009 383.254C203.407 384.578 205.227 385.241 207.136 385.141L346.595 377.325C350.791 377.09 354.205 373.195 354.205 368.643V265.713C354.205 263.432 353.321 261.285 351.777 259.824C350.476 258.59 348.808 257.925 347.043 257.925H347.045Z" fill="#F3FBFD"/>
<path d="M316.717 228.19C326.27 228.19 334.014 220.087 334.014 210.091C334.014 200.095 326.27 191.992 316.717 191.992C307.163 191.992 299.419 200.095 299.419 210.091C299.419 220.087 307.163 228.19 316.717 228.19Z" fill="#F3FBFD"/>
<path d="M317.393 227.033C326.662 227.033 334.176 219.17 334.176 209.471C334.176 199.772 326.662 191.909 317.393 191.909C308.124 191.909 300.61 199.772 300.61 209.471C300.61 219.17 308.124 227.033 317.393 227.033Z" fill="#232C34"/>
<path d="M317.37 227.529C313.598 227.529 309.943 226.244 306.907 223.821C303.13 220.804 300.756 216.426 300.226 211.489C299.162 201.598 305.994 192.644 315.459 191.528C319.911 191.002 324.324 192.281 327.883 195.124C331.66 198.14 334.034 202.518 334.563 207.453C335.628 217.344 328.795 226.298 319.331 227.414C318.675 227.492 318.021 227.529 317.37 227.529ZM317.416 192.403C316.803 192.403 316.189 192.44 315.574 192.511C306.646 193.564 300.2 202.031 301.208 211.385C301.712 216.057 303.953 220.197 307.523 223.049C310.874 225.726 315.027 226.927 319.216 226.433C328.144 225.38 334.59 216.913 333.582 207.559C333.08 202.888 330.837 198.747 327.267 195.898C324.409 193.614 320.966 192.405 317.416 192.405V192.403Z" fill="#F3FBFD"/>
<path d="M317.394 224.208C325.174 224.208 331.48 217.61 331.48 209.471C331.48 201.332 325.174 194.734 317.394 194.734C309.615 194.734 303.309 201.332 303.309 209.471C303.309 217.61 309.615 224.208 317.394 224.208Z" fill="#232C34"/>
<path d="M317.375 224.704C314.191 224.704 311.105 223.619 308.544 221.574C305.358 219.03 303.356 215.337 302.909 211.174C302.01 202.829 307.776 195.276 315.761 194.334C319.518 193.89 323.243 194.967 326.246 197.366C329.432 199.91 331.434 203.603 331.882 207.766C332.781 216.111 327.015 223.664 319.029 224.606C318.476 224.671 317.924 224.704 317.375 224.704ZM317.412 195.226C316.901 195.226 316.389 195.256 315.874 195.317C308.425 196.196 303.048 203.26 303.888 211.067C304.307 214.965 306.179 218.423 309.159 220.802C311.954 223.034 315.418 224.036 318.912 223.625C326.361 222.746 331.738 215.683 330.898 207.875C330.479 203.977 328.607 200.519 325.627 198.14C323.243 196.235 320.372 195.226 317.409 195.226H317.412Z" fill="#F3FBFD"/>
<path d="M318.194 202.714H311.214V209.705C315.069 209.706 318.194 212.836 318.194 216.697L325.174 216.697V209.706C321.319 209.706 318.194 206.575 318.194 202.714C318.194 202.714 318.194 202.714 318.194 202.714Z" fill="#F3FBFD"/>
<path d="M281.068 285.546C294.473 285.546 305.339 274.176 305.339 260.15C305.339 246.124 294.473 234.754 281.068 234.754C267.663 234.754 256.797 246.124 256.797 260.15C256.797 274.176 267.663 285.546 281.068 285.546Z" fill="#8E7AFF"/>
<path d="M282.106 284.038C295.112 284.038 305.656 273.005 305.656 259.395C305.656 245.785 295.112 234.752 282.106 234.752C269.099 234.752 258.556 245.785 258.556 259.395C258.556 273.005 269.099 284.038 282.106 284.038Z" fill="#232C34"/>
<path d="M282.106 284.532C268.847 284.532 258.061 273.256 258.061 259.395C258.061 245.535 268.847 234.258 282.106 234.258C295.364 234.258 306.151 245.535 306.151 259.395C306.151 273.256 295.364 284.532 282.106 284.532V284.532ZM282.106 235.248C269.393 235.248 259.049 246.081 259.049 259.395C259.049 272.71 269.393 283.543 282.106 283.543C294.819 283.543 305.163 272.71 305.163 259.395C305.163 246.081 294.819 235.248 282.106 235.248V235.248Z" fill="#8E7AFF"/>
<path d="M282.107 280.076C293.022 280.076 301.871 270.817 301.871 259.395C301.871 247.973 293.022 238.714 282.107 238.714C271.191 238.714 262.342 247.973 262.342 259.395C262.342 270.817 271.191 280.076 282.107 280.076Z" fill="#8E7AFF"/>
<path d="M282.106 280.57C270.937 280.57 261.849 271.07 261.849 259.395C261.849 247.721 270.937 238.221 282.106 238.221C293.276 238.221 302.364 247.721 302.364 259.395C302.364 271.07 293.276 280.57 282.106 280.57V280.57ZM282.106 239.208C271.48 239.208 262.837 248.264 262.837 259.393C262.837 270.522 271.48 279.578 282.106 279.578C292.733 279.578 301.376 270.522 301.376 259.393C301.376 248.264 292.73 239.208 282.106 239.208V239.208Z" fill="#8E7AFF"/>
<path d="M280.293 273.997V270.598C278.002 270.491 275.778 269.845 274.479 269.058L275.505 264.871C276.94 265.693 278.96 266.446 281.181 266.446C283.132 266.446 284.465 265.659 284.465 264.228C284.465 262.797 283.371 262.009 280.84 261.113C277.181 259.826 274.684 258.036 274.684 254.565C274.684 251.415 276.803 248.947 280.465 248.194V244.795H283.816V247.944C286.107 248.051 287.647 248.553 288.776 249.125L287.783 253.168C286.895 252.775 285.321 251.953 282.858 251.953C280.634 251.953 279.917 252.955 279.917 253.956C279.917 255.137 281.114 255.889 284.022 257.033C288.092 258.536 289.734 260.504 289.734 263.725C289.734 266.946 287.579 269.63 283.646 270.345V273.995H280.295L280.293 273.997Z" fill="#232C34"/>
<path d="M343.774 267.749H212.795C204.612 267.749 197.978 274.392 197.978 282.588V373.284C197.978 381.479 204.612 388.123 212.795 388.123H343.774C351.957 388.123 358.592 381.479 358.592 373.284V282.588C358.592 274.392 351.957 267.749 343.774 267.749Z" fill="#232C34"/>
<path d="M343.772 388.617H212.795C204.352 388.617 197.482 381.738 197.482 373.282V282.586C197.482 274.13 204.352 267.251 212.795 267.251H343.772C352.215 267.251 359.084 274.13 359.084 282.586V373.282C359.084 381.738 352.215 388.617 343.772 388.617ZM212.795 268.242C204.897 268.242 198.471 274.678 198.471 282.588V373.284C198.471 381.194 204.897 387.629 212.795 387.629H343.772C351.67 387.629 358.096 381.194 358.096 373.284V282.588C358.096 274.678 351.67 268.242 343.772 268.242H212.795V268.242Z" fill="#F3FBFD"/>
<path d="M355.255 316.302H332.194C327.282 316.302 323.301 320.29 323.301 325.209V330.657C323.301 335.575 327.282 339.563 332.194 339.563H355.255C360.167 339.563 364.149 335.575 364.149 330.657V325.209C364.149 320.29 360.167 316.302 355.255 316.302Z" fill="#232C34"/>
<path d="M355.256 340.059H332.192C327.017 340.059 322.806 335.841 322.806 330.659V325.209C322.806 320.026 327.017 315.809 332.192 315.809H355.256C360.431 315.809 364.642 320.026 364.642 325.209V330.659C364.642 335.841 360.431 340.059 355.256 340.059ZM332.192 316.798C327.562 316.798 323.794 320.572 323.794 325.209V330.659C323.794 335.298 327.562 339.069 332.192 339.069H355.256C359.886 339.069 363.654 335.296 363.654 330.659V325.209C363.654 320.57 359.886 316.798 355.256 316.798H332.192Z" fill="#F3FBFD"/>
<path d="M332.192 332.588C334.647 332.588 336.637 330.505 336.637 327.936C336.637 325.367 334.647 323.284 332.192 323.284C329.736 323.284 327.746 325.367 327.746 327.936C327.746 330.505 329.736 332.588 332.192 332.588Z" fill="#F3FBFD"/>
<path d="M279.543 349.089C279.437 349.089 279.331 349.054 279.241 348.986C279.024 348.819 278.985 348.508 279.152 348.293L290.154 334.019C290.322 333.804 290.632 333.765 290.847 333.93C291.064 334.097 291.103 334.408 290.936 334.624L279.934 348.897C279.837 349.023 279.691 349.089 279.543 349.089V349.089Z" fill="#F3FBFD"/>
<path d="M292.543 332.225C292.437 332.225 292.331 332.19 292.241 332.123C292.024 331.955 291.985 331.644 292.152 331.429L305.32 314.345C305.487 314.128 305.797 314.091 306.012 314.256C306.23 314.424 306.269 314.735 306.101 314.95L292.934 332.034C292.837 332.16 292.691 332.225 292.543 332.225Z" fill="#F3FBFD"/>
<path d="M307.689 312.57C307.582 312.57 307.476 312.536 307.387 312.468C307.17 312.301 307.131 311.99 307.298 311.774L311.348 306.52C311.515 306.305 311.826 306.266 312.041 306.431C312.256 306.598 312.297 306.909 312.13 307.125L308.08 312.379C307.982 312.505 307.837 312.57 307.689 312.57Z" fill="#F3FBFD"/>
<path d="M235.917 347.636C235.811 347.636 235.705 347.601 235.616 347.534C235.398 347.366 235.359 347.055 235.526 346.84L243.221 336.855C243.388 336.64 243.699 336.601 243.914 336.766C244.129 336.933 244.17 337.244 244.003 337.46L236.308 347.445C236.211 347.571 236.065 347.636 235.917 347.636V347.636Z" fill="#F3FBFD"/>
<path d="M245.12 335.696C245.013 335.696 244.907 335.661 244.818 335.594C244.6 335.426 244.561 335.115 244.729 334.9L253.754 323.188C253.922 322.973 254.232 322.934 254.447 323.099C254.664 323.266 254.703 323.577 254.536 323.793L245.51 335.504C245.413 335.631 245.267 335.696 245.12 335.696Z" fill="#F3FBFD"/>
<path d="M257.034 320.237C256.927 320.237 256.821 320.202 256.732 320.135C256.515 319.967 256.475 319.656 256.643 319.441L266.159 307.094C266.326 306.879 266.637 306.84 266.852 307.005C267.069 307.172 267.108 307.483 266.941 307.699L257.425 320.046C257.327 320.172 257.181 320.237 257.034 320.237V320.237Z" fill="#F3FBFD"/>
<path d="M272.339 376.546C272.233 376.546 272.126 376.511 272.037 376.444C271.82 376.277 271.781 375.966 271.948 375.75L285.787 357.795C285.954 357.579 286.264 357.54 286.479 357.705C286.696 357.873 286.736 358.184 286.568 358.399L272.73 376.355C272.632 376.481 272.487 376.546 272.339 376.546V376.546Z" fill="#F3FBFD"/>
<path d="M287.65 356.681C287.543 356.681 287.437 356.646 287.348 356.579C287.131 356.411 287.092 356.1 287.259 355.885L299.082 340.544C299.249 340.328 299.56 340.289 299.775 340.454C299.99 340.622 300.031 340.933 299.864 341.148L288.041 356.49C287.943 356.616 287.797 356.681 287.65 356.681Z" fill="#F3FBFD"/>
<path d="M250.497 211.792C260.75 211.792 269.063 203.093 269.063 192.364C269.063 181.634 260.75 172.936 250.497 172.936C240.243 172.936 231.931 181.634 231.931 192.364C231.931 203.093 240.243 211.792 250.497 211.792Z" fill="#F3FBFD"/>
<path d="M251.372 210.789C261.321 210.789 269.386 202.35 269.386 191.94C269.386 181.529 261.321 173.09 251.372 173.09C241.423 173.09 233.357 181.529 233.357 191.94C233.357 202.35 241.423 210.789 251.372 210.789Z" fill="#232C34"/>
<path d="M251.4 211.287C250.334 211.287 249.263 211.191 248.192 210.996C238.142 209.164 231.388 199.13 233.136 188.623C234.007 183.386 236.81 178.864 241.03 175.893C245.015 173.088 249.815 172.016 254.549 172.881C264.6 174.712 271.354 184.747 269.606 195.254C268.735 200.491 265.931 205.013 261.711 207.983C258.628 210.156 255.053 211.287 251.398 211.287H251.4ZM251.348 173.579C247.895 173.579 244.518 174.649 241.601 176.702C237.599 179.521 234.941 183.812 234.113 188.786C232.454 198.762 238.85 208.288 248.373 210.023C252.844 210.837 257.381 209.826 261.147 207.174C265.147 204.356 267.807 200.065 268.635 195.091C270.294 185.117 263.898 175.589 254.375 173.853C253.368 173.671 252.353 173.579 251.348 173.579V173.579Z" fill="#F3FBFD"/>
<path d="M251.371 207.76C259.72 207.76 266.489 200.677 266.489 191.94C266.489 183.202 259.72 176.12 251.371 176.12C243.022 176.12 236.254 183.202 236.254 191.94C236.254 200.677 243.022 207.76 251.371 207.76Z" fill="#232C34"/>
<path d="M251.395 208.255C250.496 208.255 249.593 208.175 248.689 208.01C240.213 206.465 234.515 198.003 235.989 189.145C236.723 184.728 239.088 180.915 242.648 178.41C246.007 176.043 250.058 175.139 254.054 175.867C262.53 177.411 268.226 185.876 266.754 194.734C266.02 199.151 263.655 202.964 260.095 205.469C257.494 207.301 254.477 208.255 251.395 208.255V208.255ZM251.352 176.611C248.47 176.611 245.651 177.505 243.217 179.219C239.877 181.57 237.657 185.154 236.964 189.306C235.579 197.633 240.917 205.589 248.868 207.035C252.599 207.714 256.384 206.87 259.528 204.658C262.869 202.307 265.09 198.723 265.781 194.571C267.166 186.244 261.828 178.288 253.88 176.839C253.037 176.687 252.192 176.611 251.354 176.611H251.352Z" fill="#F3FBFD"/>
<path d="M248.175 202.694L248.6 200.132C246.887 199.736 245.293 198.947 244.411 198.175L245.71 195.16C246.689 195.978 248.116 196.822 249.79 197.127C251.259 197.394 252.364 196.983 252.544 195.904C252.716 194.88 251.997 194.082 250.203 193.06C247.606 191.587 245.949 189.895 246.385 187.279C246.78 184.906 248.687 183.336 251.541 183.273L251.967 180.711L254.492 181.172L254.097 183.545C255.811 183.94 256.907 184.53 257.687 185.115L256.432 188.027C255.811 187.607 254.729 186.772 252.872 186.433C251.198 186.128 250.529 186.785 250.405 187.54C250.257 188.429 251.065 189.16 253.111 190.424C255.991 192.116 256.981 193.823 256.577 196.25C256.178 198.651 254.212 200.404 251.159 200.404L250.7 203.155L248.175 202.694V202.694Z" fill="#F3FBFD"/>
<path d="M443.72 379.608L446.46 398.947H452.391L452.721 379.928L443.72 379.608Z" fill="#232C34"/>
<path d="M452.392 399.441H446.459C446.213 399.441 446.005 399.26 445.97 399.017L443.229 379.68C443.21 379.534 443.253 379.389 443.351 379.28C443.449 379.171 443.592 379.106 443.735 379.117L452.739 379.436C453.008 379.445 453.221 379.669 453.215 379.939L452.885 398.958C452.88 399.228 452.661 399.443 452.392 399.443V399.441ZM446.889 398.451H451.907L452.22 380.404L444.291 380.124L446.889 398.451Z" fill="#11D582"/>
<path d="M446.224 417.433C449.062 417.74 453.708 417.938 459.122 417.001C460.896 416.694 462.021 414.917 461.532 413.175C460.175 408.323 457.247 399.132 453.564 394.947L452.761 397.309L451.319 394.889C451.143 394.593 450.837 394.399 450.496 394.369L447.979 394.384C447.42 394.332 446.914 394.719 446.819 395.274L446.463 397.311L444.589 394.771L443.546 414.11C443.383 415.77 444.578 417.257 446.226 417.435L446.224 417.433Z" fill="#232C34"/>
<path d="M451.069 418.181C449.152 418.181 447.49 418.066 446.17 417.925C444.261 417.718 442.862 415.985 443.051 414.06L444.092 394.743C444.102 394.534 444.244 394.356 444.443 394.295C444.643 394.236 444.858 394.308 444.982 394.475L446.172 396.087L446.331 395.187C446.472 394.384 447.214 393.808 448.025 393.89L450.494 393.873C451.039 393.921 451.488 394.206 451.745 394.634L452.639 396.137L453.098 394.789C453.154 394.621 453.295 394.497 453.469 394.462C453.643 394.43 453.819 394.489 453.936 394.621C457.658 398.847 460.592 407.977 462.008 413.042C462.278 414.006 462.128 415.043 461.593 415.889C461.059 416.735 460.19 417.318 459.205 417.488C456.208 418.007 453.443 418.184 451.069 418.184V418.181ZM446.276 416.94C449.167 417.251 453.727 417.429 459.035 416.511C459.745 416.389 460.373 415.967 460.757 415.359C461.142 414.75 461.25 414.001 461.055 413.308C459.732 408.582 457.078 400.272 453.745 395.946L453.228 397.468C453.165 397.651 453.004 397.781 452.811 397.801C452.62 397.82 452.433 397.727 452.335 397.562L450.893 395.141C450.798 394.982 450.633 394.878 450.448 394.86L447.979 394.878C447.629 394.85 447.353 395.061 447.301 395.358L446.945 397.396C446.91 397.592 446.765 397.746 446.572 397.792C446.381 397.836 446.179 397.764 446.061 397.605L445.004 396.172L444.035 414.136C443.898 415.546 444.904 416.796 446.274 416.942L446.276 416.94Z" fill="#11D582"/>
<path d="M452.961 414.882C448.906 414.882 445.79 414.117 445.596 414.067C445.331 413.999 445.171 413.732 445.238 413.466C445.305 413.201 445.575 413.04 445.837 413.107C445.907 413.125 452.904 414.841 459.465 413.107C459.73 413.038 459.999 413.197 460.069 413.46C460.138 413.725 459.982 413.995 459.717 414.064C457.397 414.678 455.054 414.882 452.961 414.882V414.882Z" fill="#11D582"/>
<path d="M455.356 407.32H448.995C448.721 407.32 448.502 407.098 448.502 406.826C448.502 406.555 448.723 406.333 448.995 406.333H455.356C455.63 406.333 455.849 406.555 455.849 406.826C455.849 407.098 455.627 407.32 455.356 407.32Z" fill="#11D582"/>
<path d="M393.388 381.335L390.921 403.873L381.487 405.859L382.063 379.432L393.388 381.335Z" fill="#232C34"/>
<path d="M381.487 406.353C381.372 406.353 381.261 406.313 381.172 406.239C381.057 406.144 380.99 405.998 380.994 405.848L381.568 379.421C381.57 379.278 381.637 379.143 381.746 379.051C381.857 378.96 382.002 378.921 382.143 378.945L393.469 380.848C393.727 380.891 393.907 381.128 393.877 381.389L391.41 403.928C391.386 404.141 391.23 404.312 391.021 404.358L381.587 406.344C381.552 406.35 381.52 406.355 381.485 406.355L381.487 406.353ZM382.543 380.013L381.995 405.246L390.47 403.462L392.848 381.746L382.545 380.015L382.543 380.013Z" fill="#11D582"/>
<path d="M395.076 413.138C395.213 409.624 395.081 403.334 392.731 399.893L385.184 402.594V400.974C385.184 400.452 384.813 400.022 384.341 399.995L380.133 399.752C378.563 399.661 376.997 399.987 375.563 400.696C371.322 402.792 362.431 407.671 359.94 412.834C359.247 414.269 360.172 415.968 361.749 416.163C365.786 416.666 375.151 417.305 392.431 415.9C393.88 415.783 395.02 414.597 395.076 413.138V413.138Z" fill="#232C34"/>
<path d="M373.567 417.246C367.73 417.246 363.91 416.929 361.686 416.653C360.774 416.54 359.998 416.009 359.558 415.198C359.117 414.386 359.093 413.445 359.492 412.616C361.992 407.436 370.494 402.644 375.342 400.25C376.851 399.504 378.519 399.162 380.159 399.254L384.367 399.497C385.101 399.539 385.677 400.187 385.677 400.97V401.888L392.563 399.423C392.774 399.345 393.011 399.423 393.137 399.61C395.573 403.179 395.706 409.628 395.569 413.153C395.502 414.861 394.171 416.25 392.47 416.39C384.626 417.027 378.404 417.244 373.567 417.244V417.246ZM379.626 400.23C378.31 400.23 376.99 400.541 375.78 401.139C371.971 403.023 362.843 407.953 360.383 413.049C360.122 413.586 360.14 414.199 360.426 414.726C360.713 415.254 361.217 415.598 361.808 415.672C365.836 416.174 375.166 416.807 392.39 415.406C393.593 415.309 394.535 414.326 394.583 413.119C394.711 409.819 394.607 403.888 392.529 400.489L385.351 403.058C385.199 403.112 385.032 403.088 384.899 402.997C384.769 402.903 384.691 402.753 384.691 402.592V400.972C384.691 400.715 384.522 400.498 384.313 400.487L380.104 400.243C379.946 400.235 379.787 400.23 379.626 400.23V400.23Z" fill="#11D582"/>
<path d="M378.906 414.33C369.589 414.33 363.315 413.247 363.226 413.232C362.956 413.184 362.778 412.927 362.826 412.66C362.874 412.39 363.13 412.212 363.399 412.259C363.525 412.281 376.139 414.456 392.192 412.584C392.466 412.555 392.709 412.747 392.739 413.018C392.772 413.29 392.577 413.536 392.305 413.567C387.445 414.134 382.897 414.332 378.906 414.332V414.33Z" fill="#11D582"/>
<path d="M373.081 408.188C372.927 408.188 372.777 408.116 372.679 407.984C372.518 407.762 372.568 407.453 372.79 407.294L380.054 402.044C380.276 401.883 380.584 401.933 380.745 402.155C380.906 402.377 380.856 402.686 380.634 402.844L373.37 408.095C373.283 408.158 373.181 408.188 373.081 408.188V408.188Z" fill="#11D582"/>
<path d="M390.446 235.102C390.446 235.102 375.882 328.782 378.764 391.002L393.812 391.394C393.812 391.394 410.98 296.42 419.03 280.724C419.03 280.724 441.147 367.312 441.99 390.082C441.99 390.082 451.723 391.065 455.602 389.663C457.685 367.686 458.069 342.405 458.173 328.125C458.471 287.253 454.586 268.688 452.455 259.882C450.498 251.796 448.398 245.223 446.865 240.778L441.744 226.1L390.446 235.104V235.102Z" fill="#232C34"/>
<path d="M393.81 391.887H393.797L378.751 391.496C378.493 391.489 378.282 391.283 378.271 391.024C375.42 329.467 389.814 235.963 389.959 235.025C389.992 234.817 390.155 234.651 390.361 234.614L441.659 225.61C441.898 225.571 442.131 225.706 442.211 225.935L447.332 240.611C449.488 246.861 451.374 253.303 452.935 259.762C455.532 270.497 458.951 289.262 458.668 328.125C458.486 353.231 457.643 373.375 456.095 389.706C456.077 389.897 455.952 390.061 455.771 390.124C451.832 391.548 442.344 390.611 441.942 390.57C441.696 390.546 441.507 390.343 441.499 390.095C440.723 369.18 421.682 293.21 418.893 282.177C410.745 300.815 394.468 390.552 394.301 391.479C394.257 391.716 394.053 391.885 393.814 391.885L393.81 391.887ZM379.235 390.519L393.399 390.887C394.802 383.162 410.786 295.711 418.589 280.495C418.683 280.313 418.878 280.208 419.084 280.23C419.289 280.254 419.456 280.4 419.508 280.6C419.727 281.461 441.373 366.42 442.465 389.628C444.315 389.789 451.714 390.348 455.141 389.295C456.668 373.051 457.498 353.036 457.68 328.12C457.963 289.367 454.559 270.682 451.975 259.997C450.42 253.571 448.544 247.157 446.398 240.937L441.416 226.659L390.88 235.528C389.916 241.859 376.569 330.967 379.235 390.519V390.519Z" fill="#11D582"/>
<path d="M419.11 281.511C418.902 281.511 418.706 281.376 418.639 281.167C416.702 275.117 411.146 273.592 411.09 273.577C410.827 273.507 410.669 273.238 410.738 272.972C410.808 272.707 411.077 272.55 411.342 272.62C411.591 272.685 417.477 274.301 419.579 280.865C419.662 281.126 419.52 281.404 419.26 281.487C419.21 281.502 419.16 281.511 419.11 281.511Z" fill="#11D582"/>
<path d="M351.999 125.23C350.023 112.431 344.621 112.468 345.592 115.53C346.567 118.601 348.415 129.144 348.415 129.144L351.997 125.228L351.999 125.23Z" fill="#232C34"/>
<path d="M348.417 129.64C348.372 129.64 348.324 129.634 348.278 129.621C348.098 129.569 347.963 129.416 347.931 129.231C347.911 129.127 346.076 118.686 345.123 115.68C344.864 114.869 344.969 114.153 345.407 113.718C345.785 113.344 346.352 113.244 346.964 113.446C348.858 114.073 351.304 117.476 352.489 125.151C352.513 125.299 352.468 125.449 352.366 125.56L348.784 129.477C348.689 129.582 348.556 129.638 348.419 129.638L348.417 129.64ZM346.359 114.334C346.263 114.334 346.17 114.355 346.102 114.423C345.983 114.54 345.9 114.864 346.065 115.38C346.873 117.924 348.244 125.365 348.73 128.072L351.475 125.071C350.268 117.502 347.883 114.795 346.654 114.388C346.578 114.362 346.467 114.334 346.359 114.334Z" fill="#11D582"/>
<path d="M347.743 127.378C347.178 127.922 346.068 129.197 346.231 130.689C346.394 132.196 348.733 137.418 349.856 139.856C350.24 140.691 350.453 141.591 350.477 142.509C350.546 145.003 350.264 154.936 356.145 155.147C358.629 155.236 358.664 150.61 358.304 144.838C357.941 139.057 358.923 141.532 360.894 135.73C362.866 129.927 360.564 124.697 359.437 124.062C358.31 123.427 356.523 125.171 356.523 125.171C356.523 125.171 355.6 121.576 353.569 121.65C352.655 121.682 351.871 122.948 350.516 124.645C349.328 126.132 347.897 127.235 347.747 127.378H347.743Z" fill="#232C34"/>
<path d="M356.214 155.645C356.184 155.645 356.156 155.645 356.125 155.645C350.177 155.432 350.042 146.493 349.992 143.129C349.988 142.898 349.986 142.696 349.981 142.526C349.957 141.674 349.764 140.845 349.404 140.067C348.105 137.246 345.903 132.283 345.738 130.745C345.558 129.077 346.7 127.698 347.399 127.026C347.427 127 347.495 126.941 347.595 126.856C348.022 126.498 349.163 125.543 350.125 124.34C350.366 124.038 350.589 123.749 350.8 123.479C351.825 122.154 352.566 121.197 353.547 121.163C355.317 121.102 356.338 123.177 356.761 124.325C357.476 123.783 358.692 123.083 359.676 123.64C361.133 124.46 363.333 130.088 361.359 135.897C360.573 138.211 359.941 139.24 359.478 139.988C358.827 141.047 358.581 141.445 358.794 144.814C359.124 150.084 359.057 153.629 357.702 155.023C357.298 155.439 356.798 155.649 356.214 155.649V155.645ZM348.083 127.735C347.627 128.177 346.58 129.34 346.719 130.636C346.828 131.643 348.168 135.012 350.301 139.649C350.715 140.552 350.941 141.509 350.967 142.496C350.972 142.668 350.976 142.874 350.978 143.109C351.024 146.217 351.148 154.473 356.158 154.653C356.496 154.66 356.764 154.562 356.992 154.327C358.154 153.131 358.069 149.075 357.806 144.869C357.587 141.363 357.847 140.741 358.636 139.462C359.072 138.751 359.672 137.779 360.421 135.571C362.304 130.027 360.086 124.999 359.189 124.495C358.584 124.151 357.359 125.043 356.861 125.528C356.735 125.649 356.553 125.697 356.384 125.649C356.214 125.602 356.082 125.467 356.038 125.297C355.81 124.414 354.933 122.146 353.621 122.146C353.608 122.146 353.595 122.146 353.58 122.146C353.061 122.165 352.407 123.009 351.578 124.081C351.365 124.355 351.139 124.649 350.893 124.956C349.871 126.237 348.676 127.237 348.227 127.613C348.155 127.674 348.105 127.716 348.081 127.737L348.083 127.735Z" fill="#11D582"/>
<path d="M352.789 136.002C352.487 136.002 352.211 135.948 351.972 135.856C351.117 135.521 350.63 134.669 350.698 133.629C350.845 131.389 352.177 130.051 352.233 129.995C352.428 129.804 352.739 129.806 352.932 129.999C353.123 130.195 353.121 130.506 352.928 130.7C352.917 130.71 351.807 131.844 351.686 133.694C351.644 134.305 351.881 134.76 352.333 134.936C352.965 135.184 354.153 134.914 355.421 133.34C357.523 130.728 355.999 125.147 355.984 125.091C355.91 124.827 356.064 124.553 356.327 124.482C356.589 124.408 356.861 124.562 356.935 124.825C357.004 125.075 358.609 130.958 356.19 133.962C354.976 135.471 353.745 136.004 352.789 136.004V136.002Z" fill="#11D582"/>
<path d="M434.079 156.963C463.373 164.771 470.659 175.699 467.21 201.987C464.841 220.034 449.3 231.085 449.3 231.085C449.3 231.085 457.505 253.549 452.265 256.457C447.024 259.364 439.845 261.009 431.85 258.062C415.86 252.17 390.907 245.5 383.456 250.674L382.67 212.983L354.691 208.12C354.691 208.12 360.147 176.952 381.799 162.587C395.435 153.54 420.568 153.364 434.081 156.963H434.079Z" fill="#11D582"/>
<path d="M346.295 146.796L361.706 146.317C361.706 146.317 365.884 184.055 371.205 189.682C376.526 195.308 386.891 202.505 386.891 202.505C386.891 202.505 383.864 223.336 364.963 222.137C334.839 220.228 346.295 146.796 346.295 146.796Z" fill="#11D582"/>
<path d="M424.021 228.153C423.891 228.153 423.761 228.101 423.663 227.998C423.476 227.801 423.485 227.487 423.682 227.298C436.724 214.936 442.672 196.535 442.731 196.35C442.813 196.089 443.091 195.945 443.352 196.028C443.612 196.111 443.756 196.389 443.673 196.65C443.614 196.837 437.586 215.48 424.362 228.016C424.267 228.107 424.145 228.151 424.023 228.151L424.021 228.153Z" fill="#232C34"/>
<path d="M431.019 241.276C430.808 241.276 430.615 241.141 430.548 240.93C430.465 240.669 430.611 240.391 430.869 240.31C443.715 236.254 450.727 230.223 450.797 230.163C451.003 229.984 451.314 230.004 451.494 230.21C451.674 230.417 451.652 230.728 451.446 230.909C451.374 230.969 444.225 237.131 431.166 241.254C431.117 241.27 431.067 241.276 431.017 241.276H431.019Z" fill="#232C34"/>
<path d="M349.329 258.571L354.774 267.409C356.422 270.089 361.163 270.85 368.64 269.064C383.597 265.493 403.933 253.062 414.494 241.104C414.667 240.909 414.837 240.713 415.006 240.517C420.292 234.351 421.888 229.538 420.186 226.772L414.741 217.933C416.444 220.7 414.848 225.513 409.562 231.678C409.395 231.874 409.223 232.07 409.049 232.266C398.488 244.223 378.152 256.652 363.196 260.226C355.716 262.011 350.975 261.25 349.329 258.571V258.571Z" fill="#8E7AFF"/>
<path d="M361.543 270.522C357.992 270.522 355.516 269.56 354.354 267.668L348.91 258.829C348.766 258.597 348.838 258.292 349.07 258.149C349.303 258.005 349.607 258.079 349.75 258.31L349.755 258.316C351.331 260.869 356.189 261.391 363.082 259.745C377.785 256.233 398.24 243.76 408.68 231.939C408.851 231.744 409.021 231.55 409.188 231.357C414.083 225.648 415.953 220.848 414.322 218.194C414.179 217.962 414.25 217.657 414.483 217.514C414.715 217.37 415.019 217.444 415.162 217.675L420.607 226.513C422.507 229.604 420.653 234.693 415.382 240.839C415.212 241.037 415.041 241.235 414.865 241.433C404.132 253.586 383.879 265.935 368.757 269.545C366.023 270.197 363.601 270.522 361.545 270.522H361.543ZM351.307 260.839L355.195 267.148C356.769 269.708 361.63 270.228 368.527 268.582C383.229 265.071 403.685 252.596 414.124 240.776C414.296 240.58 414.465 240.387 414.63 240.193C419.525 234.482 421.397 229.684 419.764 227.031L415.881 220.728C415.751 223.705 413.727 227.579 409.935 232C409.766 232.198 409.594 232.394 409.418 232.594C398.686 244.747 378.432 257.096 363.308 260.709C358.018 261.972 353.903 262.003 351.305 260.841L351.307 260.839Z" fill="#8E7AFF"/>
<path d="M355.023 244.234C354.849 244.432 354.678 244.628 354.51 244.823C344.106 256.959 347.995 263.853 363.197 260.224C378.154 256.652 398.49 244.221 409.051 232.264C409.225 232.068 409.394 231.872 409.564 231.676C419.966 219.541 416.077 212.646 400.875 216.276C385.92 219.847 365.586 232.277 355.025 244.234H355.023Z" fill="#232C34"/>
<path d="M356.098 261.683C352.536 261.683 350.058 260.715 348.899 258.812C347.016 255.719 348.875 250.637 354.135 244.501C354.304 244.301 354.476 244.106 354.654 243.908C365.386 231.755 385.64 219.408 400.759 215.798C408.224 214.014 413.342 214.688 415.173 217.692C417.056 220.785 415.197 225.867 409.937 232.003C409.768 232.2 409.596 232.396 409.42 232.596C398.688 244.749 378.434 257.098 363.31 260.711C360.576 261.363 358.155 261.687 356.096 261.687L356.098 261.683ZM407.965 215.813C405.987 215.813 403.639 216.126 400.987 216.759C386.287 220.269 365.834 232.742 355.392 244.562C355.218 244.758 355.051 244.952 354.884 245.147C349.998 250.848 348.123 255.641 349.741 258.299C351.307 260.869 356.167 261.396 363.082 259.745C377.785 256.233 398.24 243.76 408.68 231.939C408.851 231.744 409.021 231.55 409.188 231.357C414.074 225.658 415.948 220.865 414.328 218.207C413.364 216.622 411.145 215.815 407.965 215.815V215.813Z" fill="#8E7AFF"/>
<path d="M360.387 246.285L360.099 248.353L364.373 246.461C364.323 247.809 364.872 248.458 365.552 248.812L371.127 245.769C370.671 245.456 369.687 244.982 369.897 243.462C369.984 242.833 370.332 242.272 370.814 241.792C371.381 241.224 372.134 240.769 372.871 240.443C374.475 239.734 375.39 240.021 376.697 241.126C378.387 242.736 380.919 242.564 385.288 240.628C388.153 239.36 390.822 237.629 392.677 235.776C393.621 234.832 394.355 233.856 394.796 232.89L399.75 230.695L400.039 228.627L395.424 230.672C395.476 229.321 394.79 228.338 393.834 228.01L388.064 231.161C389.059 231.552 389.905 232.346 389.714 233.719C389.628 234.345 389.265 235 388.661 235.602C388.107 236.154 387.352 236.668 386.422 237.079C384.576 237.896 383.503 237.738 382.506 236.713C381.071 235.23 378.856 234.765 374.143 236.853C371.316 238.105 368.812 239.752 367.057 241.507C366.158 242.405 365.454 243.331 365.005 244.249L360.39 246.294L360.387 246.285Z" fill="#F3FBFD"/>
<path d="M420.156 244.375C420.156 244.375 422.808 243.66 427.383 240.493C430.843 238.099 425.131 226.535 421.737 231.57C418.901 235.774 416.77 236.998 416.77 236.998L403.751 236.781C402.413 236.759 401.305 237.818 401.26 239.162C401.214 240.534 402.296 241.678 403.662 241.704L409.48 241.818C410.288 241.833 410.798 242.694 410.429 243.416C409.855 244.534 409.089 245.534 408.157 246.372C406.463 247.894 403.466 250.452 400.193 252.611C398.658 253.625 398.895 255.843 400.725 255.993L412.142 252.509C415.035 251.626 417.452 249.608 418.846 246.911L420.156 244.377V244.375Z" fill="#232C34"/>
<path d="M400.725 256.487C400.712 256.487 400.699 256.487 400.684 256.487C399.702 256.407 398.981 255.826 398.753 254.936C398.497 253.929 398.964 252.829 399.919 252.198C403.233 250.013 406.293 247.379 407.824 246.004C408.71 245.208 409.438 244.26 409.987 243.19C410.085 243.001 410.079 242.788 409.968 242.603C409.859 242.422 409.677 242.316 409.468 242.311L403.65 242.198C402.858 242.183 402.121 241.857 401.574 241.28C401.025 240.702 400.738 239.943 400.764 239.145C400.816 237.557 402.13 236.285 403.707 236.285C403.724 236.285 403.739 236.285 403.757 236.285L416.626 236.5C417.08 236.193 418.952 234.806 421.324 231.291C422.299 229.843 423.4 229.717 424.147 229.865C426.271 230.284 428.197 233.492 428.766 236.224C429.218 238.397 428.814 240.102 427.661 240.9C423.745 243.61 421.224 244.551 420.496 244.789L419.282 247.137C417.838 249.936 415.286 252.066 412.285 252.983L400.868 256.468C400.821 256.481 400.773 256.489 400.725 256.489V256.487ZM403.709 237.274C402.662 237.274 401.789 238.12 401.754 239.177C401.737 239.71 401.928 240.215 402.293 240.6C402.656 240.983 403.144 241.2 403.672 241.209L409.49 241.322C410.04 241.333 410.537 241.622 410.819 242.096C411.104 242.572 411.121 243.149 410.869 243.642C410.265 244.821 409.464 245.863 408.487 246.742C406.593 248.444 403.665 250.915 400.467 253.025C399.769 253.484 399.587 254.193 399.713 254.691C399.78 254.956 399.995 255.4 400.677 255.491L411.998 252.035C414.748 251.196 417.082 249.245 418.407 246.683L419.717 244.149C419.78 244.025 419.893 243.936 420.025 243.899C420.051 243.892 422.668 243.153 427.101 240.086C427.911 239.525 428.167 238.19 427.8 236.426C427.242 233.742 425.448 231.13 423.958 230.837C423.283 230.702 422.692 231.035 422.143 231.846C419.276 236.096 417.104 237.374 417.013 237.427C416.935 237.47 416.85 237.494 416.759 237.492L403.739 237.274C403.728 237.274 403.718 237.274 403.707 237.274H403.709Z" fill="#11D582"/>
<path d="M401.709 142.222C401.262 142.998 402.185 144.508 402.193 144.506C402.208 144.501 401.75 140.088 399.303 138.973C397.885 138.325 397.148 139.403 395.035 139.112C392.79 138.801 390.318 137.131 389.391 134.686C388.272 131.733 389.886 128.92 390.902 127.146C391.914 125.38 393.202 123.416 395.437 122.568C398.351 121.461 399.568 123.159 402.903 122.118C405.616 121.269 405.418 119.956 407.831 119.266C409.844 118.692 415.643 119.018 416.939 122.118C417.762 124.084 415.986 125.28 416.872 128.192C417.404 129.94 418.24 130.156 418.848 131.504C420.36 134.854 418.464 140.739 414.857 142.709C409.959 145.384 402.769 140.384 401.707 142.224L401.709 142.222Z" fill="#F3FBFD"/>
<path d="M403.807 144.593L402.667 153.99C402.449 155.78 401.166 157.255 399.431 157.709L396.149 158.762C395.511 158.966 395.38 159.832 395.943 160.202C404.235 165.661 415.677 165.565 423.615 159.512L424.544 158.803C425.161 158.333 424.948 157.353 424.193 157.183L420.132 156.272C418.416 155.887 417.095 154.504 416.783 152.764L414.298 138.918L403.805 144.59L403.807 144.593Z" fill="#232C34"/>
<path d="M409.393 164.686C404.617 164.686 399.803 163.336 395.67 160.615C395.253 160.341 395.036 159.86 395.103 159.36C395.172 158.855 395.513 158.444 395.995 158.29L399.277 157.237C400.854 156.824 401.981 155.528 402.174 153.929L403.314 144.532C403.334 144.373 403.429 144.232 403.57 144.155L414.064 138.483C414.203 138.407 414.37 138.405 414.514 138.473C414.657 138.542 414.757 138.675 414.785 138.831L417.27 152.677C417.548 154.225 418.714 155.445 420.241 155.789L424.302 156.7C424.84 156.822 425.249 157.233 425.366 157.774C425.485 158.316 425.283 158.862 424.845 159.199L423.915 159.908C419.745 163.085 414.594 164.688 409.395 164.688L409.393 164.686ZM404.265 144.906L403.158 154.049C402.915 156.054 401.501 157.677 399.557 158.188L396.302 159.232C396.126 159.288 396.091 159.447 396.085 159.493C396.076 159.549 396.074 159.695 396.215 159.786C404.5 165.241 415.645 164.965 423.316 159.116L424.245 158.407C424.443 158.257 424.415 158.044 424.402 157.983C424.389 157.922 424.326 157.718 424.087 157.664L420.026 156.752C418.11 156.324 416.646 154.791 416.299 152.851L413.936 139.677L404.268 144.904L404.265 144.906Z" fill="#11D582"/>
<path d="M413.106 140.828C413.106 140.828 416.796 139.429 415.41 136.365C414.025 133.299 411.768 135.563 411.768 135.563C411.768 135.563 409.67 128.011 405.264 130.989C400.858 133.968 396.684 135.049 396.684 135.049C396.684 135.049 398.236 142.65 401.023 147.707C402.704 150.756 404.834 152.881 407.345 151.857C414.216 149.051 413.106 140.828 413.106 140.828V140.828Z" fill="#232C34"/>
<path d="M406.05 152.62C404.135 152.62 402.304 151.056 400.591 147.946C397.8 142.881 396.265 135.463 396.199 135.149C396.147 134.893 396.306 134.638 396.56 134.571C396.601 134.56 400.71 133.47 404.988 130.578C406.146 129.797 407.275 129.599 408.346 129.995C410.374 130.743 411.56 133.453 412.023 134.743C412.481 134.453 413.154 134.162 413.884 134.295C414.705 134.445 415.369 135.071 415.862 136.159C416.292 137.109 416.333 138.018 415.986 138.86C415.473 140.104 414.24 140.837 413.632 141.135C413.747 142.822 413.816 149.747 407.531 152.313C407.032 152.518 406.539 152.618 406.05 152.618V152.62ZM397.264 135.397C397.644 137.092 399.12 143.231 401.455 147.468C403.323 150.858 405.242 152.181 407.158 151.4C413.588 148.775 412.659 141.215 412.618 140.895C412.587 140.669 412.717 140.45 412.932 140.367C412.948 140.36 414.561 139.73 415.074 138.479C415.315 137.892 415.278 137.268 414.961 136.567C414.611 135.793 414.188 135.356 413.706 135.269C412.926 135.132 412.125 135.904 412.116 135.911C411.992 136.035 411.812 136.085 411.64 136.039C411.471 135.995 411.336 135.863 411.291 135.693C411.28 135.654 410.159 131.715 408.001 130.921C407.236 130.639 406.43 130.795 405.54 131.398C401.911 133.851 398.477 135.028 397.264 135.395V135.397Z" fill="#11D582"/>
<path d="M138.557 124.238C133.379 118.614 125.681 117.431 119.895 119.016C112.572 121.024 108.88 127.381 106.276 131.865C101.672 139.793 103.896 142.663 100.278 147.268C93.8691 155.423 78.3261 150.023 70.7577 156.287C52.5739 171.337 62.4856 196.211 78.6041 207.953C89.3541 215.782 103.976 211.254 107.955 210.023C120.03 206.285 140.036 198.958 141.971 181.461C143.274 169.697 131.31 160.265 137.736 150.458C139.373 147.961 140.728 147.283 141.945 144.16C143.919 139.088 144.364 130.549 138.554 124.24L138.557 124.238Z" fill="#F3FBFD"/>
<path d="M119.659 125.623C122.41 123.383 120.669 116.778 118.907 113.214C118.247 111.878 115.296 105.902 111.413 106.135C107.425 106.374 103.605 113.092 105.03 118.416C106.809 125.071 116.436 128.249 119.659 125.623V125.623Z" fill="#F3FBFD"/>
<path d="M156.727 195.063C156.727 195.063 161.882 218.806 163.305 229.834C164.729 240.863 162.28 255.657 157.632 252.042C152.983 248.427 144.928 201.85 144.928 201.85L156.727 195.065V195.063Z" fill="#232C34"/>
<path d="M159.02 253.09C158.532 253.09 157.961 252.921 157.331 252.431C152.586 248.741 144.772 203.843 144.442 201.933C144.407 201.729 144.502 201.522 144.683 201.42L156.482 194.634C156.618 194.556 156.784 194.547 156.929 194.61C157.072 194.673 157.179 194.804 157.211 194.956C157.263 195.193 162.387 218.847 163.798 229.769C164.96 238.773 163.609 250.789 160.126 252.786C159.835 252.953 159.461 253.09 159.02 253.09ZM145.475 202.105C147.762 215.256 154.28 248.804 157.937 251.648C158.766 252.294 159.303 252.116 159.633 251.927C162.413 250.335 164.02 239.217 162.817 229.895C161.544 220.041 157.229 199.745 156.388 195.828L145.475 202.105Z" fill="#8E7AFF"/>
<path d="M72.1975 198.612C73.5461 193.958 75.2509 188.351 76.732 184.297C81.8052 170.426 92.3185 167.324 96.4143 166.341C97.0593 166.187 104.345 165.217 104.345 165.217V165.226C112.535 163.088 123.889 162.111 137.141 166.348C137.562 166.483 137.972 166.641 138.374 166.811V166.807C147.739 169.04 156.243 189.106 158.586 195.084C158.962 196.043 158.578 197.129 157.689 197.64L151.2 201.37L155.233 248.079C155.843 253.251 146.939 262.716 142.086 264.563C137.017 266.492 135.733 265.698 124.881 265.698C113.247 265.698 99.1985 265.63 94.4793 263.558C94.3404 263.497 94.981 271.376 94.8377 271.309C88.7677 268.471 84.4069 254.093 85.0041 247.399L87.5125 236.94C89.5343 228.51 90.7592 219.915 91.1827 211.268L81.2275 215.361L76.6799 212.701C72.4689 209.356 70.6968 203.786 72.1975 198.61V198.612Z" fill="#8E7AFF"/>
<path d="M94.8375 271.805C94.7659 271.805 94.6942 271.79 94.6269 271.759C88.1704 268.74 83.942 253.738 84.511 247.355C84.511 247.331 84.5175 247.307 84.5219 247.283L87.0302 236.824C88.9739 228.716 90.1901 220.376 90.6483 212.022L81.4141 215.82C81.2708 215.878 81.1101 215.867 80.9776 215.789L76.43 213.129C76.4105 213.118 76.3909 213.103 76.3714 213.09C71.9824 209.606 70.1581 203.869 71.7217 198.475C73.5004 192.342 75.0293 187.514 76.2672 184.13C79.8462 174.341 86.585 168.194 96.2969 165.863C96.9485 165.706 103.529 164.828 104.278 164.73H104.302C115.067 161.935 126.165 162.322 137.288 165.878C137.666 165.998 138.053 166.143 138.5 166.331C148.069 168.632 156.643 188.782 159.044 194.906C159.505 196.08 159.027 197.442 157.933 198.073L151.717 201.646L155.722 248.04C156.352 253.373 147.404 263.071 142.257 265.028C138.463 266.472 136.652 266.426 131.813 266.3C130.024 266.255 127.796 266.196 124.877 266.196C111.992 266.196 100.021 266.044 94.9635 264.282C94.9961 265.03 95.0764 266.287 95.1459 267.362C95.324 270.134 95.3139 271.587 95.1155 271.722C95.033 271.779 94.9331 271.809 94.8332 271.809L94.8375 271.805ZM85.4926 247.479C84.9258 254.054 88.9435 267.051 94.3467 270.476C94.3098 269.702 94.2316 268.475 94.1643 267.42C93.9906 264.709 94 263.287 94.1925 263.153C94.3337 263.053 94.5205 263.036 94.679 263.105C99.4525 265.204 114.757 265.204 124.883 265.204C127.813 265.204 130.05 265.261 131.844 265.309C136.671 265.435 138.298 265.474 141.912 264.102C146.687 262.285 155.32 253.021 154.744 248.138L150.709 201.413C150.692 201.222 150.79 201.037 150.955 200.941L157.444 197.209C158.128 196.816 158.417 195.998 158.128 195.263C155.776 189.262 147.406 169.547 138.32 167.301C138.272 167.296 138.226 167.283 138.181 167.266C137.733 167.076 137.355 166.935 136.991 166.818C126.017 163.31 115.076 162.933 104.469 165.702C104.421 165.715 104.371 165.719 104.324 165.717C101.403 166.106 96.981 166.713 96.5293 166.822C87.1605 169.071 80.6562 175.006 77.1967 184.467C75.9827 187.783 74.419 192.722 72.6708 198.749C71.2223 203.745 72.9053 209.056 76.9578 212.292L81.2643 214.81L90.9936 210.811C91.15 210.746 91.328 210.767 91.467 210.865C91.606 210.963 91.6842 211.124 91.6755 211.294C91.2499 219.969 90.0098 228.638 87.9923 237.057L85.4926 247.481V247.479Z" fill="#8E7AFF"/>
<path d="M127.567 366.548L120.379 388.073C120.379 388.073 128.208 387.403 128.957 387.549C129.706 387.697 138.862 367.919 138.862 367.919L127.565 366.548H127.567Z" fill="#232C34"/>
<path d="M120.381 388.569C120.231 388.569 120.088 388.499 119.992 388.38C119.89 388.249 119.86 388.075 119.912 387.916L127.1 366.392C127.174 366.17 127.398 366.029 127.628 366.057L138.925 367.427C139.082 367.447 139.221 367.54 139.297 367.677C139.373 367.816 139.379 367.982 139.314 368.125C139.29 368.175 136.995 373.129 134.638 378.003C129.706 388.201 129.372 388.136 128.866 388.034C128.39 387.951 124.162 388.245 120.424 388.564C120.411 388.564 120.396 388.564 120.383 388.564L120.381 388.569ZM127.91 367.088L121.089 387.518C123.093 387.351 127.589 386.994 128.816 387.044C129.856 385.792 134.907 375.272 138.13 368.33L127.908 367.09L127.91 367.088Z" fill="#8E7AFF"/>
<path d="M122.028 383.345C122.028 383.345 132.838 378.897 134.836 384.48C137.379 391.581 141.354 402.414 141.354 402.414C142.029 404.3 140.733 406.309 138.743 406.47C134.793 406.79 128.901 407.046 126.156 406.081C121.821 404.554 114.633 390.787 114.633 390.787L116.85 379.073C116.85 379.073 120.77 378.519 122.03 383.345H122.028Z" fill="#232C34"/>
<path d="M132.371 407.251C129.841 407.251 127.485 407.07 125.99 406.544C121.523 404.972 114.491 391.583 114.194 391.013C114.142 390.913 114.126 390.8 114.146 390.692L116.363 378.978C116.402 378.769 116.57 378.61 116.78 378.58C116.824 378.575 120.852 378.062 122.351 382.686C124.053 382.055 129.535 380.248 132.907 381.748C134.074 382.268 134.879 383.13 135.303 384.308C137.815 391.324 141.779 402.129 141.818 402.238C142.194 403.286 142.063 404.421 141.462 405.352C140.862 406.283 139.885 406.868 138.784 406.957C136.803 407.118 134.525 407.247 132.373 407.247L132.371 407.251ZM115.149 390.707C115.944 392.201 122.453 404.25 126.318 405.611C128.349 406.327 132.747 406.457 138.704 405.974C139.496 405.911 140.2 405.489 140.632 404.819C141.064 404.147 141.158 403.33 140.888 402.577C140.849 402.473 136.886 391.664 134.371 384.643C134.039 383.715 133.429 383.064 132.506 382.653C128.942 381.066 122.283 383.771 122.216 383.799C122.084 383.854 121.936 383.847 121.808 383.784C121.68 383.721 121.586 383.606 121.549 383.467C120.615 379.882 118.153 379.554 117.262 379.541L115.149 390.705V390.707Z" fill="#8E7AFF"/>
<path d="M138.584 402.273H127.482C127.209 402.273 126.989 402.051 126.989 401.779C126.989 401.507 127.211 401.285 127.482 401.285H138.584C138.858 401.285 139.077 401.507 139.077 401.779C139.077 402.051 138.856 402.273 138.584 402.273Z" fill="#8E7AFF"/>
<path d="M107.188 371.837L109.629 393.49L119.454 390.785L118.699 371.276L107.188 371.837Z" fill="#232C34"/>
<path d="M109.629 393.986C109.532 393.986 109.434 393.958 109.354 393.902C109.234 393.821 109.156 393.691 109.139 393.547L106.695 371.894C106.68 371.759 106.722 371.622 106.811 371.518C106.9 371.413 107.026 371.35 107.162 371.344L118.673 370.783C118.809 370.778 118.933 370.824 119.031 370.913C119.129 371.002 119.185 371.126 119.192 371.259L119.947 390.768C119.956 390.998 119.806 391.203 119.585 391.263L109.76 393.969C109.716 393.982 109.673 393.986 109.629 393.986V393.986ZM107.738 372.307L110.055 392.86L118.946 390.413L118.225 371.796L107.738 372.307V372.307Z" fill="#8E7AFF"/>
<path d="M108.704 409.443H124.249C126.354 409.443 127.967 407.571 127.659 405.48C127.14 401.957 125.448 396.113 120.381 388.075C119.827 387.199 118.861 386.664 117.827 386.664H113.099C112.285 386.664 111.601 387.281 111.516 388.095L111.16 391.518L109.729 390.041C109.167 389.46 108.189 389.684 107.937 390.452C107.032 393.219 105.381 399.149 105.257 405.918C105.223 407.853 106.778 409.441 108.706 409.441L108.704 409.443Z" fill="#232C34"/>
<path d="M124.249 409.939H108.704C107.64 409.939 106.641 409.519 105.894 408.756C105.145 407.993 104.743 406.981 104.762 405.911C104.886 399.141 106.511 393.225 107.468 390.3C107.64 389.774 108.066 389.384 108.604 389.26C109.145 389.136 109.699 389.3 110.085 389.698L110.78 390.415L111.028 388.045C111.139 386.975 112.031 386.17 113.104 386.17H117.832C119.046 386.17 120.156 386.783 120.805 387.812C125.935 395.946 127.633 401.872 128.154 405.409C128.321 406.548 127.987 407.701 127.238 408.571C126.488 409.441 125.4 409.939 124.256 409.939H124.249ZM108.96 390.211C108.915 390.211 108.869 390.215 108.824 390.226C108.622 390.272 108.47 390.413 108.404 390.609C107.464 393.48 105.87 399.289 105.748 405.929C105.733 406.731 106.035 407.488 106.598 408.062C107.158 408.634 107.905 408.949 108.704 408.949H124.249C125.107 408.949 125.924 408.575 126.484 407.925C127.046 407.273 127.296 406.407 127.17 405.554C126.662 402.112 125.001 396.329 119.962 388.34C119.495 387.601 118.698 387.159 117.825 387.159H113.097C112.533 387.159 112.064 387.584 112.005 388.147L111.649 391.57C111.629 391.762 111.501 391.925 111.319 391.986C111.139 392.049 110.937 392.001 110.802 391.862L109.371 390.385C109.258 390.27 109.112 390.206 108.958 390.206L108.96 390.211Z" fill="#8E7AFF"/>
<path d="M124.262 406.209H108.519C108.246 406.209 108.026 405.987 108.026 405.715C108.026 405.443 108.248 405.222 108.519 405.222H124.262C124.536 405.222 124.755 405.443 124.755 405.715C124.755 405.987 124.534 406.209 124.262 406.209Z" fill="#8E7AFF"/>
<path d="M144.086 241.8C143.678 240.802 142.855 240.037 141.829 239.715C136.144 237.925 116.327 233.21 95.9258 246.341C94.9637 246.961 94.347 248.001 94.2666 249.145C93.5282 259.549 90.7788 313.947 107.922 378.351L119.472 377.525L121.826 267.403C121.826 267.403 138.932 307.775 125.023 372.025L137.034 374.252C137.034 374.252 154.612 351.052 157.761 315.602C160.545 284.243 147.202 249.421 144.086 241.803V241.8Z" fill="#232C34"/>
<path d="M107.922 378.845C107.7 378.845 107.503 378.695 107.444 378.477C90.2746 313.98 93.0435 259.395 93.7732 249.108C93.8644 247.816 94.5702 246.624 95.6583 245.924C116.246 232.672 136.317 237.459 141.977 239.243C143.141 239.608 144.077 240.474 144.544 241.613C147.326 248.416 161.066 283.962 158.254 315.646C155.129 350.831 137.605 374.317 137.429 374.55C137.316 374.7 137.129 374.769 136.945 374.737L124.933 372.51C124.803 372.486 124.685 372.41 124.612 372.296C124.538 372.186 124.512 372.049 124.54 371.918C131.711 338.799 130.462 312.183 128.152 295.687C126.351 282.838 123.652 273.982 122.264 269.993L119.964 377.536C119.96 377.792 119.76 378.001 119.506 378.019L107.957 378.845C107.946 378.845 107.933 378.845 107.922 378.845V378.845ZM126.036 237.909C117.612 237.909 106.977 239.812 96.1925 246.757C95.3651 247.29 94.8287 248.197 94.7592 249.18C94.0338 259.417 91.2844 313.658 108.295 377.829L118.987 377.066L121.332 267.394C121.337 267.161 121.504 266.963 121.732 266.918C121.962 266.876 122.19 266.996 122.279 267.211C122.323 267.314 126.61 277.572 129.129 295.552C131.437 312.044 132.693 338.601 125.611 371.631L136.819 373.708C138.676 371.135 154.34 348.534 157.268 315.556C160.061 284.104 146.396 248.753 143.627 241.987C143.273 241.122 142.563 240.465 141.679 240.187C139.086 239.369 133.407 237.909 126.034 237.909H126.036Z" fill="#8E7AFF"/>
<path d="M110.865 327.209C110.865 327.209 110.849 327.209 110.843 327.209C100.136 326.746 98.9223 312.107 98.9115 311.959C98.8919 311.687 99.096 311.45 99.3675 311.429C99.6433 311.416 99.8757 311.613 99.8974 311.885C99.9083 312.024 101.057 325.794 110.886 326.22C111.158 326.231 111.371 326.461 111.358 326.735C111.347 327.001 111.127 327.209 110.865 327.209V327.209Z" fill="#8E7AFF"/>
<path d="M121.825 267.896C121.56 267.896 121.338 267.683 121.332 267.416C121.265 265.147 123.045 262.679 124.841 261.411L129.339 258.236C129.563 258.079 129.871 258.131 130.028 258.355C130.184 258.579 130.132 258.888 129.908 259.045L125.41 262.22C123.871 263.307 122.264 265.487 122.32 267.387C122.329 267.659 122.114 267.888 121.84 267.896H121.825V267.896Z" fill="#8E7AFF"/>
<path d="M93.8749 204.556C93.8749 204.556 84.6994 227.833 93.8336 253.636C93.8336 253.636 102.681 257.583 105.728 259.958C108.775 262.333 109.146 268.251 109.146 268.251C109.146 268.251 104.773 264.662 101.187 264.752C97.6016 264.843 92.27 262.827 92.1701 258.779C92.1701 258.779 76.3969 240.713 76.0233 226.828C75.6064 211.309 76.6597 200.621 77.9192 196.565C78.1408 195.854 78.8596 195.428 79.5893 195.56C86.2565 196.77 92.6739 198.875 93.8749 204.558V204.556Z" fill="#232C34"/>
<path d="M109.147 268.745C109.034 268.745 108.923 268.705 108.834 268.632C108.793 268.597 104.66 265.243 101.324 265.243C101.283 265.243 101.242 265.243 101.201 265.243C99.2026 265.291 96.881 264.719 95.1328 263.747C93.0197 262.57 91.8013 260.88 91.6841 258.971C90.14 257.177 75.8913 240.276 75.5308 226.839C75.0878 210.367 76.2866 200.154 77.4484 196.415C77.7416 195.471 78.6993 194.895 79.6788 195.069C85.8269 196.182 93.0501 198.255 94.3596 204.451C94.3792 204.547 94.3705 204.645 94.3357 204.736C94.2445 204.967 85.3817 228.027 94.2293 253.27C95.5801 253.879 103.188 257.351 106.03 259.567C109.216 262.05 109.622 267.968 109.638 268.218C109.651 268.414 109.544 268.599 109.371 268.69C109.299 268.727 109.223 268.745 109.145 268.745H109.147ZM101.322 264.254C104.024 264.254 107.032 266.107 108.521 267.161C108.252 265.384 107.483 261.953 105.425 260.347C102.46 258.036 93.7211 254.125 93.6343 254.086C93.5105 254.032 93.4149 253.927 93.3693 253.799C84.6499 229.171 92.6136 206.537 93.3628 204.517C92.0923 199.005 85.297 197.094 79.5029 196.043C79.0142 195.952 78.5365 196.241 78.3931 196.709C77.2551 200.376 76.0802 210.46 76.5189 226.811C76.8838 240.363 92.3877 258.27 92.5441 258.451C92.6201 258.538 92.6635 258.649 92.6657 258.764C92.7178 260.841 94.2988 262.15 95.6149 262.883C97.2176 263.775 99.3611 264.31 101.177 264.256C101.224 264.256 101.274 264.256 101.324 264.256L101.322 264.254Z" fill="#8E7AFF"/>
<path d="M117.102 138.938C117.534 139.127 118.027 138.895 118.151 138.433C118.735 136.25 120.854 132.738 123.536 131.752C126.974 130.489 131.174 131.085 132.404 133.694C133.476 135.972 132.901 137.5 135.865 140.254C136.15 140.517 135.996 141.017 135.718 141.287L134.265 142.866C133.954 143.17 133.77 144.084 133.783 144.521C133.819 145.874 134.006 148.736 133.591 149.16C132.784 149.986 128.273 150.271 128.273 150.271L126.225 163.109C126.147 163.597 126.486 164.053 126.97 164.114L131.424 165.036C131.424 165.036 128.594 170.291 117.79 170.906C110.884 171.3 102.054 166.794 102.054 166.794C102.054 166.794 118.348 163.516 118.179 147.494C118.174 147.142 117.983 146.818 117.679 146.644C116.517 145.976 113.364 143.975 113.566 141.517C113.781 138.91 115.625 138.288 117.104 138.938H117.102Z" fill="#232C34"/>
<path d="M116.902 171.426C110.12 171.426 102.176 167.414 101.826 167.233C101.639 167.137 101.533 166.935 101.561 166.726C101.589 166.518 101.748 166.35 101.952 166.309C102.601 166.178 117.843 162.918 117.68 147.498C117.68 147.322 117.582 147.159 117.43 147.072C115.71 146.085 112.858 144.042 113.069 141.476C113.21 139.754 113.981 138.951 114.602 138.581C115.388 138.112 116.372 138.077 117.3 138.484C117.402 138.529 117.486 138.501 117.528 138.484C117.569 138.464 117.643 138.414 117.671 138.305C118.279 136.037 120.446 132.361 123.363 131.289C126.829 130.017 131.44 130.493 132.847 133.486C133.197 134.232 133.379 134.891 133.553 135.528C133.931 136.902 134.256 138.09 136.198 139.893C136.393 140.076 136.504 140.33 136.506 140.613C136.511 140.974 136.339 141.37 136.059 141.644L134.623 143.205C134.452 143.375 134.261 144.11 134.272 144.512C134.278 144.719 134.287 144.962 134.295 145.228C134.393 147.835 134.365 149.073 133.939 149.51C133.153 150.315 130.095 150.637 128.695 150.741L126.707 163.192C126.69 163.297 126.716 163.399 126.779 163.481C126.84 163.562 126.927 163.614 127.027 163.625L131.518 164.554C131.67 164.586 131.8 164.688 131.865 164.83C131.93 164.971 131.926 165.136 131.852 165.274C131.731 165.498 128.766 170.778 117.81 171.402C117.508 171.42 117.204 171.428 116.896 171.428L116.902 171.426ZM103.474 166.918C106.102 168.103 112.533 170.7 117.758 170.413C126.043 169.941 129.503 166.698 130.582 165.367L126.866 164.597C126.538 164.558 126.215 164.369 125.991 164.071C125.767 163.771 125.676 163.401 125.735 163.031L127.783 150.193C127.819 149.965 128.008 149.793 128.239 149.778C130.317 149.647 132.819 149.24 133.234 148.814C133.429 148.46 133.346 146.217 133.31 145.26C133.299 144.993 133.29 144.745 133.283 144.536C133.27 144.073 133.449 142.968 133.915 142.514L135.351 140.952C135.49 140.815 135.531 140.645 135.516 140.602C133.377 138.618 132.982 137.179 132.599 135.787C132.436 135.189 132.267 134.573 131.952 133.903C130.819 131.496 126.773 131.087 123.702 132.213C121.144 133.153 119.159 136.554 118.622 138.557C118.527 138.916 118.281 139.212 117.951 139.371C117.621 139.53 117.237 139.536 116.898 139.386C116.266 139.108 115.612 139.123 115.104 139.427C114.5 139.788 114.135 140.524 114.051 141.554C113.877 143.651 116.698 145.508 117.919 146.211C118.375 146.472 118.659 146.961 118.666 147.485C118.809 160.985 107.42 165.691 103.472 166.916L103.474 166.918Z" fill="#8E7AFF"/>
<path d="M166.932 382.12L167.918 395.45C167.879 396.925 168.991 398.136 170.348 398.095L171.914 398.049C173.184 398.012 174.194 396.885 174.194 395.502L175.669 383.349L166.93 382.118L166.932 382.12Z" fill="#232C34"/>
<path d="M170.283 398.593C169.558 398.593 168.869 398.301 168.335 397.771C167.738 397.175 167.408 396.335 167.423 395.465L166.437 382.159C166.426 382.009 166.482 381.864 166.591 381.761C166.7 381.659 166.852 381.611 166.997 381.633L175.736 382.864C176.003 382.901 176.19 383.147 176.157 383.414L174.687 395.539C174.672 397.183 173.465 398.501 171.927 398.549L170.359 398.595C170.333 398.595 170.305 398.595 170.279 398.595L170.283 398.593ZM167.471 382.697L168.413 395.415C168.413 395.433 168.413 395.448 168.413 395.465C168.396 396.074 168.624 396.659 169.034 397.07C169.393 397.429 169.846 397.612 170.335 397.603L171.901 397.557C172.911 397.527 173.701 396.627 173.701 395.507C173.701 395.487 173.701 395.467 173.706 395.446L175.122 383.775L167.468 382.697H167.471Z" fill="#11D582"/>
<path d="M167.675 394.845C167.319 394.428 166.681 394.424 166.32 394.839C165.61 395.654 164.574 397.051 164.233 398.577C163.692 400.985 162.782 406.046 164.439 406.598C165.666 407.007 178.666 406.581 185.099 406.346C187.125 406.272 188.191 403.858 186.845 402.336C185.822 401.181 183.855 399.98 181.548 398.969C178.086 397.455 176.442 396.118 175.661 395.209C175.126 394.589 174.238 394.423 173.541 394.852L171.456 396.137C170.444 396.761 169.13 396.553 168.359 395.646L167.677 394.843L167.675 394.845Z" fill="#232C34"/>
<path d="M168.389 407.264C166.042 407.264 164.669 407.199 164.281 407.07C162.763 406.564 162.582 403.671 163.749 398.471C164.105 396.877 165.141 395.439 165.946 394.515C166.213 394.208 166.62 394.032 167.002 394.039C167.406 394.041 167.788 394.219 168.051 394.528L168.733 395.33C169.349 396.057 170.385 396.22 171.195 395.722L173.28 394.436C174.175 393.886 175.332 394.075 176.032 394.891C176.744 395.718 178.312 397.018 181.743 398.521C184.247 399.617 186.191 400.857 187.212 402.012C187.955 402.851 188.141 404.021 187.696 405.061C187.244 406.118 186.254 406.801 185.114 406.842C177.443 407.122 171.853 407.264 168.387 407.264H168.389ZM166.993 395.026C166.924 395.026 166.795 395.043 166.691 395.165C166.094 395.852 165.041 397.223 164.713 398.688C163.64 403.473 163.898 405.9 164.593 406.133C164.893 406.233 167.254 406.507 185.079 405.855C185.835 405.826 186.489 405.374 186.79 404.671C187.088 403.975 186.971 403.227 186.476 402.666C185.546 401.616 183.726 400.465 181.35 399.426C177.75 397.849 176.064 396.44 175.287 395.537C174.905 395.091 174.279 394.982 173.801 395.28L171.717 396.566C170.49 397.323 168.919 397.072 167.983 395.974L167.301 395.172C167.195 395.048 167.054 395.035 166.997 395.03L166.993 395.026Z" fill="#11D582"/>
<path d="M174.553 401.851C174.397 401.851 174.243 401.777 174.147 401.637C173.991 401.413 174.047 401.105 174.271 400.948L177.435 398.751C177.659 398.595 177.967 398.651 178.124 398.878C178.28 399.102 178.223 399.41 178 399.567L174.836 401.764C174.749 401.822 174.651 401.851 174.555 401.851H174.553Z" fill="#11D582"/>
<path d="M185.663 327.557C185.663 327.557 178.89 385.887 178.89 385.892L165.692 385.391C165.108 384.534 163.918 337.577 165.334 330.583C166.452 325.05 169.51 308.971 169.51 308.971L186.552 303.714C186.552 303.714 185.881 318.003 185.663 327.557V327.557Z" fill="#4CD59B"/>
<path d="M149.455 381.505L150.6 396.374C150.56 397.849 151.672 399.06 153.03 399.019L154.596 398.973C155.866 398.936 156.876 397.81 156.876 396.427L158.961 381.966L149.455 381.505Z" fill="#232C34"/>
<path d="M152.962 399.515C152.237 399.515 151.548 399.226 151.014 398.693C150.417 398.097 150.087 397.26 150.102 396.388L148.959 381.544C148.949 381.403 148.999 381.264 149.098 381.161C149.198 381.059 149.335 381.007 149.476 381.011L158.982 381.472C159.121 381.479 159.251 381.544 159.338 381.653C159.427 381.759 159.466 381.901 159.447 382.038L157.366 396.466C157.349 398.108 156.141 399.424 154.606 399.469L153.038 399.515C153.012 399.515 152.984 399.515 152.958 399.515H152.962ZM149.989 382.027L151.09 396.335C151.09 396.353 151.09 396.37 151.09 396.388C151.073 396.999 151.301 397.582 151.711 397.993C152.069 398.349 152.525 398.543 153.012 398.525L154.58 398.48C155.59 398.449 156.38 397.549 156.38 396.429C156.38 396.405 156.38 396.381 156.385 396.359L158.391 382.436L149.987 382.027H149.989Z" fill="#11D582"/>
<path d="M150.354 395.77C149.998 395.352 149.359 395.348 148.999 395.763C148.289 396.579 147.253 397.975 146.912 399.502C146.371 401.909 145.461 406.97 147.118 407.523C148.345 407.932 161.345 407.505 167.778 407.27C169.804 407.196 170.87 404.782 169.524 403.26C168.501 402.105 166.533 400.905 164.227 399.893C160.765 398.38 159.121 397.042 158.339 396.133C157.805 395.513 156.917 395.348 156.22 395.776L154.135 397.062C153.123 397.686 151.809 397.477 151.038 396.57L150.356 395.768L150.354 395.77Z" fill="#232C34"/>
<path d="M151.068 408.186C148.721 408.186 147.348 408.121 146.959 407.992C145.441 407.486 145.261 404.593 146.427 399.393C146.783 397.799 147.819 396.361 148.625 395.437C148.89 395.133 149.27 394.961 149.672 394.961H149.68C150.084 394.963 150.467 395.141 150.729 395.45L151.411 396.253C152.028 396.979 153.064 397.144 153.874 396.644L155.959 395.359C156.851 394.808 158.009 394.998 158.71 395.813C159.423 396.64 160.991 397.942 164.422 399.443C166.926 400.539 168.868 401.779 169.89 402.934C170.635 403.775 170.82 404.943 170.375 405.985C169.923 407.042 168.933 407.725 167.793 407.766C160.122 408.047 154.532 408.188 151.066 408.188L151.068 408.186ZM149.672 395.948C149.602 395.948 149.474 395.965 149.37 396.087C148.773 396.775 147.719 398.145 147.391 399.611C146.319 404.395 146.577 406.822 147.272 407.055C147.572 407.155 149.932 407.429 167.758 406.777C168.514 406.748 169.167 406.296 169.469 405.594C169.767 404.898 169.649 404.147 169.154 403.588C168.238 402.553 166.37 401.372 164.029 400.348C160.428 398.771 158.743 397.364 157.966 396.459C157.583 396.016 156.958 395.907 156.48 396.203L154.395 397.488C153.168 398.247 151.598 397.995 150.662 396.896L149.98 396.094C149.876 395.97 149.741 395.955 149.676 395.952L149.672 395.948Z" fill="#11D582"/>
<path d="M157.232 402.775C157.076 402.775 156.921 402.701 156.826 402.562C156.67 402.338 156.726 402.029 156.95 401.873L160.114 399.676C160.338 399.519 160.646 399.576 160.802 399.802C160.959 400.026 160.902 400.335 160.679 400.492L157.514 402.688C157.427 402.747 157.33 402.775 157.234 402.775H157.232Z" fill="#11D582"/>
<path d="M168.342 328.471C168.342 328.471 158.838 385.977 158.836 385.981L147.152 386.355C146.568 385.498 146.596 338.491 148.01 331.498C149.129 325.965 150.371 304.415 150.371 304.415L166.928 309.909C166.928 309.909 168.557 318.921 168.34 328.473L168.342 328.471Z" fill="#4CD59B"/>
<path d="M149.3 330.143C149.159 330.143 149.02 330.082 148.922 329.967C148.746 329.758 148.772 329.447 148.981 329.269C153.45 325.496 155.75 321.833 156.013 318.071C156.032 317.799 156.267 317.586 156.541 317.612C156.812 317.631 157.018 317.866 156.999 318.14C156.717 322.183 154.302 326.07 149.619 330.024C149.526 330.102 149.413 330.141 149.302 330.141L149.3 330.143Z" fill="#232C34"/>
<path d="M187.2 262.468C193.987 263.695 197.103 263.673 202.715 261.048C202.715 261.048 208.97 257.575 208.379 255.798L206.561 239.971C206.264 237.572 206.459 235.137 207.135 232.814L209.319 226.637C209.691 225.589 211.239 225.878 211.209 226.992L211.12 230.193C211.12 230.193 212.167 230.204 212.607 230.039C213.574 229.673 214.301 228.858 214.647 227.881C215.044 226.75 215.698 224.943 215.971 224.449C216.377 223.714 216.847 222.646 217.689 222.179L217.715 222.166C218.599 221.687 219.648 222.429 219.498 223.425L218.977 226.876C218.597 229.382 217.431 231.7 215.646 233.494L212.108 237.048C211.452 237.707 211.257 238.695 211.608 239.556L217.618 254.232C218.973 257.618 219.314 260.813 218.434 262.905C213.85 273.812 185.559 280.674 185.559 280.674L187.2 262.47V262.468Z" fill="#232C34"/>
<path d="M185.559 281.168C185.441 281.168 185.326 281.126 185.235 281.048C185.113 280.944 185.051 280.789 185.066 280.628L186.708 262.425C186.721 262.285 186.79 262.159 186.901 262.077C187.012 261.992 187.151 261.957 187.287 261.983C194.033 263.201 197.015 263.171 202.507 260.602C205.324 259.036 208.186 256.785 207.91 255.957C207.899 255.924 207.893 255.891 207.888 255.857L206.071 240.03C205.764 237.553 205.962 235.078 206.659 232.679L208.853 226.476C209.1 225.778 209.778 225.389 210.503 225.522C211.228 225.656 211.721 226.268 211.702 227.009L211.628 229.691C211.949 229.673 212.28 229.639 212.434 229.58C213.233 229.278 213.871 228.601 214.182 227.72C214.647 226.4 215.259 224.721 215.539 224.212C215.596 224.112 215.652 224.006 215.711 223.895C216.106 223.149 216.599 222.22 217.453 221.748C218.056 221.422 218.745 221.463 219.279 221.837C219.813 222.214 220.087 222.851 219.987 223.499L219.466 226.95C219.068 229.58 217.867 231.961 215.998 233.843L212.46 237.396C211.943 237.914 211.789 238.688 212.067 239.367L218.076 254.043C219.509 257.623 219.805 260.922 218.89 263.097C214.262 274.108 186.84 280.872 185.676 281.155C185.637 281.163 185.598 281.168 185.559 281.168V281.168ZM187.644 263.051L186.112 280.021C190.406 278.897 213.93 272.342 217.978 262.712C218.793 260.776 218.493 257.751 217.157 254.415L211.15 239.743C210.722 238.695 210.959 237.501 211.756 236.7L215.294 233.147C217.016 231.415 218.119 229.223 218.486 226.805L219.008 223.353C219.049 223.073 218.938 222.809 218.708 222.649C218.478 222.488 218.195 222.47 217.95 222.605C217.331 222.946 216.934 223.699 216.582 224.362C216.521 224.478 216.462 224.589 216.404 224.693C216.213 225.039 215.741 226.263 215.111 228.051C214.703 229.208 213.854 230.102 212.781 230.506C212.277 230.696 211.304 230.693 211.113 230.693C210.981 230.693 210.855 230.637 210.764 230.541C210.672 230.445 210.623 230.317 210.627 230.184L210.716 226.983C210.727 226.589 210.392 226.507 210.325 226.496C210.232 226.478 209.915 226.448 209.786 226.809L207.602 232.986C206.95 235.23 206.763 237.57 207.054 239.917L208.868 255.704C209.428 257.714 204.496 260.635 202.959 261.487C197.384 264.095 194.159 264.197 187.648 263.055L187.644 263.051Z" fill="#11D582"/>
<path d="M192.459 261.711L190.52 276.298C189.473 280.143 188.854 284.095 188.676 288.077L187.57 312.89C187.57 312.89 174.705 322.181 149.496 315.552L147.452 292.105C147.027 287.222 147.934 282.362 146.212 277.775L143.163 266.848C147.124 263.843 146.977 263.682 153.516 261.663C162.654 258.84 184.678 256.883 192.461 261.713L192.459 261.711Z" fill="#11D582"/>
<path d="M139.951 273.084C140.417 272.214 140.96 271.442 141.551 270.748L144.211 277.833C145.282 280.685 146.105 283.619 146.679 286.605C147.128 289.636 148.564 291.779 151.932 291.481C156.182 291.105 162.441 290.222 165.497 284.976C166.841 282.668 169.254 280.278 170.62 281.494C171.473 282.253 169.975 283.553 169.416 284.543C169.073 285.152 169.495 285.35 170.183 285.252C174.935 284.582 177.977 280.15 179.267 282.201C179.671 282.842 179.498 284.754 178.761 286.063C176.455 290.154 170.917 291.792 167.538 292.77C161.231 294.593 152.781 304.108 143.315 303.062C136.135 302.268 135.735 280.924 139.948 273.079L139.951 273.084Z" fill="#232C34"/>
<path d="M144.791 303.641C144.285 303.641 143.775 303.614 143.262 303.558C141.59 303.373 140.189 302.225 139.099 300.146C135.809 293.875 136.033 279.336 139.516 272.851C139.974 272.001 140.532 271.185 141.177 270.428C141.29 270.296 141.464 270.232 141.638 270.263C141.809 270.293 141.953 270.413 142.016 270.576L144.676 277.662C145.747 280.515 146.585 283.493 147.165 286.513C147.649 289.771 149.189 291.231 151.89 290.992C156.862 290.552 162.315 289.465 165.073 284.73C166.139 282.901 167.9 280.946 169.434 280.702C170.009 280.609 170.535 280.759 170.949 281.129C171.916 281.988 171.039 283.151 170.398 284.002C170.185 284.284 169.983 284.552 169.851 284.787C169.918 284.787 170.005 284.784 170.116 284.769C172.255 284.467 174.055 283.351 175.504 282.453C177.169 281.42 178.744 280.443 179.688 281.942C180.223 282.79 179.982 284.913 179.193 286.311C176.763 290.624 171.075 292.268 167.677 293.249C165.479 293.884 162.927 295.539 160.226 297.292C155.613 300.285 150.433 303.641 144.791 303.641V303.641ZM141.395 271.735C141.017 272.242 140.678 272.773 140.385 273.316C137.016 279.584 136.797 293.632 139.972 299.682C140.902 301.453 142.044 302.425 143.369 302.571C149.258 303.221 154.798 299.628 159.687 296.457C162.452 294.665 165.064 292.971 167.401 292.294C170.654 291.355 176.099 289.78 178.331 285.82C179.05 284.545 179.098 282.858 178.85 282.464C178.483 281.883 177.886 282.131 176.02 283.288C174.494 284.234 172.596 285.411 170.25 285.741C169.607 285.831 169.164 285.707 168.936 285.37C168.797 285.167 168.695 284.817 168.984 284.299C169.149 284.006 169.381 283.697 169.605 283.399C170.155 282.673 170.552 282.096 170.289 281.861C170.094 281.687 169.87 281.627 169.583 281.674C168.565 281.838 167.023 283.33 165.92 285.224C162.934 290.348 157.194 291.509 151.971 291.972C149.717 292.172 146.887 291.413 146.185 286.677C145.619 283.732 144.795 280.807 143.744 278.008L141.388 271.735H141.395Z" fill="#11D582"/>
<path d="M147.133 288.799C144.101 292.455 140.774 296.537 139.975 300.759C139.862 301.348 139.069 301.463 138.815 300.92C132.024 286.403 140.088 266.172 144.468 265.752C146.458 271.961 147.359 277.931 147.637 282.916C147.763 285.163 148.566 287.068 147.133 288.799Z" fill="#11B972"/>
<path d="M192.459 261.711C198.416 261.822 199.362 259.356 204.416 257.788L207.865 274.175C201.545 279.928 190.914 283.166 186.71 284.112C188.734 275.987 190.847 270.25 192.459 261.709V261.711Z" fill="#11B972"/>
<path d="M166.7 318.41C161.761 318.41 155.978 317.768 149.37 316.031C149.168 315.978 149.022 315.804 149.003 315.596L147.901 302.979C147.878 302.707 148.08 302.468 148.351 302.444C148.625 302.42 148.861 302.623 148.885 302.894L149.956 315.163C172.798 321.063 185.403 313.704 187.088 312.618L188.183 288.055C188.25 286.531 188.387 284.98 188.586 283.447C188.613 283.249 188.754 283.088 188.943 283.034C192.569 282.02 201.554 279.125 207.324 273.997L204.047 258.427C202.49 258.958 201.356 259.569 200.257 260.161C198.149 261.296 196.327 262.27 192.45 262.205C192.361 262.205 192.274 262.177 192.198 262.131C186.591 258.651 178.421 259.051 171.856 259.378C165.075 259.713 157.255 260.43 150.369 263.234C144.835 265.487 141.378 268.925 139.162 274.389C135.716 282.884 135.753 293.216 139.26 300.715C139.271 300.737 139.295 300.785 139.373 300.78C139.417 300.774 139.471 300.752 139.486 300.672C140.329 296.233 143.888 291.937 146.75 288.488C146.777 288.456 146.803 288.423 146.826 288.392L146.929 278.893C146.931 278.621 147.152 278.403 147.422 278.403H147.426C147.699 278.405 147.917 278.629 147.915 278.904L147.812 288.56C147.812 288.66 147.78 288.756 147.723 288.838C147.656 288.934 147.589 289.03 147.511 289.123C144.722 292.486 141.252 296.672 140.457 300.859C140.366 301.339 139.979 301.705 139.497 301.766C139.017 301.824 138.572 301.581 138.365 301.139C134.691 293.286 134.645 282.894 138.246 274.021C140.57 268.292 144.194 264.684 149.995 262.322C157.018 259.462 164.943 258.734 171.767 258.397C178.11 258.084 186.73 257.659 192.598 261.224C192.682 261.224 192.767 261.224 192.847 261.224C196.201 261.224 197.79 260.367 199.784 259.293C200.985 258.647 202.347 257.914 204.266 257.318C204.399 257.277 204.542 257.294 204.664 257.364C204.783 257.433 204.868 257.553 204.896 257.688L208.345 274.075C208.382 274.247 208.323 274.425 208.193 274.543C202.436 279.784 193.445 282.777 189.518 283.899C189.344 285.3 189.225 286.711 189.164 288.101L188.059 312.914C188.052 313.064 187.976 313.203 187.855 313.292C187.759 313.362 180.551 318.412 166.696 318.412L166.7 318.41Z" fill="#11D582"/>
<path d="M164.941 251.109C162.637 252.057 160.663 252.842 158.053 252.535C157.607 252.483 152.048 251.763 151.281 248.321C150.944 246.813 151.67 245.417 152.113 244.717C150.286 244.443 149.051 242.868 149.185 241.309C149.287 240.117 150.18 239.051 151.435 238.625C150.612 237.799 149.279 236.2 148.933 233.943C148.089 228.431 153.95 224.358 155.214 223.542C156.706 222.579 160.216 220.311 163.428 221.761C164.92 222.435 165.795 223.662 166.255 224.467C166.724 224.025 167.536 223.366 168.69 222.953C172.303 221.663 176.601 223.749 178.76 226.7C179.275 227.405 180.593 229.206 180.406 231.468C180.252 233.34 179.173 234.238 177.83 236.281C175.389 239.997 176.447 240.854 174.571 243.877C171.849 248.262 167.363 250.108 164.943 251.104L164.941 251.109Z" fill="#F3FBFD"/>
<path d="M163.048 250.41C163.148 250.919 163.899 255.858 161.955 258.051C160.012 260.243 158.129 260.852 158.129 260.852C158.129 260.852 167.048 262.942 171.854 261.826C176.66 260.711 176.035 259.454 176.035 259.454L173.314 258.022C172.432 257.559 171.915 256.607 172.006 255.611L172.058 255.036C172.684 255.158 174.753 255.476 176.699 254.253C179.336 252.596 179.601 249.451 179.629 248.577C179.688 246.8 178.951 247.103 178.33 243.908C177.798 241.163 178.091 239.765 176.995 237.683C176.589 236.913 176.148 236.346 175.861 236.006C174.243 236.082 172.582 236.491 171.192 237.568C169.713 238.716 169.858 239.601 168.397 240.489C166.264 241.785 164.323 240.889 163.686 242.007C163.452 242.42 163.369 243.149 164.142 244.53C164.142 244.53 162.121 243.196 160.733 244.014C160.194 244.332 159.901 244.867 159.782 245.26C159.33 246.752 160.659 248.81 163.05 250.408L163.048 250.41Z" fill="#232C34"/>
<path d="M168.371 262.651C163.706 262.651 158.307 261.402 158.018 261.335C157.803 261.285 157.647 261.096 157.638 260.874C157.629 260.652 157.768 260.452 157.979 260.382C157.996 260.376 159.769 259.773 161.588 257.722C163.133 255.983 162.815 252.018 162.6 250.702C160.09 248.966 158.802 246.792 159.308 245.119C159.402 244.812 159.701 244.049 160.481 243.59C161.345 243.081 162.372 243.242 163.159 243.516C162.954 242.818 162.987 242.24 163.256 241.765C163.699 240.987 164.531 240.909 165.413 240.826C166.232 240.75 167.161 240.663 168.141 240.067C168.82 239.654 169.092 239.262 169.435 238.768C169.761 238.299 170.13 237.768 170.89 237.176C172.193 236.165 173.859 235.604 175.839 235.511C175.993 235.502 176.139 235.567 176.239 235.685C176.701 236.228 177.103 236.824 177.433 237.451C178.2 238.906 178.33 240.08 178.478 241.437C178.554 242.122 178.639 242.899 178.817 243.814C179.114 245.343 179.427 246.017 179.679 246.557C179.946 247.129 180.157 247.583 180.124 248.595C180.092 249.575 179.766 252.909 176.962 254.673C175.331 255.7 173.62 255.741 172.504 255.608L172.499 255.656C172.425 256.454 172.836 257.211 173.546 257.583L176.267 259.014C176.358 259.062 176.432 259.138 176.48 259.232C176.571 259.414 176.61 259.739 176.443 260.093C176.03 260.969 174.525 261.715 171.969 262.309C170.912 262.555 169.669 262.651 168.373 262.651H168.371ZM159.63 260.663C162.305 261.187 168.219 262.163 171.746 261.346C174.584 260.687 175.318 260.013 175.507 259.734L173.086 258.462C172.021 257.903 171.407 256.768 171.515 255.567L171.567 254.993C171.581 254.854 171.652 254.725 171.763 254.643C171.874 254.558 172.017 254.525 172.154 254.554C173.051 254.728 174.801 254.867 176.436 253.838C178.828 252.335 179.108 249.421 179.136 248.564C179.162 247.79 179.027 247.501 178.784 246.979C178.524 246.42 178.167 245.654 177.846 244.006C177.661 243.051 177.572 242.253 177.496 241.548C177.346 240.189 177.24 239.206 176.56 237.916C176.302 237.424 175.991 236.955 175.642 236.518C173.976 236.635 172.582 237.12 171.496 237.964C170.855 238.46 170.547 238.906 170.249 239.336C169.889 239.856 169.515 240.395 168.655 240.917C167.482 241.628 166.388 241.731 165.506 241.813C164.716 241.887 164.297 241.939 164.116 242.257C163.893 242.651 164.049 243.355 164.575 244.293C164.685 244.493 164.646 244.741 164.481 244.895C164.316 245.052 164.064 245.073 163.873 244.947C163.38 244.623 161.899 243.906 160.985 244.445C160.492 244.734 160.303 245.256 160.257 245.408C159.879 246.652 161.143 248.54 163.328 249.999C163.437 250.073 163.513 250.187 163.539 250.315C163.55 250.369 164.559 255.867 162.331 258.379C161.347 259.488 160.379 260.21 159.636 260.661L159.63 260.663Z" fill="#11D582"/>
<path d="M171.675 255.548C168.574 255.548 165.955 253.038 165.84 252.927C165.645 252.736 165.64 252.425 165.829 252.229C166.018 252.033 166.331 252.027 166.529 252.218C166.555 252.244 169.182 254.758 172.023 254.547C172.29 254.525 172.531 254.732 172.553 255.004C172.572 255.276 172.368 255.513 172.097 255.535C171.956 255.545 171.817 255.55 171.678 255.55L171.675 255.548Z" fill="#11D582"/>
<path d="M281.068 69.649C294.042 69.649 304.559 59.0929 304.559 46.0713C304.559 33.0497 294.042 22.4937 281.068 22.4937C268.094 22.4937 257.576 33.0497 257.576 46.0713C257.576 59.0929 268.094 69.649 281.068 69.649Z" fill="#232C34"/>
<path d="M294.311 42.15H285.134V32.7524H276.145V42.15H267.903V51.1735H276.145V60.01H285.134V51.1735H294.311V42.15Z" fill="#232C34"/>
<path d="M285.134 60.5059H276.143C275.869 60.5059 275.65 60.2841 275.65 60.0122V51.6716H267.903C267.63 51.6716 267.41 51.4498 267.41 51.1779V42.1544C267.41 41.8804 267.632 41.6607 267.903 41.6607H275.65V32.7525C275.65 32.4785 275.871 32.2588 276.143 32.2588H285.134C285.407 32.2588 285.627 32.4806 285.627 32.7525V41.6564H294.309C294.583 41.6564 294.802 41.8782 294.802 42.1501V51.1736C294.802 51.4476 294.581 51.6673 294.309 51.6673H285.627V60.0079C285.627 60.2819 285.405 60.5016 285.134 60.5016V60.5059ZM276.638 59.5164H284.641V51.1757C284.641 50.9017 284.862 50.6821 285.134 50.6821H293.816V42.6481H285.134C284.86 42.6481 284.641 42.4263 284.641 42.1544V33.2462H276.638V42.1501C276.638 42.4241 276.416 42.6438 276.145 42.6438H268.398V50.6777H276.145C276.418 50.6777 276.638 50.8995 276.638 51.1714V59.512V59.5164Z" fill="#8E7AFF"/>
<path d="M207.867 82.0218C221.032 82.0218 231.704 71.3099 231.704 58.0961C231.704 44.8823 221.032 34.1704 207.867 34.1704C194.702 34.1704 184.03 44.8823 184.03 58.0961C184.03 71.3099 194.702 82.0218 207.867 82.0218Z" fill="#232C34"/>
<path d="M199.738 45.3274L199.566 60.16L214.004 60.5014L214.573 46.0103L218.892 46.1234C217.331 42.3044 215.355 38.9964 211.845 37.5653L202.296 37.2239C198.441 38.2439 196.741 41.7041 195.533 45.0403L199.74 45.3252L199.738 45.3274Z" fill="#232C34"/>
<path d="M214.004 60.9952H213.993L199.555 60.6538C199.284 60.6472 199.069 60.4232 199.073 60.1535L199.238 45.7886L195.498 45.5363C195.344 45.5254 195.203 45.4428 195.118 45.3123C195.034 45.1818 195.014 45.0187 195.068 44.873C196.306 41.4562 198.118 37.822 202.17 36.7477C202.216 36.7346 202.263 36.7259 202.313 36.7324L211.862 37.0739C211.921 37.0739 211.977 37.0869 212.032 37.1109C215.954 38.7094 217.932 42.4697 219.35 45.9386C219.413 46.0931 219.394 46.2692 219.301 46.4062C219.205 46.5433 219.046 46.6215 218.881 46.6194L215.048 46.5172L214.499 60.5189C214.488 60.7843 214.271 60.9952 214.006 60.9952H214.004ZM200.066 59.6751L213.528 59.9948L214.078 45.9908C214.088 45.7212 214.312 45.5211 214.584 45.5145L218.139 45.6081C216.831 42.5633 215.014 39.4314 211.734 38.0569L202.348 37.7198C199.014 38.6354 197.399 41.5041 196.222 44.5902L199.768 44.8295C200.029 44.8469 200.231 45.0665 200.228 45.3297L200.063 59.6729L200.066 59.6751Z" fill="#11D582"/>
<path d="M203.816 37.2739C205.443 40.0382 208.933 39.638 210.605 37.5088L203.816 37.2739Z" fill="#11D582"/>
<path d="M220.741 76.4781C220.611 76.2823 219.442 50.0121 219.442 50.0121L208.078 49.5554L205.48 75.8256L211.585 76.0866L213.346 61.4693C213.368 61.2801 213.642 61.2866 213.657 61.4758L214.832 76.0866L220.741 76.4781V76.4781Z" fill="#232C34"/>
<path d="M220.741 76.9739C220.73 76.9739 220.72 76.9739 220.709 76.9739L214.799 76.5824C214.554 76.565 214.359 76.3736 214.339 76.1278L213.433 64.8664L212.074 76.1474C212.044 76.404 211.813 76.602 211.564 76.5824L205.459 76.3214C205.322 76.3149 205.196 76.254 205.107 76.1518C205.018 76.0495 204.975 75.9147 204.988 75.7799L207.585 49.5097C207.611 49.2487 207.828 49.0421 208.095 49.0638L219.46 49.5205C219.716 49.5314 219.923 49.7359 219.933 49.9925C220.385 60.1469 221.097 75.4688 221.217 76.3562C221.249 76.4802 221.232 76.6128 221.167 76.7281C221.078 76.8825 220.915 76.9739 220.739 76.9739H220.741ZM215.29 75.6233L220.214 75.9495C220.077 74.2509 219.784 68.7659 218.969 50.4905L208.523 50.0708L206.024 75.3558L211.149 75.5754L212.856 61.4127C212.897 61.0799 213.184 60.8364 213.514 60.8385C213.848 60.8451 214.122 61.1039 214.15 61.4388L215.29 75.6233V75.6233Z" fill="#11D582"/>
<path d="M219.506 52.7895C219.506 52.7895 219.495 52.7895 219.488 52.7895L208.382 52.398C208.109 52.3893 207.896 52.1588 207.907 51.8869C207.915 51.6151 208.143 51.3889 208.417 51.4106L219.523 51.8021C219.795 51.8108 220.01 52.0413 219.999 52.3132C219.99 52.5807 219.771 52.7895 219.506 52.7895Z" fill="#11D582"/>
<path d="M203.339 57.174L192.632 56.7195L192.048 71.0649C192.024 71.626 192.46 72.1001 193.021 72.1219L202.489 72.4872C203.037 72.509 203.491 72.0653 203.484 71.5151L203.336 57.1719L203.339 57.174Z" fill="#232C34"/>
<path d="M202.529 72.9832C202.509 72.9832 202.49 72.9832 202.47 72.9832L193.001 72.6178C192.6 72.6026 192.226 72.4308 191.952 72.1328C191.679 71.8349 191.538 71.4499 191.553 71.0454L192.137 56.7C192.141 56.5695 192.2 56.4455 192.296 56.3564C192.393 56.2672 192.519 56.2215 192.652 56.2259L203.358 56.6804C203.621 56.6913 203.83 56.9066 203.832 57.1698L203.979 71.513C203.984 71.911 203.823 72.2959 203.539 72.5743C203.265 72.8418 202.909 72.9854 202.529 72.9854V72.9832ZM193.106 57.235L192.541 71.0845C192.534 71.2237 192.584 71.3586 192.68 71.4608C192.773 71.563 192.902 71.6217 193.04 71.6283L202.509 71.9936C202.626 71.9936 202.759 71.9523 202.85 71.8631C202.944 71.774 202.993 71.6522 202.991 71.5217L202.85 57.6482L193.106 57.235V57.235Z" fill="#11D582"/>
<path d="M201.751 57.4416C201.49 57.4416 201.273 57.2372 201.258 56.974C201.054 53.3442 199.484 51.3346 198.109 51.2846C196.975 51.2237 195.451 52.6134 194.932 56.613C194.897 56.8848 194.647 57.0675 194.378 57.0392C194.107 57.0044 193.918 56.7565 193.952 56.4847C194.556 51.8304 196.519 50.2471 198.144 50.295C200.344 50.3755 202.029 53.0984 202.242 56.9175C202.257 57.1893 202.049 57.4242 201.777 57.4394C201.768 57.4394 201.758 57.4394 201.749 57.4394L201.751 57.4416Z" fill="#11D582"/>
<path d="M176.154 139.915C189.128 139.915 199.645 129.359 199.645 116.337C199.645 103.315 189.128 92.7593 176.154 92.7593C163.18 92.7593 152.662 103.315 152.662 116.337C152.662 129.359 163.18 139.915 176.154 139.915Z" fill="#232C34"/>
<path d="M176.443 148.93C158.382 148.93 143.689 134.212 143.689 116.122C143.689 98.0309 158.382 83.3135 176.443 83.3135C194.504 83.3135 209.196 98.0309 209.196 116.122C209.196 134.212 194.504 148.93 176.443 148.93ZM176.443 84.6592C159.126 84.6592 145.039 98.7719 145.039 116.119C145.039 133.465 159.126 147.578 176.443 147.578C193.76 147.578 207.847 133.465 207.847 116.119C207.847 98.7719 193.76 84.6592 176.443 84.6592V84.6592Z" fill="#8E7AFF"/>
<path d="M186.002 99.1294V111.167C186.002 112.255 184.228 113.246 183.044 113.355V131.37C183.044 132.457 182.857 134.034 181.826 134.132L181.728 134.149C180.696 134.247 180.084 132.761 180.084 131.672V113.638C178.9 113.747 178.31 112.918 178.31 111.828V99.7231L186 99.1294H186.002Z" fill="#8E7AFF"/>
<path d="M167.664 132.548C167.664 133.642 168.472 134.808 169.51 134.708L169.795 134.675C170.833 134.578 171.806 133.242 171.806 132.148V121.274C171.806 120.419 172.186 119.593 172.854 119.047L173.434 118.571C174.268 117.888 174.661 116.77 174.429 115.752L171.204 101.567C171.039 100.843 170.409 100.38 169.688 100.441L169.084 100.491C168.281 100.558 167.664 101.285 167.664 102.131V132.551V132.548Z" fill="#8E7AFF"/>
<path d="M183.209 107.272C182.935 107.272 182.716 107.05 182.716 106.778V99.5948C182.716 99.3207 182.937 99.1011 183.209 99.1011C183.48 99.1011 183.702 99.3229 183.702 99.5948V106.778C183.702 107.052 183.48 107.272 183.209 107.272V107.272Z" fill="#232C34"/>
<path d="M180.753 107.485C180.479 107.485 180.26 107.263 180.26 106.991V99.8035C180.26 99.5295 180.481 99.3098 180.753 99.3098C181.024 99.3098 181.246 99.5316 181.246 99.8035V106.991C181.246 107.265 181.024 107.485 180.753 107.485Z" fill="#232C34"/>
<path d="M345.729 93.9401C358.703 93.9401 369.22 83.384 369.22 70.3624C369.22 57.3408 358.703 46.7847 345.729 46.7847C332.755 46.7847 322.237 57.3408 322.237 70.3624C322.237 83.384 332.755 93.9401 345.729 93.9401Z" fill="#232C34"/>
<path d="M345.579 101.6C328.406 101.6 314.437 87.6063 314.437 70.4053C314.437 53.2043 328.406 39.2107 345.579 39.2107C362.752 39.2107 376.721 53.2043 376.721 70.4053C376.721 87.6063 362.752 101.6 345.579 101.6ZM345.579 40.4903C329.114 40.4903 315.72 53.9089 315.72 70.4025C315.72 86.896 329.114 100.315 345.579 100.315C362.044 100.315 375.438 86.896 375.438 70.4025C375.438 53.9089 362.044 40.4903 345.579 40.4903Z" fill="#E0FB92"/>
<path d="M334.696 85.8628H358.058V66.0628H334.696V85.8628Z" fill="#232C34"/>
<path d="M358.057 86.3586H334.696C334.422 86.3586 334.203 86.1368 334.203 85.8649V66.065C334.203 65.791 334.425 65.5713 334.696 65.5713H358.057C358.331 65.5713 358.55 65.7931 358.55 66.065V85.8649C358.55 86.139 358.329 86.3586 358.057 86.3586ZM335.189 85.3691H357.562V66.5587H335.189V85.3691Z" fill="#E0FB92"/>
<path d="M361.172 66.3239L346.378 50.1733L330.544 66.5849L361.172 66.3239Z" fill="#232C34"/>
<path d="M330.544 67.0807C330.346 67.0807 330.168 66.9633 330.09 66.7806C330.011 66.5979 330.051 66.3848 330.187 66.2412L346.021 49.8275C346.115 49.7318 346.243 49.6753 346.378 49.6753H346.384C346.521 49.6753 346.649 49.7362 346.742 49.8362L361.538 65.9889C361.671 66.1325 361.706 66.3413 361.627 66.5196C361.549 66.6979 361.373 66.8154 361.178 66.8176L330.55 67.0786H330.546L330.544 67.0807ZM346.367 50.8954L331.716 66.0825L360.057 65.8411L346.367 50.8954V50.8954Z" fill="#E0FB92"/>
<path d="M339.109 86.1238H344.818V71.7958H339.109V86.1238Z" fill="#E0FB92"/>
<path d="M349.232 77.7898H353.645V72.5788H349.232V77.7898Z" fill="#E0FB92"/>
<path d="M244.412 256.487C244.228 256.487 244.05 256.383 243.965 256.205L242.82 253.788C242.703 253.543 242.807 253.247 243.055 253.129C243.3 253.012 243.596 253.116 243.713 253.364L244.858 255.781C244.975 256.028 244.871 256.322 244.623 256.44C244.554 256.472 244.482 256.487 244.412 256.487ZM240.727 248.71C240.542 248.71 240.364 248.606 240.28 248.427L237.739 243.064C237.621 242.818 237.726 242.523 237.973 242.405C238.221 242.29 238.514 242.392 238.631 242.64L241.172 248.003C241.289 248.251 241.185 248.545 240.938 248.662C240.868 248.695 240.796 248.71 240.727 248.71V248.71ZM235.645 237.984C235.461 237.984 235.282 237.879 235.198 237.701L232.657 232.338C232.54 232.09 232.644 231.796 232.891 231.679C233.137 231.561 233.432 231.666 233.549 231.914L236.09 237.277C236.208 237.525 236.103 237.818 235.856 237.936C235.786 237.968 235.715 237.984 235.645 237.984V237.984ZM230.563 227.257C230.379 227.257 230.201 227.153 230.116 226.974L227.575 221.611C227.458 221.363 227.562 221.07 227.81 220.952C228.055 220.837 228.35 220.939 228.468 221.187L231.009 226.55C231.126 226.798 231.022 227.092 230.774 227.209C230.704 227.242 230.633 227.257 230.563 227.257V227.257ZM225.481 216.531C225.297 216.531 225.119 216.426 225.034 216.248L222.493 210.885C222.376 210.637 222.48 210.343 222.728 210.226C222.973 210.108 223.268 210.213 223.386 210.461L225.927 215.824C226.044 216.072 225.94 216.365 225.692 216.483C225.623 216.516 225.551 216.531 225.481 216.531V216.531ZM220.4 205.804C220.215 205.804 220.037 205.7 219.952 205.522L217.411 200.158C217.294 199.91 217.398 199.617 217.646 199.499C217.893 199.382 218.187 199.486 218.304 199.734L220.845 205.098C220.962 205.345 220.858 205.639 220.61 205.756C220.541 205.789 220.469 205.804 220.4 205.804V205.804ZM215.318 195.078C215.133 195.078 214.955 194.974 214.87 194.795L212.33 189.432C212.212 189.184 212.317 188.89 212.564 188.773C212.809 188.656 213.105 188.76 213.222 189.008L215.763 194.371C215.88 194.619 215.776 194.913 215.528 195.03C215.459 195.063 215.387 195.078 215.318 195.078V195.078ZM210.236 184.351C210.051 184.351 209.873 184.247 209.789 184.069L207.248 178.706C207.13 178.458 207.235 178.164 207.482 178.047C207.728 177.929 208.023 178.034 208.14 178.281L210.681 183.645C210.798 183.89 210.694 184.186 210.447 184.304C210.377 184.336 210.305 184.351 210.236 184.351V184.351ZM205.154 173.625C204.97 173.625 204.791 173.521 204.707 173.342L202.166 167.979C202.049 167.731 202.153 167.438 202.4 167.32C202.646 167.203 202.941 167.307 203.058 167.555L205.599 172.918C205.717 173.164 205.612 173.46 205.365 173.577C205.295 173.61 205.224 173.625 205.154 173.625V173.625ZM200.072 162.899C199.888 162.899 199.71 162.794 199.625 162.616L197.084 157.253C196.967 157.005 197.071 156.711 197.319 156.594C197.566 156.476 197.859 156.581 197.977 156.829L200.518 162.192C200.635 162.44 200.531 162.733 200.283 162.851C200.214 162.883 200.142 162.899 200.072 162.899V162.899ZM194.991 152.172C194.806 152.172 194.628 152.068 194.543 151.889L192.002 146.526C191.885 146.281 191.989 145.985 192.237 145.867C192.484 145.75 192.778 145.854 192.895 146.102L195.436 151.465C195.553 151.711 195.449 152.007 195.201 152.124C195.132 152.157 195.06 152.172 194.991 152.172V152.172Z" fill="#E0FB92"/>
<path d="M248.33 161.37C248.115 161.37 247.918 161.228 247.857 161.011L246.219 155.306C246.143 155.043 246.295 154.769 246.558 154.695C246.821 154.619 247.095 154.771 247.168 155.034L248.806 160.739C248.882 161.002 248.73 161.276 248.467 161.35C248.422 161.363 248.376 161.37 248.33 161.37ZM245.053 149.96C244.838 149.96 244.641 149.819 244.58 149.602L242.942 143.897C242.866 143.634 243.018 143.36 243.281 143.286C243.544 143.212 243.818 143.362 243.891 143.625L245.529 149.33C245.605 149.593 245.453 149.867 245.19 149.941C245.144 149.954 245.099 149.96 245.053 149.96ZM241.776 138.551C241.561 138.551 241.363 138.41 241.303 138.192L239.665 132.488C239.589 132.224 239.741 131.95 240.004 131.876C240.267 131.802 240.54 131.953 240.614 132.216L242.252 137.92C242.328 138.183 242.176 138.458 241.913 138.531C241.867 138.545 241.822 138.551 241.776 138.551ZM238.499 127.142C238.284 127.142 238.086 127 238.026 126.783L236.388 121.078C236.312 120.815 236.464 120.541 236.727 120.467C236.99 120.393 237.263 120.543 237.337 120.806L238.975 126.511C239.051 126.774 238.899 127.048 238.636 127.122C238.59 127.135 238.545 127.142 238.499 127.142ZM235.222 115.732C235.007 115.732 234.809 115.591 234.748 115.374L233.111 109.669C233.035 109.406 233.187 109.132 233.45 109.058C233.713 108.982 233.986 109.134 234.06 109.397L235.697 115.102C235.773 115.365 235.621 115.639 235.359 115.713C235.313 115.726 235.267 115.732 235.222 115.732ZM231.945 104.323C231.73 104.323 231.532 104.182 231.471 103.964L229.834 98.2595C229.758 97.9964 229.91 97.7223 230.173 97.6484C230.435 97.5744 230.709 97.7245 230.783 97.9877L232.42 103.692C232.496 103.955 232.344 104.23 232.082 104.303C232.036 104.317 231.99 104.323 231.945 104.323ZM228.668 92.9137C228.453 92.9137 228.255 92.7723 228.194 92.5549L226.557 86.8502C226.481 86.587 226.633 86.313 226.895 86.2391C227.158 86.1651 227.432 86.3152 227.506 86.5783L229.143 92.283C229.219 92.5462 229.067 92.8202 228.804 92.8941C228.759 92.9072 228.713 92.9137 228.668 92.9137Z" fill="#E0FB92"/>
<path d="M282.105 224.323C281.833 224.323 281.612 224.104 281.612 223.832V223.714C281.609 223.442 281.829 223.218 282.102 223.216H282.105C282.376 223.216 282.598 223.436 282.598 223.708V223.825C282.6 224.097 282.38 224.321 282.107 224.323H282.105ZM282.061 218.271C281.79 218.271 281.568 218.051 281.568 217.779L281.527 211.844C281.527 211.572 281.744 211.348 282.018 211.346C282.289 211.365 282.513 211.563 282.515 211.837L282.556 217.773C282.556 218.044 282.339 218.268 282.066 218.271H282.061ZM281.979 206.4C281.707 206.4 281.486 206.181 281.486 205.909L281.444 199.973C281.444 199.699 281.662 199.478 281.935 199.475H281.94C282.211 199.475 282.433 199.695 282.433 199.967L282.474 205.902C282.474 206.174 282.257 206.398 281.983 206.4H281.979ZM281.896 194.528C281.625 194.528 281.403 194.308 281.403 194.036L281.362 188.101C281.362 187.829 281.579 187.605 281.853 187.603H281.857C282.128 187.603 282.35 187.823 282.35 188.094L282.391 194.03C282.391 194.301 282.174 194.525 281.9 194.528H281.896ZM281.814 182.657C281.542 182.657 281.321 182.438 281.321 182.166L281.279 176.231C281.279 175.959 281.497 175.735 281.77 175.732H281.774C282.046 175.732 282.267 175.952 282.267 176.224L282.309 182.159C282.309 182.431 282.092 182.655 281.818 182.657H281.814ZM281.731 170.785C281.46 170.785 281.238 170.565 281.238 170.293L281.197 164.358C281.197 164.086 281.414 163.862 281.688 163.86C281.963 163.875 282.183 164.077 282.185 164.351L282.226 170.287C282.226 170.558 282.009 170.782 281.735 170.785H281.731ZM281.649 158.914C281.377 158.914 281.156 158.695 281.156 158.423L281.114 152.488C281.114 152.213 281.331 151.992 281.605 151.989C281.855 151.976 282.1 152.207 282.102 152.481L282.144 158.416C282.144 158.69 281.927 158.912 281.653 158.914H281.649ZM281.566 147.044C281.295 147.044 281.073 146.824 281.073 146.552L281.032 140.617C281.032 140.345 281.249 140.121 281.523 140.119H281.527C281.798 140.119 282.02 140.339 282.02 140.611L282.061 146.546C282.061 146.82 281.844 147.042 281.57 147.044H281.566ZM281.483 135.171C281.212 135.171 280.99 134.952 280.99 134.68L280.949 128.745C280.949 128.473 281.166 128.249 281.44 128.246H281.444C281.716 128.246 281.937 128.466 281.937 128.738L281.979 134.673C281.979 134.945 281.761 135.169 281.488 135.171H281.483V135.171ZM281.401 123.301C281.129 123.301 280.908 123.081 280.908 122.809L280.867 116.874C280.867 116.602 281.084 116.378 281.358 116.376H281.362C281.633 116.376 281.855 116.596 281.855 116.868L281.896 122.803C281.896 123.075 281.679 123.299 281.405 123.301H281.401ZM281.318 111.428C281.047 111.428 280.825 111.209 280.825 110.937L280.784 105.002C280.784 104.73 281.001 104.506 281.275 104.504H281.279C281.551 104.504 281.772 104.723 281.772 104.995L281.814 110.93C281.814 111.202 281.596 111.426 281.323 111.428H281.318ZM281.236 99.5579C280.964 99.5579 280.743 99.3382 280.743 99.0663L280.702 93.1311C280.702 92.8593 280.919 92.6353 281.192 92.6331H281.197C281.468 92.6331 281.69 92.8528 281.69 93.1246L281.731 99.0598C281.731 99.3339 281.514 99.5557 281.24 99.5579H281.236ZM281.153 87.6875C280.882 87.6875 280.66 87.4678 280.66 87.1959L280.619 81.2607C280.619 80.9889 280.836 80.7649 281.11 80.7627H281.114C281.386 80.7627 281.607 80.9824 281.607 81.2542L281.649 87.1894C281.649 87.4613 281.431 87.6853 281.158 87.6875H281.153Z" fill="#E0FB92"/>
<path d="M316.715 184.747C316.676 184.747 316.637 184.743 316.596 184.732C316.331 184.667 316.17 184.399 316.235 184.134L316.326 183.762C316.392 183.497 316.661 183.334 316.924 183.401C317.189 183.466 317.349 183.734 317.284 183.999L317.193 184.371C317.136 184.597 316.937 184.747 316.713 184.747H316.715ZM318.222 178.612C318.183 178.612 318.144 178.608 318.103 178.597C317.838 178.531 317.675 178.264 317.74 177.999L319.156 172.235C319.221 171.97 319.491 171.807 319.753 171.874C320.018 171.939 320.181 172.207 320.116 172.472L318.7 178.236C318.644 178.462 318.444 178.612 318.22 178.612H318.222ZM321.054 167.083C321.015 167.083 320.976 167.079 320.935 167.068C320.67 167.003 320.507 166.735 320.572 166.47L321.988 160.706C322.053 160.441 322.323 160.278 322.585 160.345C322.85 160.411 323.013 160.678 322.948 160.943L321.532 166.707C321.476 166.933 321.274 167.083 321.052 167.083H321.054ZM323.886 155.554C323.847 155.554 323.808 155.55 323.767 155.539C323.502 155.474 323.339 155.206 323.404 154.941L324.82 149.177C324.885 148.912 325.154 148.749 325.417 148.816C325.682 148.882 325.845 149.149 325.78 149.414L324.364 155.178C324.307 155.404 324.108 155.554 323.884 155.554H323.886ZM326.718 144.025C326.679 144.025 326.64 144.021 326.599 144.01C326.334 143.945 326.171 143.677 326.236 143.412L327.652 137.648C327.717 137.383 327.986 137.22 328.249 137.287C328.514 137.353 328.677 137.62 328.612 137.885L327.196 143.649C327.139 143.875 326.94 144.025 326.716 144.025H326.718ZM329.55 132.496C329.511 132.496 329.472 132.492 329.431 132.481C329.166 132.416 329.003 132.148 329.068 131.883L330.484 126.119C330.549 125.854 330.818 125.691 331.081 125.758C331.346 125.824 331.509 126.091 331.444 126.357L330.028 132.12C329.971 132.346 329.772 132.496 329.548 132.496H329.55ZM332.382 120.967C332.343 120.967 332.304 120.963 332.262 120.952C331.998 120.887 331.835 120.619 331.9 120.354L333.316 114.591C333.381 114.325 333.65 114.162 333.913 114.229C334.178 114.295 334.341 114.562 334.276 114.828L332.86 120.591C332.803 120.817 332.603 120.967 332.38 120.967H332.382ZM335.214 109.438C335.175 109.438 335.136 109.434 335.094 109.423C334.829 109.358 334.667 109.09 334.732 108.825L336.148 103.062C336.213 102.796 336.482 102.633 336.745 102.701C337.01 102.766 337.173 103.033 337.108 103.299L335.692 109.062C335.635 109.288 335.435 109.438 335.212 109.438H335.214Z" fill="#E0FB92"/>
<path d="M258.411 412.538C249.027 412.538 239.619 411.455 230.361 409.282C230.096 409.219 229.931 408.954 229.992 408.688C230.055 408.423 230.32 408.26 230.585 408.321C253.119 413.61 276.541 412.384 298.321 404.774C298.579 404.682 298.86 404.819 298.951 405.078C299.04 405.337 298.905 405.618 298.647 405.709C285.638 410.254 272.05 412.54 258.411 412.54V412.538Z" fill="#E0FB92"/>
<path d="M298.487 405.735C298.282 405.735 298.091 405.607 298.02 405.402C297.931 405.144 298.065 404.863 298.324 404.772C299.357 404.411 300.404 404.03 301.438 403.636C301.692 403.538 301.979 403.667 302.074 403.923C302.172 404.178 302.042 404.465 301.788 404.561C300.745 404.956 299.69 405.341 298.647 405.705C298.593 405.724 298.539 405.733 298.484 405.733L298.487 405.735Z" fill="#E0FB92"/>
<path d="M261.628 420C247.785 420 233.891 417.96 220.454 413.86C220.194 413.78 220.046 413.504 220.126 413.243C220.207 412.982 220.483 412.834 220.743 412.914C250.932 422.125 283.473 420.866 312.375 409.363C312.629 409.263 312.915 409.387 313.015 409.641C313.115 409.896 312.991 410.183 312.739 410.283C296.495 416.746 279.106 420 261.63 420H261.628Z" fill="#E0FB92"/>
<path d="M306.85 404.722C306.828 404.722 306.807 404.722 306.785 404.717C306.624 404.695 306.485 404.598 306.409 404.452L304.022 399.795C303.942 399.639 303.951 399.45 304.046 399.302C304.142 399.154 304.311 399.071 304.485 399.076L310.811 399.382C311.002 399.391 311.169 399.511 311.243 399.687C311.317 399.863 311.28 400.067 311.152 400.209L307.215 404.556C307.121 404.661 306.987 404.719 306.85 404.719V404.722ZM305.293 400.106L306.965 403.364L309.721 400.322L305.293 400.106Z" fill="#E0FB92"/>
<path d="M150.544 67.5764C150.418 67.5764 150.292 67.5285 150.195 67.4307L148.012 65.2471C147.819 65.0535 147.819 64.7403 148.012 64.5468C148.205 64.3532 148.518 64.3532 148.711 64.5468L150.894 66.7303C151.087 66.9239 151.087 67.2371 150.894 67.4307C150.798 67.5263 150.67 67.5764 150.544 67.5764Z" fill="#E0FB92"/>
<path d="M158.186 75.2209C158.06 75.2209 157.934 75.1731 157.837 75.0752L155.652 72.8916C155.459 72.6981 155.459 72.3849 155.652 72.1913C155.845 71.9978 156.158 71.9978 156.351 72.1913L158.536 74.3749C158.729 74.5684 158.729 74.8816 158.536 75.0752C158.44 75.1709 158.312 75.2209 158.186 75.2209Z" fill="#E0FB92"/>
<path d="M148.362 75.2209C148.236 75.2209 148.11 75.1731 148.012 75.0752C147.819 74.8816 147.819 74.5684 148.012 74.3749L150.195 72.1913C150.388 71.9978 150.701 71.9978 150.894 72.1913C151.087 72.3849 151.087 72.6981 150.894 72.8916L148.711 75.0752C148.616 75.1709 148.488 75.2209 148.362 75.2209Z" fill="#E0FB92"/>
<path d="M156.004 67.5764C155.878 67.5764 155.752 67.5285 155.655 67.4307C155.461 67.2371 155.461 66.9239 155.655 66.7303L157.839 64.5468C158.033 64.3532 158.345 64.3532 158.539 64.5468C158.732 64.7403 158.732 65.0535 158.539 65.2471L156.354 67.4307C156.258 67.5263 156.13 67.5764 156.004 67.5764Z" fill="#E0FB92"/>
<path d="M400.388 96.4455C400.169 96.4455 399.967 96.2976 399.91 96.0736L399.113 92.9526C399.046 92.6873 399.204 92.4176 399.469 92.3502C399.732 92.2806 400.004 92.4415 400.071 92.7069L400.868 95.8278C400.935 96.0931 400.777 96.3628 400.512 96.4303C400.47 96.4411 400.429 96.4455 400.388 96.4455Z" fill="#E0FB92"/>
<path d="M402.246 103.716C402.025 103.716 401.825 103.568 401.769 103.344L400.972 100.223C400.904 99.9578 401.063 99.6881 401.328 99.6207C401.59 99.5511 401.862 99.7121 401.929 99.9774L402.726 103.098C402.794 103.364 402.635 103.633 402.37 103.701C402.329 103.712 402.288 103.716 402.246 103.716Z" fill="#E0FB92"/>
<path d="M395.74 99.8534C395.521 99.8534 395.319 99.7055 395.263 99.4815C395.195 99.2162 395.354 98.9465 395.619 98.8791L398.729 98.0787C398.994 98.0113 399.263 98.1701 399.33 98.4354C399.397 98.7007 399.239 98.9704 398.974 99.0378L395.864 99.8382C395.823 99.8491 395.782 99.8534 395.74 99.8534Z" fill="#E0FB92"/>
<path d="M402.985 97.9874C402.766 97.9874 402.564 97.8395 402.508 97.6155C402.44 97.3502 402.599 97.0805 402.864 97.0131L405.974 96.2128C406.241 96.1432 406.508 96.3041 406.575 96.5694C406.643 96.8348 406.484 97.1044 406.219 97.1719L403.109 97.9722C403.068 97.9831 403.027 97.9874 402.985 97.9874Z" fill="#E0FB92"/>
<path d="M388.973 89.7099C388.326 89.7099 387.696 89.5033 387.159 89.1075C385.789 88.1005 385.466 86.1605 386.439 84.786C386.908 84.1227 387.609 83.6855 388.408 83.555C389.223 83.4245 390.039 83.6246 390.71 84.1183C392.081 85.1275 392.404 87.0653 391.431 88.4398C390.962 89.1031 390.261 89.5403 389.462 89.6707C389.299 89.6968 389.136 89.7099 388.973 89.7099ZM387.244 85.358C386.582 86.2954 386.806 87.6177 387.744 88.3093C388.2 88.6442 388.754 88.7812 389.303 88.6921C389.839 88.6051 390.309 88.3115 390.626 87.8656C391.288 86.9282 391.064 85.6059 390.126 84.9143C389.67 84.5772 389.116 84.4446 388.567 84.5315C388.03 84.6185 387.559 84.9122 387.244 85.358Z" fill="#E0FB92"/>
</g>
<defs>
<clipPath id="clip0_535_5338">
<rect width="407" height="398" fill="white" transform="translate(61 22)"/>
</clipPath>
</defs>
</svg>
