<?xml version="1.0" encoding="utf-8"?>
<!-- Generator: Adobe Illustrator 26.3.1, SVG Export Plug-In . SVG Version: 6.00 Build 0)  -->
<svg version="1.1" id="Ebene_1" shape-rendering="auto"
	 xmlns="http://www.w3.org/2000/svg" xmlns:xlink="http://www.w3.org/1999/xlink" x="0px" y="0px" viewBox="0 0 100 100"
	 style="enable-background:new 0 0 100 100;" xml:space="preserve">
<style type="text/css">
	.st0{fill:#121220;}
	.st1{fill-rule:evenodd;clip-rule:evenodd;fill:#121220;}
</style>
<path d="M28.3,0c-0.4,0-0.7,0.3-0.7,0.7c0,0,0,0,0,0v2.7H31V0H28.3z"/>
<path d="M31.8,3.4h2c0.4,0,0.7-0.3,0.7-0.7v-2c0-0.4-0.3-0.7-0.7-0.7H31v3.4H31.8z"/>
<path d="M38.6,0h2c0.4,0,0.7,0.3,0.7,0.7v2c0,0.4-0.3,0.7-0.7,0.7h-2c-0.4,0-0.7-0.3-0.7-0.7v-2C37.9,0.3,38.2,0,38.6,0z"/>
<path d="M45.5,0h2c0.4,0,0.7,0.3,0.7,0.7v2c0,0.4-0.3,0.7-0.7,0.7h-2c-0.4,0-0.7-0.3-0.7-0.7v-2C44.8,0.3,45.1,0,45.5,0z"/>
<path d="M51,3.4c0.4,0,0.7-0.3,0.7-0.7v0.7H51z"/>
<path d="M52.4,0c-0.4,0-0.7,0.3-0.7,0.7c0,0,0,0,0,0v2.7h3.4V0H52.4z"/>
<path d="M57.9,0c0.4,0,0.7,0.3,0.7,0.7v2.7h-3.4V0H57.9z"/>
<path d="M65.5,2.7v-2c0-0.4-0.3-0.7-0.7-0.7h-2C62.4,0,62,0.3,62,0.7c0,0,0,0,0,0v2.7h3.4V2.7z"/>
<path d="M72.4,2.7v-2C72.4,0.3,72,0,71.6,0h-2c-0.4,0-0.7,0.3-0.7,0.7c0,0,0,0,0,0v2.7h3.4V2.7z"/>
<path d="M27.6,6.2c0,0.4,0.3,0.7,0.7,0.7h2c0.4,0,0.7-0.3,0.7-0.7V3.4h-3.4V6.2z"/>
<path d="M31.8,3.4H31v0.7C31,3.8,31.3,3.4,31.8,3.4C31.8,3.4,31.8,3.4,31.8,3.4z"/>
<path d="M37.9,6.2v-2c0-0.4-0.3-0.7-0.7-0.7h-2c-0.4,0-0.7,0.3-0.7,0.7c0,0,0,0,0,0v2.7h3.4V6.2z"/>
<path d="M51,3.4h-2c-0.4,0-0.7,0.3-0.7,0.7c0,0,0,0,0,0v2c0,0.4,0.3,0.7,0.7,0.7h2.7V3.4H51z"/>
<rect x="51.7" y="3.4" width="3.4" height="3.4"/>
<rect x="55.1" y="3.4" width="3.4" height="3.4"/>
<path d="M59.3,6.9c-0.4,0-0.7-0.3-0.7-0.7v0.7H59.3z"/>
<path d="M62,6.2c0,0.4,0.3,0.7,0.7,0.7h2c0.4,0,0.7-0.3,0.7-0.7V3.4H62V6.2z"/>
<path d="M68.9,6.2c0,0.4,0.3,0.7,0.7,0.7h2c0.4,0,0.7-0.3,0.7-0.7V3.4h-3.4V6.2z"/>
<rect x="34.5" y="6.9" width="3.4" height="3.4"/>
<path d="M42.1,6.9c-0.4,0-0.7,0.3-0.7,0.7c0,0,0,0,0,0v2.7h3.4V6.9H42.1z"/>
<path d="M45.5,10.3h2c0.4,0,0.7-0.3,0.7-0.7v-2c0-0.4-0.3-0.7-0.7-0.7h-2.7v3.4H45.5z"/>
<path d="M55.1,7.6V6.9h-0.7C54.8,6.9,55.1,7.2,55.1,7.6z"/>
<path d="M55.1,9.6c0,0.4,0.3,0.7,0.7,0.7h2.7V6.9h-3.4V9.6z"/>
<path d="M59.3,10.3h2c0.4,0,0.7-0.3,0.7-0.7v-2c0-0.4-0.3-0.7-0.7-0.7h-2.7v3.4H59.3z"/>
<path d="M68.9,9.6v-2c0-0.4-0.3-0.7-0.7-0.7h-2c-0.4,0-0.7,0.3-0.7,0.7c0,0,0,0,0,0v2.7h3.4V9.6z"/>
<path d="M69.7,10.3c-0.4,0-0.7-0.3-0.7-0.7v0.7H69.7z"/>
<path d="M31,13.1v-2c0-0.4-0.3-0.7-0.7-0.7h-2c-0.4,0-0.7,0.3-0.7,0.7c0,0,0,0,0,0v2.7H31V13.1z"/>
<rect x="34.5" y="10.3" width="3.4" height="3.4"/>
<rect x="41.4" y="10.3" width="3.4" height="3.4"/>
<path d="M45.5,10.3h-0.7v0.7C44.8,10.7,45.1,10.3,45.5,10.3C45.5,10.3,45.5,10.3,45.5,10.3z"/>
<path d="M51.7,13.1v-2c0-0.4-0.3-0.7-0.7-0.7h-2c-0.4,0-0.7,0.3-0.7,0.7c0,0,0,0,0,0v2.7h3.4V13.1z"/>
<path d="M52.4,13.8c-0.4,0-0.7-0.3-0.7-0.7v0.7H52.4z"/>
<path d="M64.8,13.8c0.4,0,0.7-0.3,0.7-0.7v0.7H64.8z"/>
<rect x="65.5" y="10.3" width="3.4" height="3.4"/>
<path d="M71.6,10.3c0.4,0,0.7,0.3,0.7,0.7v2.7h-3.4v-3.4H71.6z"/>
<rect x="27.6" y="13.8" width="3.4" height="3.4"/>
<path d="M33.7,17.2c0.4,0,0.7-0.3,0.7-0.7v0.7H33.7z"/>
<path d="M31.8,17.2c-0.4,0-0.7-0.3-0.7-0.7v0.7H31.8z"/>
<rect x="34.5" y="13.8" width="3.4" height="3.4"/>
<path d="M41.4,16.5c0,0.4,0.3,0.7,0.7,0.7h2c0.4,0,0.7-0.3,0.7-0.7v-2.7h-3.4V16.5z"/>
<rect x="48.3" y="13.8" width="3.4" height="3.4"/>
<path d="M54.4,13.8c0.4,0,0.7,0.3,0.7,0.7v2.7h-3.4v-3.4H54.4z"/>
<path d="M64.8,13.8h-2c-0.4,0-0.7,0.3-0.7,0.7c0,0,0,0,0,0v2c0,0.4,0.3,0.7,0.7,0.7h2.7v-3.4H64.8z"/>
<rect x="65.5" y="13.8" width="3.4" height="3.4"/>
<path d="M72.4,16.5c0,0.4-0.3,0.7-0.7,0.7h-2.7v-3.4h3.4V16.5z"/>
<rect x="27.6" y="17.2" width="3.4" height="3.4"/>
<rect x="31" y="17.2" width="3.4" height="3.4"/>
<rect x="34.5" y="17.2" width="3.4" height="3.4"/>
<rect x="48.3" y="17.2" width="3.4" height="3.4"/>
<path d="M55.1,19.9c0,0.4-0.3,0.7-0.7,0.7h-2.7v-3.4h3.4V19.9z"/>
<path d="M65.5,18v-0.7h-0.7C65.2,17.2,65.5,17.6,65.5,18z"/>
<path d="M65.5,19.9c0,0.4,0.3,0.7,0.7,0.7h2c0.4,0,0.7-0.3,0.7-0.7v-2.7h-3.4V19.9z"/>
<path d="M69.7,17.2h-0.7V18C68.9,17.6,69.3,17.2,69.7,17.2C69.7,17.2,69.7,17.2,69.7,17.2z"/>
<path d="M27.6,23.4c0,0.4,0.3,0.7,0.7,0.7h2c0.4,0,0.7-0.3,0.7-0.7v-2.7h-3.4V23.4z"/>
<path d="M31.8,20.7H31v0.7C31,21,31.3,20.7,31.8,20.7C31.8,20.7,31.8,20.7,31.8,20.7z"/>
<path d="M34.5,21.4v-0.7h-0.7C34.1,20.7,34.5,21,34.5,21.4z"/>
<path d="M33.7,24.1c0.4,0,0.7-0.3,0.7-0.7v0.7H33.7z"/>
<rect x="34.5" y="20.7" width="3.4" height="3.4"/>
<path d="M40.6,24.1c0.4,0,0.7-0.3,0.7-0.7v0.7H40.6z"/>
<path d="M38.6,24.1c-0.4,0-0.7-0.3-0.7-0.7v0.7H38.6z"/>
<path d="M44.8,23.4v-2c0-0.4-0.3-0.7-0.7-0.7h-2c-0.4,0-0.7,0.3-0.7,0.7c0,0,0,0,0,0v2.7h3.4V23.4z"/>
<path d="M45.5,24.1c-0.4,0-0.7-0.3-0.7-0.7v0.7H45.5z"/>
<path d="M48.3,23.4c0,0.4,0.3,0.7,0.7,0.7h2c0.4,0,0.7-0.3,0.7-0.7v-2.7h-3.4V23.4z"/>
<path d="M52.4,20.7h-0.7v0.7C51.7,21,52,20.7,52.4,20.7C52.4,20.7,52.4,20.7,52.4,20.7z"/>
<path d="M55.9,20.7h2c0.4,0,0.7,0.3,0.7,0.7v2c0,0.4-0.3,0.7-0.7,0.7h-2c-0.4,0-0.7-0.3-0.7-0.7v-2C55.1,21,55.5,20.7,55.9,20.7z"/>
<path d="M62.8,20.7h2c0.4,0,0.7,0.3,0.7,0.7v2c0,0.4-0.3,0.7-0.7,0.7h-2c-0.4,0-0.7-0.3-0.7-0.7v-2C62,21,62.4,20.7,62.8,20.7z"/>
<path d="M68.2,24.1c0.4,0,0.7-0.3,0.7-0.7v0.7H68.2z"/>
<path d="M72.4,23.4v-2c0-0.4-0.3-0.7-0.7-0.7h-2c-0.4,0-0.7,0.3-0.7,0.7c0,0,0,0,0,0v2.7h3.4V23.4z"/>
<path d="M33.7,24.1h-2c-0.4,0-0.7,0.3-0.7,0.7c0,0,0,0,0,0v2c0,0.4,0.3,0.7,0.7,0.7h2.7v-3.4H33.7z"/>
<rect x="34.5" y="24.1" width="3.4" height="3.4"/>
<rect x="37.9" y="24.1" width="3.4" height="3.4"/>
<rect x="41.4" y="24.1" width="3.4" height="3.4"/>
<path d="M47.5,24.1c0.4,0,0.7,0.3,0.7,0.7v2.7h-3.4v-3.4H47.5z"/>
<path d="M55.1,26.8v-2c0-0.4-0.3-0.7-0.7-0.7h-2c-0.4,0-0.7,0.3-0.7,0.7c0,0,0,0,0,0v2.7h3.4V26.8z"/>
<path d="M62,26.8v-2c0-0.4-0.3-0.7-0.7-0.7h-2c-0.4,0-0.7,0.3-0.7,0.7c0,0,0,0,0,0v2.7H62V26.8z"/>
<path d="M62.8,27.6c-0.4,0-0.7-0.3-0.7-0.7v0.7H62.8z"/>
<path d="M68.2,24.1h-2c-0.4,0-0.7,0.3-0.7,0.7c0,0,0,0,0,0v2c0,0.4,0.3,0.7,0.7,0.7h2.7v-3.4H68.2z"/>
<path d="M72.4,26.8c0,0.4-0.3,0.7-0.7,0.7h-2.7v-3.4h3.4V26.8z"/>
<path d="M11.1,27.6h2c0.4,0,0.7,0.3,0.7,0.7v2c0,0.4-0.3,0.7-0.7,0.7h-2c-0.4,0-0.7-0.3-0.7-0.7v-2C10.3,27.9,10.7,27.6,11.1,27.6z"
	/>
<path d="M21.4,27.6h2c0.4,0,0.7,0.3,0.7,0.7v2c0,0.4-0.3,0.7-0.7,0.7h-2c-0.4,0-0.7-0.3-0.7-0.7v-2C20.7,27.9,21,27.6,21.4,27.6z"/>
<path d="M41.4,28.3v-0.7h-0.7C41,27.6,41.4,27.9,41.4,28.3z"/>
<path d="M41.4,30.3c0,0.4,0.3,0.7,0.7,0.7h2.7v-3.4h-3.4V30.3z"/>
<path d="M48.3,30.3c0,0.4-0.3,0.7-0.7,0.7h-2.7v-3.4h3.4V30.3z"/>
<path d="M51.7,30.3c0,0.4,0.3,0.7,0.7,0.7h2c0.4,0,0.7-0.3,0.7-0.7v-2.7h-3.4V30.3z"/>
<path d="M58.6,30.3c0,0.4,0.3,0.7,0.7,0.7H62v-3.4h-3.4V30.3z"/>
<path d="M62.8,31h2c0.4,0,0.7-0.3,0.7-0.7v-2c0-0.4-0.3-0.7-0.7-0.7H62V31H62.8z"/>
<path d="M78.5,31c0.4,0,0.7-0.3,0.7-0.7V31H78.5z"/>
<path d="M80,27.6c-0.4,0-0.7,0.3-0.7,0.7c0,0,0,0,0,0V31h3.4v-3.4H80z"/>
<rect x="82.7" y="27.6" width="3.4" height="3.4"/>
<path d="M88.9,27.6c0.4,0,0.7,0.3,0.7,0.7V31h-3.4v-3.4H88.9z"/>
<path d="M93.8,27.6c-0.4,0-0.7,0.3-0.7,0.7c0,0,0,0,0,0V31h3.4v-3.4H93.8z"/>
<path d="M99.2,27.6c0.4,0,0.7,0.3,0.7,0.7V31h-3.4v-3.4H99.2z"/>
<path d="M6.2,31h-2c-0.4,0-0.7,0.3-0.7,0.7c0,0,0,0,0,0v2c0,0.4,0.3,0.7,0.7,0.7h2.7V31H6.2z"/>
<path d="M9.6,31c0.4,0,0.7,0.3,0.7,0.7v2.7H6.9V31H9.6z"/>
<path d="M17.2,33.7v-2c0-0.4-0.3-0.7-0.7-0.7h-2c-0.4,0-0.7,0.3-0.7,0.7c0,0,0,0,0,0v2.7h3.4V33.7z"/>
<path d="M18,34.5c-0.4,0-0.7-0.3-0.7-0.7v0.7H18z"/>
<path d="M26.8,31h-2c-0.4,0-0.7,0.3-0.7,0.7c0,0,0,0,0,0v2c0,0.4,0.3,0.7,0.7,0.7h2.7V31H26.8z"/>
<path d="M30.3,31c0.4,0,0.7,0.3,0.7,0.7v2.7h-3.4V31H30.3z"/>
<path d="M73.1,31c-0.4,0-0.7,0.3-0.7,0.7c0,0,0,0,0,0v2.7h3.4V31H73.1z"/>
<rect x="75.8" y="31" width="3.4" height="3.4"/>
<path d="M82.7,33.7c0,0.4-0.3,0.7-0.7,0.7h-2.7V31h3.4V33.7z"/>
<path d="M83.4,31h-0.7v0.7C82.7,31.3,83,31,83.4,31C83.4,31,83.4,31,83.4,31z"/>
<path d="M86.2,31.8V31h-0.7C85.8,31,86.2,31.3,86.2,31.8z"/>
<rect x="86.2" y="31" width="3.4" height="3.4"/>
<rect x="93.1" y="31" width="3.4" height="3.4"/>
<path d="M99.9,33.7c0,0.4-0.3,0.7-0.7,0.7h-2.7V31h3.4V33.7z"/>
<path d="M6.9,35.2v-0.7H6.2C6.6,34.5,6.9,34.8,6.9,35.2z"/>
<path d="M6.9,37.2c0,0.4,0.3,0.7,0.7,0.7h2c0.4,0,0.7-0.3,0.7-0.7v-2.7H6.9V37.2z"/>
<rect x="13.8" y="34.5" width="3.4" height="3.4"/>
<rect x="17.2" y="34.5" width="3.4" height="3.4"/>
<path d="M21.4,37.9h2c0.4,0,0.7-0.3,0.7-0.7v-2c0-0.4-0.3-0.7-0.7-0.7h-2.7v3.4H21.4z"/>
<path d="M27.6,35.2v-0.7h-0.7C27.2,34.5,27.6,34.8,27.6,35.2z"/>
<rect x="27.6" y="34.5" width="3.4" height="3.4"/>
<path d="M72.4,37.2c0,0.4,0.3,0.7,0.7,0.7h2c0.4,0,0.7-0.3,0.7-0.7v-2.7h-3.4V37.2z"/>
<path d="M76.6,34.5h-0.7v0.7C75.8,34.8,76.2,34.5,76.6,34.5C76.6,34.5,76.6,34.5,76.6,34.5z"/>
<path d="M86.2,37.2c0,0.4,0.3,0.7,0.7,0.7h2c0.4,0,0.7-0.3,0.7-0.7v-2.7h-3.4V37.2z"/>
<path d="M93.1,37.2c0,0.4,0.3,0.7,0.7,0.7h2c0.4,0,0.7-0.3,0.7-0.7v-2.7h-3.4V37.2z"/>
<path d="M97.2,34.5h-0.7v0.7C96.5,34.8,96.8,34.5,97.2,34.5C97.2,34.5,97.2,34.5,97.2,34.5z"/>
<path d="M0.7,37.9c-0.4,0-0.7,0.3-0.7,0.7c0,0,0,0,0,0v2.7h3.4v-3.4H0.7z"/>
<path d="M6.2,37.9c0.4,0,0.7,0.3,0.7,0.7v2.7H3.4v-3.4H6.2z"/>
<path d="M13.1,41.4c0.4,0,0.7-0.3,0.7-0.7v0.7H13.1z"/>
<rect x="13.8" y="37.9" width="3.4" height="3.4"/>
<rect x="17.2" y="37.9" width="3.4" height="3.4"/>
<path d="M21.4,37.9h-0.7v0.7C20.7,38.2,21,37.9,21.4,37.9C21.4,37.9,21.4,37.9,21.4,37.9z"/>
<path d="M21.4,41.4c-0.4,0-0.7-0.3-0.7-0.7v0.7H21.4z"/>
<path d="M26.8,41.4c0.4,0,0.7-0.3,0.7-0.7v0.7H26.8z"/>
<rect x="27.6" y="37.9" width="3.4" height="3.4"/>
<path d="M76.6,37.9c-0.4,0-0.7,0.3-0.7,0.7c0,0,0,0,0,0v2.7h3.4v-3.4H76.6z"/>
<path d="M80,41.4h2c0.4,0,0.7-0.3,0.7-0.7v-2c0-0.4-0.3-0.7-0.7-0.7h-2.7v3.4H80z"/>
<path d="M0,44.1c0,0.4,0.3,0.7,0.7,0.7h2.7v-3.4H0V44.1z"/>
<path d="M6.9,44.1c0,0.4-0.3,0.7-0.7,0.7H3.4v-3.4h3.4V44.1z"/>
<path d="M13.1,41.4h-2c-0.4,0-0.7,0.3-0.7,0.7c0,0,0,0,0,0v2c0,0.4,0.3,0.7,0.7,0.7h2.7v-3.4H13.1z"/>
<rect x="13.8" y="41.4" width="3.4" height="3.4"/>
<rect x="17.2" y="41.4" width="3.4" height="3.4"/>
<rect x="20.7" y="41.4" width="3.4" height="3.4"/>
<rect x="24.1" y="41.4" width="3.4" height="3.4"/>
<rect x="27.6" y="41.4" width="3.4" height="3.4"/>
<path d="M75.8,44.1c0,0.4,0.3,0.7,0.7,0.7h2c0.4,0,0.7-0.3,0.7-0.7v-2.7h-3.4V44.1z"/>
<path d="M80,41.4h-0.7v0.7C79.3,41.7,79.6,41.4,80,41.4C80,41.4,80,41.4,80,41.4z"/>
<path d="M83.4,41.4h2c0.4,0,0.7,0.3,0.7,0.7v2c0,0.4-0.3,0.7-0.7,0.7h-2c-0.4,0-0.7-0.3-0.7-0.7v-2C82.7,41.7,83,41.4,83.4,41.4z"/>
<path d="M97.2,41.4h2c0.4,0,0.7,0.3,0.7,0.7v2c0,0.4-0.3,0.7-0.7,0.7h-2c-0.4,0-0.7-0.3-0.7-0.7v-2C96.5,41.7,96.8,41.4,97.2,41.4z"
	/>
<path d="M13.8,45.5v-0.7h-0.7C13.5,44.8,13.8,45.1,13.8,45.5z"/>
<rect x="13.8" y="44.8" width="3.4" height="3.4"/>
<rect x="17.2" y="44.8" width="3.4" height="3.4"/>
<path d="M21.4,44.8h-0.7v0.7C20.7,45.1,21,44.8,21.4,44.8C21.4,44.8,21.4,44.8,21.4,44.8z"/>
<path d="M24.1,45.5v-0.7h-0.7C23.8,44.8,24.1,45.1,24.1,45.5z"/>
<path d="M23.4,48.3c0.4,0,0.7-0.3,0.7-0.7v0.7H23.4z"/>
<path d="M21.4,48.3c-0.4,0-0.7-0.3-0.7-0.7v0.7H21.4z"/>
<rect x="24.1" y="44.8" width="3.4" height="3.4"/>
<rect x="27.6" y="44.8" width="3.4" height="3.4"/>
<path d="M69.7,44.8h2c0.4,0,0.7,0.3,0.7,0.7v2c0,0.4-0.3,0.7-0.7,0.7h-2c-0.4,0-0.7-0.3-0.7-0.7v-2C68.9,45.1,69.3,44.8,69.7,44.8z"
	/>
<path d="M80,44.8h2c0.4,0,0.7,0.3,0.7,0.7v2c0,0.4-0.3,0.7-0.7,0.7h-2c-0.4,0-0.7-0.3-0.7-0.7v-2C79.3,45.1,79.6,44.8,80,44.8z"/>
<path d="M86.9,44.8h2c0.4,0,0.7,0.3,0.7,0.7v2c0,0.4-0.3,0.7-0.7,0.7h-2c-0.4,0-0.7-0.3-0.7-0.7v-2C86.2,45.1,86.5,44.8,86.9,44.8z"
	/>
<path d="M0.7,48.3C0.3,48.3,0,48.6,0,49c0,0,0,0,0,0v2.7h3.4v-3.4H0.7z"/>
<path d="M4.2,51.7h2c0.4,0,0.7-0.3,0.7-0.7v-2c0-0.4-0.3-0.7-0.7-0.7H3.4v3.4H4.2z"/>
<path d="M13.8,51c0,0.4,0.3,0.7,0.7,0.7h2.7v-3.4h-3.4V51z"/>
<rect x="17.2" y="48.3" width="3.4" height="3.4"/>
<rect x="20.7" y="48.3" width="3.4" height="3.4"/>
<rect x="24.1" y="48.3" width="3.4" height="3.4"/>
<path d="M31,51c0,0.4-0.3,0.7-0.7,0.7h-2.7v-3.4H31V51z"/>
<path d="M73.1,48.3c-0.4,0-0.7,0.3-0.7,0.7c0,0,0,0,0,0v2.7h3.4v-3.4H73.1z"/>
<path d="M78.5,48.3c0.4,0,0.7,0.3,0.7,0.7v2.7h-3.4v-3.4H78.5z"/>
<path d="M88.9,51.7c0.4,0,0.7-0.3,0.7-0.7v0.7H88.9z"/>
<path d="M90.3,48.3c-0.4,0-0.7,0.3-0.7,0.7c0,0,0,0,0,0v2.7h3.4v-3.4H90.3z"/>
<path d="M95.8,48.3c0.4,0,0.7,0.3,0.7,0.7v2.7h-3.4v-3.4H95.8z"/>
<path d="M97.2,51.7c-0.4,0-0.7-0.3-0.7-0.7v0.7H97.2z"/>
<path d="M0,54.4c0,0.4,0.3,0.7,0.7,0.7h2c0.4,0,0.7-0.3,0.7-0.7v-2.7H0V54.4z"/>
<path d="M4.2,51.7H3.4v0.7C3.4,52,3.8,51.7,4.2,51.7C4.2,51.7,4.2,51.7,4.2,51.7z"/>
<path d="M10.3,54.4v-2c0-0.4-0.3-0.7-0.7-0.7h-2c-0.4,0-0.7,0.3-0.7,0.7c0,0,0,0,0,0v2.7h3.4V54.4z"/>
<path d="M17.2,52.4v-0.7h-0.7C16.9,51.7,17.2,52,17.2,52.4z"/>
<path d="M16.5,55.1c0.4,0,0.7-0.3,0.7-0.7v0.7H16.5z"/>
<rect x="17.2" y="51.7" width="3.4" height="3.4"/>
<path d="M21.4,51.7h-0.7v0.7C20.7,52,21,51.7,21.4,51.7C21.4,51.7,21.4,51.7,21.4,51.7z"/>
<path d="M21.4,55.1c-0.4,0-0.7-0.3-0.7-0.7v0.7H21.4z"/>
<rect x="72.4" y="51.7" width="3.4" height="3.4"/>
<path d="M79.3,54.4c0,0.4-0.3,0.7-0.7,0.7h-2.7v-3.4h3.4V54.4z"/>
<path d="M86.9,51.7c-0.4,0-0.7,0.3-0.7,0.7c0,0,0,0,0,0v2.7h3.4v-3.4H86.9z"/>
<rect x="89.6" y="51.7" width="3.4" height="3.4"/>
<rect x="93.1" y="51.7" width="3.4" height="3.4"/>
<path d="M97.2,55.1h2c0.4,0,0.7-0.3,0.7-0.7v-2c0-0.4-0.3-0.7-0.7-0.7h-2.7v3.4H97.2z"/>
<path d="M6.9,57.9c0,0.4,0.3,0.7,0.7,0.7h2c0.4,0,0.7-0.3,0.7-0.7v-2.7H6.9V57.9z"/>
<path d="M16.5,55.1h-2c-0.4,0-0.7,0.3-0.7,0.7c0,0,0,0,0,0v2c0,0.4,0.3,0.7,0.7,0.7h2.7v-3.4H16.5z"/>
<rect x="17.2" y="55.1" width="3.4" height="3.4"/>
<path d="M21.4,58.6h2c0.4,0,0.7-0.3,0.7-0.7v-2c0-0.4-0.3-0.7-0.7-0.7h-2.7v3.4H21.4z"/>
<path d="M31,57.9v-2c0-0.4-0.3-0.7-0.7-0.7h-2c-0.4,0-0.7,0.3-0.7,0.7c0,0,0,0,0,0v2.7H31V57.9z"/>
<path d="M71.6,58.6c0.4,0,0.7-0.3,0.7-0.7v0.7H71.6z"/>
<rect x="72.4" y="55.1" width="3.4" height="3.4"/>
<path d="M76.6,55.1h-0.7v0.7C75.8,55.5,76.2,55.1,76.6,55.1C76.6,55.1,76.6,55.1,76.6,55.1z"/>
<path d="M82.7,57.9v-2c0-0.4-0.3-0.7-0.7-0.7h-2c-0.4,0-0.7,0.3-0.7,0.7c0,0,0,0,0,0v2.7h3.4V57.9z"/>
<path d="M83.4,58.6c-0.4,0-0.7-0.3-0.7-0.7v0.7H83.4z"/>
<path d="M86.2,57.9c0,0.4,0.3,0.7,0.7,0.7h2.7v-3.4h-3.4V57.9z"/>
<rect x="89.6" y="55.1" width="3.4" height="3.4"/>
<rect x="93.1" y="55.1" width="3.4" height="3.4"/>
<path d="M97.2,55.1h-0.7v0.7C96.5,55.5,96.8,55.1,97.2,55.1C97.2,55.1,97.2,55.1,97.2,55.1z"/>
<path d="M4.2,58.6h2c0.4,0,0.7,0.3,0.7,0.7v2c0,0.4-0.3,0.7-0.7,0.7h-2c-0.4,0-0.7-0.3-0.7-0.7v-2C3.4,58.9,3.8,58.6,4.2,58.6z"/>
<rect x="27.6" y="58.6" width="3.4" height="3.4"/>
<path d="M69.7,58.6c-0.4,0-0.7,0.3-0.7,0.7c0,0,0,0,0,0V62h3.4v-3.4H69.7z"/>
<path d="M75.8,61.3c0,0.4-0.3,0.7-0.7,0.7h-2.7v-3.4h3.4V61.3z"/>
<path d="M79.3,61.3c0,0.4,0.3,0.7,0.7,0.7h2.7v-3.4h-3.4V61.3z"/>
<path d="M83.4,62h2c0.4,0,0.7-0.3,0.7-0.7v-2c0-0.4-0.3-0.7-0.7-0.7h-2.7V62H83.4z"/>
<path d="M89.6,59.3v-0.7h-0.7C89.3,58.6,89.6,58.9,89.6,59.3z"/>
<path d="M89.6,61.3c0,0.4,0.3,0.7,0.7,0.7h2.7v-3.4h-3.4V61.3z"/>
<rect x="93.1" y="58.6" width="3.4" height="3.4"/>
<path d="M97.2,62c-0.4,0-0.7-0.3-0.7-0.7V62H97.2z"/>
<path d="M0.7,62h2c0.4,0,0.7,0.3,0.7,0.7v2c0,0.4-0.3,0.7-0.7,0.7h-2c-0.4,0-0.7-0.3-0.7-0.7v-2C0,62.4,0.3,62,0.7,62z"/>
<path d="M7.6,62h2c0.4,0,0.7,0.3,0.7,0.7v2c0,0.4-0.3,0.7-0.7,0.7h-2c-0.4,0-0.7-0.3-0.7-0.7v-2C6.9,62.4,7.2,62,7.6,62z"/>
<path d="M21.4,62h2c0.4,0,0.7,0.3,0.7,0.7v2c0,0.4-0.3,0.7-0.7,0.7h-2c-0.4,0-0.7-0.3-0.7-0.7v-2C20.7,62.4,21,62,21.4,62z"/>
<rect x="27.6" y="62" width="3.4" height="3.4"/>
<rect x="68.9" y="62" width="3.4" height="3.4"/>
<path d="M73.1,62h-0.7v0.7C72.4,62.4,72.7,62,73.1,62C73.1,62,73.1,62,73.1,62z"/>
<path d="M76.6,62h2c0.4,0,0.7,0.3,0.7,0.7v2c0,0.4-0.3,0.7-0.7,0.7h-2c-0.4,0-0.7-0.3-0.7-0.7v-2C75.8,62.4,76.2,62,76.6,62z"/>
<path d="M93.1,62.8V62h-0.7C92.7,62,93.1,62.4,93.1,62.8z"/>
<rect x="93.1" y="62" width="3.4" height="3.4"/>
<path d="M97.2,65.5h2c0.4,0,0.7-0.3,0.7-0.7v-2c0-0.4-0.3-0.7-0.7-0.7h-2.7v3.4H97.2z"/>
<path d="M13.1,65.5h-2c-0.4,0-0.7,0.3-0.7,0.7c0,0,0,0,0,0v2c0,0.4,0.3,0.7,0.7,0.7h2.7v-3.4H13.1z"/>
<path d="M16.5,65.5c0.4,0,0.7,0.3,0.7,0.7v2.7h-3.4v-3.4H16.5z"/>
<path d="M18,68.9c-0.4,0-0.7-0.3-0.7-0.7v0.7H18z"/>
<path d="M27.6,68.2c0,0.4,0.3,0.7,0.7,0.7h2c0.4,0,0.7-0.3,0.7-0.7v-2.7h-3.4V68.2z"/>
<rect x="68.9" y="65.5" width="3.4" height="3.4"/>
<path d="M73.1,68.9c-0.4,0-0.7-0.3-0.7-0.7v0.7H73.1z"/>
<path d="M78.5,68.9c0.4,0,0.7-0.3,0.7-0.7v0.7H78.5z"/>
<path d="M82.7,68.2v-2c0-0.4-0.3-0.7-0.7-0.7h-2c-0.4,0-0.7,0.3-0.7,0.7c0,0,0,0,0,0v2.7h3.4V68.2z"/>
<path d="M83.4,68.9c-0.4,0-0.7-0.3-0.7-0.7v0.7H83.4z"/>
<path d="M86.9,65.5h2c0.4,0,0.7,0.3,0.7,0.7v2c0,0.4-0.3,0.7-0.7,0.7h-2c-0.4,0-0.7-0.3-0.7-0.7v-2C86.2,65.8,86.5,65.5,86.9,65.5z"
	/>
<path d="M93.1,68.2c0,0.4,0.3,0.7,0.7,0.7h2c0.4,0,0.7-0.3,0.7-0.7v-2.7h-3.4V68.2z"/>
<path d="M97.2,65.5h-0.7v0.7C96.5,65.8,96.8,65.5,97.2,65.5C97.2,65.5,97.2,65.5,97.2,65.5z"/>
<path d="M0.7,68.9h2c0.4,0,0.7,0.3,0.7,0.7v2c0,0.4-0.3,0.7-0.7,0.7h-2C0.3,72.4,0,72,0,71.6v-2C0,69.3,0.3,68.9,0.7,68.9z"/>
<path d="M13.8,69.7v-0.7h-0.7C13.5,68.9,13.8,69.3,13.8,69.7z"/>
<path d="M13.8,71.6c0,0.4,0.3,0.7,0.7,0.7h2.7v-3.4h-3.4V71.6z"/>
<rect x="17.2" y="68.9" width="3.4" height="3.4"/>
<rect x="20.7" y="68.9" width="3.4" height="3.4"/>
<path d="M24.9,72.4h2c0.4,0,0.7-0.3,0.7-0.7v-2c0-0.4-0.3-0.7-0.7-0.7h-2.7v3.4H24.9z"/>
<path d="M33.7,68.9h-2c-0.4,0-0.7,0.3-0.7,0.7c0,0,0,0,0,0v2c0,0.4,0.3,0.7,0.7,0.7h2.7v-3.4H33.7z"/>
<path d="M35.2,72.4h2c0.4,0,0.7-0.3,0.7-0.7v-2c0-0.4-0.3-0.7-0.7-0.7h-2.7v3.4H35.2z"/>
<path d="M44.1,68.9h-2c-0.4,0-0.7,0.3-0.7,0.7c0,0,0,0,0,0v2c0,0.4,0.3,0.7,0.7,0.7h2.7v-3.4H44.1z"/>
<path d="M45.5,72.4h2c0.4,0,0.7-0.3,0.7-0.7v-2c0-0.4-0.3-0.7-0.7-0.7h-2.7v3.4H45.5z"/>
<path d="M51,72.4c0.4,0,0.7-0.3,0.7-0.7v0.7H51z"/>
<path d="M52.4,68.9c-0.4,0-0.7,0.3-0.7,0.7c0,0,0,0,0,0v2.7h3.4v-3.4H52.4z"/>
<rect x="55.1" y="68.9" width="3.4" height="3.4"/>
<rect x="58.6" y="68.9" width="3.4" height="3.4"/>
<path d="M62.8,72.4h2c0.4,0,0.7-0.3,0.7-0.7v-2c0-0.4-0.3-0.7-0.7-0.7H62v3.4H62.8z"/>
<rect x="68.9" y="68.9" width="3.4" height="3.4"/>
<rect x="72.4" y="68.9" width="3.4" height="3.4"/>
<rect x="75.8" y="68.9" width="3.4" height="3.4"/>
<rect x="79.3" y="68.9" width="3.4" height="3.4"/>
<path d="M85.4,68.9c0.4,0,0.7,0.3,0.7,0.7v2.7h-3.4v-3.4H85.4z"/>
<path d="M28.3,72.4h2c0.4,0,0.7,0.3,0.7,0.7v2c0,0.4-0.3,0.7-0.7,0.7h-2c-0.4,0-0.7-0.3-0.7-0.7v-2C27.6,72.7,27.9,72.4,28.3,72.4z"
	/>
<path d="M38.6,72.4h2c0.4,0,0.7,0.3,0.7,0.7v2c0,0.4-0.3,0.7-0.7,0.7h-2c-0.4,0-0.7-0.3-0.7-0.7v-2C37.9,72.7,38.2,72.4,38.6,72.4z"
	/>
<path d="M51,72.4h-2c-0.4,0-0.7,0.3-0.7,0.7c0,0,0,0,0,0v2c0,0.4,0.3,0.7,0.7,0.7h2.7v-3.4H51z"/>
<rect x="51.7" y="72.4" width="3.4" height="3.4"/>
<path d="M58.6,75.1c0,0.4-0.3,0.7-0.7,0.7h-2.7v-3.4h3.4V75.1z"/>
<path d="M59.3,72.4h-0.7v0.7C58.6,72.7,58.9,72.4,59.3,72.4C59.3,72.4,59.3,72.4,59.3,72.4z"/>
<rect x="68.9" y="72.4" width="3.4" height="3.4"/>
<path d="M73.1,72.4h-0.7v0.7C72.4,72.7,72.7,72.4,73.1,72.4C73.1,72.4,73.1,72.4,73.1,72.4z"/>
<path d="M82.7,73.1v-0.7H82C82.4,72.4,82.7,72.7,82.7,73.1z"/>
<rect x="82.7" y="72.4" width="3.4" height="3.4"/>
<path d="M97.2,72.4h2c0.4,0,0.7,0.3,0.7,0.7v2c0,0.4-0.3,0.7-0.7,0.7h-2c-0.4,0-0.7-0.3-0.7-0.7v-2C96.5,72.7,96.8,72.4,97.2,72.4z"
	/>
<path d="M35.2,75.8h2c0.4,0,0.7,0.3,0.7,0.7v2c0,0.4-0.3,0.7-0.7,0.7h-2c-0.4,0-0.7-0.3-0.7-0.7v-2C34.5,76.2,34.8,75.8,35.2,75.8z"
	/>
<path d="M45.5,75.8h2c0.4,0,0.7,0.3,0.7,0.7v2c0,0.4-0.3,0.7-0.7,0.7h-2c-0.4,0-0.7-0.3-0.7-0.7v-2C44.8,76.2,45.1,75.8,45.5,75.8z"
	/>
<path d="M51.7,76.6v-0.7H51C51.4,75.8,51.7,76.2,51.7,76.6z"/>
<path d="M51.7,78.5c0,0.4,0.3,0.7,0.7,0.7h2c0.4,0,0.7-0.3,0.7-0.7v-2.7h-3.4V78.5z"/>
<path d="M55.9,75.8h-0.7v0.7C55.1,76.2,55.5,75.8,55.9,75.8C55.9,75.8,55.9,75.8,55.9,75.8z"/>
<path d="M59.3,75.8h2c0.4,0,0.7,0.3,0.7,0.7v2c0,0.4-0.3,0.7-0.7,0.7h-2c-0.4,0-0.7-0.3-0.7-0.7v-2C58.6,76.2,58.9,75.8,59.3,75.8z"
	/>
<rect x="68.9" y="75.8" width="3.4" height="3.4"/>
<path d="M76.6,75.8h2c0.4,0,0.7,0.3,0.7,0.7v2c0,0.4-0.3,0.7-0.7,0.7h-2c-0.4,0-0.7-0.3-0.7-0.7v-2C75.8,76.2,76.2,75.8,76.6,75.8z"
	/>
<rect x="82.7" y="75.8" width="3.4" height="3.4"/>
<path d="M40.6,82.7c0.4,0,0.7-0.3,0.7-0.7v0.7H40.6z"/>
<path d="M44.8,82v-2c0-0.4-0.3-0.7-0.7-0.7h-2c-0.4,0-0.7,0.3-0.7,0.7c0,0,0,0,0,0v2.7h3.4V82z"/>
<path d="M47.5,82.7c0.4,0,0.7-0.3,0.7-0.7v0.7H47.5z"/>
<path d="M45.5,82.7c-0.4,0-0.7-0.3-0.7-0.7v0.7H45.5z"/>
<path d="M51.7,82v-2c0-0.4-0.3-0.7-0.7-0.7h-2c-0.4,0-0.7,0.3-0.7,0.7c0,0,0,0,0,0v2.7h3.4V82z"/>
<path d="M62.8,79.3h2c0.4,0,0.7,0.3,0.7,0.7v2c0,0.4-0.3,0.7-0.7,0.7h-2c-0.4,0-0.7-0.3-0.7-0.7v-2C62,79.6,62.4,79.3,62.8,79.3z"/>
<path d="M68.2,82.7c0.4,0,0.7-0.3,0.7-0.7v0.7H68.2z"/>
<rect x="68.9" y="79.3" width="3.4" height="3.4"/>
<path d="M73.1,82.7c-0.4,0-0.7-0.3-0.7-0.7v0.7H73.1z"/>
<path d="M82,82.7c0.4,0,0.7-0.3,0.7-0.7v0.7H82z"/>
<rect x="82.7" y="79.3" width="3.4" height="3.4"/>
<path d="M90.3,79.3c-0.4,0-0.7,0.3-0.7,0.7c0,0,0,0,0,0v2.7h3.4v-3.4H90.3z"/>
<rect x="93.1" y="79.3" width="3.4" height="3.4"/>
<path d="M99.2,79.3c0.4,0,0.7,0.3,0.7,0.7v2.7h-3.4v-3.4H99.2z"/>
<path d="M37.2,82.7h-2c-0.4,0-0.7,0.3-0.7,0.7c0,0,0,0,0,0v2c0,0.4,0.3,0.7,0.7,0.7h2.7v-3.4H37.2z"/>
<rect x="37.9" y="82.7" width="3.4" height="3.4"/>
<rect x="41.4" y="82.7" width="3.4" height="3.4"/>
<rect x="44.8" y="82.7" width="3.4" height="3.4"/>
<path d="M51.7,85.4c0,0.4-0.3,0.7-0.7,0.7h-2.7v-3.4h3.4V85.4z"/>
<path d="M59.3,82.7h2c0.4,0,0.7,0.3,0.7,0.7v2c0,0.4-0.3,0.7-0.7,0.7h-2c-0.4,0-0.7-0.3-0.7-0.7v-2C58.6,83,58.9,82.7,59.3,82.7z"/>
<path d="M68.2,82.7h-2c-0.4,0-0.7,0.3-0.7,0.7c0,0,0,0,0,0v2c0,0.4,0.3,0.7,0.7,0.7h2.7v-3.4H68.2z"/>
<rect x="68.9" y="82.7" width="3.4" height="3.4"/>
<rect x="72.4" y="82.7" width="3.4" height="3.4"/>
<rect x="75.8" y="82.7" width="3.4" height="3.4"/>
<rect x="79.3" y="82.7" width="3.4" height="3.4"/>
<path d="M86.2,85.4c0,0.4-0.3,0.7-0.7,0.7h-2.7v-3.4h3.4V85.4z"/>
<path d="M89.6,85.4c0,0.4,0.3,0.7,0.7,0.7h2.7v-3.4h-3.4V85.4z"/>
<rect x="93.1" y="82.7" width="3.4" height="3.4"/>
<rect x="96.5" y="82.7" width="3.4" height="3.4"/>
<path d="M30.3,86.2h-2c-0.4,0-0.7,0.3-0.7,0.7c0,0,0,0,0,0v2c0,0.4,0.3,0.7,0.7,0.7H31v-3.4H30.3z"/>
<path d="M31.8,89.6h2c0.4,0,0.7-0.3,0.7-0.7v-2c0-0.4-0.3-0.7-0.7-0.7H31v3.4H31.8z"/>
<path d="M44.8,86.9v-0.7h-0.7C44.5,86.2,44.8,86.5,44.8,86.9z"/>
<path d="M44.1,89.6c0.4,0,0.7-0.3,0.7-0.7v0.7H44.1z"/>
<rect x="44.8" y="86.2" width="3.4" height="3.4"/>
<path d="M49,86.2h-0.7v0.7C48.3,86.5,48.6,86.2,49,86.2C49,86.2,49,86.2,49,86.2z"/>
<path d="M51,89.6c0.4,0,0.7-0.3,0.7-0.7v0.7H51z"/>
<path d="M49,89.6c-0.4,0-0.7-0.3-0.7-0.7v0.7H49z"/>
<path d="M52.4,86.2c-0.4,0-0.7,0.3-0.7,0.7c0,0,0,0,0,0v2.7h3.4v-3.4H52.4z"/>
<path d="M55.9,89.6h2c0.4,0,0.7-0.3,0.7-0.7v-2c0-0.4-0.3-0.7-0.7-0.7h-2.7v3.4H55.9z"/>
<path d="M65.5,88.9v-2c0-0.4-0.3-0.7-0.7-0.7h-2c-0.4,0-0.7,0.3-0.7,0.7c0,0,0,0,0,0v2.7h3.4V88.9z"/>
<path d="M68.9,86.9v-0.7h-0.7C68.6,86.2,68.9,86.5,68.9,86.9z"/>
<path d="M68.9,88.9c0,0.4,0.3,0.7,0.7,0.7h2.7v-3.4h-3.4V88.9z"/>
<path d="M75.8,88.9c0,0.4-0.3,0.7-0.7,0.7h-2.7v-3.4h3.4V88.9z"/>
<path d="M76.6,86.2h-0.7v0.7C75.8,86.5,76.2,86.2,76.6,86.2C76.6,86.2,76.6,86.2,76.6,86.2z"/>
<path d="M79.3,86.9v-0.7h-0.7C78.9,86.2,79.3,86.5,79.3,86.9z"/>
<path d="M79.3,88.9c0,0.4,0.3,0.7,0.7,0.7h2c0.4,0,0.7-0.3,0.7-0.7v-2.7h-3.4V88.9z"/>
<path d="M83.4,86.2h-0.7v0.7C82.7,86.5,83,86.2,83.4,86.2C83.4,86.2,83.4,86.2,83.4,86.2z"/>
<path d="M86.9,86.2h2c0.4,0,0.7,0.3,0.7,0.7v2c0,0.4-0.3,0.7-0.7,0.7h-2c-0.4,0-0.7-0.3-0.7-0.7v-2C86.2,86.5,86.5,86.2,86.9,86.2z"
	/>
<path d="M96.5,86.9v-0.7h-0.7C96.2,86.2,96.5,86.5,96.5,86.9z"/>
<rect x="96.5" y="86.2" width="3.4" height="3.4"/>
<path d="M35.2,89.6h2c0.4,0,0.7,0.3,0.7,0.7v2c0,0.4-0.3,0.7-0.7,0.7h-2c-0.4,0-0.7-0.3-0.7-0.7v-2C34.5,89.9,34.8,89.6,35.2,89.6z"
	/>
<path d="M42.1,89.6c-0.4,0-0.7,0.3-0.7,0.7c0,0,0,0,0,0v2.7h3.4v-3.4H42.1z"/>
<rect x="44.8" y="89.6" width="3.4" height="3.4"/>
<rect x="48.3" y="89.6" width="3.4" height="3.4"/>
<rect x="51.7" y="89.6" width="3.4" height="3.4"/>
<path d="M55.9,89.6h-0.7v0.7C55.1,89.9,55.5,89.6,55.9,89.6C55.9,89.6,55.9,89.6,55.9,89.6z"/>
<path d="M55.9,93.1c-0.4,0-0.7-0.3-0.7-0.7v0.7H55.9z"/>
<path d="M62,92.3c0,0.4,0.3,0.7,0.7,0.7h2c0.4,0,0.7-0.3,0.7-0.7v-2.7H62V92.3z"/>
<path d="M86.2,92.3v-2c0-0.4-0.3-0.7-0.7-0.7h-2c-0.4,0-0.7,0.3-0.7,0.7c0,0,0,0,0,0v2.7h3.4V92.3z"/>
<path d="M90.3,89.6h2c0.4,0,0.7,0.3,0.7,0.7v2c0,0.4-0.3,0.7-0.7,0.7h-2c-0.4,0-0.7-0.3-0.7-0.7v-2C89.6,89.9,89.9,89.6,90.3,89.6z"
	/>
<rect x="96.5" y="89.6" width="3.4" height="3.4"/>
<path d="M34.5,95.8v-2c0-0.4-0.3-0.7-0.7-0.7h-2c-0.4,0-0.7,0.3-0.7,0.7c0,0,0,0,0,0v2.7h3.4V95.8z"/>
<path d="M35.2,96.5c-0.4,0-0.7-0.3-0.7-0.7v0.7H35.2z"/>
<path d="M41.4,95.8c0,0.4,0.3,0.7,0.7,0.7h2.7v-3.4h-3.4V95.8z"/>
<rect x="44.8" y="93.1" width="3.4" height="3.4"/>
<rect x="48.3" y="93.1" width="3.4" height="3.4"/>
<rect x="51.7" y="93.1" width="3.4" height="3.4"/>
<path d="M55.9,96.5h2c0.4,0,0.7-0.3,0.7-0.7v-2c0-0.4-0.3-0.7-0.7-0.7h-2.7v3.4H55.9z"/>
<path d="M68.2,93.1h-2c-0.4,0-0.7,0.3-0.7,0.7c0,0,0,0,0,0v2c0,0.4,0.3,0.7,0.7,0.7h2.7v-3.4H68.2z"/>
<path d="M69.7,96.5h2c0.4,0,0.7-0.3,0.7-0.7v-2c0-0.4-0.3-0.7-0.7-0.7h-2.7v3.4H69.7z"/>
<path d="M82,96.5c0.4,0,0.7-0.3,0.7-0.7v0.7H82z"/>
<rect x="82.7" y="93.1" width="3.4" height="3.4"/>
<path d="M96.5,95.8c0,0.4,0.3,0.7,0.7,0.7h2c0.4,0,0.7-0.3,0.7-0.7v-2.7h-3.4V95.8z"/>
<path d="M31,99.2c0,0.4,0.3,0.7,0.7,0.7h2.7v-3.4H31V99.2z"/>
<path d="M35.2,99.9h2c0.4,0,0.7-0.3,0.7-0.7v-2c0-0.4-0.3-0.7-0.7-0.7h-2.7v3.4H35.2z"/>
<path d="M44.8,97.2v-0.7h-0.7C44.5,96.5,44.8,96.8,44.8,97.2z"/>
<path d="M44.8,99.2c0,0.4,0.3,0.7,0.7,0.7h2c0.4,0,0.7-0.3,0.7-0.7v-2.7h-3.4V99.2z"/>
<path d="M49,96.5h-0.7v0.7C48.3,96.8,48.6,96.5,49,96.5C49,96.5,49,96.5,49,96.5z"/>
<path d="M61.3,96.5h-2c-0.4,0-0.7,0.3-0.7,0.7c0,0,0,0,0,0v2c0,0.4,0.3,0.7,0.7,0.7H62v-3.4H61.3z"/>
<path d="M62.8,99.9h2c0.4,0,0.7-0.3,0.7-0.7v-2c0-0.4-0.3-0.7-0.7-0.7H62v3.4H62.8z"/>
<path d="M82,96.5h-2c-0.4,0-0.7,0.3-0.7,0.7c0,0,0,0,0,0v2c0,0.4,0.3,0.7,0.7,0.7h2.7v-3.4H82z"/>
<path d="M86.2,99.2c0,0.4-0.3,0.7-0.7,0.7h-2.7v-3.4h3.4V99.2z"/>
<path d="M92.3,96.5h-2c-0.4,0-0.7,0.3-0.7,0.7c0,0,0,0,0,0v2c0,0.4,0.3,0.7,0.7,0.7h2.7v-3.4H92.3z"/>
<path d="M93.8,99.9h2c0.4,0,0.7-0.3,0.7-0.7v-2c0-0.4-0.3-0.7-0.7-0.7h-2.7v3.4H93.8z"/>
<path d="M0.7,0C0.3,0,0,0.3,0,0.7v2.7v3.4v3.4v3.4v3.4v3.4v2.7c0,0.4,0.3,0.7,0.7,0.7h22.7c0.4,0,0.7-0.3,0.7-0.7v-2.7v-3.4v-3.4
	v-3.4V6.9V3.4V0.7c0-0.4-0.3-0.7-0.7-0.7C23.4,0,0.7,0,0.7,0z M20.7,6.9v3.4v3.4v3.4v3c0,0.2-0.2,0.4-0.4,0.4H3.9
	c-0.2,0-0.4-0.2-0.4-0.4v-3v-3.4v-3.4V6.9v-3c0-0.2,0.2-0.4,0.4-0.4h16.4c0.2,0,0.4,0.2,0.4,0.4V6.9z"/>
<path d="M17.2,13.8v-3.4V7.6c0-0.4-0.3-0.7-0.7-0.7H7.6c-0.4,0-0.7,0.3-0.7,0.7v2.7v3.4v2.7c0,0.4,0.3,0.7,0.7,0.7h8.9
	c0.4,0,0.7-0.3,0.7-0.7V13.8z"/>
<path d="M76.6,0c-0.4,0-0.7,0.3-0.7,0.7v2.7v3.4v3.4v3.4v3.4v3.4v2.7c0,0.4,0.3,0.7,0.7,0.7h22.7c0.4,0,0.7-0.3,0.7-0.7v-2.7v-3.4
	v-3.4v-3.4V6.9V3.4V0.7c0-0.4-0.3-0.7-0.7-0.7C99.2,0,76.6,0,76.6,0z M96.5,6.9v3.4v3.4v3.4v3c0,0.2-0.2,0.4-0.4,0.4H79.7
	c-0.2,0-0.4-0.2-0.4-0.4v-3v-3.4v-3.4V6.9v-3c0-0.2,0.2-0.4,0.4-0.4h16.4c0.2,0,0.4,0.2,0.4,0.4V6.9z"/>
<path d="M93.1,13.8v-3.4V7.6c0-0.4-0.3-0.7-0.7-0.7h-8.9c-0.4,0-0.7,0.3-0.7,0.7v2.7v3.4v2.7c0,0.4,0.3,0.7,0.7,0.7h8.9
	c0.4,0,0.7-0.3,0.7-0.7V13.8z"/>
<path d="M0.7,75.8c-0.4,0-0.7,0.3-0.7,0.7v2.7v3.4v3.4v3.4v3.4v3.4v2.7c0,0.4,0.3,0.7,0.7,0.7h22.7c0.4,0,0.7-0.3,0.7-0.7v-2.7v-3.4
	v-3.4v-3.4v-3.4v-3.4v-2.7c0-0.4-0.3-0.7-0.7-0.7C23.4,75.8,0.7,75.8,0.7,75.8z M20.7,82.7v3.4v3.4v3.4v3c0,0.2-0.2,0.4-0.4,0.4H3.9
	c-0.2,0-0.4-0.2-0.4-0.4v-3v-3.4v-3.4v-3.4v-3c0-0.2,0.2-0.4,0.4-0.4h16.4c0.2,0,0.4,0.2,0.4,0.4V82.7z"/>
<path d="M17.2,89.6v-3.4v-2.7c0-0.4-0.3-0.7-0.7-0.7H7.6c-0.4,0-0.7,0.3-0.7,0.7v2.7v3.4v2.7c0,0.4,0.3,0.7,0.7,0.7h8.9
	c0.4,0,0.7-0.3,0.7-0.7V89.6z"/>
<g>
	<path class="st0" d="M49.9,64.5c-2.9,0-5.8-0.9-8.2-2.5c-2.4-1.6-4.3-3.9-5.5-6.6c-1.1-2.7-1.4-5.7-0.8-8.6c0.6-2.9,2-5.5,4.1-7.6
		s4.7-3.5,7.6-4.1c2.9-0.6,5.8-0.3,8.6,0.8c2.7,1.1,5,3,6.6,5.5c1.6,2.4,2.5,5.3,2.5,8.2h-7.4c0-1.5-0.4-2.9-1.2-4.1
		c-0.8-1.2-2-2.2-3.3-2.7c-1.4-0.6-2.8-0.7-4.3-0.4c-1.4,0.3-2.8,1-3.8,2c-1,1-1.7,2.4-2,3.8c-0.3,1.4-0.1,2.9,0.4,4.3
		c0.6,1.4,1.5,2.5,2.7,3.3c1.2,0.8,2.6,1.2,4.1,1.2V64.5z"/>
	<path class="st1" d="M57.4,49.8H50v7.4c4.1,0,7.4,3.3,7.4,7.4v0h7.4v-7.4C60.7,57.2,57.4,53.9,57.4,49.8
		C57.4,49.8,57.4,49.8,57.4,49.8z"/>
</g>
</svg>
