<?xml version="1.0" encoding="utf-8"?>
<!-- Generator: Adobe Illustrator 26.3.1, SVG Export Plug-In . SVG Version: 6.00 Build 0)  -->
<svg version="1.1" id="Layer_1" xmlns="http://www.w3.org/2000/svg" xmlns:xlink="http://www.w3.org/1999/xlink" x="0px" y="0px"
	 viewBox="0 0 135.7 50" style="enable-background:new 0 0 135.7 50;" xml:space="preserve">
<style type="text/css">
	.st0{fill:#F3FBFD;}
</style>
<path class="st0" d="M15.4,37.4c-0.9,0-1.7-0.4-2.3-1c-0.7-0.6-1.3-1.4-1.9-2.1c-0.9-1.2-1.5-2.4-2-3.8c-0.5-1.4-0.8-3-0.8-4.5
	c0-1.5,0.4-3,1.1-4.3c0.6-0.9,1.4-1.7,2.4-2.3c1-0.6,2.1-0.9,3.2-0.9c0.9,0,1.7,0.2,2.5,0.5c0.6,0.3,1.3,0.4,2,0.5
	c0.8-0.1,1.5-0.4,2.2-0.7c0.8-0.3,1.7-0.5,2.6-0.5c0.1,0,0.2,0,0.4,0c2,0.1,3.8,1,4.9,2.5c-0.9,0.5-1.7,1.1-2.2,2
	c-0.5,0.8-0.8,1.8-0.8,2.8c0,0.7,0.1,1.5,0.5,2.2c0.3,0.7,0.8,1.3,1.4,1.8c0.5,0.5,1.1,0.9,1.8,1.1c-0.1,0.4-0.3,0.8-0.5,1.1
	c-0.4,0.8-0.9,1.6-1.4,2.4c-0.5,0.8-1.1,1.4-1.8,2.1c-0.6,0.6-1.5,0.9-2.3,1c-0.7,0-1.5-0.2-2.1-0.5c-0.7-0.3-1.5-0.5-2.3-0.5
	c-0.8,0-1.6,0.2-2.4,0.5c-0.6,0.3-1.3,0.5-2.1,0.5L15.4,37.4L15.4,37.4z M19.7,18.5c-0.1,0-0.2,0-0.3,0c0-0.2,0-0.3,0-0.5
	c0-1.3,0.6-2.5,1.5-3.5c0.5-0.6,1.2-1,1.9-1.3c0.7-0.3,1.4-0.5,2.1-0.6c0,0.2,0,0.3,0,0.5c0,1.3-0.5,2.5-1.4,3.5
	c-0.4,0.6-1,1-1.6,1.3C21.1,18.3,20.4,18.4,19.7,18.5L19.7,18.5z"/>
<path class="st0" d="M43.3,17.5v-7.2h1.8c1.1,0,2,0.3,2.5,0.9c0.6,0.6,0.9,1.5,0.9,2.6c0,1.2-0.3,2-0.9,2.7c-0.6,0.6-1.4,1-2.5,1
	H43.3z M44.2,16.8h0.8c0.8,0,1.5-0.3,1.9-0.8c0.4-0.5,0.6-1.2,0.6-2.1s-0.2-1.6-0.6-2.1c-0.4-0.5-1-0.7-1.9-0.7h-0.8V16.8z
	 M52.1,17.6c-0.4,0-0.8-0.1-1.2-0.3c-0.4-0.2-0.7-0.5-0.9-1c-0.2-0.4-0.3-0.9-0.3-1.5c0-0.6,0.1-1.1,0.3-1.5c0.2-0.4,0.5-0.7,0.9-1
	c0.4-0.2,0.8-0.3,1.2-0.3c0.4,0,0.8,0.1,1.2,0.3c0.4,0.2,0.7,0.5,0.9,1c0.2,0.4,0.4,0.9,0.4,1.5c0,0.6-0.1,1.1-0.4,1.5
	c-0.2,0.4-0.5,0.7-0.9,1S52.5,17.6,52.1,17.6z M52.1,16.9c0.5,0,0.8-0.2,1.1-0.6c0.3-0.4,0.4-0.9,0.4-1.5c0-0.6-0.1-1.1-0.4-1.5
	c-0.3-0.4-0.6-0.6-1.1-0.6c-0.5,0-0.8,0.2-1.1,0.6c-0.3,0.4-0.4,0.9-0.4,1.5c0,0.6,0.1,1.1,0.4,1.5C51.3,16.7,51.6,16.9,52.1,16.9z
	 M56.8,17.5l-1.5-5.3h0.9l0.8,3.1c0.1,0.2,0.1,0.5,0.2,0.7c0.1,0.2,0.1,0.5,0.2,0.7h0c0.1-0.2,0.1-0.5,0.2-0.7
	c0.1-0.2,0.1-0.5,0.2-0.7l0.8-3.1h0.9l0.8,3.1c0.1,0.2,0.1,0.5,0.2,0.7c0.1,0.2,0.1,0.5,0.2,0.7h0c0.1-0.2,0.1-0.5,0.2-0.7
	c0.1-0.2,0.1-0.5,0.2-0.7l0.8-3.1h0.9l-1.4,5.3h-1.1l-0.8-2.9c-0.1-0.3-0.1-0.5-0.2-0.8c-0.1-0.2-0.1-0.5-0.2-0.8h0
	c-0.1,0.3-0.1,0.5-0.2,0.8c-0.1,0.2-0.1,0.5-0.2,0.8l-0.7,2.9H56.8z M63.8,17.5v-5.3h0.7l0.1,0.8h0c0.3-0.3,0.5-0.5,0.8-0.6
	c0.3-0.2,0.6-0.3,1-0.3c0.6,0,1,0.2,1.2,0.5c0.3,0.4,0.4,0.9,0.4,1.6v3.4h-0.9v-3.3c0-0.5-0.1-0.9-0.2-1.1c-0.2-0.2-0.4-0.3-0.8-0.3
	c-0.3,0-0.5,0.1-0.7,0.2c-0.2,0.1-0.5,0.3-0.7,0.6v3.9H63.8z M70.8,17.6c-0.3,0-0.6-0.1-0.7-0.3c-0.1-0.2-0.2-0.5-0.2-0.9V9.7h0.9
	v6.8c0,0.1,0,0.2,0.1,0.3c0.1,0.1,0.1,0.1,0.2,0.1c0,0,0.1,0,0.1,0c0,0,0.1,0,0.1,0l0.1,0.7c-0.1,0-0.1,0.1-0.2,0.1
	C71,17.6,70.9,17.6,70.8,17.6z M74.7,17.6c-0.4,0-0.8-0.1-1.2-0.3c-0.4-0.2-0.7-0.5-0.9-1c-0.2-0.4-0.3-0.9-0.3-1.5
	c0-0.6,0.1-1.1,0.3-1.5c0.2-0.4,0.5-0.7,0.9-1c0.4-0.2,0.8-0.3,1.2-0.3c0.4,0,0.8,0.1,1.2,0.3c0.4,0.2,0.7,0.5,0.9,1
	c0.2,0.4,0.4,0.9,0.4,1.5c0,0.6-0.1,1.1-0.4,1.5c-0.2,0.4-0.5,0.7-0.9,1S75.2,17.6,74.7,17.6z M74.7,16.9c0.5,0,0.8-0.2,1.1-0.6
	c0.3-0.4,0.4-0.9,0.4-1.5c0-0.6-0.1-1.1-0.4-1.5c-0.3-0.4-0.6-0.6-1.1-0.6c-0.5,0-0.8,0.2-1.1,0.6c-0.3,0.4-0.4,0.9-0.4,1.5
	c0,0.6,0.1,1.1,0.4,1.5C73.9,16.7,74.3,16.9,74.7,16.9z M79.7,17.6c-0.4,0-0.8-0.1-1.1-0.4c-0.3-0.3-0.4-0.6-0.4-1.1
	c0-0.6,0.3-1,0.8-1.3c0.5-0.3,1.4-0.5,2.5-0.7c0-0.2,0-0.4-0.1-0.6c-0.1-0.2-0.2-0.4-0.3-0.5c-0.2-0.1-0.4-0.2-0.7-0.2
	c-0.3,0-0.6,0.1-0.9,0.2c-0.3,0.1-0.5,0.2-0.7,0.4l-0.4-0.6c0.2-0.2,0.6-0.3,0.9-0.5c0.4-0.2,0.8-0.2,1.2-0.2c0.7,0,1.1,0.2,1.4,0.6
	c0.3,0.4,0.4,0.9,0.4,1.6v3.3h-0.7l-0.1-0.6h0c-0.2,0.2-0.5,0.4-0.8,0.5C80.3,17.6,80,17.6,79.7,17.6z M80,16.9
	c0.3,0,0.5-0.1,0.7-0.2s0.5-0.3,0.7-0.5v-1.5c-0.9,0.1-1.5,0.3-1.9,0.5C79.2,15.4,79,15.7,79,16c0,0.3,0.1,0.5,0.3,0.7
	C79.5,16.8,79.7,16.9,80,16.9z M85.8,17.6c-0.7,0-1.2-0.2-1.6-0.7c-0.4-0.5-0.6-1.2-0.6-2.1c0-0.6,0.1-1.1,0.3-1.5
	c0.2-0.4,0.5-0.8,0.9-1c0.4-0.2,0.7-0.3,1.1-0.3c0.3,0,0.6,0.1,0.8,0.2c0.2,0.1,0.5,0.3,0.7,0.5l0-0.9V9.7h0.9v7.8h-0.7l-0.1-0.6h0
	c-0.2,0.2-0.4,0.4-0.7,0.5C86.4,17.6,86.1,17.6,85.8,17.6z M86,16.9c0.5,0,0.9-0.2,1.4-0.7v-2.8c-0.2-0.2-0.4-0.3-0.7-0.4
	c-0.2-0.1-0.4-0.1-0.6-0.1c-0.3,0-0.5,0.1-0.8,0.3c-0.2,0.2-0.4,0.4-0.6,0.7c-0.1,0.3-0.2,0.7-0.2,1.1c0,0.6,0.1,1.1,0.4,1.5
	C85.2,16.7,85.6,16.9,86,16.9z M94.4,17.6c-0.4,0-0.8-0.1-1.2-0.3c-0.4-0.2-0.7-0.5-0.9-1c-0.2-0.4-0.3-0.9-0.3-1.5
	c0-0.6,0.1-1.1,0.3-1.5c0.2-0.4,0.5-0.7,0.9-1c0.4-0.2,0.8-0.3,1.2-0.3c0.4,0,0.8,0.1,1.2,0.3c0.4,0.2,0.7,0.5,0.9,1
	c0.2,0.4,0.4,0.9,0.4,1.5c0,0.6-0.1,1.1-0.4,1.5c-0.2,0.4-0.5,0.7-0.9,1S94.8,17.6,94.4,17.6z M94.4,16.9c0.5,0,0.8-0.2,1.1-0.6
	c0.3-0.4,0.4-0.9,0.4-1.5c0-0.6-0.1-1.1-0.4-1.5c-0.3-0.4-0.6-0.6-1.1-0.6c-0.5,0-0.8,0.2-1.1,0.6c-0.3,0.4-0.4,0.9-0.4,1.5
	c0,0.6,0.1,1.1,0.4,1.5C93.6,16.7,93.9,16.9,94.4,16.9z M98.3,17.5v-5.3H99l0.1,0.8h0c0.3-0.3,0.5-0.5,0.8-0.6
	c0.3-0.2,0.6-0.3,1-0.3c0.6,0,1,0.2,1.2,0.5c0.3,0.4,0.4,0.9,0.4,1.6v3.4h-0.9v-3.3c0-0.5-0.1-0.9-0.2-1.1c-0.2-0.2-0.4-0.3-0.8-0.3
	c-0.3,0-0.5,0.1-0.7,0.2c-0.2,0.1-0.5,0.3-0.7,0.6v3.9H98.3z M108.2,17.6c-0.6,0-1-0.2-1.2-0.5c-0.2-0.3-0.3-0.8-0.3-1.3v-3h-0.8
	v-0.7l0.8-0.1l0.1-1.5h0.8v1.5h1.4v0.7h-1.4v3c0,0.3,0.1,0.6,0.2,0.8c0.1,0.2,0.3,0.3,0.6,0.3c0.1,0,0.2,0,0.3,0
	c0.1,0,0.2-0.1,0.3-0.1l0.2,0.7c-0.1,0.1-0.3,0.1-0.5,0.1C108.5,17.6,108.3,17.6,108.2,17.6z M110.2,17.5V9.7h0.9v2.1l0,1.1
	c0.3-0.2,0.5-0.4,0.8-0.6c0.3-0.2,0.6-0.3,1-0.3c0.6,0,1,0.2,1.2,0.5c0.3,0.4,0.4,0.9,0.4,1.6v3.4h-0.9v-3.3c0-0.5-0.1-0.9-0.2-1.1
	c-0.2-0.2-0.4-0.3-0.8-0.3c-0.3,0-0.5,0.1-0.7,0.2c-0.2,0.1-0.5,0.3-0.7,0.6v3.9H110.2z M118.4,17.6c-0.5,0-0.9-0.1-1.3-0.3
	c-0.4-0.2-0.7-0.5-0.9-1c-0.2-0.4-0.3-0.9-0.3-1.5c0-0.6,0.1-1.1,0.3-1.5c0.2-0.4,0.5-0.7,0.9-1c0.4-0.2,0.8-0.3,1.2-0.3
	c0.7,0,1.2,0.2,1.6,0.7c0.4,0.5,0.6,1.1,0.6,1.8c0,0.1,0,0.2,0,0.3c0,0.1,0,0.2,0,0.2h-3.6c0,0.6,0.2,1,0.5,1.4
	c0.3,0.3,0.7,0.5,1.3,0.5c0.3,0,0.5,0,0.7-0.1c0.2-0.1,0.4-0.2,0.6-0.3l0.3,0.6c-0.2,0.1-0.5,0.3-0.8,0.4
	C119,17.6,118.7,17.6,118.4,17.6z M116.7,14.4h2.9c0-0.5-0.1-1-0.4-1.2c-0.2-0.3-0.5-0.4-1-0.4c-0.4,0-0.7,0.1-1,0.4
	C116.9,13.5,116.7,13.9,116.7,14.4z M46.7,30.5l-0.5,1.6h3.3l-0.5-1.6c-0.2-0.7-0.4-1.4-0.6-2.1c-0.2-0.7-0.4-1.5-0.6-2.2h-0.1
	c-0.2,0.7-0.4,1.5-0.6,2.2C47.1,29.1,46.9,29.8,46.7,30.5z M42.3,37.5l4.3-13.1h2.7l4.3,13.1h-2.4l-1-3.5h-4.4l-1,3.5H42.3z
	 M55.2,41.4V27.7h1.9l0.2,1h0.1c0.4-0.3,0.9-0.6,1.4-0.9c0.5-0.3,1-0.4,1.6-0.4c1.2,0,2.2,0.5,2.8,1.4c0.7,0.9,1,2.1,1,3.6
	c0,1.1-0.2,2.1-0.6,2.9c-0.4,0.8-0.9,1.4-1.6,1.8c-0.6,0.4-1.3,0.6-2,0.6c-0.4,0-0.9-0.1-1.3-0.3c-0.4-0.2-0.8-0.5-1.2-0.8l0.1,1.6
	v3.1H55.2z M59.4,35.8c0.7,0,1.2-0.3,1.6-0.9s0.7-1.4,0.7-2.5c0-1-0.2-1.8-0.5-2.3c-0.3-0.5-0.9-0.8-1.6-0.8c-0.7,0-1.4,0.4-2.2,1.1
	V35c0.4,0.3,0.7,0.5,1,0.6C58.8,35.8,59.1,35.8,59.4,35.8z M66.6,41.4V27.7h1.9l0.2,1h0.1c0.4-0.3,0.9-0.6,1.4-0.9
	c0.5-0.3,1-0.4,1.6-0.4c1.2,0,2.2,0.5,2.8,1.4c0.7,0.9,1,2.1,1,3.6c0,1.1-0.2,2.1-0.6,2.9c-0.4,0.8-0.9,1.4-1.6,1.8
	c-0.6,0.4-1.3,0.6-2,0.6c-0.4,0-0.9-0.1-1.3-0.3c-0.4-0.2-0.8-0.5-1.2-0.8l0.1,1.6v3.1H66.6z M70.9,35.8c0.7,0,1.2-0.3,1.6-0.9
	c0.4-0.6,0.7-1.4,0.7-2.5c0-1-0.2-1.8-0.5-2.3s-0.9-0.8-1.6-0.8c-0.7,0-1.4,0.4-2.2,1.1V35c0.4,0.3,0.7,0.5,1,0.6
	C70.3,35.8,70.6,35.8,70.9,35.8z M86.4,37.7c-0.9,0-1.7-0.2-2.6-0.5c-0.8-0.3-1.5-0.8-2.2-1.4l1.4-1.6c0.5,0.4,1,0.8,1.6,1.1
	c0.6,0.3,1.2,0.4,1.8,0.4c0.7,0,1.3-0.2,1.7-0.5c0.4-0.3,0.6-0.7,0.6-1.2c0-0.5-0.2-0.9-0.6-1.2c-0.4-0.2-0.9-0.5-1.4-0.7l-1.8-0.8
	c-0.4-0.2-0.8-0.4-1.3-0.7c-0.4-0.3-0.7-0.7-1-1.1c-0.3-0.5-0.4-1-0.4-1.6c0-0.7,0.2-1.3,0.6-1.9c0.4-0.6,0.9-1,1.6-1.3
	c0.7-0.3,1.4-0.5,2.3-0.5c0.8,0,1.5,0.2,2.2,0.5c0.7,0.3,1.3,0.7,1.8,1.2l-1.2,1.5c-0.4-0.3-0.9-0.6-1.3-0.8c-0.5-0.2-1-0.3-1.5-0.3
	c-0.6,0-1.1,0.1-1.5,0.4c-0.4,0.3-0.6,0.6-0.6,1.1c0,0.3,0.1,0.6,0.3,0.8c0.2,0.2,0.5,0.4,0.8,0.6c0.3,0.1,0.7,0.3,1,0.4l1.8,0.7
	c0.8,0.3,1.4,0.8,1.9,1.3c0.5,0.5,0.7,1.3,0.7,2.2c0,0.7-0.2,1.4-0.6,1.9c-0.4,0.6-0.9,1.1-1.6,1.4C88.2,37.6,87.3,37.7,86.4,37.7z
	 M96.4,37.7c-1.1,0-1.9-0.3-2.4-1c-0.5-0.7-0.7-1.5-0.7-2.6v-4.7h-1.4v-1.7l1.5-0.1l0.3-2.7h1.9v2.7h2.5v1.8h-2.5v4.7
	c0,1.1,0.5,1.7,1.4,1.7c0.2,0,0.4,0,0.5-0.1c0.2-0.1,0.3-0.1,0.5-0.2l0.4,1.7c-0.3,0.1-0.6,0.2-0.9,0.2
	C97.1,37.7,96.8,37.7,96.4,37.7z M104,37.7c-0.8,0-1.6-0.2-2.3-0.6c-0.7-0.4-1.3-1-1.7-1.8c-0.4-0.8-0.7-1.7-0.7-2.8
	c0-1.1,0.2-2,0.7-2.8c0.4-0.8,1-1.4,1.7-1.8c0.7-0.4,1.5-0.6,2.3-0.6c0.8,0,1.6,0.2,2.3,0.6c0.7,0.4,1.3,1,1.7,1.8
	c0.4,0.8,0.7,1.7,0.7,2.8c0,1.1-0.2,2-0.7,2.8c-0.4,0.8-1,1.3-1.7,1.8C105.6,37.5,104.9,37.7,104,37.7z M104,35.9
	c0.7,0,1.3-0.3,1.7-0.9c0.4-0.6,0.6-1.4,0.6-2.4c0-1-0.2-1.8-0.6-2.4c-0.4-0.6-1-0.9-1.7-0.9c-0.7,0-1.3,0.3-1.7,0.9
	c-0.4,0.6-0.6,1.4-0.6,2.4c0,1,0.2,1.8,0.6,2.4C102.8,35.6,103.3,35.9,104,35.9z M111.2,37.5v-9.8h1.9l0.2,1.7h0.1
	c0.3-0.6,0.8-1.1,1.3-1.5c0.5-0.3,1-0.5,1.5-0.5c0.5,0,0.8,0.1,1.1,0.2l-0.4,2c-0.2-0.1-0.3-0.1-0.5-0.1c-0.1,0-0.3,0-0.5,0
	c-0.4,0-0.8,0.2-1.2,0.5c-0.4,0.3-0.8,0.8-1.1,1.6v6H111.2z M122.9,37.7c-0.9,0-1.7-0.2-2.5-0.6c-0.7-0.4-1.3-1-1.7-1.8
	c-0.4-0.8-0.6-1.7-0.6-2.8c0-1.1,0.2-2,0.6-2.8c0.4-0.8,1-1.4,1.7-1.8c0.7-0.4,1.4-0.6,2.2-0.6c0.9,0,1.6,0.2,2.2,0.6
	c0.6,0.4,1.1,0.9,1.4,1.6c0.3,0.7,0.5,1.5,0.5,2.4c0,0.5,0,0.9-0.1,1.1h-6.2c0.1,0.9,0.4,1.5,0.9,2c0.5,0.5,1.2,0.7,2,0.7
	c0.4,0,0.8-0.1,1.2-0.2c0.4-0.1,0.7-0.3,1.1-0.5l0.8,1.4c-0.5,0.3-1,0.6-1.6,0.8C124.1,37.6,123.5,37.7,122.9,37.7z M120.2,31.7h4.4
	c0-0.8-0.2-1.4-0.5-1.8c-0.3-0.4-0.8-0.7-1.5-0.7c-0.6,0-1.1,0.2-1.5,0.6C120.6,30.3,120.4,30.9,120.2,31.7z"/>
</svg>
