<?xml version="1.0" encoding="utf-8"?>
<!-- Generator: Adobe Illustrator 26.3.1, SVG Export Plug-In . SVG Version: 6.00 Build 0)  -->
<svg version="1.1" id="Layer_1" xmlns="http://www.w3.org/2000/svg" xmlns:xlink="http://www.w3.org/1999/xlink" x="0px" y="0px"
	 viewBox="0 0 154.5 50" style="enable-background:new 0 0 154.5 50;" xml:space="preserve">
<style type="text/css">
	.st0{clip-path:url(#SVGID_00000011718493527048724650000007285976904231999120_);}
	.st1{fill-rule:evenodd;clip-rule:evenodd;fill:url(#SVGID_00000037674145753958025460000007204732884533759901_);}
	.st2{fill-rule:evenodd;clip-rule:evenodd;fill:url(#SVGID_00000029766498946794464480000011802959746915866047_);}
	.st3{fill-rule:evenodd;clip-rule:evenodd;fill:url(#SVGID_00000114790983691795254410000000043695149432412553_);}
	.st4{fill-rule:evenodd;clip-rule:evenodd;fill:url(#SVGID_00000147184460990299512580000012040881222356515713_);}
	.st5{opacity:0.2;fill-rule:evenodd;clip-rule:evenodd;enable-background:new    ;}
	.st6{opacity:0.12;fill-rule:evenodd;clip-rule:evenodd;enable-background:new    ;}
	.st7{opacity:0.25;fill-rule:evenodd;clip-rule:evenodd;fill:#FFFFFF;enable-background:new    ;}
	.st8{fill:#F3FBFD;}
</style>
<g>
	<defs>
		<rect id="SVGID_1_" x="8.3" y="12" width="24" height="26"/>
	</defs>
	<clipPath id="SVGID_00000147199559047395261680000004849313905408555933_">
		<use xlink:href="#SVGID_1_"  style="overflow:visible;"/>
	</clipPath>
	<g style="clip-path:url(#SVGID_00000147199559047395261680000004849313905408555933_);">
		
			<linearGradient id="SVGID_00000173840474750038750260000017808579426999334817_" gradientUnits="userSpaceOnUse" x1="23.2493" y1="29.8565" x2="2.6773" y2="24.2138" gradientTransform="matrix(1 0 0 -1 0 50.89)">
			<stop  offset="0" style="stop-color:#00A1FF"/>
			<stop  offset="0.26" style="stop-color:#00BEFF"/>
			<stop  offset="0.51" style="stop-color:#00D2FF"/>
			<stop  offset="0.76" style="stop-color:#00DFFF"/>
			<stop  offset="1" style="stop-color:#00E3FF"/>
		</linearGradient>
		<path style="fill-rule:evenodd;clip-rule:evenodd;fill:url(#SVGID_00000173840474750038750260000017808579426999334817_);" d="
			M8.7,12.4c-0.3,0.3-0.5,0.8-0.5,1.4v22.3c0,0.6,0.2,1.1,0.5,1.4l0.1,0.1l12.9-12.5v-0.3L8.7,12.4L8.7,12.4L8.7,12.4z"/>
		
			<linearGradient id="SVGID_00000067953489887453939620000018348481051094896573_" gradientUnits="userSpaceOnUse" x1="33.1285" y1="25.892" x2="7.9684" y2="25.892" gradientTransform="matrix(1 0 0 -1 0 50.89)">
			<stop  offset="0" style="stop-color:#FFE000"/>
			<stop  offset="0.41" style="stop-color:#FFBD00"/>
			<stop  offset="0.78" style="stop-color:#FFA500"/>
			<stop  offset="1" style="stop-color:#FF9C00"/>
		</linearGradient>
		<path style="fill-rule:evenodd;clip-rule:evenodd;fill:url(#SVGID_00000067953489887453939620000018348481051094896573_);" d="
			M26,29.3l-4.3-4.2v-0.3l4.3-4.2l0.1,0.1l5.1,2.8c1.5,0.8,1.5,2.1,0,2.9L26,29.3L26,29.3L26,29.3z"/>
		
			<linearGradient id="SVGID_00000023982505220072861850000011022184457642197909_" gradientUnits="userSpaceOnUse" x1="21.4889" y1="24.5195" x2="5.5787" y2="-2.9733" gradientTransform="matrix(1 0 0 -1 0 50.89)">
			<stop  offset="0" style="stop-color:#FF3A44"/>
			<stop  offset="1" style="stop-color:#C31162"/>
		</linearGradient>
		<path style="fill-rule:evenodd;clip-rule:evenodd;fill:url(#SVGID_00000023982505220072861850000011022184457642197909_);" d="
			M26.1,29.3L21.7,25l-13,12.6c0.5,0.5,1.3,0.6,2.2,0.1L26.1,29.3L26.1,29.3z"/>
		
			<linearGradient id="SVGID_00000073709291337253301220000002191562317594269848_" gradientUnits="userSpaceOnUse" x1="9.1015" y1="48.6712" x2="16.205" y2="36.3894" gradientTransform="matrix(1 0 0 -1 0 50.89)">
			<stop  offset="0" style="stop-color:#32A071"/>
			<stop  offset="7.000000e-02" style="stop-color:#2DA771"/>
			<stop  offset="0.48" style="stop-color:#15CF74"/>
			<stop  offset="0.8" style="stop-color:#06E775"/>
			<stop  offset="1" style="stop-color:#00F076"/>
		</linearGradient>
		<path style="fill-rule:evenodd;clip-rule:evenodd;fill:url(#SVGID_00000073709291337253301220000002191562317594269848_);" d="
			M26.1,20.7l-15.2-8.4c-0.9-0.5-1.7-0.4-2.2,0.1l13,12.6L26.1,20.7L26.1,20.7z"/>
		<path class="st5" d="M26,29.2l-15.1,8.3c-0.8,0.5-1.6,0.4-2.1,0l-0.1,0.1l0.1,0.1c0.5,0.4,1.2,0.5,2.1,0l15.2-8.4L26,29.2L26,29.2
			z"/>
		<path class="st6" d="M31.2,26.3L26,29.2l0.1,0.1l5.1-2.8c0.7-0.4,1.1-0.9,1.1-1.5C32.2,25.5,31.8,25.9,31.2,26.3L31.2,26.3z"/>
		<path class="st7" d="M10.9,12.5l20.3,11.2c0.7,0.4,1,0.8,1.1,1.3c0-0.5-0.4-1.1-1.1-1.5L10.9,12.3c-1.5-0.8-2.6-0.1-2.6,1.5V14
			C8.3,12.4,9.4,11.7,10.9,12.5z"/>
	</g>
</g>
<path class="st8" d="M43.2,17.5v-7.2H45c1.1,0,2,0.3,2.5,0.9c0.6,0.6,0.9,1.5,0.9,2.6c0,1.2-0.3,2-0.9,2.7c-0.6,0.6-1.4,1-2.5,1
	H43.2z M44.2,16.8H45c0.8,0,1.5-0.3,1.9-0.8c0.4-0.5,0.6-1.2,0.6-2.1s-0.2-1.6-0.6-2.1c-0.4-0.5-1-0.7-1.9-0.7h-0.8V16.8z M52,17.6
	c-0.4,0-0.8-0.1-1.2-0.3c-0.4-0.2-0.7-0.5-0.9-1c-0.2-0.4-0.3-0.9-0.3-1.5c0-0.6,0.1-1.1,0.3-1.5c0.2-0.4,0.5-0.7,0.9-1
	c0.4-0.2,0.8-0.3,1.2-0.3c0.4,0,0.8,0.1,1.2,0.3c0.4,0.2,0.7,0.5,0.9,1c0.2,0.4,0.4,0.9,0.4,1.5c0,0.6-0.1,1.1-0.4,1.5
	c-0.2,0.4-0.5,0.7-0.9,1S52.4,17.6,52,17.6z M52,16.9c0.5,0,0.8-0.2,1.1-0.6c0.3-0.4,0.4-0.9,0.4-1.5c0-0.6-0.1-1.1-0.4-1.5
	c-0.3-0.4-0.6-0.6-1.1-0.6c-0.5,0-0.8,0.2-1.1,0.6c-0.3,0.4-0.4,0.9-0.4,1.5c0,0.6,0.1,1.1,0.4,1.5C51.2,16.7,51.5,16.9,52,16.9z
	 M56.7,17.5l-1.5-5.3h0.9l0.8,3.1c0.1,0.2,0.1,0.5,0.2,0.7c0.1,0.2,0.1,0.5,0.2,0.7h0c0.1-0.2,0.1-0.5,0.2-0.7
	c0.1-0.2,0.1-0.5,0.2-0.7l0.8-3.1h0.9l0.8,3.1c0.1,0.2,0.1,0.5,0.2,0.7c0.1,0.2,0.1,0.5,0.2,0.7h0c0.1-0.2,0.1-0.5,0.2-0.7
	c0.1-0.2,0.1-0.5,0.2-0.7l0.8-3.1h0.9l-1.4,5.3H60l-0.8-2.9c-0.1-0.3-0.1-0.5-0.2-0.8c-0.1-0.2-0.1-0.5-0.2-0.8h0
	c-0.1,0.3-0.1,0.5-0.2,0.8c-0.1,0.2-0.1,0.5-0.2,0.8l-0.7,2.9H56.7z M63.7,17.5v-5.3h0.7l0.1,0.8h0c0.3-0.3,0.5-0.5,0.8-0.6
	c0.3-0.2,0.6-0.3,1-0.3c0.6,0,1,0.2,1.2,0.5c0.3,0.4,0.4,0.9,0.4,1.6v3.4h-0.9v-3.3c0-0.5-0.1-0.9-0.2-1.1c-0.2-0.2-0.4-0.3-0.8-0.3
	c-0.3,0-0.5,0.1-0.7,0.2c-0.2,0.1-0.5,0.3-0.7,0.6v3.9H63.7z M70.7,17.6c-0.3,0-0.6-0.1-0.7-0.3c-0.1-0.2-0.2-0.5-0.2-0.9V9.7h0.9
	v6.8c0,0.1,0,0.2,0.1,0.3c0.1,0.1,0.1,0.1,0.2,0.1c0,0,0.1,0,0.1,0c0,0,0.1,0,0.1,0l0.1,0.7c-0.1,0-0.1,0.1-0.2,0.1
	C70.9,17.6,70.8,17.6,70.7,17.6z M74.6,17.6c-0.4,0-0.8-0.1-1.2-0.3c-0.4-0.2-0.7-0.5-0.9-1c-0.2-0.4-0.3-0.9-0.3-1.5
	c0-0.6,0.1-1.1,0.3-1.5c0.2-0.4,0.5-0.7,0.9-1c0.4-0.2,0.8-0.3,1.2-0.3c0.4,0,0.8,0.1,1.2,0.3c0.4,0.2,0.7,0.5,0.9,1
	c0.2,0.4,0.4,0.9,0.4,1.5c0,0.6-0.1,1.1-0.4,1.5c-0.2,0.4-0.5,0.7-0.9,1S75.1,17.6,74.6,17.6z M74.6,16.9c0.5,0,0.8-0.2,1.1-0.6
	c0.3-0.4,0.4-0.9,0.4-1.5c0-0.6-0.1-1.1-0.4-1.5c-0.3-0.4-0.6-0.6-1.1-0.6c-0.5,0-0.8,0.2-1.1,0.6c-0.3,0.4-0.4,0.9-0.4,1.5
	c0,0.6,0.1,1.1,0.4,1.5C73.8,16.7,74.2,16.9,74.6,16.9z M79.6,17.6c-0.4,0-0.8-0.1-1.1-0.4C78.2,17,78,16.6,78,16.1
	c0-0.6,0.3-1,0.8-1.3c0.5-0.3,1.4-0.5,2.5-0.7c0-0.2,0-0.4-0.1-0.6c-0.1-0.2-0.2-0.4-0.3-0.5c-0.2-0.1-0.4-0.2-0.7-0.2
	c-0.3,0-0.6,0.1-0.9,0.2c-0.3,0.1-0.5,0.2-0.7,0.4l-0.4-0.6c0.2-0.2,0.6-0.3,0.9-0.5c0.4-0.2,0.8-0.2,1.2-0.2c0.7,0,1.1,0.2,1.4,0.6
	c0.3,0.4,0.4,0.9,0.4,1.6v3.3h-0.7l-0.1-0.6h0c-0.2,0.2-0.5,0.4-0.8,0.5C80.3,17.6,79.9,17.6,79.6,17.6z M79.9,16.9
	c0.3,0,0.5-0.1,0.7-0.2s0.5-0.3,0.7-0.5v-1.5c-0.9,0.1-1.5,0.3-1.9,0.5c-0.4,0.2-0.5,0.5-0.5,0.8c0,0.3,0.1,0.5,0.3,0.7
	C79.4,16.8,79.6,16.9,79.9,16.9z M85.7,17.6c-0.7,0-1.2-0.2-1.6-0.7c-0.4-0.5-0.6-1.2-0.6-2.1c0-0.6,0.1-1.1,0.3-1.5
	c0.2-0.4,0.5-0.8,0.9-1c0.4-0.2,0.7-0.3,1.1-0.3c0.3,0,0.6,0.1,0.8,0.2c0.2,0.1,0.5,0.3,0.7,0.5l0-0.9V9.7h0.9v7.8h-0.7l-0.1-0.6h0
	c-0.2,0.2-0.4,0.4-0.7,0.5C86.3,17.6,86.1,17.6,85.7,17.6z M85.9,16.9c0.5,0,0.9-0.2,1.4-0.7v-2.8c-0.2-0.2-0.4-0.3-0.7-0.4
	c-0.2-0.1-0.4-0.1-0.6-0.1c-0.3,0-0.5,0.1-0.8,0.3c-0.2,0.2-0.4,0.4-0.6,0.7c-0.1,0.3-0.2,0.7-0.2,1.1c0,0.6,0.1,1.1,0.4,1.5
	C85.1,16.7,85.5,16.9,85.9,16.9z M94.3,17.6c-0.4,0-0.8-0.1-1.2-0.3c-0.4-0.2-0.7-0.5-0.9-1c-0.2-0.4-0.3-0.9-0.3-1.5
	c0-0.6,0.1-1.1,0.3-1.5c0.2-0.4,0.5-0.7,0.9-1c0.4-0.2,0.8-0.3,1.2-0.3c0.4,0,0.8,0.1,1.2,0.3c0.4,0.2,0.7,0.5,0.9,1
	c0.2,0.4,0.4,0.9,0.4,1.5c0,0.6-0.1,1.1-0.4,1.5c-0.2,0.4-0.5,0.7-0.9,1S94.7,17.6,94.3,17.6z M94.3,16.9c0.5,0,0.8-0.2,1.1-0.6
	c0.3-0.4,0.4-0.9,0.4-1.5c0-0.6-0.1-1.1-0.4-1.5c-0.3-0.4-0.6-0.6-1.1-0.6c-0.5,0-0.8,0.2-1.1,0.6c-0.3,0.4-0.4,0.9-0.4,1.5
	c0,0.6,0.1,1.1,0.4,1.5C93.5,16.7,93.8,16.9,94.3,16.9z M98.2,17.5v-5.3h0.7l0.1,0.8h0c0.3-0.3,0.5-0.5,0.8-0.6
	c0.3-0.2,0.6-0.3,1-0.3c0.6,0,1,0.2,1.2,0.5c0.3,0.4,0.4,0.9,0.4,1.6v3.4h-0.9v-3.3c0-0.5-0.1-0.9-0.2-1.1c-0.2-0.2-0.4-0.3-0.8-0.3
	c-0.3,0-0.5,0.1-0.7,0.2c-0.2,0.1-0.5,0.3-0.7,0.6v3.9H98.2z M108.1,17.6c-0.6,0-1-0.2-1.2-0.5c-0.2-0.3-0.3-0.8-0.3-1.3v-3h-0.8
	v-0.7l0.8-0.1l0.1-1.5h0.8v1.5h1.4v0.7h-1.4v3c0,0.3,0.1,0.6,0.2,0.8c0.1,0.2,0.3,0.3,0.6,0.3c0.1,0,0.2,0,0.3,0
	c0.1,0,0.2-0.1,0.3-0.1l0.2,0.7c-0.1,0.1-0.3,0.1-0.5,0.1C108.4,17.6,108.2,17.6,108.1,17.6z M110.1,17.5V9.7h0.9v2.1l0,1.1
	c0.3-0.2,0.5-0.4,0.8-0.6c0.3-0.2,0.6-0.3,1-0.3c0.6,0,1,0.2,1.2,0.5c0.3,0.4,0.4,0.9,0.4,1.6v3.4h-0.9v-3.3c0-0.5-0.1-0.9-0.2-1.1
	c-0.2-0.2-0.4-0.3-0.8-0.3c-0.3,0-0.5,0.1-0.7,0.2c-0.2,0.1-0.5,0.3-0.7,0.6v3.9H110.1z M118.3,17.6c-0.5,0-0.9-0.1-1.3-0.3
	c-0.4-0.2-0.7-0.5-0.9-1c-0.2-0.4-0.3-0.9-0.3-1.5c0-0.6,0.1-1.1,0.3-1.5c0.2-0.4,0.5-0.7,0.9-1c0.4-0.2,0.8-0.3,1.2-0.3
	c0.7,0,1.2,0.2,1.6,0.7c0.4,0.5,0.6,1.1,0.6,1.8c0,0.1,0,0.2,0,0.3c0,0.1,0,0.2,0,0.2h-3.6c0,0.6,0.2,1,0.5,1.4
	c0.3,0.3,0.7,0.5,1.3,0.5c0.3,0,0.5,0,0.7-0.1c0.2-0.1,0.4-0.2,0.6-0.3l0.3,0.6c-0.2,0.1-0.5,0.3-0.8,0.4
	C119,17.6,118.6,17.6,118.3,17.6z M116.6,14.4h2.9c0-0.5-0.1-1-0.4-1.2c-0.2-0.3-0.5-0.4-1-0.4c-0.4,0-0.7,0.1-1,0.4
	C116.8,13.5,116.6,13.9,116.6,14.4z M49.4,37.7c-1.2,0-2.2-0.3-3.2-0.8s-1.7-1.3-2.2-2.3c-0.5-1-0.8-2.2-0.8-3.7
	c0-1.4,0.3-2.6,0.8-3.7c0.5-1,1.3-1.8,2.2-2.3c0.9-0.5,2-0.8,3.1-0.8c0.9,0,1.7,0.2,2.4,0.5c0.7,0.3,1.2,0.7,1.6,1.1l-1.2,1.5
	c-0.3-0.3-0.7-0.6-1.1-0.8c-0.4-0.2-0.9-0.3-1.5-0.3c-1.2,0-2.1,0.4-2.8,1.3c-0.7,0.8-1.1,2-1.1,3.5c0,1.5,0.3,2.7,1,3.5
	c0.7,0.8,1.7,1.3,3,1.3c0.4,0,0.7,0,1.1-0.1c0.3-0.1,0.6-0.3,0.8-0.4v-2.8H49v-1.9h4.6v5.8c-0.4,0.4-1,0.8-1.8,1.1
	C51.1,37.6,50.3,37.7,49.4,37.7z M60.5,37.7c-0.8,0-1.6-0.2-2.3-0.6c-0.7-0.4-1.3-1-1.7-1.8c-0.4-0.8-0.7-1.7-0.7-2.8
	c0-1.1,0.2-2,0.7-2.8c0.4-0.8,1-1.4,1.7-1.8c0.7-0.4,1.5-0.6,2.3-0.6c0.8,0,1.6,0.2,2.3,0.6c0.7,0.4,1.3,1,1.7,1.8
	c0.4,0.8,0.7,1.7,0.7,2.8c0,1.1-0.2,2-0.7,2.8c-0.4,0.8-1,1.3-1.7,1.8C62.1,37.5,61.3,37.7,60.5,37.7z M60.5,35.9
	c0.7,0,1.3-0.3,1.7-0.9c0.4-0.6,0.6-1.4,0.6-2.4c0-1-0.2-1.8-0.6-2.4c-0.4-0.6-1-0.9-1.7-0.9s-1.3,0.3-1.7,0.9
	c-0.4,0.6-0.6,1.4-0.6,2.4c0,1,0.2,1.8,0.6,2.4C59.2,35.6,59.8,35.9,60.5,35.9z M71.7,37.7c-0.8,0-1.6-0.2-2.3-0.6
	c-0.7-0.4-1.3-1-1.7-1.8c-0.4-0.8-0.7-1.7-0.7-2.8c0-1.1,0.2-2,0.7-2.8c0.4-0.8,1-1.4,1.7-1.8c0.7-0.4,1.5-0.6,2.3-0.6
	c0.8,0,1.6,0.2,2.3,0.6c0.7,0.4,1.3,1,1.7,1.8c0.4,0.8,0.7,1.7,0.7,2.8c0,1.1-0.2,2-0.7,2.8c-0.4,0.8-1,1.3-1.7,1.8
	C73.3,37.5,72.5,37.7,71.7,37.7z M71.7,35.9c0.7,0,1.3-0.3,1.7-0.9c0.4-0.6,0.6-1.4,0.6-2.4c0-1-0.2-1.8-0.6-2.4
	c-0.4-0.6-1-0.9-1.7-0.9s-1.3,0.3-1.7,0.9c-0.4,0.6-0.6,1.4-0.6,2.4c0,1,0.2,1.8,0.6,2.4C70.4,35.6,70.9,35.9,71.7,35.9z M82.2,41.8
	c-0.8,0-1.5-0.1-2.1-0.3c-0.6-0.2-1.1-0.5-1.5-0.9c-0.3-0.4-0.5-0.8-0.5-1.4c0-0.8,0.5-1.5,1.4-2.1v-0.1c-0.3-0.2-0.5-0.4-0.6-0.6
	c-0.2-0.3-0.2-0.6-0.2-1c0-0.4,0.1-0.7,0.3-1c0.2-0.3,0.5-0.6,0.8-0.8v-0.1c-0.3-0.3-0.6-0.6-0.9-1.1c-0.3-0.5-0.4-1-0.4-1.5
	c0-0.8,0.2-1.4,0.5-1.9s0.8-0.9,1.4-1.2c0.6-0.3,1.2-0.4,1.9-0.4c0.3,0,0.5,0,0.8,0.1c0.3,0,0.5,0.1,0.7,0.2h3.5v1.7h-1.8
	c0.2,0.2,0.3,0.4,0.4,0.7c0.1,0.3,0.2,0.6,0.2,0.9c0,0.7-0.2,1.3-0.5,1.8c-0.3,0.5-0.8,0.9-1.3,1.1s-1.2,0.4-1.9,0.4
	c-0.2,0-0.4,0-0.7-0.1c-0.2,0-0.5-0.1-0.7-0.2c-0.1,0.1-0.3,0.3-0.4,0.4c-0.1,0.1-0.1,0.3-0.1,0.5c0,0.3,0.1,0.5,0.3,0.7
	c0.2,0.2,0.7,0.2,1.3,0.2h1.7c1.2,0,2.1,0.2,2.7,0.6c0.6,0.4,0.9,1,0.9,1.8c0,0.6-0.2,1.2-0.6,1.7c-0.4,0.5-1,1-1.8,1.3
	C84.2,41.7,83.3,41.8,82.2,41.8z M82.4,32.9c0.5,0,0.9-0.2,1.2-0.5c0.3-0.3,0.5-0.8,0.5-1.5c0-0.6-0.2-1.1-0.5-1.4
	c-0.3-0.3-0.7-0.5-1.2-0.5c-0.5,0-0.9,0.2-1.2,0.5c-0.3,0.3-0.5,0.8-0.5,1.4c0,0.6,0.2,1.1,0.5,1.5C81.5,32.8,81.9,32.9,82.4,32.9z
	 M82.6,40.3c0.8,0,1.4-0.2,1.9-0.5c0.5-0.3,0.7-0.7,0.7-1.1c0-0.4-0.2-0.6-0.5-0.8c-0.3-0.1-0.7-0.2-1.3-0.2h-1.3
	c-0.5,0-1,0-1.3-0.1c-0.5,0.4-0.8,0.8-0.8,1.3c0,0.4,0.2,0.8,0.7,1C81.2,40.2,81.8,40.3,82.6,40.3z M91.7,37.7
	c-0.8,0-1.4-0.2-1.7-0.7c-0.3-0.5-0.5-1.2-0.5-2V23.4h2.3v11.7c0,0.3,0.1,0.5,0.2,0.6c0.1,0.1,0.2,0.2,0.3,0.2c0.1,0,0.1,0,0.1,0
	c0.1,0,0.1,0,0.2,0l0.3,1.7c-0.1,0.1-0.3,0.1-0.5,0.1C92.2,37.7,91.9,37.7,91.7,37.7z M99.2,37.7c-0.9,0-1.7-0.2-2.5-0.6
	c-0.7-0.4-1.3-1-1.7-1.8c-0.4-0.8-0.6-1.7-0.6-2.8c0-1.1,0.2-2,0.6-2.8c0.4-0.8,1-1.4,1.7-1.8c0.7-0.4,1.4-0.6,2.2-0.6
	c0.9,0,1.6,0.2,2.2,0.6c0.6,0.4,1.1,0.9,1.4,1.6c0.3,0.7,0.5,1.5,0.5,2.4c0,0.5,0,0.9-0.1,1.1h-6.2c0.1,0.9,0.4,1.5,0.9,2
	c0.5,0.5,1.2,0.7,2,0.7c0.4,0,0.8-0.1,1.2-0.2c0.4-0.1,0.7-0.3,1.1-0.5l0.8,1.4c-0.5,0.3-1,0.6-1.6,0.8
	C100.5,37.6,99.9,37.7,99.2,37.7z M96.6,31.7h4.4c0-0.8-0.2-1.4-0.5-1.8c-0.3-0.4-0.8-0.7-1.5-0.7c-0.6,0-1.1,0.2-1.5,0.6
	C97,30.3,96.7,30.9,96.6,31.7z M109.8,37.5V24.4h4.1c1,0,1.8,0.1,2.6,0.4c0.8,0.3,1.4,0.7,1.8,1.3c0.4,0.6,0.7,1.4,0.7,2.4
	c0,1-0.2,1.8-0.7,2.4c-0.4,0.6-1,1.1-1.8,1.4c-0.7,0.3-1.6,0.5-2.5,0.5h-1.9v4.8H109.8z M112.1,30.8h1.7c1.9,0,2.9-0.8,2.9-2.4
	c0-0.8-0.3-1.4-0.8-1.7c-0.5-0.3-1.2-0.5-2.2-0.5h-1.6V30.8z M123.7,37.7c-0.8,0-1.4-0.2-1.7-0.7c-0.3-0.5-0.5-1.2-0.5-2V23.4h2.3
	v11.7c0,0.3,0.1,0.5,0.2,0.6c0.1,0.1,0.2,0.2,0.3,0.2c0.1,0,0.1,0,0.1,0c0.1,0,0.1,0,0.2,0l0.3,1.7c-0.1,0.1-0.3,0.1-0.5,0.1
	C124.2,37.7,123.9,37.7,123.7,37.7z M129.4,37.7c-0.9,0-1.6-0.3-2.1-0.8c-0.5-0.5-0.8-1.2-0.8-2.1c0-1.1,0.5-1.9,1.4-2.4
	c0.9-0.6,2.4-1,4.4-1.2c0-0.5-0.2-1-0.4-1.3c-0.3-0.4-0.7-0.6-1.4-0.6c-0.5,0-1,0.1-1.4,0.3c-0.5,0.2-0.9,0.4-1.3,0.7l-0.8-1.5
	c0.5-0.3,1.2-0.6,1.8-0.9c0.7-0.3,1.4-0.4,2.2-0.4c1.2,0,2.1,0.4,2.7,1.1c0.6,0.7,0.9,1.8,0.9,3.1v5.8h-1.9l-0.2-1.1h-0.1
	c-0.4,0.4-0.9,0.7-1.4,0.9C130.6,37.6,130,37.7,129.4,37.7z M130.2,35.9c0.4,0,0.8-0.1,1.1-0.3c0.3-0.2,0.7-0.5,1.1-0.8v-2.2
	c-1.3,0.2-2.3,0.4-2.8,0.8c-0.5,0.3-0.8,0.7-0.8,1.2c0,0.4,0.1,0.8,0.4,1S129.8,35.9,130.2,35.9z M138.2,41.5c-0.3,0-0.5,0-0.7-0.1
	c-0.2,0-0.4-0.1-0.6-0.1l0.4-1.8c0.1,0,0.2,0.1,0.3,0.1c0.1,0,0.3,0.1,0.4,0.1c0.5,0,0.9-0.2,1.2-0.5c0.3-0.3,0.6-0.7,0.7-1.2
	l0.2-0.6l-3.9-9.7h2.3l1.7,4.8c0.1,0.4,0.3,0.9,0.4,1.4c0.1,0.5,0.3,0.9,0.4,1.4h0.1c0.1-0.5,0.2-0.9,0.4-1.4
	c0.1-0.5,0.3-0.9,0.4-1.4l1.5-4.8h2.2l-3.6,10.3c-0.4,1.1-0.9,2-1.5,2.6C140.1,41.2,139.3,41.5,138.2,41.5z"/>
</svg>
