<svg width="43" height="42" viewBox="0 0 43 42" fill="none" xmlns="http://www.w3.org/2000/svg">
<path d="M31.0218 32.6667V30.3333H24.0218V23.3333H31.0218V28H35.6885V32.6667H33.3551V37.3333H28.6885V42H24.0218V35H28.6885V32.6667H31.0218ZM42.6885 42H33.3551V37.3333H38.0218V32.6667H42.6885V42ZM0.688477 0H19.3551V18.6667H0.688477V0ZM24.0218 0H42.6885V18.6667H24.0218V0ZM0.688477 23.3333H19.3551V42H0.688477V23.3333ZM35.6885 23.3333H42.6885V28H35.6885V23.3333ZM7.68848 7V11.6667H12.3551V7H7.68848ZM7.68848 30.3333V35H12.3551V30.3333H7.68848ZM31.0218 7V11.6667H35.6885V7H31.0218Z" fill="white"/>
</svg>
