<svg width="48" height="49" viewBox="0 0 48 49" fill="none" xmlns="http://www.w3.org/2000/svg">
<path d="M32 44.5C26.478 44.5 22 40.022 22 34.5C22 28.978 26.478 24.5 32 24.5C37.524 24.5 42 28.978 42 34.5C42 40.022 37.524 44.5 32 44.5Z" stroke="#121220" stroke-width="2" stroke-linecap="round" stroke-linejoin="round"/>
<path d="M22.6882 38.164L14.9122 42.22C13.1442 43.142 11.0742 41.654 11.4122 39.696L13.1482 29.65L5.7922 22.536C4.3562 21.15 5.1482 18.734 7.1282 18.45L17.2922 16.984L21.8322 7.83601C22.7142 6.05401 25.2742 6.05401 26.1602 7.83601L30.7082 16.984L40.8722 18.446C42.8522 18.73 43.6402 21.146 42.2082 22.532L38.0582 26.546" stroke="#121220" stroke-width="2" stroke-linecap="round" stroke-linejoin="round"/>
<path d="M36.4446 32.278L30.8886 37.834L27.5566 34.5" stroke="#121220" stroke-width="2" stroke-linecap="round" stroke-linejoin="round"/>
</svg>
