<svg width="20" height="20" viewBox="0 0 20 20" fill="none" xmlns="http://www.w3.org/2000/svg">
<path d="M14.0833 15.1667V14.0833H10.8333V10.8333H14.0833V13H16.25V15.1667H15.1667V17.3333H13V19.5H10.8333V16.25H13V15.1667H14.0833ZM19.5 19.5H15.1667V17.3333H17.3333V15.1667H19.5V19.5ZM0 0H8.66667V8.66667H0V0ZM10.8333 0H19.5V8.66667H10.8333V0ZM0 10.8333H8.66667V19.5H0V10.8333ZM16.25 10.8333H19.5V13H16.25V10.8333ZM3.25 3.25V5.41667H5.41667V3.25H3.25ZM3.25 14.0833V16.25H5.41667V14.0833H3.25ZM14.0833 3.25V5.41667H16.25V3.25H14.0833Z" fill="#121220"/>
</svg>
