<svg width="21" height="22" viewBox="0 0 21 22" fill="none" xmlns="http://www.w3.org/2000/svg">
<path d="M0 1.34243V20.5319C0.000128559 20.5735 0.0125458 20.6142 0.0356948 20.6488C0.0588438 20.6834 0.0916939 20.7104 0.130126 20.7264C0.168558 20.7424 0.210861 20.7467 0.251731 20.7388C0.2926 20.7308 0.330217 20.711 0.359863 20.6818L10.3516 10.9376L0.359863 1.19253C0.330217 1.1633 0.2926 1.14347 0.251731 1.13554C0.210861 1.1276 0.168558 1.1319 0.130126 1.14791C0.0916939 1.16392 0.0588438 1.19092 0.0356948 1.22553C0.0125458 1.26013 0.000128559 1.3008 0 1.34243V1.34243ZM14.541 6.93374L2.0127 0.0313956L2.00488 0.027001C1.78906 -0.0901864 1.58398 0.201806 1.76074 0.371728L11.5815 9.76235L14.541 6.93374ZM1.76172 21.5036C1.58398 21.6735 1.78906 21.9655 2.00586 21.8483L2.01367 21.8439L14.541 14.9416L11.5815 12.112L1.76172 21.5036ZM19.5986 9.71694L16.1001 7.79018L12.8105 10.9376L16.1001 14.0836L19.5986 12.1583C20.5503 11.6325 20.5503 10.2428 19.5986 9.71694Z" fill="#121220"/>
</svg>
