<svg width="40" height="45" viewBox="0 0 40 45" fill="none" xmlns="http://www.w3.org/2000/svg">
<path d="M20.1688 1.92098L20.1689 1.92091C20.4898 1.468 20.9023 1.08484 21.3807 0.795474C21.859 0.506107 22.3931 0.316802 22.9494 0.239505C23.5057 0.162208 24.0722 0.198604 24.6135 0.34639C25.1548 0.494176 25.6592 0.75014 26.0952 1.09815L35.438 8.56531L35.438 8.56535C36.2337 9.20096 36.757 10.1072 36.9051 11.1038C37.0481 12.0663 36.8313 13.0462 36.2965 13.8623H33.304L34.1943 12.6061C34.4313 12.2733 34.5317 11.8641 34.4746 11.4608C34.4176 11.0575 34.2076 10.6913 33.8878 10.4354L33.8877 10.4353L29.0762 6.59341L28.9099 6.46063L28.7877 6.63481L23.716 13.8623H20.7277L26.8894 5.08711L26.9974 4.93329L26.8506 4.81594L24.542 2.97093L24.542 2.9709C24.3682 2.83207 24.1674 2.73013 23.9521 2.67127C23.7369 2.61241 23.5117 2.59786 23.2905 2.62849C23.0694 2.65911 22.8569 2.73429 22.6663 2.84946C22.4756 2.96463 22.3109 3.11738 22.1826 3.29833L22.1825 3.29838L14.6966 13.8594H11.7013L20.1688 1.92098ZM2.92272 19.2593L2.65714 19.1671V19.4482V37.9687C2.65714 39.1417 3.13052 40.2659 3.9721 41.0944C4.81356 41.9227 5.95418 42.3875 7.14286 42.3875H34.2857C35.0955 42.3875 35.8728 42.0708 36.4463 41.5062C37.02 40.9415 37.3429 40.175 37.3429 39.375V22.4998C37.3429 21.6998 37.02 20.9332 36.4463 20.3685C35.8728 19.8039 35.0955 19.4873 34.2857 19.4873H4.28571C3.8082 19.4873 3.3475 19.4067 2.92272 19.2593ZM29.1302 31.4918C29.3603 31.2652 29.6732 31.1374 30 31.1374H32.8571C33.184 31.1374 33.4968 31.2652 33.727 31.4918C33.9571 31.7183 34.0857 32.0247 34.0857 32.3436C34.0857 32.6625 33.9571 32.969 33.727 33.1955C33.4968 33.4221 33.184 33.5499 32.8571 33.5499H30C29.6732 33.5499 29.3603 33.4221 29.1302 33.1955C28.9001 32.969 28.7714 32.6625 28.7714 32.3436C28.7714 32.0247 28.9001 31.7183 29.1302 31.4918ZM4.28571 11.4497H10.0952L8.37967 13.8623H4.28571C3.8548 13.8623 3.44091 14.0307 3.13526 14.3316C2.8295 14.6326 2.65714 15.0415 2.65714 15.4685C2.65714 15.8955 2.8295 16.3044 3.13526 16.6054C3.44091 16.9063 3.8548 17.0748 4.28571 17.0748H34.2857C35.7492 17.0748 37.1521 17.6471 38.186 18.6648C39.2198 19.6825 39.8 21.062 39.8 22.4998V39.375C39.8 40.8127 39.2198 42.1923 38.186 43.2099C37.1521 44.2277 35.7492 44.8 34.2857 44.8H7.14286C5.30049 44.8 3.5342 44.0795 2.2324 42.798C0.9307 41.5167 0.2 39.7794 0.2 37.9687V15.4685C0.2 14.4037 0.629681 13.3818 1.39556 12.6279C2.16155 11.8739 3.20111 11.4497 4.28571 11.4497Z" fill="#1B242C" stroke="#303D48" stroke-width="0.4"/>
</svg>
