<?xml version="1.0" encoding="utf-8"?>
<!-- Generator: Adobe Illustrator 26.3.1, SVG Export Plug-In . SVG Version: 6.00 Build 0)  -->
<svg version="1.1" id="Layer_1" xmlns="http://www.w3.org/2000/svg" xmlns:xlink="http://www.w3.org/1999/xlink" x="0px" y="0px"
	 viewBox="0 0 937 222.9" style="enable-background:new 0 0 937 222.9;" xml:space="preserve">
<style type="text/css">
	.st0{fill:#191919;}
</style>
<path id="Path_221" class="st0" d="M28.5,142.4h56c2,0,3.7,1.6,3.7,3.6v18.1c0,2-1.6,3.6-3.6,3.7H3.7c-2,0-3.7-1.6-3.7-3.6
	c0,0,0,0,0,0V9.6c0-2,1.6-3.6,3.6-3.7h21c2,0,3.7,1.6,3.7,3.6c0,0,0,0,0,0v0.1L28.5,142.4z"/>
<path id="Path_222" class="st0" d="M290.1,98.3c-6.4-29.3,12.2-58.3,41.5-64.7c18.6-4.1,38,1.9,51.1,15.7c1.6,1.7,3.9,2.6,6.2,2.6
	h22.9c1.6,0,2.9-1.3,2.9-2.9c0,0,0,0,0,0c0-0.5-0.1-1-0.4-1.4C392.5,8.3,343.1-5.8,303.9,15.9c-18.1,10-31.6,26.5-38,46.2l2,3.7
	C274.1,77.4,281.6,88.3,290.1,98.3z M389.1,121.2c-2.3,0-4.6,0.9-6.2,2.6c-10.3,11-24.7,17.3-39.7,17.2c-4.5,0-9-0.5-13.4-1.7l0,0
	c-3.1-0.3-32.7-5.1-65.5-62.6c-28-49-56.4-65.8-77.1-69c-43.6-10.5-87.4,16.4-97.9,60s16.4,87.4,60,97.9
	c37.2,8.9,75.6-9.3,92.1-43.9c2.1-4.5,1.7-9.7-1-13.9c-5.3-8.1-13-20.6-18.3-28.4c0.3,2.4,0.5,4.8,0.5,7.2
	c0,30.1-24.3,54.5-54.4,54.5c-30.1,0-54.5-24.3-54.5-54.4c0-30.1,24.3-54.5,54.4-54.5c3.9,0,7.7,0.4,11.5,1.2
	c5.8,1.3,33.5,9.7,57.3,51.5c25.1,44,56.3,74.7,83.7,79.6c36.5,10.5,75.5-5.7,93.7-39c0.8-1.4,0.3-3.2-1-4c0,0,0,0,0,0
	c-0.4-0.3-1-0.4-1.5-0.4L389.1,121.2z"/>
<path id="Path_223" class="st0" d="M438.6,167.8c-2,0-3.7-1.6-3.7-3.6V9.6c0-2,1.6-3.7,3.6-3.7c0,0,0,0,0,0h21.1
	c2,0,3.7,1.6,3.7,3.6c0,0,0,0,0,0v63.2l60.9-64.1c1.6-1.8,3.9-2.8,6.2-2.8h28.4c1,0.1,1.8,0.8,1.9,1.8c0,1.2-0.5,2.4-1.4,3.3
	l-71.5,73.3l76.3,78c0.9,0.9,1.4,2.2,1.4,3.5c0,1.1-0.9,2.1-2.1,2.1l0,0H535c-2.4,0-4.7-1-6.2-2.8l-65.7-69v68.3
	c0,2-1.6,3.7-3.6,3.7c0,0,0,0,0,0h-0.1L438.6,167.8z"/>
<path id="Path_224" class="st0" d="M621,31.3h-41.6c-2,0-3.7-1.6-3.7-3.6V9.6c0-2,1.6-3.7,3.6-3.7c0,0,0,0,0,0h112.3
	c2,0,3.7,1.6,3.7,3.6c0,0,0,0,0,0v18.1c0,2-1.6,3.7-3.6,3.7h-42v132.8c0,2-1.6,3.7-3.6,3.7h-21.2c-2,0-3.7-1.6-3.7-3.6c0,0,0,0,0,0
	v-0.1L621,31.3z"/>
<path id="Path_225" class="st0" d="M759.2,73c-0.5,1.9-2.4,3.2-4.4,3c-2.4-0.6-4.8-0.9-7.2-0.9c-11.1,0-20.8,4.9-24.1,12.5v76.6
	c0,2-1.6,3.7-3.6,3.7c0,0,0,0,0,0h-20c-2,0-3.7-1.6-3.7-3.6V55.8c0-2,1.6-3.7,3.6-3.7h10.6c2.2,0,4.2,1.4,4.9,3.5l2.1,5.6
	c9.2-7.1,20.4-10.9,32-10.9c3.3,0,6.7,0.4,9.9,0.9c2,0.4,3.3,2.3,3,4.3c0,0,0,0.1,0,0.1L759.2,73z"/>
<path id="Path_226" class="st0" d="M788.5,0c8.6-0.1,15.7,6.8,15.8,15.4v0.3c0,8.7-7.1,15.7-15.8,15.7s-15.8-7.1-15.8-15.7
	S779.8,0,788.5,0L788.5,0z M802.1,164c0,2-1.6,3.7-3.6,3.7h-20.4c-2,0-3.7-1.6-3.7-3.6c0,0,0,0,0,0V55.8c0-2,1.6-3.7,3.6-3.7
	c0,0,0,0,0,0h20.4c2,0,3.7,1.6,3.7,3.6L802.1,164L802.1,164z"/>
<path id="Path_227" class="st0" d="M854.9,165.3v45.1c0,2-1.6,3.7-3.6,3.7h-20c-2,0-3.7-1.6-3.7-3.6V55.8c0-2,1.6-3.7,3.6-3.7h10.5
	c2.2,0,4.2,1.4,4.9,3.5l2.1,5.6c9.2-7.1,20.4-10.9,32-10.9c43,0,56.5,34.9,56.5,59.7c0,23.6-12.5,57.6-53.9,59.7h-7.5
	C868.5,169.3,861.5,167.8,854.9,165.3z M854.9,86.6v53c6.8,4.3,14.7,6.5,22.7,6.5c27.1,0,32.5-25.4,32.5-36.1
	c0-9-3.7-36.1-30.6-36.1C869.6,73.4,860.2,78.3,854.9,86.6L854.9,86.6z"/>
</svg>
