<svg xmlns:xlink="http://www.w3.org/1999/xlink" xmlns="http://www.w3.org/2000/svg" width="131.99" height="29.576354515050166" viewBox="0 0 299 67" fill="none">
<path d="M33.0388 66.0787C26.5042 66.0787 20.1164 64.1409 14.6831 60.5105C9.24983 56.8801 5.01509 51.7201 2.51443 45.6829C0.0137571 39.6458 -0.640532 33.0027 0.634299 26.5937C1.90913 20.1847 5.05582 14.2976 9.67645 9.67699C14.2971 5.05636 20.1841 1.90967 26.5931 0.63484C33.0021 -0.63999 39.6452 0.0142995 45.6824 2.51497C51.7195 5.01564 56.8796 9.25037 60.51 14.6837C64.1404 20.117 66.0781 26.5048 66.0781 33.0393L49.5585 33.0393C49.5585 29.7721 48.5896 26.5781 46.7744 23.8615C44.9592 21.1449 42.3792 19.0275 39.3606 17.7772C36.342 16.5268 33.0205 16.1997 29.816 16.8371C26.6115 17.4745 23.6679 19.0478 21.3576 21.3582C19.0473 23.6685 17.474 26.612 16.8365 29.8165C16.1991 33.021 16.5263 36.3426 17.7766 39.3611C19.0269 42.3797 21.1443 44.9597 23.861 46.7749C26.5776 48.5901 29.7715 49.559 33.0388 49.559L33.0388 66.0787Z" fill="#3418D8"/>
<path d="M49.657 33.2383L33.2363 33.2383V49.6588C42.3052 49.6589 49.6569 57.0106 49.6569 66.0795L66.0778 66.0798V49.6601C66.0779 49.6601 66.0778 49.6601 66.0778 49.6601C57.0089 49.6601 49.657 42.3083 49.657 33.2394C49.657 33.239 49.657 33.2386 49.657 33.2383Z" fill="#3418D8"/>
<path d="M97.9891 52.49C95.2703 52.49 92.7633 52.0309 90.4682 51.1129C88.2085 50.1596 86.2312 48.8355 84.5363 47.1407C82.8768 45.4105 81.588 43.3803 80.67 41.0499C79.752 38.6842 79.293 36.1066 79.293 33.3172C79.293 30.5984 79.7696 28.0915 80.723 25.7964C81.6763 23.466 83.0181 21.4534 84.7482 19.7586C86.4783 18.0284 88.5086 16.6867 90.839 15.7334C93.1694 14.78 95.694 14.3033 98.4128 14.3033C100.178 14.3033 101.908 14.5505 103.603 15.0448C105.333 15.5038 106.905 16.1924 108.317 17.1104C109.765 18.0284 111 19.123 112.024 20.3941L107.046 25.9023C106.198 25.0549 105.316 24.3311 104.398 23.7308C103.515 23.0953 102.562 22.6186 101.538 22.3008C100.549 21.9477 99.4897 21.7712 98.3598 21.7712C96.8415 21.7712 95.4115 22.0537 94.0698 22.6186C92.7633 23.1835 91.6158 23.978 90.6271 25.002C89.6385 25.9906 88.844 27.2088 88.2438 28.6564C87.6788 30.0688 87.3964 31.64 87.3964 33.3702C87.3964 35.1356 87.6788 36.7422 88.2438 38.1898C88.8087 39.6022 89.6032 40.8204 90.6271 41.8443C91.6511 42.833 92.8693 43.6098 94.2816 44.1747C95.7293 44.7043 97.3182 44.9692 99.0483 44.9692C100.178 44.9692 101.273 44.8103 102.332 44.4925C103.391 44.1747 104.362 43.7333 105.245 43.1684C106.163 42.6035 106.975 41.9502 107.681 41.2088L111.548 47.4055C110.7 48.3588 109.553 49.2239 108.105 50.0007C106.693 50.7775 105.104 51.3954 103.338 51.8544C101.573 52.2781 99.7898 52.49 97.9891 52.49Z" fill="#121220"/>
<path d="M116.127 51.9603V14.0928H123.541V29.6627L122.058 30.2983C122.447 29.0272 123.135 27.8796 124.124 26.8557C125.148 25.7964 126.366 24.949 127.778 24.3134C129.191 23.6779 130.674 23.3601 132.227 23.3601C134.346 23.3601 136.111 23.7838 137.524 24.6312C138.971 25.4786 140.048 26.7674 140.755 28.4975C141.496 30.1924 141.867 32.2932 141.867 34.8002V51.9603H134.346V35.3828C134.346 34.1117 134.169 33.0524 133.816 32.205C133.463 31.3576 132.916 30.7397 132.174 30.3513C131.468 29.9275 130.586 29.751 129.526 29.8216C128.679 29.8216 127.884 29.9629 127.143 30.2453C126.437 30.4925 125.819 30.8632 125.289 31.3576C124.795 31.8519 124.389 32.4168 124.071 33.0524C123.789 33.6879 123.647 34.3765 123.647 35.118V51.9603H119.94C119.128 51.9603 118.404 51.9603 117.768 51.9603C117.133 51.9603 116.586 51.9603 116.127 51.9603Z" fill="#121220"/>
<path d="M163.956 48.4647C162.862 49.7006 161.626 50.7069 160.249 51.4837C158.907 52.2604 157.159 52.6488 155.005 52.6488C153.77 52.6488 152.587 52.49 151.457 52.1722C150.362 51.8544 149.391 51.3601 148.544 50.6892C147.732 50.0183 147.079 49.1709 146.584 48.147C146.09 47.0877 145.843 45.8342 145.843 44.3866C145.843 42.4799 146.266 40.9263 147.114 39.7258C147.961 38.5253 149.074 37.5896 150.451 36.9187C151.828 36.2478 153.364 35.7712 155.058 35.4887C156.789 35.2062 158.536 35.0297 160.302 34.9591L163.85 34.8002V33.4231C163.85 31.7283 163.374 30.5631 162.42 29.9275C161.502 29.292 160.408 28.9742 159.137 28.9742C156.206 28.9742 154.529 30.0864 154.105 32.3109L147.326 31.6753C147.82 28.78 149.091 26.6968 151.139 25.4257C153.187 24.1192 155.941 23.466 159.401 23.466C161.52 23.466 163.321 23.7308 164.804 24.2605C166.287 24.7548 167.469 25.4786 168.352 26.432C169.27 27.3853 169.923 28.5505 170.312 29.9275C170.736 31.2693 170.947 32.7876 170.947 34.4824V51.9603H163.956V48.4647ZM163.797 39.6199L160.514 39.7787C158.96 39.8494 157.707 40.0082 156.753 40.2554C155.8 40.5026 155.058 40.8204 154.529 41.2088C154.034 41.5618 153.699 41.9855 153.522 42.4799C153.346 42.9742 153.258 43.5215 153.258 44.1217C153.258 45.0398 153.575 45.7636 154.211 46.2932C154.847 46.8229 155.729 47.0877 156.859 47.0877C158.766 47.0877 160.319 46.6463 161.52 45.7636C162.191 45.2693 162.738 44.6514 163.162 43.9099C163.585 43.1331 163.797 42.1797 163.797 41.0499V39.6199Z" fill="#121220"/>
<path d="M176.643 51.9603V23.9427H183.846L184.058 29.6627L182.575 30.2983C182.964 29.0272 183.652 27.8796 184.641 26.8557C185.665 25.7964 186.883 24.949 188.295 24.3134C189.708 23.6779 191.191 23.3601 192.744 23.3601C194.863 23.3601 196.628 23.7838 198.041 24.6312C199.488 25.4786 200.565 26.7674 201.271 28.4975C202.013 30.1924 202.384 32.2932 202.384 34.8002V51.9603H194.863V35.3828C194.863 34.1117 194.686 33.0524 194.333 32.205C193.98 31.3576 193.433 30.7397 192.691 30.3513C191.985 29.9275 191.102 29.751 190.043 29.8216C189.196 29.8216 188.401 29.9629 187.66 30.2453C186.954 30.4925 186.336 30.8632 185.806 31.3576C185.312 31.8519 184.906 32.4168 184.588 33.0524C184.305 33.6879 184.164 34.3765 184.164 35.118V51.9603H180.457C179.645 51.9603 178.921 51.9603 178.285 51.9603C177.65 51.9603 177.102 51.9603 176.643 51.9603Z" fill="#121220"/>
<path d="M221.295 64.1419C219.071 64.1419 216.882 63.8065 214.728 63.1356C212.574 62.5 210.826 61.6703 209.484 60.6463L212.133 55.2441C212.839 55.7384 213.651 56.1797 214.569 56.5681C215.487 56.9565 216.44 57.2567 217.429 57.4685C218.453 57.6804 219.495 57.7863 220.554 57.7863C222.39 57.7863 223.891 57.5038 225.056 56.9389C226.256 56.3739 227.157 55.5265 227.757 54.3966C228.357 53.3021 228.657 51.8897 228.657 50.1596V45.2869L229.928 45.5518C229.716 46.7169 229.134 47.7939 228.181 48.7825C227.227 49.7359 226.027 50.5127 224.579 51.1129C223.131 51.6779 221.648 51.9603 220.13 51.9603C217.517 51.9603 215.205 51.3601 213.192 50.1596C211.179 48.9591 209.59 47.2995 208.425 45.181C207.26 43.0625 206.677 40.6262 206.677 37.8721C206.677 35.0473 207.242 32.5581 208.372 30.4042C209.537 28.2151 211.109 26.5026 213.086 25.2668C215.099 23.9956 217.376 23.3601 219.918 23.3601C220.978 23.3601 221.984 23.4837 222.937 23.7308C223.926 23.978 224.826 24.3311 225.638 24.7901C226.486 25.2138 227.227 25.7081 227.863 26.2731C228.534 26.8027 229.081 27.3853 229.505 28.0209C229.928 28.6564 230.193 29.292 230.299 29.9275L228.763 30.3513L228.975 23.9427H236.178V49.8418C236.178 52.1369 235.843 54.1671 235.172 55.9326C234.501 57.698 233.512 59.181 232.206 60.3815C230.935 61.6173 229.363 62.553 227.492 63.1886C225.656 63.8241 223.59 64.1419 221.295 64.1419ZM221.507 45.9225C222.99 45.9225 224.279 45.5871 225.374 44.9162C226.503 44.2453 227.368 43.3096 227.969 42.1091C228.569 40.9086 228.869 39.4963 228.869 37.8721C228.869 36.2832 228.569 34.8885 227.969 33.6879C227.368 32.4521 226.503 31.4988 225.374 30.8279C224.279 30.1571 222.99 29.8216 221.507 29.8216C220.059 29.8216 218.771 30.1747 217.641 30.8809C216.546 31.5518 215.699 32.4874 215.099 33.6879C214.498 34.8885 214.198 36.2832 214.198 37.8721C214.198 39.461 214.498 40.8733 215.099 42.1091C215.699 43.3096 216.546 44.2453 217.641 44.9162C218.771 45.5871 220.059 45.9225 221.507 45.9225Z" fill="#121220"/>
<path d="M255.885 52.49C252.848 52.49 250.2 51.872 247.94 50.6362C245.681 49.4004 243.915 47.7056 242.644 45.5518C241.373 43.3979 240.737 40.9263 240.737 38.1369C240.737 35.983 241.091 34.0057 241.797 32.205C242.503 30.4042 243.492 28.8506 244.763 27.5442C246.034 26.2025 247.534 25.1785 249.265 24.4723C251.03 23.7308 252.937 23.3601 254.985 23.3601C256.891 23.3601 258.657 23.7132 260.281 24.4194C261.905 25.0902 263.3 26.0612 264.465 27.3323C265.666 28.5682 266.584 30.0335 267.219 31.7283C267.855 33.4231 268.137 35.2769 268.067 37.2895L268.014 39.6199H245.504L244.286 35.012H261.817L260.969 35.9654V34.8002C260.899 33.8468 260.581 32.9818 260.016 32.205C259.486 31.4282 258.798 30.8279 257.951 30.4042C257.103 29.9805 256.15 29.7687 255.091 29.7687C253.537 29.7687 252.213 30.0688 251.118 30.669C250.059 31.2693 249.247 32.152 248.682 33.3172C248.117 34.4824 247.835 35.8948 247.835 37.5543C247.835 39.2491 248.188 40.7144 248.894 41.9502C249.635 43.1861 250.659 44.157 251.966 44.8632C253.307 45.5341 254.879 45.8695 256.679 45.8695C257.915 45.8695 259.045 45.6753 260.069 45.2869C261.093 44.8985 262.188 44.2277 263.353 43.2743L266.954 48.3059C265.93 49.2239 264.8 50.0007 263.565 50.6362C262.329 51.2365 261.058 51.6955 259.751 52.0133C258.445 52.3311 257.156 52.49 255.885 52.49Z" fill="#121220"/>
<path d="M289.365 51.9603L282.427 42.0562L280.309 39.0902L268.974 23.9427H278.084L284.863 33.5291L298.369 51.9603H289.365ZM268.868 51.9603L280.044 36.6539L284.175 41.5795L277.713 51.9603H268.868ZM286.876 39.355L282.851 34.4294L288.836 23.9427H297.681L286.876 39.355Z" fill="#121220"/>
</svg>