<svg width="200" height="234" viewBox="0 0 200 234" fill="none" xmlns="http://www.w3.org/2000/svg">
<g clip-path="url(#clip0_513_4172)">
<path d="M44.5801 58.1796L40.7001 23.2996C52.3301 17.4896 54.2601 16.5196 60.7301 12.6396H152.59C152.59 34.2096 170.07 51.6896 191.64 51.6896V52.0496C191.64 52.0496 196 118.51 173.66 157.18C151.33 195.86 100.02 214.91 86.2401 228.69C72.4601 214.91 61.9901 195.85 39.6601 157.18C17.3201 118.51 44.5801 58.1796 44.5801 58.1796Z" fill="#1B242C" stroke="#1B242C" stroke-width="2" stroke-miterlimit="10"/>
<path d="M1.33999 62.7098V62.3498C22.91 62.3498 40.39 44.8698 40.39 23.2998H132.25C132.25 44.8698 149.73 62.3498 171.3 62.3498V62.7098C171.3 62.7098 175.66 129.17 153.32 167.84C130.99 206.52 100.1 215.07 86.32 228.85C72.54 215.07 41.65 206.52 19.32 167.84C-3.02001 129.17 1.33999 62.7098 1.33999 62.7098Z" fill="white" stroke="#1B242C" stroke-width="2" stroke-miterlimit="10"/>
<path d="M22.71 79.49V79.22C38.73 79.22 56.56 66.23 56.56 50.21H115.11C115.11 66.23 132.94 79.22 148.96 79.22V79.49C148.96 79.49 152.2 128.86 135.61 157.59C119.02 186.32 96.08 192.67 85.84 202.91C75.6 192.67 52.66 186.32 36.07 157.59C19.48 128.86 22.72 79.49 22.72 79.49H22.71Z" fill="white" stroke="#1B242C" stroke-width="2" stroke-miterlimit="10"/>
<path d="M54.6199 115.07C55.0699 108.31 58.2299 102.84 64.7899 99.8596C71.7199 96.7096 78.1999 98.0896 83.7199 103.14C85.6199 104.88 86.5499 104.79 88.3199 103.06C94.8599 96.6396 105.62 96.7696 112.04 103.14C118.67 109.71 119.08 120.44 112.63 127.1C104.43 135.58 95.9699 143.81 87.6799 152.2C86.3099 153.59 85.3599 153.48 84.0399 152.14C75.8699 143.89 67.6199 135.71 59.4399 127.46C56.1599 124.15 54.7899 120.02 54.6099 115.06L54.6199 115.07Z" fill="#3418D8"/>
<path d="M170.99 0.169922C170.77 1.44992 168.88 13.7199 177.99 23.1699C186.38 31.8699 197.44 31.2799 198.99 31.1699" stroke="#1B242C" stroke-width="2" stroke-miterlimit="10"/>
<path d="M174.15 161.75H122.81C110.201 161.75 99.98 171.971 99.98 184.58V209.69C99.98 222.299 110.201 232.52 122.81 232.52H174.15C186.759 232.52 196.98 222.299 196.98 209.69V184.58C196.98 171.971 186.759 161.75 174.15 161.75Z" fill="#1B242C" stroke="#1B242C" stroke-width="1.5" stroke-miterlimit="10"/>
<path d="M170.41 161.75H119.07C106.461 161.75 96.24 171.971 96.24 184.58V209.69C96.24 222.299 106.461 232.52 119.07 232.52H170.41C183.019 232.52 193.24 222.299 193.24 209.69V184.58C193.24 171.971 183.019 161.75 170.41 161.75Z" fill="white" stroke="#1B242C" stroke-width="1.5" stroke-miterlimit="10"/>
<path d="M188.44 185.9H170.15C165.428 185.9 161.6 189.728 161.6 194.45V198.17C161.6 202.892 165.428 206.72 170.15 206.72H188.44C193.162 206.72 196.99 202.892 196.99 198.17V194.45C196.99 189.728 193.162 185.9 188.44 185.9Z" fill="white" stroke="#1B242C" stroke-width="1.5" stroke-miterlimit="10"/>
</g>
<defs>
<clipPath id="clip0_513_4172">
<rect width="199.06" height="233.28" fill="white"/>
</clipPath>
</defs>
</svg>
