<svg width="204" height="230" viewBox="0 0 204 230" fill="none" xmlns="http://www.w3.org/2000/svg">
<g clip-path="url(#clip0_513_4217)">
<path d="M197.79 215.971L97.0899 157.811C93.2699 155.601 90.9099 151.521 90.9099 147.101V24.7906C90.9099 22.3406 93.5599 20.8106 95.6799 22.0406L197.02 80.5706C200.38 82.5106 202.45 86.1006 202.45 89.9806V213.281C202.45 215.671 199.86 217.171 197.79 215.971Z" fill="#1B242C" stroke="#1B242C" stroke-width="1.5" stroke-miterlimit="10"/>
<path d="M177.21 226.22L76.82 167.54C73.01 165.31 70.67 161.22 70.7 156.8L71.34 34.4904C71.35 32.0404 74.01 30.5304 76.12 31.7604L177.15 90.8104C180.5 92.7704 182.55 96.3704 182.53 100.25L181.89 223.55C181.88 225.94 179.28 227.43 177.21 226.22Z" fill="white" stroke="#1B242C" stroke-width="1.5" stroke-miterlimit="10"/>
<path d="M140.04 46.6003C140.04 46.6003 142.69 39.3504 142.74 31.3504C142.78 24.3504 132.68 18.2204 132.68 18.2204C132.68 18.2204 165.19 9.33035 176.8 20.5304C198.69 41.6404 187.36 74.2604 187.36 74.2604L140.05 46.6104L140.04 46.6003Z" fill="#1B242C"/>
<path d="M187.13 37.8903C186.41 36.0203 180.1 20.9803 162.29 19.9503C153.78 19.4603 145.26 25.8603 142.41 31.2503L169.25 49.1103L106.4 50.5303L82.02 1.82031L103.2 13.4803C106.97 12.3903 122.85 4.84031 136.37 5.81031C151.36 6.89031 162.19 10.1703 172.31 17.0003C181.28 23.0503 186.55 36.1003 187.13 37.8903Z" fill="white" stroke="#1B242C" stroke-width="1.5" stroke-miterlimit="10"/>
<path d="M77.8798 57.71C88.8098 66.53 83.7298 90.96 66.5298 112.28C49.3298 133.6 26.5298 143.74 15.5998 134.92L6.83984 127.85L69.1198 50.65C69.1198 50.65 66.9498 48.9 77.8798 57.72V57.71Z" fill="#1B242C" stroke="#1B242C" stroke-width="1.5" stroke-miterlimit="10"/>
<path d="M57.439 104.945C74.6373 83.6236 79.7208 59.1937 68.7935 50.3796C57.8661 41.5655 35.0658 51.7048 17.8675 73.0265C0.669252 94.3482 -4.41434 118.778 6.51302 127.592C17.4404 136.406 40.2407 126.267 57.439 104.945Z" fill="white" stroke="#1B242C" stroke-width="1.5" stroke-miterlimit="10"/>
<path d="M46.3399 93.4802L31.2199 112.23L22.8999 105.51C29.9899 96.6302 32.4299 86.8002 28.3299 83.5002C28.2999 83.4702 28.2599 83.4502 28.2299 83.4202L43.0999 64.9902L51.4699 71.7402C44.5699 80.5402 42.2399 90.1702 46.2899 93.4302C46.3099 93.4502 46.3299 93.4602 46.3499 93.4702L46.3399 93.4802Z" fill="#11D582"/>
<path d="M104.08 183.2C104.08 183.2 99.09 189.1 92.17 193.1C86.11 196.6 75.78 190.87 75.78 190.87C75.78 190.87 84.17 223.51 99.64 228.05C128.83 236.6 151.54 210.6 151.54 210.6L104.08 183.21V183.2Z" fill="#1B242C"/>
<path d="M119.85 228.42C117.87 228.72 101.68 230.69 91.9599 215.74C87.3199 208.6 88.6599 198.02 91.9199 192.88L120.73 207.34L77.8299 146.04L36.4399 154.99L57.0599 167.61C57.9799 171.42 59.2899 188.95 66.8399 200.22C75.2099 212.71 83.4199 220.49 94.3699 225.9C104.07 230.69 118.02 228.8 119.86 228.42H119.85Z" fill="white" stroke="#1B242C" stroke-width="1.5" stroke-miterlimit="10"/>
<path d="M90.9099 148.79L151.25 183.2" stroke="#1B242C" stroke-width="2" stroke-miterlimit="10"/>
<path d="M90.9099 130.79L151.25 165.2" stroke="#1B242C" stroke-width="2" stroke-miterlimit="10"/>
<path d="M92.8101 112.42L101.99 101.61L110.48 113.28L123.65 101.61L130.99 138.71L155.19 105.1" stroke="#1B242C" stroke-width="2" stroke-miterlimit="10"/>
<path d="M30.99 169.61L42.29 175.26C38.97 188.44 46.98 197.75 52.38 200.62" stroke="#1B242C" stroke-width="1.5" stroke-miterlimit="10"/>
</g>
<defs>
<clipPath id="clip0_513_4217">
<rect width="203.2" height="229.86" fill="white"/>
</clipPath>
</defs>
</svg>
