<svg width="776" height="124" viewBox="0 0 776 124" fill="none" xmlns="http://www.w3.org/2000/svg">
<g clip-path="url(#clip0)">
<path d="M112.976 47.5783C113.048 47.3157 112.955 47.1506 112.991 47.0193C112.898 46.8542 112.934 46.7229 112.841 46.5578L112.841 46.5001C112.841 46.5001 112.749 46.3927 112.62 46.3589L75.3186 8.40182C75.1901 8.36802 75.0974 8.20291 75.0974 8.20291L74.9689 8.16911L74.8403 8.1353C74.7118 8.10149 74.7118 8.10149 74.5833 8.06769L74.4548 8.03388L74.3263 8.00007C74.1977 7.96627 74.0334 8.06376 74.0334 8.06376L22.3965 22.6267C22.3965 22.6267 22.3965 22.6267 22.2679 22.5929C22.2679 22.5929 22.2679 22.5929 22.1036 22.6904C21.9392 22.7879 21.7749 22.8854 21.739 23.0167C21.5747 23.1142 21.5388 23.2455 21.503 23.3768L21.4671 23.5081L21.4313 23.6394L7.09579 76.1594C7.05995 76.2907 7.02411 76.422 6.98827 76.5533L6.95243 76.6846L6.91659 76.8159C6.91659 76.8159 6.88075 76.9472 7.00928 76.981C7.00928 76.981 7.00928 76.981 7.10196 77.1461C7.10196 77.1461 7.06612 77.2774 7.19465 77.3112C7.28733 77.4764 7.28733 77.4764 7.38002 77.6415L44.6814 115.598C44.6814 115.598 44.6814 115.598 44.8099 115.632L44.9385 115.666C45.067 115.7 45.1597 115.865 45.2882 115.899C45.4167 115.933 45.5452 115.966 45.7096 115.869L45.8381 115.903L45.9666 115.937L97.6035 101.374C97.7321 101.407 97.7679 101.276 97.9323 101.179C97.9323 101.179 97.9323 101.179 98.0966 101.081C98.0966 101.081 98.0966 101.081 98.261 100.984L98.4254 100.886L98.4612 100.755L98.497 100.623C98.5329 100.492 98.5687 100.361 98.6045 100.23L112.976 47.5783ZM112.976 47.5783C112.94 47.7096 112.94 47.7096 112.976 47.5783ZM109.084 46.6954L86.8522 52.95L76.8201 14.0037L109.084 46.6954ZM73.6367 12.0405L84.0099 52.7653L43.9105 42.2177L73.6367 12.0405ZM69.8798 12.1781L41.3549 40.9826L25.287 24.6536L69.8798 12.1781ZM23.3567 26.6789L39.4245 43.0079L11.0281 71.8462L23.3567 26.6789ZM40.6505 45.582L51.0237 86.3068L10.9243 75.7592L40.6505 45.582ZM45.0423 111.753L12.778 79.0613L51.2065 89.1695L45.0423 111.753ZM53.5669 85.5685L43.1937 44.8437L83.1646 55.3575L53.5669 85.5685ZM47.6127 112.429L53.777 89.8456L92.2056 99.9537L47.6127 112.429ZM55.3935 87.4562L85.1196 57.279L95.4928 98.0038L55.3935 87.4562ZM97.3959 94.5641L87.4923 55.6515L109.724 49.3969L97.3959 94.5641Z" stroke="black" stroke-width="10" stroke-linejoin="round"/>
</g>
<path d="M154.66 68.216L165.452 65.86C166.111 70.0147 167.175 73.0293 168.644 74.904C170.164 76.728 172.621 77.64 176.016 77.64C178.904 77.64 181.209 77.1333 182.932 76.12C184.655 75.056 185.516 73.5107 185.516 71.484C185.516 69.356 184.68 67.7347 183.008 66.62C181.387 65.4547 177.637 63.96 171.76 62.136C166.237 60.4133 162.311 58.336 159.98 55.904C157.7 53.4213 156.56 50.3813 156.56 46.784C156.56 42.6293 158.156 39.0827 161.348 36.144C164.591 33.1547 168.973 31.66 174.496 31.66C179.512 31.66 183.819 32.876 187.416 35.308C191.064 37.74 193.344 41.3627 194.256 46.176L184.3 48.684C182.729 43.668 179.461 41.16 174.496 41.16C171.861 41.16 169.885 41.6667 168.568 42.68C167.301 43.6933 166.668 45.036 166.668 46.708C166.668 48.2787 167.403 49.4947 168.872 50.356C170.341 51.1667 174.116 52.6107 180.196 54.688C186.073 56.7147 190.101 58.9187 192.28 61.3C194.459 63.6307 195.548 66.7973 195.548 70.8C195.548 75.512 193.775 79.4133 190.228 82.504C186.681 85.5947 181.944 87.14 176.016 87.14C169.987 87.14 165.097 85.5693 161.348 82.428C157.649 79.236 155.42 74.4987 154.66 68.216ZM206.314 71.636V54.08H200.082V45.72H206.542V35.84H215.89V45.72H226.074V54.08H216.042V70.724C216.042 72.852 216.397 74.3467 217.106 75.208C217.815 76.0693 219.259 76.5 221.438 76.5H224.706V86H220.526C215.105 86 211.381 84.86 209.354 82.58C207.327 80.3 206.314 76.652 206.314 71.636ZM257.382 86V82.124H257.23C257.129 82.276 257.002 82.4787 256.85 82.732C256.698 82.9347 256.318 83.3147 255.71 83.872C255.102 84.4293 254.418 84.936 253.658 85.392C252.898 85.848 251.86 86.2533 250.542 86.608C249.225 86.9627 247.806 87.14 246.286 87.14C241.422 87.14 237.774 86 235.342 83.72C232.961 81.3893 231.77 78.552 231.77 75.208C231.77 71.712 232.809 69.052 234.886 67.228C236.964 65.404 240.485 63.884 245.45 62.668C250.061 61.5533 252.949 60.6667 254.114 60.008C255.28 59.3493 255.862 58.412 255.862 57.196C255.862 55.98 255.28 54.9667 254.114 54.156C253 53.3453 251.302 52.94 249.022 52.94C246.337 52.94 244.412 53.548 243.246 54.764C242.081 55.9293 241.169 57.5253 240.51 59.552L232.302 56.132C233.265 52.7373 235.14 49.976 237.926 47.848C240.713 45.6693 244.361 44.58 248.87 44.58C253.785 44.58 257.813 45.872 260.954 48.456C264.096 51.04 265.666 55.0427 265.666 60.464V86H257.382ZM247.426 69.508C244.893 70.116 243.221 70.8507 242.41 71.712C241.65 72.5227 241.27 73.46 241.27 74.524C241.27 77.26 243.246 78.628 247.198 78.628C250.188 78.628 252.417 78.0707 253.886 76.956C255.406 75.7907 256.166 74.372 256.166 72.7V65.708H256.014C255.812 66.1133 255.584 66.4427 255.33 66.696C255.128 66.8987 254.368 67.2787 253.05 67.836C251.733 68.3427 249.858 68.9 247.426 69.508ZM277.067 86V30.52H286.947V62.364H287.099L301.767 45.72H314.155L299.639 62.06L315.448 86H304.503L292.191 67.608H292.039L286.947 73.384V86H277.067ZM322.302 86V45.72H332.182V86H322.302ZM322.302 39.868V30.52H332.182V39.868H322.302ZM344.307 86V45.72H353.807V49.596H353.959C355.073 48.1773 356.593 46.9867 358.519 46.024C360.444 45.0613 362.471 44.58 364.599 44.58C369.057 44.58 372.553 45.9227 375.087 48.608C377.62 51.2427 378.887 54.916 378.887 59.628V86H369.007V62.06C369.007 59.2733 368.475 57.196 367.411 55.828C366.347 54.4093 364.523 53.7 361.939 53.7C359.507 53.7 357.607 54.4093 356.239 55.828C354.871 57.196 354.187 59.0453 354.187 61.376V86H344.307ZM416.419 69.964V61.68C416.419 59.4 415.634 57.4747 414.063 55.904C412.492 54.2827 410.39 53.472 407.755 53.472C404.816 53.472 402.435 54.536 400.611 56.664C398.787 58.792 397.875 61.8573 397.875 65.86C397.875 69.8627 398.787 72.928 400.611 75.056C402.486 77.184 404.867 78.248 407.755 78.248C410.39 78.248 412.492 77.4627 414.063 75.892C415.634 74.2707 416.419 72.2947 416.419 69.964ZM390.883 94.208L398.255 89.116C399.42 91.396 400.738 93.0427 402.207 94.056C403.676 95.12 405.576 95.652 407.907 95.652C410.491 95.652 412.543 94.968 414.063 93.6C415.634 92.2827 416.419 90.1547 416.419 87.216V82.124H416.267C415.507 83.492 414.19 84.6827 412.315 85.696C410.44 86.6587 408.414 87.14 406.235 87.14C401.067 87.14 396.735 85.2653 393.239 81.516C389.743 77.716 387.995 72.4973 387.995 65.86C387.995 59.324 389.794 54.156 393.391 50.356C396.988 46.5053 401.219 44.58 406.083 44.58C410.694 44.58 414.24 46.252 416.723 49.596H416.875V45.72H426.299V86C426.299 91.8773 424.576 96.3867 421.131 99.528C417.736 102.669 413.328 104.24 407.907 104.24C403.702 104.24 400.13 103.328 397.191 101.504C394.303 99.68 392.2 97.248 390.883 94.208ZM459.322 86V32.8H480.906C486.378 32.8 490.786 34.3453 494.13 37.436C497.525 40.476 499.222 44.58 499.222 49.748C499.222 53.5987 498.209 56.8667 496.182 59.552C494.206 62.2373 491.47 64.1373 487.974 65.252L499.298 86H488.202L477.486 66.24H469.582V86H459.322ZM469.582 57.348H480.07C485.897 57.348 488.81 54.8147 488.81 49.748C488.81 44.6307 485.897 42.072 480.07 42.072H469.582V57.348ZM534.542 72.092L541.458 78.172C537.354 84.1507 531.806 87.14 524.814 87.14C519.19 87.14 514.605 85.2147 511.058 81.364C507.512 77.4627 505.738 72.2947 505.738 65.86C505.738 59.4253 507.486 54.2827 510.982 50.432C514.529 46.5307 518.988 44.58 524.358 44.58C529.729 44.58 534.137 46.5307 537.582 50.432C541.078 54.2827 542.826 59.4253 542.826 65.86V68.824H515.77C515.922 71.9147 516.758 74.296 518.278 75.968C519.849 77.5893 521.977 78.4 524.662 78.4C526.942 78.4 528.817 77.8427 530.286 76.728C531.806 75.5627 533.225 74.0173 534.542 72.092ZM515.77 61.452H533.25C532.997 58.868 532.11 56.8667 530.59 55.448C529.07 53.9787 526.993 53.244 524.358 53.244C521.926 53.244 519.925 54.0293 518.354 55.6C516.834 57.1707 515.973 59.1213 515.77 61.452ZM558.149 86L549.257 45.72H558.909L564.229 72.624H564.457L573.425 45.72H582.393L590.677 72.548H590.829L596.909 45.72H606.409L596.757 86H587.029L577.833 57.044H577.681L567.725 86H558.149ZM637.703 86V82.124H637.551C637.45 82.276 637.323 82.4787 637.171 82.732C637.019 82.9347 636.639 83.3147 636.031 83.872C635.423 84.4293 634.739 84.936 633.979 85.392C633.219 85.848 632.18 86.2533 630.863 86.608C629.546 86.9627 628.127 87.14 626.607 87.14C621.743 87.14 618.095 86 615.663 83.72C613.282 81.3893 612.091 78.552 612.091 75.208C612.091 71.712 613.13 69.052 615.207 67.228C617.284 65.404 620.806 63.884 625.771 62.668C630.382 61.5533 633.27 60.6667 634.435 60.008C635.6 59.3493 636.183 58.412 636.183 57.196C636.183 55.98 635.6 54.9667 634.435 54.156C633.32 53.3453 631.623 52.94 629.343 52.94C626.658 52.94 624.732 53.548 623.567 54.764C622.402 55.9293 621.49 57.5253 620.831 59.552L612.623 56.132C613.586 52.7373 615.46 49.976 618.247 47.848C621.034 45.6693 624.682 44.58 629.191 44.58C634.106 44.58 638.134 45.872 641.275 48.456C644.416 51.04 645.987 55.0427 645.987 60.464V86H637.703ZM627.747 69.508C625.214 70.116 623.542 70.8507 622.731 71.712C621.971 72.5227 621.591 73.46 621.591 74.524C621.591 77.26 623.567 78.628 627.519 78.628C630.508 78.628 632.738 78.0707 634.207 76.956C635.727 75.7907 636.487 74.372 636.487 72.7V65.708H636.335C636.132 66.1133 635.904 66.4427 635.651 66.696C635.448 66.8987 634.688 67.2787 633.371 67.836C632.054 68.3427 630.179 68.9 627.747 69.508ZM657.388 86V45.72H666.736V49.976H666.888C667.648 48.456 668.763 47.24 670.232 46.328C671.752 45.416 673.399 44.96 675.172 44.96C676.439 44.96 677.655 45.2133 678.82 45.72L677.3 55.296C676.185 54.8907 675.147 54.688 674.184 54.688C669.573 54.688 667.268 57.7533 667.268 63.884V86H657.388ZM711.818 69.508V62.136C711.818 59.704 711.033 57.652 709.462 55.98C707.942 54.308 705.84 53.472 703.154 53.472C700.266 53.472 698.012 54.5107 696.39 56.588C694.82 58.6653 694.034 61.756 694.034 65.86C694.034 69.9133 694.82 73.004 696.39 75.132C698.012 77.2093 700.266 78.248 703.154 78.248C705.84 78.248 707.942 77.412 709.462 75.74C711.033 74.0173 711.818 71.94 711.818 69.508ZM712.426 86V82.124H712.274C712.021 82.4787 711.641 82.9347 711.134 83.492C710.678 84.0493 709.513 84.8093 707.638 85.772C705.814 86.684 703.813 87.14 701.634 87.14C696.314 87.14 692.058 85.2147 688.866 81.364C685.725 77.5133 684.154 72.3453 684.154 65.86C684.154 59.324 685.877 54.156 689.322 50.356C692.768 46.5053 696.821 44.58 701.482 44.58C703.61 44.58 705.51 45.0107 707.182 45.872C708.905 46.6827 710.07 47.4933 710.678 48.304L711.666 49.596H711.818V30.52H721.698V86H712.426ZM730.79 72.7L739.682 70.42C740.392 76.044 743.406 78.856 748.726 78.856C751.158 78.856 753.084 78.476 754.502 77.716C755.972 76.9053 756.706 75.7907 756.706 74.372C756.706 73.2067 756.149 72.3453 755.034 71.788C753.92 71.18 751.589 70.3693 748.042 69.356C747.08 69.1027 746.345 68.9 745.838 68.748C741.177 67.4307 737.757 65.8853 735.578 64.112C733.4 62.288 732.31 59.8813 732.31 56.892C732.31 53.548 733.653 50.66 736.338 48.228C739.074 45.796 742.798 44.58 747.51 44.58C756.529 44.58 762.179 48.532 764.458 56.436L756.25 58.944C755.541 57.0187 754.528 55.4987 753.21 54.384C751.944 53.2693 750.069 52.712 747.586 52.712C745.661 52.712 744.116 53.092 742.95 53.852C741.836 54.5613 741.278 55.4227 741.278 56.436C741.278 57.5507 741.937 58.4373 743.254 59.096C744.622 59.704 747.992 60.768 753.362 62.288C758.074 63.5547 761.266 65.176 762.938 67.152C764.661 69.0773 765.522 71.56 765.522 74.6C765.522 77.8427 764.104 80.756 761.266 83.34C758.48 85.8733 754.426 87.14 749.107 87.14C743.533 87.14 739.226 85.7467 736.186 82.96C733.197 80.1227 731.398 76.7027 730.79 72.7Z" fill="black"/>
<defs>
<clipPath id="clip0">
<rect width="120" height="124" fill="white"/>
</clipPath>
</defs>
</svg>
