<svg width="207" height="195" viewBox="0 0 207 195" fill="none" xmlns="http://www.w3.org/2000/svg">
<g clip-path="url(#clip0_513_4239)">
<path d="M22.87 67.6495C23.67 55.5395 19.88 42.2895 27.1 33.8195C31.67 28.4595 45.19 26.5495 52.62 23.1595C72.88 13.9495 91.86 17.9695 108 32.7695C113.57 37.8695 102.85 37.4495 109.09 33.8195C140.09 15.8195 172.04 14.1295 190.85 32.7695C210.26 52.0095 211.44 83.3795 192.59 102.849C168.59 127.649 143.85 144.729 119.59 169.279C115.57 173.349 106.09 181.819 94.09 186.819C70.19 162.669 60.91 128.059 36.99 103.929C27.41 94.2595 23.38 82.1695 22.86 67.6595L22.87 67.6495Z" fill="#1B242C" stroke="#1B242C" stroke-width="1.5" stroke-miterlimit="10"/>
<path d="M1.87 75.6495C3.18 55.8795 12.44 39.8795 31.62 31.1595C51.88 21.9495 70.86 25.9695 87 40.7695C92.57 45.8695 95.29 45.5995 100.45 40.5495C119.6 21.7795 151.05 22.1395 169.86 40.7795C189.27 60.0195 190.45 91.3895 171.6 110.859C147.6 135.659 122.86 159.739 98.6 184.289C94.58 188.359 91.82 188.029 87.96 184.129C64.06 159.979 39.92 136.069 16 111.929C6.42 102.249 2.39 90.1595 1.87 75.6495Z" fill="white" stroke="#1B242C" stroke-width="1.5" stroke-miterlimit="10"/>
<path d="M114 116.452C114 120.581 112.488 124.131 109.464 127.102C106.44 130.023 102.08 131.835 96.3849 132.54V141H88.8247V132.767C85.0951 132.566 81.5418 131.911 78.1649 130.803C74.7881 129.695 72.0664 128.336 70 126.724L74.1581 117.51C76.0733 118.92 78.3162 120.103 80.8866 121.06C83.457 122.016 86.1031 122.621 88.8247 122.872V110.259C85.2463 109.402 82.2222 108.446 79.7526 107.388C77.2829 106.331 75.2165 104.795 73.5533 102.781C71.89 100.716 71.0584 97.9972 71.0584 94.6234C71.0584 90.444 72.5704 86.8688 75.5945 83.8979C78.669 80.8766 83.079 79.0387 88.8247 78.384V70H96.3849V78.233C102.584 78.7365 107.7 80.2723 111.732 82.8404L107.952 92.1309C104.172 89.9656 100.316 88.6564 96.3849 88.2032V101.044C99.9129 101.849 102.887 102.781 105.306 103.838C107.775 104.845 109.842 106.381 111.505 108.446C113.168 110.46 114 113.129 114 116.452ZM83.2302 94.0191C83.2302 95.278 83.7091 96.3103 84.6667 97.116C85.6243 97.9216 87.0103 98.6014 88.8247 99.1553V88.4298C86.9095 88.883 85.4983 89.6131 84.5911 90.6202C83.6838 91.577 83.2302 92.7099 83.2302 94.0191ZM96.3849 122.57C98.1993 122.167 99.5601 121.513 100.467 120.606C101.375 119.7 101.828 118.617 101.828 117.359C101.828 116.1 101.349 115.067 100.392 114.262C99.4845 113.456 98.1489 112.751 96.3849 112.147V122.57Z" fill="#3418D8"/>
<path d="M8.90998 125.88C12.66 125.63 15.94 127.74 17.43 130.88V130.1C17.4 125.3 21.08 121.1 25.87 120.93C30.83 120.76 34.92 124.71 34.95 129.64V127.5C34.91 122.7 38.59 118.5 43.39 118.33C48.35 118.16 52.44 122.11 52.47 127.04L52.3 94.3901C52.28 89.5901 55.95 85.3901 60.75 85.2201C65.71 85.0501 69.8 89.0001 69.83 93.9301L70.09 135.51C74.34 130.25 79.56 125.81 85.46 122.5C86.68 121.82 88.05 121.45 89.44 121.44C93.14 121.42 96.5 123.89 97.48 127.65C98.44 131.35 96.52 135.15 93.2 137.05C79.7 144.8 73.84 161.18 68.44 174.9C65.84 181.5 58.71 193.24 40.79 193.33L30.24 193.38C6.25998 193.5 0.969983 167.44 0.949983 162.24V160.21L0.809983 142.48L0.769983 134.99C0.749983 130.31 4.25998 126.18 8.92998 125.86L8.90998 125.88Z" fill="white" stroke="#1B242C" stroke-width="1.5" stroke-miterlimit="10"/>
<path d="M2.23999 21.9998C8.22999 5.31981 26.62 -3.34019 43.3 2.64981" stroke="#1B242C" stroke-width="1.5" stroke-miterlimit="10"/>
</g>
<defs>
<clipPath id="clip0_513_4239">
<rect width="206.85" height="194.15" fill="white"/>
</clipPath>
</defs>
</svg>
