<svg width="254" height="257" viewBox="0 0 254 257" fill="none" xmlns="http://www.w3.org/2000/svg">
<g clip-path="url(#clip0_513_4091)">
<path d="M1.75001 177.05L118.24 117C119.88 116.05 121.91 116.05 123.56 117L239.75 178.05C239.75 186.05 240.65 189.72 237.1 191.77L132.22 252.32C125.22 256.36 116.59 256.36 109.58 252.32L4.70001 191.76C1.16001 189.71 1.75001 183.04 1.75001 177.04V177.05Z" fill="#1B242C" stroke="#1B242C" stroke-width="1.5" stroke-miterlimit="10"/>
<path d="M4.70005 172.56L118.24 107C119.88 106.05 121.91 106.05 123.56 107L237.1 172.55C240.64 174.6 240.64 179.71 237.1 181.76L132.22 242.31C125.22 246.35 116.59 246.35 109.58 242.31L4.70005 181.76C0.750049 179.04 0.750049 175.04 4.70005 172.55V172.56Z" fill="white" stroke="#1B242C" stroke-width="1.5" stroke-miterlimit="10"/>
<path d="M130.57 149.05V230.32C130.57 232.38 126.39 234.05 121.25 234.05C116.11 234.05 111.93 232.38 111.93 230.32V149.05H130.57Z" fill="white" stroke="#1B242C" stroke-width="1.5" stroke-miterlimit="10"/>
<path d="M32.5699 102.05V176.63C32.5699 178.52 28.3899 180.05 23.2499 180.05C18.1099 180.05 13.9299 178.52 13.9299 176.63V102.05H32.5699Z" fill="white" stroke="#1B242C" stroke-width="1.5" stroke-miterlimit="10"/>
<path d="M232.57 102.05V176.63C232.57 178.52 228.39 180.05 223.25 180.05C218.11 180.05 213.93 178.52 213.93 176.63V102.05H232.57Z" fill="white" stroke="#1B242C" stroke-width="1.5" stroke-miterlimit="10"/>
<path d="M32.5701 176.63L111.93 223.32V171.49L32.5701 125.67V176.63Z" fill="white" stroke="#1B242C" stroke-width="1.5" stroke-miterlimit="10"/>
<path d="M213.75 174.05L130.74 224.19V171.36L213.75 123.05V174.05Z" fill="white" stroke="#1B242C" stroke-width="1.5" stroke-miterlimit="10"/>
<path d="M60.5699 118.05V192.63C60.5699 194.52 56.3899 196.05 51.2499 196.05C46.1099 196.05 41.9299 194.52 41.9299 192.63V118.05H60.5699Z" fill="white" stroke="#1B242C" stroke-width="1.5" stroke-miterlimit="10"/>
<path d="M93.5699 137.05V211.63C93.5699 213.52 89.3899 215.05 84.2499 215.05C79.1099 215.05 74.9299 213.52 74.9299 211.63V137.05H93.5699Z" fill="white" stroke="#1B242C" stroke-width="1.5" stroke-miterlimit="10"/>
<path d="M201.57 118.05V192.63C201.57 194.52 197.39 196.05 192.25 196.05C187.11 196.05 182.93 194.52 182.93 192.63V118.05H201.57Z" fill="white" stroke="#1B242C" stroke-width="1.5" stroke-miterlimit="10"/>
<path d="M167.57 138.05V212.63C167.57 214.52 163.39 216.05 158.25 216.05C153.11 216.05 148.93 214.52 148.93 212.63V138.05H167.57Z" fill="white" stroke="#1B242C" stroke-width="1.5" stroke-miterlimit="10"/>
<path d="M0.75 105.05L118.24 41.9996C119.88 41.0496 121.91 41.0496 123.56 41.9996L240.75 105.05C240.75 113.05 240.65 114.72 237.1 116.77L132.22 177.32C125.22 181.36 116.59 181.36 109.58 177.32L4.7 116.76C1.16 114.71 0.75 111.04 0.75 105.04V105.05Z" fill="#1B242C" stroke="#1B242C" stroke-width="1.5" stroke-miterlimit="10"/>
<path d="M3.92006 109.21L111.78 171.48C117.37 174.71 124.27 174.71 128.86 172.48L236.71 110.21C241.77 106.87 241.77 101.01 237.71 98.67L120.75 31L3.91006 98.67C-0.139941 101.02 -0.139941 106.87 3.91006 109.21H3.92006Z" fill="white" stroke="#1B242C" stroke-width="1.5" stroke-miterlimit="10"/>
<path d="M120.75 174.05V31" stroke="#1B242C" stroke-width="1.5" stroke-miterlimit="10"/>
<path d="M232.98 231.79C220.04 238.81 198.43 224.04 184.73 198.78C171.03 173.53 170.41 147.36 183.36 140.34L193.73 134.71L243.35 226.16C243.35 226.16 245.92 224.77 232.98 231.79Z" fill="white" stroke="#1B242C" stroke-width="1.5" stroke-miterlimit="10"/>
<path d="M243.73 225.968C256.677 218.944 256.067 192.779 242.367 167.526C228.667 142.273 207.065 127.495 194.118 134.519C181.171 141.542 181.782 167.708 195.482 192.961C209.182 218.214 230.783 232.992 243.73 225.968Z" fill="white" stroke="#1B242C" stroke-width="1.5" stroke-miterlimit="10"/>
<path d="M211.07 186.82L199.02 164.62L208.88 159.27C214.62 169.72 223.15 176.04 228 173.41C228.04 173.39 228.08 173.37 228.11 173.34L239.95 195.17L230.04 200.55C224.3 190.32 215.92 184.18 211.13 186.78C211.11 186.79 211.08 186.81 211.06 186.82H211.07Z" fill="#11D582"/>
<path d="M90.1299 5.81972C104.27 10.8997 107.7 37.3797 97.7899 64.9697C87.8799 92.5597 68.3799 110.8 54.2399 105.72L42.9099 101.65L78.7999 1.74972C78.7999 1.74972 75.9899 0.739723 90.1299 5.81972Z" fill="#1B242C" stroke="#1B242C" stroke-width="1.5" stroke-miterlimit="10"/>
<path d="M86.046 60.7463C95.955 33.1623 92.5229 6.68256 78.3801 1.60199C64.2373 -3.47858 44.7395 14.764 34.8304 42.3479C24.9213 69.9318 28.3534 96.4116 42.4962 101.492C56.639 106.573 76.1369 88.3302 86.046 60.7463Z" fill="white" stroke="#1B242C" stroke-width="1.5" stroke-miterlimit="10"/>
<path d="M70.8 53.0399L62.09 77.2899L51.32 73.4199C55.38 61.9499 54.39 51.1699 49.09 49.2599C49.05 49.2399 49 49.2299 48.96 49.2199L57.53 25.3799L68.35 29.2699C64.46 40.5799 65.49 51.1399 70.72 53.0199C70.74 53.0199 70.77 53.0399 70.8 53.0399Z" fill="#3418D8"/>
<path d="M165.9 33.7494C148.17 33.7494 133.8 19.3794 133.8 1.64941" stroke="#1B242C" stroke-width="1.5" stroke-miterlimit="10"/>
</g>
<defs>
<clipPath id="clip0_513_4091">
<rect width="253.81" height="256.1" fill="white"/>
</clipPath>
</defs>
</svg>
