<svg width="186" height="151" viewBox="0 0 186 151" fill="none" xmlns="http://www.w3.org/2000/svg">
<path d="M23.5699 105.333L90.0586 71.0773C90.9946 70.5354 92.1533 70.5354 93.0951 71.0773L159.413 105.904C159.413 110.467 159.926 112.561 157.9 113.73L98.0379 148.272C94.0425 150.576 89.1168 150.576 85.1157 148.272L25.2536 113.725C23.2331 112.555 23.5699 108.75 23.5699 105.328V105.333Z" fill="#141414" stroke="#141414" stroke-width="1.5" stroke-miterlimit="10"/>
<path d="M25.2554 102.772L90.0603 65.3728C90.9964 64.8308 92.155 64.8308 93.0968 65.3728L157.902 102.766C159.922 103.936 159.922 106.851 157.902 108.02L98.0396 142.561C94.0443 144.866 89.1185 144.866 85.1175 142.561L25.2554 108.02C23.0008 106.469 23.0008 104.187 25.2554 102.766V102.772Z" fill="#E0FB92" stroke="#141414" stroke-width="1.5" stroke-miterlimit="10"/>
<path d="M97.0961 89.3613V135.722C97.0961 136.898 94.7103 137.85 91.7766 137.85C88.8428 137.85 86.457 136.898 86.457 135.722V89.3613H97.0961Z" fill="#F3FBFD" stroke="#141414" stroke-width="1.5" stroke-miterlimit="10"/>
<path d="M41.1606 62.5498V105.095C41.1606 106.173 38.7748 107.045 35.841 107.045C32.9073 107.045 30.5215 106.173 30.5215 105.095V62.5498H41.1606Z" fill="#F3FBFD" stroke="#141414" stroke-width="1.5" stroke-miterlimit="10"/>
<path d="M155.315 62.5498V105.095C155.315 106.173 152.929 107.045 149.995 107.045C147.062 107.045 144.676 106.173 144.676 105.095V62.5498H155.315Z" fill="#F3FBFD" stroke="#141414" stroke-width="1.5" stroke-miterlimit="10"/>
<path d="M41.1621 105.093L86.4582 131.728V102.161L41.1621 76.0229V105.093Z" fill="#E0FB92" stroke="#141414" stroke-width="1.5" stroke-miterlimit="10"/>
<path d="M144.573 103.623L97.1934 132.225V102.088L144.573 74.5293V103.623Z" fill="#E0FB92" stroke="#141414" stroke-width="1.5" stroke-miterlimit="10"/>
<path d="M57.143 71.6768V114.221C57.143 115.3 54.7572 116.172 51.8235 116.172C48.8897 116.172 46.5039 115.3 46.5039 114.221V71.6768H57.143Z" fill="#F3FBFD" stroke="#141414" stroke-width="1.5" stroke-miterlimit="10"/>
<path d="M75.9789 82.5156V125.06C75.9789 126.139 73.5931 127.011 70.6594 127.011C67.7257 127.011 65.3398 126.139 65.3398 125.06V82.5156H75.9789Z" fill="#F3FBFD" stroke="#141414" stroke-width="1.5" stroke-miterlimit="10"/>
<path d="M137.622 71.6768V114.221C137.622 115.3 135.236 116.172 132.302 116.172C129.368 116.172 126.982 115.3 126.982 114.221V71.6768H137.622Z" fill="#E0FB92" stroke="#141414" stroke-width="1.5" stroke-miterlimit="10"/>
<path d="M118.215 83.0859V125.631C118.215 126.709 115.829 127.582 112.896 127.582C109.962 127.582 107.576 126.709 107.576 125.631V83.0859H118.215Z" fill="#F3FBFD" stroke="#141414" stroke-width="1.5" stroke-miterlimit="10"/>
<path d="M23 64.26L90.0595 28.2927C90.9955 27.7507 92.1542 27.7507 93.096 28.2927L159.984 64.26C159.984 68.8237 159.927 69.7764 157.901 70.9458L98.0388 105.487C94.0434 107.792 89.1177 107.792 85.1166 105.487L25.2545 70.9401C23.234 69.7707 23 67.6771 23 64.2543V64.26Z" fill="#141414" stroke="#141414" stroke-width="1.5" stroke-miterlimit="10"/>
<path d="M24.8097 66.6336L86.3727 102.156C89.5633 103.999 93.5016 103.999 96.1214 102.726L157.679 67.204C160.567 65.2987 160.567 61.9558 158.249 60.6209L124.871 41.3195L91.4925 22.0181L24.804 60.6209C22.4924 61.9615 22.4924 65.2987 24.804 66.6336H24.8097Z" fill="#E0FB92" stroke="#141414" stroke-width="1.5" stroke-miterlimit="10"/>
<path d="M91.4922 103.622V22.0181" stroke="#141414" stroke-width="1.5" stroke-miterlimit="10"/>
<path d="M155.549 136.559C148.163 140.564 135.829 132.138 128.009 117.728C120.19 103.324 119.836 88.3955 127.227 84.3909L133.146 81.1792L161.468 133.348C161.468 133.348 162.935 132.555 155.549 136.559Z" fill="#11D58E" stroke="#141414" stroke-width="1.5" stroke-miterlimit="10"/>
<path d="M161.685 133.239C169.075 129.232 168.727 114.306 160.907 99.9C153.088 85.4941 140.758 77.0641 133.368 81.0708C125.979 85.0776 126.327 100.004 134.147 114.41C141.966 128.816 154.296 137.246 161.685 133.239Z" fill="white" stroke="#141414" stroke-width="1.5" stroke-miterlimit="10"/>
<path d="M143.044 110.906L136.166 98.2419L141.794 95.1899C145.07 101.151 149.939 104.757 152.707 103.256C152.73 103.245 152.753 103.233 152.77 103.216L159.528 115.669L153.871 118.738C150.595 112.903 145.812 109.4 143.078 110.883C143.067 110.889 143.049 110.9 143.038 110.906H143.044Z" fill="#11D58E"/>
<path d="M74.0141 7.65356C82.0848 10.5515 84.0425 25.6572 78.3862 41.3961C72.7299 57.135 61.6 67.5402 53.5293 64.6423L47.0625 62.3205L67.5473 5.33179C67.5473 5.33179 65.9435 4.75563 74.0141 7.65356Z" fill="#141414" stroke="#141414" stroke-width="1.5" stroke-miterlimit="10"/>
<path d="M71.6838 38.9868C77.3396 23.2514 75.3807 8.14581 67.3084 5.24756C59.2362 2.34931 48.1074 12.7559 42.4516 28.4914C36.7958 44.2268 38.7548 59.3324 46.827 62.2307C54.8993 65.1289 66.028 54.7223 71.6838 38.9868Z" fill="white" stroke="#141414" stroke-width="1.5" stroke-miterlimit="10"/>
<path d="M62.9831 34.5904L58.0118 48.424L51.8646 46.2163C54.1819 39.6732 53.6168 33.5236 50.5918 32.4341C50.5689 32.4226 50.5404 32.4169 50.5176 32.4112L55.4091 18.8115L61.5848 21.0306C59.3645 27.4825 59.9524 33.5065 62.9375 34.579C62.9489 34.579 62.966 34.5904 62.9831 34.5904Z" fill="#8366F4"/>
<path d="M117.263 23.5871C107.143 23.5871 98.9414 15.3896 98.9414 5.27539" stroke="#141414" stroke-width="1.5" stroke-miterlimit="10"/>
</svg>
