<svg width="186" height="150" viewBox="0 0 186 150" fill="none" xmlns="http://www.w3.org/2000/svg">
<path d="M147.309 30.9107C146.699 30.559 145.95 30.5535 145.336 30.896L125.396 42.0099C124.785 42.3503 124.397 42.9848 124.371 43.6835L123.449 68.8003C123.421 69.5409 123.806 70.2358 124.448 70.6061L145.327 82.6502C145.945 83.007 146.707 83.0069 147.326 82.65L168.241 70.5815C168.86 70.2243 169.241 69.5639 169.241 68.8492V44.7213C169.241 44.0066 168.86 43.3462 168.241 42.989L147.309 30.9107Z" fill="#EBE8FC" stroke="#3418D8" stroke-width="1.5" stroke-miterlimit="10"/>
<path d="M169.45 43.8828L152.746 52.9854" stroke="#3418D8" stroke-width="1.5" stroke-miterlimit="10"/>
<path d="M40.964 31.566C40.3663 31.2738 39.6625 31.2979 39.0862 31.6304L18.0866 43.744C17.4674 44.1011 17.0859 44.7616 17.0859 45.4764V69.6107C17.0859 70.3257 17.4676 70.9863 18.087 71.3434L39.0372 83.4219C39.6403 83.7696 40.3808 83.7787 40.9922 83.446L44.221 81.6888C44.2245 81.6869 44.2265 81.6858 44.23 81.6839C44.339 81.6237 46.8255 80.2519 48.4446 79.3902C52.9257 77.0053 59.5788 72.8718 62.0034 71.3502C62.5832 70.9863 62.93 70.3515 62.93 69.6669V43.5534C62.93 42.7894 62.4948 42.0921 61.8084 41.7566L40.964 31.566Z" fill="#F3FBFD" stroke="#11D58E" stroke-width="1.5" stroke-miterlimit="10"/>
<path d="M96.2231 25.483C94.368 24.4132 92.0833 24.4132 90.2282 25.483L51.6939 47.7058C49.8361 48.7772 48.6914 50.7587 48.6914 52.9034V97.3448C48.6914 99.4892 49.8358 101.471 51.6933 102.542L90.2276 124.771C92.083 125.841 94.3683 125.841 96.2238 124.771L134.758 102.542C136.615 101.471 137.76 99.4892 137.76 97.3448V52.9034C137.76 50.7587 136.615 48.7772 134.757 47.7058L96.2231 25.483Z" fill="#E0FB92" stroke="black" stroke-width="1.5" stroke-miterlimit="10"/>
<path d="M41.0073 87.8226C40.3888 87.4658 39.6271 87.4658 39.0086 87.8226L18.0866 99.8914C17.4674 100.249 17.0859 100.909 17.0859 101.624V125.751C17.0859 126.466 17.4674 127.127 18.0866 127.484L39.0086 139.553C39.6271 139.909 40.3888 139.909 41.0073 139.553L61.9294 127.484C62.5485 127.127 62.93 126.466 62.93 125.751V101.624C62.93 100.909 62.5485 100.249 61.9294 99.8914L41.0073 87.8226Z" fill="#EBE8FC" stroke="#8366F4" stroke-width="1.5" stroke-miterlimit="10"/>
<path d="M48.709 50.7061L92.7538 74.232" stroke="black" stroke-width="1.5" stroke-miterlimit="10"/>
<path d="M40.3535 140.237V113.684" stroke="#8366F4" stroke-width="1.5" stroke-miterlimit="10"/>
<path d="M17.5684 44.6377L35.0352 54.5025" stroke="#11D58E" stroke-width="1.5" stroke-miterlimit="10"/>
<path d="M105.37 54.8477C101.297 60.9449 88.3424 59.4565 76.4316 51.5187C64.5208 43.5809 58.1731 32.2062 62.2394 26.109C63.1318 24.7716 65.4995 21.2197 65.4995 21.2197L108.623 49.9584C108.623 49.9584 109.429 48.7505 105.363 54.8477H105.37Z" fill="black" stroke="black" stroke-width="1.5" stroke-miterlimit="10"/>
<path d="M108.764 49.7883C112.836 43.6905 106.482 32.312 94.5726 24.3737C82.663 16.4355 69.7071 14.9435 65.635 21.0414C61.5628 27.1392 67.9164 38.5177 79.8261 46.456C91.7357 54.3943 104.692 55.8862 108.764 49.7883Z" fill="white" stroke="black" stroke-width="1.5" stroke-miterlimit="10"/>
<path d="M85.2605 40.1439L74.7891 33.1624L77.8909 28.5176C82.8496 31.7891 88.0745 32.5872 89.6074 30.3007C89.6218 30.2791 89.629 30.2648 89.6434 30.2432L99.9349 37.1025L96.8187 41.7689C91.9104 38.5981 86.7934 37.8431 85.2821 40.1008C85.2821 40.108 85.2677 40.1224 85.2605 40.1367V40.1439Z" fill="black"/>
<path d="M126.082 64.8061C119.713 68.207 119.936 81.0269 126.579 93.437C133.221 105.847 143.772 113.152 150.141 109.751C151.538 109.003 155.244 107.026 155.244 107.026L131.185 62.081C131.185 62.081 132.451 61.4052 126.082 64.8061Z" fill="#3418D8" stroke="#3418D8" stroke-width="1.5" stroke-miterlimit="10"/>
<path d="M155.432 106.923C161.801 103.52 161.576 90.6984 154.931 78.2853C148.285 65.8721 137.735 58.5679 131.367 61.9708C124.999 65.3737 125.223 78.1952 131.869 90.6083C138.514 103.021 149.064 110.326 155.432 106.923Z" fill="white" stroke="#3418D8" stroke-width="1.5" stroke-miterlimit="10"/>
<path d="M149.371 82.9034C148.637 82.2778 147.867 81.9399 147.053 81.904C147.349 81.2784 147.464 80.545 147.413 79.7038C147.356 78.8697 147.118 77.9926 146.708 77.0794C146.024 75.5767 145.11 74.5629 143.966 74.0236C143.095 73.621 142.16 73.5491 141.145 73.8151L139.842 70.9463L137.827 71.8594L139.094 74.6492L137.23 75.4904L135.963 72.7007L133.948 73.6138L135.215 76.4036L132.883 77.4605L134.38 80.7535L136.028 80.0058L141.555 92.1786L139.907 92.9263L141.404 96.2194L143.736 95.1625L145.348 98.7144L147.363 97.8012L145.751 94.2493L147.615 93.4081L149.227 96.96L151.242 96.0468L149.616 92.4662C150.753 91.8191 151.487 90.9706 151.811 89.9065C152.192 88.6698 152.005 87.2246 151.264 85.5781C150.738 84.4133 150.105 83.5217 149.371 82.8962V82.9034ZM138.655 78.7907L141.296 77.5899C141.951 77.2951 142.534 77.252 143.038 77.4605C143.541 77.6762 143.966 78.1507 144.297 78.8769C144.628 79.6031 144.707 80.2431 144.542 80.7679C144.369 81.3 143.959 81.7098 143.304 82.0046L140.663 83.2054L138.655 78.7835V78.7907ZM148.637 88.3247C148.45 88.864 148.011 89.2882 147.313 89.6045L144.211 91.0138L142.102 86.3762L145.204 84.9669C146.614 84.327 147.672 84.7872 148.378 86.3402C148.738 87.124 148.817 87.7854 148.637 88.3247Z" fill="#3418D8"/>
<path d="M147.147 86.5717C146.528 86.2149 145.766 86.2149 145.148 86.5718L124.233 98.6404C123.614 98.9976 123.232 99.658 123.232 100.373V124.501C123.232 125.215 123.614 125.876 124.233 126.233L145.148 138.301C145.766 138.658 146.528 138.658 147.147 138.302L168.069 126.233C168.688 125.876 169.069 125.215 169.069 124.5V100.373C169.069 99.6581 168.688 98.9976 168.069 98.6404L147.147 86.5717Z" fill="#F3FBFD" stroke="#11D58E" stroke-width="1.5" stroke-miterlimit="10"/>
<path d="M145.91 138.72V113.684" stroke="#11D58E" stroke-width="1.5" stroke-miterlimit="10"/>
</svg>
