<svg width="195" height="144" viewBox="0 0 195 144" fill="none" xmlns="http://www.w3.org/2000/svg">
<path d="M31.543 62.2139C33.5697 50.7247 44.5259 43.0587 56.0085 45.0788" stroke="#E0FB92" stroke-width="1.5" stroke-miterlimit="10"/>
<path d="M164.458 15H93.8646C85.5677 15 78.8418 21.7259 78.8418 30.0228V89.2652C78.8418 97.5621 85.5677 104.288 93.8646 104.288H164.458C172.755 104.288 179.481 97.5621 179.481 89.2652V30.0228C179.481 21.7259 172.755 15 164.458 15Z" fill="#141414" stroke="#141414" stroke-width="1.5" stroke-miterlimit="10"/>
<path d="M160.569 15H89.9759C81.6791 15 74.9531 21.7259 74.9531 30.0228V89.2652C74.9531 97.5621 81.6791 104.288 89.9759 104.288H160.569C168.866 104.288 175.592 97.5621 175.592 89.2652V30.0228C175.592 21.7259 168.866 15 160.569 15Z" fill="#E0FB92" stroke="#141414" stroke-width="1.5" stroke-miterlimit="10"/>
<path d="M166.347 45.4668H155.904C148.65 45.4668 142.77 51.3457 142.77 58.5978C142.77 65.8498 148.65 71.7287 155.904 71.7287H166.347C173.601 71.7287 179.481 65.8498 179.481 58.5978C179.481 51.3457 173.601 45.4668 166.347 45.4668Z" fill="#E0FB92" stroke="#141414" stroke-width="1.5" stroke-miterlimit="10"/>
<path d="M125.805 104.433C125.752 114.179 110.301 121.996 91.2976 121.897C72.2937 121.799 56.9221 113.817 56.9747 104.078C56.9879 101.946 57.0142 96.2671 57.0142 96.2671L125.844 96.6224C125.844 96.6224 125.857 94.6878 125.805 104.433Z" fill="#F3FBFD" stroke="#141414" stroke-width="1.5" stroke-miterlimit="10"/>
<path d="M125.849 96.3365C125.9 86.5934 110.534 78.6143 91.5269 78.5148C72.5204 78.4153 57.0711 86.233 57.0201 95.9762C56.9691 105.719 72.3356 113.698 91.3422 113.798C110.349 113.897 125.798 106.08 125.849 96.3365Z" fill="#F3FBFD" stroke="#141414" stroke-width="1.5" stroke-miterlimit="10"/>
<path d="M85.2513 100.314L81.1781 102.723C79.3751 102.097 77.9801 101.281 76.9996 100.275C76.0192 99.2679 75.4993 98.1164 75.4335 96.8201C75.3743 95.5764 75.7691 94.4051 76.618 93.2996C77.4668 92.1941 78.7039 91.2268 80.3227 90.4108C81.9414 89.5883 83.83 88.9632 85.9949 88.5289L85.8764 86.1073L89.5351 85.9297L89.6338 88.0288C89.897 88.0025 90.2852 87.9761 90.8117 87.9498C91.3381 87.9235 91.7263 87.9103 91.9895 87.9169L91.8908 85.8178L95.5495 85.6401L95.6679 88.0617C97.8592 88.2854 99.8004 88.7263 101.491 89.3909C103.183 90.0555 104.505 90.8912 105.453 91.9112C106.4 92.9311 106.907 94.0629 106.966 95.3C107.026 96.5963 106.618 97.7939 105.742 98.8863C104.861 99.9786 103.571 100.926 101.86 101.722L97.5762 99.722C99.9056 98.5638 101.037 97.2478 100.965 95.7606C100.919 94.8196 100.445 93.9971 99.5371 93.2996C98.6291 92.6021 97.3985 92.0888 95.839 91.7598L96.1022 97.1754L92.4436 97.3531L92.1541 91.4045C91.8908 91.4045 91.5026 91.4176 90.9762 91.4374C90.4498 91.4571 90.0615 91.49 89.7983 91.5163L90.0878 97.4649L86.4292 97.6426L86.166 92.227C84.6459 92.7008 83.4681 93.3259 82.6324 94.1156C81.7967 94.8986 81.4019 95.7606 81.4479 96.7016C81.5203 98.2019 82.7837 99.4061 85.2447 100.314H85.2513Z" fill="#141414"/>
<path d="M125.803 96.1945C125.75 105.94 110.299 113.757 91.2956 113.659C72.2917 113.56 56.9201 105.578 56.9728 95.8391C56.986 93.7071 57.0123 88.0283 57.0123 88.0283L125.842 88.3837C125.842 88.3837 125.855 86.449 125.803 96.1945Z" fill="#F3FBFD" stroke="#141414" stroke-width="1.5" stroke-miterlimit="10"/>
<path d="M125.847 88.0997C125.898 78.3566 110.532 70.3775 91.525 70.278C72.5184 70.1785 57.0692 77.9962 57.0182 87.7393C56.9671 97.4825 72.3337 105.462 91.3402 105.561C110.347 105.661 125.796 97.8429 125.847 88.0997Z" fill="#F3FBFD" stroke="#141414" stroke-width="1.5" stroke-miterlimit="10"/>
<path d="M85.2494 92.0744L81.1762 94.4828C79.3732 93.8577 77.9781 93.0417 76.9977 92.035C76.0172 91.0282 75.4974 89.8766 75.4316 88.5803C75.3724 87.3366 75.7672 86.1653 76.616 85.0599C77.4649 83.9544 78.702 82.9871 80.3207 82.1711C81.9395 81.3486 83.828 80.7234 85.9929 80.2891L85.8745 77.8676L89.5331 77.6899L89.6318 79.789C89.8951 79.7627 90.2833 79.7364 90.8097 79.7101C91.3361 79.6837 91.7244 79.6706 91.9876 79.6772L91.8889 77.5781L95.5475 77.4004L95.666 79.8219C97.8572 80.0457 99.7984 80.4865 101.49 81.1512C103.181 81.8158 104.503 82.6515 105.451 83.6714C106.398 84.6914 106.905 85.8232 106.964 87.0603C107.024 88.3566 106.616 89.5542 105.74 90.6465C104.859 91.7388 103.569 92.6864 101.858 93.4826L97.5743 91.4822C99.9037 90.3241 101.035 89.008 100.963 87.5209C100.917 86.5799 100.443 85.7574 99.5352 85.0599C98.6271 84.3623 97.3966 83.8491 95.8371 83.5201L96.1003 88.9356L92.4416 89.1133L92.1521 83.1647C91.8889 83.1647 91.5006 83.1779 90.9742 83.1976C90.4478 83.2174 90.0596 83.2503 89.7964 83.2766L90.0859 89.2252L86.4272 89.4028L86.164 83.9873C84.644 84.461 83.4661 85.0862 82.6304 85.8758C81.7947 86.6589 81.3999 87.5209 81.446 88.4619C81.5183 89.9622 82.7818 91.1664 85.2428 92.0744H85.2494Z" fill="#141414"/>
<path d="M125.805 87.9494C125.752 97.6948 110.301 105.512 91.2976 105.413C72.2937 105.315 56.9221 97.3328 56.9747 87.594C56.9879 85.462 57.0142 79.7832 57.0142 79.7832L125.844 80.1385C125.844 80.1385 125.857 78.2039 125.805 87.9494Z" fill="#F3FBFD" stroke="#141414" stroke-width="1.5" stroke-miterlimit="10"/>
<path d="M125.841 79.8585C125.892 70.1154 110.526 62.1363 91.5191 62.0368C72.5125 61.9373 57.0633 69.755 57.0123 79.4981C56.9613 89.2413 72.3278 97.2203 91.3344 97.3198C110.341 97.4194 125.79 89.6017 125.841 79.8585Z" fill="#F3FBFD" stroke="#141414" stroke-width="1.5" stroke-miterlimit="10"/>
<path d="M85.2494 83.8303L81.1762 86.2387C79.3732 85.6136 77.9781 84.7976 76.9977 83.7908C76.0172 82.784 75.4974 81.6325 75.4316 80.3362C75.3724 79.0925 75.7672 77.9212 76.616 76.8157C77.4649 75.7102 78.702 74.7429 80.3207 73.927C81.9395 73.1044 83.828 72.4793 85.9929 72.045L85.8745 69.6235L89.5331 69.4458L89.6318 71.5449C89.8951 71.5186 90.2833 71.4923 90.8097 71.4659C91.3361 71.4396 91.7244 71.4265 91.9876 71.433L91.8889 69.3339L95.5475 69.1562L95.666 71.5778C97.8572 71.8015 99.7984 72.2424 101.49 72.907C103.181 73.5716 104.503 74.4073 105.451 75.4273C106.398 76.4472 106.905 77.579 106.964 78.8161C107.024 80.1124 106.616 81.3101 105.74 82.4024C104.859 83.4947 103.569 84.4423 101.858 85.2385L97.5743 83.2381C99.9037 82.0799 101.035 80.7639 100.963 79.2767C100.917 78.3358 100.443 77.5132 99.5352 76.8157C98.6271 76.1182 97.3966 75.6049 95.8371 75.2759L96.1003 80.6915L92.4416 80.8692L92.1521 74.9206C91.8889 74.9206 91.5006 74.9337 90.9742 74.9535C90.4478 74.9732 90.0596 75.0061 89.7964 75.0325L90.0859 80.981L86.4272 81.1587L86.164 75.7431C84.644 76.2169 83.4661 76.842 82.6304 77.6317C81.7947 78.4147 81.3999 79.2767 81.446 80.2177C81.5183 81.718 82.7818 82.9222 85.2428 83.8303H85.2494Z" fill="#141414"/>
<path d="M73.1496 70.4192C80.6643 75.8414 78.1901 92.1211 67.6156 106.782C57.041 121.443 42.3801 128.938 34.8589 123.516C33.2138 122.331 28.8379 119.173 28.8379 119.173L67.1286 66.0763C67.1286 66.0763 65.6349 64.9971 73.1496 70.4192Z" fill="#E0FB92" stroke="#141414" stroke-width="1.5" stroke-miterlimit="10"/>
<path d="M61.3648 102.283C71.9388 87.622 74.4175 71.3422 66.9012 65.9213C59.3849 60.5004 44.7199 67.9911 34.1459 82.6523C23.5719 97.3135 21.0932 113.593 28.6094 119.014C36.1257 124.435 50.7908 116.944 61.3648 102.283Z" fill="#F3FBFD" stroke="#141414" stroke-width="1.5" stroke-miterlimit="10"/>
<path d="M47.5578 99.5441L47.1696 104.025C45.689 105.078 44.2874 105.703 42.9647 105.907C41.6487 106.111 40.4642 105.881 39.4311 105.21C38.398 104.539 37.7466 103.617 37.3583 102.347C36.9701 101.077 36.9043 99.5901 37.1609 97.8858C37.4176 96.175 37.9769 94.3654 38.8389 92.4571L36.9043 91.2134L38.7863 88.2852L40.4642 89.3644C40.5893 89.1472 40.7867 88.8314 41.0499 88.4102C41.3131 87.9891 41.5237 87.6798 41.675 87.4824L39.997 86.4032L41.879 83.475L43.8136 84.7187C45.1955 83.146 46.6102 81.8826 48.0579 80.9416C49.5056 80.0006 50.8874 79.4413 52.1969 79.2636C53.513 79.0925 54.6645 79.3228 55.6581 79.9611C56.6518 80.5994 57.3953 81.6062 57.7572 82.8894C58.1192 84.1725 58.1389 85.6991 57.8099 87.4627L53.8946 89.6736C54.2894 87.2323 53.8946 85.6268 52.697 84.8634C51.9403 84.3765 51.0453 84.291 49.9991 84.6068C48.9594 84.9227 47.8802 85.5939 46.7682 86.6204L51.1046 89.4104L49.2226 92.3387L44.4585 89.2722C44.3137 89.4762 44.1031 89.7855 43.8333 90.2001C43.5636 90.6146 43.3661 90.9371 43.2477 91.1542L48.0118 94.2206L46.1299 97.1488L41.7935 94.3588C41.3197 95.7999 41.1552 97.0567 41.2999 98.1359C41.4447 99.2151 41.8987 99.9981 42.6489 100.485C43.8465 101.255 45.4784 100.939 47.5446 99.5441H47.5578Z" fill="#141414"/>
<path d="M127.075 79.165C125.377 88.6538 108.999 93.6679 90.4821 90.3581C71.9717 87.0482 58.3373 76.6776 60.0285 67.1888C60.397 65.1095 61.384 59.582 61.384 59.582L128.424 71.5582C128.424 71.5582 128.76 69.6762 127.069 79.165H127.075Z" fill="#11D58E" stroke="#141414" stroke-width="1.5" stroke-miterlimit="10"/>
<path d="M128.492 71.2757C130.188 61.7845 116.554 51.4088 98.0401 48.101C79.5263 44.7932 63.1432 49.8058 61.4474 59.297C59.7516 68.7883 73.3853 79.1639 91.8991 82.4717C110.413 85.7796 126.796 80.7669 128.492 71.2757Z" fill="#F3FBFD" stroke="#141414" stroke-width="1.5" stroke-miterlimit="10"/>
<path d="M95.1351 72.0052L78.8555 69.0967L80.1452 61.8715C87.8376 63.2073 94.5495 61.4241 95.1878 57.8707C95.1878 57.8444 95.2009 57.8115 95.2009 57.7852L111.204 60.641L109.908 67.9057C102.334 66.662 95.7668 68.4452 95.1417 71.9591C95.1417 71.9788 95.1417 71.992 95.1417 72.0118L95.1351 72.0052Z" fill="#11D58E"/>
<path d="M112.666 66.8328C104.803 72.1234 106.797 88.8505 117.114 104.189C127.439 119.528 142.179 127.674 150.042 122.384C151.766 121.226 156.346 118.146 156.346 118.146L118.97 62.5951C118.97 62.5951 120.53 61.5423 112.666 66.8328Z" fill="#8366F4" stroke="#141414" stroke-width="1.5" stroke-miterlimit="10"/>
<path d="M156.576 117.999C164.44 112.709 162.449 95.9829 152.127 80.6407C141.806 65.2985 127.064 57.15 119.2 62.4404C111.336 67.7308 113.328 84.4568 123.649 99.799C133.97 115.141 148.712 123.29 156.576 117.999Z" fill="#F3FBFD" stroke="#141414" stroke-width="1.5" stroke-miterlimit="10"/>
<path d="M145.478 87.3895C144.439 86.6722 143.386 86.3366 142.326 86.3892C142.629 85.5272 142.682 84.5533 142.498 83.4676C142.313 82.3818 141.886 81.2698 141.228 80.138C140.135 78.2692 138.806 77.0584 137.24 76.5056C136.055 76.0911 134.818 76.124 133.535 76.6043L131.456 73.0312L128.942 74.4921L130.969 77.9665L128.646 79.3154L126.619 75.841L124.106 77.3019L126.132 80.7763L123.23 82.4674L125.626 86.5801L127.679 85.3825L136.516 100.557L134.463 101.754L136.858 105.867L139.76 104.176L142.34 108.604L144.853 107.143L142.274 102.715L144.597 101.366L147.176 105.795L149.69 104.334L147.091 99.8723C148.492 98.8721 149.334 97.6679 149.617 96.2399C149.946 94.5686 149.519 92.7063 148.328 90.6599C147.485 89.2122 146.544 88.1264 145.498 87.4026L145.478 87.3895ZM130.943 83.4347L134.233 81.5198C135.049 81.046 135.799 80.9079 136.49 81.1184C137.181 81.329 137.793 81.8949 138.319 82.8096C138.846 83.7242 139.036 84.5336 138.892 85.2509C138.74 85.9681 138.26 86.5603 137.437 87.0341L134.147 88.949L130.936 83.4347H130.943ZM145.242 94.5751C145.07 95.299 144.551 95.9175 143.675 96.4242L139.813 98.6747L136.444 92.8906L140.306 90.6401C142.063 89.6136 143.511 90.0742 144.636 92.0154C145.209 92.9959 145.406 93.8513 145.235 94.5751H145.242Z" fill="#8366F4"/>
</svg>
