<svg width="186" height="152" viewBox="0 0 186 152" fill="none" xmlns="http://www.w3.org/2000/svg">
<path d="M57.2221 38.4504L54.7173 15.9326C62.2253 12.1818 63.4713 11.5556 67.6482 9.05078H126.951C126.951 22.9759 138.236 34.2606 152.161 34.2606V34.493C152.161 34.493 154.975 77.3981 140.553 102.363C126.138 127.333 93.0129 139.632 84.1169 148.528C75.2208 139.632 68.4616 127.327 54.0459 102.363C39.6237 77.3981 57.2221 38.4504 57.2221 38.4504Z" fill="#1B242C" stroke="#1B242C" stroke-width="1.5" stroke-miterlimit="10"/>
<path d="M29.3078 41.3748V41.1424C43.2329 41.1424 54.5176 29.8577 54.5176 15.9326H113.82C113.82 29.8577 125.105 41.1424 139.03 41.1424V41.3748C139.03 41.3748 141.845 84.2799 127.423 109.244C113.007 134.215 93.065 139.735 84.169 148.631C75.2729 139.735 55.331 134.215 40.9153 109.244C26.4931 84.2799 29.3078 41.3748 29.3078 41.3748Z" fill="#F3FBFD" stroke="#1B242C" stroke-width="1.5" stroke-miterlimit="10"/>
<path d="M43.1039 52.2067V52.0324C53.446 52.0324 64.9567 43.6464 64.9567 33.3042H102.755C102.755 43.6464 114.266 52.0324 124.608 52.0324V52.2067C124.608 52.2067 126.7 84.0789 115.99 102.626C105.279 121.174 90.4699 125.273 83.8592 131.884C77.2485 125.273 62.4389 121.174 51.7288 102.626C41.0187 84.0789 43.1103 52.2067 43.1103 52.2067H43.1039Z" fill="#E0FB92" stroke="#1B242C" stroke-width="1.5" stroke-miterlimit="10"/>
<path d="M63.7057 75.1758C63.9962 70.8117 66.0362 67.2804 70.2712 65.3566C74.7451 63.323 78.9284 64.2139 82.492 67.4741C83.7186 68.5974 84.319 68.5393 85.4616 67.4225C89.6837 63.2778 96.6301 63.3618 100.775 67.4741C105.055 71.7155 105.32 78.6426 101.156 82.9421C95.8619 88.4166 90.4003 93.7297 85.0485 99.1461C84.164 100.043 83.5507 99.9725 82.6986 99.1074C77.4242 93.7814 72.0982 88.5006 66.8174 83.1745C64.6999 81.0377 63.8154 78.3715 63.6992 75.1694L63.7057 75.1758Z" fill="#3418D8"/>
<path d="M138.828 1C138.686 1.82634 137.466 9.74758 143.347 15.8483C148.764 21.4648 155.904 21.0839 156.905 21.0129" stroke="#1B242C" stroke-width="1.5" stroke-miterlimit="10"/>
<path d="M140.871 105.312H107.727C99.5869 105.312 92.9883 111.911 92.9883 120.051V136.261C92.9883 144.401 99.5869 151 107.727 151H140.871C149.011 151 155.609 144.401 155.609 136.261V120.051C155.609 111.911 149.011 105.312 140.871 105.312Z" fill="#141414" stroke="#141414" stroke-width="1.5" stroke-miterlimit="10"/>
<path d="M138.457 105.312H105.313C97.1729 105.312 90.5742 111.911 90.5742 120.051V136.261C90.5742 144.401 97.1729 151 105.313 151H138.457C146.597 151 153.195 144.401 153.195 136.261V120.051C153.195 111.911 146.597 105.312 138.457 105.312Z" fill="#F3FBFD" stroke="#141414" stroke-width="1.5" stroke-miterlimit="10"/>
<path d="M150.097 120.903H138.289C135.241 120.903 132.77 123.375 132.77 126.423V128.825C132.77 131.873 135.241 134.344 138.289 134.344H150.097C153.145 134.344 155.617 131.873 155.617 128.825V126.423C155.617 123.375 153.145 120.903 150.097 120.903Z" fill="#F3FBFD" stroke="#141414" stroke-width="1.5" stroke-miterlimit="10"/>
</svg>
