<svg width="190" height="150" viewBox="0 0 190 150" fill="none" xmlns="http://www.w3.org/2000/svg">
<path d="M5.52569 64.6067L73.4624 29.9695C75.4255 28.8486 77.8346 28.861 79.7916 29.9881L185.734 86.9075C185.734 92.4812 186.682 97.8257 182.44 100.278L122.486 134.891C117.903 137.535 112.261 137.535 107.685 134.891L8.80177 77.7977C4.54721 75.3391 5.5195 71.4189 5.5195 64.6067H5.52569Z" fill="#1B242C" stroke="#1B242C" stroke-width="1.5" stroke-miterlimit="10"/>
<path d="M115.024 128.388C112.225 128.388 109.469 127.651 107.047 126.252L9.09341 69.7039C6.91349 68.4467 5.61297 66.1863 5.61916 63.672C5.62536 61.1514 6.93826 58.9034 9.13057 57.6586L73.3577 21.0954C74.4043 20.5009 75.5933 20.1851 76.7948 20.1851C77.9962 20.1851 79.21 20.5071 80.269 21.114L182.273 80.009C184.447 81.2661 185.747 83.5142 185.747 86.0223C185.747 88.5305 184.447 90.7785 182.273 92.0357L123.007 126.252C120.585 127.651 117.823 128.388 115.03 128.388H115.024Z" fill="#F3FBFD"/>
<path d="M76.7888 20.8045C77.8787 20.8045 78.9749 21.0894 79.9534 21.6529L181.957 80.5479C186.175 82.9818 186.175 89.0694 181.957 91.5033L122.691 125.719C120.319 127.088 117.668 127.775 115.024 127.775C112.38 127.775 109.729 127.088 107.357 125.719L9.40327 69.1653C5.17348 66.7252 5.19206 60.6066 9.43423 58.1914L73.6613 21.6344C74.6336 21.0832 75.7112 20.8045 76.7888 20.8045ZM76.7888 19.5659C75.4821 19.5659 74.1877 19.9065 73.0482 20.5568L8.82732 57.1138C6.44304 58.47 5.01247 60.9225 5.00008 63.6659C4.98769 66.4094 6.40588 68.868 8.78397 70.2367L106.732 126.791C109.246 128.246 112.113 129.014 115.018 129.014C117.922 129.014 120.79 128.246 123.304 126.791L182.571 92.5746C184.936 91.206 186.354 88.7598 186.354 86.0225C186.354 83.2852 184.943 80.839 182.571 79.4703L80.5727 20.5816C79.427 19.9189 78.1141 19.5659 76.7888 19.5659Z" fill="#1B242C"/>
<path d="M111.836 85.9355L119.205 81.5385L70.5534 54.209L62.5273 58.6246L111.836 85.9355Z" fill="#1B242C"/>
<path d="M114.303 56.494C113.238 66.9229 109.789 75.9522 105.28 81.5383L99.3474 78.3118L88.2559 72.2798L88.5717 69.2205L89.1538 63.4982L89.6307 58.8287L89.9899 55.3421L90.219 53.1003L90.572 49.6198L91.0427 45.0308L91.6248 39.3519L93.4641 21.3366V21.3242C93.91 21.3738 95.5697 21.5472 100.883 22.086C110.136 23.0273 116.143 38.4353 114.303 56.494Z" fill="#1B242C" stroke="#1B242C" stroke-width="1.5" stroke-miterlimit="10"/>
<path d="M106.606 55.7077C105.683 64.7309 102.977 72.7074 99.3476 78.312L88.256 72.2801L72.9904 63.9753C72.6498 60.3029 72.6683 56.358 73.0833 52.283C74.9288 34.2244 83.9271 20.3522 93.1856 21.2997C93.2785 21.3121 93.3714 21.3183 93.4643 21.3369C102.568 22.5507 108.433 37.8349 106.606 55.7077Z" fill="#E0FB92" stroke="#1B242C" stroke-width="1.5" stroke-miterlimit="10"/>
<path d="M89.4465 63.529C89.3474 63.5228 89.2545 63.5166 89.1554 63.498C88.3813 63.3803 87.6877 62.9406 87.0932 62.1665C86.4243 61.2995 85.9351 60.1229 85.6254 58.6365L89.6323 58.8285L90.7966 58.8843L90.97 55.3914L89.9915 55.3419L85.2848 55.1189C85.2848 54.865 85.2972 54.4935 85.322 53.9918C85.3468 53.4902 85.3715 53.1186 85.3963 52.8709L90.2206 53.1L91.0752 53.1434L91.2486 49.6506L90.5736 49.6196L86.0775 49.4029C86.5296 47.9475 87.1303 46.8266 87.8797 46.0277C88.629 45.2288 89.4527 44.8572 90.3507 44.9006C90.586 44.913 90.8213 44.9563 91.0443 45.0306C92.1466 45.4022 93.0632 46.5541 93.8001 48.4863L96.1039 44.5909C95.5032 42.8941 94.7229 41.5812 93.763 40.646C93.1127 40.0143 92.4067 39.5808 91.6264 39.3517C91.2548 39.234 90.8647 39.1721 90.4621 39.1535C89.2793 39.0916 88.1584 39.4694 87.0994 40.2806C86.0466 41.0919 85.1238 42.2686 84.3373 43.8168C83.5508 45.3589 82.9563 47.1672 82.5414 49.2295L80.2314 49.118L80.058 52.6108L82.0645 52.7099C82.0397 52.9576 82.015 53.3292 81.9902 53.8308C81.9654 54.3324 81.953 54.704 81.953 54.9517L79.9527 54.8588L79.7793 58.3517L82.0893 58.4631C82.306 60.5564 82.7271 62.4142 83.3588 64.0244C83.9905 65.6408 84.7894 66.9041 85.7679 67.8145C86.6225 68.6072 87.5576 69.0779 88.5733 69.2203C88.7157 69.2451 88.8582 69.2575 89.0006 69.2637C90.2454 69.3194 91.3849 68.9354 92.4315 68.0932C93.4719 67.2571 94.3761 66.0062 95.144 64.3464L93.2304 60.2529C92.1404 62.5071 90.8771 63.5971 89.4465 63.529Z" fill="#3418D8"/>
<path d="M57.7521 37.9712L37.978 49.3848C36.9686 49.967 35.6742 49.6202 35.0859 48.6107L31.3516 45.8548L54.7919 32.3232L58.5262 35.0791C59.1084 36.0886 58.7616 37.3829 57.7521 37.9712Z" fill="#1B242C" stroke="#1B242C" stroke-width="1.5" stroke-miterlimit="10"/>
<path d="M176.415 86.9388C176.371 94.9958 163.601 101.455 147.89 101.375C132.178 101.294 119.477 94.6986 119.514 86.6415L119.545 80.1885L176.446 80.4857C176.446 80.4857 176.452 78.888 176.415 86.9388Z" fill="#8366F4" stroke="#1B242C" stroke-width="1.5" stroke-miterlimit="10"/>
<path d="M176.457 80.2469C176.499 72.1923 163.796 65.596 148.083 65.5138C132.371 65.4315 119.599 71.8944 119.557 79.949C119.515 88.0036 132.218 94.5999 147.93 94.6822C163.643 94.7644 176.415 88.3016 176.457 80.2469Z" fill="white" stroke="#1B242C" stroke-width="1.5" stroke-miterlimit="10"/>
<path d="M142.894 83.5322L139.526 85.5202C138.033 85 136.881 84.3249 136.07 83.4951C135.259 82.6652 134.831 81.7115 134.776 80.6401C134.72 79.5687 135.054 78.646 135.754 77.7294C136.454 76.8129 137.476 76.0202 138.813 75.339C140.151 74.6577 141.712 74.1437 143.501 73.7845L143.402 71.7842L146.424 71.6356L146.505 73.3696C146.722 73.3448 147.044 73.3262 147.477 73.3077C147.911 73.2891 148.233 73.2767 148.45 73.2767L148.369 71.5427L151.391 71.394L151.49 73.3944C153.305 73.5802 154.909 73.9455 156.308 74.4905C157.708 75.0355 158.798 75.7353 159.584 76.5775C160.371 77.4198 160.786 78.3549 160.835 79.383C160.885 80.411 160.551 81.4452 159.826 82.3494C159.101 83.2535 158.03 84.0339 156.618 84.6965L153.076 83.043C155.002 82.0893 155.937 80.9931 155.875 79.7669C155.838 78.9866 155.441 78.3116 154.692 77.7294C153.943 77.1535 152.921 76.7262 151.633 76.4599L151.849 80.9374L148.827 81.086L148.592 76.1688C148.375 76.1688 148.053 76.175 147.62 76.1998C147.186 76.2245 146.864 76.2431 146.647 76.2617L146.883 81.1789L143.861 81.3275L143.644 76.85C142.387 77.2402 141.414 77.7604 140.721 78.4107C140.033 79.0609 139.705 79.7731 139.742 80.5472C139.804 81.7858 140.851 82.7829 142.882 83.5322H142.894Z" fill="#8366F4"/>
<path d="M149.104 83.5637C153.092 90.5618 145.264 102.545 131.615 110.33C117.966 118.114 103.666 118.752 99.678 111.76L96.4824 106.156L145.908 77.9591C145.908 77.9591 145.116 76.5719 149.104 83.5637Z" fill="#11D58E" stroke="#1B242C" stroke-width="1.5" stroke-miterlimit="10"/>
<path d="M128.3 104.518C141.948 96.7333 149.777 84.7504 145.787 77.7538C141.796 70.7572 127.496 71.3963 113.848 79.1813C100.199 86.9663 92.3699 98.9492 96.3607 105.946C100.352 112.942 114.651 112.303 128.3 104.518Z" fill="white" stroke="#1B242C" stroke-width="1.5" stroke-miterlimit="10"/>
<path d="M118.368 97.3737L116.442 100.78C114.887 101.077 113.556 101.065 112.441 100.755C111.326 100.439 110.478 99.8323 109.896 98.9281C109.313 98.0239 109.14 97.0578 109.289 95.9183C109.437 94.7726 109.927 93.5774 110.744 92.3202C111.562 91.0631 112.658 89.8307 114.026 88.6292L112.943 86.9447L115.488 85.3098L116.429 86.7713C116.603 86.6475 116.875 86.4617 117.24 86.2326C117.606 86.0034 117.878 85.83 118.07 85.7185L117.129 84.257L119.674 82.6221L120.758 84.3066C122.418 83.5572 123.997 83.0742 125.477 82.8512C126.963 82.6283 128.252 82.684 129.354 83.0184C130.456 83.3528 131.286 83.9536 131.843 84.8206C132.401 85.6876 132.624 86.7466 132.45 87.8923C132.271 89.038 131.738 90.2518 130.846 91.5275L126.951 91.8681C128.14 90.0784 128.406 88.6664 127.738 87.6322C127.316 86.9757 126.635 86.5856 125.7 86.4617C124.759 86.3378 123.669 86.4803 122.418 86.889L124.839 90.6543L122.294 92.2893L119.631 88.1462C119.445 88.2515 119.166 88.4249 118.801 88.6602C118.436 88.8955 118.169 89.0751 117.99 89.199L120.653 93.3421L118.107 94.977L115.686 91.2117C114.794 92.1778 114.212 93.1129 113.94 94.0233C113.667 94.9275 113.741 95.7078 114.163 96.3642C114.831 97.4046 116.237 97.7453 118.374 97.3799L118.368 97.3737Z" fill="#11D58E"/>
<path d="M96.8926 13.268C107.792 11.9674 117.689 19.7458 118.989 30.6454" stroke="#1B242C" stroke-width="1.5" stroke-miterlimit="10"/>
</svg>
