<svg width="293" height="202" viewBox="0 0 293 202" fill="none" xmlns="http://www.w3.org/2000/svg">
<g clip-path="url(#clip0_513_4189)">
<path d="M0.909848 83.8808L110.61 27.9508C113.78 26.1408 117.67 26.1608 120.83 27.9808L291.9 119.891C291.9 128.891 293.43 137.521 286.58 141.481L189.77 197.371C182.37 201.641 173.26 201.641 165.87 197.371L6.19985 105.181C-0.670152 101.211 0.899848 94.8808 0.899848 83.8808H0.909848Z" fill="#1B242C" stroke="#1B242C" stroke-width="1.5" stroke-miterlimit="10"/>
<path d="M177.72 186.87C173.2 186.87 168.75 185.68 164.84 183.42L6.66985 92.1104C3.14985 90.0804 1.04985 86.4304 1.05985 82.3704C1.06985 78.3004 3.18985 74.6704 6.72985 72.6604L110.44 13.6204C112.13 12.6604 114.05 12.1504 115.99 12.1504C117.93 12.1504 119.89 12.6704 121.6 13.6504L286.31 108.75C289.82 110.78 291.92 114.41 291.92 118.46C291.92 122.51 289.82 126.14 286.31 128.17L190.61 183.42C186.7 185.68 182.24 186.87 177.73 186.87H177.72Z" fill="white"/>
<path d="M115.98 13.1504C117.74 13.1504 119.51 13.6104 121.09 14.5204L285.8 109.62C292.61 113.55 292.61 123.38 285.8 127.31L190.1 182.56C186.27 184.77 181.99 185.88 177.72 185.88C173.45 185.88 169.17 184.77 165.34 182.56L7.16994 91.2404C0.339944 87.3004 0.369944 77.4204 7.21994 73.5204L110.93 14.4904C112.5 13.6004 114.24 13.1504 115.98 13.1504ZM115.98 11.1504C113.87 11.1504 111.78 11.7004 109.94 12.7504L6.23994 71.7804C2.38994 73.9704 0.0799444 77.9304 0.0599444 82.3604C0.0399444 86.7904 2.32994 90.7604 6.16994 92.9704L164.33 184.29C168.39 186.64 173.02 187.88 177.71 187.88C182.4 187.88 187.03 186.64 191.09 184.29L286.79 129.04C290.61 126.83 292.9 122.88 292.9 118.46C292.9 114.04 290.62 110.09 286.79 107.88L122.09 12.7904C120.24 11.7204 118.12 11.1504 115.98 11.1504Z" fill="#1B242C"/>
<path d="M172.57 118.321L184.47 111.221L105.91 67.0908L92.95 74.2208L172.57 118.321Z" fill="#1B242C"/>
<path d="M176.56 70.7802C174.84 87.6202 169.27 102.2 161.99 111.22L152.41 106.01L134.5 96.2702L135.01 91.3302L135.95 82.0902L136.72 74.5502L137.3 68.9202L137.67 65.3002L138.24 59.6802L139 52.2702L139.94 43.1002L142.91 14.0102V13.9902C143.63 14.0702 146.31 14.3502 154.89 15.2202C169.83 16.7402 179.53 41.6202 176.56 70.7802Z" fill="#1B242C" stroke="#1B242C" stroke-width="1.5" stroke-miterlimit="10"/>
<path d="M164.13 69.5099C162.64 84.0799 158.27 96.9599 152.41 106.01L134.5 96.2699L109.85 82.8599C109.3 76.9299 109.33 70.5599 110 63.9799C112.98 34.8199 127.51 12.4199 142.46 13.9499C142.61 13.9699 142.76 13.9799 142.91 14.0099C157.61 15.9699 167.08 40.6499 164.13 69.5099Z" fill="white" stroke="#1B242C" stroke-width="1.5" stroke-miterlimit="10"/>
<path d="M136.42 82.1401C136.26 82.1301 136.11 82.1201 135.95 82.0901C134.7 81.9001 133.58 81.1901 132.62 79.9401C131.54 78.5401 130.75 76.6401 130.25 74.2401L136.72 74.5501L138.6 74.6401L138.88 69.0001L137.3 68.9201L129.7 68.5601C129.7 68.1501 129.72 67.5501 129.76 66.7401C129.8 65.9301 129.84 65.3301 129.88 64.9301L137.67 65.3001L139.05 65.3701L139.33 59.7301L138.24 59.6801L130.98 59.3301C131.71 56.9801 132.68 55.1701 133.89 53.8801C135.1 52.5901 136.43 51.9901 137.88 52.0601C138.26 52.0801 138.64 52.1501 139 52.2701C140.78 52.8701 142.26 54.7301 143.45 57.8501L147.17 51.5601C146.2 48.8201 144.94 46.7001 143.39 45.1901C142.34 44.1701 141.2 43.4701 139.94 43.1001C139.34 42.9101 138.71 42.8101 138.06 42.7801C136.15 42.6801 134.34 43.2901 132.63 44.6001C130.93 45.9101 129.44 47.8101 128.17 50.3101C126.9 52.8001 125.94 55.7201 125.27 59.0501L121.54 58.8701L121.26 64.5101L124.5 64.6701C124.46 65.0701 124.42 65.6701 124.38 66.4801C124.34 67.2901 124.32 67.8901 124.32 68.2901L121.09 68.1401L120.81 73.7801L124.54 73.9601C124.89 77.3401 125.57 80.3401 126.59 82.9401C127.61 85.5501 128.9 87.5901 130.48 89.0601C131.86 90.3401 133.37 91.1001 135.01 91.3301C135.24 91.3701 135.47 91.3901 135.7 91.4001C137.71 91.4901 139.55 90.8701 141.24 89.5101C142.92 88.1601 144.38 86.1401 145.62 83.4601L142.53 76.8501C140.77 80.4901 138.73 82.2501 136.42 82.1401Z" fill="#3418D8"/>
<path d="M85.2399 40.87L53.3099 59.3C51.6799 60.24 49.5899 59.68 48.6399 58.05L42.6099 53.6L80.4599 31.75L86.4899 36.2C87.4299 37.83 86.8699 39.92 85.2399 40.87Z" fill="#1B242C" stroke="#1B242C" stroke-miterlimit="10"/>
<path d="M276.85 119.94C276.78 132.95 256.16 143.38 230.79 143.25C205.42 143.12 184.91 132.47 184.97 119.46L185.02 109.04L276.9 109.52C276.9 109.52 276.91 106.94 276.85 119.94Z" fill="white" stroke="#1B242C" stroke-width="1.5" stroke-miterlimit="10"/>
<path d="M276.917 109.135C276.985 96.1284 256.473 85.4772 231.101 85.3443C205.729 85.2115 185.106 95.6473 185.038 108.653C184.97 121.66 205.483 132.311 230.854 132.444C256.226 132.577 276.849 122.141 276.917 109.135Z" fill="white" stroke="#1B242C" stroke-width="1.5" stroke-miterlimit="10"/>
<path d="M222.72 114.441L217.28 117.651C214.87 116.811 213.01 115.721 211.7 114.381C210.39 113.041 209.7 111.501 209.61 109.771C209.52 108.041 210.06 106.551 211.19 105.071C212.32 103.591 213.97 102.311 216.13 101.211C218.29 100.111 220.81 99.2808 223.7 98.7008L223.54 95.4708L228.42 95.2308L228.55 98.0308C228.9 97.9908 229.42 97.9608 230.12 97.9308C230.82 97.9008 231.34 97.8808 231.69 97.8808L231.56 95.0808L236.44 94.8408L236.6 98.0708C239.53 98.3708 242.12 98.9608 244.38 99.8408C246.64 100.721 248.4 101.851 249.67 103.211C250.94 104.571 251.61 106.081 251.69 107.741C251.77 109.401 251.23 111.071 250.06 112.531C248.89 113.991 247.16 115.251 244.88 116.321L239.16 113.651C242.27 112.111 243.78 110.341 243.68 108.361C243.62 107.101 242.98 106.011 241.77 105.071C240.56 104.141 238.91 103.451 236.83 103.021L237.18 110.251L232.3 110.491L231.92 102.551C231.57 102.551 231.05 102.561 230.35 102.601C229.65 102.641 229.13 102.671 228.78 102.701L229.16 110.641L224.28 110.881L223.93 103.651C221.9 104.281 220.33 105.121 219.21 106.171C218.1 107.221 217.57 108.371 217.63 109.621C217.73 111.621 219.42 113.231 222.7 114.441H222.72Z" fill="#1B242C"/>
<path d="M232.75 114.491C239.19 125.791 226.55 145.141 204.51 157.711C182.47 170.281 159.38 171.311 152.94 160.021L147.78 150.971L227.59 105.441C227.59 105.441 226.31 103.201 232.75 114.491Z" fill="white" stroke="#1B242C" stroke-width="1.5" stroke-miterlimit="10"/>
<path d="M199.157 148.326C221.196 135.755 233.838 116.406 227.394 105.108C220.95 93.8107 197.86 94.8427 175.821 107.413C153.782 119.984 141.14 139.333 147.584 150.631C154.028 161.929 177.118 160.897 199.157 148.326Z" fill="white" stroke="#1B242C" stroke-width="1.5" stroke-miterlimit="10"/>
<path d="M183.12 136.791L180.01 142.291C177.5 142.771 175.35 142.751 173.55 142.251C171.75 141.741 170.38 140.761 169.44 139.301C168.5 137.841 168.22 136.281 168.46 134.441C168.7 132.591 169.49 130.661 170.81 128.631C172.13 126.601 173.9 124.611 176.11 122.671L174.36 119.951L178.47 117.311L179.99 119.671C180.27 119.471 180.71 119.171 181.3 118.801C181.89 118.431 182.33 118.151 182.64 117.971L181.12 115.611L185.23 112.971L186.98 115.691C189.66 114.481 192.21 113.701 194.6 113.341C197 112.981 199.08 113.071 200.86 113.611C202.64 114.151 203.98 115.121 204.88 116.521C205.78 117.921 206.14 119.631 205.86 121.481C205.57 123.331 204.71 125.291 203.27 127.351L196.98 127.901C198.9 125.011 199.33 122.731 198.25 121.061C197.57 120.001 196.47 119.371 194.96 119.171C193.44 118.971 191.68 119.201 189.66 119.861L193.57 125.941L189.46 128.581L185.16 121.891C184.86 122.061 184.41 122.341 183.82 122.721C183.23 123.101 182.8 123.391 182.51 123.591L186.81 130.281L182.7 132.921L178.79 126.841C177.35 128.401 176.41 129.911 175.97 131.381C175.53 132.841 175.65 134.101 176.33 135.161C177.41 136.841 179.68 137.391 183.13 136.801L183.12 136.791Z" fill="#11D582"/>
<path d="M148.44 0.980256C166.04 -1.11974 182.02 11.4403 184.12 29.0403" stroke="#1B242C" stroke-width="1.5" stroke-miterlimit="10"/>
</g>
<defs>
<clipPath id="clip0_513_4189">
<rect width="292.91" height="201.32" fill="white"/>
</clipPath>
</defs>
</svg>
