<svg width="186" height="151" viewBox="0 0 186 151" fill="none" xmlns="http://www.w3.org/2000/svg">
<path d="M42.8116 57.6748C43.3116 50.1308 40.9427 41.8765 45.4555 36.6C48.3119 33.261 56.7625 32.0711 61.4065 29.9593C74.0698 24.2218 85.933 26.7261 96.0211 35.9459C99.5026 39.123 92.8022 38.8614 96.7024 36.6C116.079 25.3867 136.049 24.3339 147.806 35.9459C159.938 47.9317 160.675 67.474 148.893 79.6031C133.892 95.0525 118.429 105.693 103.265 120.986C100.753 123.522 94.8273 128.798 87.3268 131.913C72.3884 116.869 66.5881 95.3079 51.6371 80.2759C45.6493 74.2518 43.1304 66.7202 42.8053 57.6811L42.8116 57.6748Z" fill="#141414" stroke="#141414" stroke-width="1.5" stroke-miterlimit="10"/>
<path d="M29.6875 62.6582C30.5063 50.3423 36.2942 40.3749 48.2824 34.9427C60.9457 29.2052 72.8089 31.7095 82.897 40.9293C86.3785 44.1064 88.0786 43.9382 91.3038 40.7923C103.273 29.0993 122.931 29.3236 134.688 40.9356C146.82 52.9213 147.557 72.4636 135.775 84.5927C120.774 100.042 105.311 115.043 90.1475 130.337C87.6348 132.872 85.9097 132.667 83.4971 130.237C68.5586 115.193 53.4702 100.298 38.5193 85.2593C32.5314 79.229 30.0125 71.6974 29.6875 62.6582Z" fill="#E0FB92" stroke="#141414" stroke-width="1.5" stroke-miterlimit="10"/>
<path d="M29.918 29.2366C33.6619 18.8456 45.1564 13.4508 55.582 17.1823" stroke="#141414" stroke-width="1.5" stroke-miterlimit="10"/>
<path d="M93.314 62.458H81.8577C77.759 62.458 74.4505 65.8345 74.4505 70.0173C74.4505 74.2 77.759 77.5765 81.8577 77.5765H85.9069C90.0055 77.5765 93.314 80.953 93.314 85.1358C93.314 89.3185 90.0055 92.695 85.9069 92.695H72.4609" stroke="#141414" stroke-width="1.5" stroke-linecap="round"/>
<path d="M34.0879 93.9496C36.4318 93.7939 38.4819 95.1083 39.4132 97.0644V96.5785C39.3944 93.5883 41.6946 90.9719 44.6885 90.8659C47.7887 90.76 50.3451 93.2207 50.3639 96.2919V94.9588C50.3389 91.9686 52.639 89.3522 55.6392 89.2462C58.7394 89.1403 61.2958 91.601 61.3145 94.6722L61.2083 74.3326C61.1958 71.3423 63.4897 68.7259 66.4899 68.62C69.5901 68.5141 72.1465 70.9748 72.1652 74.046L72.3277 99.9487C74.9841 96.6719 78.2468 93.906 81.9346 91.844C82.6971 91.4204 83.5534 91.1899 84.4222 91.1837C86.7349 91.1712 88.835 92.7099 89.4475 95.0523C90.0476 97.3572 88.8475 99.7245 86.7724 100.908C78.3343 105.736 74.6716 115.94 71.2964 124.487C69.6713 128.599 65.2148 135.912 54.0141 135.968L47.4199 136C32.4315 136.074 29.1251 119.84 29.1126 116.6V115.336L29.0251 104.291L29.0001 99.6248C28.9876 96.7093 31.1814 94.1365 34.1004 93.9371L34.0879 93.9496Z" fill="#EBE8FC" stroke="#8366F4" stroke-width="1.5" stroke-miterlimit="10"/>
</svg>
