<svg width="109" height="109" viewBox="0 0 109 109" fill="none" xmlns="http://www.w3.org/2000/svg">
<path d="M10 48.0181C10 27.0213 27.0213 10 48.0181 10H59.9819C80.9787 10 98 27.0213 98 48.0181V59.9819C98 80.9787 80.9787 98 59.9819 98H48.0181C27.0213 98 10 80.9787 10 59.9819V48.0181Z" fill="#3418D8"/>
<path d="M65.4768 50.2816L69.478 47.0164C70.6656 46.0473 69.9803 44.1235 68.4474 44.1235H57.6275C56.9213 44.1235 56.2955 43.6688 56.0773 42.9972L52.87 33.1263C52.382 31.6246 50.2575 31.6246 49.7695 33.1263L46.5623 42.9972C46.3441 43.6688 45.7182 44.1235 45.012 44.1235H34.6331C33.0541 44.1235 32.3976 46.1441 33.675 47.0723L42.0717 53.1728C42.643 53.5879 42.8821 54.3236 42.6639 54.9952L39.4471 64.8956C38.9601 66.3944 40.6722 67.6432 41.9506 66.7215L47.5466 62.0992M68.0945 51.3737L70.995 53.7419C75.1644 57.1461 74.5059 64.851 69.5314 70.9437C64.5568 77.0364 57.1338 79.2295 52.9644 75.8253L50.0639 73.4572M67.4081 50.8133C71.5772 54.2173 70.9219 61.9188 65.9445 68.015C60.967 74.1113 53.5522 76.2938 49.3831 72.8898C45.2139 69.4858 45.8692 61.7843 50.8467 55.6881C55.8241 49.5918 63.2389 47.4093 67.4081 50.8133ZM55.2753 58.9831L52.5056 62.3753L55.8978 65.1449C57.4274 63.2715 60.1862 62.9928 62.0597 64.5224L64.8295 61.1302L61.4374 58.3607C59.9078 60.2342 57.1488 60.5127 55.2753 58.9831Z" stroke="#F3FBFD" stroke-width="2.5"/>
</svg>
