<svg width="109" height="109" viewBox="0 0 109 109" fill="none" xmlns="http://www.w3.org/2000/svg">
<path d="M10 48.0181C10 27.0213 27.0213 10 48.0181 10H59.9819C80.9787 10 98 27.0213 98 48.0181V59.9819C98 80.9787 80.9787 98 59.9819 98H48.0181C27.0213 98 10 80.9787 10 59.9819V48.0181Z" fill="#303D48" fill-opacity="0.5"/>
<g clip-path="url(#clip0_53_2633)">
<path d="M58.8087 41.5763C60.9687 44.3993 63.9628 46.709 66.1014 49.5961C71.9826 57.509 73.4154 68.9613 65.6523 76.2647C62.455 79.2695 57.9532 80.9055 52.3394 80.5206C46.7255 80.1356 42.491 77.8901 39.7429 74.479C36.5136 70.4584 35.4657 65.1867 35.9896 60.1395C36.4494 55.6057 38.1603 49.4999 41.5393 46.2278C42.1916 47.8318 42.6407 49.3823 43.9025 50.7082L45.5813 52.4726L45.7524 50.0453C45.7631 49.8849 45.7738 49.6924 45.7845 49.4678C46.255 41.2769 48.8641 31.4713 57.1833 27.9961C56.9374 28.9692 56.6808 30.2203 56.5204 31.6104C56.1675 34.7755 56.4455 38.1759 58.3061 40.8813C58.4772 41.1272 58.6483 41.3625 58.8194 41.587L58.8087 41.5763Z" stroke="#F3FBFD" stroke-width="2.5"/>
<circle cx="54" cy="70" r="10.75" stroke="#F3FBFD" stroke-width="2.5"/>
</g>
<defs>
<clipPath id="clip0_53_2633">
<rect width="56" height="56" fill="white" transform="translate(26 26)"/>
</clipPath>
</defs>
</svg>
