<svg width="57" height="57" viewBox="0 0 57 57" fill="none" xmlns="http://www.w3.org/2000/svg">
<g clip-path="url(#clip0_138_4584)">
<path d="M33.6629 16.4306C35.8229 19.2535 38.817 21.5633 40.9556 24.4504C46.8368 32.3633 48.2697 43.8156 40.5065 51.119C37.3093 54.1237 32.8075 55.7598 27.1936 55.3748C21.5797 54.9899 17.3453 52.7443 14.5971 49.3332C11.3678 45.3126 10.3199 40.0409 10.8439 34.9938C11.3037 30.4599 13.0146 24.3542 16.3936 21.0821C17.0459 22.686 17.495 24.2365 18.7568 25.5625L20.4356 27.3268L20.6067 24.8995C20.6174 24.7391 20.6281 24.5466 20.6387 24.3221C21.1092 16.1312 23.7184 6.3256 32.0376 2.85034C31.7916 3.82341 31.535 5.07451 31.3746 6.46461C31.0217 9.62976 31.2998 13.0302 33.1604 15.7355C33.3314 15.9815 33.5025 16.2167 33.6736 16.4413L33.6629 16.4306Z" stroke="#F3FBFD" stroke-width="2.5"/>
<circle cx="28.8544" cy="44.8544" r="10.75" stroke="#F3FBFD" stroke-width="2.5"/>
</g>
<defs>
<clipPath id="clip0_138_4584">
<rect width="56" height="56" fill="white" transform="translate(0.85437 0.85437)"/>
</clipPath>
</defs>
</svg>
