<svg width="109" height="109" viewBox="0 0 109 109" fill="none" xmlns="http://www.w3.org/2000/svg">
<path d="M10 48.0181C10 27.0213 27.0213 10 48.0181 10H59.9819C80.9787 10 98 27.0213 98 48.0181V59.9819C98 80.9787 80.9787 98 59.9819 98H48.0181C27.0213 98 10 80.9787 10 59.9819V48.0181Z" fill="#3418D8"/>
<path d="M56.4922 74.1024L56.4922 75.3524H56.4922L56.4922 74.1024ZM66.7063 59.1669L65.4563 59.1669L66.7063 59.1669ZM56.4922 44.2221L56.4922 42.9721L56.4922 42.9721L56.4922 44.2221ZM51.6389 74.1024L51.6389 75.3524L51.6389 74.1024ZM61.853 59.1669L63.103 59.1669L61.853 59.1669ZM51.6389 44.2314L51.6389 45.4814L51.6389 44.2314ZM41.4247 59.1669L42.6747 59.1669L41.4247 59.1669ZM47.2042 59.4274L45.9542 59.4274L45.9542 60.6774L47.2042 60.6774L47.2042 59.4274ZM47.2042 54.8375V53.5875H45.9542L45.9542 54.8375L47.2042 54.8375ZM51.7941 54.8375L53.0441 54.8374L53.0441 53.5875H51.7941V54.8375ZM56.384 59.4273L57.634 59.4273L57.634 58.1773L56.384 58.1773L56.384 59.4273ZM56.3841 64.0173L56.3841 65.2673L57.6341 65.2673L57.6341 64.0173L56.3841 64.0173ZM51.7945 64.0173L50.5445 64.0173L50.5445 65.2673L51.7945 65.2673L51.7945 64.0173ZM32.7921 43.7298C32.9698 44.3969 33.6546 44.7936 34.3217 44.616L45.1928 41.7209C45.8599 41.5432 46.2567 40.8584 46.079 40.1913C45.9013 39.5242 45.2165 39.1274 44.5494 39.3051L34.8862 41.8785L32.3128 32.2153C32.1351 31.5482 31.4503 31.1514 30.7832 31.3291C30.1161 31.5067 29.7193 32.1915 29.897 32.8587L32.7921 43.7298ZM52.5677 75.3524H56.4922V72.8524H52.5677V75.3524ZM56.4922 75.3524C59.8464 75.3524 62.743 73.3622 64.7467 70.4316C66.7546 67.4948 67.9563 63.5078 67.9563 59.1669L65.4563 59.1669C65.4563 63.0698 64.3718 66.5505 62.683 69.0206C60.99 71.4968 58.7795 72.8524 56.4922 72.8524L56.4922 75.3524ZM67.9563 59.1669C67.9563 54.8261 66.7546 50.8369 64.747 47.898C62.7436 44.9654 59.8471 42.9721 56.4922 42.9721L56.4922 45.4721C58.7787 45.4721 60.9893 46.8293 62.6827 49.3081C64.3717 51.7807 65.4563 55.2639 65.4563 59.1669L67.9563 59.1669ZM56.4922 42.9721L52.5677 42.9721L52.5677 45.4721L56.4922 45.4721L56.4922 42.9721ZM51.6389 75.3524C54.9926 75.3524 57.8892 73.3638 59.8931 70.4335C61.9012 67.4973 63.103 63.5101 63.103 59.1669L60.603 59.1669C60.603 63.0724 59.5183 66.553 57.8296 69.0223C56.1367 71.4977 53.9263 72.8524 51.6389 72.8524L51.6389 75.3524ZM63.103 59.1669C63.103 54.8237 61.9012 50.8365 59.8931 47.9003C57.8892 44.97 54.9926 42.9814 51.6389 42.9814L51.6389 45.4814C53.9263 45.4814 56.1367 46.8361 57.8296 49.3115C59.5183 51.7808 60.603 55.2614 60.603 59.1669L63.103 59.1669ZM51.6389 42.9814C48.2851 42.9814 45.3885 44.97 43.3846 47.9003C41.3765 50.8365 40.1747 54.8237 40.1747 59.1669L42.6747 59.1669C42.6747 55.2614 43.7594 51.7808 45.4481 49.3115C47.141 46.8361 49.3515 45.4814 51.6389 45.4814L51.6389 42.9814ZM40.1747 59.1669C40.1747 63.5101 41.3765 67.4973 43.3846 70.4335C45.3885 73.3638 48.2851 75.3524 51.6389 75.3524L51.6389 72.8524C49.3515 72.8524 47.141 71.4977 45.4481 69.0223C43.7594 66.553 42.6747 63.0724 42.6747 59.1669L40.1747 59.1669ZM48.4542 59.4274L48.4542 54.8374L45.9542 54.8375L45.9542 59.4274L48.4542 59.4274ZM47.2042 56.0875H51.7941V53.5875H47.2042V56.0875ZM50.5441 54.8375C50.5441 58.0627 53.1587 60.6773 56.384 60.6773L56.384 58.1773C54.5394 58.1773 53.0441 56.682 53.0441 54.8374L50.5441 54.8375ZM55.134 59.4273L55.1341 64.0173L57.6341 64.0173L57.634 59.4273L55.134 59.4273ZM56.3841 62.7673L51.7945 62.7673L51.7945 65.2673L56.3841 65.2673L56.3841 62.7673ZM53.0445 64.0173C53.0445 60.7919 50.4294 58.1774 47.2042 58.1774L47.2042 60.6774C49.0489 60.6774 50.5445 62.1728 50.5445 64.0173L53.0445 64.0173ZM77.633 55.118C77.633 41.6789 66.9025 30.75 53.6254 30.75V33.25C65.4849 33.25 75.133 43.0225 75.133 55.118H77.633ZM53.6254 30.75C44.7938 30.75 37.0848 35.5905 32.9184 42.7814L35.0816 44.0347C38.826 37.5721 45.7347 33.25 53.6254 33.25V30.75Z" fill="#F3FBFD"/>
</svg>
