<svg width="109" height="109" viewBox="0 0 109 109" fill="none" xmlns="http://www.w3.org/2000/svg">
<path d="M10 48.0181C10 27.0213 27.0213 10 48.0181 10H59.9819C80.9787 10 98 27.0213 98 48.0181V59.9819C98 80.9787 80.9787 98 59.9819 98H48.0181C27.0213 98 10 80.9787 10 59.9819V48.0181Z" fill="#303D48" fill-opacity="0.5"/>
<g clip-path="url(#clip0_117_5510)">
<mask id="path-3-inside-1_117_5510" fill="white">
<path d="M53.7891 78.0002L46.5491 78.0002C35.4607 78.0002 28.9995 67.2505 28.9995 54.0076C28.9995 40.7646 35.4607 30 46.5491 30L53.7891 30"/>
</mask>
<path d="M46.5491 30L46.5491 27.5L46.5491 30ZM53.7891 75.5002L46.5491 75.5002L46.5491 80.5002L53.7891 80.5002L53.7891 75.5002ZM46.5491 75.5002C41.9295 75.5002 38.2694 73.3058 35.6728 69.5486C33.0298 65.7244 31.4995 60.2594 31.4995 54.0076L26.4995 54.0076C26.4995 60.9988 28.1998 67.53 31.5595 72.3914C34.9656 77.3198 40.0804 80.5002 46.5491 80.5002L46.5491 75.5002ZM31.4995 54.0076C31.4995 47.7557 33.0298 42.2865 35.6734 38.4582C38.2707 34.6968 41.9309 32.5 46.5491 32.5L46.5491 27.5C40.079 27.5 34.9643 30.6855 31.559 35.6171C28.1998 40.4819 26.4995 47.0164 26.4995 54.0076L31.4995 54.0076ZM46.5491 32.5L53.7891 32.5L53.7891 27.5L46.5491 27.5L46.5491 32.5Z" fill="#F3FBFD" mask="url(#path-3-inside-1_117_5510)"/>
<path d="M50 43.8945V65.3683" stroke="#F3FBFD" stroke-width="2.5"/>
<path d="M56.3164 47.6841V65.3684" stroke="#F3FBFD" stroke-width="2.5"/>
<path d="M62.6309 56.1743L62.6309 65.3684" stroke="#F3FBFD" stroke-width="2.5"/>
<path d="M61 48L78 64" stroke="#F3FBFD" stroke-width="2.5"/>
<path d="M70 63.918L78.2053 64.2052L77.918 55.9999" stroke="#F3FBFD" stroke-width="2.5" stroke-miterlimit="10"/>
<path d="M63.8951 70.2945C60.8377 74.4015 56.7726 76.7371 52.5025 76.7371C48.2325 76.7371 44.1674 74.4171 41.11 70.2945C38.0526 66.1876 36.1055 60.4348 36.1055 53.9923C36.1055 47.5498 38.0355 41.8126 41.0929 37.7057C44.1674 33.5831 48.2154 31.2632 52.4854 31.2632C56.7555 31.2632 60.8206 33.5831 63.878 37.7057" stroke="#F3FBFD" stroke-width="2.5"/>
</g>
<defs>
<clipPath id="clip0_117_5510">
<rect width="56" height="56" fill="white" transform="translate(26 26)"/>
</clipPath>
</defs>
</svg>
