<svg width="109" height="109" viewBox="0 0 109 109" fill="none" xmlns="http://www.w3.org/2000/svg">
<path d="M10 48.0181C10 27.0213 27.0213 10 48.0181 10H59.9819C80.9787 10 98 27.0213 98 48.0181V59.9819C98 80.9787 80.9787 98 59.9819 98H48.0181C27.0213 98 10 80.9787 10 59.9819V48.0181Z" fill="#303D48" fill-opacity="0.5"/>
<g clip-path="url(#clip0_117_5234)">
<mask id="path-3-inside-1_117_5234" fill="white">
<path d="M64.1313 59.0332V61.8286C64.1313 65.847 59.3648 69.1041 53.4928 69.1041C47.6207 69.1041 42.8477 65.847 42.8477 61.8286V59.0332"/>
</mask>
<path d="M61.6313 59.0332V61.8286H66.6313V59.0332H61.6313ZM61.6313 61.8286C61.6313 62.7708 61.0742 63.9036 59.603 64.9095C58.1441 65.907 55.9908 66.6041 53.4928 66.6041V71.6041C56.8667 71.6041 60.0327 70.6727 62.425 69.037C64.8051 67.4097 66.6313 64.9048 66.6313 61.8286H61.6313ZM53.4928 66.6041C50.9946 66.6041 48.8393 65.9069 47.3784 64.9089C45.9048 63.9023 45.3477 62.7694 45.3477 61.8286H40.3477C40.3477 64.9062 42.177 67.411 44.558 69.0376C46.9517 70.6727 50.1189 71.6041 53.4928 71.6041V66.6041ZM45.3477 61.8286V59.0332H40.3477V61.8286H45.3477Z" fill="#F3FBFD" mask="url(#path-3-inside-1_117_5234)"/>
<path d="M62.8805 47.4093C62.8805 48.8852 62.0067 50.361 60.3089 51.522C58.6172 52.679 56.2109 53.4348 53.492 53.4348C50.7731 53.4348 48.3668 52.679 46.6751 51.522C44.9773 50.361 44.1035 48.8852 44.1035 47.4093C44.1035 45.9334 44.9773 44.4576 46.6751 43.2965C48.3668 42.1396 50.7731 41.3838 53.492 41.3838C56.2109 41.3838 58.6172 42.1396 60.3089 43.2965C62.0067 44.4576 62.8805 45.9334 62.8805 47.4093Z" stroke="#F3FBFD" stroke-width="2.5"/>
<mask id="path-6-inside-2_117_5234" fill="white">
<path d="M64.1313 54.5835V57.3789C64.1313 61.3973 59.3648 64.6544 53.4928 64.6544C47.6207 64.6544 42.8477 61.3973 42.8477 57.3789V54.5835"/>
</mask>
<path d="M61.6313 54.5835V57.3789H66.6313V54.5835H61.6313ZM61.6313 57.3789C61.6313 58.3211 61.0742 59.4539 59.603 60.4598C58.1441 61.4573 55.9908 62.1544 53.4928 62.1544V67.1544C56.8667 67.1544 60.0327 66.223 62.425 64.5873C64.8051 62.96 66.6313 60.4551 66.6313 57.3789H61.6313ZM53.4928 62.1544C50.9946 62.1544 48.8393 61.4572 47.3784 60.4592C45.9048 59.4526 45.3477 58.3197 45.3477 57.3789H40.3477C40.3477 60.4565 42.177 62.9613 44.558 64.5879C46.9517 66.223 50.1189 67.1544 53.4928 67.1544V62.1544ZM45.3477 57.3789V54.5835H40.3477V57.3789H45.3477Z" fill="#F3FBFD" mask="url(#path-6-inside-2_117_5234)"/>
<mask id="path-8-inside-3_117_5234" fill="white">
<path d="M64.1313 49.7573V52.5527C64.1313 56.5711 59.3648 59.8282 53.4928 59.8282C47.6207 59.8282 42.8477 56.5711 42.8477 52.5527V49.7573"/>
</mask>
<path d="M61.6313 49.7573V52.5527H66.6313V49.7573H61.6313ZM61.6313 52.5527C61.6313 53.495 61.0742 54.6278 59.603 55.6336C58.1441 56.6311 55.9908 57.3282 53.4928 57.3282V62.3282C56.8667 62.3282 60.0327 61.3968 62.425 59.7611C64.8051 58.1338 66.6313 55.6289 66.6313 52.5527H61.6313ZM53.4928 57.3282C50.9946 57.3282 48.8393 56.631 47.3784 55.6331C45.9048 54.6265 45.3477 53.4935 45.3477 52.5527H40.3477C40.3477 55.6303 42.177 58.1352 44.558 59.7617C46.9517 61.3968 50.1189 62.3282 53.4928 62.3282V57.3282ZM45.3477 52.5527V49.7573H40.3477V52.5527H45.3477Z" fill="#F3FBFD" mask="url(#path-8-inside-3_117_5234)"/>
<path d="M26.998 55.0638C26.998 40.1174 38.9265 28 53.6399 28C63.4282 28 71.9846 33.3633 76.6151 41.3552" stroke="#F3FBFD" stroke-width="2.5" stroke-miterlimit="10"/>
<path d="M69.5 40.7129L77.3514 43.1141L79.1976 35.114" stroke="#F3FBFD" stroke-width="2.5" stroke-miterlimit="10"/>
<path d="M79.9991 54.064C79.9991 68.3876 68.1303 80.0001 53.4905 80.0001C44.3397 80.0001 36.2736 75.4643 31.5098 68.5667" stroke="#F3FBFD" stroke-width="2.5" stroke-miterlimit="10"/>
<path d="M38.6973 69.2007L30.8459 66.7995L28.9997 74.7996" stroke="#F3FBFD" stroke-width="2.5" stroke-miterlimit="10"/>
</g>
<defs>
<clipPath id="clip0_117_5234">
<rect width="56" height="56" fill="white" transform="translate(26 26)"/>
</clipPath>
</defs>
</svg>
