<svg width="109" height="109" viewBox="0 0 109 109" fill="none" xmlns="http://www.w3.org/2000/svg">
<path d="M10 48.0181C10 27.0213 27.0213 10 48.0181 10H59.9819C80.9787 10 98 27.0213 98 48.0181V59.9819C98 80.9787 80.9787 98 59.9819 98H48.0181C27.0213 98 10 80.9787 10 59.9819V48.0181Z" fill="#3418D8"/>
<path d="M65.6526 68.6584C64.7416 72.2415 60.4042 75 52.1093 75C43.8144 75 36.1655 71.2153 36.1655 65.3448V61.2068M57.1132 69.4757C55.1753 69.9425 53.8087 69.9425 51.9167 69.9425C46.1873 69.9425 36.1655 66.0314 36.1655 60.2873C36.1655 58.9081 37.4093 57.5288 38.3716 56.991M74 54.3104V59.9558C74 66.0288 68.0211 69.5719 59.2284 69.5719C50.4358 69.5719 42.7851 66.2643 43.2886 60.4155M48.7978 62.0016C51.0754 63.9656 56.2091 64.4254 59.3979 64.4254C67.4486 64.4254 73.9751 59.8968 73.9751 54.3104C73.9751 48.7241 68.9642 46.4943 67.8698 45.9955M67.8698 45.9955C67.8698 52.0681 60.7377 56.991 51.9398 56.991C43.142 56.991 36.0099 52.0681 36.0099 45.9955C36.0099 39.9228 43.142 35 51.9398 35C60.7377 35 67.8698 39.9228 67.8698 45.9955ZM67.8698 46.9953V51.2201C67.8698 57.2931 60.7325 62.2155 51.9398 62.2155C43.1472 62.2155 36 57.2931 36 51.2201V46.9953M52.2177 41.2216H47.3221V46.1626C50.0258 46.1626 52.2176 48.3748 52.2176 51.1036L57.1132 51.1037L57.1132 46.163C54.4095 46.163 52.2177 43.9505 52.2177 41.2216Z" stroke="#F3FBFD" stroke-width="2.5"/>
</svg>
