<svg width="109" height="109" viewBox="0 0 109 109" fill="none" xmlns="http://www.w3.org/2000/svg">
<path d="M10 48.0181C10 27.0213 27.0213 10 48.0181 10H59.9819C80.9787 10 98 27.0213 98 48.0181V59.9819C98 80.9787 80.9787 98 59.9819 98H48.0181C27.0213 98 10 80.9787 10 59.9819V48.0181Z" fill="#303D48" fill-opacity="0.5"/>
<g clip-path="url(#clip0_53_2577)">
<path d="M69.7293 50.2339C69.7293 53.0027 68.0892 55.649 65.1525 57.6574C62.2219 59.6616 58.104 60.9415 53.4945 60.9415C48.8851 60.9415 44.7672 59.6616 41.8366 57.6574C38.8999 55.649 37.2598 53.0027 37.2598 50.2339C37.2598 47.4651 38.8999 44.8188 41.8366 42.8104C44.7672 40.8062 48.8851 39.5264 53.4945 39.5264C58.104 39.5264 62.2219 40.8062 65.1525 42.8104C68.0892 44.8188 69.7293 47.4651 69.7293 50.2339Z" stroke="#F3FBFD" stroke-width="2.5"/>
<path d="M53.7991 45.0425H48.4258V50.4158C51.3934 50.4158 53.7991 52.8215 53.7991 55.7891L59.1725 55.7892L59.1725 50.4162C56.2049 50.4162 53.7991 48.0101 53.7991 45.0425Z" stroke="#F3FBFD" stroke-width="2.5"/>
<mask id="path-5-inside-1_53_2577" fill="white">
<path d="M70.9785 51.3213V55.9156C70.9785 62.52 63.1446 67.8732 53.4937 67.8732C43.8428 67.8732 35.998 62.52 35.998 55.9156V51.3213"/>
</mask>
<path d="M68.4785 51.3213V55.9156H73.4785V51.3213H68.4785ZM68.4785 55.9156C68.4785 58.1509 67.1546 60.4542 64.4442 62.3073C61.7461 64.1521 57.8812 65.3732 53.4937 65.3732V70.3732C58.7571 70.3732 63.6346 68.9177 67.2662 66.4348C70.8855 63.9603 73.4785 60.2848 73.4785 55.9156H68.4785ZM53.4937 65.3732C49.1061 65.3732 45.2382 64.152 42.537 62.3068C39.8232 60.4529 38.498 58.1495 38.498 55.9156H33.498C33.498 60.2862 36.0953 63.9616 39.7166 66.4354C43.3505 68.9178 48.2304 70.3732 53.4937 70.3732V65.3732ZM38.498 55.9156V51.3213H33.498V55.9156H38.498Z" fill="#F3FBFD" mask="url(#path-5-inside-1_53_2577)"/>
<path d="M26.998 55.0638C26.998 40.1174 38.9265 28 53.6399 28C63.4282 28 71.9846 33.3633 76.6151 41.3552" stroke="#F3FBFD" stroke-width="2.5" stroke-miterlimit="10"/>
<path d="M69.5 40.7129L77.3514 43.1141L79.1976 35.114" stroke="#F3FBFD" stroke-width="2.5" stroke-miterlimit="10"/>
<path d="M79.9991 54.064C79.9991 68.3876 68.1303 80.0001 53.4905 80.0001C44.3397 80.0001 36.2736 75.4643 31.5098 68.5667" stroke="#F3FBFD" stroke-width="2.5" stroke-miterlimit="10"/>
<path d="M38.6973 69.2007L30.8459 66.7995L28.9997 74.7996" stroke="#F3FBFD" stroke-width="2.5" stroke-miterlimit="10"/>
</g>
<defs>
<clipPath id="clip0_53_2577">
<rect width="56" height="56" fill="white" transform="translate(26 26)"/>
</clipPath>
</defs>
</svg>
