<svg width="109" height="109" viewBox="0 0 109 109" fill="none" xmlns="http://www.w3.org/2000/svg">
<path d="M10 48.0181C10 27.0213 27.0213 10 48.0181 10H59.9819C80.9787 10 98 27.0213 98 48.0181V59.9819C98 80.9787 80.9787 98 59.9819 98H48.0181C27.0213 98 10 80.9787 10 59.9819V48.0181Z" fill="#3418D8"/>
<path d="M59.9451 47H55.0006C53.2317 47 51.8037 48.4517 51.8037 50.25C51.8037 52.0483 53.2317 53.5 55.0006 53.5H56.7482C58.5171 53.5 59.9451 54.9517 59.9451 56.75C59.9451 58.5483 58.5171 60 56.7482 60H50.9451M55.1831 73.1538C41.8622 60.8365 35 54.5769 35 47.1058C35 40.8462 39.8439 36 46.1007 36C49.5318 36 52.9629 37.6154 55.1831 40.2404C57.4032 37.6154 60.8343 36 64.2654 36C70.5222 36 75.3661 40.8462 75.3661 47.1058C75.3661 54.7788 68.5039 61.0385 55.1831 73.1538Z" stroke="#F3FBFD" stroke-width="2.5"/>
</svg>
