<svg width="199" height="74" viewBox="0 0 199 74" fill="none" xmlns="http://www.w3.org/2000/svg">
<rect y="0.138672" width="198.173" height="72.9402" rx="8" fill="#E0FB92"/>
<path d="M38.4273 47.955C37.635 47.9143 36.8895 47.5869 36.3446 47.0405C35.6927 46.4462 35.1109 45.7864 34.6096 45.0729C33.8265 44.0104 33.2075 42.8473 32.7714 41.619C32.2777 40.2975 32.018 38.9078 32.0028 37.506C31.9644 36.1306 32.3239 34.7715 33.0422 33.5758C33.5684 32.7139 34.3188 31.9942 35.222 31.4853C36.1151 30.9785 37.1344 30.7058 38.1753 30.6949C38.96 30.7389 39.7312 30.9088 40.4558 31.1975C41.0342 31.4387 41.6415 31.6082 42.2651 31.7013C42.9531 31.5648 43.6253 31.3649 44.2722 31.1044C45.0379 30.8211 45.8485 30.6625 46.6699 30.6352C46.7796 30.6352 46.8879 30.6352 46.9925 30.6471C48.7942 30.6961 50.47 31.5342 51.5283 32.9155C50.7023 33.3342 50.015 33.9616 49.5428 34.7282C49.0706 35.4947 48.832 36.3704 48.8535 37.2577C48.8452 37.9362 48.9888 38.6087 49.2749 39.2308C49.5609 39.8529 49.9828 40.4105 50.5128 40.8669C50.9953 41.3023 51.5571 41.6514 52.1709 41.8972C52.0449 42.2553 51.9 42.6016 51.7463 42.9502C51.3973 43.7206 50.9667 44.4554 50.4612 45.1434C49.9831 45.8326 49.4267 46.4699 48.8018 47.044C48.2318 47.58 47.4721 47.8961 46.6699 47.9311C45.99 47.9026 45.3221 47.7514 44.7019 47.4858C44.0331 47.2097 43.3144 47.0585 42.5852 47.0405C41.8354 47.0545 41.0954 47.2048 40.4054 47.4834C39.8095 47.7382 39.1729 47.8967 38.5218 47.9526L38.4273 47.955ZM42.3962 30.6352C42.3017 30.6352 42.2072 30.6352 42.1127 30.6245C42.0928 30.4823 42.0823 30.3392 42.0812 30.1959C42.1224 29.0033 42.6142 27.8645 43.4671 26.9867C43.9442 26.4822 44.5224 26.0727 45.1681 25.782C45.7698 25.4885 46.4273 25.312 47.1021 25.2627C47.121 25.4191 47.121 25.5719 47.121 25.7176C47.1033 26.8914 46.6378 28.0194 45.8107 28.8933C45.4101 29.4022 44.8969 29.8218 44.3071 30.1227C43.7172 30.4236 43.065 30.5986 42.3962 30.6352Z" fill="#141414"/>
<path d="M64.6821 30.6089V19.6114H67.4314C69.1302 19.6114 70.4211 20.0864 71.304 21.0364C72.187 21.9752 72.6284 23.3163 72.6284 25.0598C72.6284 26.8145 72.187 28.178 71.304 29.1504C70.4323 30.1227 69.1638 30.6089 67.4985 30.6089H64.6821ZM66.0735 29.4689H67.3308C68.6161 29.4689 69.5773 29.0833 70.2143 28.3121C70.8626 27.5298 71.1867 26.4457 71.1867 25.0598C71.1867 23.674 70.8626 22.6122 70.2143 21.8746C69.5773 21.1258 68.6161 20.7514 67.3308 20.7514H66.0735V29.4689ZM78.0305 30.8101C77.3711 30.8101 76.7508 30.6424 76.1697 30.3071C75.5997 29.9718 75.1359 29.4857 74.7782 28.8486C74.4318 28.2116 74.2585 27.446 74.2585 26.5519C74.2585 25.6354 74.4318 24.8587 74.7782 24.2216C75.1359 23.5846 75.5997 23.0984 76.1697 22.7631C76.7508 22.4278 77.3711 22.2602 78.0305 22.2602C78.7011 22.2602 79.3214 22.4278 79.8914 22.7631C80.4614 23.0984 80.9196 23.5846 81.2661 24.2216C81.6237 24.8587 81.8025 25.6354 81.8025 26.5519C81.8025 27.446 81.6237 28.2116 81.2661 28.8486C80.9196 29.4857 80.4614 29.9718 79.8914 30.3071C79.3214 30.6424 78.7011 30.8101 78.0305 30.8101ZM78.0305 29.6701C78.7346 29.6701 79.299 29.3851 79.7237 28.8151C80.1596 28.2339 80.3776 27.4795 80.3776 26.5519C80.3776 25.6131 80.1596 24.8531 79.7237 24.2719C79.299 23.6907 78.7346 23.4001 78.0305 23.4001C77.3376 23.4001 76.7732 23.6907 76.3373 24.2719C75.9014 24.8531 75.6835 25.6131 75.6835 26.5519C75.6835 27.4795 75.9014 28.2339 76.3373 28.8151C76.7732 29.3851 77.3376 29.6701 78.0305 29.6701ZM85.1737 30.6089L82.9104 22.4613H84.3187L85.5257 27.1722C85.6151 27.5522 85.6989 27.9322 85.7772 28.3121C85.8554 28.681 85.9336 29.0554 86.0119 29.4354H86.0789C86.1684 29.0554 86.2578 28.681 86.3472 28.3121C86.4366 27.9322 86.5316 27.5522 86.6322 27.1722L87.8895 22.4613H89.2307L90.5048 27.1722C90.6054 27.5522 90.7004 27.9322 90.7898 28.3121C90.8904 28.681 90.9854 29.0554 91.0748 29.4354H91.1418C91.2312 29.0554 91.3151 28.681 91.3933 28.3121C91.4827 27.9322 91.5665 27.5522 91.6448 27.1722L92.835 22.4613H94.1427L91.9633 30.6089H90.2868L89.1133 26.2333C89.0127 25.8422 88.9177 25.4566 88.8283 25.0766C88.7501 24.6966 88.6607 24.2998 88.5601 23.8863H88.493C88.4036 24.2998 88.3142 24.7022 88.2248 25.0934C88.1354 25.4734 88.0348 25.8589 87.923 26.2501L86.783 30.6089H85.1737ZM95.9159 30.6089V22.4613H97.0559L97.1732 23.6348H97.2235C97.6147 23.2437 98.0282 22.9196 98.4641 22.6625C98.9 22.3943 99.3973 22.2602 99.9562 22.2602C100.817 22.2602 101.443 22.534 101.834 23.0816C102.236 23.6181 102.437 24.406 102.437 25.4454V30.6089H101.063V25.6298C101.063 24.8698 100.94 24.3166 100.694 23.9701C100.448 23.6237 100.057 23.4504 99.5203 23.4504C99.1068 23.4504 98.7323 23.5566 98.3971 23.769C98.0729 23.9813 97.7041 24.2943 97.2906 24.7078V30.6089H95.9159ZM106.543 30.8101C106.028 30.8101 105.654 30.6536 105.419 30.3407C105.196 30.0165 105.084 29.5583 105.084 28.966V18.6726H106.459V29.0666C106.459 29.2789 106.498 29.4354 106.576 29.536C106.654 29.6254 106.744 29.6701 106.844 29.6701C106.889 29.6701 106.928 29.6701 106.962 29.6701C107.006 29.6589 107.068 29.6477 107.146 29.6365L107.33 30.6759C107.241 30.7207 107.135 30.7542 107.012 30.7765C106.889 30.7989 106.733 30.8101 106.543 30.8101ZM112.525 30.8101C111.866 30.8101 111.246 30.6424 110.665 30.3071C110.095 29.9718 109.631 29.4857 109.273 28.8486C108.927 28.2116 108.753 27.446 108.753 26.5519C108.753 25.6354 108.927 24.8587 109.273 24.2216C109.631 23.5846 110.095 23.0984 110.665 22.7631C111.246 22.4278 111.866 22.2602 112.525 22.2602C113.196 22.2602 113.816 22.4278 114.386 22.7631C114.956 23.0984 115.415 23.5846 115.761 24.2216C116.119 24.8587 116.297 25.6354 116.297 26.5519C116.297 27.446 116.119 28.2116 115.761 28.8486C115.415 29.4857 114.956 29.9718 114.386 30.3071C113.816 30.6424 113.196 30.8101 112.525 30.8101ZM112.525 29.6701C113.23 29.6701 113.794 29.3851 114.219 28.8151C114.655 28.2339 114.873 27.4795 114.873 26.5519C114.873 25.6131 114.655 24.8531 114.219 24.2719C113.794 23.6907 113.23 23.4001 112.525 23.4001C111.833 23.4001 111.268 23.6907 110.832 24.2719C110.396 24.8531 110.178 25.6131 110.178 26.5519C110.178 27.4795 110.396 28.2339 110.832 28.8151C111.268 29.3851 111.833 29.6701 112.525 29.6701ZM120.092 30.8101C119.41 30.8101 118.84 30.6089 118.382 30.2065C117.935 29.793 117.711 29.223 117.711 28.4966C117.711 27.6025 118.108 26.9207 118.901 26.4513C119.706 25.9707 120.975 25.6354 122.707 25.4454C122.707 25.099 122.657 24.7692 122.556 24.4563C122.467 24.1434 122.299 23.8919 122.053 23.7019C121.818 23.5007 121.478 23.4001 121.03 23.4001C120.561 23.4001 120.12 23.4896 119.706 23.6684C119.293 23.8472 118.924 24.0484 118.6 24.2719L118.063 23.3163C118.443 23.0704 118.907 22.8357 119.455 22.6122C120.013 22.3775 120.617 22.2602 121.265 22.2602C122.26 22.2602 122.981 22.5675 123.428 23.1822C123.875 23.7857 124.098 24.596 124.098 25.6131V30.6089H122.958L122.841 29.6365H122.791C122.411 29.9495 121.992 30.2233 121.533 30.458C121.086 30.6927 120.606 30.8101 120.092 30.8101ZM120.494 29.7036C120.885 29.7036 121.254 29.6086 121.6 29.4186C121.947 29.2286 122.316 28.9604 122.707 28.6139V26.3507C121.355 26.5183 120.405 26.7698 119.857 27.1051C119.32 27.4404 119.052 27.8707 119.052 28.396C119.052 28.8542 119.192 29.1895 119.471 29.4018C119.751 29.603 120.092 29.7036 120.494 29.7036ZM129.445 30.8101C128.428 30.8101 127.612 30.4412 126.997 29.7036C126.382 28.9548 126.075 27.9042 126.075 26.5519C126.075 25.6689 126.237 24.909 126.561 24.2719C126.896 23.6237 127.332 23.1263 127.869 22.7799C128.416 22.4334 128.998 22.2602 129.612 22.2602C130.082 22.2602 130.49 22.344 130.836 22.5116C131.183 22.6793 131.535 22.9084 131.892 23.199L131.825 21.8075V18.6726H133.217V30.6089H132.077L131.959 29.6533H131.909C131.596 29.9662 131.227 30.2401 130.803 30.4748C130.378 30.6983 129.925 30.8101 129.445 30.8101ZM129.746 29.6533C130.462 29.6533 131.155 29.2789 131.825 28.5301V24.2719C131.479 23.959 131.143 23.741 130.819 23.6181C130.506 23.484 130.182 23.4169 129.847 23.4169C129.411 23.4169 129.014 23.551 128.657 23.8193C128.31 24.0763 128.031 24.4395 127.819 24.909C127.606 25.3672 127.5 25.9092 127.5 26.5351C127.5 27.5075 127.696 28.273 128.087 28.8318C128.478 29.3795 129.031 29.6533 129.746 29.6533ZM142.485 30.8101C141.826 30.8101 141.206 30.6424 140.625 30.3071C140.055 29.9718 139.591 29.4857 139.233 28.8486C138.887 28.2116 138.713 27.446 138.713 26.5519C138.713 25.6354 138.887 24.8587 139.233 24.2216C139.591 23.5846 140.055 23.0984 140.625 22.7631C141.206 22.4278 141.826 22.2602 142.485 22.2602C143.156 22.2602 143.776 22.4278 144.346 22.7631C144.916 23.0984 145.375 23.5846 145.721 24.2216C146.079 24.8587 146.258 25.6354 146.258 26.5519C146.258 27.446 146.079 28.2116 145.721 28.8486C145.375 29.4857 144.916 29.9718 144.346 30.3071C143.776 30.6424 143.156 30.8101 142.485 30.8101ZM142.485 29.6701C143.19 29.6701 143.754 29.3851 144.179 28.8151C144.615 28.2339 144.833 27.4795 144.833 26.5519C144.833 25.6131 144.615 24.8531 144.179 24.2719C143.754 23.6907 143.19 23.4001 142.485 23.4001C141.793 23.4001 141.228 23.6907 140.792 24.2719C140.356 24.8531 140.138 25.6131 140.138 26.5519C140.138 27.4795 140.356 28.2339 140.792 28.8151C141.228 29.3851 141.793 29.6701 142.485 29.6701ZM148.403 30.6089V22.4613H149.543L149.661 23.6348H149.711C150.102 23.2437 150.516 22.9196 150.951 22.6625C151.387 22.3943 151.885 22.2602 152.443 22.2602C153.304 22.2602 153.93 22.534 154.321 23.0816C154.723 23.6181 154.925 24.406 154.925 25.4454V30.6089H153.55V25.6298C153.55 24.8698 153.427 24.3166 153.181 23.9701C152.935 23.6237 152.544 23.4504 152.008 23.4504C151.594 23.4504 151.22 23.5566 150.884 23.769C150.56 23.9813 150.191 24.2943 149.778 24.7078V30.6089H148.403ZM68.2409 45.3379L67.8884 46.6599H70.951L70.6205 45.3379C70.4296 44.6181 70.2313 43.8543 70.0256 43.0464C69.8347 42.2385 69.6437 41.46 69.4528 40.7109H69.3646C69.1884 41.4747 69.0047 42.2606 68.8138 43.0684C68.6375 43.8616 68.4466 44.6181 68.2409 45.3379ZM63.041 52.6089L67.5359 38.2431H71.4358L75.9306 52.6089H72.4934L71.612 49.1937H67.2274L66.3461 52.6089H63.041ZM77.2359 56.663V41.6803H79.8799L80.1002 42.76H80.1883C80.6143 42.3781 81.0917 42.0623 81.6205 41.8125C82.164 41.5481 82.7222 41.4159 83.295 41.4159C84.617 41.4159 85.66 41.9227 86.4238 42.9362C87.1876 43.9351 87.5695 45.2791 87.5695 46.9683C87.5695 48.2169 87.3492 49.2818 86.9085 50.1632C86.4678 51.0445 85.895 51.7202 85.1899 52.1903C84.4995 52.6456 83.7577 52.8733 82.9645 52.8733C82.4945 52.8733 82.0391 52.7778 81.5985 52.5869C81.1578 52.3812 80.7465 52.0948 80.3646 51.7276L80.4748 53.4682V56.663H77.2359ZM82.2154 50.2293C82.7736 50.2293 83.251 49.9722 83.6476 49.4581C84.0442 48.944 84.2425 48.1288 84.2425 47.0124C84.2425 45.0441 83.6109 44.0599 82.3476 44.0599C81.716 44.0599 81.0917 44.3904 80.4748 45.0514V49.5242C80.7685 49.7886 81.0623 49.9722 81.3561 50.0751C81.6499 50.1779 81.9363 50.2293 82.2154 50.2293ZM89.8663 56.663V41.6803H92.5103L92.7307 42.76H92.8188C93.2448 42.3781 93.7222 42.0623 94.251 41.8125C94.7944 41.5481 95.3526 41.4159 95.9255 41.4159C97.2475 41.4159 98.2904 41.9227 99.0542 42.9362C99.818 43.9351 100.2 45.2791 100.2 46.9683C100.2 48.2169 99.9796 49.2818 99.539 50.1632C99.0983 51.0445 98.5254 51.7202 97.8204 52.1903C97.13 52.6456 96.3882 52.8733 95.595 52.8733C95.1249 52.8733 94.6696 52.7778 94.2289 52.5869C93.7883 52.3812 93.377 52.0948 92.9951 51.7276L93.1052 53.4682V56.663H89.8663ZM94.8459 50.2293C95.404 50.2293 95.8814 49.9722 96.278 49.4581C96.6746 48.944 96.8729 48.1288 96.8729 47.0124C96.8729 45.0441 96.2413 44.0599 94.9781 44.0599C94.3464 44.0599 93.7222 44.3904 93.1052 45.0514V49.5242C93.399 49.7886 93.6928 49.9722 93.9866 50.0751C94.2803 50.1779 94.5668 50.2293 94.8459 50.2293ZM111.557 52.8733C110.617 52.8733 109.677 52.697 108.737 52.3445C107.811 51.992 106.981 51.4778 106.247 50.8022L108.098 48.5768C108.612 49.0174 109.185 49.3773 109.816 49.6564C110.448 49.9355 111.057 50.0751 111.645 50.0751C112.321 50.0751 112.82 49.9502 113.143 49.7005C113.481 49.4508 113.65 49.1129 113.65 48.6869C113.65 48.2316 113.459 47.9011 113.077 47.6954C112.71 47.4751 112.21 47.2327 111.579 46.9683L109.706 46.1751C109.221 45.9695 108.759 45.6978 108.318 45.3599C107.877 45.0074 107.517 44.5741 107.238 44.0599C106.959 43.5458 106.82 42.9436 106.82 42.2532C106.82 41.46 107.033 40.7403 107.459 40.0939C107.899 39.4476 108.501 38.9335 109.265 38.5516C110.044 38.1697 110.932 37.9787 111.931 37.9787C112.754 37.9787 113.577 38.1403 114.399 38.4635C115.222 38.7866 115.941 39.2567 116.558 39.8736L114.906 41.9227C114.436 41.5555 113.966 41.2764 113.496 41.0854C113.026 40.8798 112.504 40.777 111.931 40.777C111.373 40.777 110.925 40.8945 110.587 41.1295C110.264 41.3498 110.103 41.6657 110.103 42.0769C110.103 42.5176 110.308 42.8481 110.72 43.0684C111.145 43.2888 111.667 43.5238 112.284 43.7735L114.135 44.5226C115.001 44.8752 115.692 45.3599 116.206 45.9768C116.72 46.5938 116.977 47.409 116.977 48.4225C116.977 49.2157 116.764 49.9502 116.338 50.6259C115.912 51.3016 115.295 51.8451 114.487 52.2564C113.679 52.6676 112.703 52.8733 111.557 52.8733ZM122.735 52.8733C121.384 52.8733 120.414 52.484 119.827 51.7055C119.254 50.927 118.968 49.9061 118.968 48.6429V44.2142H117.469V41.8125L119.144 41.6803L119.518 38.7719H122.206V41.6803H124.828V44.2142H122.206V48.5988C122.206 49.2157 122.331 49.6638 122.581 49.9429C122.845 50.2073 123.191 50.3395 123.617 50.3395C123.793 50.3395 123.969 50.3174 124.145 50.2734C124.336 50.2293 124.505 50.1779 124.652 50.1191L125.159 52.4767C124.88 52.5648 124.535 52.653 124.123 52.7411C123.727 52.8292 123.264 52.8733 122.735 52.8733ZM131.267 52.8733C130.342 52.8733 129.468 52.653 128.645 52.2123C127.837 51.7569 127.184 51.1033 126.684 50.2513C126.185 49.3847 125.935 48.3491 125.935 47.1446C125.935 45.9254 126.185 44.8899 126.684 44.0379C127.184 43.186 127.837 42.5396 128.645 42.099C129.468 41.6436 130.342 41.4159 131.267 41.4159C132.193 41.4159 133.059 41.6436 133.867 42.099C134.675 42.5396 135.329 43.186 135.828 44.0379C136.328 44.8899 136.577 45.9254 136.577 47.1446C136.577 48.3491 136.328 49.3847 135.828 50.2513C135.329 51.1033 134.675 51.7569 133.867 52.2123C133.059 52.653 132.193 52.8733 131.267 52.8733ZM131.267 50.2513C131.928 50.2513 132.428 49.9722 132.766 49.414C133.103 48.8412 133.272 48.0847 133.272 47.1446C133.272 46.1898 133.103 45.4334 132.766 44.8752C132.428 44.317 131.928 44.0379 131.267 44.0379C130.592 44.0379 130.085 44.317 129.747 44.8752C129.424 45.4334 129.262 46.1898 129.262 47.1446C129.262 48.0847 129.424 48.8412 129.747 49.414C130.085 49.9722 130.592 50.2513 131.267 50.2513ZM138.796 52.6089V41.6803H141.44L141.66 43.5972H141.748C142.145 42.8628 142.622 42.3193 143.18 41.9668C143.739 41.5996 144.297 41.4159 144.855 41.4159C145.163 41.4159 145.421 41.438 145.626 41.482C145.832 41.5114 146.008 41.5628 146.155 41.6363L145.626 44.4345C145.435 44.3758 145.244 44.3317 145.053 44.3023C144.877 44.2729 144.671 44.2582 144.436 44.2582C144.025 44.2582 143.592 44.4125 143.136 44.7209C142.696 45.0147 142.329 45.5288 142.035 46.2633V52.6089H138.796ZM152.251 52.8733C151.208 52.8733 150.268 52.6456 149.431 52.1903C148.593 51.7349 147.932 51.0812 147.448 50.2293C146.963 49.3773 146.721 48.3491 146.721 47.1446C146.721 45.9548 146.963 44.9339 147.448 44.082C147.947 43.23 148.593 42.5764 149.387 42.121C150.18 41.651 151.01 41.4159 151.876 41.4159C152.919 41.4159 153.779 41.651 154.454 42.121C155.145 42.5764 155.659 43.2006 155.997 43.9938C156.349 44.7724 156.525 45.661 156.525 46.6599C156.525 46.939 156.511 47.2181 156.481 47.4971C156.452 47.7615 156.423 47.9598 156.393 48.092H149.849C149.996 48.8852 150.327 49.4728 150.841 49.8547C151.355 50.2219 151.972 50.4056 152.692 50.4056C153.47 50.4056 154.256 50.1632 155.049 49.6785L156.129 51.6394C155.571 52.0213 154.946 52.3225 154.256 52.5428C153.566 52.7631 152.897 52.8733 152.251 52.8733ZM149.827 45.9548H153.771C153.771 45.3526 153.624 44.8605 153.331 44.4786C153.052 44.082 152.589 43.8837 151.943 43.8837C151.443 43.8837 150.995 44.0599 150.599 44.4125C150.202 44.7503 149.945 45.2644 149.827 45.9548Z" fill="#141414"/>
</svg>
