<svg width="203" height="74" viewBox="0 0 203 74" fill="none" xmlns="http://www.w3.org/2000/svg">
<rect x="0.173248" y="0.138672" width="202.173" height="72.9402" rx="8" fill="#E0FB92"/>
<g clip-path="url(#clip0_217_254)">
<path fill-rule="evenodd" clip-rule="evenodd" d="M32.6071 25.0562C32.3317 25.3439 32.1732 25.7874 32.1732 26.3633V46.8521C32.1732 47.428 32.3317 47.8715 32.6176 48.1495L32.6922 48.211L44.5015 36.7304V36.4724L32.6822 24.9946L32.6076 25.0562H32.6071Z" fill="url(#paint0_linear_217_254)"/>
<path fill-rule="evenodd" clip-rule="evenodd" d="M48.4307 40.5714L44.4916 36.7409V36.4731L48.4319 32.6426L48.517 32.6939L53.1772 35.2687C54.5118 35.9999 54.5118 37.2047 53.1772 37.9457L48.517 40.5205L48.4307 40.5719V40.5714Z" fill="url(#paint1_linear_217_254)"/>
<path fill-rule="evenodd" clip-rule="evenodd" d="M48.5148 40.5207L44.4907 36.6074L32.6068 48.1606C33.0408 48.6138 33.7712 48.6652 34.5879 48.2221L48.5148 40.5211V40.5207Z" fill="url(#paint2_linear_217_254)"/>
<path fill-rule="evenodd" clip-rule="evenodd" d="M48.5148 32.6955L34.5879 25.0043C33.7728 24.551 33.0412 24.6122 32.6068 25.0654L44.4898 36.6072L48.5153 32.6951L48.5148 32.6955Z" fill="url(#paint3_linear_217_254)"/>
<path opacity="0.2" fill-rule="evenodd" clip-rule="evenodd" d="M48.4304 40.4373L34.5986 48.0771C33.8259 48.5092 33.1366 48.479 32.6922 48.0873L32.6175 48.1599L32.6922 48.2214C33.1366 48.6123 33.8259 48.6433 34.5986 48.2112L48.5255 40.52L48.4304 40.4373Z" fill="#3418D8"/>
<path opacity="0.12" fill-rule="evenodd" clip-rule="evenodd" d="M53.1742 37.8123L48.4184 40.438L48.5035 40.5207L53.1637 37.946C53.8307 37.5755 54.1595 37.092 54.1595 36.6074C54.1171 37.0509 53.7783 37.4727 53.1742 37.8119V37.8123Z" fill="#3418D8"/>
<path opacity="0.25" fill-rule="evenodd" clip-rule="evenodd" d="M34.5882 25.138L53.1753 35.4036C53.7795 35.7329 54.1183 36.165 54.1711 36.608C54.1711 36.1246 53.8428 35.64 53.1753 35.2695L34.5882 25.0039C33.254 24.2625 32.1732 24.88 32.1732 26.3624V26.4965C32.1732 25.0137 33.254 24.4064 34.5882 25.138Z" fill="white"/>
</g>
<path d="M64.8553 30.6089V19.6114H67.6047C69.3035 19.6114 70.5944 20.0864 71.4773 21.0364C72.3602 21.9752 72.8017 23.3163 72.8017 25.0598C72.8017 26.8145 72.3602 28.178 71.4773 29.1504C70.6055 30.1227 69.337 30.6089 67.6717 30.6089H64.8553ZM66.2468 29.4689H67.5041C68.7894 29.4689 69.7505 29.0833 70.3876 28.3121C71.0358 27.5298 71.3599 26.4457 71.3599 25.0598C71.3599 23.674 71.0358 22.6122 70.3876 21.8746C69.7505 21.1258 68.7894 20.7514 67.5041 20.7514H66.2468V29.4689ZM78.2038 30.8101C77.5444 30.8101 76.9241 30.6424 76.3429 30.3071C75.7729 29.9718 75.3091 29.4857 74.9515 28.8486C74.605 28.2116 74.4318 27.446 74.4318 26.5519C74.4318 25.6354 74.605 24.8587 74.9515 24.2216C75.3091 23.5846 75.7729 23.0984 76.3429 22.7631C76.9241 22.4278 77.5444 22.2602 78.2038 22.2602C78.8744 22.2602 79.4947 22.4278 80.0646 22.7631C80.6346 23.0984 81.0929 23.5846 81.4393 24.2216C81.797 24.8587 81.9758 25.6354 81.9758 26.5519C81.9758 27.446 81.797 28.2116 81.4393 28.8486C81.0929 29.4857 80.6346 29.9718 80.0646 30.3071C79.4947 30.6424 78.8744 30.8101 78.2038 30.8101ZM78.2038 29.6701C78.9079 29.6701 79.4723 29.3851 79.897 28.8151C80.3329 28.2339 80.5508 27.4795 80.5508 26.5519C80.5508 25.6131 80.3329 24.8531 79.897 24.2719C79.4723 23.6907 78.9079 23.4001 78.2038 23.4001C77.5108 23.4001 76.9464 23.6907 76.5106 24.2719C76.0747 24.8531 75.8568 25.6131 75.8568 26.5519C75.8568 27.4795 76.0747 28.2339 76.5106 28.8151C76.9464 29.3851 77.5108 29.6701 78.2038 29.6701ZM85.3469 30.6089L83.0837 22.4613H84.4919L85.699 27.1722C85.7884 27.5522 85.8722 27.9322 85.9504 28.3121C86.0287 28.681 86.1069 29.0554 86.1851 29.4354H86.2522C86.3416 29.0554 86.431 28.681 86.5204 28.3121C86.6098 27.9322 86.7048 27.5522 86.8054 27.1722L88.0628 22.4613H89.4039L90.678 27.1722C90.7786 27.5522 90.8736 27.9322 90.963 28.3121C91.0636 28.681 91.1586 29.0554 91.248 29.4354H91.3151C91.4045 29.0554 91.4883 28.681 91.5665 28.3121C91.6559 27.9322 91.7398 27.5522 91.818 27.1722L93.0083 22.4613H94.3159L92.1365 30.6089H90.4601L89.2866 26.2333C89.186 25.8422 89.091 25.4566 89.0016 25.0766C88.9233 24.6966 88.8339 24.2998 88.7333 23.8863H88.6663C88.5769 24.2998 88.4875 24.7022 88.398 25.0934C88.3086 25.4734 88.208 25.8589 88.0963 26.2501L86.9563 30.6089H85.3469ZM96.0892 30.6089V22.4613H97.2291L97.3465 23.6348H97.3968C97.788 23.2437 98.2015 22.9196 98.6374 22.6625C99.0732 22.3943 99.5706 22.2602 100.129 22.2602C100.99 22.2602 101.616 22.534 102.007 23.0816C102.409 23.6181 102.611 24.406 102.611 25.4454V30.6089H101.236V25.6298C101.236 24.8698 101.113 24.3166 100.867 23.9701C100.621 23.6237 100.23 23.4504 99.6935 23.4504C99.28 23.4504 98.9056 23.5566 98.5703 23.769C98.2462 23.9813 97.8774 24.2943 97.4638 24.7078V30.6089H96.0892ZM106.716 30.8101C106.202 30.8101 105.827 30.6536 105.593 30.3407C105.369 30.0165 105.257 29.5583 105.257 28.966V18.6726H106.632V29.0666C106.632 29.2789 106.671 29.4354 106.749 29.536C106.828 29.6254 106.917 29.6701 107.018 29.6701C107.062 29.6701 107.101 29.6701 107.135 29.6701C107.18 29.6589 107.241 29.6477 107.319 29.6365L107.504 30.6759C107.414 30.7207 107.308 30.7542 107.185 30.7765C107.062 30.7989 106.906 30.8101 106.716 30.8101ZM112.699 30.8101C112.039 30.8101 111.419 30.6424 110.838 30.3071C110.268 29.9718 109.804 29.4857 109.446 28.8486C109.1 28.2116 108.927 27.446 108.927 26.5519C108.927 25.6354 109.1 24.8587 109.446 24.2216C109.804 23.5846 110.268 23.0984 110.838 22.7631C111.419 22.4278 112.039 22.2602 112.699 22.2602C113.369 22.2602 113.99 22.4278 114.56 22.7631C115.13 23.0984 115.588 23.5846 115.934 24.2216C116.292 24.8587 116.471 25.6354 116.471 26.5519C116.471 27.446 116.292 28.2116 115.934 28.8486C115.588 29.4857 115.13 29.9718 114.56 30.3071C113.99 30.6424 113.369 30.8101 112.699 30.8101ZM112.699 29.6701C113.403 29.6701 113.967 29.3851 114.392 28.8151C114.828 28.2339 115.046 27.4795 115.046 26.5519C115.046 25.6131 114.828 24.8531 114.392 24.2719C113.967 23.6907 113.403 23.4001 112.699 23.4001C112.006 23.4001 111.441 23.6907 111.006 24.2719C110.57 24.8531 110.352 25.6131 110.352 26.5519C110.352 27.4795 110.57 28.2339 111.006 28.8151C111.441 29.3851 112.006 29.6701 112.699 29.6701ZM120.265 30.8101C119.583 30.8101 119.013 30.6089 118.555 30.2065C118.108 29.793 117.884 29.223 117.884 28.4966C117.884 27.6025 118.281 26.9207 119.075 26.4513C119.879 25.9707 121.148 25.6354 122.88 25.4454C122.88 25.099 122.83 24.7692 122.729 24.4563C122.64 24.1434 122.472 23.8919 122.226 23.7019C121.992 23.5007 121.651 23.4001 121.204 23.4001C120.734 23.4001 120.293 23.4896 119.879 23.6684C119.466 23.8472 119.097 24.0484 118.773 24.2719L118.236 23.3163C118.616 23.0704 119.08 22.8357 119.628 22.6122C120.187 22.3775 120.79 22.2602 121.438 22.2602C122.433 22.2602 123.154 22.5675 123.601 23.1822C124.048 23.7857 124.272 24.596 124.272 25.6131V30.6089H123.132L123.014 29.6365H122.964C122.584 29.9495 122.165 30.2233 121.707 30.458C121.26 30.6927 120.779 30.8101 120.265 30.8101ZM120.667 29.7036C121.058 29.7036 121.427 29.6086 121.774 29.4186C122.12 29.2286 122.489 28.9604 122.88 28.6139V26.3507C121.528 26.5183 120.578 26.7698 120.03 27.1051C119.494 27.4404 119.225 27.8707 119.225 28.396C119.225 28.8542 119.365 29.1895 119.645 29.4018C119.924 29.603 120.265 29.7036 120.667 29.7036ZM129.618 30.8101C128.601 30.8101 127.785 30.4412 127.17 29.7036C126.556 28.9548 126.248 27.9042 126.248 26.5519C126.248 25.6689 126.41 24.909 126.734 24.2719C127.07 23.6237 127.506 23.1263 128.042 22.7799C128.59 22.4334 129.171 22.2602 129.786 22.2602C130.255 22.2602 130.663 22.344 131.009 22.5116C131.356 22.6793 131.708 22.9084 132.066 23.199L131.998 21.8075V18.6726H133.39V30.6089H132.25L132.133 29.6533H132.082C131.769 29.9662 131.401 30.2401 130.976 30.4748C130.551 30.6983 130.099 30.8101 129.618 30.8101ZM129.92 29.6533C130.635 29.6533 131.328 29.2789 131.998 28.5301V24.2719C131.652 23.959 131.317 23.741 130.993 23.6181C130.68 23.484 130.356 23.4169 130.02 23.4169C129.584 23.4169 129.188 23.551 128.83 23.8193C128.484 24.0763 128.204 24.4395 127.992 24.909C127.779 25.3672 127.673 25.9092 127.673 26.5351C127.673 27.5075 127.869 28.273 128.26 28.8318C128.651 29.3795 129.204 29.6533 129.92 29.6533ZM142.659 30.8101C141.999 30.8101 141.379 30.6424 140.798 30.3071C140.228 29.9718 139.764 29.4857 139.406 28.8486C139.06 28.2116 138.887 27.446 138.887 26.5519C138.887 25.6354 139.06 24.8587 139.406 24.2216C139.764 23.5846 140.228 23.0984 140.798 22.7631C141.379 22.4278 141.999 22.2602 142.659 22.2602C143.329 22.2602 143.95 22.4278 144.52 22.7631C145.09 23.0984 145.548 23.5846 145.894 24.2216C146.252 24.8587 146.431 25.6354 146.431 26.5519C146.431 27.446 146.252 28.2116 145.894 28.8486C145.548 29.4857 145.09 29.9718 144.52 30.3071C143.95 30.6424 143.329 30.8101 142.659 30.8101ZM142.659 29.6701C143.363 29.6701 143.927 29.3851 144.352 28.8151C144.788 28.2339 145.006 27.4795 145.006 26.5519C145.006 25.6131 144.788 24.8531 144.352 24.2719C143.927 23.6907 143.363 23.4001 142.659 23.4001C141.966 23.4001 141.401 23.6907 140.966 24.2719C140.53 24.8531 140.312 25.6131 140.312 26.5519C140.312 27.4795 140.53 28.2339 140.966 28.8151C141.401 29.3851 141.966 29.6701 142.659 29.6701ZM148.576 30.6089V22.4613H149.716L149.834 23.6348H149.884C150.275 23.2437 150.689 22.9196 151.125 22.6625C151.561 22.3943 152.058 22.2602 152.617 22.2602C153.477 22.2602 154.103 22.534 154.494 23.0816C154.897 23.6181 155.098 24.406 155.098 25.4454V30.6089H153.723V25.6298C153.723 24.8698 153.6 24.3166 153.354 23.9701C153.108 23.6237 152.717 23.4504 152.181 23.4504C151.767 23.4504 151.393 23.5566 151.058 23.769C150.734 23.9813 150.365 24.2943 149.951 24.7078V30.6089H148.576ZM65.0431 52.6089V38.2431H69.9785C71.0361 38.2431 71.9909 38.39 72.8429 38.6838C73.7095 38.9629 74.3999 39.4403 74.914 40.116C75.4281 40.7917 75.6852 41.7097 75.6852 42.8701C75.6852 43.9865 75.4281 44.9046 74.914 45.6243C74.3999 46.3441 73.7169 46.8802 72.8649 47.2327C72.013 47.5706 71.0802 47.7395 70.0667 47.7395H68.282V52.6089H65.0431ZM68.282 45.1616H69.8684C71.631 45.1616 72.5124 44.3978 72.5124 42.8701C72.5124 42.121 72.2774 41.5922 71.8073 41.2837C71.3373 40.9753 70.6616 40.821 69.7802 40.821H68.282V45.1616ZM80.8785 52.8733C79.7621 52.8733 78.9836 52.5428 78.543 51.8818C78.117 51.2061 77.904 50.3174 77.904 49.2157V37.1635H81.1429V49.348C81.1429 49.6858 81.2017 49.9208 81.3192 50.053C81.4514 50.1852 81.5836 50.2513 81.7158 50.2513C81.7892 50.2513 81.848 50.2513 81.892 50.2513C81.9508 50.2366 82.0242 50.2219 82.1124 50.2073L82.509 52.6089C82.3327 52.6823 82.105 52.7411 81.8259 52.7852C81.5615 52.8439 81.2457 52.8733 80.8785 52.8733ZM86.9626 52.8733C85.9638 52.8733 85.1706 52.5575 84.583 51.9259C83.9955 51.2795 83.7017 50.4937 83.7017 49.5683C83.7017 48.4225 84.1864 47.5265 85.1559 46.8802C86.1254 46.2339 87.6897 45.8006 89.849 45.5802C89.8196 45.0955 89.6727 44.7136 89.4083 44.4345C89.1586 44.1407 88.7327 43.9938 88.1304 43.9938C87.6751 43.9938 87.2124 44.082 86.7423 44.2582C86.2723 44.4345 85.7728 44.6769 85.244 44.9853L84.0763 42.8481C84.7666 42.4221 85.5011 42.0769 86.2796 41.8125C87.0728 41.5481 87.8954 41.4159 88.7473 41.4159C90.1428 41.4159 91.2151 41.8199 91.9642 42.6278C92.7133 43.4357 93.0879 44.6769 93.0879 46.3514V52.6089H90.4439L90.2236 51.4852H90.1354C89.6801 51.8965 89.188 52.2343 88.6592 52.4987C88.1451 52.7484 87.5796 52.8733 86.9626 52.8733ZM88.0643 50.3615C88.4315 50.3615 88.7473 50.2807 89.0117 50.1191C89.2908 49.9429 89.5699 49.7152 89.849 49.4361V47.5192C88.7033 47.6661 87.9101 47.9011 87.4694 48.2242C87.0287 48.5327 86.8084 48.8999 86.8084 49.3259C86.8084 49.6785 86.9186 49.9429 87.1389 50.1191C87.3739 50.2807 87.6824 50.3615 88.0643 50.3615ZM97.0395 56.8834C96.7163 56.8834 96.4299 56.8613 96.1802 56.8173C95.9451 56.7732 95.7175 56.7218 95.4971 56.663L96.07 54.1953C96.1728 54.21 96.2903 54.232 96.4225 54.2614C96.5547 54.3055 96.6796 54.3275 96.7971 54.3275C97.3406 54.3275 97.7592 54.1953 98.053 53.9309C98.3468 53.6665 98.5671 53.3213 98.714 52.8953L98.8682 52.3225L94.6599 41.6803H97.9208L99.4852 46.3734C99.6467 46.8729 99.7936 47.3796 99.9258 47.8937C100.058 48.4079 100.198 48.9367 100.344 49.4802H100.433C100.55 48.966 100.668 48.4519 100.785 47.9378C100.917 47.409 101.05 46.8876 101.182 46.3734L102.504 41.6803H105.61L101.821 52.7191C101.483 53.6298 101.108 54.3936 100.697 55.0105C100.286 55.6421 99.7863 56.1122 99.1987 56.4207C98.6259 56.7291 97.9061 56.8834 97.0395 56.8834ZM116.378 52.8733C115.438 52.8733 114.498 52.697 113.557 52.3445C112.632 51.992 111.802 51.4778 111.068 50.8022L112.918 48.5768C113.433 49.0174 114.005 49.3773 114.637 49.6564C115.269 49.9355 115.878 50.0751 116.466 50.0751C117.142 50.0751 117.641 49.9502 117.964 49.7005C118.302 49.4508 118.471 49.1129 118.471 48.6869C118.471 48.2316 118.28 47.9011 117.898 47.6954C117.531 47.4751 117.031 47.2327 116.4 46.9683L114.527 46.1751C114.042 45.9695 113.579 45.6978 113.139 45.3599C112.698 45.0074 112.338 44.5741 112.059 44.0599C111.78 43.5458 111.641 42.9436 111.641 42.2532C111.641 41.46 111.854 40.7403 112.279 40.0939C112.72 39.4476 113.322 38.9335 114.086 38.5516C114.865 38.1697 115.753 37.9787 116.752 37.9787C117.575 37.9787 118.397 38.1403 119.22 38.4635C120.043 38.7866 120.762 39.2567 121.379 39.8736L119.727 41.9227C119.257 41.5555 118.787 41.2764 118.317 41.0854C117.847 40.8798 117.325 40.777 116.752 40.777C116.194 40.777 115.746 40.8945 115.408 41.1295C115.085 41.3498 114.923 41.6657 114.923 42.0769C114.923 42.5176 115.129 42.8481 115.54 43.0684C115.966 43.2888 116.488 43.5238 117.105 43.7735L118.956 44.5226C119.822 44.8752 120.513 45.3599 121.027 45.9768C121.541 46.5938 121.798 47.409 121.798 48.4225C121.798 49.2157 121.585 49.9502 121.159 50.6259C120.733 51.3016 120.116 51.8451 119.308 52.2564C118.5 52.6676 117.523 52.8733 116.378 52.8733ZM127.556 52.8733C126.205 52.8733 125.235 52.484 124.648 51.7055C124.075 50.927 123.788 49.9061 123.788 48.6429V44.2142H122.29V41.8125L123.965 41.6803L124.339 38.7719H127.027V41.6803H129.649V44.2142H127.027V48.5988C127.027 49.2157 127.152 49.6638 127.402 49.9429C127.666 50.2073 128.012 50.3395 128.438 50.3395C128.614 50.3395 128.79 50.3174 128.966 50.2734C129.157 50.2293 129.326 50.1779 129.473 50.1191L129.98 52.4767C129.701 52.5648 129.356 52.653 128.944 52.7411C128.548 52.8292 128.085 52.8733 127.556 52.8733ZM136.088 52.8733C135.163 52.8733 134.289 52.653 133.466 52.2123C132.658 51.7569 132.005 51.1033 131.505 50.2513C131.006 49.3847 130.756 48.3491 130.756 47.1446C130.756 45.9254 131.006 44.8899 131.505 44.0379C132.005 43.186 132.658 42.5396 133.466 42.099C134.289 41.6436 135.163 41.4159 136.088 41.4159C137.014 41.4159 137.88 41.6436 138.688 42.099C139.496 42.5396 140.15 43.186 140.649 44.0379C141.149 44.8899 141.398 45.9254 141.398 47.1446C141.398 48.3491 141.149 49.3847 140.649 50.2513C140.15 51.1033 139.496 51.7569 138.688 52.2123C137.88 52.653 137.014 52.8733 136.088 52.8733ZM136.088 50.2513C136.749 50.2513 137.249 49.9722 137.587 49.414C137.924 48.8412 138.093 48.0847 138.093 47.1446C138.093 46.1898 137.924 45.4334 137.587 44.8752C137.249 44.317 136.749 44.0379 136.088 44.0379C135.413 44.0379 134.906 44.317 134.568 44.8752C134.245 45.4334 134.083 46.1898 134.083 47.1446C134.083 48.0847 134.245 48.8412 134.568 49.414C134.906 49.9722 135.413 50.2513 136.088 50.2513ZM143.617 52.6089V41.6803H146.261L146.481 43.5972H146.569C146.966 42.8628 147.443 42.3193 148.001 41.9668C148.56 41.5996 149.118 41.4159 149.676 41.4159C149.984 41.4159 150.241 41.438 150.447 41.482C150.653 41.5114 150.829 41.5628 150.976 41.6363L150.447 44.4345C150.256 44.3758 150.065 44.3317 149.874 44.3023C149.698 44.2729 149.492 44.2582 149.257 44.2582C148.846 44.2582 148.413 44.4125 147.957 44.7209C147.517 45.0147 147.149 45.5288 146.856 46.2633V52.6089H143.617ZM157.072 52.8733C156.029 52.8733 155.089 52.6456 154.252 52.1903C153.414 51.7349 152.753 51.0812 152.269 50.2293C151.784 49.3773 151.542 48.3491 151.542 47.1446C151.542 45.9548 151.784 44.9339 152.269 44.082C152.768 43.23 153.414 42.5764 154.208 42.121C155.001 41.651 155.831 41.4159 156.697 41.4159C157.74 41.4159 158.6 41.651 159.275 42.121C159.966 42.5764 160.48 43.2006 160.818 43.9938C161.17 44.7724 161.346 45.661 161.346 46.6599C161.346 46.939 161.332 47.2181 161.302 47.4971C161.273 47.7615 161.244 47.9598 161.214 48.092H154.67C154.817 48.8852 155.148 49.4728 155.662 49.8547C156.176 50.2219 156.793 50.4056 157.513 50.4056C158.291 50.4056 159.077 50.1632 159.87 49.6785L160.95 51.6394C160.392 52.0213 159.767 52.3225 159.077 52.5428C158.387 52.7631 157.718 52.8733 157.072 52.8733ZM154.648 45.9548H158.592C158.592 45.3526 158.445 44.8605 158.152 44.4786C157.872 44.082 157.41 43.8837 156.763 43.8837C156.264 43.8837 155.816 44.0599 155.419 44.4125C155.023 44.7503 154.766 45.2644 154.648 45.9548Z" fill="#141414"/>
<defs>
<linearGradient id="paint0_linear_217_254" x1="44.0286" y1="26.0702" x2="25.1669" y2="31.2437" gradientUnits="userSpaceOnUse">
<stop stop-color="#00A1FF"/>
<stop offset="0.26" stop-color="#00BEFF"/>
<stop offset="0.51" stop-color="#00D2FF"/>
<stop offset="0.76" stop-color="#00DFFF"/>
<stop offset="1" stop-color="#00E3FF"/>
</linearGradient>
<linearGradient id="paint1_linear_217_254" x1="54.9795" y1="36.4507" x2="31.9113" y2="36.4507" gradientUnits="userSpaceOnUse">
<stop stop-color="#FFE000"/>
<stop offset="0.41" stop-color="#FFBD00"/>
<stop offset="0.78" stop-color="#FFA500"/>
<stop offset="1" stop-color="#FF9C00"/>
</linearGradient>
<linearGradient id="paint2_linear_217_254" x1="45.6299" y1="38.6307" x2="31.0425" y2="63.8378" gradientUnits="userSpaceOnUse">
<stop stop-color="#FF3A44"/>
<stop offset="1" stop-color="#C31162"/>
</linearGradient>
<linearGradient id="paint3_linear_217_254" x1="28.9359" y1="18.0437" x2="35.4488" y2="29.3044" gradientUnits="userSpaceOnUse">
<stop stop-color="#32A071"/>
<stop offset="0.07" stop-color="#2DA771"/>
<stop offset="0.48" stop-color="#15CF74"/>
<stop offset="0.8" stop-color="#06E775"/>
<stop offset="1" stop-color="#00F076"/>
</linearGradient>
<clipPath id="clip0_217_254">
<rect width="22.0046" height="23.8384" fill="white" transform="translate(32.1732 24.6897)"/>
</clipPath>
</defs>
</svg>
