<svg width="22" height="22" viewBox="0 0 22 22" fill="none" xmlns="http://www.w3.org/2000/svg">
<path d="M15.3256 16.4973V15.3256H11.8104V11.8104H15.3256V14.1539H17.669V16.4973H16.4973V18.8408H14.1539V21.1842H11.8104V17.669H14.1539V16.4973H15.3256ZM21.1842 21.1842H16.4973V18.8408H18.8408V16.4973H21.1842V21.1842ZM0.0932617 0.0932617H9.46701V9.46701H0.0932617V0.0932617ZM11.8104 0.0932617H21.1842V9.46701H11.8104V0.0932617ZM0.0932617 11.8104H9.46701V21.1842H0.0932617V11.8104ZM17.669 11.8104H21.1842V14.1539H17.669V11.8104ZM3.60842 3.60842V5.95185H5.95185V3.60842H3.60842ZM3.60842 15.3256V17.669H5.95185V15.3256H3.60842ZM15.3256 3.60842V5.95185H17.669V3.60842H15.3256Z" fill="#1B242C"/>
</svg>
