<svg width="43" height="35" viewBox="0 0 43 35" fill="none" xmlns="http://www.w3.org/2000/svg">
<path d="M3.64802 5.00917C6.66352 1.77705 11.2265 0.138672 17.2081 0.138672H19.3574V6.12905L17.6294 6.47117C14.6848 7.05342 12.6365 8.1988 11.5403 9.87967C10.9684 10.7852 10.644 11.822 10.5989 12.8887H17.2081C17.7781 12.8887 18.3248 13.1126 18.7279 13.5111C19.131 13.9096 19.3574 14.4501 19.3574 15.0137V29.8887C19.3574 32.2325 17.4295 34.1387 15.0588 34.1387H2.16284C1.5928 34.1387 1.04611 33.9148 0.643037 33.5163C0.239961 33.1178 0.0135146 32.5773 0.0135146 32.0137V21.3887L0.0199626 15.1858C0.000618688 14.9499 -0.407753 9.36117 3.64802 5.00917ZM38.7014 34.1387H25.8054C25.2354 34.1387 24.6887 33.9148 24.2856 33.5163C23.8825 33.1178 23.6561 32.5773 23.6561 32.0137V21.3887L23.6625 15.1858C23.6432 14.9499 23.2348 9.36117 27.2906 5.00917C30.3061 1.77705 34.8691 0.138672 40.8507 0.138672H43V6.12905L41.2719 6.47117C38.3274 7.05342 36.2791 8.1988 35.1829 9.87967C34.611 10.7852 34.2866 11.822 34.2415 12.8887H40.8507C41.4207 12.8887 41.9674 13.1126 42.3705 13.5111C42.7736 13.9096 43 14.4501 43 15.0137V29.8887C43 32.2325 41.0721 34.1387 38.7014 34.1387Z" fill="#3418D8"/>
</svg>
