<svg width="240" height="250" viewBox="0 0 240 250" fill="none" xmlns="http://www.w3.org/2000/svg">
<path d="M47.4193 170.669C39.8978 167.477 35.1172 161.094 35.1172 155.158V123.594" stroke="#F3FBFD" stroke-width="1.5" stroke-miterlimit="10"/>
<path d="M206.765 201.371L93.6801 135.969C89.3855 133.487 86.7402 128.892 86.7402 123.929V42.2261C86.7402 39.4734 89.7122 37.758 92.0945 39.1304L205.897 104.947C209.673 107.134 212 111.163 212 115.535V198.347C212 201.036 209.092 202.719 206.765 201.371Z" fill="#3418D8" stroke="#F3FBFD" stroke-width="1.5" stroke-miterlimit="10"/>
<path d="M194.812 208.552L81.7269 143.149C77.4324 140.668 74.7871 136.072 74.7871 131.11V49.4068C74.7871 46.6541 77.759 44.9387 80.1414 46.311L193.944 112.128C197.72 114.314 200.047 118.343 200.047 122.716V205.528C200.047 208.216 197.139 209.9 194.812 208.552Z" fill="#3418D8" stroke="#F3FBFD" stroke-width="1.5" stroke-miterlimit="10"/>
<path d="M182.335 214.592L69.2504 149.19C64.9558 146.709 62.3105 142.113 62.3105 137.15V55.4473C62.3105 52.6946 65.2825 50.9792 67.6648 52.3515L181.475 118.169C185.252 120.355 187.578 124.384 187.578 128.756V211.568C187.578 214.257 184.67 215.941 182.343 214.592H182.335Z" fill="#3418D8" stroke="#F3FBFD" stroke-width="1.5" stroke-miterlimit="10"/>
<path d="M47.8904 38.2773L58.6707 60.1552L82.7808 63.6658L65.3316 80.6926L69.4509 104.733L47.8904 93.3868L26.3299 104.733L30.4412 80.6926L13 63.6658L37.1102 60.1552L47.8904 38.2773Z" fill="#E0FB92"/>
<path d="M170.281 219.954L57.1957 154.552C52.9011 152.071 50.2559 147.475 50.2559 142.512V60.8096C50.2559 58.0569 53.2278 56.3415 55.6101 57.7138L169.412 123.531C173.189 125.717 175.516 129.746 175.516 134.119V216.93C175.516 219.619 172.607 221.303 170.281 219.954Z" fill="#141414" stroke="#F3FBFD" stroke-width="1.5" stroke-miterlimit="10"/>
<path d="M162.599 155.389V182.692C153.835 178.655 142.68 183.442 142.409 191.405L72.1664 151.12C70.9713 132.37 66.4297 125.277 58.1035 121.655V97.3671C69.7602 100.255 72.7322 92.5958 72.7322 81.2979L148.624 125.572C146.664 133.16 149.278 149.923 162.599 155.381V155.389Z" fill="#11D58E"/>
<path d="M100.754 147.69L124.036 161.174L124.171 147.626C113.208 142.337 111.088 134.773 113.502 129.674C113.518 129.634 113.542 129.594 113.566 129.555L90.675 116.254L90.5156 129.052C101.248 134.35 103.176 142.576 100.786 147.611C100.778 147.634 100.762 147.658 100.746 147.682L100.754 147.69Z" fill="white"/>
<path d="M164.821 80.2514L164.821 80.2516L164.821 80.2516L164.46 81.2554H165.333L202.966 103.024L203.756 103.482L204.051 102.617L203.341 102.375C204.051 102.617 204.051 102.617 204.051 102.616L204.052 102.615L204.053 102.61L204.059 102.594L204.079 102.533C204.087 102.507 204.098 102.476 204.109 102.44C204.122 102.4 204.136 102.354 204.153 102.302C204.216 102.1 204.305 101.805 204.411 101.424C204.624 100.664 204.907 99.5631 205.191 98.1912C205.758 95.4488 206.33 91.6146 206.346 87.2462C206.378 78.5155 204.189 67.574 195.223 59.003C192.74 56.6299 189.206 55.378 185.401 54.7947C181.586 54.2098 177.415 54.2842 173.569 54.6353C169.717 54.9868 166.164 55.6181 163.575 56.1609C162.28 56.4324 161.225 56.6822 160.492 56.8644C160.125 56.9556 159.839 57.0298 159.644 57.0815C159.546 57.1074 159.471 57.1276 159.42 57.1414L159.362 57.1574L159.347 57.1616L159.343 57.1627L159.342 57.1631C159.341 57.1631 159.341 57.1632 159.543 57.8855L159.341 57.1632L157.665 57.6317L159.156 58.5282L159.156 58.5282L159.157 58.5284L159.157 58.5285L159.16 58.5303L159.175 58.5393C159.188 58.5475 159.209 58.5604 159.237 58.5776C159.292 58.6122 159.375 58.6645 159.481 58.7336C159.693 58.8718 159.999 59.0768 160.367 59.3405C161.105 59.8689 162.085 60.6282 163.063 61.5538C165.061 63.446 166.864 65.8635 166.864 68.3218C166.864 71.4371 166.354 74.4228 165.84 76.6376C165.583 77.7429 165.327 78.651 165.135 79.2811C165.04 79.596 164.96 79.8411 164.905 80.0063C164.877 80.0889 164.856 80.1514 164.842 80.1927L164.826 80.2385L164.822 80.2491L164.821 80.2513L164.821 80.2514Z" fill="#303D48" stroke="#F3FBFD" stroke-width="1.5"/>
<path d="M203.857 72.5135C203.275 71.0214 198.184 59.0533 183.993 58.3033C177.213 57.9442 170.448 63.0905 168.201 67.3991L189.658 81.5375L139.589 82.9338L119.957 44.1729L136.88 53.3883C139.876 52.5027 152.497 46.4149 163.277 47.133C175.229 47.9309 183.866 50.508 191.961 55.9096C199.132 60.6969 203.386 71.0933 203.857 72.5135Z" fill="#11D58E" stroke="#F3FBFD" stroke-width="1.5" stroke-miterlimit="10"/>
</svg>
