<svg width="200" height="180" viewBox="0 0 200 180" fill="none" xmlns="http://www.w3.org/2000/svg">
<path d="M147.258 29.1765C147.853 27.3258 150.471 27.3258 151.066 29.1765L158.931 53.6491C159.197 54.4763 159.967 55.0372 160.835 55.0372H186.334C188.266 55.0372 189.075 57.5053 187.518 58.6491L166.852 73.8289C166.158 74.3382 165.868 75.2337 166.132 76.0527L174.017 100.586C174.61 102.433 172.492 103.958 170.928 102.81L150.346 87.6921C149.642 87.1746 148.683 87.1746 147.978 87.692L127.396 102.81C125.833 103.958 123.714 102.433 124.308 100.587L132.193 76.0527C132.456 75.2337 132.166 74.3382 131.472 73.8289L110.806 58.6491C109.249 57.5053 110.058 55.0372 111.99 55.0372H137.489C138.358 55.0372 139.127 54.4763 139.393 53.6491L147.258 29.1765Z" fill="#3418D8"/>
<path d="M159.738 124.539L159.741 124.388L39.682 122.266L38.9536 122.253L38.9168 122.982L38.2806 135.61C38.2806 135.61 38.2806 135.61 38.2806 135.61C37.8599 143.956 44.5849 151.413 55.2561 156.802C65.982 162.219 80.9457 165.694 97.609 165.987C114.269 166.281 129.549 163.338 140.792 158.311C151.973 153.313 159.411 146.125 159.835 137.801L159.837 137.801L160.453 125.577L160.473 125.173L160.473 125.172L160.473 125.172L160.473 125.17L160.474 125.164L160.475 125.141L160.478 125.069L160.481 125.013L160.485 124.93L160.486 124.927L160.486 124.923L160.486 124.92L160.486 124.917L160.486 124.915L160.487 124.903C160.237 124.626 159.974 124.538 159.738 124.539Z" fill="#1B242C" stroke="#F3FBFD" stroke-width="1.5" stroke-miterlimit="10"/>
<path d="M160.497 124.687C160.917 116.349 154.205 108.901 143.54 103.514C132.82 98.0993 117.861 94.6245 101.2 94.3318C84.5384 94.0392 69.2561 96.9827 58.0097 102.012C46.821 107.015 39.3705 114.214 38.9504 122.551C38.5302 130.889 45.2427 138.337 55.9078 143.724C66.628 149.139 81.5869 152.613 98.2481 152.906C114.909 153.199 130.192 150.255 141.438 145.226C152.627 140.223 160.077 133.024 160.497 124.687Z" fill="#141414" stroke="#F3FBFD" stroke-width="1.5"/>
<path d="M113.586 124.698C113.855 125.346 113.946 126.251 113.952 126.457C113.957 126.663 114.155 126.84 114.755 126.14C115.348 125.437 115.911 124.298 116.101 123.278C116.292 122.258 116.135 119.88 115.446 120.1C115.446 120.1 114.126 120.505 112.12 120.658C110.115 120.806 106.086 121.064 104.464 121.763C106.922 121.332 109.582 121.218 110.726 121.107C111.361 121.048 112.457 121.009 113.092 120.968C113.259 120.959 113.262 121.067 113.112 121.104C112.638 121.215 111.839 121.414 111.372 121.478C110.18 121.646 108.826 121.758 108.441 121.754C108.047 121.751 107.885 121.942 108.454 122.254C109.024 122.566 110.641 123.552 111.097 124.008C111.554 124.463 112.24 125.086 112.497 125.294C112.754 125.507 113.226 125.938 113.007 125.28C112.78 124.598 112.154 124.049 111.909 123.681C111.857 123.608 112.1 123.62 112.202 123.674C112.601 123.878 113.416 124.286 113.586 124.698Z" fill="#F3FBFD"/>
<path d="M118.452 119.851C118.361 119.867 118.312 119.915 118.33 119.966C118.554 120.508 119.604 123.441 117.211 126.589C117.17 126.637 117.214 126.692 117.298 126.713L117.753 126.818C117.837 126.839 117.945 126.812 117.978 126.765C119.409 124.887 119.645 123.098 119.588 121.921C119.534 120.855 119.254 120.096 119.139 119.841C119.112 119.791 119.019 119.76 118.927 119.777L118.452 119.851Z" fill="#F3FBFD"/>
<path d="M108.664 114.005C107.175 113.442 103.371 112.431 103.366 112.866C103.366 112.866 103.322 113.7 102.513 114.747C101.712 115.793 100.027 117.879 100.275 118.995C100.874 117.599 102.068 116.242 102.495 115.636C102.729 115.298 103.233 114.746 103.509 114.416C103.582 114.33 103.751 114.377 103.728 114.471C103.652 114.754 103.556 115.233 103.412 115.49C103.062 116.15 102.537 116.861 102.324 117.049C102.111 117.238 102.325 117.405 103.109 117.272C103.892 117.138 106.261 116.803 107.215 116.786C108.161 116.77 109.491 116.72 109.951 116.694C110.41 116.667 111.33 116.633 110.195 116.434C109.017 116.232 107.83 116.283 107.125 116.237C106.991 116.226 107.13 116.115 107.263 116.088C107.788 115.989 108.854 115.773 109.585 115.88C110.737 116.045 112.195 116.418 112.516 116.507C112.837 116.597 113.221 116.582 112.435 115.971C111.648 115.361 110.153 114.569 108.664 114.005Z" fill="#F3FBFD"/>
<path d="M104.662 111.011L104.543 111.281C104.52 111.333 104.571 111.384 104.664 111.395C105.622 111.533 110.752 112.367 114.423 114.982C114.483 115.022 114.583 115.029 114.666 114.994L115.063 114.82C115.138 114.785 115.153 114.724 115.093 114.683C112.908 113.123 110.228 112.185 108.364 111.669C106.676 111.205 105.34 110.998 104.886 110.931C104.777 110.924 104.685 110.955 104.662 111.011Z" fill="#F3FBFD"/>
<path d="M93.5965 119.876C91.7785 118.91 90.3636 117.676 89.6552 117.176C89.2626 116.901 88.6961 116.387 88.3366 116.098C88.2424 116.021 88.4082 115.96 88.5354 116.017C88.9252 116.189 89.611 116.47 89.9343 116.663C90.7515 117.155 91.563 117.751 91.7356 117.943C91.9083 118.135 92.2845 118.115 92.4987 117.674C92.7212 117.233 93.4981 115.93 93.988 115.468C94.4779 115.005 95.1215 114.347 95.3329 114.112C95.5442 113.877 95.9924 113.42 95.0752 113.871C94.1249 114.336 93.5632 114.932 93.1028 115.244C93.0124 115.307 92.917 115.183 92.9568 115.107C93.0827 114.809 93.3423 114.194 93.9036 113.893C94.7868 113.425 96.1543 112.906 96.4611 112.795C96.7764 112.688 96.9636 112.491 95.5926 112.57C94.2216 112.649 92.1958 112.975 90.5248 113.418C88.8537 113.857 85.2307 115.185 85.8897 115.406C85.8897 115.406 87.1405 115.835 88.3118 116.73C89.4749 117.63 91.7512 119.449 93.5965 119.876Z" fill="#F3FBFD"/>
<path d="M95.1362 111.143C95.2282 111.136 95.3022 111.087 95.2924 111.036L95.2431 110.761C95.2334 110.71 95.1486 110.67 95.0567 110.677C91.4725 110.966 88.5811 111.793 86.7815 112.436C85.1478 113.018 84.1074 113.556 83.7608 113.743C83.6865 113.783 83.6881 113.844 83.7562 113.884L84.1046 114.071C84.1725 114.107 84.2729 114.104 84.339 114.069C85.0652 113.68 89.1376 111.628 95.1362 111.143Z" fill="#F3FBFD"/>
<path d="M82.0076 120.389C81.714 119.746 81.589 118.842 81.5751 118.637C81.5613 118.436 81.3554 118.254 80.7885 118.962C80.2215 119.67 79.7083 120.816 79.5516 121.836C79.395 122.855 79.6518 125.23 80.3322 125.001C80.3322 125.001 81.6353 124.577 83.64 124.401C85.6364 124.226 89.6555 123.92 91.2604 123.203C88.8197 123.667 86.161 123.809 85.0256 123.933C84.3911 124.002 83.3041 124.055 82.6606 124.1C82.4935 124.114 82.4821 124.002 82.6402 123.965C83.1143 123.849 83.8957 123.641 84.3626 123.568C85.5467 123.386 86.8996 123.256 87.2847 123.255C87.6782 123.253 87.8321 123.062 87.2546 122.76C86.6769 122.452 85.0182 121.491 84.5371 121.041C84.0561 120.591 83.3446 119.978 83.0794 119.77C82.8142 119.562 82.3254 119.136 82.5691 119.789C82.8219 120.465 83.4729 121.009 83.734 121.376C83.7863 121.45 83.5431 121.438 83.4413 121.389C83.0343 121.199 82.1945 120.796 82.0076 120.389Z" fill="#F3FBFD"/>
<path d="M77.3198 125.291C77.4114 125.274 77.4602 125.222 77.4339 125.176C77.1849 124.64 76.0175 121.719 78.2928 118.546C78.325 118.498 78.2901 118.443 78.1974 118.422L77.7425 118.322C77.6582 118.301 77.5501 118.327 77.518 118.38C76.1626 120.274 75.9934 122.066 76.1005 123.242C76.1963 124.306 76.5097 125.06 76.6338 125.314C76.6603 125.365 76.7532 125.395 76.8532 125.378L77.3198 125.291Z" fill="#F3FBFD"/>
<path d="M86.7852 131.111C88.2659 131.679 92.053 132.704 92.0747 132.269C92.0747 132.269 92.1275 131.434 92.945 130.392C93.7624 129.345 95.4645 127.269 95.225 126.152C94.6097 127.549 93.3986 128.897 92.9712 129.503C92.7375 129.841 92.2248 130.388 91.9491 130.719C91.8761 130.805 91.7073 130.758 91.7299 130.664C91.806 130.381 91.9102 129.901 92.054 129.644C92.413 128.984 92.9465 128.277 93.1591 128.089C93.3717 127.901 93.1578 127.734 92.3742 127.862C91.5907 127.991 89.2133 128.322 88.2675 128.334C87.3217 128.345 85.9916 128.391 85.5318 128.417C85.072 128.443 84.1518 128.473 85.2875 128.672C86.4653 128.878 87.6529 128.828 88.3492 128.879C88.4835 128.889 88.3442 129.001 88.2108 129.023C87.686 129.121 86.6198 129.328 85.8885 129.221C84.7368 129.051 83.2865 128.674 82.9657 128.58C82.6452 128.49 82.2603 128.501 83.0389 129.116C83.8178 129.745 85.3046 130.543 86.7852 131.111Z" fill="#F3FBFD"/>
<path d="M90.7676 134.118L90.8859 133.848C90.9096 133.796 90.858 133.745 90.7656 133.734C89.8073 133.591 84.6936 132.742 81.0472 130.113C80.9875 130.073 80.8869 130.066 80.804 130.096L80.4067 130.266C80.3323 130.301 80.3172 130.362 80.3685 130.403C82.5377 131.973 85.2006 132.916 87.0651 133.436C88.7524 133.905 90.081 134.117 90.535 134.185C90.6444 134.205 90.7357 134.175 90.7676 134.118Z" fill="#F3FBFD"/>
<path d="M107.335 129.144C107.429 129.221 107.263 129.281 107.136 129.224C106.738 129.052 106.052 128.776 105.729 128.584C104.904 128.096 104.092 127.505 103.911 127.313C103.73 127.122 103.362 127.146 103.148 127.587C102.934 128.028 102.174 129.335 101.693 129.797C101.203 130.259 100.568 130.922 100.365 131.162C100.162 131.396 99.7136 131.858 100.631 131.403C101.573 130.933 102.134 130.337 102.586 130.021C102.677 129.958 102.772 130.081 102.741 130.157C102.615 130.455 102.363 131.07 101.811 131.375C100.936 131.848 99.5769 132.376 99.27 132.483C98.9632 132.594 98.7759 132.786 100.138 132.703C101.509 132.619 103.535 132.278 105.197 131.836C106.86 131.393 110.466 130.046 109.798 129.831C109.798 129.831 108.54 129.411 107.36 128.516C106.172 127.613 103.87 125.803 102.017 125.385C103.852 126.346 105.283 127.571 106 128.066C106.392 128.346 106.967 128.854 107.335 129.144Z" fill="#F3FBFD"/>
<path d="M100.693 134.59C104.269 134.287 107.151 133.447 108.951 132.794C110.576 132.203 111.608 131.66 111.954 131.473C112.029 131.434 112.027 131.373 111.959 131.333L111.602 131.146C111.534 131.11 111.434 131.113 111.368 131.148C110.642 131.546 106.595 133.611 100.597 134.125C100.505 134.132 100.439 134.18 100.449 134.231L100.507 134.506C100.517 134.562 100.601 134.597 100.693 134.59Z" fill="#F3FBFD"/>
<path d="M117.547 129.606C118.109 129.661 118.838 129.692 119.398 129.673C119.482 129.67 119.547 129.626 119.538 129.58L119.403 128.919C119.393 128.878 119.334 128.851 119.259 128.848C118.79 128.856 118.312 128.827 117.876 128.778C117.8 128.771 117.717 128.797 117.702 128.844L117.444 129.51C117.411 129.553 117.463 129.599 117.547 129.606Z" fill="white"/>
<path d="M117.196 128.816C117.22 128.75 117.151 128.687 117.042 128.666C116.285 128.542 115.762 128.401 115.762 128.401C115.762 128.401 114.742 129.051 115.046 129.146C115.206 129.197 115.814 129.363 116.679 129.494C116.814 129.514 116.946 129.468 116.978 129.393L117.196 128.816Z" fill="white"/>
<path d="M122.093 129.277C122.168 129.256 122.208 129.204 122.174 129.158L121.729 128.52C121.695 128.469 121.594 128.448 121.502 128.474C121.212 128.557 120.887 128.636 120.513 128.716C120.355 128.749 120.188 128.776 120.03 128.795C119.946 128.806 119.889 128.85 119.898 128.896L120.033 129.538C120.043 129.589 120.127 129.625 120.219 129.617C120.962 129.551 121.57 129.436 122.093 129.277Z" fill="white"/>
<path d="M122.298 128.219C122.191 128.259 122.151 128.33 122.194 128.395L122.543 128.9C122.604 128.992 122.814 129.019 122.954 128.954C123.401 128.75 123.779 128.516 124.141 128.258C124.223 128.2 124.221 128.116 124.127 128.067L123.617 127.767C123.515 127.709 123.339 127.709 123.232 127.773C122.985 127.924 122.679 128.073 122.298 128.219Z" fill="white"/>
<path d="M124.778 127.754C125.063 127.47 125.322 127.145 125.531 126.817C125.579 126.746 125.518 126.668 125.4 126.638L124.827 126.495C124.692 126.461 124.526 126.498 124.478 126.579C124.277 126.87 124.066 127.133 123.87 127.306C123.862 127.311 123.862 127.316 123.854 127.321C123.788 127.379 123.799 127.448 123.884 127.498L124.368 127.784C124.479 127.856 124.688 127.841 124.778 127.754Z" fill="white"/>
<path d="M126.355 125.19C126.434 125.025 125.259 124.893 125.215 125.151C125.179 125.344 125.021 125.685 124.813 126.055C124.773 126.122 124.825 126.191 124.935 126.216L125.524 126.363C125.659 126.397 125.817 126.356 125.857 126.275C126.184 125.672 126.355 125.19 126.355 125.19Z" fill="white"/>
<path d="M118.997 115.022C118.769 115.258 118.474 115.471 118.178 115.667C118.12 115.701 118.13 115.752 118.189 115.783L119.096 116.217C119.156 116.248 119.248 116.241 119.305 116.207C119.684 115.958 120.11 115.619 120.361 115.336C120.402 115.293 120.367 115.243 120.292 115.226L119.189 114.989C119.113 114.968 119.03 114.984 118.997 115.022Z" fill="white"/>
<path d="M116.493 116.523C116.493 116.523 116.974 117.32 117.281 117.218C117.447 117.162 118.019 116.941 118.67 116.582C118.769 116.527 118.767 116.439 118.665 116.39L117.885 116.013C117.792 115.969 117.658 115.973 117.567 116.022C116.981 116.328 116.493 116.523 116.493 116.523Z" fill="white"/>
<path d="M120.697 114.902C120.971 114.512 121.103 114.157 121.128 113.829C121.135 113.782 121.075 113.742 120.983 113.735L119.751 113.661C119.658 113.654 119.567 113.694 119.561 113.75C119.54 113.928 119.495 114.126 119.426 114.343C119.395 114.437 119.356 114.527 119.3 114.618C119.276 114.665 119.31 114.711 119.395 114.732L120.464 114.965C120.565 114.976 120.664 114.95 120.697 114.902Z" fill="white"/>
<path d="M121.083 113.266C120.999 112.955 120.824 112.66 120.615 112.367C120.563 112.298 120.437 112.264 120.312 112.281L119.578 112.395C119.428 112.418 119.347 112.504 119.391 112.582C119.496 112.776 119.577 112.989 119.601 113.245C119.611 113.315 119.705 113.369 119.822 113.38L120.795 113.442C120.963 113.452 121.111 113.364 121.083 113.266Z" fill="white"/>
<path d="M118.156 111.435C118.505 111.664 118.804 111.895 118.976 112.068C118.985 112.072 118.985 112.077 118.993 112.081C119.045 112.141 119.171 112.165 119.28 112.148L119.98 112.041C120.147 112.013 120.227 111.903 120.141 111.821C119.849 111.548 119.466 111.278 119.065 111.022C118.98 110.968 118.829 110.959 118.722 111.004L118.209 111.219C118.084 111.273 118.062 111.372 118.156 111.435Z" fill="white"/>
<path d="M118.384 110.615C117.619 110.178 116.958 109.873 116.958 109.873C116.746 109.757 115.923 110.27 116.303 110.414C116.582 110.519 117.04 110.755 117.5 111.027C117.585 111.077 117.719 111.082 117.818 111.042L118.348 110.822C118.472 110.767 118.486 110.673 118.384 110.615Z" fill="white"/>
<path d="M97.7 108.966C97.932 109.189 98.1061 109.437 98.2381 109.677C98.2644 109.718 98.3404 109.744 98.4236 109.728L99.5809 109.505C99.6558 109.489 99.7047 109.441 99.6785 109.399C99.5029 109.095 99.2168 108.729 98.9168 108.466C98.8738 108.425 98.7732 108.418 98.7071 108.448L97.7391 108.862C97.6728 108.888 97.6572 108.93 97.7 108.966Z" fill="white"/>
<path d="M99.9103 109.884C99.8832 109.81 99.7398 109.767 99.615 109.794L98.6158 109.984C98.4992 110.006 98.4341 110.073 98.4526 110.138C98.6149 110.569 98.6406 110.9 98.6406 110.9C98.6406 110.9 100.126 111.057 100.129 110.86C100.135 110.752 100.108 110.37 99.9103 109.884Z" fill="white"/>
<path d="M96.0597 108.066C96.3219 108.166 96.6012 108.28 96.8978 108.417C97.0249 108.475 97.1439 108.542 97.2462 108.614C97.3058 108.65 97.3979 108.652 97.4724 108.622L98.4074 108.222C98.4819 108.192 98.4969 108.131 98.4373 108.09C97.9849 107.766 97.5182 107.531 97.0281 107.357C96.9605 107.331 96.8604 107.343 96.8111 107.377L96.0225 107.927C95.9736 107.975 95.9836 108.035 96.0597 108.066Z" fill="white"/>
<path d="M93.9802 107.41C93.9322 107.491 94.0182 107.578 94.1693 107.592C94.5219 107.634 94.8921 107.704 95.2968 107.815C95.4064 107.844 95.5398 107.827 95.6221 107.773L96.2463 107.335C96.3613 107.257 96.308 107.142 96.1397 107.109C95.6178 106.997 95.0722 106.937 94.502 106.896C94.3761 106.885 94.2435 106.931 94.2119 107.002L93.9802 107.41Z" fill="white"/>
<path d="M93.4242 106.859C92.8469 106.865 92.2206 106.915 91.6198 106.983C91.4863 106.996 91.3962 107.068 91.4065 107.143L91.458 107.497C91.4686 107.581 91.6041 107.638 91.7543 107.625C92.2969 107.572 92.8065 107.535 93.1665 107.54C93.1748 107.539 93.1832 107.539 93.1999 107.539C93.3171 107.54 93.4247 107.495 93.4649 107.433L93.6804 107.049C93.7196 106.949 93.5999 106.854 93.4242 106.859Z" fill="white"/>
<path d="M88.6986 107.437C88.407 107.487 88.7507 108.128 89.1744 108.013C89.4902 107.93 90.0983 107.825 90.7655 107.736C90.8822 107.719 90.9642 107.656 90.9541 107.591L90.9024 107.228C90.8919 107.148 90.7564 107.091 90.6064 107.114C89.531 107.269 88.6986 107.437 88.6986 107.437Z" fill="white"/>
<path d="M77.8555 115.536C77.2935 115.491 76.5647 115.464 76.0047 115.493C75.9211 115.495 75.8553 115.539 75.8651 115.59L76.0252 116.25C76.0347 116.292 76.1023 116.318 76.1776 116.316C76.6459 116.303 77.1237 116.328 77.5599 116.368C77.6355 116.375 77.7183 116.345 77.7339 116.302L77.9669 115.632C77.9823 115.585 77.931 115.544 77.8555 115.536Z" fill="white"/>
<path d="M78.2387 116.319C78.2154 116.386 78.2841 116.449 78.4018 116.469C79.1665 116.584 79.6891 116.72 79.6891 116.72C79.6891 116.72 80.684 116.062 80.3801 115.967C80.2198 115.92 79.6045 115.759 78.7308 115.637C78.5964 115.618 78.4638 115.668 78.4407 115.743L78.2387 116.319Z" fill="white"/>
<path d="M73.3142 115.918C73.2395 115.943 73.2073 115.991 73.2337 116.037L73.7028 116.67C73.7376 116.72 73.8386 116.741 73.9299 116.715C74.2205 116.628 74.5447 116.544 74.9106 116.459C75.0686 116.422 75.2269 116.395 75.3937 116.371C75.477 116.36 75.5344 116.316 75.5247 116.265L75.3651 115.624C75.3553 115.573 75.2707 115.538 75.1789 115.549C74.4445 115.625 73.837 115.754 73.3142 115.918Z" fill="white"/>
<path d="M73.1575 116.977C73.2652 116.937 73.305 116.861 73.253 116.797L72.8796 116.297C72.8102 116.205 72.6087 116.183 72.4682 116.247C72.0303 116.456 71.6602 116.7 71.3073 116.957C71.2252 117.015 71.2358 117.099 71.3292 117.148L71.8561 117.443C71.9581 117.501 72.1337 117.496 72.2408 117.432C72.4794 117.281 72.7766 117.128 73.1575 116.977Z" fill="white"/>
<path d="M70.6992 117.473C70.4224 117.762 70.1802 118.091 69.9799 118.419C69.9399 118.49 70.0006 118.568 70.1186 118.598L70.6997 118.731C70.8345 118.765 71.0008 118.723 71.0488 118.643C71.2418 118.352 71.4438 118.085 71.6315 117.907C71.6397 117.902 71.6396 117.897 71.6478 117.892C71.7132 117.834 71.6945 117.76 71.618 117.715L71.1166 117.434C70.9892 117.367 70.7805 117.387 70.6992 117.473Z" fill="white"/>
<path d="M69.2228 120.054C69.152 120.219 70.3352 120.337 70.3701 120.079C70.3984 119.886 70.5397 119.541 70.7389 119.171C70.7706 119.104 70.7185 119.036 70.609 119.011L70.0111 118.872C69.8764 118.843 69.7185 118.885 69.6788 118.966C69.3772 119.572 69.2228 120.054 69.2228 120.054Z" fill="white"/>
<path d="M76.4764 130.057C76.7129 129.826 76.9999 129.608 77.3045 129.417C77.3621 129.383 77.3524 129.332 77.2929 129.301L76.3939 128.862C76.3345 128.831 76.2426 128.838 76.185 128.872C75.8067 129.121 75.3723 129.46 75.1121 129.743C75.0715 129.786 75.1063 129.837 75.1821 129.854L76.285 130.095C76.3608 130.112 76.4356 130.096 76.4764 130.057Z" fill="white"/>
<path d="M78.9941 128.561C78.9941 128.561 78.5207 127.765 78.2138 127.867C78.0479 127.923 77.4763 128.139 76.8164 128.499C76.7175 128.553 76.7199 128.642 76.8216 128.69L77.6018 129.067C77.695 129.111 77.8288 129.107 77.9196 129.058C78.4972 128.753 78.9941 128.561 78.9941 128.561Z" fill="white"/>
<path d="M74.7681 130.169C74.4857 130.56 74.353 130.914 74.3199 131.238C74.3128 131.285 74.3725 131.325 74.4564 131.332L75.6804 131.412C75.7727 131.418 75.8637 131.379 75.8705 131.322C75.8908 131.144 75.9357 130.946 76.0051 130.729C76.0361 130.635 76.0755 130.545 76.1316 130.455C76.1638 130.407 76.1207 130.361 76.0365 130.34L74.9673 130.107C74.9 130.095 74.8002 130.121 74.7681 130.169Z" fill="white"/>
<path d="M74.3705 131.808C74.4542 132.119 74.6212 132.414 74.83 132.707C74.8737 132.776 75.0086 132.81 75.1336 132.793L75.8672 132.684C76.0172 132.661 76.0986 132.575 76.0546 132.496C75.9489 132.303 75.8762 132.09 75.8525 131.833C75.8423 131.763 75.7571 131.709 75.6313 131.699L74.6588 131.636C74.491 131.622 74.3427 131.71 74.3705 131.808Z" fill="white"/>
<path d="M77.2755 133.647C76.9344 133.413 76.627 133.187 76.4633 133.014C76.4548 133.009 76.4547 133.005 76.4462 133C76.3943 132.941 76.2765 132.916 76.1598 132.933L75.4596 133.036C75.2928 133.059 75.2037 133.169 75.2981 133.256C75.59 133.528 75.9657 133.804 76.3576 134.06C76.4428 134.113 76.5937 134.123 76.7013 134.078L77.2227 133.863C77.3468 133.808 77.3692 133.71 77.2755 133.647Z" fill="white"/>
<path d="M77.0354 134.465C77.8004 134.902 78.4532 135.212 78.4532 135.212C78.6656 135.328 79.4887 134.815 79.1083 134.675C78.8293 134.571 78.3793 134.335 77.9199 134.057C77.8348 134.008 77.7008 134.003 77.6014 134.043L77.0634 134.263C76.9476 134.313 76.9334 134.407 77.0354 134.465Z" fill="white"/>
<path d="M98.0786 136.31C97.8466 136.087 97.6642 135.844 97.5322 135.604C97.506 135.563 97.43 135.537 97.3467 135.553L96.1895 135.781C96.1147 135.797 96.0657 135.845 96.092 135.886C96.2758 136.185 96.562 136.556 96.8619 136.815C96.9049 136.856 97.0055 136.863 97.0717 136.833L98.0312 136.414C98.0974 136.389 98.113 136.346 98.0786 136.31Z" fill="white"/>
<path d="M95.8492 135.405C95.8763 135.479 96.0197 135.522 96.1529 135.495L97.1519 135.299C97.2685 135.277 97.3336 135.21 97.3068 135.145C97.1361 134.715 97.1104 134.384 97.1104 134.384C97.1104 134.384 95.625 134.232 95.622 134.433C95.6163 134.532 95.6434 134.914 95.8492 135.405Z" fill="white"/>
<path d="M99.7161 137.202C99.4541 137.106 99.1747 136.988 98.8782 136.855C98.7511 136.798 98.6321 136.731 98.5215 136.664C98.4619 136.628 98.3698 136.626 98.2953 136.656L97.3605 137.06C97.286 137.09 97.2709 137.151 97.3306 137.192C97.7828 137.512 98.2578 137.747 98.7478 137.916C98.8155 137.942 98.9156 137.93 98.9648 137.891L99.7449 137.337C99.8106 137.293 99.8006 137.233 99.7161 137.202Z" fill="white"/>
<path d="M101.812 137.846C101.86 137.765 101.774 137.679 101.623 137.664C101.27 137.622 100.9 137.557 100.487 137.447C100.378 137.417 100.244 137.435 100.162 137.493L99.5463 137.931C99.4312 138.009 99.4929 138.124 99.6528 138.157C100.183 138.264 100.729 138.324 101.29 138.36C101.416 138.371 101.541 138.326 101.58 138.254L101.812 137.846Z" fill="white"/>
<path d="M102.38 138.397C102.957 138.386 103.583 138.331 104.184 138.264C104.318 138.251 104.408 138.178 104.398 138.103L104.346 137.749C104.335 137.666 104.2 137.608 104.05 137.622C103.507 137.679 102.998 137.716 102.638 137.711C102.629 137.712 102.621 137.712 102.604 137.712C102.487 137.711 102.379 137.756 102.339 137.818L102.132 138.207C102.085 138.306 102.204 138.401 102.38 138.397Z" fill="white"/>
<path d="M107.097 137.801C107.389 137.751 107.037 137.111 106.613 137.225C106.305 137.308 105.697 137.413 105.022 137.506C104.905 137.524 104.823 137.587 104.833 137.652L104.885 138.015C104.896 138.094 105.039 138.151 105.181 138.129C106.273 137.973 107.097 137.801 107.097 137.801Z" fill="white"/>
<path d="M110.347 139.51C110.437 139.769 110.451 139.966 110.638 139.773C110.826 139.581 111.528 138.617 111.528 138.617C112.059 137.831 114.367 137.389 115.079 137.103C115.791 136.813 116.918 136.665 117.211 136.363C117.912 135.651 116.621 135.597 118.126 134.911C119.193 134.419 120.903 133.872 121.485 133.098C122.067 132.329 120.765 131.845 120.765 131.845C120.323 131.623 120.425 131.98 120.632 132.19C120.838 132.4 120.162 132.469 119.621 132.606C119.081 132.742 118.658 132.894 118.261 133.087C117.864 133.28 117.866 133.037 118.071 132.854C118.283 132.67 119.013 132.412 119.297 132.072C119.581 131.732 118.529 131.854 118.039 132.302C117.549 132.751 116.526 133.022 115.46 133.238C114.394 133.454 113.211 133.364 111.757 133.459C110.303 133.555 109.357 134.184 107.789 135.022C106.221 135.86 104.801 136.319 103.439 136.412C102.662 136.466 101.509 136.254 100.592 135.787C99.7599 135.361 99.1792 134.324 98.8969 133.793C98.6147 133.263 98.7216 132.881 98.5107 133.134C98.2915 133.388 98.5732 134.827 98.9866 135.559C99.3915 136.292 100.779 136.821 102.249 136.987C104.668 137.263 107.548 136.334 109.427 135.211C111.305 134.089 112.731 133.854 113.225 133.86C113.719 133.865 114.185 134.072 113.518 134.165C112.851 134.263 112.108 134.348 110.315 135.258C108.523 136.167 108.344 136.977 108.194 137.322C108.044 137.668 108.054 138.009 107.571 138.106C107.088 138.204 104.036 139.002 100.972 138.701C99.2428 138.533 98.0203 138.22 96.6343 137.438C95.2484 136.657 94.8845 135.272 94.873 134.229C94.8615 133.186 95.3905 132.311 95.5572 131.974C95.7324 131.642 96.1243 131.58 96.0051 131.817C95.7504 132.306 95.7118 133.355 95.6571 133.811C95.6509 133.89 95.7614 133.953 95.9037 133.949L96.7236 133.927C96.8407 133.924 96.9398 133.869 96.9462 133.799C96.981 133.536 97.0785 132.808 98.2778 131.643C99.771 130.199 102.077 128.457 101.58 126.487C101.307 125.395 100.073 125.25 99.1 124.58C98.8866 124.431 98.284 124.129 97.6393 123.819C97.8055 123.772 97.9969 123.73 98.2134 123.686C99.9405 123.771 102.433 124.597 103.439 124.954C104.622 125.375 106.64 126.598 107.641 127.381C108.642 128.163 112.508 129.949 113.14 130.119C113.773 130.289 112.658 130.225 112.097 130.255C111.537 130.284 111.825 130.402 111.825 130.402C111.825 130.402 113.934 130.968 116.718 131.145C119.503 131.318 122.333 131.007 126.133 129.098C129.932 127.185 128.998 124.515 129.013 124.14C129.028 123.766 130.274 124.34 130.72 124.422C131.166 124.503 131.478 124.588 131.281 124.407C131.083 124.225 129.973 123.427 129.973 123.427C129.035 122.797 129.585 121.472 129.514 120.992C129.442 120.512 129.811 119.894 129.502 119.607C128.772 118.93 128.009 119.531 127.738 118.476C127.55 117.723 127.604 116.641 126.725 115.995C125.845 115.35 124.399 115.75 124.399 115.75C123.824 115.859 124.43 115.973 124.857 115.976C125.292 115.978 125.042 116.336 124.967 116.661C124.893 116.985 124.9 117.261 124.991 117.544C125.083 117.827 124.703 117.711 124.53 117.524C124.358 117.337 124.345 116.855 123.977 116.556C123.609 116.258 123.23 116.825 123.661 117.276C124.092 117.728 123.967 118.349 123.732 118.968C123.498 119.587 122.733 120.118 122.109 120.865C121.484 121.611 121.957 122.366 122.415 123.523C122.873 124.681 122.831 125.585 122.255 126.288C121.931 126.69 120.981 127.151 119.773 127.371C118.673 127.569 116.758 127.359 115.792 127.244C114.826 127.13 114.292 126.897 114.567 127.123C114.841 127.35 117.216 127.894 118.569 128.044C119.912 128.195 121.475 127.774 122.513 127.142C124.226 126.104 124.319 124.272 123.585 122.827C122.851 121.383 123.24 120.586 123.518 120.349C123.788 120.113 124.354 119.985 124.146 120.351C123.938 120.717 123.681 121.122 124.135 122.415C124.589 123.708 125.749 124.182 126.199 124.418C126.649 124.653 127.189 124.812 127.079 125.091C126.978 125.37 126.584 127.224 124.494 128.567C123.309 129.324 122.182 129.767 120.239 130.072C118.297 130.372 115.964 129.893 114.343 129.403C112.723 128.918 111.65 128.245 111.224 128.004C110.799 127.763 110.919 127.54 111.216 127.71C111.837 128.062 113.442 128.581 114.11 128.825C114.229 128.868 114.387 128.84 114.452 128.768L114.86 128.364C114.917 128.302 114.881 128.233 114.788 128.193C114.399 128.049 113.325 127.662 112.164 126.528C110.728 125.121 109.252 123.182 105.943 122.486C104.107 122.1 103.225 122.629 101.672 122.783C101.346 122.816 100.638 122.947 99.8637 123.099C100.703 122.244 103.583 121.305 104.746 120.95C106.016 120.565 108.969 120.144 110.707 120.013C112.445 119.881 117.23 118.812 117.819 118.585C118.407 118.359 117.734 118.868 117.499 119.155C117.264 119.442 117.589 119.359 117.589 119.359C117.589 119.359 119.56 118.589 121.276 117.308C122.991 116.026 123.971 114.502 122.951 111.765C121.931 109.032 117.272 108.264 116.698 108.083C116.123 107.902 117.663 107.556 118.018 107.378C118.373 107.196 118.672 107.085 118.287 107.1C117.902 107.115 116.082 107.29 116.082 107.29C114.613 107.461 112.831 106.583 112.038 106.394C111.255 106.204 110.48 105.743 109.87 105.765C108.439 105.813 108.976 106.458 107.191 106.104C105.92 105.853 104.256 105.327 102.795 105.46C101.333 105.593 101.223 106.49 101.223 106.49C101.098 106.821 101.594 106.578 101.814 106.366C102.043 106.154 102.469 106.442 102.943 106.626C103.409 106.819 103.848 106.943 104.336 107.028C104.824 107.113 104.451 107.249 104.065 107.246C103.68 107.242 102.929 107.028 102.269 107.074C101.609 107.12 102.299 107.56 103.228 107.558C104.157 107.557 105.063 107.902 105.902 108.3C106.742 108.699 107.177 109.318 108.024 109.965C108.87 110.611 110.289 110.732 112.34 111.036C114.383 111.341 115.768 111.777 116.571 112.382C117.024 112.725 117.26 113.397 116.977 114.093C116.718 114.722 115.401 115.558 114.717 115.979C114.042 116.399 113.393 116.552 113.895 116.52C114.396 116.488 116.473 115.58 117.403 114.989C118.334 114.402 118.484 113.448 118.035 112.646C117.296 111.333 114.484 110.445 111.855 110.142C109.218 109.839 108.181 109.282 107.949 109.04C107.716 108.799 107.816 108.464 108.275 108.732C108.743 109 109.237 109.314 111.491 109.688C113.745 110.063 115.084 109.713 115.692 109.598C116.3 109.484 116.814 109.297 117.204 109.478C117.594 109.659 120.277 110.7 121.292 112.334C121.861 113.259 121.974 114.014 121.434 115.104C120.902 116.195 118.943 117.109 117.342 117.676C115.741 118.244 114.14 118.46 113.539 118.556C112.939 118.651 112.659 118.495 113.075 118.423C113.951 118.283 115.585 117.738 116.316 117.521C116.441 117.485 116.489 117.395 116.412 117.327L115.991 116.945C115.923 116.891 115.796 116.871 115.688 116.902C115.265 117.026 114.102 117.371 111.734 117.416C108.788 117.472 104.999 117.299 102.204 118.6C100.649 119.321 101.019 119.994 100.455 120.823C100.318 121.023 100.123 121.529 99.9526 122.049L99.3376 121.602C98.869 120.684 98.974 119.3 99.0496 118.69C99.1452 117.892 100.114 116.27 100.861 115.375C101.607 114.476 102.577 111.665 102.541 111.269C102.514 110.872 102.931 111.445 103.24 111.704C103.548 111.957 103.593 111.76 103.593 111.76C103.593 111.76 103.49 110.438 102.463 108.992C101.436 107.546 99.6281 106.332 94.883 105.491C90.1377 104.642 86.4202 106.502 85.8307 106.686C85.2413 106.875 85.5517 105.968 85.4694 105.708C85.387 105.449 85.3733 105.253 85.1859 105.445C84.9985 105.637 84.2793 106.597 84.2793 106.597C83.7396 107.383 81.4235 107.811 80.7112 108.097C79.9988 108.383 78.864 108.526 78.5624 108.829C77.8532 109.541 79.144 109.595 77.6302 110.276C76.5549 110.764 74.8448 111.306 74.2459 112.071C73.6554 112.84 74.9497 113.329 74.9497 113.329C75.3911 113.551 75.2895 113.199 75.0827 112.984C74.8845 112.774 75.5608 112.705 76.0931 112.573C76.6337 112.437 77.0567 112.29 77.4534 112.097C77.8501 111.903 77.8484 112.151 77.6357 112.335C77.4229 112.519 76.6847 112.777 76.3924 113.113C76.1 113.448 77.152 113.335 77.6507 112.891C78.1495 112.447 79.172 112.177 80.2381 111.97C81.3042 111.759 82.4873 111.853 83.9417 111.762C85.3962 111.671 86.3505 111.047 87.9357 110.218C89.5209 109.389 90.9404 108.934 92.3028 108.846C93.0801 108.797 94.2331 109.013 95.1417 109.485C95.9656 109.916 96.5296 110.959 96.8034 111.485C97.0772 112.011 96.962 112.397 97.1812 112.143C97.4004 111.89 97.1355 110.451 96.7472 109.717C96.359 108.984 94.9964 108.445 93.5264 108.27C91.1155 107.979 88.2181 108.895 86.3226 110.013C84.4269 111.127 83.0014 111.357 82.5071 111.347C82.0128 111.337 81.5551 111.13 82.214 111.037C82.8814 110.944 83.6242 110.858 85.4252 109.958C87.2261 109.058 87.4219 108.248 87.5717 107.902C87.7298 107.556 87.7206 107.215 88.2036 107.118C88.6952 107.03 91.7552 106.245 94.8198 106.56C96.5494 106.738 97.7636 107.051 99.1414 107.842C100.519 108.628 100.858 110.013 100.861 111.057C100.864 112.1 100.318 112.976 100.143 113.308C99.968 113.64 99.5678 113.702 99.6954 113.465C99.9584 112.976 100.014 111.926 100.077 111.471C100.091 111.391 99.9725 111.329 99.8303 111.333L99.0102 111.35C98.8931 111.353 98.7941 111.407 98.7791 111.473C98.7443 111.736 98.6384 112.464 97.4137 113.62C95.9037 115.06 93.5726 116.794 94.0362 118.765C94.292 119.862 95.5268 120.011 96.4912 120.687C96.551 120.732 96.6531 120.79 96.772 120.853C96.5812 120.919 96.3738 120.99 96.1746 121.056C94.6438 120.798 92.9379 120.259 92.1437 119.995C90.9437 119.588 88.8767 118.39 87.8429 117.622C86.8089 116.85 82.8686 115.118 82.2363 114.957C81.604 114.796 82.7189 114.846 83.2705 114.808C83.8304 114.769 83.5343 114.655 83.5343 114.655C83.5343 114.655 81.4013 114.114 78.6094 113.974C75.8174 113.835 72.9968 114.182 69.2734 116.136C65.5502 118.094 66.5933 120.751 66.5867 121.126C66.58 121.5 65.3173 120.94 64.8633 120.868C64.409 120.792 64.0971 120.711 64.3028 120.888C64.5085 121.065 65.6517 121.848 65.6517 121.848C66.6146 122.468 66.1146 123.796 66.2029 124.276C66.2913 124.755 65.9479 125.373 66.2655 125.659C67.0203 126.327 67.7658 125.717 68.0705 126.766C68.2916 127.513 68.2791 128.599 69.1838 129.234C70.0885 129.87 71.5174 129.452 71.5174 129.452C72.0919 129.334 71.4778 129.229 71.0425 129.231C70.6073 129.238 70.8402 128.872 70.9068 128.547C70.965 128.222 70.949 127.942 70.8494 127.664C70.7497 127.381 71.1295 127.493 71.3104 127.68C71.4912 127.867 71.5209 128.343 71.9056 128.637C72.2903 128.931 72.6433 128.36 72.196 127.918C71.7485 127.471 71.8489 126.851 72.0583 126.232C72.2676 125.614 73.015 125.074 73.6058 124.319C74.1966 123.564 73.6991 122.815 73.1907 121.663C72.6823 120.512 72.6914 119.609 73.2416 118.901C73.5573 118.5 74.4822 118.026 75.6816 117.792C76.7727 117.58 78.6952 117.767 79.6691 117.867C80.6431 117.967 81.1851 118.195 80.9028 117.974C80.6205 117.752 78.2203 117.237 76.8687 117.105C75.5171 116.973 73.9716 117.412 72.9592 118.057C71.2882 119.118 71.2623 120.948 72.0546 122.382C72.847 123.816 72.4835 124.616 72.222 124.857C71.9606 125.098 71.4032 125.23 71.5942 124.86C71.7851 124.49 72.0337 124.085 71.53 122.798C71.0264 121.511 69.8501 121.052 69.3833 120.821C68.9166 120.59 68.3767 120.441 68.4695 120.158C68.5625 119.879 68.8807 118.023 70.9201 116.653C72.0715 115.882 73.1894 115.422 75.1231 115.098C77.0568 114.77 79.4051 115.226 81.0504 115.691C82.6874 116.157 83.7937 116.815 84.2271 117.051C84.6605 117.287 84.5493 117.51 84.2434 117.345C83.606 116.998 81.9849 116.499 81.3005 116.269C81.1822 116.23 81.0239 116.258 80.9589 116.33L80.568 116.738C80.5111 116.801 80.5465 116.87 80.6479 116.904C81.0451 117.043 82.1353 117.416 83.3378 118.535C84.8322 119.921 86.3829 121.845 89.7161 122.494C91.568 122.855 92.4326 122.317 93.9769 122.145C94.2023 122.12 94.6189 122.043 95.1019 121.946C95.1146 122.109 95.078 122.302 95.0329 122.49C93.8379 123.196 91.7045 123.881 90.7493 124.164C89.4786 124.545 86.5173 124.957 84.779 125.079C83.0324 125.201 78.2465 126.257 77.6498 126.484C77.0531 126.71 77.7343 126.201 77.9777 125.913C78.2211 125.626 77.8884 125.71 77.8884 125.71C77.8884 125.71 75.9079 126.47 74.1841 127.747C72.4603 129.024 71.4632 130.544 72.4498 133.282C73.4365 136.021 78.0879 136.803 78.6623 136.988C79.2365 137.169 77.6968 137.511 77.3332 137.689C76.9697 137.872 76.6797 137.983 77.0644 137.967C77.4492 137.952 79.27 137.786 79.27 137.786C80.7391 137.62 82.5129 138.503 83.2968 138.697C84.0806 138.887 84.8468 139.353 85.4576 139.336C86.8883 139.297 86.3599 138.643 88.1364 139.006C89.3992 139.262 91.063 139.793 92.5248 139.664C93.9866 139.536 94.1217 138.648 94.1217 138.648C94.2551 138.317 93.7591 138.555 93.5304 138.767C93.3017 138.979 92.8753 138.691 92.4097 138.502C91.9441 138.314 91.5053 138.19 91.0174 138.105C90.5295 138.02 90.9026 137.883 91.2879 137.892C91.6732 137.895 92.4242 138.109 93.0845 138.068C93.7449 138.026 93.0546 137.582 92.1335 137.579C91.2042 137.58 90.2988 137.231 89.4675 136.832C88.6362 136.433 88.2008 135.813 87.3626 135.162C86.5245 134.511 85.1062 134.391 83.063 134.076C81.0199 133.762 79.6432 133.322 78.8482 132.716C78.3951 132.373 78.1759 131.696 78.467 131.005C78.7347 130.375 80.0602 129.544 80.7438 129.123C81.4275 128.707 82.0681 128.554 81.5749 128.586C81.0817 128.613 78.9879 129.521 78.0491 130.104C77.1103 130.686 76.9521 131.645 77.3923 132.442C78.1145 133.761 80.9186 134.658 83.5476 134.966C86.1768 135.279 87.2135 135.84 87.4377 136.082C87.6619 136.324 87.5705 136.659 87.1026 136.386C86.6432 136.118 86.1491 135.803 83.8948 135.42C81.6405 135.036 80.3018 135.381 79.702 135.496C79.0938 135.606 78.5714 135.793 78.1897 135.612C77.808 135.43 75.1337 134.379 74.1349 132.741C73.574 131.815 73.4697 131.056 74.0181 129.969C74.5665 128.883 76.5346 127.974 78.1354 127.411C79.7362 126.848 81.3464 126.636 81.9467 126.541C82.5469 126.445 82.8276 126.606 82.4024 126.673C81.5269 126.809 79.8837 127.35 79.1527 127.566C79.0281 127.602 78.9803 127.692 79.0575 127.76L79.4782 128.147C79.5467 128.201 79.6728 128.221 79.7808 128.19C80.2045 128.066 81.3758 127.726 83.7443 127.685C86.6903 127.638 90.4714 127.821 93.2834 126.534C94.8465 125.817 94.4766 125.144 95.0572 124.319C95.1781 124.148 95.3512 123.736 95.5067 123.292C95.7082 123.314 95.9199 123.402 96.1322 123.513C96.7343 124.414 96.6421 125.956 96.5675 126.604C96.4802 127.402 95.5445 129.027 94.8069 129.927C94.0693 130.826 93.1491 133.644 93.185 134.041C93.2208 134.438 92.795 133.864 92.4784 133.611C92.1701 133.357 92.1168 133.555 92.1168 133.555C92.1168 133.555 92.2363 134.876 93.2884 136.317C94.3404 137.758 96.1648 138.962 100.918 139.784C105.679 140.605 109.363 138.732 109.952 138.543C110.558 138.344 110.264 139.25 110.347 139.51ZM114.133 136.493C114.047 136.387 114.537 136.266 114.762 136.214C114.987 136.161 115.446 135.807 115.446 135.807C115.671 135.749 115.982 135.792 115.979 135.994C115.985 136.232 115.509 136.273 115.135 136.386C114.77 136.499 114.237 136.621 114.133 136.493ZM127.975 120.729C128.013 120.597 127.709 120.208 127.709 120.208C127.739 120.071 127.97 119.944 128.282 120.038C128.654 120.15 128.46 120.398 128.441 120.633C128.422 120.867 128.322 121.179 128.07 121.171C127.861 121.158 127.936 120.862 127.975 120.729ZM110.833 107.03C110.647 106.951 109.876 106.92 109.876 106.92C109.673 106.841 109.593 106.67 109.908 106.559C110.273 106.427 110.563 106.635 110.918 106.752C111.273 106.868 111.713 107.058 111.566 107.179C111.443 107.285 111.02 107.114 110.833 107.03ZM81.6405 108.713C81.727 108.818 81.2363 108.939 81.0032 108.987C80.7785 109.04 80.3107 109.39 80.3107 109.39C80.0778 109.448 79.7752 109.404 79.778 109.198C79.78 108.96 80.2479 108.924 80.6216 108.811C81.0122 108.702 81.5365 108.585 81.6405 108.713ZM67.7673 124.533C67.7373 124.665 68.0577 125.054 68.0577 125.054C68.0279 125.19 67.8137 125.323 67.4931 125.233C67.1218 125.126 67.2993 124.878 67.3097 124.644C67.3202 124.409 67.4037 124.094 67.6635 124.101C67.8644 124.1 67.8054 124.396 67.7673 124.533ZM84.5527 138.074C84.739 138.153 85.5019 138.188 85.5019 138.188C85.6966 138.267 85.7766 138.438 85.4698 138.55C85.1048 138.676 84.8229 138.469 84.4681 138.352C84.1131 138.231 83.681 138.041 83.8284 137.92C83.9429 137.819 84.3663 137.995 84.5527 138.074Z" fill="white"/>
<path d="M113.052 19.8656L113.052 19.8654L113.05 19.8634L113.047 19.861L113.047 19.8605L113.045 19.8586L113.042 19.8565L113.041 19.8551L113.032 19.8471C112.66 19.8534 112.42 19.9944 112.266 20.1728L112.155 20.0712L31.3249 109.575L30.8366 110.115L31.362 110.622L40.5035 119.436C40.5035 119.436 40.5035 119.436 40.5036 119.436C46.5437 125.261 56.6257 125.09 67.7475 120.567C78.9259 116.02 91.4307 106.984 102.648 94.5606C113.864 82.1408 121.718 68.63 125.331 56.8011C128.924 45.0371 128.39 34.6639 122.368 28.8509L122.369 28.8497L113.52 20.317L113.228 20.0351L113.227 20.035L113.227 20.0347L113.226 20.0335L113.221 20.0291L113.205 20.0132L113.152 19.9627L113.112 19.9234L113.052 19.8656Z" fill="#303D48" stroke="#F3FBFD" stroke-width="1.5" stroke-miterlimit="10"/>
<path d="M112.875 19.696C106.841 13.8776 96.7741 14.0447 85.6581 18.565C74.4849 23.1087 61.9834 32.1417 50.7679 44.5634C39.5523 56.9851 31.697 70.4982 28.0837 82.3313C24.4888 94.1039 25.0239 104.494 31.0581 110.312C37.0922 116.131 47.1592 115.964 58.2753 111.443C69.4485 106.9 81.9499 97.8667 93.1655 85.4449C104.381 73.0232 112.236 59.5102 115.85 47.677C119.445 35.9044 118.909 25.5144 112.875 19.696Z" fill="#141414" stroke="#F3FBFD" stroke-width="1.5"/>
<path d="M81.9208 55.2288C82.5886 55.4528 83.3344 55.9809 83.4938 56.1125C83.6532 56.244 83.9176 56.2115 83.7844 55.2952C83.6423 54.3824 83.1525 53.2045 82.5053 52.3872C81.8581 51.5699 79.9549 50.1196 79.6667 50.7863C79.6667 50.7863 79.1023 52.0535 77.8945 53.6725C76.683 55.2885 74.2204 58.5096 73.6792 60.199C74.9747 58.053 76.6433 55.9641 77.3146 55.0249C77.6886 54.5052 78.3822 53.6498 78.7706 53.142C78.874 53.0093 78.9573 53.0781 78.8864 53.2157C78.6576 53.6481 78.2817 54.3842 78.0219 54.7802C77.362 55.7942 76.5533 56.8924 76.2964 57.1818C76.0341 57.4775 76.072 57.7268 76.6841 57.5016C77.2962 57.2764 79.1098 56.7021 79.7557 56.6574C80.4016 56.6127 81.3259 56.5035 81.6531 56.4465C81.9839 56.3925 82.6224 56.3198 81.9794 56.051C81.3131 55.7736 80.4841 55.8852 80.0444 55.8276C79.9543 55.8187 80.124 55.6426 80.2317 55.6007C80.6498 55.4334 81.4967 55.086 81.9208 55.2288Z" fill="#F3FBFD"/>
<path d="M81.4601 48.3434C81.4122 48.4237 81.4163 48.4925 81.4669 48.5124C82.0245 48.7001 84.9388 49.8402 85.7431 53.7296C85.7526 53.792 85.8229 53.7954 85.8945 53.7455L86.2739 53.4701C86.3456 53.4202 86.397 53.321 86.3822 53.2651C85.905 50.9426 84.7064 49.5831 83.7772 48.8492C82.935 48.1871 82.1749 47.8978 81.9061 47.8177C81.8502 47.8042 81.7659 47.8546 81.718 47.9349L81.4601 48.3434Z" fill="#F3FBFD"/>
<path d="M70.5781 51.8971C69.1692 52.6526 65.8941 54.8655 66.2204 55.1565C66.2204 55.1565 66.8225 55.7405 67.0811 57.0437C67.345 58.3403 67.8121 60.9924 68.8209 61.5413C68.1585 60.1666 67.9195 58.3674 67.7428 57.6441C67.6407 57.2438 67.5557 56.498 67.4875 56.0712C67.4705 55.9591 67.6173 55.8623 67.6737 55.9415C67.8377 56.1857 68.1377 56.5749 68.2371 56.8531C68.5054 57.5539 68.6975 58.4208 68.6998 58.706C68.702 58.9912 68.9698 58.9397 69.3857 58.2584C69.8016 57.5772 71.1108 55.5623 71.7279 54.829C72.3396 54.1023 73.1794 53.0623 73.4627 52.6967C73.7461 52.3311 74.3273 51.6119 73.4275 52.3408C72.4974 53.0991 71.7523 54.0318 71.2521 54.5346C71.1557 54.6294 71.1633 54.4504 71.2308 54.3317C71.5026 53.8694 72.0424 52.9198 72.6057 52.4364C73.4907 51.6736 74.7351 50.8149 75.0145 50.6313C75.2939 50.4477 75.5363 50.1464 74.555 50.3394C73.5737 50.5324 71.9871 51.1415 70.5781 51.8971Z" fill="#F3FBFD"/>
<path d="M65.6658 52.9558L65.7921 53.2234C65.8159 53.2758 65.8878 53.2697 65.9576 53.2074C66.6942 52.5728 70.7112 49.2392 75.1132 48.1849C75.1833 48.1664 75.2547 48.0946 75.2829 48.0088L75.4128 47.5929C75.4356 47.5136 75.3992 47.4618 75.3291 47.4803C72.7059 48.1059 70.2274 49.5157 68.6066 50.587C67.1417 51.558 66.1027 52.4335 65.7522 52.7329C65.6754 52.8112 65.6383 52.9004 65.6658 52.9558Z" fill="#F3FBFD"/>
<path d="M65.0803 67.183C63.1492 67.9219 61.2809 68.1787 60.4347 68.385C59.9675 68.5009 59.205 68.5911 58.7484 68.6721C58.628 68.6926 58.6915 68.527 58.8188 68.4686C59.2062 68.2869 59.8715 67.9531 60.2306 67.8352C61.1427 67.5416 62.1292 67.3202 62.3884 67.316C62.6476 67.3119 62.8811 67.0141 62.6885 66.561C62.5014 66.1015 62.0274 64.6534 62.0006 63.9773C61.9737 63.3013 61.8999 62.3795 61.8614 62.0644C61.823 61.7493 61.773 61.1087 61.5089 62.1005C61.2343 63.1272 61.3145 63.9453 61.2468 64.4997C61.2351 64.6099 61.0784 64.6005 61.0472 64.5203C60.9045 64.2282 60.61 63.6256 60.7527 63.0023C60.9809 62.0245 61.4904 60.6467 61.6086 60.341C61.7358 60.0318 61.7103 59.7601 60.8655 60.8504C60.0208 61.9407 58.931 63.6898 58.1637 65.2472C57.3928 66.8017 56.0079 70.4215 56.61 70.0682C56.61 70.0682 57.7605 69.4045 59.2108 69.1081C60.6595 68.8211 63.5391 68.2981 65.0803 67.183Z" fill="#F3FBFD"/>
<path d="M59.4813 60.2549C59.5365 60.1806 59.5484 60.0923 59.5032 60.0659L59.2627 59.922C59.2175 59.8956 59.1314 59.9335 59.0761 60.0078C56.9297 62.9121 55.6477 65.647 54.947 67.4337C54.3098 69.0549 54.0307 70.1978 53.9437 70.5837C53.9246 70.666 53.9717 70.7049 54.0471 70.6799L54.4186 70.5396C54.4904 70.5116 54.5546 70.4338 54.572 70.361C54.7566 69.5542 55.8902 65.1169 59.4813 60.2549Z" fill="#F3FBFD"/>
<path d="M57.8176 76.297C57.1374 76.0954 56.3702 75.5933 56.2054 75.4682C56.0443 75.3462 55.7709 75.3822 55.9327 76.2785C56.0945 77.1749 56.6237 78.3198 57.2923 79.1112C57.9609 79.9026 59.9283 81.2751 60.2039 80.6088C60.2039 80.6088 60.7431 79.3427 61.9328 77.7087C63.1171 76.0813 65.5382 72.8368 66.0542 71.1484C64.7948 73.3023 63.1479 75.4092 62.4928 76.3508C62.1261 76.8765 61.4488 77.7344 61.0586 78.2516C60.9588 78.3873 60.8665 78.322 60.9428 78.1779C61.168 77.7425 61.5259 77.0134 61.7784 76.6115C62.4221 75.595 63.2163 74.4848 63.4696 74.1925C63.7283 73.8937 63.685 73.6509 63.0748 73.8886C62.461 74.1232 60.6388 74.7449 59.9805 74.8121C59.3222 74.8793 58.389 75.0139 58.0565 75.0774C57.7239 75.1409 57.0784 75.2294 57.7338 75.4759C58.4126 75.7308 59.254 75.5967 59.7043 75.6414C59.7944 75.6503 59.6248 75.8264 59.5207 75.8713C59.1081 76.054 58.2488 76.4239 57.8176 76.297Z" fill="#F3FBFD"/>
<path d="M58.4398 83.0765C58.4878 82.9962 58.48 82.9244 58.4277 82.914C57.8576 82.7488 54.8757 81.7054 53.9747 77.8888C53.9599 77.833 53.895 77.823 53.8181 77.8794L53.4422 78.1578C53.3706 78.2077 53.3192 78.307 53.3376 78.3658C53.8774 80.642 55.1225 81.9525 56.0837 82.6475C56.9527 83.2772 57.7306 83.5376 58.0048 83.6112C58.0607 83.6247 58.1449 83.5743 58.1982 83.4875L58.4398 83.0765Z" fill="#F3FBFD"/>
<path d="M69.0903 79.7551C70.4976 79.009 73.7728 76.818 73.4572 76.5141C73.4572 76.5141 72.8604 75.9236 72.6108 74.617C72.3576 73.3074 71.9084 70.6482 70.9051 70.0929C71.5567 71.4805 71.7778 73.2867 71.9544 74.0101C72.0566 74.4104 72.1326 75.1597 72.2007 75.5864C72.2178 75.6986 72.071 75.7954 72.0146 75.7161C71.8506 75.4719 71.5559 75.0762 71.4566 74.7981C71.1936 74.0908 71.0104 73.2203 71.0082 72.9352C71.006 72.65 70.7382 72.7015 70.3187 73.3798C69.8991 74.058 68.581 76.0764 67.9656 76.8002C67.3502 77.524 66.5069 78.5609 66.2235 78.9265C65.9401 79.2921 65.3553 80.0084 66.2551 79.2795C67.1888 78.5242 67.934 77.5914 68.4324 77.0981C68.5288 77.0033 68.5212 77.1823 68.4501 77.298C68.1783 77.7603 67.6312 78.7039 67.068 79.1873C66.1793 79.9471 64.9366 80.7964 64.6536 80.977C64.3742 81.1606 64.1282 81.4589 65.1078 81.2754C66.0983 81.1009 67.6831 80.5012 69.0903 79.7551Z" fill="#F3FBFD"/>
<path d="M73.993 78.723L73.8667 78.4553C73.8429 78.403 73.7709 78.409 73.7012 78.4714C72.9609 79.103 68.9437 82.4146 64.5469 83.4405C64.4769 83.459 64.4054 83.5308 64.3737 83.6136L64.2401 84.0265C64.2173 84.1058 64.2537 84.1576 64.3184 84.1456C66.9382 83.539 69.4097 82.1451 71.034 81.0768C72.5025 80.1088 73.5398 79.2428 73.8903 78.9434C73.978 78.8741 74.0151 78.7848 73.993 78.723Z" fill="#F3FBFD"/>
<path d="M81.1631 62.8954C81.2835 62.8749 81.22 63.0404 81.0927 63.0988C80.6999 63.287 80.0383 63.6239 79.6792 63.7417C78.7653 64.0448 77.7824 64.2692 77.5179 64.2798C77.2534 64.2904 77.0288 64.5847 77.2214 65.0378C77.4139 65.4909 77.9022 66.929 77.9344 67.5986C77.9613 68.2746 78.044 69.193 78.0915 69.5045C78.1353 69.8131 78.1889 70.4567 78.4493 69.462C78.715 68.4388 78.6348 67.6206 78.6935 67.0697C78.7052 66.9595 78.8619 66.9689 78.8985 67.0427C79.0412 67.3348 79.3411 67.9309 79.2073 68.5507C78.9881 69.525 78.4912 70.9023 78.3693 71.205C78.2511 71.5107 78.273 71.7794 79.1088 70.6926C79.9499 69.5993 81.0288 67.8412 81.7908 66.2903C82.5527 64.7393 83.9124 61.1205 83.3086 61.4833C83.3086 61.4833 82.16 62.1594 80.7043 62.4623C79.236 62.7658 76.3475 63.3142 74.8082 64.4418C76.7464 63.6869 78.6182 63.4112 79.4661 63.1954C79.9369 63.0825 80.7011 62.9829 81.1631 62.8954Z" fill="#F3FBFD"/>
<path d="M80.9037 71.5192C83.0339 68.6124 84.2996 65.8751 84.9931 64.0824C85.6177 62.4617 85.8878 61.3223 85.9748 60.9364C85.994 60.8541 85.9469 60.8153 85.8715 60.8402L85.4946 60.987C85.4228 61.015 85.3586 61.0928 85.3412 61.1656C85.1639 61.9783 84.0572 66.4052 80.4878 71.2851C80.4326 71.3594 80.4261 71.4412 80.4713 71.4676L80.7172 71.6051C80.766 71.6345 80.8485 71.5935 80.9037 71.5192Z" fill="#F3FBFD"/>
<path d="M88.2487 55.4691C88.6615 55.0795 89.1668 54.5483 89.5216 54.1109C89.5751 54.046 89.5853 53.9672 89.5437 53.9438L88.9543 53.6101C88.9163 53.5897 88.8571 53.6171 88.8053 53.6725C88.5021 54.0326 88.1646 54.3753 87.8393 54.6736C87.7839 54.726 87.7485 54.8058 87.7741 54.8487L88.1084 55.4842C88.1196 55.537 88.188 55.528 88.2487 55.4691Z" fill="white"/>
<path d="M87.4204 55.2111C87.3857 55.1497 87.2922 55.1598 87.2045 55.2291C86.6107 55.72 86.1594 56.0234 86.1594 56.0234C86.1594 56.0234 85.978 57.225 86.2503 57.0574C86.3954 56.9701 86.9219 56.6198 87.5925 56.0506C87.6962 55.9618 87.7492 55.8311 87.7126 55.7573L87.4204 55.2111Z" fill="white"/>
<path d="M90.9962 51.8094C91.0299 51.7391 91.0168 51.6738 90.9591 51.6698L90.1826 51.585C90.1214 51.578 90.0391 51.6409 89.9983 51.7272C89.8691 52.0019 89.7148 52.2997 89.5284 52.6363C89.4485 52.7774 89.3596 52.9221 89.2688 53.0542C89.2226 53.1251 89.2177 53.1974 89.2593 53.2208L89.8343 53.5425C89.8795 53.5689 89.962 53.528 90.0172 53.4537C90.4571 52.8467 90.7715 52.3106 90.9962 51.8094Z" fill="white"/>
<path d="M90.3347 50.9562C90.2941 51.0644 90.3217 51.1417 90.3992 51.1511L91.0118 51.2206C91.1217 51.235 91.2808 51.0938 91.3246 50.9447C91.465 50.472 91.5371 50.0302 91.5805 49.5865C91.5905 49.4857 91.5252 49.4319 91.4265 49.4704L90.8628 49.6591C90.7515 49.6981 90.6355 49.8313 90.6131 49.9544C90.5649 50.2416 90.4757 50.5712 90.3347 50.9562Z" fill="white"/>
<path d="M91.6124 48.7758C91.5858 48.3725 91.5106 47.9617 91.3997 47.5868C91.3774 47.5031 91.2784 47.4976 91.1781 47.5675L90.6912 47.9068C90.5766 47.9866 90.495 48.1372 90.5245 48.2269C90.6117 48.5714 90.6719 48.9044 90.674 49.1677C90.6723 49.1771 90.6759 49.1801 90.6742 49.1896C90.6749 49.2774 90.7346 49.3157 90.8279 49.2838L91.3647 49.1055C91.4923 49.069 91.6188 48.9009 91.6124 48.7758Z" fill="white"/>
<path d="M90.714 45.8872C90.6407 45.7178 89.7649 46.5209 89.9321 46.7242C90.0539 46.8792 90.2078 47.2242 90.3514 47.6259C90.3754 47.7002 90.4618 47.7061 90.5531 47.6398L91.0544 47.2905C91.169 47.2107 91.2416 47.0636 91.2068 46.9803C90.9659 46.3348 90.714 45.8872 90.714 45.8872Z" fill="white"/>
<path d="M78.1601 44.749C78.1879 45.077 78.1547 45.442 78.1071 45.795C78.095 45.8613 78.1402 45.8877 78.203 45.8633L79.1305 45.4624C79.1933 45.438 79.2486 45.3636 79.2606 45.2973C79.3219 44.8466 79.3465 44.3002 79.2985 43.9228C79.2927 43.8634 79.2314 43.8565 79.1688 43.9029L78.2614 44.5819C78.1951 44.6253 78.1525 44.6991 78.1601 44.749Z" fill="white"/>
<path d="M77.6435 47.6365C77.6435 47.6365 78.5646 47.797 78.6901 47.4973C78.7572 47.3348 78.9669 46.7558 79.125 46.0253C79.1494 45.9146 79.0805 45.8578 78.9765 45.9028L78.1763 46.2452C78.0812 46.2866 77.9956 46.3904 77.973 46.4916C77.8178 47.1373 77.6435 47.6365 77.6435 47.6365Z" fill="white"/>
<path d="M79.1961 43.3807C79.0809 42.9151 78.9001 42.5807 78.6678 42.3455C78.637 42.3091 78.5669 42.3276 78.5008 42.3929L77.6311 43.2773C77.565 43.3427 77.5351 43.4379 77.5732 43.4803C77.6949 43.6134 77.815 43.7778 77.9335 43.9737C77.9846 44.0594 78.0267 44.1486 78.0581 44.2508C78.0783 44.3002 78.1359 44.3041 78.2075 44.2542L79.0898 43.5981C79.1649 43.5293 79.211 43.4365 79.1961 43.3807Z" fill="white"/>
<path d="M78.2053 42.01C77.9144 41.8681 77.5755 41.8064 77.2152 41.7707C77.1288 41.7648 77.0195 41.8381 76.9502 41.9444L76.5519 42.5748C76.4701 42.7035 76.4818 42.8221 76.5701 42.8405C76.7865 42.8883 77.0013 42.9674 77.2113 43.1189C77.271 43.1572 77.3734 43.1218 77.4591 43.04L78.1485 42.3446C78.2664 42.2239 78.2975 42.0533 78.2053 42.01Z" fill="white"/>
<path d="M74.888 43.0196C75.2922 42.9062 75.6642 42.8317 75.9089 42.8156C75.9178 42.8121 75.9215 42.8151 75.9304 42.8116C76.0096 42.8116 76.1116 42.7322 76.1703 42.639L76.5508 42.0375C76.6397 41.8929 76.6099 41.7593 76.4912 41.7703C76.0919 41.8114 75.6337 41.9238 75.1757 42.0582C75.0788 42.0871 74.9716 42.1949 74.9347 42.3061L74.7588 42.8367C74.7184 42.9668 74.7784 43.049 74.888 43.0196Z" fill="white"/>
<path d="M74.422 42.3062C73.5854 42.5968 72.9181 42.8963 72.9181 42.8963C72.6902 42.9807 72.5357 43.943 72.896 43.7498C73.1595 43.6076 73.6404 43.4159 74.1503 43.2481C74.2437 43.2162 74.3365 43.1184 74.3718 43.0167L74.5547 42.4701C74.5951 42.34 74.5333 42.2672 74.422 42.3062Z" fill="white"/>
<path d="M59.5222 56.8784C59.8442 56.8498 60.1468 56.8816 60.4155 56.9397C60.4641 56.9472 60.534 56.9068 60.5767 56.833L61.1717 55.8091C61.209 55.7418 61.2048 55.673 61.1562 55.6655C60.81 55.5979 60.3436 55.5727 59.9462 55.6263C59.8869 55.6318 59.8154 55.7036 59.7944 55.7734L59.4692 56.7802C59.4445 56.847 59.4664 56.8869 59.5222 56.8784Z" fill="white"/>
<path d="M61.6754 55.8108C61.6014 55.7825 61.4742 55.8628 61.4121 55.975L60.8969 56.8578C60.8365 56.9605 60.8445 57.0542 60.9059 57.0831C61.3392 57.2444 61.6071 57.4437 61.6071 57.4437C61.6071 57.4437 62.7062 56.4215 62.5594 56.2895C62.4814 56.2143 62.1736 55.9821 61.6754 55.8108Z" fill="white"/>
<path d="M57.7579 57.5259C58.0071 57.3936 58.2778 57.2574 58.5774 57.1231C58.7047 57.0647 58.834 57.0187 58.9562 56.9888C59.0226 56.9673 59.0851 56.899 59.1115 56.8227L59.4261 55.8508C59.4525 55.7745 59.4161 55.7227 59.346 55.7411C58.8016 55.8696 58.3153 56.0678 57.8601 56.3243C57.7956 56.3582 57.7386 56.442 57.7319 56.5018L57.6278 57.4621C57.6319 57.5309 57.6844 57.5633 57.7579 57.5259Z" fill="white"/>
<path d="M55.8934 58.6669C55.9229 58.7566 56.0452 58.7486 56.156 58.6438C56.4205 58.4043 56.7175 58.1699 57.0685 57.9363C57.1634 57.873 57.2381 57.7603 57.2518 57.6625L57.3322 56.9007C57.3492 56.7621 57.2265 56.7262 57.0905 56.832C56.661 57.1533 56.2553 57.527 55.848 57.932C55.7569 58.0203 55.7039 58.151 55.7369 58.2217L55.8934 58.6669Z" fill="white"/>
<path d="M55.1068 58.7265C54.7304 59.168 54.3546 59.6752 54.0092 60.175C53.9309 60.2847 53.9264 60.4009 53.9897 60.4422L54.2918 60.637C54.3624 60.6843 54.4951 60.6194 54.5842 60.4967C54.9029 60.0514 55.2111 59.6409 55.452 59.371C55.4574 59.3645 55.4627 59.358 55.4734 59.3451C55.552 59.2573 55.5889 59.1461 55.5685 59.0748L55.4195 58.6576C55.3701 58.5624 55.2191 58.5904 55.1068 58.7265Z" fill="white"/>
<path d="M52.4257 62.684C52.2711 62.9378 52.9834 63.1005 53.1765 62.704C53.3218 62.4098 53.6435 61.8796 54.0171 61.316C54.0811 61.2163 54.0875 61.1126 54.0315 61.0772L53.7221 60.8764C53.6551 60.8321 53.5224 60.897 53.4406 61.0257C52.8484 61.9429 52.4257 62.684 52.4257 62.684Z" fill="white"/>
<path d="M51.4051 76.2371C50.9996 76.6326 50.498 77.1669 50.1504 77.6103C50.0969 77.6751 50.0867 77.7539 50.1319 77.7803L50.7374 78.0946C50.7754 78.115 50.8399 78.0811 50.888 78.0227C51.1876 77.6596 51.5216 77.3139 51.8396 77.0096C51.895 76.9572 51.9267 76.8744 51.9048 76.8346L51.5508 76.2155C51.5253 76.1727 51.4605 76.1847 51.4051 76.2371Z" fill="white"/>
<path d="M52.245 76.4649C52.2797 76.5262 52.3732 76.5162 52.4662 76.4404C53.0581 75.937 53.5058 75.6307 53.5058 75.6307C53.5058 75.6307 53.6639 74.4425 53.3916 74.6101C53.2501 74.7005 52.7219 75.0602 52.0532 75.6419C51.9495 75.7307 51.9001 75.8643 51.942 75.9316L52.245 76.4649Z" fill="white"/>
<path d="M48.6955 79.9302C48.6655 80.0035 48.6803 80.0593 48.7326 80.0698L49.5215 80.1322C49.5828 80.1391 49.6651 80.0763 49.7058 79.99C49.8315 79.7122 49.9821 79.4115 50.1595 79.0784C50.2358 78.9342 50.3193 78.7961 50.4118 78.6544C50.4581 78.5836 50.4629 78.5113 50.4177 78.4849L49.8267 78.1826C49.7815 78.1562 49.699 78.1971 49.6474 78.2744C49.2201 78.8809 48.9166 79.426 48.6955 79.9302Z" fill="white"/>
<path d="M49.3903 80.7464C49.4309 80.6382 49.3996 80.5579 49.3168 80.555L48.6918 80.5079C48.5766 80.5 48.4264 80.6377 48.3826 80.7868C48.2512 81.256 48.1917 81.6973 48.1537 82.1345C48.1437 82.2353 48.2142 82.2826 48.3129 82.2441L48.8838 82.0394C48.9951 82.0005 49.1074 81.8643 49.1299 81.7412C49.1727 81.4604 49.2529 81.1343 49.3903 80.7464Z" fill="white"/>
<path d="M48.1493 82.9338C48.1848 83.3336 48.2744 83.7344 48.3906 84.1028C48.4182 84.1801 48.5173 84.1855 48.6176 84.1157L49.1026 83.7639C49.2172 83.6841 49.2952 83.5305 49.2657 83.4407C49.1731 83.1028 49.1039 82.7732 49.0929 82.5135C49.0946 82.504 49.091 82.501 49.0927 82.4916C49.092 82.4038 49.0234 82.369 48.939 82.3974L48.3951 82.5916C48.2605 82.6441 48.1376 82.8151 48.1493 82.9338Z" fill="white"/>
<path d="M49.1259 85.7562C49.2046 85.9191 50.0748 85.1005 49.9023 84.9037C49.7751 84.7552 49.6069 84.4202 49.458 84.025C49.4287 83.9572 49.3422 83.9512 49.2509 84.0176L48.7515 84.3793C48.6406 84.4621 48.5679 84.6092 48.6028 84.6925C48.8633 85.3215 49.1259 85.7562 49.1259 85.7562Z" fill="white"/>
<path d="M61.4865 86.8659C61.4677 86.5343 61.4919 86.1728 61.5485 85.8163C61.5606 85.75 61.5154 85.7236 61.4526 85.7481L60.5268 86.1395C60.4639 86.1639 60.4087 86.2382 60.3966 86.3046C60.3354 86.7553 60.3055 87.3082 60.3481 87.6921C60.3539 87.7514 60.4152 87.7584 60.4778 87.712L61.3888 87.0359C61.4514 86.9895 61.4887 86.9222 61.4865 86.8659Z" fill="white"/>
<path d="M62.0192 83.9695C62.0192 83.9695 61.1035 83.8025 60.978 84.1022C60.9109 84.2648 60.6975 84.8407 60.5341 85.5777C60.5097 85.6884 60.5786 85.7452 60.6826 85.7003L61.4828 85.3578C61.5779 85.3164 61.6635 85.2126 61.6861 85.1114C61.8359 84.4722 62.0192 83.9695 62.0192 83.9695Z" fill="white"/>
<path d="M60.446 88.2307C60.5559 88.7028 60.7367 89.0372 60.96 89.2759C60.9909 89.3123 61.0609 89.2938 61.1217 89.2349L61.9897 88.36C62.0558 88.2946 62.0857 88.1994 62.0475 88.157C61.9259 88.024 61.8058 87.8595 61.6873 87.6636C61.6362 87.5779 61.5941 87.4887 61.5627 87.3865C61.5479 87.3307 61.4849 87.3332 61.4133 87.3831L60.5309 88.0392C60.4773 88.0821 60.4312 88.1748 60.446 88.2307Z" fill="white"/>
<path d="M61.4246 89.6145C61.7155 89.7564 62.049 89.8245 62.4093 89.8602C62.4904 89.8727 62.605 89.7928 62.6744 89.6866L63.0763 89.0592C63.1581 88.9305 63.1464 88.8119 63.0581 88.7935C62.8417 88.7457 62.6322 88.6601 62.4222 88.5086C62.3625 88.4703 62.2655 88.4992 62.1744 88.5875L61.485 89.2829C61.3635 89.4006 61.3324 89.5712 61.4246 89.6145Z" fill="white"/>
<path d="M64.733 88.6288C64.3306 88.7328 63.9568 88.8167 63.7175 88.8263C63.7085 88.8298 63.7049 88.8268 63.6959 88.8303C63.6167 88.8304 63.5201 88.9032 63.456 89.003L63.0719 89.6014C62.9794 89.7431 63.0039 89.8832 63.1316 89.8686C63.5309 89.8276 63.9873 89.7246 64.4399 89.5967C64.5369 89.5678 64.6441 89.46 64.681 89.3488L64.8622 88.8118C64.9026 88.6816 64.8426 88.5994 64.733 88.6288Z" fill="white"/>
<path d="M65.1922 89.3482C66.0288 89.0576 66.6944 88.7676 66.6944 88.7676C66.9223 88.6832 67.0768 87.7209 66.7201 87.917C66.4566 88.0592 65.9811 88.2444 65.4675 88.4092C65.3742 88.4412 65.2813 88.539 65.2461 88.6407L65.0578 89.1937C65.0192 89.3144 65.0809 89.3871 65.1922 89.3482Z" fill="white"/>
<path d="M80.4784 74.6346C80.1564 74.6632 79.852 74.6409 79.5833 74.5827C79.5347 74.5753 79.4648 74.6157 79.4222 74.6895L78.8307 75.7164C78.7935 75.7837 78.7976 75.8525 78.8463 75.86C79.1941 75.9181 79.6642 75.9463 80.058 75.8897C80.1173 75.8842 80.1888 75.8124 80.2098 75.7426L80.526 74.7393C80.5507 74.6725 80.5288 74.6326 80.4784 74.6346Z" fill="white"/>
<path d="M78.3225 75.7232C78.3966 75.7516 78.5237 75.6713 78.5912 75.5526L79.1027 74.6668C79.1631 74.5641 79.1552 74.4704 79.0884 74.448C78.6498 74.2931 78.3818 74.0939 78.3818 74.0939C78.3818 74.0939 77.2864 75.119 77.4368 75.254C77.5076 75.3233 77.8154 75.5555 78.3225 75.7232Z" fill="white"/>
<path d="M82.2348 73.9808C81.9893 74.116 81.7149 74.2493 81.419 74.3865C81.2916 74.4449 81.1624 74.4909 81.0385 74.5303C80.972 74.5518 80.9096 74.6201 80.8831 74.6964L80.5721 75.6713C80.5457 75.7476 80.5821 75.7994 80.6522 75.7809C81.193 75.6495 81.6846 75.4448 82.1362 75.1854C82.2008 75.1514 82.2577 75.0676 82.2608 75.0048L82.356 74.048C82.3661 73.9692 82.3137 73.9368 82.2348 73.9808Z" fill="white"/>
<path d="M84.1048 72.821C84.0753 72.7312 83.953 72.7393 83.8422 72.844C83.5776 73.0835 83.2843 73.321 82.9279 73.561C82.833 73.6243 82.7583 73.737 82.7483 73.8378L82.6731 74.5931C82.6562 74.7317 82.7843 74.7611 82.9149 74.6618C83.3461 74.331 83.7518 73.9574 84.1501 73.5558C84.2412 73.4675 84.2889 73.3434 84.2613 73.2661L84.1048 72.821Z" fill="white"/>
<path d="M84.896 72.7543C85.2688 72.3099 85.641 71.7997 85.9863 71.2999C86.0647 71.1902 86.0692 71.074 86.0059 71.0327L85.7037 70.8379C85.6332 70.7906 85.5005 70.8555 85.4114 70.9782C85.0963 71.4265 84.7881 71.837 84.5472 72.1069C84.5418 72.1134 84.5365 72.1199 84.5258 72.1328C84.4473 72.2206 84.4103 72.3318 84.4307 72.4031L84.5887 72.8168C84.6327 72.9185 84.7837 72.8905 84.896 72.7543Z" fill="white"/>
<path d="M87.5526 68.7912C87.7072 68.5373 86.9896 68.3812 86.7965 68.7776C86.6565 69.0654 86.3348 69.5955 85.9595 70.1686C85.8954 70.2683 85.889 70.372 85.9451 70.4074L86.2545 70.6082C86.3215 70.6525 86.4595 70.5811 86.536 70.459C87.1389 69.5288 87.5526 68.7912 87.5526 68.7912Z" fill="white"/>
<path d="M90.9948 67.4564C91.2512 67.5589 91.4087 67.678 91.3869 67.4093C91.365 67.1406 91.0984 65.9726 91.0984 65.9726C90.8536 65.0514 92.042 63.0131 92.2955 62.285C92.5455 61.554 93.1771 60.6039 93.1414 60.1821C93.0652 59.182 92.1725 60.1238 92.6461 58.5311C92.9775 57.3987 93.6918 55.7431 93.49 54.7919C93.2918 53.8437 92.0657 54.5105 92.0657 54.5105C91.6063 54.6982 91.9442 54.857 92.2393 54.8389C92.5343 54.8208 92.1409 55.3789 91.8874 55.8781C91.6338 56.3773 91.4697 56.7977 91.3542 57.2255C91.2388 57.6534 91.0557 57.4914 91.0518 57.2157C91.0532 56.9335 91.3391 56.2105 91.2691 55.7713C91.1991 55.3321 90.5975 56.2089 90.6135 56.8759C90.6295 57.543 90.1599 58.496 89.6201 59.4456C89.0802 60.3952 88.2317 61.2317 87.3444 62.3959C86.457 63.56 86.3092 64.6913 85.9088 66.4315C85.5083 68.1718 84.9196 69.5496 84.0911 70.6424C83.619 71.2664 82.6976 71.9993 81.7394 72.3857C80.8673 72.7342 79.6989 72.4895 79.111 72.3532C78.5231 72.2169 78.3045 71.884 78.3575 72.211C78.4051 72.5445 79.6799 73.2802 80.5074 73.4508C81.3297 73.6278 82.6454 72.9261 83.7411 71.9229C85.5463 70.2737 86.7432 67.4796 87.1331 65.3166C87.5231 63.1536 88.2857 61.9192 88.6158 61.5486C88.9459 61.178 89.4105 60.9619 89.0405 61.5284C88.6741 62.098 88.2487 62.717 87.7545 64.6741C87.2604 66.6312 87.7552 67.3011 87.9181 67.6425C88.081 67.9839 88.3455 68.2022 88.1004 68.6321C87.8554 69.062 86.4464 71.8991 84.1967 74.0207C82.9279 75.2189 81.8841 75.9379 80.378 76.4717C78.8719 77.0055 77.5834 76.3675 76.7861 75.6879C75.9888 75.0082 75.6751 74.0302 75.5302 73.6818C75.3942 73.3299 75.6058 72.9922 75.7068 73.239C75.9088 73.7544 76.6776 74.4759 76.9863 74.8177C77.0426 74.8751 77.1629 74.8326 77.2538 74.7224L77.7781 74.0869C77.853 73.9961 77.8773 73.8854 77.8283 73.8341C77.6521 73.6343 77.1654 73.0801 77.0749 71.4035C76.9669 69.32 77.1693 66.4247 75.3494 65.5009C74.3427 64.9864 73.4186 65.826 72.2689 66.1197C72.0156 66.1832 71.3893 66.4403 70.7291 66.7238C70.8035 66.5672 70.8976 66.3942 71.0077 66.2017C72.2112 64.9496 74.4814 63.6078 75.4151 63.0813C76.5156 62.4635 78.7727 61.7428 80.0254 61.5013C81.2782 61.2599 85.1816 59.5108 85.7277 59.1441C86.2739 58.7773 85.4899 59.5799 85.1424 60.0233C84.7948 60.4668 85.0745 60.327 85.0745 60.327C85.0745 60.327 86.8939 59.1035 88.8656 57.1122C90.8338 55.1179 92.4662 52.7702 93.5283 48.6335C94.5869 44.4939 91.9488 43.4398 91.6749 43.1812C91.4011 42.9226 92.6586 42.358 93.0146 42.0742C93.3706 41.7903 93.641 41.6101 93.373 41.6397C93.105 41.6693 91.7682 41.9831 91.7682 41.9831C90.6725 42.2778 90.0324 40.9869 89.6217 40.7243C89.211 40.4618 88.9861 39.7749 88.5652 39.82C87.5706 39.9257 87.5224 40.8995 86.5447 40.4089C85.8507 40.0543 85.0672 39.2989 83.998 39.5393C82.9288 39.7796 82.277 41.1381 82.277 41.1381C81.9803 41.6453 82.4669 41.2621 82.7506 40.9404C83.0397 40.6122 83.1456 41.0374 83.3421 41.3085C83.5387 41.5796 83.7525 41.756 84.027 41.8735C84.3015 41.9911 83.9629 42.2021 83.7074 42.2092C83.4518 42.2164 83.0786 41.9084 82.6094 41.99C82.1402 42.0715 82.32 42.732 82.9462 42.7037C83.5724 42.6755 83.9598 43.1803 84.274 43.7665C84.5881 44.3526 84.4856 45.2815 84.6389 46.2472C84.7923 47.2128 85.6754 47.3529 86.8541 47.7696C88.0328 48.1863 88.6893 48.8151 88.8422 49.715C88.9325 50.2254 88.6543 51.2491 88.0235 52.3089C87.4478 53.2725 86.0252 54.5835 85.3013 55.2395C84.5773 55.8955 84.0483 56.1456 84.4006 56.0875C84.753 56.0295 86.7327 54.5896 87.7389 53.6652C88.7398 52.7473 89.452 51.2861 89.6587 50.0835C90.0032 48.101 88.6774 46.8218 87.0992 46.4243C85.521 46.0268 85.1744 45.2069 85.1788 44.8399C85.1778 44.4794 85.4546 43.9668 85.5945 44.3655C85.7344 44.7643 85.8712 45.2259 87.1496 45.7358C88.4281 46.2456 89.5523 45.6802 90.0279 45.4949C90.5035 45.3097 90.9799 45.0053 91.1188 45.2725C91.2631 45.5332 92.4072 47.0547 92.0448 49.5238C91.8361 50.9209 91.4274 52.0658 90.3766 53.7381C89.3222 55.4074 87.42 56.8567 85.9798 57.7609C84.5432 58.6681 83.3256 59.0366 82.8624 59.1994C82.3993 59.3622 82.3092 59.1244 82.6341 59.0111C83.3109 58.7739 84.7622 57.9006 85.3877 57.5558C85.4989 57.4949 85.5824 57.3568 85.5708 57.26L85.5339 56.6847C85.5243 56.6005 85.4485 56.5816 85.3571 56.626C84.9914 56.8256 83.9895 57.383 82.3651 57.514C80.352 57.6732 77.9098 57.5109 75.1986 59.557C73.6954 60.6926 73.5143 61.7092 72.6063 62.987C72.4157 63.2549 72.048 63.8778 71.6519 64.5645C71.558 63.3645 72.7476 60.5644 73.2465 59.4504C73.7933 58.2341 75.4225 55.7204 76.4701 54.3179C77.5176 52.9153 79.8653 48.586 80.0821 47.9911C80.2989 47.3962 80.2407 48.2418 80.3029 48.6092C80.3652 48.9766 80.5159 48.6759 80.5159 48.6759C80.5159 48.6759 81.2347 46.6752 81.3962 44.5308C81.5577 42.3864 81.0508 40.6387 78.3048 39.6046C75.5624 38.5735 71.9066 41.5948 71.3907 41.9102C70.8747 42.2256 71.6289 40.8317 71.7285 40.4452C71.8244 40.0558 71.9373 39.7566 71.6948 40.0578C71.4524 40.3591 70.384 41.8534 70.384 41.8534C69.5439 43.0783 67.703 43.8481 67.0371 44.3231C66.3765 44.7916 65.5164 45.0738 65.1295 45.5501C64.222 46.6649 65.0646 46.6844 63.6188 47.8019C62.59 48.5987 61.094 49.5114 60.2303 50.7059C59.3666 51.9005 59.9731 52.5752 59.9731 52.5752C60.1411 52.8882 60.2846 52.3527 60.2696 52.0461C60.2599 51.733 60.7593 51.6001 61.2111 51.3625C61.6647 51.1374 62.048 50.8869 62.4344 50.5736C62.8208 50.2603 62.6779 50.6328 62.4209 50.9221C62.1639 51.2114 61.5066 51.6391 61.1058 52.1693C60.7049 52.6994 61.4933 52.4672 62.1052 51.7624C62.7172 51.0576 63.5758 50.5999 64.4316 50.227C65.2873 49.8542 66.044 49.9335 67.0917 49.7191C68.1395 49.5046 69.1668 48.5104 70.7512 47.1585C72.3301 45.813 73.5735 45.0515 74.5619 44.8426C75.1208 44.7261 75.7853 44.991 76.1254 45.6639C76.4307 46.2755 76.1944 47.8241 76.062 48.6194C75.9349 49.4082 75.6228 50.0007 75.9292 49.5997C76.2357 49.1987 76.919 47.027 77.0851 45.9326C77.2548 44.8411 76.6316 44.0981 75.7283 43.9086C74.2462 43.6013 71.7183 45.1447 69.754 46.9351C67.7843 48.732 66.6787 49.1494 66.3422 49.1661C66.0057 49.1827 65.818 48.8862 66.3243 48.7154C66.8359 48.5381 67.3999 48.3713 69.1706 46.9115C70.9413 45.4518 71.5598 44.2075 71.8742 43.6714C72.1887 43.1353 72.3863 42.6226 72.7809 42.4469C73.1756 42.2712 75.7338 40.9272 77.6407 41.2363C78.7168 41.4157 79.3626 41.8287 79.8322 42.9572C80.3072 44.0792 79.706 46.166 79.0794 47.7523C78.4527 49.3386 77.5597 50.6942 77.2361 51.2119C76.9125 51.7296 76.6091 51.8389 76.8295 51.4758C77.3006 50.7202 77.9668 49.123 78.2854 48.4268C78.3403 48.3086 78.3035 48.2129 78.201 48.2264L77.6345 48.293C77.5483 48.309 77.4499 48.3913 77.4021 48.4936C77.2162 48.896 76.71 50.0041 75.1816 51.8272C73.2804 54.0947 70.6485 56.8492 69.7897 59.8241C69.3093 61.4766 70.063 61.6408 70.3191 62.6148C70.3803 62.8506 70.6343 63.3326 70.9152 63.8041L70.1713 63.975C69.1666 63.7238 68.1887 62.7316 67.7765 62.2717C67.2354 61.6727 66.6471 59.8687 66.4616 58.7131C66.2726 57.5545 64.7853 54.9653 64.4613 54.7306C64.1426 54.4895 64.8523 54.5519 65.2514 54.4889C65.647 54.4229 65.5269 54.2584 65.5269 54.2584C65.5269 54.2584 64.4586 53.4642 62.686 53.2877C60.9133 53.1112 58.8008 53.6787 55.0335 56.717C51.259 59.7493 50.2141 63.7912 49.9647 64.3592C49.7189 64.9302 49.2372 64.0969 48.9861 63.9878C48.7351 63.8788 48.5775 63.7597 48.5994 64.0284C48.6213 64.2971 48.8735 65.4751 48.8735 65.4751C49.113 66.4028 47.9084 68.4386 47.6549 69.1667C47.4013 69.8947 46.7607 70.8483 46.7911 71.2766C46.8619 72.2831 47.7546 71.3414 47.272 72.9375C46.9317 74.0735 46.2137 75.7261 46.3976 76.6843C46.5905 77.6389 47.8148 76.9817 47.8148 76.9817C48.2742 76.7939 47.9399 76.6381 47.6412 76.6532C47.3515 76.6648 47.745 76.1067 47.9968 75.617C48.2503 75.1178 48.418 74.7004 48.5335 74.2725C48.649 73.8447 48.8357 74.0096 48.8343 74.2918C48.8329 74.574 48.5415 75.3036 48.6026 75.7463C48.6637 76.189 49.2725 75.3181 49.2655 74.6476C49.2584 73.977 49.728 73.024 50.2751 72.0804C50.8185 71.1338 51.6707 70.3003 52.5617 69.1391C53.4527 67.978 53.6094 66.8432 54.0278 65.0959C54.4462 63.3487 55.0385 61.9739 55.8707 60.884C56.3464 60.2631 57.2714 59.5332 58.2279 59.1562C59.0983 58.8172 60.2596 59.0779 60.8385 59.2177C61.4174 59.3575 61.6343 59.6999 61.5867 59.3663C61.5391 59.0328 60.275 58.2841 59.4635 58.0941C58.652 57.9041 57.345 58.5804 56.2421 59.5776C54.4313 61.2114 53.2129 64.0095 52.8086 66.1825C52.4007 68.3525 51.6345 69.5838 51.3007 69.9515C50.967 70.3191 50.5078 70.5287 50.8725 69.9686C51.2425 69.4021 51.6679 68.7831 52.1746 66.8255C52.6814 64.8678 52.1972 64.185 52.0344 63.8436C51.8768 63.4957 51.6123 63.2775 51.8574 62.8476C52.115 62.4172 53.5402 59.5825 55.8008 57.4699C57.0768 56.2776 58.1153 55.5651 59.6233 55.0438C61.1277 54.5195 62.4001 55.1769 63.1921 55.863C63.9841 56.5491 64.287 57.5401 64.4229 57.8921C64.5589 58.244 64.342 58.5881 64.2464 58.3349C64.0497 57.813 63.2915 57.0785 62.9882 56.7302C62.9373 56.6664 62.8117 56.7153 62.7207 56.8255L62.1929 57.458C62.118 57.5488 62.0936 57.6595 62.1337 57.7143C62.3098 57.9141 62.7912 58.4748 62.8584 60.1649C62.9521 62.2583 62.7264 65.1671 64.5249 66.1169C65.5245 66.6473 66.4522 65.8107 67.6002 65.5264C67.6739 65.5109 67.7852 65.472 67.9108 65.4231C67.8349 65.6111 67.7519 65.815 67.6706 66.0095C66.465 66.9983 64.9315 67.9345 64.2076 68.3616C63.1073 69.0014 60.8362 69.7759 59.5729 70.0522C58.306 70.3256 54.3944 72.1659 53.8554 72.5387C53.3165 72.9114 54.0896 72.0998 54.4246 71.6569C54.7649 71.2075 54.4835 71.3567 54.4835 71.3567C54.4835 71.3567 52.6662 72.6146 50.718 74.6363C48.7699 76.6581 47.1719 79.0231 46.1941 83.1314C45.2199 87.2426 47.9203 88.2064 48.1995 88.4585C48.4787 88.7106 47.2214 89.2971 46.8673 89.5935C46.5096 89.8868 46.2428 90.0699 46.5125 90.0309C46.7822 89.9919 48.1295 89.6431 48.1295 89.6431C49.2341 89.323 49.9099 90.578 50.3313 90.8276C50.7526 91.0771 50.9937 91.7446 51.4199 91.693C52.4233 91.5618 52.4536 90.5951 53.449 91.0567C54.1608 91.3824 54.9747 92.1084 56.0527 91.8426C57.1307 91.5768 57.7573 90.2193 57.7573 90.2193C58.0467 89.7062 57.562 90.1018 57.2765 90.433C56.9947 90.7672 56.8709 90.3489 56.669 90.0843C56.4618 89.8262 56.239 89.6533 55.9628 89.5452C55.6829 89.4342 56.0178 89.2201 56.2787 89.2065C56.5396 89.1929 56.9199 89.4849 57.3962 89.3874C57.8725 89.2899 57.673 88.6459 57.0434 88.6931C56.4101 88.7373 56.0067 88.2519 55.6764 87.6852C55.3462 87.1185 55.4308 86.1966 55.2488 85.2509C55.0669 84.3052 54.1713 84.1876 52.9641 83.8128C51.7569 83.438 51.079 82.8351 50.9065 81.9517C50.8108 81.4477 51.0621 80.4345 51.6766 79.3722C52.2361 78.4062 53.646 77.0738 54.3644 76.4023C55.0828 75.7308 55.6136 75.4713 55.2595 75.5388C54.9054 75.6063 52.9314 77.0836 51.9397 78.02C50.9479 78.9563 50.2609 80.4165 50.0812 81.6087C49.7815 83.5737 51.1501 84.8009 52.7585 85.1471C54.3669 85.4932 54.7332 86.2967 54.7432 86.6537C54.7531 87.0107 54.4853 87.5198 54.3311 87.131C54.1768 86.7422 54.0347 86.2871 52.7277 85.8192C51.4208 85.3512 50.2968 85.9386 49.8141 86.1398C49.3314 86.341 48.8622 86.6513 48.709 86.3942C48.5594 86.14 47.3636 84.6738 47.6721 82.2257C47.8485 80.8455 48.2374 79.6951 49.2683 78.0174C50.2957 76.3367 52.1905 74.8594 53.6286 73.9208C55.0614 72.9887 56.2895 72.5852 56.7544 72.413C57.2193 72.2407 57.3147 72.472 56.988 72.5948C56.3042 72.848 54.8567 73.7462 54.2313 74.1129C54.1238 74.1768 54.0403 74.315 54.0519 74.4117L54.1031 74.977C54.1127 75.0613 54.1885 75.0802 54.2817 75.0263C54.6491 74.8172 55.6508 74.2378 57.2911 74.0654C59.3271 73.849 61.8066 73.9439 64.4976 71.8485C65.9934 70.685 66.1565 69.6753 67.0447 68.392C67.1747 68.205 67.3914 67.8389 67.6365 67.409C67.7687 67.5072 67.8905 67.6622 68.0033 67.8206C67.7494 69.1913 66.8601 71.2584 66.4442 72.1685C65.8938 73.3818 64.2519 75.896 63.1972 77.2925C62.1371 78.6956 59.7784 83.0159 59.5563 83.6173C59.3342 84.2187 59.3977 83.3666 59.3408 82.9927C59.2839 82.6188 59.1279 82.926 59.1279 82.926C59.1279 82.926 58.3965 84.9272 58.226 87.0751C58.0555 89.223 58.5481 90.9807 61.2727 92.0407C63.9973 93.1007 67.6586 90.0949 68.1782 89.7825C68.6942 89.4671 67.9364 90.8581 67.8314 91.251C67.7301 91.6469 67.6226 91.9396 67.865 91.6383C68.1075 91.3371 69.1832 89.8488 69.1832 89.8488C70.0269 88.6268 71.866 87.8665 72.5302 87.401C73.1908 86.9325 74.0491 86.6598 74.4397 86.1865C75.3545 85.0777 74.51 85.0457 75.9576 83.9406C76.9847 83.1533 78.4843 82.2436 79.3517 81.0521C80.219 79.8605 79.6358 79.1723 79.6358 79.1723C79.4731 78.8528 79.3261 79.3854 79.3357 79.6985C79.3453 80.0116 78.846 80.1445 78.3959 80.3725C77.9459 80.6006 77.5626 80.8511 77.1762 81.1644C76.7898 81.4777 76.9328 81.1052 77.1933 80.8189C77.4503 80.5296 78.1076 80.102 78.5121 79.5748C78.9166 79.0476 78.1246 79.2768 77.5143 79.9722C76.9024 80.677 76.0401 81.1316 75.1897 81.498C74.3393 81.8644 73.5827 81.7851 72.5366 81.99C71.4906 82.195 70.4633 83.1892 68.8771 84.5287C67.2908 85.8682 66.0492 86.6202 65.0662 86.8227C64.5072 86.9391 63.8498 86.6583 63.5187 85.9819C63.2187 85.3638 63.464 83.8117 63.5964 83.0164C63.7324 82.2241 64.0393 81.6381 63.7381 82.0326C63.4334 82.4242 62.7394 84.6088 62.5607 85.7037C62.382 86.7987 63.0035 87.5512 63.8979 87.7442C65.3729 88.0674 67.9027 86.5365 69.8706 84.749C71.8422 82.9646 72.9514 82.5502 73.2826 82.5401C73.6137 82.5299 73.8068 82.82 73.2915 82.9943C72.7852 83.165 72.2213 83.3319 70.4433 84.7856C68.6654 86.2394 68.0432 87.4807 67.7342 88.0103C67.4161 88.5435 67.2131 89.0626 66.8238 89.2318C66.4345 89.401 63.8744 90.7326 61.9746 90.4075C60.9039 90.2216 60.2597 89.7992 59.7991 88.6672C59.3384 87.5352 59.9486 85.4449 60.5789 83.8616C61.2091 82.2783 62.1112 80.9192 62.4348 80.4015C62.7583 79.8838 63.0653 79.7775 62.836 80.144C62.3612 80.8966 61.6861 82.4974 61.3675 83.1936C61.3126 83.3118 61.3494 83.4075 61.4519 83.3939L62.022 83.3303C62.1083 83.3143 62.2066 83.232 62.2544 83.1298C62.4403 82.7273 62.9555 81.6157 64.4875 79.7956C66.396 77.5341 69.0297 74.7921 69.9102 71.8132C70.3995 70.1572 69.6458 69.993 69.4041 69.009C69.3539 68.8041 69.1563 68.4014 68.9227 67.9907C69.0728 67.853 69.2791 67.7507 69.5034 67.6633C70.5827 67.8018 71.6892 68.8891 72.1304 69.373C72.6769 69.9655 73.2902 71.7465 73.4846 72.8986C73.679 74.0507 75.2056 76.6071 75.5296 76.8417C75.8537 77.0764 75.1386 77.0204 74.7378 77.0929C74.3423 77.1589 74.457 77.3299 74.457 77.3299C74.457 77.3299 75.5359 78.1111 77.321 78.2652C79.1061 78.4193 81.222 77.8328 84.9802 74.7761C88.7437 71.7129 89.7563 67.6879 90.0021 67.1169C90.2513 66.5269 90.7437 67.3473 90.9948 67.4564ZM91.2089 62.5982C91.0721 62.5943 91.3044 62.143 91.4126 61.938C91.5208 61.733 91.5559 61.1517 91.5559 61.1517C91.6604 60.9437 91.8982 60.7367 92.0487 60.8717C92.2335 61.0242 91.9503 61.4117 91.7893 61.7693C91.6336 62.1204 91.3746 62.6041 91.2089 62.5982ZM88.4072 41.7166C88.3325 41.6005 87.8372 41.5734 87.8372 41.5734C87.7535 41.4607 87.8091 41.2014 88.0868 41.0273C88.4164 40.8197 88.4764 41.1308 88.6415 41.2997C88.8067 41.4686 88.9763 41.7502 88.8049 41.9358C88.6567 42.0859 88.4819 41.8328 88.4072 41.7166ZM66.7234 45.6554C66.5405 45.7443 66.0085 46.308 66.0085 46.308C65.8149 46.4098 65.6327 46.3575 65.7562 46.0453C65.8974 45.6823 66.246 45.5994 66.5685 45.4077C66.891 45.2161 67.325 45.0075 67.3193 45.1989C67.3188 45.362 66.91 45.5696 66.7234 45.6554ZM48.7344 68.8694C48.8712 68.8734 48.6389 69.3247 48.5218 69.5331C48.4135 69.7381 48.3695 70.323 48.3695 70.323C48.2596 70.5374 48.0271 70.738 47.873 70.5999C47.6936 70.441 47.9751 70.0629 48.1361 69.7054C48.3114 69.3378 48.5687 68.8635 48.7344 68.8694ZM51.5582 89.8128C51.6383 89.9225 52.1442 89.9366 52.1442 89.9366C52.2279 90.0493 52.1866 90.2986 51.9073 90.4822C51.5813 90.6928 51.5106 90.3947 51.3401 90.2322C51.1696 90.0698 50.9857 89.7982 51.1624 89.6061C51.2944 89.4535 51.4799 89.6937 51.5582 89.8128ZM72.8868 86.0387C73.0697 85.9499 73.6 85.3957 73.6 85.3957C73.7883 85.3004 73.9705 85.3526 73.8523 85.6583C73.7075 86.0184 73.3643 86.0948 73.0418 86.2864C72.7156 86.4751 72.287 86.6772 72.2927 86.4858C72.2915 86.3322 72.7039 86.1276 72.8868 86.0387Z" fill="white"/>
<path d="M154.877 86.2933C168.973 87.1188 179.729 99.2067 178.904 113.295" stroke="#E0FB92" stroke-width="1.5" stroke-miterlimit="10"/>
</svg>
