<svg width="528" height="428" viewBox="0 0 528 428" fill="none" xmlns="http://www.w3.org/2000/svg">
<path d="M122.291 142.064L120.764 136.5L114.454 136.786C113.868 135.561 113.193 134.4 112.426 133.313L115.766 127.973L111.655 123.916L106.332 127.312C105.223 126.554 104.055 125.888 102.835 125.324L103.054 119.023L97.4592 117.56L94.5569 123.149C93.2294 123.045 91.882 123.056 90.528 123.178L87.5594 117.615L81.9822 119.138L82.2693 125.434C81.0412 126.018 79.8772 126.693 78.7882 127.457L73.4363 124.125L69.3699 128.227L72.7737 133.538C72.0139 134.644 71.3468 135.81 70.7813 137.026L64.4686 136.808L63.002 142.391L68.6035 145.286C68.4997 146.611 68.5107 147.955 68.6322 149.306L63.0528 152.264L64.579 157.828L70.8896 157.542C71.4749 158.767 72.1508 159.929 72.9173 161.015L69.5776 166.355L73.6881 170.412L79.0113 167.016C80.1202 167.774 81.2886 168.44 82.5079 169.004L82.2892 175.305L87.8841 176.768L90.7864 171.179C92.1139 171.283 93.4613 171.272 94.8153 171.151L97.7839 176.713L103.361 175.19L103.074 168.894C104.302 168.31 105.466 167.635 106.555 166.871L111.907 170.203L115.973 166.102L112.57 160.79C113.329 159.684 113.997 158.518 114.562 157.302L120.877 157.52L122.344 151.938L116.742 149.042C116.846 147.717 116.835 146.373 116.713 145.022L122.288 142.06L122.291 142.064ZM96.6044 161.491C88.6748 163.658 80.4846 159.001 78.3134 151.087C76.1421 143.175 80.8093 135.003 88.7411 132.837C96.6707 130.671 104.861 135.327 107.032 143.241C109.203 151.153 104.536 159.325 96.6044 161.491Z" fill="#E0FB92"/>
<path d="M216.525 85.4172L213.912 75.8944L203.116 76.3836C202.115 74.2856 200.955 72.2977 199.646 70.4399L205.362 61.3028L198.327 54.3586L189.22 60.1701C187.323 58.872 185.324 57.7348 183.239 56.7674L183.612 45.9862L174.039 43.4827L169.071 53.0451C166.801 52.8688 164.495 52.8864 162.178 53.0936L157.095 43.5774L147.551 46.1846L148.041 56.9569C145.941 57.9552 143.946 59.1122 142.084 60.4191L132.927 54.7156L125.967 61.7348L131.791 70.8212C130.49 72.7121 129.35 74.7087 128.381 76.7892L117.578 76.4167L115.068 85.9681L124.652 90.9245C124.473 93.1901 124.493 95.4909 124.701 97.8027L115.159 102.869L117.772 112.392L128.569 111.903C129.569 114.001 130.729 115.989 132.039 117.847L126.322 126.984L133.357 133.928L142.464 128.116C144.359 129.414 146.36 130.552 148.446 131.519L148.072 142.298L157.645 144.802L162.613 135.239C164.883 135.418 167.189 135.398 169.506 135.191L174.584 144.711L184.129 142.104L183.638 131.332C185.741 130.333 187.733 129.176 189.595 127.87L198.753 133.573L205.713 126.554L199.888 117.467C201.189 115.574 202.329 113.58 203.299 111.499L214.104 111.872L216.614 102.321L207.03 97.3641C207.208 95.0986 207.189 92.7978 206.981 90.486L216.523 85.4194L216.525 85.4172ZM172.57 118.66C158.999 122.367 144.987 114.398 141.271 100.857C137.556 87.3169 145.543 73.3358 159.114 69.6289C172.685 65.9221 186.698 73.8911 190.413 87.4315C194.128 100.972 186.141 114.953 172.57 118.66V118.66Z" fill="#232C34"/>
<path d="M157.649 145.291C157.61 145.291 157.568 145.286 157.526 145.275L147.953 142.772C147.734 142.714 147.582 142.512 147.591 142.287L147.953 131.825C146.051 130.924 144.205 129.875 142.46 128.7L133.622 134.34C133.43 134.461 133.18 134.435 133.019 134.276L125.984 127.332C125.823 127.173 125.794 126.922 125.913 126.73L131.46 117.864C130.276 116.154 129.205 114.32 128.272 112.403L117.796 112.879C117.571 112.899 117.365 112.742 117.306 112.522L114.693 102.999C114.633 102.781 114.732 102.55 114.933 102.444L124.191 97.5271C124.014 95.4026 123.998 93.2803 124.144 91.2087L114.845 86.4C114.644 86.2964 114.54 86.065 114.598 85.8468L117.107 76.2954C117.164 76.0772 117.37 75.9119 117.593 75.934L128.078 76.2932C128.981 74.3957 130.033 72.5533 131.21 70.8123L125.558 61.9948C125.436 61.803 125.463 61.554 125.622 61.3931L132.582 54.3739C132.741 54.213 132.99 54.1844 133.185 54.3034L142.071 59.8394C143.785 58.6582 145.623 57.5893 147.544 56.6593L147.069 46.2065C147.058 45.9795 147.206 45.7768 147.427 45.7173L156.967 43.1079C157.188 43.0484 157.418 43.1476 157.524 43.3481L162.451 52.5844C164.581 52.4081 166.708 52.3927 168.784 52.5381L173.606 43.2622C173.71 43.0616 173.939 42.9603 174.16 43.0154L183.733 45.5189C183.952 45.5762 184.104 45.779 184.095 46.0038L183.733 56.4653C185.637 57.3667 187.482 58.4157 189.226 59.5904L198.064 53.9508C198.256 53.8296 198.506 53.856 198.667 54.0147L205.702 60.959C205.863 61.1176 205.892 61.3689 205.773 61.5606L200.226 70.4266C201.41 72.1368 202.481 73.9704 203.414 75.8877L213.89 75.4117C214.12 75.3962 214.321 75.5483 214.38 75.7687L216.993 85.2914C217.053 85.5096 216.954 85.741 216.753 85.8468L207.495 90.7636C207.672 92.888 207.688 95.0103 207.542 97.0819L216.841 101.891C217.042 101.994 217.146 102.226 217.088 102.444L214.579 111.995C214.522 112.213 214.323 112.385 214.093 112.357L203.608 111.997C202.705 113.895 201.653 115.737 200.476 117.478L206.128 126.296C206.25 126.488 206.223 126.737 206.064 126.898L199.104 133.917C198.945 134.078 198.696 134.106 198.501 133.987L189.615 128.453C187.903 129.633 186.063 130.701 184.142 131.634L184.619 142.086C184.63 142.313 184.482 142.516 184.261 142.576L174.717 145.183C174.496 145.24 174.266 145.143 174.16 144.943L169.232 135.706C167.103 135.883 164.976 135.898 162.9 135.753L158.08 145.031C157.996 145.194 157.826 145.293 157.649 145.293V145.291ZM148.576 141.932L157.398 144.24L162.186 135.021C162.277 134.847 162.465 134.745 162.655 134.761C164.881 134.935 167.174 134.92 169.467 134.712C169.659 134.693 169.846 134.796 169.939 134.968L174.836 144.145L183.632 141.743L183.159 131.356C183.15 131.162 183.258 130.981 183.435 130.898C185.513 129.91 187.495 128.76 189.321 127.477C189.48 127.365 189.693 127.36 189.858 127.462L198.687 132.96L205.099 126.492L199.484 117.732C199.378 117.569 199.383 117.357 199.493 117.196C200.774 115.332 201.907 113.346 202.864 111.297C202.945 111.12 203.122 110.993 203.321 111.017L213.738 111.374L216.05 102.572L206.811 97.7938C206.638 97.7034 206.535 97.5205 206.55 97.3266C206.725 95.1029 206.709 92.8175 206.502 90.53C206.484 90.336 206.585 90.1509 206.758 90.0583L215.955 85.1724L213.548 76.3968L203.138 76.8684C202.945 76.8794 202.76 76.7692 202.678 76.5929C201.689 74.5213 200.536 72.5445 199.25 70.7197C199.137 70.561 199.133 70.3495 199.235 70.1842L204.746 61.3755L198.263 54.9778L189.483 60.5799C189.319 60.6835 189.107 60.6813 188.946 60.5711C187.077 59.2929 185.089 58.1623 183.033 57.208C182.856 57.1265 182.746 56.9458 182.752 56.7518L183.113 46.3586L174.291 44.0512L169.502 53.2698C169.411 53.4439 169.226 53.5497 169.034 53.5298C166.805 53.3557 164.512 53.3712 162.222 53.5783C162.03 53.5982 161.842 53.4946 161.749 53.3227L156.854 44.1459L148.059 46.5481L148.532 56.9348C148.54 57.1287 148.432 57.3094 148.255 57.3932C146.179 58.3805 144.198 59.5309 142.369 60.8135C142.21 60.9259 141.998 60.9303 141.832 60.8289L133.004 55.3304L126.592 61.7986L132.206 70.5588C132.312 70.7219 132.308 70.9335 132.197 71.0944C130.916 72.9588 129.781 74.9445 128.827 76.994C128.745 77.1703 128.575 77.2982 128.37 77.2739L117.953 76.9169L115.64 85.719L124.88 90.4969C125.052 90.5873 125.156 90.7702 125.14 90.9641C124.966 93.1878 124.981 95.4753 125.189 97.7629C125.207 97.9569 125.105 98.142 124.933 98.2345L115.735 103.118L118.143 111.894L128.553 111.422C128.736 111.402 128.928 111.521 129.012 111.698C130.002 113.769 131.155 115.746 132.44 117.571C132.553 117.73 132.558 117.941 132.456 118.106L126.945 126.915L133.428 133.313L142.208 127.711C142.371 127.607 142.583 127.609 142.744 127.72C144.613 128.998 146.603 130.131 148.657 131.083C148.834 131.164 148.945 131.345 148.938 131.539L148.578 141.932H148.576ZM165.802 120.059C161.351 120.059 156.956 118.906 152.987 116.648C146.963 113.221 142.636 107.658 140.805 100.985C138.974 94.3117 139.858 87.3256 143.29 81.3157C146.725 75.3059 152.3 70.9886 158.988 69.1616C165.676 67.3346 172.678 68.2162 178.702 71.6409C184.725 75.0679 189.052 80.6303 190.883 87.3035C192.714 93.9767 191.831 100.961 188.398 106.973C184.963 112.985 179.388 117.3 172.7 119.127C170.421 119.751 168.104 120.057 165.802 120.057V120.059ZM165.882 69.2013C163.666 69.2013 161.438 69.4988 159.242 70.0982C152.803 71.8569 147.438 76.0111 144.132 81.7984C140.825 87.5834 139.977 94.3073 141.739 100.731C143.502 107.156 147.666 112.509 153.466 115.808C159.264 119.107 166.003 119.953 172.442 118.195C178.88 116.436 184.246 112.282 187.552 106.495C190.859 100.709 191.707 93.9856 189.944 87.5614C188.182 81.1372 184.018 75.7841 178.218 72.485C174.397 70.3098 170.165 69.2013 165.882 69.2013V69.2013Z" fill="#8E7AFF"/>
<path d="M434.911 131.405H128.681C120.064 131.405 113.078 138.375 113.078 146.972V364.889C113.078 373.487 120.064 380.457 128.681 380.457H434.911C443.529 380.457 450.514 373.487 450.514 364.889V146.972C450.514 138.375 443.529 131.405 434.911 131.405Z" fill="#232C34"/>
<path d="M434.909 380.942H128.681C119.808 380.942 112.592 373.74 112.592 364.889V146.972C112.592 138.122 119.81 130.92 128.681 130.92H434.909C443.781 130.92 450.998 138.122 450.998 146.972V364.887C450.998 373.738 443.779 380.94 434.909 380.94V380.942ZM128.681 131.889C120.345 131.889 113.561 138.655 113.561 146.972V364.887C113.561 373.204 120.342 379.97 128.681 379.97H434.909C443.245 379.97 450.028 373.204 450.028 364.887V146.972C450.028 138.655 443.247 131.889 434.909 131.889H128.681Z" fill="#F3FBFD"/>
<path d="M420.274 146.844H141.983C135.897 146.844 130.963 151.767 130.963 157.839V338.69C130.963 344.762 135.897 349.685 141.983 349.685H420.274C426.36 349.685 431.293 344.762 431.293 338.69V157.839C431.293 151.767 426.36 146.844 420.274 146.844Z" fill="#232C34"/>
<path d="M420.273 350.17H141.982C135.639 350.17 130.477 345.02 130.477 338.69V157.837C130.477 151.508 135.639 146.357 141.982 146.357H420.273C426.617 146.357 431.779 151.508 431.779 157.837V338.69C431.779 345.02 426.617 350.17 420.273 350.17ZM141.982 147.327C136.173 147.327 131.448 152.041 131.448 157.837V338.69C131.448 344.486 136.173 349.2 141.982 349.2H420.273C426.082 349.2 430.807 344.486 430.807 338.69V157.837C430.807 152.041 426.082 147.327 420.273 147.327H141.982V147.327Z" fill="#F3FBFD"/>
<path d="M426.913 370.143H134.329C132.228 370.143 130.519 368.437 130.519 366.342V365.431C130.519 363.336 132.228 361.63 134.329 361.63H426.913C429.014 361.63 430.723 363.336 430.723 365.431V366.342C430.723 368.437 429.014 370.143 426.913 370.143ZM134.329 362.599C132.763 362.599 131.49 363.871 131.49 365.431V366.342C131.49 367.904 132.765 369.173 134.329 369.173H426.913C428.479 369.173 429.751 367.902 429.751 366.342V365.431C429.751 363.869 428.477 362.599 426.913 362.599H134.329V362.599Z" fill="#F3FBFD"/>
<path d="M273.606 366.716C274.13 363.49 271.935 360.451 268.702 359.927C265.469 359.404 262.422 361.594 261.898 364.82C261.373 368.046 263.568 371.085 266.801 371.609C270.034 372.133 273.081 369.942 273.606 366.716Z" fill="#232C34"/>
<path d="M267.746 372.155C264.208 372.155 261.332 369.284 261.332 365.755C261.332 362.227 264.21 359.355 267.746 359.355C271.283 359.355 274.161 362.227 274.161 365.755C274.161 369.284 271.283 372.155 267.746 372.155ZM267.746 360.323C264.745 360.323 262.302 362.76 262.302 365.755C262.302 368.75 264.745 371.188 267.746 371.188C270.748 371.188 273.191 368.75 273.191 365.755C273.191 362.76 270.748 360.323 267.746 360.323Z" fill="#F3FBFD"/>
<path d="M265.216 174.004C269.768 185.991 274.316 224.1 256.796 247.729C239.298 271.33 197.244 283.907 169.396 265.34C135.809 242.947 140.64 187.089 161.091 163.752C172.543 150.684 183.468 154.007 199.272 135.263C215.036 116.568 211.946 104.035 225.74 96.4803C242.328 87.3984 266.539 94.5564 270.837 104.381C274.681 113.166 262.409 120.326 260.063 140.857C259.623 144.709 259.665 147.874 259.99 150.664C261.428 162.979 264.394 171.84 265.216 174.002V174.004Z" fill="#F3FBFD"/>
<path d="M203.661 214.784C203.661 214.784 191.223 183.593 198.55 177.013C198.934 176.669 203.884 176.164 208.953 180.792C213.74 185.16 218.67 194.67 218.67 194.67L220.296 216.201L203.659 214.786L203.661 214.784Z" fill="#232C34"/>
<path d="M220.298 216.684C220.285 216.684 220.272 216.684 220.256 216.684L203.62 215.269C203.436 215.253 203.277 215.137 203.209 214.965C202.696 213.678 190.731 183.384 198.226 176.653C198.915 176.034 204.145 175.745 209.281 180.435C214.076 184.812 218.898 194.055 219.101 194.447C219.132 194.504 219.15 194.568 219.154 194.634L220.78 216.166C220.791 216.307 220.738 216.446 220.636 216.547C220.546 216.637 220.422 216.688 220.294 216.688L220.298 216.684ZM204.004 214.328L219.77 215.67L218.195 194.806C217.687 193.845 213.053 185.191 208.627 181.151C203.893 176.83 199.39 177.187 198.846 177.403C192.273 183.421 202.804 211.231 204.004 214.33V214.328Z" fill="#11D582"/>
<path d="M298.264 158.17C298.264 158.17 303.11 159.212 306.922 165.083C314.525 176.797 326.276 198.101 345.077 201.286C373.301 206.064 390.401 171.801 387.974 164.127C387.974 164.127 383.921 158.754 377.261 157.134C377.261 157.134 377.191 151.779 382.982 154.315C388.771 156.852 391.091 155.303 393.677 154.697C398.227 153.632 407.895 142.725 411.498 141.339C415.1 139.953 413.974 142.95 413.974 142.95C413.974 142.95 417.503 138.988 419.935 140.973L414.749 147.81C414.749 147.81 418.943 142.28 421.375 145.057L410.526 157.725L418.477 151.497C418.477 151.497 419.584 152.713 417.506 154.869C415.427 157.024 406.972 168.786 398.879 168.786C398.879 168.786 403.239 233.669 354.546 236.304C312.711 238.568 295.675 204.896 295.675 204.896L298.264 158.17V158.17Z" fill="#232C34"/>
<path d="M350.601 236.895C330.967 236.895 317.288 228.831 309.105 221.814C299.651 213.711 295.284 205.198 295.24 205.112C295.202 205.037 295.185 204.951 295.189 204.867L297.778 158.141C297.785 158 297.855 157.87 297.968 157.782C298.08 157.696 298.226 157.665 298.365 157.694C298.571 157.738 303.452 158.847 307.329 164.817C308.047 165.923 308.8 167.113 309.595 168.367C317.061 180.151 328.343 197.958 345.157 200.805C360.7 203.437 371.786 193.788 377.012 187.803C385.109 178.529 388.573 167.959 387.535 164.35C387.051 163.743 383.161 159.063 377.144 157.601C376.93 157.549 376.776 157.359 376.773 157.136C376.773 157.039 376.76 154.739 378.386 153.665C379.53 152.907 381.14 152.976 383.175 153.868C387.835 155.909 390.079 155.239 392.248 154.587C392.677 154.459 393.119 154.324 393.565 154.221C396.001 153.65 400.189 149.932 403.882 146.653C406.983 143.9 409.66 141.522 411.321 140.883C412.715 140.348 413.658 140.35 414.206 140.894C414.431 141.117 414.546 141.394 414.595 141.677C415.916 140.55 418.31 139.017 420.24 140.594C420.441 140.76 420.477 141.053 420.32 141.262L418.062 144.24C418.582 143.982 419.118 143.81 419.646 143.792C420.477 143.766 421.166 144.081 421.74 144.738C421.899 144.918 421.901 145.187 421.742 145.37L414.069 154.329L418.175 151.113C418.376 150.957 418.663 150.979 418.833 151.168C418.891 151.232 420.218 152.749 417.853 155.201C417.548 155.519 417.086 156.065 416.503 156.757C413.163 160.72 406.301 168.865 399.385 169.253C399.575 173.59 400.326 204.843 384.038 223.194C376.614 231.555 366.701 236.128 354.568 236.785C353.221 236.858 351.896 236.893 350.599 236.893L350.601 236.895ZM296.168 204.788C296.713 205.81 301.038 213.629 309.769 221.107C318.355 228.459 333.083 236.975 354.52 235.82C366.381 235.178 376.069 230.716 383.311 222.557C400.487 203.212 398.417 169.161 398.393 168.817C398.384 168.682 398.431 168.552 398.523 168.453C398.616 168.356 398.744 168.299 398.879 168.299C405.514 168.299 412.437 160.083 415.765 156.134C416.359 155.428 416.83 154.871 417.157 154.531C418.186 153.465 418.332 152.707 418.279 152.268L410.826 158.106C410.632 158.26 410.349 158.241 410.177 158.06C410.005 157.879 409.996 157.599 410.159 157.41L420.711 145.09C420.408 144.857 420.07 144.751 419.684 144.762C417.987 144.821 415.827 147.193 415.138 148.101C414.975 148.314 414.672 148.354 414.458 148.195C414.243 148.035 414.201 147.73 414.363 147.517L419.235 141.095C417.199 140.107 414.369 143.237 414.338 143.272C414.184 143.446 413.925 143.486 413.724 143.365C413.523 143.243 413.439 142.999 413.521 142.781C413.623 142.505 413.766 141.822 413.526 141.586C413.437 141.5 413.048 141.264 411.675 141.793C410.177 142.371 407.434 144.804 404.531 147.382C400.567 150.902 396.465 154.545 393.79 155.171C393.373 155.268 392.964 155.391 392.531 155.521C390.302 156.189 387.775 156.947 382.788 154.763C381.076 154.014 379.777 153.919 378.927 154.481C378.063 155.052 377.834 156.184 377.772 156.766C384.288 158.514 388.2 163.618 388.365 163.838C388.398 163.882 388.425 163.931 388.44 163.984C389.781 168.226 385.719 179.316 377.747 188.446C372.387 194.584 361.003 204.477 344.998 201.768C327.756 198.848 316.334 180.821 308.775 168.894C307.985 167.644 307.232 166.456 306.516 165.352C303.614 160.881 300.064 159.285 298.717 158.818L296.17 204.794L296.168 204.788Z" fill="#11D582"/>
<path d="M404.879 152.685C404.755 152.685 404.633 152.638 404.538 152.546C404.346 152.358 404.344 152.052 404.532 151.86L413.628 142.609C413.815 142.417 414.122 142.415 414.315 142.602C414.507 142.789 414.509 143.096 414.321 143.287L405.225 152.539C405.13 152.636 405.004 152.685 404.879 152.685V152.685Z" fill="#11D582"/>
<path d="M408.581 154.556C408.457 154.556 408.336 154.509 408.241 154.417C408.048 154.23 408.046 153.923 408.234 153.732L414.403 147.468C414.591 147.276 414.898 147.274 415.09 147.462C415.282 147.649 415.284 147.955 415.097 148.147L408.927 154.41C408.832 154.507 408.707 154.556 408.581 154.556V154.556Z" fill="#11D582"/>
<path d="M392.352 164.629C392.286 164.629 392.217 164.616 392.153 164.585C391.908 164.475 391.8 164.189 391.91 163.944C392.023 163.693 394.738 157.824 399.173 158.728C403.078 159.525 405.872 158.523 405.901 158.514C406.153 158.421 406.431 158.549 406.524 158.8C406.617 159.051 406.491 159.329 406.239 159.422C406.115 159.468 403.171 160.535 398.976 159.677C395.29 158.926 392.818 164.29 392.794 164.345C392.712 164.524 392.536 164.629 392.35 164.629H392.352Z" fill="#11D582"/>
<path d="M198.551 177.013C198.551 177.013 284.228 153.05 301.545 155.933L307.601 196.21L319.058 227.022C322.352 235.879 320.488 245.871 314.1 252.844C306.959 260.637 295.089 268.873 276.493 269.708C240.39 271.33 222.828 280.207 220.915 264.291C219 248.373 216.725 210.189 216.725 210.189C210.953 194.998 203.929 177.449 198.551 177.011V177.013Z" fill="#8E7AFF"/>
<path d="M233.507 274.12C229.352 274.12 226.198 273.501 223.996 271.78C222.012 270.23 220.848 267.799 220.433 264.351C218.58 248.933 216.36 212.197 216.245 210.295C211.933 198.947 203.942 177.938 198.511 177.498C198.276 177.478 198.089 177.295 198.067 177.061C198.045 176.828 198.193 176.612 198.42 176.548C201.923 175.567 284.402 152.59 301.624 155.455C301.832 155.49 301.993 155.653 302.024 155.86L308.072 196.089L319.511 226.855C322.904 235.981 320.966 246.065 314.455 253.173C307.778 260.461 295.773 269.329 276.512 270.195C265.917 270.671 256.783 271.791 249.443 272.69C243.051 273.472 237.754 274.122 233.505 274.122L233.507 274.12ZM200.187 177.061C205.422 180.047 211.43 194.886 217.179 210.017C217.197 210.064 217.208 210.112 217.21 210.161C217.232 210.542 219.507 248.512 221.398 264.231C221.787 267.456 222.803 269.611 224.597 271.015C228.731 274.248 236.926 273.245 249.328 271.725C256.686 270.823 265.841 269.701 276.472 269.223C295.402 268.372 307.188 259.667 313.741 252.516C320.008 245.68 321.87 235.974 318.603 227.19L307.146 196.376C307.135 196.345 307.126 196.312 307.122 196.279L301.118 156.354C284.656 154.084 211.637 173.908 200.189 177.059L200.187 177.061Z" fill="#11D582"/>
<path d="M256.65 149.588C259.743 150.082 262.74 149.575 264.262 148.206C266.137 146.52 265.98 144.103 266.192 141.121C266.281 139.874 266.29 138.441 267.228 136.971C267.725 136.191 268.353 135.607 268.982 135.164C269.755 134.622 269.987 133.58 269.543 132.747L269.194 132.27C266.444 128.531 265.157 121.862 265.6 114.924L263.677 111.383C258.342 110.598 254.097 110.854 253.616 111.781C253.439 112.123 253.121 112.396 253.463 113.763C255.111 120.368 248.981 121.09 243.698 121.046C238.415 121.002 242.353 129.829 242.353 129.829C242.353 129.829 238.309 126.563 235.682 130.845C233.8 133.912 239.568 136.852 242.989 138.272C242.989 138.272 243.031 159.732 238.675 162.597L226.582 170.278C226.582 170.278 253.043 176.713 271.273 161.286C271.273 161.286 263.169 161.716 259.606 158.965C256.041 156.215 257.015 150.282 256.653 149.586L256.65 149.588Z" fill="#232C34"/>
<path d="M239.652 172.059C232.034 172.059 226.587 170.78 226.467 170.752C226.277 170.705 226.134 170.551 226.103 170.359C226.072 170.168 226.158 169.976 226.322 169.872L238.415 162.192C241.741 160.004 242.488 144.724 242.503 138.596C239.418 137.289 235.729 135.283 234.971 132.954C234.706 132.141 234.806 131.347 235.267 130.593C236.102 129.232 237.167 128.432 238.43 128.213C239.55 128.019 240.61 128.332 241.388 128.692C240.743 126.854 239.87 123.581 241.037 121.805C241.582 120.972 242.486 120.542 243.703 120.566C246.925 120.601 250.83 120.357 252.461 118.294C253.295 117.238 253.468 115.795 252.991 113.884C252.67 112.599 252.871 112.101 253.125 111.665C253.145 111.63 253.165 111.596 253.183 111.561C253.914 110.151 259.171 110.235 263.745 110.907C263.898 110.929 264.028 111.021 264.101 111.156L266.025 114.699C266.069 114.779 266.089 114.871 266.082 114.962C265.636 121.921 266.979 128.447 269.583 131.989L269.932 132.465C269.945 132.484 269.959 132.504 269.97 132.524C270.531 133.58 270.226 134.887 269.258 135.565C268.587 136.037 268.041 136.599 267.635 137.236C266.851 138.466 266.774 139.66 266.698 140.813L266.674 141.159C266.645 141.575 266.623 141.981 266.601 142.375C266.464 144.85 266.347 146.988 264.585 148.57C263.072 149.93 260.291 150.523 257.223 150.159C257.232 150.353 257.238 150.584 257.245 150.867C257.289 152.883 257.371 156.638 259.9 158.589C263.279 161.198 271.165 160.812 271.244 160.81C271.447 160.797 271.644 160.923 271.721 161.114C271.799 161.308 271.743 161.529 271.584 161.663C261.563 170.143 248.979 172.063 239.652 172.063V172.059ZM227.852 170.046C233.003 171.016 254.274 174.049 269.877 161.8C267.346 161.791 262.084 161.496 259.306 159.351C256.412 157.119 256.324 153.064 256.275 150.884C256.264 150.432 256.253 149.919 256.211 149.793C256.127 149.63 256.145 149.443 256.253 149.295C256.361 149.148 256.545 149.081 256.728 149.11C259.721 149.588 262.55 149.092 263.937 147.847C265.4 146.534 265.503 144.674 265.634 142.32C265.656 141.921 265.678 141.509 265.709 141.086L265.731 140.747C265.811 139.53 265.899 138.153 266.818 136.711C267.293 135.966 267.927 135.314 268.702 134.77C269.261 134.377 269.442 133.624 269.13 133.004L268.803 132.559C266.047 128.808 264.669 122.267 265.108 115.037L263.368 111.83C257.722 111.028 254.353 111.504 254.049 112.009C254.024 112.057 253.996 112.103 253.969 112.152C253.83 112.392 253.684 112.639 253.936 113.65C254.482 115.841 254.243 117.606 253.225 118.896C251.334 121.291 247.137 121.562 243.696 121.538C242.81 121.518 242.209 121.794 241.849 122.34C240.721 124.057 242.152 128.191 242.797 129.639C242.888 129.844 242.828 130.082 242.649 130.219C242.472 130.353 242.223 130.353 242.048 130.212C242.031 130.199 240.35 128.87 238.591 129.174C237.62 129.344 236.78 129.992 236.098 131.105C235.786 131.612 235.72 132.121 235.897 132.661C236.418 134.263 239.004 136.101 243.177 137.833C243.358 137.908 243.475 138.084 243.475 138.278C243.475 139.164 243.466 160.034 238.943 163.01L227.854 170.053L227.852 170.046Z" fill="#11D582"/>
<path d="M256.651 150.071C256.635 150.071 256.617 150.071 256.602 150.069C250.598 149.458 246.501 142.371 246.331 142.069C246.198 141.837 246.28 141.54 246.514 141.408C246.748 141.275 247.044 141.357 247.177 141.588C247.217 141.659 251.201 148.544 256.701 149.101C256.969 149.128 257.163 149.366 257.134 149.632C257.11 149.881 256.898 150.069 256.653 150.069L256.651 150.071Z" fill="#11D582"/>
<path d="M297.372 216.301C293.547 213.44 281.047 205.116 276.627 207.712C273.685 209.438 270.787 212.109 268.435 219.679L218.41 237.281L218.549 222.094C218.615 214.839 216.979 207.668 213.771 201.156L204.428 182.194C198.595 186.035 194.034 191.549 191.496 198.046C181.218 224.362 184.118 271.738 193.996 274.224C220.541 280.904 271.856 227.776 271.856 227.776C271.856 227.776 285.82 227.71 288.555 227.434C299.892 226.295 299.932 218.216 297.368 216.298L297.372 216.301Z" fill="#232C34"/>
<path d="M199.012 275.299C197.189 275.299 195.478 275.099 193.878 274.695C192.268 274.29 190.808 272.838 189.538 270.38C182.87 257.477 182.402 219.999 191.045 197.872C193.605 191.318 198.139 185.758 204.163 181.791C204.28 181.714 204.423 181.689 204.558 181.727C204.693 181.764 204.805 181.855 204.867 181.98L214.21 200.942C217.435 207.487 219.105 214.804 219.039 222.099L218.906 236.596L268.048 219.304C270.475 211.631 273.488 208.995 276.386 207.296C281.786 204.129 297.023 215.432 297.668 215.915C299.033 216.935 299.592 219.218 299 221.345C298.523 223.055 296.555 227.124 288.612 227.921C286.032 228.181 273.87 228.254 272.07 228.263C270.61 229.755 258.267 242.264 243.183 253.891C224.72 268.124 209.901 275.299 199.016 275.299H199.012ZM204.238 182.908C198.612 186.741 194.369 192.025 191.948 198.225C187.985 208.373 185.651 222.797 185.542 237.797C185.443 251.632 187.305 263.947 190.4 269.935C191.537 272.135 192.787 273.422 194.115 273.754C220.086 280.293 270.996 227.97 271.507 227.441C271.597 227.346 271.723 227.293 271.854 227.293C271.993 227.293 285.824 227.225 288.506 226.954C295.852 226.216 297.632 222.601 298.054 221.083C298.604 219.115 297.959 217.35 297.076 216.688C292.819 213.506 280.894 205.766 276.867 208.129C274.109 209.746 271.235 212.283 268.892 219.822C268.845 219.968 268.735 220.084 268.589 220.135L218.564 237.737C218.414 237.79 218.248 237.766 218.12 237.673C217.992 237.581 217.915 237.433 217.917 237.274L218.056 222.086C218.122 214.941 216.488 207.776 213.329 201.365L204.231 182.901L204.238 182.908Z" fill="#11D582"/>
<path d="M298.745 220.146C298.692 220.146 298.639 220.137 298.589 220.12L281.157 214.156C280.903 214.068 280.768 213.795 280.854 213.541C280.94 213.288 281.216 213.153 281.47 213.239L298.902 219.203C299.156 219.291 299.291 219.564 299.205 219.818C299.136 220.018 298.946 220.146 298.745 220.146Z" fill="#11D582"/>
<path d="M297.758 223.408C297.712 223.408 297.665 223.401 297.619 223.388L280.611 218.341C280.355 218.264 280.207 217.995 280.284 217.737C280.362 217.482 280.627 217.336 280.889 217.411L297.897 222.458C298.153 222.535 298.301 222.804 298.224 223.062C298.16 223.273 297.968 223.408 297.758 223.408Z" fill="#11D582"/>
<path d="M294.515 226.288C294.471 226.288 294.427 226.282 294.385 226.271C288.832 224.728 280.348 222.412 279.736 222.348C279.467 222.348 279.264 222.132 279.264 221.863C279.264 221.594 279.493 221.378 279.761 221.378C280.331 221.378 290.358 224.146 294.646 225.336C294.904 225.409 295.054 225.676 294.984 225.933C294.924 226.147 294.727 226.288 294.515 226.288V226.288Z" fill="#11D582"/>
<path d="M204.651 245.459C204.481 245.459 204.315 245.371 204.227 245.212C204.097 244.979 204.178 244.683 204.412 244.553L218.173 236.86C218.407 236.73 218.703 236.811 218.834 237.045C218.964 237.279 218.882 237.574 218.648 237.704L204.887 245.398C204.812 245.439 204.731 245.459 204.651 245.459Z" fill="#11D582"/>
<path d="M307.853 252.073C307.055 250.156 305.182 248.893 303.102 248.893C283.699 248.899 264.001 253.737 243.987 263.681C242.276 264.531 240.86 265.876 239.934 267.546C236.268 274.158 226.469 292.575 221.458 309.232C220.077 313.818 214.29 331.691 211.014 342.604C209.892 346.342 212.691 350.099 216.601 350.11C235.472 350.157 321.404 350.582 335.458 348.565C337.285 348.303 338.506 346.538 338.129 344.735C330.895 310.142 312.657 263.645 307.853 252.073V252.073Z" fill="#11D582"/>
<path d="M356.851 77.7876H288.756C284.899 77.7876 281.95 80.917 281.95 84.7649V104.428C281.95 108.273 284.899 111.381 288.756 111.381H291.218V124.511L300.179 111.381H356.853C360.707 111.381 364.009 108.273 364.009 104.428V84.7649C364.009 80.917 360.707 77.7876 356.853 77.7876H356.851Z" fill="#232C34"/>
<path d="M291.216 124.996C291.169 124.996 291.121 124.989 291.072 124.974C290.869 124.91 290.73 124.723 290.73 124.511V111.865H288.753C284.664 111.865 281.464 108.597 281.464 104.427V84.7649C281.464 80.582 284.667 77.3049 288.753 77.3049H356.85C360.994 77.3049 364.493 80.7209 364.493 84.7649V104.427C364.493 108.46 360.992 111.865 356.85 111.865H300.433L291.618 124.784C291.525 124.919 291.375 124.996 291.216 124.996V124.996ZM288.753 78.2724C285.21 78.2724 282.434 81.1242 282.434 84.7649V104.427C282.434 108.055 285.21 110.898 288.753 110.898H291.216C291.485 110.898 291.702 111.114 291.702 111.383V122.94L299.775 111.109C299.865 110.977 300.016 110.898 300.177 110.898H356.85C360.466 110.898 363.521 107.936 363.521 104.427V84.7649C363.521 81.2454 360.466 78.2724 356.85 78.2724H288.753V78.2724Z" fill="#E0FB92"/>
<path d="M328.796 91.8105H350.193C351.439 91.8105 352.448 90.8031 352.448 89.5604V89.1593C352.448 87.9166 351.439 86.9092 350.193 86.9092H328.796C327.551 86.9092 326.541 87.9166 326.541 89.1593V89.5604C326.541 90.8031 327.551 91.8105 328.796 91.8105Z" fill="#E0FB92"/>
<path d="M305.759 91.8105H317.388C318.634 91.8105 319.644 90.8031 319.644 89.5604V89.1593C319.644 87.9166 318.634 86.9092 317.388 86.9092H305.759C304.514 86.9092 303.504 87.9166 303.504 89.1593V89.5604C303.504 90.8031 304.514 91.8105 305.759 91.8105Z" fill="#E0FB92"/>
<path d="M295.764 102.398H350.193C351.439 102.398 352.448 101.39 352.448 100.148V99.7465C352.448 98.5038 351.439 97.4964 350.193 97.4964H295.764C294.518 97.4964 293.509 98.5038 293.509 99.7465V100.148C293.509 101.39 294.518 102.398 295.764 102.398Z" fill="#E0FB92"/>
<path d="M96.0159 267.936C80.5587 271.244 73.0708 299.739 72.7439 318.186C72.1873 349.572 91.8766 379.655 119.049 394.112C155.152 413.323 208.974 407.35 226.702 376.135C237.28 357.508 235.828 328.447 221.113 316.771C206.361 305.066 191.217 321.099 163.018 313.919C124.05 303.997 115.345 263.799 96.0159 267.936V267.936Z" fill="#232C34"/>
<path d="M164.923 405.603C148.64 405.603 132.421 401.777 118.821 394.54C90.4293 379.432 71.7164 348.744 72.2575 318.177C72.5955 299.149 80.1562 270.836 95.9138 267.462C105.186 265.472 111.978 273.263 120.579 283.118C130.322 294.285 142.447 308.18 163.139 313.45C176.581 316.872 186.866 315.01 195.937 313.368C205.793 311.583 213.579 310.175 221.416 316.392C228.389 321.923 232.93 331.915 233.878 343.807C234.794 355.331 232.334 367.201 227.125 376.373C218.8 391.033 201.565 401.29 179.839 404.512C174.911 405.244 169.915 405.603 164.926 405.603H164.923ZM96.117 268.41C81.0463 271.636 73.5497 300.024 73.2294 318.194C72.6949 348.407 91.2002 378.745 119.278 393.684C136.865 403.042 158.887 406.643 179.696 403.555C201.123 400.377 218.102 390.297 226.279 375.897C231.395 366.89 233.811 355.221 232.908 343.884C231.982 332.259 227.574 322.514 220.81 317.15C213.318 311.204 205.724 312.579 196.109 314.32C186.941 315.98 176.546 317.862 162.898 314.386C141.912 309.042 129.677 295.021 119.846 283.753C111.457 274.138 104.833 266.541 96.117 268.408V268.41Z" fill="#11D582"/>
<path d="M184.531 404.873C184.531 404.873 198.5 410.599 208.452 410.513C210.131 410.498 211.218 408.741 210.511 407.223C210.102 406.346 209.484 405.237 208.561 403.853C205.106 398.676 190.309 390.28 190.309 390.28L187.924 391.311C187.087 391.672 186.747 392.677 187.19 393.473L187.791 394.546L183.826 394.542C182.923 394.542 182.201 395.293 182.249 396.193C182.347 398.022 182.795 401.2 184.529 404.871L184.531 404.873Z" fill="#232C34"/>
<path d="M208.232 411C198.31 411 184.487 405.38 184.346 405.323C184.233 405.277 184.142 405.191 184.092 405.083C182.362 401.422 181.872 398.244 181.766 396.223C181.735 395.657 181.936 395.117 182.327 394.705C182.716 394.297 183.261 394.064 183.824 394.064H186.963L186.767 393.715C186.488 393.217 186.433 392.622 186.616 392.08C186.8 391.54 187.206 391.099 187.73 390.872L190.115 389.841C190.254 389.779 190.415 389.788 190.548 389.865C191.155 390.211 205.484 398.381 208.963 403.593C209.815 404.869 210.482 406.026 210.948 407.027C211.353 407.897 211.289 408.9 210.776 409.713C210.268 410.513 209.4 410.998 208.455 411.004C208.38 411.004 208.305 411.004 208.229 411.004L208.232 411ZM184.889 404.497C186.515 405.144 199.1 410.03 208.227 410.03C208.3 410.03 208.373 410.03 208.446 410.03C209.069 410.026 209.619 409.72 209.955 409.189C210.29 408.657 210.334 407.998 210.069 407.428C209.623 406.471 208.978 405.358 208.154 404.122C205.022 399.43 192.088 391.864 190.276 390.82L188.116 391.754C187.838 391.875 187.632 392.098 187.535 392.384C187.438 392.671 187.467 392.973 187.615 393.235L188.215 394.308C188.299 394.458 188.297 394.641 188.211 394.791C188.123 394.939 187.964 395.031 187.791 395.031L183.827 395.027C183.524 395.027 183.241 395.148 183.031 395.366C182.824 395.584 182.72 395.869 182.735 396.168C182.837 398.072 183.292 401.05 184.889 404.494V404.497Z" fill="#11D582"/>
<path d="M208.954 408.4C208.954 408.4 208.932 408.4 208.921 408.4C198.06 407.677 185.266 402.866 185.138 402.817C184.889 402.723 184.763 402.443 184.858 402.191C184.953 401.94 185.236 401.817 185.485 401.912C185.611 401.96 198.272 406.72 208.987 407.432C209.254 407.45 209.457 407.681 209.44 407.948C209.422 408.203 209.21 408.4 208.956 408.4H208.954Z" fill="#11D582"/>
<path d="M199.524 402.632C199.44 402.632 199.356 402.61 199.279 402.566C199.047 402.429 198.97 402.134 199.107 401.903L201.245 398.275C201.38 398.044 201.678 397.967 201.91 398.103C202.142 398.24 202.219 398.535 202.082 398.767L199.944 402.394C199.853 402.548 199.692 402.632 199.524 402.632Z" fill="#11D582"/>
<path d="M194.722 401.16C194.639 401.16 194.555 401.138 194.477 401.094C194.245 400.957 194.168 400.662 194.305 400.431L196.993 395.873C197.128 395.642 197.426 395.564 197.658 395.701C197.89 395.838 197.967 396.133 197.83 396.364L195.142 400.922C195.052 401.076 194.89 401.16 194.722 401.16Z" fill="#11D582"/>
<path d="M140.779 315.424C141.208 314.975 171.735 301.816 184.213 299.017C196.69 296.218 201.34 296.192 205.587 303.308C209.833 310.424 185.134 349.249 185.134 349.249L132.589 335.583L140.781 315.427L140.779 315.424Z" fill="#11D582"/>
<path d="M170.35 330.664C170.284 330.664 170.215 330.651 170.151 330.622C169.906 330.512 169.798 330.225 169.906 329.981C175.795 316.866 185.52 307.493 185.617 307.398C185.812 307.213 186.119 307.219 186.304 307.413C186.49 307.607 186.483 307.914 186.289 308.099C186.194 308.191 176.601 317.441 170.792 330.377C170.71 330.558 170.533 330.664 170.348 330.664H170.35Z" fill="#232C34"/>
<path d="M115.802 332.817C115.802 332.817 115.802 340.244 122.848 347.195C131.676 355.904 160.126 349.912 160.126 349.912C160.126 349.912 163.05 354.694 164.963 367.472C166.874 380.25 169.007 397.453 172.173 401.651L199.732 395.714C199.732 395.714 190.592 340.976 184.241 333.531C177.893 326.087 131.698 324.918 131.698 324.918L115.802 332.819V332.817Z" fill="#11D582"/>
<path d="M187.429 340.726C187.228 340.726 187.04 340.601 186.97 340.4C185.825 337.117 184.783 334.908 183.871 333.842C180.535 329.93 158.743 327.082 139.46 325.721C139.193 325.703 138.992 325.469 139.01 325.203C139.028 324.936 139.257 324.738 139.529 324.753C151.644 325.608 180.288 328.145 184.608 333.211C185.611 334.388 186.682 336.634 187.884 340.081C187.972 340.334 187.838 340.61 187.586 340.698C187.533 340.715 187.48 340.724 187.427 340.724L187.429 340.726Z" fill="#232C34"/>
<path d="M150.743 307.081C150.88 306.644 165.012 285.175 165.012 285.175L168.42 287.658L155.505 307.748L150.743 307.078V307.081Z" fill="#E0FB92"/>
<path d="M102.085 330.093C102.085 330.093 97.1394 323.197 99.1649 307.751C101.19 292.304 106.145 284.286 111.327 282.453C116.511 280.621 137.83 283.967 139.495 309.919L102.085 330.093V330.093Z" fill="#232C34"/>
<path d="M102.085 330.578C101.933 330.578 101.785 330.507 101.69 330.375C101.484 330.086 96.656 323.144 98.6837 307.687C100.544 293.507 105.091 284.143 111.166 281.997C113.984 281 121.132 281.49 127.533 285.706C132.724 289.122 139.096 296.092 139.982 309.89C139.993 310.08 139.896 310.259 139.728 310.347L102.317 330.521C102.244 330.56 102.165 330.578 102.087 330.578H102.085ZM114.443 282.51C113.22 282.51 112.204 282.658 111.49 282.909C105.858 284.899 101.431 294.208 99.6467 307.812C97.9261 320.932 101.328 327.852 102.255 329.449L138.99 309.641C138.058 296.447 131.964 289.785 126.996 286.514C122.532 283.575 117.735 282.512 114.443 282.512V282.51Z" fill="#11D582"/>
<path d="M116.982 319.42C116.73 319.42 116.516 319.226 116.498 318.97L115.471 304.485C115.451 304.218 115.654 303.986 115.922 303.967C116.191 303.94 116.421 304.15 116.441 304.416L117.468 318.902C117.488 319.169 117.284 319.4 117.017 319.42C117.006 319.42 116.993 319.42 116.982 319.42Z" fill="#11D582"/>
<path d="M100.285 326.119C100.285 326.119 102.081 339.091 120.253 334.75C138.425 330.408 147.898 313.553 147.898 313.553C147.898 313.553 158.478 311.296 158.118 304.447C158.118 304.447 154.577 305.395 151.565 304.447C148.554 303.499 145.294 304.469 144.039 305.641C135.447 313.681 108.003 316.092 100.285 326.117V326.119Z" fill="#232C34"/>
<path d="M113.387 336.127C109.955 336.127 107.068 335.338 104.755 333.762C100.495 330.86 99.8298 326.375 99.8033 326.186C99.7856 326.058 99.821 325.928 99.8983 325.824C104.192 320.248 114.289 317.031 124.052 313.919C132.187 311.327 139.871 308.879 143.708 305.289C145.176 303.914 148.655 303.026 151.71 303.986C154.553 304.881 157.957 303.989 157.992 303.98C158.133 303.942 158.283 303.969 158.403 304.057C158.522 304.143 158.595 304.277 158.602 304.423C158.953 311.133 149.775 313.606 148.209 313.979C147.085 315.858 137.492 331.127 120.365 335.219C117.838 335.823 115.508 336.125 113.387 336.125V336.127ZM100.802 326.247C100.978 327.109 101.893 330.646 105.319 332.973C108.822 335.354 113.809 335.792 120.14 334.28C137.885 330.04 147.381 313.485 147.474 313.32C147.542 313.198 147.659 313.112 147.796 313.084C147.895 313.062 157.351 310.968 157.634 305.057C156.461 305.291 153.806 305.666 151.419 304.914C148.545 304.011 145.479 304.965 144.372 306.001C140.377 309.738 132.591 312.22 124.347 314.847C114.828 317.882 104.987 321.015 100.802 326.252V326.247Z" fill="#11D582"/>
<path d="M151.638 307.861C151.344 307.861 151.039 307.854 150.723 307.841C150.456 307.83 150.246 307.605 150.257 307.338C150.268 307.072 150.476 306.86 150.763 306.873C155.989 307.083 157.69 305.408 157.705 305.392C157.893 305.201 158.2 305.198 158.392 305.384C158.584 305.571 158.589 305.877 158.401 306.069C158.326 306.146 156.59 307.861 151.638 307.861V307.861Z" fill="#11D582"/>
<path d="M151.092 310.371C150.975 310.371 150.855 310.371 150.734 310.369C150.467 310.364 150.252 310.142 150.257 309.875C150.261 309.606 150.491 309.395 150.752 309.399C155.2 309.5 156.68 307.927 156.696 307.911C156.874 307.715 157.181 307.698 157.38 307.874C157.579 308.05 157.599 308.352 157.424 308.55C157.358 308.628 155.777 310.369 151.094 310.369L151.092 310.371Z" fill="#11D582"/>
<path d="M119.882 272.176C119.76 272.397 114.609 281.179 114.609 281.179L111.058 283.559C112.367 284.553 114.682 286.047 117.92 286.902C121.223 287.775 124.025 287.599 125.667 287.372C125.525 286.924 125.284 286.343 124.869 285.732C124.213 284.771 123.431 284.2 122.932 283.894C123.992 282.078 125.053 280.262 126.111 278.446L119.882 272.174V272.176Z" fill="#232C34"/>
<path d="M122.947 288.046C121.213 288.046 119.488 287.821 117.794 287.374C115.236 286.697 112.871 285.545 110.764 283.947C110.64 283.852 110.567 283.705 110.571 283.548C110.576 283.392 110.655 283.246 110.786 283.16L114.245 280.842C116.032 277.794 119.345 272.141 119.453 271.947C119.526 271.813 119.661 271.722 119.811 271.7C119.963 271.683 120.116 271.731 120.224 271.839L126.453 278.111C126.607 278.268 126.638 278.508 126.528 278.695L123.579 283.749C124.244 284.22 124.809 284.795 125.267 285.465C125.635 286.008 125.925 286.6 126.126 287.231C126.17 287.367 126.15 287.515 126.073 287.636C125.996 287.757 125.87 287.839 125.728 287.857C124.801 287.984 123.871 288.048 122.943 288.048L122.947 288.046ZM111.901 283.577C113.765 284.89 115.828 285.851 118.042 286.435C120.321 287.037 122.658 287.215 124.993 286.966C124.847 286.629 124.67 286.307 124.463 286.005C123.997 285.32 123.394 284.749 122.673 284.308C122.448 284.172 122.375 283.879 122.508 283.652L125.501 278.526L119.981 272.968C118.899 274.821 115.475 280.659 115.027 281.424C114.989 281.488 114.938 281.54 114.879 281.582L111.901 283.579V283.577Z" fill="#11D582"/>
<path d="M128.94 258.579C125.894 258.184 124.597 261.386 120.981 260.829C119.325 260.573 118.677 259.76 117.067 260.057C116 260.256 114.333 260.974 113.8 262.378C113.125 264.165 115.035 265.106 116.14 269.197C116.915 272.068 116.553 273.754 117.655 274.244C118.77 274.739 119.724 273.276 120.983 273.726C122.611 274.307 122.079 277.139 123.612 278.44C124.665 279.332 127.362 279.868 131.966 277.737C131.773 276.906 131.493 275.2 131.033 273.646C129.596 268.785 127.974 267.592 128.679 266.411C129.757 264.6 133.262 265.935 133.965 264.434C134.696 262.876 132.067 258.982 128.94 258.576V258.579Z" fill="#F3FBFD"/>
<path d="M121.864 265.805L123.028 266.77C123.028 266.77 123.861 271.572 124.486 273.19C125.111 274.81 130.284 273.256 130.284 273.256L130.657 272.311L132.084 271.85C132.084 271.85 129.41 267.663 128.782 264.148C128.782 264.148 125.113 262.922 121.864 265.803V265.805Z" fill="#232C34"/>
<path d="M122.35 265.798C122.743 265.997 123.051 266.151 123.34 266.4L123.346 266.404C123.435 266.482 123.49 266.583 123.508 266.689C123.689 267.722 123.89 268.76 124.106 269.79C124.327 270.812 124.552 271.855 124.866 272.809L124.928 272.983C124.95 273.047 124.959 273.04 124.97 273.075C125.007 273.117 125.038 273.166 125.109 273.205C125.237 273.291 125.443 273.358 125.664 273.393C126.112 273.466 126.62 273.448 127.121 273.399C128.129 273.296 129.162 273.071 130.145 272.791L129.834 273.078L130.207 272.132L130.222 272.09C130.273 271.963 130.384 271.874 130.51 271.848L131.981 271.526L131.8 272.029C131.026 270.825 130.344 269.589 129.73 268.302C129.129 267.011 128.601 265.673 128.305 264.234L128.628 264.606C128.124 264.461 127.514 264.379 126.945 264.375C126.366 264.366 125.785 264.428 125.224 264.566C124.665 264.703 124.115 264.897 123.612 265.179C123.351 265.303 123.115 265.472 122.872 265.629C122.719 265.723 122.717 265.752 122.637 265.765C122.571 265.779 122.472 265.772 122.348 265.792L122.35 265.798ZM121.378 265.814C121.496 265.64 121.639 265.441 121.811 265.261C121.975 265.087 122.2 264.904 122.315 264.84C122.591 264.661 122.858 264.469 123.157 264.326C123.733 264.007 124.36 263.784 125.001 263.628C125.641 263.469 126.302 263.401 126.958 263.409C127.623 263.42 128.252 263.491 128.937 263.692C129.107 263.74 129.224 263.879 129.255 264.04L129.259 264.066C129.483 265.388 129.94 266.7 130.481 267.971C131.031 269.239 131.663 270.488 132.367 271.672C132.464 271.835 132.411 272.048 132.246 272.145L132.208 272.165L132.184 272.176L130.801 272.778L131.104 272.494L130.731 273.439V273.446C130.673 273.587 130.554 273.686 130.419 273.726C129.361 274.025 128.314 274.254 127.21 274.369C126.657 274.42 126.096 274.446 125.496 274.351C125.197 274.299 124.879 274.219 124.564 274.014C124.404 273.917 124.259 273.765 124.142 273.593C124.097 273.51 124.033 273.388 124.014 273.329L123.943 273.128C123.596 272.07 123.377 271.037 123.15 269.992C122.931 268.948 122.73 267.907 122.547 266.856L122.715 267.147C122.227 266.753 121.758 266.261 121.374 265.816L121.378 265.814Z" fill="#F3FBFD"/>
<path d="M122.485 270.116C122.485 270.116 121.12 267.077 119.868 267.989C118.613 268.901 120.199 272.207 122.485 270.116Z" fill="#232C34"/>
<path d="M121.025 271.279C120.771 271.279 120.559 271.229 120.404 271.173C119.667 270.911 119.088 270.155 118.962 269.294C118.861 268.586 119.09 267.954 119.581 267.597C119.921 267.35 120.309 267.275 120.703 267.378C121.9 267.696 122.825 269.69 122.927 269.917C123.013 270.109 122.967 270.332 122.812 270.473C122.118 271.107 121.496 271.279 121.023 271.279H121.025ZM120.36 268.302C120.29 268.302 120.226 268.326 120.153 268.379C119.96 268.52 119.874 268.809 119.925 269.153C119.998 269.662 120.329 270.116 120.731 270.259C121.133 270.4 121.546 270.224 121.882 269.981C121.511 269.276 120.919 268.436 120.455 268.313C120.422 268.304 120.391 268.3 120.362 268.3L120.36 268.302Z" fill="#F3FBFD"/>
<path d="M103.806 362.245C103.744 362.245 103.683 362.234 103.621 362.207C103.373 362.106 103.254 361.822 103.358 361.575C107.04 352.7 118.908 351.043 119.411 350.977C119.679 350.946 119.922 351.129 119.957 351.393C119.992 351.658 119.805 351.902 119.54 351.937C119.422 351.953 107.722 353.592 104.255 361.947C104.177 362.135 103.996 362.247 103.806 362.247V362.245Z" fill="#11D582"/>
<path d="M120.363 367.646C120.118 367.646 119.908 367.461 119.881 367.212C118.971 358.663 123.868 353.183 124.078 352.953C124.259 352.755 124.566 352.742 124.763 352.92C124.961 353.101 124.977 353.407 124.796 353.603C124.747 353.656 119.983 359.007 120.846 367.109C120.875 367.375 120.681 367.613 120.416 367.642C120.398 367.642 120.38 367.644 120.363 367.644V367.646Z" fill="#11D582"/>
<path d="M263.555 61.9904C263.288 61.9904 263.069 61.7744 263.069 61.5056V57.7458C263.069 57.477 263.286 57.261 263.555 57.261C263.825 57.261 264.041 57.477 264.041 57.7458V61.5056C264.041 61.7744 263.825 61.9904 263.555 61.9904Z" fill="#E0FB92"/>
<path d="M263.555 70.7485C263.288 70.7485 263.069 70.5325 263.069 70.2636V66.5039C263.069 66.235 263.286 66.019 263.555 66.019C263.825 66.019 264.041 66.235 264.041 66.5039V70.2636C264.041 70.5325 263.825 70.7485 263.555 70.7485Z" fill="#E0FB92"/>
<path d="M261.05 64.4895H257.282C257.015 64.4895 256.796 64.2735 256.796 64.0046C256.796 63.7358 257.012 63.5198 257.282 63.5198H261.05C261.317 63.5198 261.536 63.7358 261.536 64.0046C261.536 64.2735 261.32 64.4895 261.05 64.4895Z" fill="#E0FB92"/>
<path d="M269.827 64.4895H266.059C265.79 64.4895 265.573 64.2735 265.573 64.0046C265.573 63.7358 265.79 63.5198 266.059 63.5198H269.827C270.097 63.5198 270.313 63.7358 270.313 64.0046C270.313 64.2735 270.097 64.4895 269.827 64.4895Z" fill="#E0FB92"/>
<path d="M97.2613 198.928C96.9941 198.928 96.7754 198.712 96.7754 198.443V194.683C96.7754 194.414 96.9919 194.198 97.2613 194.198C97.5308 194.198 97.7473 194.414 97.7473 194.683V198.443C97.7473 198.712 97.5308 198.928 97.2613 198.928Z" fill="#E0FB92"/>
<path d="M97.2613 207.686C96.9941 207.686 96.7754 207.47 96.7754 207.201V203.441C96.7754 203.172 96.9919 202.956 97.2613 202.956C97.5308 202.956 97.7473 203.172 97.7473 203.441V207.201C97.7473 207.47 97.5308 207.686 97.2613 207.686Z" fill="#E0FB92"/>
<path d="M94.7561 201.427H90.9879C90.7206 201.427 90.502 201.211 90.502 200.942C90.502 200.673 90.7184 200.457 90.9879 200.457H94.7561C95.0234 200.457 95.242 200.673 95.242 200.942C95.242 201.211 95.0256 201.427 94.7561 201.427Z" fill="#E0FB92"/>
<path d="M103.531 201.427H99.7633C99.496 201.427 99.2773 201.211 99.2773 200.942C99.2773 200.673 99.4938 200.457 99.7633 200.457H103.531C103.799 200.457 104.017 200.673 104.017 200.942C104.017 201.211 103.801 201.427 103.531 201.427Z" fill="#E0FB92"/>
<path d="M411.018 249.788C410.749 249.788 410.532 249.572 410.532 249.303V245.543C410.532 245.274 410.749 245.058 411.018 245.058C411.288 245.058 411.504 245.274 411.504 245.543V249.303C411.504 249.572 411.288 249.788 411.018 249.788Z" fill="#8E7AFF"/>
<path d="M411.018 258.543C410.749 258.543 410.532 258.327 410.532 258.059V254.299C410.532 254.03 410.749 253.814 411.018 253.814C411.288 253.814 411.504 254.03 411.504 254.299V258.059C411.504 258.327 411.288 258.543 411.018 258.543Z" fill="#8E7AFF"/>
<path d="M408.514 252.287H404.748C404.478 252.287 404.262 252.071 404.262 251.802C404.262 251.533 404.478 251.317 404.748 251.317H408.514C408.783 251.317 409 251.533 409 251.802C409 252.071 408.783 252.287 408.514 252.287Z" fill="#8E7AFF"/>
<path d="M417.289 252.287H413.521C413.252 252.287 413.035 252.071 413.035 251.802C413.035 251.533 413.252 251.317 413.521 251.317H417.289C417.559 251.317 417.775 251.533 417.775 251.802C417.775 252.071 417.559 252.287 417.289 252.287Z" fill="#8E7AFF"/>
<path d="M383.118 79.1147C375.506 84.1836 377.371 100.305 387.284 115.121C397.197 129.937 411.402 137.838 419.015 132.769L425.116 128.705L389.221 75.0509C389.221 75.0509 390.732 74.0437 383.12 79.1147H383.118Z" fill="#F3FBFD" stroke="#F3FBFD" stroke-miterlimit="10"/>
<path d="M425.345 128.577C432.957 123.508 431.093 107.387 421.182 92.5701C411.27 77.753 397.064 69.8506 389.453 74.9195C381.841 79.9885 383.705 96.1092 393.616 110.926C403.528 125.743 417.733 133.646 425.345 128.577Z" fill="#232C34" stroke="#F3FBFD" stroke-miterlimit="10"/>
<path d="M413.438 114.092L411.729 111.151C409.969 111.862 407.992 112.086 406.628 111.861L405.288 107.878C406.771 108.086 408.652 108.028 410.305 107.248C411.756 106.564 412.353 105.413 411.635 104.174C410.953 102.997 409.704 102.638 407.371 102.752C403.999 102.923 401.241 102.251 399.497 99.2461C397.915 96.5216 398.252 93.6408 400.6 91.7057L398.891 88.7647L401.387 87.589L402.969 90.3135C404.729 89.6022 406.127 89.4961 407.255 89.5932L408.549 93.4416C407.688 93.4124 406.104 93.2531 404.269 94.1171C402.616 94.8977 402.583 96.0184 403.088 96.8837C403.681 97.9047 404.95 98.1347 407.69 98.1075C411.476 97.979 413.687 99.1042 415.305 101.891C416.906 104.648 416.668 107.757 414.1 109.757L415.934 112.916L413.438 114.092Z" fill="#F3FBFD"/>
<path d="M389.672 31.0161C395.383 34.8124 393.984 46.8866 386.547 57.9836C379.109 69.0806 368.452 74.998 362.74 71.2016L358.162 68.1579L385.094 27.9723C385.094 27.9723 383.96 27.218 389.671 31.0161H389.672Z" fill="#232C34" stroke="#F3FBFD" stroke-miterlimit="10"/>
<path d="M357.99 68.0618C352.279 64.2653 353.677 52.1914 361.114 41.0939C368.55 29.9963 379.208 24.0777 384.919 27.8742C390.63 31.6706 389.231 43.7446 381.795 54.8421C374.359 65.9396 363.701 71.8583 357.99 68.0618Z" fill="#232C34" stroke="#F3FBFD" stroke-miterlimit="10"/>
<path d="M364.953 55.9914L366.355 53.8629C365.29 52.9173 364.48 51.6635 364.175 50.672L366.399 48.4442C366.754 49.5101 367.421 50.7543 368.497 51.6052C369.44 52.3517 370.412 52.3697 371.003 51.4738C371.564 50.6233 371.388 49.665 370.533 48.1352C369.292 45.9268 368.822 43.8493 370.255 41.6762C371.554 39.7053 373.599 38.9712 375.681 39.9043L377.083 37.7758L378.705 39.0608L377.406 41.0318C378.47 41.9773 379.008 42.881 379.32 43.671L377.17 45.8231C376.903 45.2349 376.481 44.1181 375.289 43.1731C374.213 42.3222 373.45 42.6739 373.039 43.3014C372.552 44.0405 372.821 44.9697 373.754 46.8013C375.105 49.3026 375.088 51.1626 373.759 53.1789C372.445 55.1734 370.28 56.0495 368.081 54.9911L366.575 57.2765L364.953 55.9914Z" fill="#F3FBFD"/>
</svg>
