<svg width="414" height="497" viewBox="0 0 414 497" fill="none" xmlns="http://www.w3.org/2000/svg">
<path d="M267.749 239.839C251.721 257.823 210.456 246.88 175.59 215.4C140.714 183.914 125.433 143.808 141.461 125.823L154.304 111.413L280.585 225.439C280.585 225.439 283.77 221.865 267.742 239.85L267.749 239.839Z" fill="#3418D8" stroke="#F3FBFD" stroke-width="2" stroke-miterlimit="10"/>
<path d="M281.06 224.904C297.089 206.917 281.815 166.813 246.945 135.33C212.075 103.848 170.814 92.9079 154.786 110.895C138.757 128.883 154.031 168.986 188.901 200.469C223.77 231.952 265.032 242.892 281.06 224.904Z" fill="#3418D8" stroke="white" stroke-width="2"/>
<path d="M209.478 182.423L178.819 154.741L191.032 141.037C205.572 154.032 222.123 159.106 228.136 152.369C228.187 152.311 228.232 152.263 228.272 152.198L258.424 179.414L246.153 193.187C231.742 180.543 215.505 175.665 209.567 182.328C209.547 182.36 209.509 182.397 209.489 182.43L209.478 182.423Z" fill="#11D48E"/>
<path d="M271.783 126.65C285.514 142.689 270.104 179.965 237.368 209.899C204.626 239.842 166.95 251.114 153.219 235.075L142.217 222.223L260.79 113.805C260.79 113.805 258.061 110.617 271.792 126.656L271.783 126.65Z" fill="white" stroke="#F3FBFD" stroke-width="5.06754" stroke-miterlimit="10"/>
<path d="M261.319 112.476C253.95 103.869 240.439 102.847 225.098 107.435C209.658 112.054 191.897 122.467 175.421 137.535C158.946 152.603 146.784 169.556 140.469 184.834C134.195 200.014 133.532 213.999 140.9 222.607C148.269 231.214 161.78 232.236 177.121 227.648C192.561 223.029 210.322 212.616 226.798 197.548C243.274 182.48 255.436 165.527 261.751 150.249C268.025 135.07 268.688 121.084 261.319 112.476Z" fill="#3418D8" stroke="white" stroke-width="2.53377"/>
<path d="M198.358 247.527C194.617 251.185 186.106 248.923 186.106 248.923C186.106 248.923 198.12 271.091 210.129 271.543C232.785 272.383 244.458 250.183 244.458 250.183C225.622 250.203 206.028 239.018 206.028 239.018C206.028 239.018 204.976 241.054 198.358 247.527Z" stroke="#8366F4" stroke-width="2"/>
<path d="M224.815 268.064C223.438 268.647 212.093 273.059 202.339 263.983C197.682 259.648 196.722 251.713 198.141 247.377L221.607 252.582L179.413 215.93L151.121 230.054L168.33 235.429C169.69 238.029 173.834 250.528 181.348 257.328C189.677 264.865 197.031 269.008 205.934 270.924C213.82 272.619 223.561 268.677 224.822 268.063L224.815 268.064Z" fill="#8366F4" stroke="#8366F4" stroke-width="1.5" stroke-miterlimit="10"/>
<path fill-rule="evenodd" clip-rule="evenodd" d="M196.231 140.414L206.609 150.959L202.761 154.378L198.913 157.796L197.162 155.805C196.199 154.709 193.381 152.522 190.9 150.944C188.419 149.367 185.107 147.785 183.54 147.429C181.789 147.031 180.14 147.272 179.26 148.054C178.439 148.783 177.894 150.461 177.981 151.988C178.066 153.452 178.988 156.611 180.03 159.008C181.073 161.405 182.973 164.568 184.251 166.038L186.576 168.709L164.029 188.454L170.512 197.988L193.6 177.477L195.59 179.336C196.684 180.359 199.256 182.358 201.305 183.779C203.353 185.201 206.534 186.76 208.374 187.246C210.656 187.847 212.196 187.704 213.215 186.799C214.167 185.953 214.605 184.411 214.421 182.55C214.262 180.943 213.107 177.445 211.854 174.777C210.602 172.108 208.789 169.028 207.825 167.933L206.074 165.941L209.922 162.523L213.77 159.104L218.47 164.449L223.17 169.795L228.557 165.009L233.944 160.223L205.271 134.067L196.231 140.414ZM194.394 161.811L190.644 165.142C193.219 168.07 195.457 170.615 197.806 173.287L201.662 169.861L205.517 166.436L208.329 170.685C209.875 173.022 211.627 176.517 212.223 178.451C212.818 180.386 213.048 182.68 212.735 183.55C212.279 184.819 211.73 185.104 209.966 184.986C208.756 184.905 206.478 184.148 204.903 183.303C203.329 182.457 198.716 178.394 194.654 174.274C190.034 169.59 186.098 164.762 184.151 161.39C182.437 158.425 180.935 154.696 180.812 153.104C180.69 151.512 180.937 149.902 181.361 149.526C181.784 149.15 183.421 149.098 184.997 149.412C186.574 149.725 189.281 150.955 191.011 152.147C192.743 153.338 195.055 155.25 196.151 156.396L198.143 158.48L194.394 161.811Z" fill="#E0FB92"/>
<path d="M99.6984 354.957C96.8757 354.957 94.3237 354.357 92.0424 353.159C89.7611 351.921 87.8664 350.143 86.3584 347.823L90.5344 343.299C92.2357 345.193 93.7631 346.508 95.1164 347.243C96.4697 347.939 97.9584 348.287 99.5824 348.287C101.052 348.287 102.366 347.977 103.526 347.359C104.686 346.701 105.614 345.831 106.31 344.749C107.006 343.627 107.354 342.409 107.354 341.095C107.354 339.664 107.026 338.407 106.368 337.325C105.711 336.203 104.822 335.314 103.7 334.657C102.579 333.999 101.303 333.671 99.8724 333.671C99.0991 333.671 98.3644 333.729 97.6684 333.845C96.9724 333.961 96.1604 334.193 95.2324 334.541C94.3431 334.889 93.2024 335.43 91.8104 336.165L88.2144 331.293L90.5924 313.835H113.038V320.505H94.8264L96.5084 318.649L94.5944 331.525L92.4484 330.017C92.9511 329.553 93.6857 329.108 94.6524 328.683C95.6577 328.257 96.7404 327.909 97.9004 327.639C99.0604 327.368 100.201 327.233 101.322 327.233C103.836 327.233 106.078 327.813 108.05 328.973C110.022 330.133 111.588 331.737 112.748 333.787C113.908 335.797 114.488 338.117 114.488 340.747C114.488 343.415 113.831 345.831 112.516 347.997C111.24 350.123 109.481 351.825 107.238 353.101C104.996 354.338 102.482 354.957 99.6984 354.957Z" fill="#E0FB92"/>
<path d="M122.674 354.551L149.528 313.951H156.43L129.286 354.551H122.674ZM125.98 335.469C124.162 335.469 122.538 334.985 121.108 334.019C119.716 333.052 118.614 331.737 117.802 330.075C117.028 328.412 116.642 326.517 116.642 324.391C116.642 322.225 117.028 320.311 117.802 318.649C118.614 316.947 119.716 315.613 121.108 314.647C122.538 313.68 124.182 313.197 126.038 313.197C127.855 313.197 129.46 313.68 130.852 314.647C132.282 315.613 133.384 316.947 134.158 318.649C134.97 320.311 135.376 322.225 135.376 324.391C135.376 326.479 134.97 328.373 134.158 330.075C133.346 331.737 132.224 333.052 130.794 334.019C129.363 334.985 127.758 335.469 125.98 335.469ZM126.038 330.539C126.772 330.539 127.41 330.287 127.952 329.785C128.493 329.282 128.918 328.586 129.228 327.697C129.537 326.769 129.692 325.667 129.692 324.391C129.692 323.115 129.537 322.013 129.228 321.085C128.918 320.157 128.493 319.441 127.952 318.939C127.41 318.436 126.753 318.185 125.98 318.185C125.245 318.185 124.588 318.455 124.008 318.997C123.466 319.499 123.041 320.215 122.732 321.143C122.422 322.032 122.268 323.115 122.268 324.391C122.268 325.667 122.403 326.769 122.674 327.697C122.983 328.586 123.428 329.282 124.008 329.785C124.588 330.287 125.264 330.539 126.038 330.539ZM153.53 355.073C151.712 355.073 150.088 354.589 148.658 353.623C147.266 352.656 146.164 351.341 145.352 349.679C144.54 348.016 144.134 346.121 144.134 343.995C144.134 341.829 144.52 339.915 145.294 338.253C146.106 336.551 147.227 335.217 148.658 334.251C150.088 333.284 151.712 332.801 153.53 332.801C155.386 332.801 157.01 333.284 158.402 334.251C159.794 335.217 160.876 336.551 161.65 338.253C162.462 339.915 162.868 341.829 162.868 343.995C162.868 346.083 162.462 347.977 161.65 349.679C160.838 351.341 159.716 352.656 158.286 353.623C156.894 354.589 155.308 355.073 153.53 355.073ZM153.53 350.201C154.264 350.201 154.902 349.949 155.444 349.447C156.024 348.905 156.468 348.19 156.778 347.301C157.087 346.373 157.242 345.271 157.242 343.995C157.242 342.757 157.087 341.675 156.778 340.747C156.468 339.819 156.024 339.103 155.444 338.601C154.902 338.059 154.264 337.789 153.53 337.789C152.756 337.789 152.08 338.04 151.5 338.543C150.958 339.045 150.533 339.78 150.224 340.747C149.914 341.675 149.76 342.757 149.76 343.995C149.76 345.271 149.914 346.373 150.224 347.301C150.533 348.19 150.958 348.905 151.5 349.447C152.08 349.949 152.756 350.201 153.53 350.201Z" fill="#E0FB92"/>
<path d="M178.743 341.385V334.541H196.665V341.385H178.743Z" fill="#E0FB92"/>
<path d="M222.593 354.551L222.361 353.971L234.657 328.335L235.353 332.685C234.773 333.922 234.057 335.024 233.207 335.991C232.395 336.957 231.447 337.808 230.365 338.543C229.321 339.239 228.238 339.78 227.117 340.167C225.995 340.515 224.874 340.689 223.753 340.689C221.549 340.689 219.519 340.109 217.663 338.949C215.807 337.75 214.318 336.184 213.197 334.251C212.075 332.279 211.515 330.133 211.515 327.813C211.515 325.067 212.153 322.593 213.429 320.389C214.705 318.146 216.425 316.387 218.591 315.111C220.795 313.796 223.269 313.139 226.015 313.139C227.987 313.139 229.843 313.506 231.583 314.241C233.361 314.937 234.889 315.923 236.165 317.199C237.479 318.475 238.504 319.944 239.239 321.607C240.012 323.269 240.399 325.029 240.399 326.885C240.399 328.006 240.283 329.166 240.051 330.365C239.857 331.525 239.529 332.801 239.065 334.193C238.601 335.585 238.001 337.112 237.267 338.775C236.571 340.437 235.72 342.332 234.715 344.459L229.785 354.551H222.593ZM225.435 334.193C226.827 334.193 228.083 333.883 229.205 333.265C230.326 332.607 231.196 331.757 231.815 330.713C232.433 329.669 232.743 328.47 232.743 327.117C232.743 325.725 232.433 324.468 231.815 323.347C231.196 322.225 230.345 321.355 229.263 320.737C228.18 320.079 226.943 319.751 225.551 319.751C224.236 319.751 223.076 320.06 222.071 320.679C221.065 321.297 220.253 322.167 219.635 323.289C219.055 324.371 218.765 325.647 218.765 327.117C218.765 328.354 219.055 329.514 219.635 330.597C220.253 331.679 221.065 332.549 222.071 333.207C223.115 333.864 224.236 334.193 225.435 334.193Z" fill="#E0FB92"/>
<path d="M245.652 355.189C244.26 355.189 243.177 354.783 242.404 353.971C241.669 353.159 241.302 352.018 241.302 350.549C241.302 349.195 241.688 348.093 242.462 347.243C243.274 346.353 244.337 345.909 245.652 345.909C247.044 345.909 248.107 346.315 248.842 347.127C249.615 347.9 250.002 349.041 250.002 350.549C250.002 351.902 249.596 353.023 248.784 353.913C248.01 354.763 246.966 355.189 245.652 355.189Z" fill="#E0FB92"/>
<path d="M264.518 354.957C261.695 354.957 259.143 354.357 256.862 353.159C254.581 351.921 252.686 350.143 251.178 347.823L255.354 343.299C257.055 345.193 258.583 346.508 259.936 347.243C261.289 347.939 262.778 348.287 264.402 348.287C265.871 348.287 267.186 347.977 268.346 347.359C269.506 346.701 270.434 345.831 271.13 344.749C271.826 343.627 272.174 342.409 272.174 341.095C272.174 339.664 271.845 338.407 271.188 337.325C270.531 336.203 269.641 335.314 268.52 334.657C267.399 333.999 266.123 333.671 264.692 333.671C263.919 333.671 263.184 333.729 262.488 333.845C261.792 333.961 260.98 334.193 260.052 334.541C259.163 334.889 258.022 335.43 256.63 336.165L253.034 331.293L255.412 313.835H277.858V320.505H259.646L261.328 318.649L259.414 331.525L257.268 330.017C257.771 329.553 258.505 329.108 259.472 328.683C260.477 328.257 261.56 327.909 262.72 327.639C263.88 327.368 265.021 327.233 266.142 327.233C268.655 327.233 270.898 327.813 272.87 328.973C274.842 330.133 276.408 331.737 277.568 333.787C278.728 335.797 279.308 338.117 279.308 340.747C279.308 343.415 278.651 345.831 277.336 347.997C276.06 350.123 274.301 351.825 272.058 353.101C269.815 354.338 267.302 354.957 264.518 354.957Z" fill="#E0FB92"/>
<path d="M287.493 354.551L314.347 313.951H321.249L294.105 354.551H287.493ZM290.799 335.469C288.982 335.469 287.358 334.985 285.927 334.019C284.535 333.052 283.433 331.737 282.621 330.075C281.848 328.412 281.461 326.517 281.461 324.391C281.461 322.225 281.848 320.311 282.621 318.649C283.433 316.947 284.535 315.613 285.927 314.647C287.358 313.68 289.001 313.197 290.857 313.197C292.675 313.197 294.279 313.68 295.671 314.647C297.102 315.613 298.204 316.947 298.977 318.649C299.789 320.311 300.195 322.225 300.195 324.391C300.195 326.479 299.789 328.373 298.977 330.075C298.165 331.737 297.044 333.052 295.613 334.019C294.183 334.985 292.578 335.469 290.799 335.469ZM290.857 330.539C291.592 330.539 292.23 330.287 292.771 329.785C293.313 329.282 293.738 328.586 294.047 327.697C294.357 326.769 294.511 325.667 294.511 324.391C294.511 323.115 294.357 322.013 294.047 321.085C293.738 320.157 293.313 319.441 292.771 318.939C292.23 318.436 291.573 318.185 290.799 318.185C290.065 318.185 289.407 318.455 288.827 318.997C288.286 319.499 287.861 320.215 287.551 321.143C287.242 322.032 287.087 323.115 287.087 324.391C287.087 325.667 287.223 326.769 287.493 327.697C287.803 328.586 288.247 329.282 288.827 329.785C289.407 330.287 290.084 330.539 290.857 330.539ZM318.349 355.073C316.532 355.073 314.908 354.589 313.477 353.623C312.085 352.656 310.983 351.341 310.171 349.679C309.359 348.016 308.953 346.121 308.953 343.995C308.953 341.829 309.34 339.915 310.113 338.253C310.925 336.551 312.047 335.217 313.477 334.251C314.908 333.284 316.532 332.801 318.349 332.801C320.205 332.801 321.829 333.284 323.221 334.251C324.613 335.217 325.696 336.551 326.469 338.253C327.281 339.915 327.687 341.829 327.687 343.995C327.687 346.083 327.281 347.977 326.469 349.679C325.657 351.341 324.536 352.656 323.105 353.623C321.713 354.589 320.128 355.073 318.349 355.073ZM318.349 350.201C319.084 350.201 319.722 349.949 320.263 349.447C320.843 348.905 321.288 348.19 321.597 347.301C321.907 346.373 322.061 345.271 322.061 343.995C322.061 342.757 321.907 341.675 321.597 340.747C321.288 339.819 320.843 339.103 320.263 338.601C319.722 338.059 319.084 337.789 318.349 337.789C317.576 337.789 316.899 338.04 316.319 338.543C315.778 339.045 315.353 339.78 315.043 340.747C314.734 341.675 314.579 342.757 314.579 343.995C314.579 345.271 314.734 346.373 315.043 347.301C315.353 348.19 315.778 348.905 316.319 349.447C316.899 349.949 317.576 350.201 318.349 350.201Z" fill="#E0FB92"/>
<path d="M68.324 405.853C67.012 405.853 65.836 405.533 64.796 404.893C63.772 404.237 62.956 403.301 62.348 402.085C61.756 400.869 61.46 399.405 61.46 397.693C61.46 395.997 61.764 394.541 62.372 393.325C62.98 392.109 63.812 391.173 64.868 390.517C65.924 389.861 67.116 389.533 68.444 389.533C69.404 389.533 70.252 389.733 70.988 390.133C71.724 390.517 72.316 390.965 72.764 391.477L71.684 392.773C71.268 392.325 70.796 391.965 70.268 391.693C69.74 391.421 69.14 391.285 68.468 391.285C67.476 391.285 66.604 391.549 65.852 392.077C65.116 392.589 64.54 393.317 64.124 394.261C63.724 395.205 63.524 396.333 63.524 397.645C63.524 398.957 63.724 400.101 64.124 401.077C64.524 402.037 65.084 402.781 65.804 403.309C66.54 403.837 67.404 404.101 68.396 404.101C69.148 404.101 69.82 403.941 70.412 403.621C71.004 403.301 71.548 402.869 72.044 402.325L73.148 403.573C72.524 404.293 71.82 404.853 71.036 405.253C70.252 405.653 69.348 405.853 68.324 405.853Z" fill="white"/>
<path d="M80.1869 405.853C79.2429 405.853 78.3549 405.613 77.5229 405.133C76.7069 404.653 76.0429 403.957 75.5309 403.045C75.0349 402.133 74.7869 401.037 74.7869 399.757C74.7869 398.445 75.0349 397.333 75.5309 396.421C76.0429 395.509 76.7069 394.813 77.5229 394.333C78.3549 393.853 79.2429 393.613 80.1869 393.613C81.1469 393.613 82.0349 393.853 82.8509 394.333C83.6669 394.813 84.3229 395.509 84.8189 396.421C85.3309 397.333 85.5869 398.445 85.5869 399.757C85.5869 401.037 85.3309 402.133 84.8189 403.045C84.3229 403.957 83.6669 404.653 82.8509 405.133C82.0349 405.613 81.1469 405.853 80.1869 405.853ZM80.1869 404.221C81.1949 404.221 82.0029 403.813 82.6109 402.997C83.2349 402.165 83.5469 401.085 83.5469 399.757C83.5469 398.413 83.2349 397.325 82.6109 396.493C82.0029 395.661 81.1949 395.245 80.1869 395.245C79.1949 395.245 78.3869 395.661 77.7629 396.493C77.1389 397.325 76.8269 398.413 76.8269 399.757C76.8269 401.085 77.1389 402.165 77.7629 402.997C78.3869 403.813 79.1949 404.221 80.1869 404.221Z" fill="white"/>
<path d="M88.4188 405.565V393.901H90.0508L90.2188 395.581H90.2908C90.8508 395.021 91.4428 394.557 92.0668 394.189C92.6908 393.805 93.4028 393.613 94.2028 393.613C95.4348 393.613 96.3308 394.005 96.8908 394.789C97.4668 395.557 97.7548 396.685 97.7548 398.173V405.565H95.7868V398.437C95.7868 397.349 95.6108 396.557 95.2588 396.061C94.9068 395.565 94.3468 395.317 93.5788 395.317C92.9868 395.317 92.4508 395.469 91.9708 395.773C91.5068 396.077 90.9788 396.525 90.3868 397.117V405.565H88.4188Z" fill="white"/>
<path d="M104.352 405.853C103.52 405.853 102.728 405.701 101.976 405.397C101.224 405.077 100.568 404.693 100.008 404.245L100.992 402.925C101.504 403.325 102.032 403.661 102.576 403.933C103.12 404.189 103.736 404.317 104.424 404.317C105.192 404.317 105.768 404.141 106.152 403.789C106.536 403.421 106.728 402.989 106.728 402.493C106.728 402.093 106.592 401.757 106.32 401.485C106.064 401.213 105.728 400.989 105.312 400.813C104.912 400.621 104.496 400.445 104.064 400.285C103.52 400.077 102.984 399.845 102.456 399.589C101.928 399.317 101.496 398.973 101.16 398.557C100.824 398.125 100.656 397.581 100.656 396.925C100.656 395.981 101.008 395.197 101.712 394.573C102.432 393.933 103.424 393.613 104.688 393.613C105.408 393.613 106.08 393.741 106.704 393.997C107.328 394.253 107.864 394.565 108.312 394.933L107.352 396.181C106.952 395.877 106.536 395.629 106.104 395.437C105.672 395.245 105.2 395.149 104.688 395.149C103.952 395.149 103.408 395.317 103.056 395.653C102.72 395.989 102.552 396.381 102.552 396.829C102.552 397.197 102.672 397.501 102.912 397.741C103.152 397.965 103.464 398.165 103.848 398.341C104.232 398.501 104.64 398.669 105.072 398.845C105.632 399.053 106.184 399.293 106.728 399.565C107.272 399.821 107.72 400.173 108.072 400.621C108.44 401.053 108.624 401.637 108.624 402.373C108.624 402.997 108.456 403.573 108.12 404.101C107.8 404.629 107.32 405.053 106.68 405.373C106.056 405.693 105.28 405.853 104.352 405.853Z" fill="white"/>
<path d="M111.118 405.565V393.901H113.086V405.565H111.118ZM112.126 391.501C111.742 391.501 111.422 391.389 111.166 391.165C110.926 390.925 110.806 390.605 110.806 390.205C110.806 389.821 110.926 389.509 111.166 389.269C111.422 389.029 111.742 388.909 112.126 388.909C112.51 388.909 112.822 389.029 113.062 389.269C113.318 389.509 113.446 389.821 113.446 390.205C113.446 390.605 113.318 390.925 113.062 391.165C112.822 391.389 112.51 391.501 112.126 391.501Z" fill="white"/>
<path d="M119.833 405.853C119.001 405.853 118.209 405.701 117.457 405.397C116.705 405.077 116.049 404.693 115.489 404.245L116.473 402.925C116.985 403.325 117.513 403.661 118.057 403.933C118.601 404.189 119.217 404.317 119.905 404.317C120.673 404.317 121.249 404.141 121.633 403.789C122.017 403.421 122.209 402.989 122.209 402.493C122.209 402.093 122.073 401.757 121.801 401.485C121.545 401.213 121.209 400.989 120.793 400.813C120.393 400.621 119.977 400.445 119.545 400.285C119.001 400.077 118.465 399.845 117.937 399.589C117.409 399.317 116.977 398.973 116.641 398.557C116.305 398.125 116.137 397.581 116.137 396.925C116.137 395.981 116.489 395.197 117.193 394.573C117.913 393.933 118.905 393.613 120.169 393.613C120.889 393.613 121.561 393.741 122.185 393.997C122.809 394.253 123.345 394.565 123.793 394.933L122.833 396.181C122.433 395.877 122.017 395.629 121.585 395.437C121.153 395.245 120.681 395.149 120.169 395.149C119.433 395.149 118.889 395.317 118.537 395.653C118.201 395.989 118.033 396.381 118.033 396.829C118.033 397.197 118.153 397.501 118.393 397.741C118.633 397.965 118.945 398.165 119.329 398.341C119.713 398.501 120.121 398.669 120.553 398.845C121.113 399.053 121.665 399.293 122.209 399.565C122.753 399.821 123.201 400.173 123.553 400.621C123.921 401.053 124.105 401.637 124.105 402.373C124.105 402.997 123.937 403.573 123.601 404.101C123.281 404.629 122.801 405.053 122.161 405.373C121.537 405.693 120.761 405.853 119.833 405.853Z" fill="white"/>
<path d="M129.803 405.853C128.555 405.853 127.683 405.493 127.187 404.773C126.707 404.053 126.467 403.117 126.467 401.965V395.509H124.739V394.021L126.563 393.901L126.803 390.637H128.459V393.901H131.603V395.509H128.459V401.989C128.459 402.709 128.587 403.269 128.843 403.669C129.115 404.053 129.587 404.245 130.259 404.245C130.467 404.245 130.691 404.213 130.931 404.149C131.171 404.069 131.387 403.997 131.579 403.933L131.963 405.421C131.643 405.533 131.291 405.629 130.907 405.709C130.539 405.805 130.171 405.853 129.803 405.853Z" fill="white"/>
<path d="M138.4 405.853C137.36 405.853 136.416 405.613 135.568 405.133C134.72 404.637 134.048 403.933 133.552 403.021C133.056 402.109 132.808 401.021 132.808 399.757C132.808 398.477 133.056 397.381 133.552 396.469C134.064 395.557 134.72 394.853 135.52 394.357C136.32 393.861 137.16 393.613 138.04 393.613C139.528 393.613 140.672 394.109 141.472 395.101C142.288 396.093 142.696 397.421 142.696 399.085C142.696 399.293 142.688 399.501 142.672 399.709C142.672 399.901 142.656 400.069 142.624 400.213H134.752C134.832 401.445 135.216 402.429 135.904 403.165C136.608 403.901 137.52 404.269 138.64 404.269C139.2 404.269 139.712 404.189 140.176 404.029C140.656 403.853 141.112 403.629 141.544 403.357L142.24 404.653C141.744 404.973 141.176 405.253 140.536 405.493C139.912 405.733 139.2 405.853 138.4 405.853ZM134.728 398.797H140.968C140.968 397.613 140.712 396.717 140.2 396.109C139.704 395.485 139 395.173 138.088 395.173C137.272 395.173 136.536 395.493 135.88 396.133C135.24 396.757 134.856 397.645 134.728 398.797Z" fill="white"/>
<path d="M145.338 405.565V393.901H146.97L147.138 395.581H147.21C147.77 395.021 148.362 394.557 148.986 394.189C149.61 393.805 150.322 393.613 151.122 393.613C152.354 393.613 153.25 394.005 153.81 394.789C154.386 395.557 154.674 396.685 154.674 398.173V405.565H152.706V398.437C152.706 397.349 152.53 396.557 152.178 396.061C151.826 395.565 151.266 395.317 150.498 395.317C149.906 395.317 149.37 395.469 148.89 395.773C148.426 396.077 147.898 396.525 147.306 397.117V405.565H145.338Z" fill="white"/>
<path d="M161.895 405.853C160.647 405.853 159.775 405.493 159.279 404.773C158.799 404.053 158.559 403.117 158.559 401.965V395.509H156.831V394.021L158.655 393.901L158.895 390.637H160.551V393.901H163.695V395.509H160.551V401.989C160.551 402.709 160.679 403.269 160.935 403.669C161.207 404.053 161.679 404.245 162.351 404.245C162.559 404.245 162.783 404.213 163.023 404.149C163.263 404.069 163.479 403.997 163.671 403.933L164.055 405.421C163.735 405.533 163.383 405.629 162.999 405.709C162.631 405.805 162.263 405.853 161.895 405.853Z" fill="white"/>
<path d="M170.657 405.565V393.901H172.625V405.565H170.657ZM171.665 391.501C171.281 391.501 170.961 391.389 170.705 391.165C170.465 390.925 170.345 390.605 170.345 390.205C170.345 389.821 170.465 389.509 170.705 389.269C170.961 389.029 171.281 388.909 171.665 388.909C172.049 388.909 172.361 389.029 172.601 389.269C172.857 389.509 172.985 389.821 172.985 390.205C172.985 390.605 172.857 390.925 172.601 391.165C172.361 391.389 172.049 391.501 171.665 391.501Z" fill="white"/>
<path d="M176.323 405.565V393.901H177.955L178.123 395.581H178.195C178.755 395.021 179.347 394.557 179.971 394.189C180.595 393.805 181.307 393.613 182.107 393.613C183.339 393.613 184.235 394.005 184.795 394.789C185.371 395.557 185.659 396.685 185.659 398.173V405.565H183.691V398.437C183.691 397.349 183.515 396.557 183.163 396.061C182.811 395.565 182.251 395.317 181.483 395.317C180.891 395.317 180.355 395.469 179.875 395.773C179.411 396.077 178.883 396.525 178.291 397.117V405.565H176.323Z" fill="white"/>
<path d="M192.88 405.853C191.632 405.853 190.76 405.493 190.264 404.773C189.784 404.053 189.544 403.117 189.544 401.965V395.509H187.816V394.021L189.64 393.901L189.88 390.637H191.536V393.901H194.68V395.509H191.536V401.989C191.536 402.709 191.664 403.269 191.92 403.669C192.192 404.053 192.664 404.245 193.336 404.245C193.544 404.245 193.768 404.213 194.008 404.149C194.248 404.069 194.464 403.997 194.656 403.933L195.04 405.421C194.72 405.533 194.368 405.629 193.984 405.709C193.616 405.805 193.248 405.853 192.88 405.853Z" fill="white"/>
<path d="M201.478 405.853C200.438 405.853 199.494 405.613 198.646 405.133C197.798 404.637 197.126 403.933 196.63 403.021C196.134 402.109 195.886 401.021 195.886 399.757C195.886 398.477 196.134 397.381 196.63 396.469C197.142 395.557 197.798 394.853 198.598 394.357C199.398 393.861 200.238 393.613 201.118 393.613C202.606 393.613 203.75 394.109 204.55 395.101C205.366 396.093 205.774 397.421 205.774 399.085C205.774 399.293 205.766 399.501 205.75 399.709C205.75 399.901 205.734 400.069 205.702 400.213H197.83C197.91 401.445 198.294 402.429 198.982 403.165C199.686 403.901 200.598 404.269 201.718 404.269C202.278 404.269 202.79 404.189 203.254 404.029C203.734 403.853 204.19 403.629 204.622 403.357L205.318 404.653C204.822 404.973 204.254 405.253 203.614 405.493C202.99 405.733 202.278 405.853 201.478 405.853ZM197.806 398.797H204.046C204.046 397.613 203.79 396.717 203.278 396.109C202.782 395.485 202.078 395.173 201.166 395.173C200.35 395.173 199.614 395.493 198.958 396.133C198.318 396.757 197.934 397.645 197.806 398.797Z" fill="white"/>
<path d="M208.416 405.565V393.901H210.048L210.216 396.013H210.288C210.688 395.277 211.176 394.693 211.752 394.261C212.328 393.829 212.944 393.613 213.6 393.613C214.064 393.613 214.48 393.693 214.848 393.853L214.464 395.581C214.272 395.517 214.096 395.469 213.936 395.437C213.776 395.405 213.576 395.389 213.336 395.389C212.84 395.389 212.32 395.589 211.776 395.989C211.248 396.389 210.784 397.085 210.384 398.077V405.565H208.416Z" fill="white"/>
<path d="M220.99 405.853C219.95 405.853 219.006 405.613 218.158 405.133C217.31 404.637 216.638 403.933 216.142 403.021C215.646 402.109 215.398 401.021 215.398 399.757C215.398 398.477 215.646 397.381 216.142 396.469C216.654 395.557 217.31 394.853 218.11 394.357C218.91 393.861 219.75 393.613 220.63 393.613C222.118 393.613 223.262 394.109 224.062 395.101C224.878 396.093 225.286 397.421 225.286 399.085C225.286 399.293 225.278 399.501 225.262 399.709C225.262 399.901 225.246 400.069 225.214 400.213H217.342C217.422 401.445 217.806 402.429 218.494 403.165C219.198 403.901 220.11 404.269 221.23 404.269C221.79 404.269 222.302 404.189 222.766 404.029C223.246 403.853 223.702 403.629 224.134 403.357L224.83 404.653C224.334 404.973 223.766 405.253 223.126 405.493C222.502 405.733 221.79 405.853 220.99 405.853ZM217.318 398.797H223.558C223.558 397.613 223.302 396.717 222.79 396.109C222.294 395.485 221.59 395.173 220.678 395.173C219.862 395.173 219.126 395.493 218.47 396.133C217.83 396.757 217.446 397.645 217.318 398.797Z" fill="white"/>
<path d="M230.976 405.853C230.144 405.853 229.352 405.701 228.6 405.397C227.848 405.077 227.192 404.693 226.632 404.245L227.616 402.925C228.128 403.325 228.656 403.661 229.2 403.933C229.744 404.189 230.36 404.317 231.048 404.317C231.816 404.317 232.392 404.141 232.776 403.789C233.16 403.421 233.352 402.989 233.352 402.493C233.352 402.093 233.216 401.757 232.944 401.485C232.688 401.213 232.352 400.989 231.936 400.813C231.536 400.621 231.12 400.445 230.688 400.285C230.144 400.077 229.608 399.845 229.08 399.589C228.552 399.317 228.12 398.973 227.784 398.557C227.448 398.125 227.28 397.581 227.28 396.925C227.28 395.981 227.632 395.197 228.336 394.573C229.056 393.933 230.048 393.613 231.312 393.613C232.032 393.613 232.704 393.741 233.328 393.997C233.952 394.253 234.488 394.565 234.936 394.933L233.976 396.181C233.576 395.877 233.16 395.629 232.728 395.437C232.296 395.245 231.824 395.149 231.312 395.149C230.576 395.149 230.032 395.317 229.68 395.653C229.344 395.989 229.176 396.381 229.176 396.829C229.176 397.197 229.296 397.501 229.536 397.741C229.776 397.965 230.088 398.165 230.472 398.341C230.856 398.501 231.264 398.669 231.696 398.845C232.256 399.053 232.808 399.293 233.352 399.565C233.896 399.821 234.344 400.173 234.696 400.621C235.064 401.053 235.248 401.637 235.248 402.373C235.248 402.997 235.08 403.573 234.744 404.101C234.424 404.629 233.944 405.053 233.304 405.373C232.68 405.693 231.904 405.853 230.976 405.853Z" fill="white"/>
<path d="M240.946 405.853C239.698 405.853 238.826 405.493 238.33 404.773C237.85 404.053 237.61 403.117 237.61 401.965V395.509H235.882V394.021L237.706 393.901L237.946 390.637H239.602V393.901H242.746V395.509H239.602V401.989C239.602 402.709 239.73 403.269 239.986 403.669C240.258 404.053 240.73 404.245 241.402 404.245C241.61 404.245 241.834 404.213 242.074 404.149C242.314 404.069 242.53 403.997 242.722 403.933L243.106 405.421C242.786 405.533 242.434 405.629 242.05 405.709C241.682 405.805 241.314 405.853 240.946 405.853Z" fill="white"/>
<path d="M250.044 405.565V395.509H248.46V394.021L250.044 393.901V392.053C250.044 390.869 250.316 389.933 250.86 389.245C251.42 388.541 252.284 388.189 253.452 388.189C253.82 388.189 254.172 388.229 254.508 388.309C254.844 388.373 255.14 388.461 255.396 388.573L254.964 390.085C254.532 389.893 254.092 389.797 253.644 389.797C252.556 389.797 252.012 390.549 252.012 392.053V393.901H254.484V395.509H252.012V405.565H250.044Z" fill="white"/>
<path d="M260.778 405.853C259.834 405.853 258.946 405.613 258.114 405.133C257.298 404.653 256.634 403.957 256.122 403.045C255.626 402.133 255.378 401.037 255.378 399.757C255.378 398.445 255.626 397.333 256.122 396.421C256.634 395.509 257.298 394.813 258.114 394.333C258.946 393.853 259.834 393.613 260.778 393.613C261.738 393.613 262.626 393.853 263.442 394.333C264.258 394.813 264.914 395.509 265.41 396.421C265.922 397.333 266.178 398.445 266.178 399.757C266.178 401.037 265.922 402.133 265.41 403.045C264.914 403.957 264.258 404.653 263.442 405.133C262.626 405.613 261.738 405.853 260.778 405.853ZM260.778 404.221C261.786 404.221 262.594 403.813 263.202 402.997C263.826 402.165 264.138 401.085 264.138 399.757C264.138 398.413 263.826 397.325 263.202 396.493C262.594 395.661 261.786 395.245 260.778 395.245C259.786 395.245 258.978 395.661 258.354 396.493C257.73 397.325 257.418 398.413 257.418 399.757C257.418 401.085 257.73 402.165 258.354 402.997C258.978 403.813 259.786 404.221 260.778 404.221Z" fill="white"/>
<path d="M269.009 405.565V393.901H270.641L270.809 396.013H270.881C271.281 395.277 271.769 394.693 272.345 394.261C272.921 393.829 273.537 393.613 274.193 393.613C274.657 393.613 275.073 393.693 275.441 393.853L275.057 395.581C274.865 395.517 274.689 395.469 274.529 395.437C274.369 395.405 274.169 395.389 273.929 395.389C273.433 395.389 272.913 395.589 272.369 395.989C271.841 396.389 271.377 397.085 270.977 398.077V405.565H269.009Z" fill="white"/>
<path d="M283.742 405.853C283.006 405.853 282.47 405.629 282.134 405.181C281.814 404.717 281.654 404.061 281.654 403.213V388.477H283.622V403.357C283.622 403.661 283.678 403.885 283.79 404.029C283.902 404.157 284.03 404.221 284.174 404.221C284.238 404.221 284.294 404.221 284.342 404.221C284.406 404.205 284.494 404.189 284.606 404.173L284.87 405.661C284.742 405.725 284.59 405.773 284.414 405.805C284.238 405.837 284.014 405.853 283.742 405.853Z" fill="white"/>
<path d="M292.26 405.853C291.22 405.853 290.276 405.613 289.428 405.133C288.58 404.637 287.908 403.933 287.412 403.021C286.916 402.109 286.668 401.021 286.668 399.757C286.668 398.477 286.916 397.381 287.412 396.469C287.924 395.557 288.58 394.853 289.38 394.357C290.18 393.861 291.02 393.613 291.9 393.613C293.388 393.613 294.532 394.109 295.332 395.101C296.148 396.093 296.556 397.421 296.556 399.085C296.556 399.293 296.548 399.501 296.532 399.709C296.532 399.901 296.516 400.069 296.484 400.213H288.612C288.692 401.445 289.076 402.429 289.764 403.165C290.468 403.901 291.38 404.269 292.5 404.269C293.06 404.269 293.572 404.189 294.036 404.029C294.516 403.853 294.972 403.629 295.404 403.357L296.1 404.653C295.604 404.973 295.036 405.253 294.396 405.493C293.772 405.733 293.06 405.853 292.26 405.853ZM288.588 398.797H294.828C294.828 397.613 294.572 396.717 294.06 396.109C293.564 395.485 292.86 395.173 291.948 395.173C291.132 395.173 290.396 395.493 289.74 396.133C289.1 396.757 288.716 397.645 288.588 398.797Z" fill="white"/>
<path d="M299.198 405.565V393.901H300.83L300.998 395.581H301.07C301.63 395.021 302.222 394.557 302.846 394.189C303.47 393.805 304.182 393.613 304.982 393.613C306.214 393.613 307.11 394.005 307.67 394.789C308.246 395.557 308.534 396.685 308.534 398.173V405.565H306.566V398.437C306.566 397.349 306.39 396.557 306.038 396.061C305.686 395.565 305.126 395.317 304.358 395.317C303.766 395.317 303.23 395.469 302.75 395.773C302.286 396.077 301.758 396.525 301.166 397.117V405.565H299.198Z" fill="white"/>
<path d="M316.067 405.853C314.611 405.853 313.443 405.325 312.563 404.269C311.683 403.197 311.243 401.693 311.243 399.757C311.243 398.493 311.475 397.405 311.939 396.493C312.419 395.565 313.043 394.853 313.811 394.357C314.595 393.861 315.427 393.613 316.307 393.613C316.979 393.613 317.563 393.733 318.059 393.973C318.555 394.213 319.059 394.541 319.571 394.957L319.475 392.965V388.477H321.467V405.565H319.835L319.667 404.197H319.595C319.147 404.645 318.619 405.037 318.011 405.373C317.403 405.693 316.755 405.853 316.067 405.853ZM316.499 404.197C317.523 404.197 318.515 403.661 319.475 402.589V396.493C318.979 396.045 318.499 395.733 318.035 395.557C317.587 395.365 317.123 395.269 316.643 395.269C316.019 395.269 315.451 395.461 314.939 395.845C314.443 396.213 314.043 396.733 313.739 397.405C313.435 398.061 313.283 398.837 313.283 399.733C313.283 401.125 313.563 402.221 314.123 403.021C314.683 403.805 315.475 404.197 316.499 404.197Z" fill="white"/>
<path d="M325.155 405.565V393.901H327.123V405.565H325.155ZM326.163 391.501C325.779 391.501 325.459 391.389 325.203 391.165C324.963 390.925 324.843 390.605 324.843 390.205C324.843 389.821 324.963 389.509 325.203 389.269C325.459 389.029 325.779 388.909 326.163 388.909C326.547 388.909 326.859 389.029 327.099 389.269C327.355 389.509 327.483 389.821 327.483 390.205C327.483 390.605 327.355 390.925 327.099 391.165C326.859 391.389 326.547 391.501 326.163 391.501Z" fill="white"/>
<path d="M330.822 405.565V393.901H332.454L332.622 395.581H332.694C333.254 395.021 333.846 394.557 334.47 394.189C335.094 393.805 335.806 393.613 336.606 393.613C337.838 393.613 338.734 394.005 339.294 394.789C339.87 395.557 340.158 396.685 340.158 398.173V405.565H338.19V398.437C338.19 397.349 338.014 396.557 337.662 396.061C337.31 395.565 336.75 395.317 335.982 395.317C335.39 395.317 334.854 395.469 334.374 395.773C333.91 396.077 333.382 396.525 332.79 397.117V405.565H330.822Z" fill="white"/>
<path d="M347.643 410.941C346.219 410.941 345.059 410.669 344.163 410.125C343.267 409.581 342.819 408.805 342.819 407.797C342.819 407.301 342.971 406.821 343.275 406.357C343.579 405.909 343.995 405.509 344.523 405.157V405.061C344.235 404.885 343.987 404.637 343.779 404.317C343.587 403.997 343.491 403.613 343.491 403.165C343.491 402.669 343.627 402.237 343.899 401.869C344.171 401.501 344.459 401.213 344.763 401.005V400.909C344.379 400.589 344.027 400.157 343.707 399.613C343.403 399.069 343.251 398.453 343.251 397.765C343.251 396.917 343.451 396.181 343.851 395.557C344.251 394.933 344.787 394.453 345.459 394.117C346.131 393.781 346.859 393.613 347.643 393.613C347.963 393.613 348.267 393.645 348.555 393.709C348.843 393.757 349.091 393.821 349.299 393.901H353.355V395.413H350.955C351.227 395.669 351.451 396.013 351.627 396.445C351.819 396.861 351.915 397.317 351.915 397.813C351.915 398.645 351.723 399.365 351.339 399.973C350.955 400.581 350.443 401.053 349.803 401.389C349.163 401.709 348.443 401.869 347.643 401.869C347.019 401.869 346.435 401.733 345.891 401.461C345.683 401.637 345.507 401.837 345.363 402.061C345.219 402.269 345.147 402.533 345.147 402.853C345.147 403.221 345.291 403.525 345.579 403.765C345.883 404.005 346.427 404.125 347.211 404.125H349.467C350.827 404.125 351.843 404.349 352.515 404.797C353.203 405.229 353.547 405.933 353.547 406.909C353.547 407.629 353.307 408.293 352.827 408.901C352.347 409.509 351.667 409.997 350.787 410.365C349.907 410.749 348.859 410.941 347.643 410.941ZM347.643 400.549C348.315 400.549 348.891 400.301 349.371 399.805C349.867 399.293 350.115 398.613 350.115 397.765C350.115 396.917 349.875 396.253 349.395 395.773C348.915 395.293 348.331 395.053 347.643 395.053C346.955 395.053 346.371 395.293 345.891 395.773C345.411 396.253 345.171 396.917 345.171 397.765C345.171 398.613 345.411 399.293 345.891 399.805C346.387 400.301 346.971 400.549 347.643 400.549ZM347.931 409.573C349.051 409.573 349.947 409.325 350.619 408.829C351.291 408.349 351.627 407.805 351.627 407.197C351.627 406.653 351.419 406.277 351.003 406.069C350.603 405.861 350.027 405.757 349.275 405.757H347.259C347.035 405.757 346.787 405.741 346.515 405.709C346.259 405.677 346.003 405.629 345.747 405.565C345.331 405.869 345.027 406.189 344.835 406.525C344.643 406.861 344.547 407.197 344.547 407.533C344.547 408.157 344.843 408.653 345.435 409.021C346.043 409.389 346.875 409.573 347.931 409.573Z" fill="white"/>
<path d="M62.372 446.581C62.116 446.581 61.868 446.557 61.628 446.509C61.404 446.461 61.196 446.405 61.004 446.341L61.388 444.781C61.516 444.813 61.66 444.845 61.82 444.877C61.98 444.925 62.132 444.949 62.276 444.949C62.932 444.949 63.476 444.709 63.908 444.229C64.34 443.765 64.676 443.173 64.916 442.453L65.18 441.589L60.5 429.901H62.54L64.916 436.357C65.092 436.853 65.276 437.389 65.468 437.965C65.676 438.541 65.868 439.101 66.044 439.645H66.14C66.316 439.117 66.484 438.565 66.644 437.989C66.804 437.413 66.964 436.869 67.124 436.357L69.212 429.901H71.132L66.74 442.525C66.468 443.293 66.14 443.981 65.756 444.589C65.388 445.197 64.924 445.677 64.364 446.029C63.82 446.397 63.156 446.581 62.372 446.581Z" fill="white"/>
<path d="M77.5854 441.853C76.6414 441.853 75.7534 441.613 74.9214 441.133C74.1054 440.653 73.4414 439.957 72.9294 439.045C72.4334 438.133 72.1854 437.037 72.1854 435.757C72.1854 434.445 72.4334 433.333 72.9294 432.421C73.4414 431.509 74.1054 430.813 74.9214 430.333C75.7534 429.853 76.6414 429.613 77.5854 429.613C78.5454 429.613 79.4334 429.853 80.2494 430.333C81.0654 430.813 81.7214 431.509 82.2174 432.421C82.7294 433.333 82.9854 434.445 82.9854 435.757C82.9854 437.037 82.7294 438.133 82.2174 439.045C81.7214 439.957 81.0654 440.653 80.2494 441.133C79.4334 441.613 78.5454 441.853 77.5854 441.853ZM77.5854 440.221C78.5934 440.221 79.4014 439.813 80.0094 438.997C80.6334 438.165 80.9454 437.085 80.9454 435.757C80.9454 434.413 80.6334 433.325 80.0094 432.493C79.4014 431.661 78.5934 431.245 77.5854 431.245C76.5934 431.245 75.7854 431.661 75.1614 432.493C74.5374 433.325 74.2254 434.413 74.2254 435.757C74.2254 437.085 74.5374 438.165 75.1614 438.997C75.7854 439.813 76.5934 440.221 77.5854 440.221Z" fill="white"/>
<path d="M89.2252 441.853C87.9932 441.853 87.0892 441.469 86.5132 440.701C85.9372 439.917 85.6492 438.781 85.6492 437.293V429.901H87.6412V437.029C87.6412 438.117 87.8092 438.909 88.1452 439.405C88.4972 439.901 89.0572 440.149 89.8252 440.149C90.4332 440.149 90.9692 439.997 91.4332 439.693C91.9132 439.373 92.4252 438.869 92.9692 438.181V429.901H94.9372V441.565H93.3052L93.1372 439.741H93.0652C92.5212 440.381 91.9452 440.893 91.3372 441.277C90.7292 441.661 90.0252 441.853 89.2252 441.853Z" fill="white"/>
<path d="M98.6319 441.565V429.901H100.264L100.432 432.013H100.504C100.904 431.277 101.392 430.693 101.968 430.261C102.544 429.829 103.16 429.613 103.816 429.613C104.28 429.613 104.696 429.693 105.064 429.853L104.68 431.581C104.488 431.517 104.312 431.469 104.152 431.437C103.992 431.405 103.792 431.389 103.552 431.389C103.056 431.389 102.536 431.589 101.992 431.989C101.464 432.389 101 433.085 100.6 434.077V441.565H98.6319Z" fill="white"/>
<path d="M114.325 441.853C113.493 441.853 112.701 441.701 111.949 441.397C111.197 441.077 110.541 440.693 109.981 440.245L110.965 438.925C111.477 439.325 112.005 439.661 112.549 439.933C113.093 440.189 113.709 440.317 114.397 440.317C115.165 440.317 115.741 440.141 116.125 439.789C116.509 439.421 116.701 438.989 116.701 438.493C116.701 438.093 116.565 437.757 116.293 437.485C116.037 437.213 115.701 436.989 115.285 436.813C114.885 436.621 114.469 436.445 114.037 436.285C113.493 436.077 112.957 435.845 112.429 435.589C111.901 435.317 111.469 434.973 111.133 434.557C110.797 434.125 110.629 433.581 110.629 432.925C110.629 431.981 110.981 431.197 111.685 430.573C112.405 429.933 113.397 429.613 114.661 429.613C115.381 429.613 116.053 429.741 116.677 429.997C117.301 430.253 117.837 430.565 118.285 430.933L117.325 432.181C116.925 431.877 116.509 431.629 116.077 431.437C115.645 431.245 115.173 431.149 114.661 431.149C113.925 431.149 113.381 431.317 113.029 431.653C112.693 431.989 112.525 432.381 112.525 432.829C112.525 433.197 112.645 433.501 112.885 433.741C113.125 433.965 113.437 434.165 113.821 434.341C114.205 434.501 114.613 434.669 115.045 434.845C115.605 435.053 116.157 435.293 116.701 435.565C117.245 435.821 117.693 436.173 118.045 436.621C118.413 437.053 118.597 437.637 118.597 438.373C118.597 438.997 118.429 439.573 118.093 440.101C117.773 440.629 117.293 441.053 116.653 441.373C116.029 441.693 115.253 441.853 114.325 441.853Z" fill="white"/>
<path d="M124.295 441.853C123.047 441.853 122.175 441.493 121.679 440.773C121.199 440.053 120.959 439.117 120.959 437.965V431.509H119.231V430.021L121.055 429.901L121.295 426.637H122.951V429.901H126.095V431.509H122.951V437.989C122.951 438.709 123.079 439.269 123.335 439.669C123.607 440.053 124.079 440.245 124.751 440.245C124.959 440.245 125.183 440.213 125.423 440.149C125.663 440.069 125.879 439.997 126.071 439.933L126.455 441.421C126.135 441.533 125.783 441.629 125.399 441.709C125.031 441.805 124.663 441.853 124.295 441.853Z" fill="white"/>
<path d="M130.665 441.853C129.689 441.853 128.873 441.565 128.217 440.989C127.577 440.397 127.257 439.581 127.257 438.541C127.257 437.261 127.825 436.285 128.961 435.613C130.113 434.925 131.929 434.445 134.409 434.173C134.409 433.677 134.337 433.205 134.193 432.757C134.065 432.309 133.825 431.949 133.473 431.677C133.137 431.389 132.649 431.245 132.009 431.245C131.337 431.245 130.705 431.373 130.113 431.629C129.521 431.885 128.993 432.173 128.529 432.493L127.761 431.125C128.305 430.773 128.969 430.437 129.753 430.117C130.553 429.781 131.417 429.613 132.345 429.613C133.769 429.613 134.801 430.053 135.441 430.933C136.081 431.797 136.401 432.957 136.401 434.413V441.565H134.769L134.601 440.173H134.529C133.985 440.621 133.385 441.013 132.729 441.349C132.089 441.685 131.401 441.853 130.665 441.853ZM131.241 440.269C131.801 440.269 132.329 440.133 132.825 439.861C133.321 439.589 133.849 439.205 134.409 438.709V435.469C132.473 435.709 131.113 436.069 130.329 436.549C129.561 437.029 129.177 437.645 129.177 438.397C129.177 439.053 129.377 439.533 129.777 439.837C130.177 440.125 130.665 440.269 131.241 440.269Z" fill="white"/>
<path d="M144.99 441.853C144.446 441.853 143.878 441.725 143.286 441.469C142.71 441.197 142.166 440.829 141.654 440.365H141.582L141.414 441.565H139.83V424.477H141.798V429.133L141.75 431.245C142.278 430.781 142.854 430.397 143.478 430.093C144.118 429.773 144.758 429.613 145.398 429.613C146.918 429.613 148.07 430.149 148.854 431.221C149.638 432.293 150.03 433.733 150.03 435.541C150.03 436.869 149.79 438.005 149.31 438.949C148.846 439.893 148.23 440.613 147.462 441.109C146.71 441.605 145.886 441.853 144.99 441.853ZM144.654 440.197C145.614 440.197 146.406 439.789 147.03 438.973C147.67 438.141 147.99 437.005 147.99 435.565C147.99 434.285 147.75 433.253 147.27 432.469C146.806 431.669 146.022 431.269 144.918 431.269C144.422 431.269 143.918 431.405 143.406 431.677C142.894 431.949 142.358 432.341 141.798 432.853V438.973C142.31 439.421 142.814 439.741 143.31 439.933C143.822 440.109 144.27 440.197 144.654 440.197Z" fill="white"/>
<path d="M154.944 441.853C154.208 441.853 153.672 441.629 153.336 441.181C153.016 440.717 152.856 440.061 152.856 439.213V424.477H154.824V439.357C154.824 439.661 154.88 439.885 154.992 440.029C155.104 440.157 155.232 440.221 155.376 440.221C155.44 440.221 155.496 440.221 155.544 440.221C155.608 440.205 155.696 440.189 155.808 440.173L156.072 441.661C155.944 441.725 155.792 441.773 155.616 441.805C155.44 441.837 155.216 441.853 154.944 441.853Z" fill="white"/>
<path d="M163.461 441.853C162.421 441.853 161.477 441.613 160.629 441.133C159.781 440.637 159.109 439.933 158.613 439.021C158.117 438.109 157.869 437.021 157.869 435.757C157.869 434.477 158.117 433.381 158.613 432.469C159.125 431.557 159.781 430.853 160.581 430.357C161.381 429.861 162.221 429.613 163.101 429.613C164.589 429.613 165.733 430.109 166.533 431.101C167.349 432.093 167.757 433.421 167.757 435.085C167.757 435.293 167.749 435.501 167.733 435.709C167.733 435.901 167.717 436.069 167.685 436.213H159.813C159.893 437.445 160.277 438.429 160.965 439.165C161.669 439.901 162.581 440.269 163.701 440.269C164.261 440.269 164.773 440.189 165.237 440.029C165.717 439.853 166.173 439.629 166.605 439.357L167.301 440.653C166.805 440.973 166.237 441.253 165.597 441.493C164.973 441.733 164.261 441.853 163.461 441.853ZM159.789 434.797H166.029C166.029 433.613 165.773 432.717 165.261 432.109C164.765 431.485 164.061 431.173 163.149 431.173C162.333 431.173 161.597 431.493 160.941 432.133C160.301 432.757 159.917 433.645 159.789 434.797Z" fill="white"/>
<path d="M175.007 441.853C173.983 441.853 173.055 441.613 172.223 441.133C171.391 440.653 170.735 439.957 170.255 439.045C169.775 438.133 169.535 437.037 169.535 435.757C169.535 434.445 169.791 433.333 170.303 432.421C170.831 431.509 171.519 430.813 172.367 430.333C173.231 429.853 174.159 429.613 175.151 429.613C175.919 429.613 176.575 429.749 177.119 430.021C177.679 430.293 178.159 430.613 178.559 430.981L177.551 432.277C177.215 431.973 176.855 431.725 176.471 431.533C176.103 431.341 175.687 431.245 175.223 431.245C174.519 431.245 173.887 431.437 173.327 431.821C172.783 432.189 172.351 432.717 172.031 433.405C171.727 434.077 171.575 434.861 171.575 435.757C171.575 437.085 171.903 438.165 172.559 438.997C173.231 439.813 174.103 440.221 175.175 440.221C175.719 440.221 176.223 440.109 176.687 439.885C177.151 439.645 177.559 439.365 177.911 439.045L178.775 440.365C178.247 440.829 177.663 441.197 177.023 441.469C176.383 441.725 175.711 441.853 175.007 441.853Z" fill="white"/>
<path d="M185.125 441.853C184.181 441.853 183.293 441.613 182.461 441.133C181.645 440.653 180.981 439.957 180.469 439.045C179.973 438.133 179.725 437.037 179.725 435.757C179.725 434.445 179.973 433.333 180.469 432.421C180.981 431.509 181.645 430.813 182.461 430.333C183.293 429.853 184.181 429.613 185.125 429.613C186.085 429.613 186.973 429.853 187.789 430.333C188.605 430.813 189.261 431.509 189.757 432.421C190.269 433.333 190.525 434.445 190.525 435.757C190.525 437.037 190.269 438.133 189.757 439.045C189.261 439.957 188.605 440.653 187.789 441.133C186.973 441.613 186.085 441.853 185.125 441.853ZM185.125 440.221C186.133 440.221 186.941 439.813 187.549 438.997C188.173 438.165 188.485 437.085 188.485 435.757C188.485 434.413 188.173 433.325 187.549 432.493C186.941 431.661 186.133 431.245 185.125 431.245C184.133 431.245 183.325 431.661 182.701 432.493C182.077 433.325 181.765 434.413 181.765 435.757C181.765 437.085 182.077 438.165 182.701 438.997C183.325 439.813 184.133 440.221 185.125 440.221Z" fill="white"/>
<path d="M193.357 441.565V429.901H195.325V441.565H193.357ZM194.365 427.501C193.981 427.501 193.661 427.389 193.405 427.165C193.165 426.925 193.045 426.605 193.045 426.205C193.045 425.821 193.165 425.509 193.405 425.269C193.661 425.029 193.981 424.909 194.365 424.909C194.749 424.909 195.061 425.029 195.301 425.269C195.557 425.509 195.685 425.821 195.685 426.205C195.685 426.605 195.557 426.925 195.301 427.165C195.061 427.389 194.749 427.501 194.365 427.501Z" fill="white"/>
<path d="M199.023 441.565V429.901H200.655L200.823 431.581H200.895C201.455 431.021 202.047 430.557 202.671 430.189C203.295 429.805 204.007 429.613 204.807 429.613C206.039 429.613 206.935 430.005 207.495 430.789C208.071 431.557 208.359 432.685 208.359 434.173V441.565H206.391V434.437C206.391 433.349 206.215 432.557 205.863 432.061C205.511 431.565 204.951 431.317 204.183 431.317C203.591 431.317 203.055 431.469 202.575 431.773C202.111 432.077 201.583 432.525 200.991 433.117V441.565H199.023Z" fill="white"/>
<path d="M214.956 441.853C214.124 441.853 213.332 441.701 212.58 441.397C211.828 441.077 211.172 440.693 210.612 440.245L211.596 438.925C212.108 439.325 212.636 439.661 213.18 439.933C213.724 440.189 214.34 440.317 215.028 440.317C215.796 440.317 216.372 440.141 216.756 439.789C217.14 439.421 217.332 438.989 217.332 438.493C217.332 438.093 217.196 437.757 216.924 437.485C216.668 437.213 216.332 436.989 215.916 436.813C215.516 436.621 215.1 436.445 214.668 436.285C214.124 436.077 213.588 435.845 213.06 435.589C212.532 435.317 212.1 434.973 211.764 434.557C211.428 434.125 211.26 433.581 211.26 432.925C211.26 431.981 211.612 431.197 212.316 430.573C213.036 429.933 214.028 429.613 215.292 429.613C216.012 429.613 216.684 429.741 217.308 429.997C217.932 430.253 218.468 430.565 218.916 430.933L217.956 432.181C217.556 431.877 217.14 431.629 216.708 431.437C216.276 431.245 215.804 431.149 215.292 431.149C214.556 431.149 214.012 431.317 213.66 431.653C213.324 431.989 213.156 432.381 213.156 432.829C213.156 433.197 213.276 433.501 213.516 433.741C213.756 433.965 214.068 434.165 214.452 434.341C214.836 434.501 215.244 434.669 215.676 434.845C216.236 435.053 216.788 435.293 217.332 435.565C217.876 435.821 218.324 436.173 218.676 436.621C219.044 437.053 219.228 437.637 219.228 438.373C219.228 438.997 219.06 439.573 218.724 440.101C218.404 440.629 217.924 441.053 217.284 441.373C216.66 441.693 215.884 441.853 214.956 441.853Z" fill="white"/>
<rect x="1" y="0.638672" width="412.047" height="495.442" rx="23.5" stroke="#F3FBFD"/>
</svg>
