<svg width="240" height="250" viewBox="0 0 240 250" fill="none" xmlns="http://www.w3.org/2000/svg">
<path d="M9.42188 157.78L222.932 223.42" stroke="#F3FBFD" stroke-width="1.5"/>
<path d="M104.922 172.037V140.506" stroke="#F3FBFD" stroke-width="1.40889" stroke-miterlimit="10"/>
<path d="M78.7969 181.226V156.902" stroke="#F3FBFD" stroke-width="1.40889" stroke-miterlimit="10"/>
<path d="M53.5723 171.317L53.5723 130.777" stroke="#F3FBFD" stroke-width="1.40889" stroke-miterlimit="10"/>
<path d="M221.205 183.826C219.297 183.962 217.627 182.819 216.869 181.119L216.869 181.541C216.884 184.14 215.012 186.415 212.574 186.507C210.05 186.599 207.968 184.46 207.953 181.791L207.953 182.949C207.973 185.548 206.101 187.822 203.658 187.914C201.134 188.006 199.052 185.868 199.037 183.198L199.123 200.877C199.133 203.476 197.266 205.75 194.823 205.842C192.299 205.934 190.217 203.795 190.202 201.126L190.07 178.612C187.907 181.46 185.25 183.864 182.248 185.657C181.627 186.025 180.93 186.225 180.222 186.23C178.339 186.241 176.629 184.904 176.131 182.868C175.642 180.865 176.619 178.807 178.309 177.778C185.179 173.582 188.161 164.713 190.909 157.284C192.233 153.711 195.861 147.354 204.981 147.305L210.35 147.278C222.554 147.213 225.246 161.324 225.256 164.139L225.256 165.238L225.327 174.838L225.348 178.894C225.358 181.428 223.572 183.664 221.195 183.837L221.205 183.826Z" fill="#141414" stroke="#F3FBFD" stroke-width="1.5" stroke-miterlimit="10"/>
<path d="M190.965 132.43L190.965 76.5747" stroke="#8366F4" stroke-width="1.40889" stroke-miterlimit="10"/>
<path d="M209.883 132.429V108.105" stroke="#8366F4" stroke-width="1.40889" stroke-miterlimit="10"/>
<path d="M228.803 132.429V100.898" stroke="#8366F4" stroke-width="1.40889" stroke-miterlimit="10"/>
<path d="M121.18 112.04C114.826 123.11 92.1712 122.036 70.5812 109.646C48.9845 97.2568 36.6324 78.2362 42.9803 67.1726L48.0679 58.3009L126.274 103.167C126.274 103.167 127.534 100.969 121.186 112.039L121.18 112.04Z" fill="#3418D8" stroke="#3418D8" stroke-width="1.39059" stroke-miterlimit="10"/>
<path d="M48.2518 57.9746C54.6017 46.9058 77.2561 47.9761 98.8517 60.3651C120.447 72.754 132.806 91.7703 126.457 102.839C120.107 113.908 97.4522 112.838 75.8566 100.449C54.2609 88.0597 41.9018 69.0434 48.2518 57.9746Z" fill="#141414" stroke="#F3FBFD" stroke-width="1.5" stroke-miterlimit="10"/>
<path d="M24.713 82.0482C20.7979 78.051 20.861 71.632 24.8614 67.7168" stroke="#3418D8" stroke-width="1.39059" stroke-miterlimit="10"/>
<path d="M90.714 20.247C79.6985 27.7427 82.6223 51.2349 97.2385 72.7173C111.855 94.2066 132.635 105.546 143.644 98.0572L152.472 92.0549L99.5417 14.2377C99.5417 14.2377 101.729 12.7513 90.7139 20.24L90.714 20.247Z" fill="#11D58E" stroke="#11D58E" stroke-miterlimit="10"/>
<path d="M152.794 91.8379C163.807 84.3467 160.888 60.8542 146.272 39.366C131.656 17.8777 110.88 6.5308 99.866 14.022C88.8522 21.5131 91.7721 45.0056 106.388 66.4939C121.003 87.9822 141.78 99.3291 152.794 91.8379Z" fill="#141414" stroke="#F3FBFD" stroke-width="1.5" stroke-miterlimit="10"/>
<path d="M81.8381 180.877L81.8382 180.877L81.8382 180.876L82.3283 179.929L82.9225 180.569L124.477 193.35L125.35 193.618L124.916 194.422L124.256 194.067C124.916 194.422 124.916 194.423 124.916 194.423L124.915 194.425L124.913 194.429L124.905 194.444L124.874 194.5C124.861 194.524 124.845 194.552 124.826 194.586C124.805 194.622 124.781 194.664 124.754 194.712C124.649 194.895 124.493 195.161 124.287 195.498C123.874 196.171 123.26 197.128 122.447 198.269C120.823 200.55 118.401 203.577 115.209 206.56C108.831 212.522 99.3214 218.359 86.9395 217.615C83.5113 217.409 80.1899 215.67 77.1745 213.278C74.151 210.879 71.3686 207.771 69.0096 204.712C66.6478 201.65 64.6938 198.616 63.331 196.349C62.6491 195.215 62.1142 194.271 61.7492 193.61C61.5666 193.279 61.4265 193.019 61.3316 192.841C61.2842 192.751 61.2481 192.683 61.2237 192.636L61.1958 192.583L61.1885 192.569L61.1866 192.565L61.186 192.564C61.1858 192.563 61.1857 192.563 61.8525 192.22L61.1857 192.563L60.3891 191.016L62.0607 191.499L62.0607 191.499L62.061 191.499L62.0612 191.5L62.0647 191.5L62.0812 191.505C62.0964 191.509 62.12 191.516 62.1515 191.525C62.2145 191.542 62.3091 191.567 62.432 191.598C62.6778 191.659 63.0361 191.744 63.4798 191.835C64.3688 192.016 65.5924 192.218 66.9357 192.305C69.6819 192.483 72.6805 192.161 74.4826 190.489C76.7663 188.37 78.6081 185.965 79.8819 184.082C80.5176 183.142 81.009 182.336 81.3405 181.767C81.5063 181.483 81.6319 181.258 81.7155 181.105C81.7573 181.029 81.7885 180.97 81.8091 180.932L81.8317 180.889L81.837 180.879L81.838 180.877L81.8381 180.877Z" fill="#303D48" stroke="#F3FBFD" stroke-width="1.5"/>
<path d="M102.716 214.755C101.226 215.344 88.9898 219.752 78.7883 209.86C73.9133 205.133 73.0849 196.674 74.7151 192.096L99.6736 198.209L66.6424 160.556L24.875 172.528L43.1411 178.666C44.5295 181.464 48.6509 194.857 56.5096 202.271C65.2234 210.49 72.9871 215.068 82.4529 217.328C90.8396 219.329 101.355 215.377 102.716 214.755Z" fill="#8366F4" stroke="#F3FBFD" stroke-width="1.5" stroke-miterlimit="10"/>
</svg>
