<svg width="422" height="600" viewBox="0 0 422 600" fill="none" xmlns="http://www.w3.org/2000/svg">
<circle cx="109.978" cy="271.568" r="23.5" fill="#3418D8"/>
<path d="M109.736 261.303H99.4707V271.568C105.139 271.568 109.735 276.164 109.735 281.832L120 281.833V271.568C114.332 271.568 109.736 266.972 109.736 261.303C109.736 261.303 109.736 261.303 109.736 261.303Z" fill="#F3FBFD"/>
<path d="M144.238 279.308C143.144 279.308 142.164 279.041 141.298 278.508C140.444 277.961 139.764 277.181 139.258 276.168C138.764 275.155 138.518 273.935 138.518 272.508C138.518 271.095 138.771 269.881 139.278 268.868C139.784 267.855 140.478 267.075 141.358 266.528C142.238 265.981 143.231 265.708 144.338 265.708C145.138 265.708 145.844 265.875 146.458 266.208C147.071 266.528 147.564 266.901 147.938 267.328L147.038 268.408C146.691 268.035 146.298 267.735 145.858 267.508C145.418 267.281 144.918 267.168 144.358 267.168C143.531 267.168 142.804 267.388 142.178 267.828C141.564 268.255 141.084 268.861 140.738 269.648C140.404 270.435 140.238 271.375 140.238 272.468C140.238 273.561 140.404 274.515 140.738 275.328C141.071 276.128 141.538 276.748 142.138 277.188C142.751 277.628 143.471 277.848 144.298 277.848C144.924 277.848 145.484 277.715 145.978 277.448C146.471 277.181 146.924 276.821 147.338 276.368L148.258 277.408C147.738 278.008 147.151 278.475 146.498 278.808C145.844 279.141 145.091 279.308 144.238 279.308ZM150.703 279.068V265.948H152.363V271.448H158.463V265.948H160.143V279.068H158.463V272.888H152.363V279.068H150.703ZM166.01 271.728L165.39 273.728H169.33L168.71 271.728C168.47 270.995 168.244 270.268 168.03 269.548C167.817 268.815 167.604 268.068 167.39 267.308H167.31C167.11 268.068 166.904 268.815 166.69 269.548C166.477 270.268 166.25 270.995 166.01 271.728ZM162.01 279.068L166.45 265.948H168.33L172.77 279.068H170.99L169.75 275.068H164.97L163.71 279.068H162.01ZM174.629 279.068V265.948H176.349L181.089 274.188L182.509 276.908H182.589C182.549 276.241 182.502 275.555 182.449 274.848C182.409 274.128 182.389 273.421 182.389 272.728V265.948H183.969V279.068H182.249L177.489 270.808L176.069 268.108H175.989C176.042 268.761 176.089 269.435 176.129 270.128C176.182 270.821 176.209 271.515 176.209 272.208V279.068H174.629ZM192.738 279.308C191.592 279.308 190.572 279.041 189.678 278.508C188.785 277.961 188.085 277.181 187.578 276.168C187.072 275.155 186.818 273.935 186.818 272.508C186.818 271.095 187.078 269.881 187.598 268.868C188.118 267.855 188.832 267.075 189.738 266.528C190.645 265.981 191.678 265.708 192.838 265.708C193.745 265.708 194.505 265.881 195.118 266.228C195.745 266.561 196.245 266.928 196.618 267.328L195.698 268.408C195.365 268.061 194.978 267.768 194.538 267.528C194.098 267.288 193.545 267.168 192.878 267.168C191.998 267.168 191.232 267.388 190.578 267.828C189.925 268.255 189.418 268.861 189.058 269.648C188.712 270.435 188.538 271.375 188.538 272.468C188.538 274.121 188.912 275.435 189.658 276.408C190.418 277.368 191.498 277.848 192.898 277.848C193.365 277.848 193.812 277.781 194.238 277.648C194.665 277.501 195.005 277.308 195.258 277.068V273.648H192.478V272.268H196.778V277.788C196.365 278.228 195.805 278.595 195.098 278.888C194.405 279.168 193.618 279.308 192.738 279.308ZM199.922 279.068V265.948H207.482V267.348H201.582V271.468H206.562V272.888H201.582V277.648H207.682V279.068H199.922Z" fill="white"/>
<path opacity="0.5" d="M311.022 277.784C310.302 277.784 309.66 277.652 309.096 277.388C308.532 277.112 308.082 276.734 307.746 276.254C307.422 275.774 307.26 275.234 307.26 274.634C307.26 274.13 307.362 273.686 307.566 273.302C307.782 272.906 308.052 272.564 308.376 272.276C308.712 271.976 309.06 271.73 309.42 271.538V271.466C309 271.166 308.628 270.8 308.304 270.368C307.98 269.936 307.818 269.42 307.818 268.82C307.818 268.232 307.962 267.716 308.25 267.272C308.538 266.828 308.928 266.486 309.42 266.246C309.912 265.994 310.464 265.868 311.076 265.868C312.072 265.868 312.858 266.156 313.434 266.732C314.022 267.308 314.316 268.04 314.316 268.928C314.316 269.324 314.232 269.702 314.064 270.062C313.896 270.41 313.692 270.728 313.452 271.016C313.212 271.292 312.972 271.52 312.732 271.7V271.772C313.08 271.964 313.404 272.192 313.704 272.456C314.004 272.72 314.25 273.038 314.442 273.41C314.634 273.77 314.73 274.208 314.73 274.724C314.73 275.288 314.574 275.804 314.262 276.272C313.962 276.74 313.53 277.112 312.966 277.388C312.414 277.652 311.766 277.784 311.022 277.784ZM311.832 271.304C312.216 270.956 312.51 270.59 312.714 270.206C312.93 269.822 313.038 269.42 313.038 269C313.038 268.436 312.864 267.956 312.516 267.56C312.168 267.164 311.676 266.966 311.04 266.966C310.512 266.966 310.068 267.134 309.708 267.47C309.36 267.806 309.186 268.256 309.186 268.82C309.186 269.276 309.306 269.654 309.546 269.954C309.798 270.254 310.128 270.512 310.536 270.728C310.944 270.932 311.376 271.124 311.832 271.304ZM311.058 276.686C311.73 276.686 312.27 276.5 312.678 276.128C313.098 275.744 313.308 275.258 313.308 274.67C313.308 274.178 313.164 273.776 312.876 273.464C312.588 273.152 312.204 272.882 311.724 272.654C311.256 272.426 310.746 272.204 310.194 271.988C309.738 272.288 309.354 272.648 309.042 273.068C308.742 273.488 308.592 273.962 308.592 274.49C308.592 275.126 308.826 275.654 309.294 276.074C309.774 276.482 310.362 276.686 311.058 276.686ZM316.208 273.626V272.492H320.348V273.626H316.208ZM322.482 277.568V276.344H325.11V267.884H323.022V266.93C323.55 266.834 324.006 266.72 324.39 266.588C324.786 266.444 325.14 266.276 325.452 266.084H326.586V276.344H328.962V277.568H322.482ZM334.705 271.664C334.333 271.664 333.931 271.784 333.499 272.024C333.067 272.264 332.671 272.648 332.311 273.176C332.407 274.292 332.665 275.144 333.085 275.732C333.517 276.32 334.099 276.614 334.831 276.614C335.395 276.614 335.869 276.386 336.253 275.93C336.637 275.462 336.829 274.85 336.829 274.094C336.829 273.35 336.649 272.762 336.289 272.33C335.941 271.886 335.413 271.664 334.705 271.664ZM334.831 277.784C334.087 277.784 333.415 277.58 332.815 277.172C332.215 276.764 331.741 276.152 331.393 275.336C331.045 274.508 330.871 273.482 330.871 272.258C330.871 270.722 331.075 269.486 331.483 268.55C331.903 267.614 332.443 266.936 333.103 266.516C333.775 266.084 334.489 265.868 335.245 265.868C335.869 265.868 336.403 265.988 336.847 266.228C337.303 266.456 337.693 266.744 338.017 267.092L337.189 268.01C336.961 267.734 336.679 267.518 336.343 267.362C336.007 267.194 335.659 267.11 335.299 267.11C334.759 267.11 334.267 267.266 333.823 267.578C333.379 267.878 333.013 268.388 332.725 269.108C332.449 269.816 332.299 270.776 332.275 271.988C332.635 271.544 333.055 271.196 333.535 270.944C334.015 270.68 334.489 270.548 334.957 270.548C335.953 270.548 336.745 270.848 337.333 271.448C337.933 272.036 338.233 272.918 338.233 274.094C338.233 274.826 338.077 275.468 337.765 276.02C337.453 276.572 337.039 277.004 336.523 277.316C336.019 277.628 335.455 277.784 334.831 277.784ZM342.266 272.996C341.462 272.996 340.814 272.672 340.322 272.024C339.83 271.376 339.584 270.452 339.584 269.252C339.584 268.076 339.83 267.164 340.322 266.516C340.814 265.868 341.462 265.544 342.266 265.544C343.07 265.544 343.718 265.868 344.21 266.516C344.702 267.164 344.948 268.076 344.948 269.252C344.948 270.452 344.702 271.376 344.21 272.024C343.718 272.672 343.07 272.996 342.266 272.996ZM342.266 272.078C342.722 272.078 343.094 271.844 343.382 271.376C343.67 270.896 343.814 270.188 343.814 269.252C343.814 268.316 343.67 267.62 343.382 267.164C343.094 266.696 342.722 266.462 342.266 266.462C341.798 266.462 341.42 266.696 341.132 267.164C340.844 267.62 340.7 268.316 340.7 269.252C340.7 270.188 340.844 270.896 341.132 271.376C341.42 271.844 341.798 272.078 342.266 272.078ZM342.608 277.784L349.124 265.544H350.132L343.616 277.784H342.608ZM350.492 277.784C349.688 277.784 349.04 277.46 348.548 276.812C348.056 276.164 347.81 275.24 347.81 274.04C347.81 272.864 348.056 271.952 348.548 271.304C349.04 270.656 349.688 270.332 350.492 270.332C351.296 270.332 351.944 270.656 352.436 271.304C352.928 271.952 353.174 272.864 353.174 274.04C353.174 275.24 352.928 276.164 352.436 276.812C351.944 277.46 351.296 277.784 350.492 277.784ZM350.492 276.866C350.948 276.866 351.32 276.632 351.608 276.164C351.896 275.684 352.04 274.976 352.04 274.04C352.04 273.104 351.896 272.408 351.608 271.952C351.32 271.484 350.948 271.25 350.492 271.25C350.024 271.25 349.646 271.484 349.358 271.952C349.07 272.408 348.926 273.104 348.926 274.04C348.926 274.976 349.07 275.684 349.358 276.164C349.646 276.632 350.024 276.866 350.492 276.866Z" fill="#F3FBFD"/>
<rect x="66.5" y="234.916" width="308" height="73.3035" rx="13.1517" stroke="#F3FBFD"/>
<path d="M71.44 347.959C70.52 347.959 69.6667 347.786 68.88 347.439C68.0933 347.079 67.4133 346.606 66.84 346.019L67.84 344.859C68.3067 345.353 68.8533 345.753 69.48 346.059C70.12 346.353 70.78 346.499 71.46 346.499C72.3267 346.499 73 346.306 73.48 345.919C73.96 345.519 74.2 344.999 74.2 344.359C74.2 343.906 74.1 343.546 73.9 343.279C73.7133 343.013 73.4533 342.786 73.12 342.599C72.8 342.413 72.4333 342.226 72.02 342.039L70.14 341.219C69.7267 341.046 69.3133 340.819 68.9 340.539C68.5 340.259 68.16 339.899 67.88 339.459C67.6133 339.019 67.48 338.479 67.48 337.839C67.48 337.173 67.6533 336.579 68 336.059C68.36 335.526 68.8533 335.113 69.48 334.819C70.1067 334.513 70.8133 334.359 71.6 334.359C72.3867 334.359 73.1133 334.513 73.78 334.819C74.4467 335.113 75.0133 335.499 75.48 335.979L74.58 337.059C74.18 336.673 73.7333 336.373 73.24 336.159C72.76 335.933 72.2133 335.819 71.6 335.819C70.8667 335.819 70.2733 335.993 69.82 336.339C69.38 336.686 69.16 337.153 69.16 337.739C69.16 338.153 69.2667 338.499 69.48 338.779C69.7067 339.046 69.9867 339.266 70.32 339.439C70.6533 339.613 70.9933 339.773 71.34 339.919L73.2 340.719C73.7067 340.933 74.16 341.193 74.56 341.499C74.9733 341.793 75.3 342.159 75.54 342.599C75.78 343.026 75.9 343.566 75.9 344.219C75.9 344.913 75.72 345.546 75.36 346.119C75 346.679 74.4867 347.126 73.82 347.459C73.1533 347.793 72.36 347.959 71.44 347.959ZM80.8953 347.959C79.8553 347.959 79.1286 347.659 78.7153 347.059C78.3153 346.459 78.1153 345.679 78.1153 344.719V339.339H76.6753V338.099L78.1953 337.999L78.3953 335.279H79.7753V337.999H82.3953V339.339H79.7753V344.739C79.7753 345.339 79.882 345.806 80.0953 346.139C80.322 346.459 80.7153 346.619 81.2753 346.619C81.4486 346.619 81.6353 346.593 81.8353 346.539C82.0353 346.473 82.2153 346.413 82.3753 346.359L82.6953 347.599C82.4286 347.693 82.1353 347.773 81.8153 347.839C81.5086 347.919 81.202 347.959 80.8953 347.959ZM86.4034 347.959C85.5901 347.959 84.9101 347.719 84.3634 347.239C83.8301 346.746 83.5634 346.066 83.5634 345.199C83.5634 344.133 84.0368 343.319 84.9834 342.759C85.9434 342.186 87.4568 341.786 89.5234 341.559C89.5234 341.146 89.4634 340.753 89.3434 340.379C89.2368 340.006 89.0368 339.706 88.7434 339.479C88.4634 339.239 88.0568 339.119 87.5234 339.119C86.9634 339.119 86.4368 339.226 85.9434 339.439C85.4501 339.653 85.0101 339.893 84.6234 340.159L83.9834 339.019C84.4368 338.726 84.9901 338.446 85.6434 338.179C86.3101 337.899 87.0301 337.759 87.8034 337.759C88.9901 337.759 89.8501 338.126 90.3834 338.859C90.9168 339.579 91.1834 340.546 91.1834 341.759V347.719H89.8234L89.6834 346.559H89.6234C89.1701 346.933 88.6701 347.259 88.1234 347.539C87.5901 347.819 87.0168 347.959 86.4034 347.959ZM86.8834 346.639C87.3501 346.639 87.7901 346.526 88.2034 346.299C88.6168 346.073 89.0568 345.753 89.5234 345.339V342.639C87.9101 342.839 86.7768 343.139 86.1234 343.539C85.4834 343.939 85.1634 344.453 85.1634 345.079C85.1634 345.626 85.3301 346.026 85.6634 346.279C85.9968 346.519 86.4034 346.639 86.8834 346.639ZM94.2416 347.719V333.479H95.8616V343.119H95.9216L100.062 337.999H101.882L98.6216 341.899L102.322 347.719H100.522L97.6816 343.039L95.8616 345.159V347.719H94.2416ZM107.732 347.959C106.866 347.959 106.079 347.759 105.372 347.359C104.666 346.946 104.106 346.359 103.692 345.599C103.279 344.839 103.072 343.933 103.072 342.879C103.072 341.813 103.279 340.899 103.692 340.139C104.119 339.379 104.666 338.793 105.332 338.379C105.999 337.966 106.699 337.759 107.432 337.759C108.672 337.759 109.626 338.173 110.292 338.999C110.972 339.826 111.312 340.933 111.312 342.319C111.312 342.493 111.306 342.666 111.292 342.839C111.292 342.999 111.279 343.139 111.252 343.259H104.692C104.759 344.286 105.079 345.106 105.652 345.719C106.239 346.333 106.999 346.639 107.932 346.639C108.399 346.639 108.826 346.573 109.212 346.439C109.612 346.293 109.992 346.106 110.352 345.879L110.932 346.959C110.519 347.226 110.046 347.459 109.512 347.659C108.992 347.859 108.399 347.959 107.732 347.959ZM104.672 342.079H109.872C109.872 341.093 109.659 340.346 109.232 339.839C108.819 339.319 108.232 339.059 107.472 339.059C106.792 339.059 106.179 339.326 105.632 339.859C105.099 340.379 104.779 341.119 104.672 342.079ZM119.958 347.959C119.145 347.959 118.465 347.719 117.918 347.239C117.385 346.746 117.118 346.066 117.118 345.199C117.118 344.133 117.591 343.319 118.538 342.759C119.498 342.186 121.011 341.786 123.078 341.559C123.078 341.146 123.018 340.753 122.898 340.379C122.791 340.006 122.591 339.706 122.298 339.479C122.018 339.239 121.611 339.119 121.078 339.119C120.518 339.119 119.991 339.226 119.498 339.439C119.005 339.653 118.565 339.893 118.178 340.159L117.538 339.019C117.991 338.726 118.545 338.446 119.198 338.179C119.865 337.899 120.585 337.759 121.358 337.759C122.545 337.759 123.405 338.126 123.938 338.859C124.471 339.579 124.738 340.546 124.738 341.759V347.719H123.378L123.238 346.559H123.178C122.725 346.933 122.225 347.259 121.678 347.539C121.145 347.819 120.571 347.959 119.958 347.959ZM120.438 346.639C120.905 346.639 121.345 346.526 121.758 346.299C122.171 346.073 122.611 345.753 123.078 345.339V342.639C121.465 342.839 120.331 343.139 119.678 343.539C119.038 343.939 118.718 344.453 118.718 345.079C118.718 345.626 118.885 346.026 119.218 346.279C119.551 346.519 119.958 346.639 120.438 346.639ZM127.796 347.719V337.999H129.156L129.296 339.399H129.356C129.783 338.933 130.25 338.546 130.756 338.239C131.263 337.919 131.803 337.759 132.376 337.759C133.123 337.759 133.703 337.926 134.116 338.259C134.543 338.579 134.856 339.033 135.056 339.619C135.563 339.073 136.076 338.626 136.596 338.279C137.116 337.933 137.67 337.759 138.256 337.759C139.256 337.759 139.996 338.086 140.476 338.739C140.97 339.379 141.216 340.319 141.216 341.559V347.719H139.576V341.779C139.576 340.873 139.43 340.213 139.136 339.799C138.843 339.386 138.39 339.179 137.776 339.179C137.056 339.179 136.243 339.679 135.336 340.679V347.719H133.696V341.779C133.696 340.873 133.55 340.213 133.256 339.799C132.963 339.386 132.503 339.179 131.876 339.179C131.156 339.179 130.343 339.679 129.436 340.679V347.719H127.796ZM148.158 347.959C147.372 347.959 146.632 347.759 145.938 347.359C145.258 346.959 144.705 346.379 144.278 345.619C143.865 344.859 143.658 343.946 143.658 342.879C143.658 341.786 143.865 340.859 144.278 340.099C144.705 339.339 145.258 338.759 145.938 338.359C146.632 337.959 147.372 337.759 148.158 337.759C148.958 337.759 149.698 337.959 150.378 338.359C151.058 338.759 151.605 339.339 152.018 340.099C152.445 340.859 152.658 341.786 152.658 342.879C152.658 343.946 152.445 344.859 152.018 345.619C151.605 346.379 151.058 346.959 150.378 347.359C149.698 347.759 148.958 347.959 148.158 347.959ZM148.158 346.599C148.998 346.599 149.672 346.259 150.178 345.579C150.698 344.886 150.958 343.986 150.958 342.879C150.958 341.759 150.698 340.853 150.178 340.159C149.672 339.466 148.998 339.119 148.158 339.119C147.332 339.119 146.658 339.466 146.138 340.159C145.618 340.853 145.358 341.759 145.358 342.879C145.358 343.986 145.618 344.886 146.138 345.579C146.658 346.259 147.332 346.599 148.158 346.599ZM158.058 347.959C157.031 347.959 156.278 347.639 155.798 346.999C155.318 346.346 155.078 345.399 155.078 344.159V337.999H156.738V343.939C156.738 344.846 156.878 345.506 157.158 345.919C157.451 346.333 157.918 346.539 158.558 346.539C159.065 346.539 159.511 346.413 159.898 346.159C160.298 345.893 160.725 345.473 161.178 344.899V337.999H162.818V347.719H161.458L161.318 346.199H161.258C160.805 346.733 160.325 347.159 159.818 347.479C159.311 347.799 158.725 347.959 158.058 347.959ZM166.097 347.719V337.999H167.457L167.597 339.399H167.657C168.124 338.933 168.617 338.546 169.137 338.239C169.657 337.919 170.25 337.759 170.917 337.759C171.944 337.759 172.69 338.086 173.157 338.739C173.637 339.379 173.877 340.319 173.877 341.559V347.719H172.237V341.779C172.237 340.873 172.09 340.213 171.797 339.799C171.504 339.386 171.037 339.179 170.397 339.179C169.904 339.179 169.457 339.306 169.057 339.559C168.67 339.813 168.23 340.186 167.737 340.679V347.719H166.097ZM180.095 347.959C179.055 347.959 178.328 347.659 177.915 347.059C177.515 346.459 177.315 345.679 177.315 344.719V339.339H175.875V338.099L177.395 337.999L177.595 335.279H178.975V337.999H181.595V339.339H178.975V344.739C178.975 345.339 179.081 345.806 179.295 346.139C179.521 346.459 179.915 346.619 180.475 346.619C180.648 346.619 180.835 346.593 181.035 346.539C181.235 346.473 181.415 346.413 181.575 346.359L181.895 347.599C181.628 347.693 181.335 347.773 181.015 347.839C180.708 347.919 180.401 347.959 180.095 347.959Z" fill="#F3FBFD"/>
<path d="M87.2775 400.371V399.391C88.5575 398.111 89.6442 396.991 90.5375 396.031C91.4309 395.058 92.1109 394.185 92.5775 393.411C93.0442 392.625 93.2775 391.891 93.2775 391.211C93.2775 390.478 93.0775 389.878 92.6775 389.411C92.2775 388.945 91.6709 388.711 90.8575 388.711C90.3242 388.711 89.8309 388.865 89.3775 389.171C88.9242 389.465 88.5109 389.825 88.1375 390.251L87.1975 389.311C87.7309 388.725 88.2975 388.258 88.8975 387.911C89.5109 387.551 90.2309 387.371 91.0575 387.371C92.2442 387.371 93.1775 387.718 93.8575 388.411C94.5375 389.091 94.8775 389.998 94.8775 391.131C94.8775 391.931 94.6509 392.745 94.1975 393.571C93.7575 394.385 93.1442 395.245 92.3575 396.151C91.5842 397.045 90.6909 398.018 89.6775 399.071C90.0242 399.045 90.3842 399.018 90.7575 398.991C91.1309 398.965 91.4842 398.951 91.8175 398.951H95.5175V400.371H87.2775ZM101.399 400.611C100.119 400.611 99.1123 400.038 98.3789 398.891C97.6589 397.731 97.2989 396.085 97.2989 393.951C97.2989 391.805 97.6589 390.171 98.3789 389.051C99.1123 387.931 100.119 387.371 101.399 387.371C102.666 387.371 103.659 387.931 104.379 389.051C105.112 390.171 105.479 391.805 105.479 393.951C105.479 396.085 105.112 397.731 104.379 398.891C103.659 400.038 102.666 400.611 101.399 400.611ZM101.399 399.291C102.146 399.291 102.746 398.871 103.199 398.031C103.652 397.178 103.879 395.818 103.879 393.951C103.879 392.085 103.652 390.745 103.199 389.931C102.746 389.105 102.146 388.691 101.399 388.691C100.652 388.691 100.046 389.105 99.5789 389.931C99.1256 390.745 98.8989 392.085 98.8989 393.951C98.8989 395.818 99.1256 397.178 99.5789 398.031C100.046 398.871 100.652 399.291 101.399 399.291ZM111.34 400.611C110.06 400.611 109.054 400.038 108.32 398.891C107.6 397.731 107.24 396.085 107.24 393.951C107.24 391.805 107.6 390.171 108.32 389.051C109.054 387.931 110.06 387.371 111.34 387.371C112.607 387.371 113.6 387.931 114.32 389.051C115.054 390.171 115.42 391.805 115.42 393.951C115.42 396.085 115.054 397.731 114.32 398.891C113.6 400.038 112.607 400.611 111.34 400.611ZM111.34 399.291C112.087 399.291 112.687 398.871 113.14 398.031C113.594 397.178 113.82 395.818 113.82 393.951C113.82 392.085 113.594 390.745 113.14 389.931C112.687 389.105 112.087 388.691 111.34 388.691C110.594 388.691 109.987 389.105 109.52 389.931C109.067 390.745 108.84 392.085 108.84 393.951C108.84 395.818 109.067 397.178 109.52 398.031C109.987 398.871 110.594 399.291 111.34 399.291ZM121.282 400.611C120.002 400.611 118.995 400.038 118.262 398.891C117.542 397.731 117.182 396.085 117.182 393.951C117.182 391.805 117.542 390.171 118.262 389.051C118.995 387.931 120.002 387.371 121.282 387.371C122.548 387.371 123.542 387.931 124.262 389.051C124.995 390.171 125.362 391.805 125.362 393.951C125.362 396.085 124.995 397.731 124.262 398.891C123.542 400.038 122.548 400.611 121.282 400.611ZM121.282 399.291C122.028 399.291 122.628 398.871 123.082 398.031C123.535 397.178 123.762 395.818 123.762 393.951C123.762 392.085 123.535 390.745 123.082 389.931C122.628 389.105 122.028 388.691 121.282 388.691C120.535 388.691 119.928 389.105 119.462 389.931C119.008 390.745 118.782 392.085 118.782 393.951C118.782 395.818 119.008 397.178 119.462 398.031C119.928 398.871 120.535 399.291 121.282 399.291ZM131.223 400.611C129.943 400.611 128.936 400.038 128.203 398.891C127.483 397.731 127.123 396.085 127.123 393.951C127.123 391.805 127.483 390.171 128.203 389.051C128.936 387.931 129.943 387.371 131.223 387.371C132.49 387.371 133.483 387.931 134.203 389.051C134.936 390.171 135.303 391.805 135.303 393.951C135.303 396.085 134.936 397.731 134.203 398.891C133.483 400.038 132.49 400.611 131.223 400.611ZM131.223 399.291C131.97 399.291 132.57 398.871 133.023 398.031C133.476 397.178 133.703 395.818 133.703 393.951C133.703 392.085 133.476 390.745 133.023 389.931C132.57 389.105 131.97 388.691 131.223 388.691C130.476 388.691 129.87 389.105 129.403 389.931C128.95 390.745 128.723 392.085 128.723 393.951C128.723 395.818 128.95 397.178 129.403 398.031C129.87 398.871 130.476 399.291 131.223 399.291Z" fill="white"/>
<g opacity="0.5">
<path d="M320.322 400.371V387.251H322.322L324.842 394.251C325.002 394.705 325.156 395.165 325.302 395.631C325.462 396.085 325.622 396.538 325.782 396.991H325.862C326.022 396.538 326.169 396.085 326.302 395.631C326.449 395.165 326.602 394.705 326.762 394.251L329.242 387.251H331.262V400.371H329.702V393.151C329.702 392.565 329.729 391.918 329.782 391.211C329.836 390.491 329.882 389.845 329.922 389.271H329.842L328.802 392.251L326.322 399.051H325.222L322.742 392.251L321.702 389.271H321.622C321.662 389.845 321.702 390.491 321.742 391.211C321.796 391.918 321.822 392.565 321.822 393.151V400.371H320.322ZM337.114 393.031L336.494 395.031H340.434L339.814 393.031C339.574 392.298 339.347 391.571 339.134 390.851C338.92 390.118 338.707 389.371 338.494 388.611H338.414C338.214 389.371 338.007 390.118 337.794 390.851C337.58 391.571 337.354 392.298 337.114 393.031ZM333.114 400.371L337.554 387.251H339.434L343.874 400.371H342.094L340.854 396.371H336.074L334.814 400.371H333.114ZM344.311 400.371L348.131 393.591L344.571 387.251H346.411L348.191 390.611C348.364 390.905 348.524 391.198 348.671 391.491C348.831 391.785 349.011 392.125 349.211 392.511H349.291C349.477 392.125 349.637 391.785 349.771 391.491C349.917 391.198 350.071 390.905 350.231 390.611L351.971 387.251H353.731L350.151 393.671L353.971 400.371H352.131L350.211 396.831C350.037 396.511 349.857 396.185 349.671 395.851C349.497 395.505 349.304 395.131 349.091 394.731H349.011C348.824 395.131 348.644 395.505 348.471 395.851C348.297 396.185 348.131 396.511 347.971 396.831L346.071 400.371H344.311Z" fill="white"/>
<path d="M318.522 401.871H354.271V402.871H318.522V401.871Z" fill="white"/>
</g>
<rect x="66.5" y="364.219" width="308" height="57.3035" rx="13.1517" stroke="#F3FBFD"/>
<path d="M75.5 485.013H316.5" stroke="#11D58E" stroke-width="4" stroke-miterlimit="10"/>
<path d="M316.5 484.013L364.5 484.013" stroke="#8366F4" stroke-width="1.5" stroke-dasharray="3.41 3.41"/>
<circle r="21.1679" transform="matrix(-1 0 0 1 308.343 483.473)" fill="#8366F4" stroke="#3418D8" stroke-width="1.5"/>
<circle r="6.9291" transform="matrix(-1 0 0 1 76.4225 485.234)" fill="#E5E5E5" stroke="#3418D8" stroke-width="1.5"/>
<path d="M335.2 504.794C333.292 504.652 331.623 505.852 330.864 507.637L330.864 507.193C330.879 504.465 329.007 502.077 326.569 501.98C324.045 501.884 321.963 504.129 321.948 506.932L321.948 505.715C321.968 502.987 320.096 500.599 317.653 500.502C315.129 500.406 313.047 502.651 313.032 505.454L313.118 486.893C313.129 484.164 311.261 481.777 308.818 481.68C306.294 481.583 304.212 483.829 304.197 486.632L304.065 510.269C301.902 507.279 299.245 504.755 296.243 502.873C295.622 502.486 294.925 502.276 294.217 502.27C292.334 502.259 290.624 503.663 290.126 505.801C289.637 507.904 290.614 510.064 292.304 511.144C299.174 515.55 302.156 524.861 304.905 532.661C306.228 536.413 309.856 543.087 318.976 543.138L324.345 543.166C336.549 543.235 339.241 528.42 339.251 525.464L339.251 524.31L339.322 514.231L339.343 509.973C339.353 507.313 337.567 504.965 335.19 504.783L335.2 504.794Z" fill="#F3FBFD" stroke="#1B242C" stroke-width="1.5" stroke-miterlimit="10"/>
<path d="M300 564.816L300 577.849L320 563.368L340 577.849L340 564.816L320 550.335L300 564.816Z" fill="#11D58E"/>
<path d="M300 586.538L300 599.572L320 585.09L340 599.572L340 586.538L320 572.057L300 586.538Z" fill="#11D58E"/>
<path d="M70.8 458.374V445.254H72.46V456.954H78.2V458.374H70.8ZM84.0722 458.614C83.2055 458.614 82.4189 458.414 81.7122 458.014C81.0055 457.601 80.4455 457.014 80.0322 456.254C79.6189 455.494 79.4122 454.587 79.4122 453.534C79.4122 452.467 79.6189 451.554 80.0322 450.794C80.4589 450.034 81.0055 449.447 81.6722 449.034C82.3389 448.621 83.0389 448.414 83.7722 448.414C85.0122 448.414 85.9655 448.827 86.6322 449.654C87.3122 450.481 87.6522 451.587 87.6522 452.974C87.6522 453.147 87.6455 453.321 87.6322 453.494C87.6322 453.654 87.6189 453.794 87.5922 453.914H81.0322C81.0989 454.941 81.4189 455.761 81.9922 456.374C82.5789 456.987 83.3389 457.294 84.2722 457.294C84.7389 457.294 85.1655 457.227 85.5522 457.094C85.9522 456.947 86.3322 456.761 86.6922 456.534L87.2722 457.614C86.8589 457.881 86.3855 458.114 85.8522 458.314C85.3322 458.514 84.7389 458.614 84.0722 458.614ZM81.0122 452.734H86.2122C86.2122 451.747 85.9989 451.001 85.5722 450.494C85.1589 449.974 84.5722 449.714 83.8122 449.714C83.1322 449.714 82.5189 449.981 81.9722 450.514C81.4389 451.034 81.1189 451.774 81.0122 452.734ZM92.2517 458.374L88.7517 448.654H90.4517L92.2917 454.174C92.4384 454.654 92.5851 455.134 92.7317 455.614C92.8917 456.094 93.0451 456.567 93.1917 457.034H93.2717C93.4184 456.567 93.5651 456.094 93.7117 455.614C93.8717 455.134 94.0184 454.654 94.1517 454.174L95.9917 448.654H97.6117L94.1717 458.374H92.2517ZM103.35 458.614C102.483 458.614 101.696 458.414 100.99 458.014C100.283 457.601 99.7229 457.014 99.3095 456.254C98.8962 455.494 98.6895 454.587 98.6895 453.534C98.6895 452.467 98.8962 451.554 99.3095 450.794C99.7362 450.034 100.283 449.447 100.95 449.034C101.616 448.621 102.316 448.414 103.05 448.414C104.29 448.414 105.243 448.827 105.91 449.654C106.59 450.481 106.93 451.587 106.93 452.974C106.93 453.147 106.923 453.321 106.91 453.494C106.91 453.654 106.896 453.794 106.87 453.914H100.31C100.376 454.941 100.696 455.761 101.27 456.374C101.856 456.987 102.616 457.294 103.55 457.294C104.016 457.294 104.443 457.227 104.83 457.094C105.23 456.947 105.61 456.761 105.97 456.534L106.55 457.614C106.136 457.881 105.663 458.114 105.13 458.314C104.61 458.514 104.016 458.614 103.35 458.614ZM100.29 452.734H105.49C105.49 451.747 105.276 451.001 104.85 450.494C104.436 449.974 103.85 449.714 103.09 449.714C102.41 449.714 101.796 449.981 101.25 450.514C100.716 451.034 100.396 451.774 100.29 452.734ZM109.331 458.374V448.654H110.691L110.831 450.414H110.891C111.225 449.801 111.631 449.314 112.111 448.954C112.591 448.594 113.105 448.414 113.651 448.414C114.038 448.414 114.385 448.481 114.691 448.614L114.371 450.054C114.211 450.001 114.065 449.961 113.931 449.934C113.798 449.907 113.631 449.894 113.431 449.894C113.018 449.894 112.585 450.061 112.131 450.394C111.691 450.727 111.305 451.307 110.971 452.134V458.374H109.331ZM118.017 458.614C117.203 458.614 116.523 458.374 115.977 457.894C115.443 457.401 115.177 456.721 115.177 455.854C115.177 454.787 115.65 453.974 116.597 453.414C117.557 452.841 119.07 452.441 121.137 452.214C121.137 451.801 121.077 451.407 120.957 451.034C120.85 450.661 120.65 450.361 120.357 450.134C120.077 449.894 119.67 449.774 119.137 449.774C118.577 449.774 118.05 449.881 117.557 450.094C117.063 450.307 116.623 450.547 116.237 450.814L115.597 449.674C116.05 449.381 116.603 449.101 117.257 448.834C117.923 448.554 118.643 448.414 119.417 448.414C120.603 448.414 121.463 448.781 121.997 449.514C122.53 450.234 122.797 451.201 122.797 452.414V458.374H121.437L121.297 457.214H121.237C120.783 457.587 120.283 457.914 119.737 458.194C119.203 458.474 118.63 458.614 118.017 458.614ZM118.497 457.294C118.963 457.294 119.403 457.181 119.817 456.954C120.23 456.727 120.67 456.407 121.137 455.994V453.294C119.523 453.494 118.39 453.794 117.737 454.194C117.097 454.594 116.777 455.107 116.777 455.734C116.777 456.281 116.943 456.681 117.277 456.934C117.61 457.174 118.017 457.294 118.497 457.294ZM129.135 462.854C127.948 462.854 126.982 462.627 126.235 462.174C125.488 461.721 125.115 461.074 125.115 460.234C125.115 459.821 125.242 459.421 125.495 459.034C125.748 458.661 126.095 458.327 126.535 458.034V457.954C126.295 457.807 126.088 457.601 125.915 457.334C125.755 457.067 125.675 456.747 125.675 456.374C125.675 455.961 125.788 455.601 126.015 455.294C126.242 454.987 126.482 454.747 126.735 454.574V454.494C126.415 454.227 126.122 453.867 125.855 453.414C125.602 452.961 125.475 452.447 125.475 451.874C125.475 451.167 125.642 450.554 125.975 450.034C126.308 449.514 126.755 449.114 127.315 448.834C127.875 448.554 128.482 448.414 129.135 448.414C129.402 448.414 129.655 448.441 129.895 448.494C130.135 448.534 130.342 448.587 130.515 448.654H133.895V449.914H131.895C132.122 450.127 132.308 450.414 132.455 450.774C132.615 451.121 132.695 451.501 132.695 451.914C132.695 452.607 132.535 453.207 132.215 453.714C131.895 454.221 131.468 454.614 130.935 454.894C130.402 455.161 129.802 455.294 129.135 455.294C128.615 455.294 128.128 455.181 127.675 454.954C127.502 455.101 127.355 455.267 127.235 455.454C127.115 455.627 127.055 455.847 127.055 456.114C127.055 456.421 127.175 456.674 127.415 456.874C127.668 457.074 128.122 457.174 128.775 457.174H130.655C131.788 457.174 132.635 457.361 133.195 457.734C133.768 458.094 134.055 458.681 134.055 459.494C134.055 460.094 133.855 460.647 133.455 461.154C133.055 461.661 132.488 462.067 131.755 462.374C131.022 462.694 130.148 462.854 129.135 462.854ZM129.135 454.194C129.695 454.194 130.175 453.987 130.575 453.574C130.988 453.147 131.195 452.581 131.195 451.874C131.195 451.167 130.995 450.614 130.595 450.214C130.195 449.814 129.708 449.614 129.135 449.614C128.562 449.614 128.075 449.814 127.675 450.214C127.275 450.614 127.075 451.167 127.075 451.874C127.075 452.581 127.275 453.147 127.675 453.574C128.088 453.987 128.575 454.194 129.135 454.194ZM129.375 461.714C130.308 461.714 131.055 461.507 131.615 461.094C132.175 460.694 132.455 460.241 132.455 459.734C132.455 459.281 132.282 458.967 131.935 458.794C131.602 458.621 131.122 458.534 130.495 458.534H128.815C128.628 458.534 128.422 458.521 128.195 458.494C127.982 458.467 127.768 458.427 127.555 458.374C127.208 458.627 126.955 458.894 126.795 459.174C126.635 459.454 126.555 459.734 126.555 460.014C126.555 460.534 126.802 460.947 127.295 461.254C127.802 461.561 128.495 461.714 129.375 461.714ZM139.6 458.614C138.733 458.614 137.946 458.414 137.24 458.014C136.533 457.601 135.973 457.014 135.56 456.254C135.146 455.494 134.94 454.587 134.94 453.534C134.94 452.467 135.146 451.554 135.56 450.794C135.986 450.034 136.533 449.447 137.2 449.034C137.866 448.621 138.566 448.414 139.3 448.414C140.54 448.414 141.493 448.827 142.16 449.654C142.84 450.481 143.18 451.587 143.18 452.974C143.18 453.147 143.173 453.321 143.16 453.494C143.16 453.654 143.146 453.794 143.12 453.914H136.56C136.626 454.941 136.946 455.761 137.52 456.374C138.106 456.987 138.866 457.294 139.8 457.294C140.266 457.294 140.693 457.227 141.08 457.094C141.48 456.947 141.86 456.761 142.22 456.534L142.8 457.614C142.386 457.881 141.913 458.114 141.38 458.314C140.86 458.514 140.266 458.614 139.6 458.614ZM136.54 452.734H141.74C141.74 451.747 141.526 451.001 141.1 450.494C140.686 449.974 140.1 449.714 139.34 449.714C138.66 449.714 138.046 449.981 137.5 450.514C136.966 451.034 136.646 451.774 136.54 452.734ZM146.441 451.394C146.108 451.394 145.821 451.281 145.581 451.054C145.355 450.814 145.241 450.514 145.241 450.154C145.241 449.767 145.355 449.461 145.581 449.234C145.821 448.994 146.108 448.874 146.441 448.874C146.761 448.874 147.035 448.994 147.261 449.234C147.501 449.461 147.621 449.767 147.621 450.154C147.621 450.514 147.501 450.814 147.261 451.054C147.035 451.281 146.761 451.394 146.441 451.394ZM146.441 458.614C146.108 458.614 145.821 458.501 145.581 458.274C145.355 458.034 145.241 457.734 145.241 457.374C145.241 456.987 145.355 456.681 145.581 456.454C145.821 456.214 146.108 456.094 146.441 456.094C146.761 456.094 147.035 456.214 147.261 456.454C147.501 456.681 147.621 456.987 147.621 457.374C147.621 457.734 147.501 458.034 147.261 458.274C147.035 458.501 146.761 458.614 146.441 458.614Z" fill="white"/>
<path d="M154.884 459.374V457.367C156.174 456.141 157.313 455.034 158.3 454.046C159.304 453.043 160.084 452.127 160.642 451.299C161.199 450.455 161.478 449.674 161.478 448.958C161.478 448.209 161.279 447.644 160.88 447.262C160.498 446.863 159.981 446.664 159.328 446.664C158.786 446.664 158.292 446.824 157.846 447.142C157.416 447.445 157.01 447.803 156.628 448.217L154.717 446.33C155.465 445.533 156.23 444.936 157.01 444.538C157.791 444.124 158.722 443.917 159.805 443.917C160.809 443.917 161.685 444.116 162.433 444.514C163.182 444.912 163.763 445.478 164.177 446.21C164.607 446.927 164.822 447.771 164.822 448.743C164.822 449.587 164.584 450.455 164.106 451.347C163.644 452.223 163.047 453.107 162.314 453.999C161.581 454.875 160.801 455.743 159.973 456.603C160.355 456.555 160.785 456.515 161.263 456.483C161.741 456.435 162.155 456.412 162.505 456.412H165.563V459.374H154.884ZM166.956 459.374L170.588 453.21L167.171 447.524H170.946L171.997 449.436C172.157 449.77 172.324 450.112 172.499 450.463C172.674 450.797 172.841 451.132 173.001 451.466H173.096C173.224 451.132 173.359 450.797 173.502 450.463C173.646 450.112 173.781 449.77 173.908 449.436L174.721 447.524H178.352L174.912 453.616L178.567 459.374H174.792L173.646 457.415C173.455 457.081 173.263 456.738 173.072 456.388C172.897 456.037 172.714 455.695 172.523 455.36H172.427C172.284 455.695 172.133 456.037 171.973 456.388C171.814 456.722 171.663 457.065 171.519 457.415L170.588 459.374H166.956Z" fill="#E0FB92"/>
<path d="M180 38.8027L242 38.8027" stroke="#F3FBFD" stroke-width="1.47583"/>
<path d="M267.737 165.019L267.74 164.867L147.681 162.745L146.953 162.732L146.916 163.461L146.28 176.089C146.28 176.089 146.28 176.089 146.28 176.089C145.859 184.435 152.584 191.892 163.255 197.281C173.981 202.698 188.945 206.173 205.608 206.466C222.268 206.76 237.548 203.817 248.791 198.791C259.972 193.792 267.41 186.605 267.834 178.28L267.836 178.28L268.452 166.056L268.472 165.652L268.472 165.652L268.472 165.651L268.472 165.65L268.473 165.643L268.474 165.621L268.477 165.548L268.48 165.492L268.484 165.409L268.485 165.406L268.485 165.403L268.485 165.399L268.485 165.396L268.485 165.394L268.486 165.382C268.236 165.106 267.973 165.018 267.737 165.019Z" fill="#F3FBFD" stroke="#1B242C" stroke-width="1.5" stroke-miterlimit="10"/>
<path d="M268.496 165.166C268.916 156.828 262.204 149.38 251.539 143.993C240.819 138.578 225.86 135.104 209.199 134.811C192.537 134.518 177.255 137.462 166.009 142.491C154.82 147.494 147.37 154.693 146.949 163.031C146.529 171.368 153.242 178.816 163.907 184.203C174.627 189.618 189.586 193.093 206.247 193.385C222.908 193.678 238.191 190.734 249.437 185.706C260.626 180.702 268.076 173.503 268.496 165.166Z" fill="#11D58E" stroke="#F3FBFD" stroke-width="1.5"/>
<path d="M221.052 60.3448L221.052 60.3447L221.05 60.3427L221.047 60.3402L221.047 60.3397L221.045 60.3378L221.042 60.3358L221.041 60.3344L221.032 60.3263C220.66 60.3327 220.42 60.4736 220.266 60.652L220.155 60.5504L139.325 150.054L138.837 150.595L139.362 151.101L148.504 159.916C148.504 159.916 148.504 159.916 148.504 159.916C154.544 165.74 164.626 165.569 175.747 161.046C186.926 156.499 199.431 147.463 210.648 135.04C221.864 122.62 229.718 109.109 233.331 97.2804C236.924 85.5163 236.39 75.1432 230.368 69.3302L230.369 69.3289L221.52 60.7963L221.228 60.5143L221.227 60.5142L221.227 60.5139L221.226 60.5128L221.221 60.5084L221.205 60.4925L221.152 60.4419L221.112 60.4026L221.052 60.3448Z" fill="#1B242C" stroke="#F3FBFD" stroke-width="1.5" stroke-miterlimit="10"/>
<path d="M220.875 60.1752C214.841 54.3569 204.774 54.5239 193.658 59.0443C182.485 63.5879 169.983 72.6209 158.768 85.0426C147.552 97.4644 139.697 110.977 136.084 122.811C132.489 134.583 133.024 144.973 139.058 150.792C145.092 156.61 155.159 156.443 166.275 151.923C177.448 147.379 189.95 138.346 201.165 125.924C212.381 113.502 220.236 99.9894 223.85 88.1563C227.445 76.3836 226.909 65.9936 220.875 60.1752Z" fill="#3418D8" stroke="#F3FBFD" stroke-width="1.5"/>
<path d="M259.494 136.139C273.59 136.964 284.347 149.052 283.521 163.141" stroke="#E0FB92" stroke-width="1.5" stroke-miterlimit="10"/>
<rect x="0.5" y="0.638672" width="421" height="581" rx="31.5" stroke="white"/>
</svg>
