<svg width="240" height="250" viewBox="0 0 240 250" fill="none" xmlns="http://www.w3.org/2000/svg">
<path d="M187.524 194.551C169.375 214.915 122.651 202.524 83.173 166.88C43.6826 131.228 26.3806 85.816 44.5287 65.4525L59.0703 49.1351L202.058 178.246C202.058 178.246 205.664 174.2 187.516 194.564L187.524 194.551Z" fill="#141414" stroke="#F3FBFD" stroke-width="1.88082" stroke-miterlimit="10"/>
<path d="M202.595 177.641C220.744 157.274 203.45 111.865 163.967 76.2171C124.484 40.5694 77.7645 28.1821 59.6155 48.5492C41.4666 68.9164 58.761 114.325 98.2438 149.973C137.727 185.621 184.446 198.008 202.595 177.641Z" fill="#303D48" stroke="white" stroke-width="1.88082"/>
<path d="M121.544 129.54L86.8287 98.1951L100.658 82.6785C117.121 97.3927 135.861 103.138 142.67 95.5102C142.728 95.4438 142.778 95.3898 142.824 95.3158L176.965 126.132L163.071 141.728C146.753 127.411 128.368 121.887 121.644 129.432C121.621 129.469 121.579 129.51 121.556 129.547L121.544 129.54Z" fill="#E0FB92"/>
<path d="M192.095 66.3879C207.642 84.5491 190.193 126.756 153.127 160.651C116.053 194.556 73.3923 207.319 57.8452 189.158L45.3872 174.606L179.647 51.8437C179.647 51.8437 176.558 48.2346 192.105 66.3958L192.095 66.3879Z" fill="white" stroke="#F3FBFD" stroke-width="4.76557" stroke-miterlimit="10"/>
<path d="M180.067 50.5028C171.82 40.8694 156.648 39.6791 139.3 44.8682C121.858 50.0854 101.777 61.8549 83.1428 78.8974C64.5081 95.94 50.7612 115.107 43.6277 132.366C36.5326 149.532 35.8288 165.241 44.0758 174.875C52.3229 184.508 67.4949 185.699 84.8431 180.51C102.285 175.292 122.365 163.523 141 146.48C159.635 129.438 173.381 110.27 180.515 93.0118C187.61 75.8461 188.314 60.1362 180.067 50.5028Z" fill="#141414" stroke="white" stroke-width="2.38279"/>
<path fill-rule="evenodd" clip-rule="evenodd" d="M107.885 80.4842L119.636 92.4239L115.279 96.2947L110.922 100.165L108.939 97.9105C107.848 96.6701 104.657 94.1938 101.848 92.4073C99.0393 90.6215 95.2895 88.8297 93.515 88.4268C91.5327 87.9763 89.6652 88.2495 88.6692 89.1343C87.7394 89.9603 87.1219 91.86 87.2207 93.5894C87.3171 95.247 88.3606 98.824 89.541 101.538C90.7214 104.252 92.8725 107.834 94.3199 109.497L96.9527 112.522L71.4231 134.88L78.7636 145.674L104.906 122.45L107.159 124.555C108.398 125.713 111.31 127.977 113.63 129.586C115.949 131.196 119.551 132.962 121.635 133.511C124.218 134.192 125.962 134.03 127.116 133.005C128.194 132.048 128.69 130.301 128.481 128.195C128.301 126.375 126.993 122.414 125.575 119.393C124.157 116.371 122.104 112.883 121.013 111.643L119.031 109.388L123.388 105.517L127.745 101.647L133.066 107.699L138.388 113.751L144.488 108.332L150.588 102.913L118.121 73.2967L107.885 80.4842ZM105.805 104.711L101.559 108.483C104.474 111.798 107.008 114.68 109.668 117.706L114.034 113.827L118.4 109.949L121.584 114.759C123.334 117.405 125.318 121.363 125.992 123.553C126.666 125.744 126.927 128.342 126.573 129.327C126.056 130.763 125.434 131.086 123.437 130.952C122.067 130.861 119.488 130.003 117.704 129.046C115.922 128.089 110.699 123.489 106.099 118.823C100.869 113.519 96.4116 108.053 94.2064 104.235C92.2658 100.877 90.5651 96.6551 90.4264 94.8522C90.2883 93.0499 90.5679 91.2267 91.0471 90.8009C91.5264 90.3751 93.3797 90.317 95.1645 90.6717C96.9507 91.0263 100.015 92.4197 101.975 93.7692C103.935 95.1179 106.554 97.2823 107.794 98.5804L110.05 100.94L105.805 104.711Z" fill="#E0FB92"/>
<path d="M43.1547 190.715C27.2472 184.754 19.1856 167.03 25.1465 151.122" stroke="#8366F4" stroke-width="1.5" stroke-miterlimit="10"/>
<path d="M199.118 40.3003C191.479 28.7471 181.522 20.4634 166.047 21.8228" stroke="#F3FBFD" stroke-width="1.5" stroke-miterlimit="10"/>
</svg>
