<svg width="201" height="181" viewBox="0 0 201 181" fill="none" xmlns="http://www.w3.org/2000/svg">
<mask id="path-1-outside-1_263_7300" maskUnits="userSpaceOnUse" x="40.0195" y="12.373" width="43" height="52" fill="black">
<rect fill="white" x="40.0195" y="12.373" width="43" height="52"/>
<path fill-rule="evenodd" clip-rule="evenodd" d="M79.9729 32.5996C81.1645 32.5996 82.1211 31.5936 81.9251 30.4182C80.3129 20.7483 71.8313 13.373 61.6103 13.373C50.2383 13.373 41.0195 22.5029 41.0195 33.765V54.157C41.0195 56.9398 41.5824 59.5924 42.6015 62.0093C42.8834 62.6777 43.5531 63.0869 44.2785 63.0869C45.7967 63.0869 46.7466 61.36 46.2035 59.9423C45.5147 58.1442 45.1377 56.1942 45.1377 54.157V33.765C45.1377 24.7553 52.5127 17.4514 61.6103 17.4514C69.6447 17.4514 76.3357 23.1479 77.7898 30.6851C77.996 31.7535 78.8847 32.5996 79.9729 32.5996Z"/>
</mask>
<path fill-rule="evenodd" clip-rule="evenodd" d="M79.9729 32.5996C81.1645 32.5996 82.1211 31.5936 81.9251 30.4182C80.3129 20.7483 71.8313 13.373 61.6103 13.373C50.2383 13.373 41.0195 22.5029 41.0195 33.765V54.157C41.0195 56.9398 41.5824 59.5924 42.6015 62.0093C42.8834 62.6777 43.5531 63.0869 44.2785 63.0869C45.7967 63.0869 46.7466 61.36 46.2035 59.9423C45.5147 58.1442 45.1377 56.1942 45.1377 54.157V33.765C45.1377 24.7553 52.5127 17.4514 61.6103 17.4514C69.6447 17.4514 76.3357 23.1479 77.7898 30.6851C77.996 31.7535 78.8847 32.5996 79.9729 32.5996Z" fill="#3418D8"/>
<path d="M77.7898 30.6851L78.7717 30.4956L77.7898 30.6851ZM42.6015 62.0093L41.6801 62.3978L42.6015 62.0093ZM81.9251 30.4182L80.9388 30.5826L81.9251 30.4182ZM82.9115 30.2537C81.2191 20.1026 72.3211 12.373 61.6103 12.373V14.373C71.3415 14.373 79.4068 21.3939 80.9388 30.5826L82.9115 30.2537ZM61.6103 12.373C49.6952 12.373 40.0195 21.9414 40.0195 33.765H42.0195C42.0195 23.0643 50.7815 14.373 61.6103 14.373V12.373ZM40.0195 33.765V54.157H42.0195V33.765H40.0195ZM40.0195 54.157C40.0195 57.0758 40.6101 59.8604 41.6801 62.3978L43.5229 61.6207C42.5547 59.3245 42.0195 56.8038 42.0195 54.157H40.0195ZM47.1373 59.5846C46.4916 57.8988 46.1377 56.0699 46.1377 54.157H44.1377C44.1377 56.3185 44.5379 58.3897 45.2697 60.3L47.1373 59.5846ZM46.1377 54.157V33.765H44.1377V54.157H46.1377ZM46.1377 33.765C46.1377 25.3167 53.0559 18.4514 61.6103 18.4514V16.4514C51.9696 16.4514 44.1377 24.1939 44.1377 33.765H46.1377ZM61.6103 18.4514C69.1632 18.4514 75.4441 23.8057 76.8079 30.8745L78.7717 30.4956C77.2272 22.4901 70.1262 16.4514 61.6103 16.4514V18.4514ZM76.8079 30.8745C77.0908 32.3404 78.3348 33.5996 79.9729 33.5996V31.5996C79.4347 31.5996 78.9012 31.1666 78.7717 30.4956L76.8079 30.8745ZM41.6801 62.3978C42.1311 63.4675 43.1853 64.0869 44.2785 64.0869V62.0869C43.9208 62.0869 43.6356 61.888 43.5229 61.6207L41.6801 62.3978ZM44.2785 64.0869C45.4513 64.0869 46.3686 63.4129 46.8752 62.5545C47.3766 61.7048 47.5266 60.6008 47.1373 59.5846L45.2697 60.3C45.4235 60.7014 45.3701 61.1698 45.1528 61.538C44.9406 61.8975 44.6239 62.0869 44.2785 62.0869V64.0869ZM80.9388 30.5826C81.0208 31.0745 80.6239 31.5996 79.9729 31.5996V33.5996C81.7052 33.5996 83.2215 32.1126 82.9115 30.2537L80.9388 30.5826Z" fill="#3418D8" mask="url(#path-1-outside-1_263_7300)"/>
<path d="M61.0877 116.225C82.1586 116.225 99.2399 99.1874 99.2399 78.1709C99.2399 57.1544 82.1586 40.1172 61.0877 40.1172C40.0169 40.1172 22.9355 57.1544 22.9355 78.1709C22.9355 99.1874 40.0169 116.225 61.0877 116.225Z" fill="#3418D8"/>
<path d="M61.0885 110.184C78.8147 110.184 93.1847 95.8512 93.1847 78.1707C93.1847 60.4901 78.8147 46.1572 61.0885 46.1572C43.3622 46.1572 28.9922 60.4901 28.9922 78.1707C28.9922 95.8512 43.3622 110.184 61.0885 110.184Z" fill="#1B242C"/>
<path d="M117.115 38.803C122.618 34.8919 129.182 34.2806 133.36 36.8441L155.576 50.4507" stroke="#E0FB92" stroke-width="2.5" stroke-miterlimit="10"/>
<path d="M26.791 141.922C25.4218 141.079 25.444 139.105 26.7993 138.286L26.8868 138.238L121.865 86.9413C121.865 86.9413 121.865 86.9413 121.865 86.9412C125.235 85.1226 129.326 85.233 132.598 87.2304L190.103 122.456L190.104 122.456C191.545 123.336 191.491 125.447 189.998 126.258L94.4156 177.883L94.415 177.883C91.4807 179.471 87.9177 179.374 85.075 177.628L85.0742 177.627L26.7915 141.922C26.7913 141.922 26.7912 141.922 26.791 141.922Z" fill="#1B242C" stroke="#F3FBFD" stroke-width="1.5" stroke-miterlimit="10"/>
<path d="M27.0206 126.735L27.0204 126.735L121.992 75.4448C121.992 75.4447 121.992 75.4447 121.992 75.4447C125.361 73.626 129.453 73.7364 132.725 75.7338L190.23 110.959L190.231 110.96C191.672 111.839 191.618 113.95 190.125 114.761L94.5426 166.386L94.542 166.387C91.6076 167.975 88.0447 167.877 85.2019 166.131L85.2011 166.131L26.9185 130.426C26.9183 130.426 26.9181 130.425 26.9179 130.425C25.5177 129.563 25.5727 127.518 27.0206 126.735Z" fill="#1B242C" stroke="#F3FBFD" stroke-width="1.5" stroke-miterlimit="10"/>
<path d="M28.0644 119.054C26.6953 118.211 26.7175 116.237 28.0726 115.418L28.1602 115.37L123.138 64.0732C123.138 64.0731 123.138 64.0731 123.138 64.0731C126.508 62.2544 130.599 62.3648 133.871 64.3623L191.377 99.5874L191.377 99.588C192.818 100.468 192.765 102.578 191.273 103.389C191.272 103.389 191.272 103.39 191.272 103.39L95.689 155.015L95.6885 155.015C92.7541 156.603 89.1911 156.506 86.3484 154.759L86.3476 154.759L28.065 119.054C28.0648 119.054 28.0646 119.054 28.0644 119.054Z" fill="#1B242C" stroke="#F3FBFD" stroke-width="1.5" stroke-miterlimit="10"/>
<path d="M29.5078 108.26C28.1517 107.426 28.1605 105.481 29.4775 104.648L29.597 104.583L124.582 53.2797C124.582 53.2797 124.582 53.2796 124.582 53.2796C127.951 51.461 132.043 51.5714 135.315 53.5688L192.82 88.794L192.821 88.7945C194.262 89.6744 194.208 91.7854 192.715 92.5962L97.1324 144.221L97.1318 144.222C94.1975 145.81 90.6345 145.712 87.7918 143.966L87.791 143.966L29.5083 108.261C29.5081 108.261 29.508 108.26 29.5078 108.26Z" fill="#141414" stroke="#11D58E" stroke-width="1.5" stroke-miterlimit="10"/>
<path d="M77.0471 131.952L57.8301 120.179C64.4664 115.762 65.9229 105.856 60.4332 102.228L119.192 70.2163C132.906 77.46 139.858 77.3285 146.014 73.0362L163.109 83.5073C156.031 90.4552 160.13 95.8518 168.084 100.716L104.074 134.975C99.5791 130.328 86.6491 124.932 77.0471 131.952Z" fill="#1B242C"/>
<path d="M78.0139 126.358L58.7969 114.585C65.4332 110.168 66.8897 100.262 61.4 96.634L120.158 64.6226C133.873 71.8662 140.825 71.7348 146.98 67.4425L164.076 77.9136C156.998 84.8614 161.097 90.258 169.051 95.1222L105.04 129.382C100.546 124.734 87.6159 119.338 78.0139 126.358V126.358Z" stroke="#E0FB92" stroke-width="1.5" stroke-miterlimit="10"/>
<path d="M110.201 86.2024L90.6348 96.7524L100.105 102.688C108.573 97.2651 114.814 99.0333 117.351 102.931C117.371 102.964 117.391 102.997 117.411 103.03L136.681 92.6704L127.744 87.0372C119.368 92.2957 112.745 90.1069 110.234 86.255C110.221 86.2352 110.208 86.2155 110.201 86.1958V86.2024Z" fill="#F3FBFD"/>
<path d="M51.1875 78.7755H62.6937V63.0708" stroke="#F3FBFD" stroke-width="3"/>
</svg>
