<svg width="528" height="428" viewBox="0 0 528 428" fill="none" xmlns="http://www.w3.org/2000/svg">
<path d="M470.318 335.207L149.317 313.351L148.331 94.1293C148.308 88.8398 152.714 84.619 157.969 84.9008L470.865 101.696C474.082 101.87 476.603 104.537 476.612 107.777L477.091 328.828C477.099 332.527 473.988 335.457 470.318 335.207Z" fill="#121220"/>
<path d="M466.363 329.759C466.381 334.213 462.618 337.747 458.176 337.442L151.349 316.395C147.331 316.119 144.211 312.775 144.211 308.742V99.0056C144.211 94.6032 147.904 91.1047 152.296 91.3468L460.945 108.37C463.485 108.51 465.474 110.605 465.485 113.152L466.365 329.759H466.363Z" fill="#232C34"/>
<path d="M458.718 337.927C458.528 337.927 458.337 337.92 458.145 337.908L151.318 316.86C147.072 316.568 143.746 313.005 143.746 308.742V99.0055C143.746 96.7469 144.649 94.6491 146.286 93.096C147.925 91.543 150.064 90.7539 152.321 90.8812L460.97 107.904C463.752 108.057 465.94 110.361 465.95 113.15L466.83 329.756C466.838 332.042 465.927 334.161 464.261 335.724C462.737 337.156 460.787 337.927 458.72 337.927H458.718ZM151.86 91.8018C150.017 91.8018 148.277 92.4948 146.926 93.7744C145.475 95.1479 144.676 97.0078 144.676 99.0055V308.742C144.676 312.514 147.621 315.671 151.38 315.929L458.207 336.977C460.224 337.121 462.146 336.43 463.621 335.046C465.095 333.662 465.904 331.785 465.896 329.761L465.016 113.154C465.005 110.858 463.206 108.963 460.916 108.835L152.269 91.8122C152.133 91.806 151.995 91.8018 151.86 91.8018V91.8018Z" fill="#121220"/>
<path d="M431.121 314.456C431.086 314.456 431.052 314.456 431.017 314.454L415.861 313.813C414.251 313.746 412.986 312.143 412.983 310.162L412.829 155.878C412.829 154.752 413.236 153.705 413.953 153.007C414.495 152.479 415.169 152.2 415.876 152.214L431.186 152.611C432.823 152.655 434.103 154.26 434.103 156.268V310.794C434.103 311.93 433.686 312.982 432.96 313.679C432.437 314.18 431.788 314.454 431.121 314.454V314.456ZM415.809 153.147C415.373 153.147 414.958 153.329 414.604 153.675C414.076 154.191 413.761 155.015 413.761 155.878L413.916 310.162C413.918 311.615 414.808 312.836 415.901 312.882L431.056 313.523C431.645 313.546 432.057 313.257 432.314 313.009C432.85 312.496 433.169 311.669 433.169 310.798V156.27C433.169 154.796 432.266 153.573 431.159 153.544L415.849 153.147C415.834 153.147 415.821 153.147 415.807 153.147H415.809Z" fill="#F3FBFD"/>
<path d="M402.244 312.59C402.213 312.59 402.18 312.59 402.146 312.59L386.99 312.114C385.376 312.063 384.111 310.817 384.106 309.279L383.952 184.897C383.952 184.154 384.248 183.451 384.79 182.918C385.364 182.353 386.163 182.027 386.995 182.054L402.305 182.35C403.914 182.382 405.226 183.655 405.226 185.189V309.753C405.226 310.502 404.924 311.208 404.373 311.742C403.812 312.285 403.043 312.592 402.244 312.592V312.59ZM402.175 311.656C402.761 311.677 403.32 311.46 403.725 311.07C404.092 310.713 404.296 310.245 404.296 309.751V185.187C404.296 184.158 403.395 183.302 402.288 183.281L386.978 182.985C386.402 182.956 385.843 183.192 385.445 183.582C385.082 183.939 384.884 184.405 384.886 184.895L385.041 309.277C385.043 310.308 385.912 311.145 387.022 311.18L402.177 311.656H402.175Z" fill="#F3FBFD"/>
<path d="M373.914 310.31C373.883 310.31 373.851 310.31 373.82 310.31L358.664 309.947C357.048 309.907 355.78 308.909 355.778 307.673L355.624 203.813C355.624 203.3 355.837 202.813 356.243 202.413C356.815 201.847 357.722 201.503 358.664 201.532L373.974 201.757C375.613 201.782 376.898 202.782 376.898 204.035V308.033C376.898 308.55 376.681 309.039 376.268 309.439C375.707 309.988 374.834 310.31 373.916 310.31H373.914ZM358.604 202.463C357.92 202.463 357.284 202.69 356.896 203.074C356.74 203.229 356.554 203.481 356.554 203.809L356.708 307.669C356.708 308.383 357.597 308.986 358.685 309.012L373.841 309.375C374.531 309.4 375.209 309.166 375.613 308.769C375.772 308.615 375.962 308.358 375.962 308.028V204.03C375.962 203.304 375.063 202.701 373.956 202.684L358.646 202.459C358.631 202.459 358.616 202.459 358.602 202.459L358.604 202.463Z" fill="#F3FBFD"/>
<path d="M345.35 308.909C345.316 308.909 345.285 308.909 345.252 308.909L330.096 308.496C328.48 308.452 327.214 307.344 327.21 305.974L327.056 193.026C327.056 192.418 327.31 191.832 327.773 191.374C328.355 190.8 329.201 190.481 330.096 190.496L345.406 190.752C347.045 190.779 348.328 191.89 348.328 193.278V306.384C348.328 306.995 348.069 307.584 347.598 308.043C347.028 308.596 346.213 308.911 345.35 308.911V308.909ZM330.036 191.427C329.406 191.427 328.822 191.648 328.428 192.038C328.226 192.237 327.986 192.568 327.988 193.023L328.142 305.972C328.142 306.82 329.033 307.534 330.121 307.563L345.277 307.976C345.938 307.997 346.538 307.774 346.949 307.375C347.154 307.177 347.398 306.843 347.398 306.384V193.278C347.398 192.418 346.497 191.702 345.391 191.683L330.081 191.427C330.067 191.427 330.052 191.427 330.036 191.427V191.427Z" fill="#F3FBFD"/>
<path d="M317.094 307.511C317.063 307.511 317.029 307.511 316.998 307.511L301.842 307.206C300.199 307.173 298.956 306.323 298.954 305.229L298.8 212.215C298.8 211.81 298.973 211.422 299.302 211.096C299.861 210.543 300.808 210.222 301.838 210.232L317.148 210.42C318.787 210.441 320.072 211.311 320.072 212.401V305.53C320.072 305.939 319.894 306.327 319.561 306.655C319.01 307.193 318.093 307.511 317.092 307.511H317.094ZM301.78 211.163C301.023 211.163 300.328 211.389 299.957 211.758C299.807 211.906 299.73 212.061 299.732 212.213L299.886 305.227C299.886 305.703 300.699 306.25 301.861 306.273L317.017 306.578C317.784 306.596 318.531 306.363 318.91 305.989C319.062 305.839 319.14 305.684 319.14 305.53V212.401C319.14 211.917 318.316 211.368 317.136 211.353L301.826 211.165C301.811 211.165 301.794 211.165 301.78 211.165V211.163Z" fill="#F3FBFD"/>
<path d="M289.613 305.179C289.584 305.179 289.555 305.179 289.528 305.179L274.372 305.023C273.89 305.018 271.486 304.935 271.48 303.778L271.325 255.774C271.325 255.632 271.367 255.417 271.575 255.21C272.09 254.695 273.354 254.536 274.361 254.523L289.671 254.622C291.021 254.63 292.599 254.962 292.599 255.87V303.933C292.599 304.077 292.555 304.292 292.347 304.499C291.838 305.002 290.618 305.181 289.615 305.181L289.613 305.179ZM289.536 304.246C290.72 304.259 291.479 304.008 291.665 303.856V255.943C291.49 255.801 290.777 255.559 289.663 255.553L274.353 255.454H274.303C273.164 255.454 272.435 255.697 272.255 255.845L272.41 303.699C272.583 303.841 273.283 304.079 274.38 304.089L289.536 304.246Z" fill="#F3FBFD"/>
<path d="M262.594 302.847H262.517L247.361 302.756C244.475 302.739 244.469 302.081 244.467 301.835L244.312 273.636C244.312 273.484 244.373 273.337 244.488 273.221C244.969 272.734 246.798 272.709 247.347 272.707L262.657 272.763C265.584 272.774 265.584 273.438 265.584 273.688V301.923C265.584 302.075 265.522 302.223 265.405 302.336C264.936 302.804 263.224 302.847 262.594 302.847V302.847ZM245.397 301.612C245.664 301.697 246.319 301.816 247.367 301.823L262.523 301.914C263.616 301.908 264.358 301.8 264.654 301.706V273.905C264.385 273.82 263.718 273.699 262.655 273.694L247.344 273.638C246.294 273.632 245.541 273.755 245.247 273.849L245.399 301.614L245.397 301.612Z" fill="#F3FBFD"/>
<path d="M235.971 300.052L220.815 299.96C219.462 299.952 218.386 299.75 218.384 299.501L218.229 271.302C218.227 271.045 219.385 270.837 220.796 270.843L236.107 270.899C237.477 270.903 238.571 271.108 238.571 271.359V299.593C238.571 299.852 237.393 300.061 235.971 300.052Z" fill="#E0FB92"/>
<path d="M313.714 313.754C313.714 313.754 313.693 313.754 313.685 313.754L161.197 304.085C159.967 304.004 158.993 302.975 158.983 301.741L158.067 209.51C158.065 209.253 158.272 209.042 158.528 209.038H158.532C158.787 209.038 158.995 209.245 158.997 209.499L159.913 301.731C159.919 302.48 160.509 303.104 161.256 303.154L313.741 312.823C313.998 312.84 314.194 313.061 314.177 313.318C314.163 313.564 313.956 313.754 313.712 313.754H313.714Z" fill="#F3FBFD"/>
<path d="M448.465 223.531C448.209 223.531 448 223.322 448 223.066V131.912C448 129.557 446.161 127.616 443.811 127.493L270.143 118.214C269.886 118.199 269.688 117.98 269.703 117.723C269.718 117.467 269.943 117.268 270.193 117.283L443.861 126.562C446.703 126.712 448.932 129.062 448.932 131.912V223.066C448.932 223.322 448.724 223.531 448.467 223.531H448.465Z" fill="#F3FBFD"/>
<path d="M245.603 116.899C245.603 116.899 245.587 116.899 245.578 116.899L235.456 116.358C235.2 116.344 235.002 116.124 235.016 115.868C235.031 115.611 235.256 115.408 235.506 115.427L245.628 115.968C245.885 115.982 246.083 116.202 246.068 116.458C246.056 116.707 245.849 116.899 245.603 116.899Z" fill="#F3FBFD"/>
<path d="M158.532 197.574C158.276 197.574 158.067 197.363 158.067 197.106L158.355 116.423C158.355 116.406 158.355 116.392 158.357 116.375C158.662 113.54 161.126 111.449 163.969 111.597L171.736 112.021L195.375 113.283C195.631 113.298 195.83 113.517 195.815 113.774C195.8 114.031 195.581 114.227 195.325 114.214L163.917 112.528C161.577 112.403 159.546 114.123 159.283 116.452L158.995 197.11C158.995 197.367 158.787 197.574 158.53 197.574H158.532Z" fill="#F3FBFD"/>
<path d="M503.53 365.963L503.543 380.294C503.549 384.637 498.526 388.99 488.431 392.36C468.245 399.095 435.305 399.38 414.202 393.082C413.856 392.98 413.515 392.874 413.175 392.766C402.483 389.402 397.113 384.928 397.107 380.442L397.095 366.112C397.101 370.597 402.47 375.071 413.162 378.435C413.503 378.543 413.843 378.646 414.19 378.751C435.292 385.049 468.232 384.764 488.419 378.029C498.511 374.662 503.537 370.306 503.53 365.963V365.963Z" fill="#8E7AFF"/>
<path d="M486.432 353.323C486.781 353.429 487.122 353.531 487.462 353.639C508.509 360.263 508.939 371.18 488.421 378.026C468.235 384.761 435.295 385.046 414.192 378.748C413.846 378.646 413.505 378.54 413.165 378.432C392.121 371.809 391.691 360.892 412.209 354.042C432.392 347.307 465.332 347.022 486.432 353.32V353.323Z" fill="#232C34"/>
<path d="M450.112 384.011C437.207 384.011 424.296 382.487 413.997 379.411C413.647 379.306 413.304 379.2 412.96 379.092C402.33 375.746 396.45 371.152 396.407 366.155C396.363 361.288 401.9 356.756 411.988 353.389C432.398 346.579 465.183 346.257 486.629 352.661C486.982 352.766 487.325 352.871 487.669 352.98C498.302 356.325 504.179 360.92 504.222 365.916C504.266 370.783 498.729 375.315 488.641 378.683C478.032 382.224 464.075 384.011 450.109 384.011H450.112ZM450.567 349.519C436.656 349.519 422.748 351.257 412.428 354.702C403.088 357.819 397.753 361.988 397.79 366.146C397.827 370.43 403.506 374.668 413.375 377.775C413.712 377.88 414.049 377.986 414.393 378.088C435.254 384.315 468.364 383.993 488.207 377.372C497.547 374.256 502.879 370.086 502.845 365.929C502.808 361.644 497.126 357.407 487.257 354.299C486.92 354.194 486.58 354.089 486.236 353.986C476.228 351 463.397 349.519 450.567 349.519Z" fill="#8E7AFF"/>
<path d="M506.477 346.087L506.489 360.418C506.495 364.761 501.473 369.114 491.378 372.484C471.191 379.219 438.251 379.504 417.148 373.206C416.802 373.104 416.461 372.998 416.121 372.89C405.429 369.526 400.06 365.052 400.053 360.566L400.041 346.236C400.047 350.721 405.416 355.195 416.109 358.559C416.449 358.667 416.789 358.77 417.136 358.875C438.239 365.173 471.179 364.888 491.365 358.153C501.457 354.786 506.483 350.43 506.477 346.087V346.087Z" fill="#5C56FA"/>
<path d="M489.373 333.448C489.723 333.553 490.063 333.655 490.404 333.764C511.451 340.387 511.881 351.304 491.363 358.15C471.176 364.885 438.236 365.17 417.134 358.872C416.787 358.77 416.447 358.665 416.106 358.556C395.062 351.933 394.632 341.016 415.15 334.166C435.334 327.432 468.273 327.147 489.373 333.445V333.448Z" fill="#232C34"/>
<path d="M453.053 364.135C440.148 364.135 427.24 362.611 416.938 359.535C416.588 359.429 416.242 359.324 415.898 359.216C405.268 355.87 399.391 351.276 399.348 346.279C399.305 341.412 404.841 336.88 414.93 333.509C435.336 326.7 468.121 326.378 489.571 332.781C489.923 332.887 490.267 332.992 490.61 333.1C501.244 336.446 507.124 341.04 507.167 346.037C507.21 350.904 501.674 355.436 491.585 358.807C480.977 362.348 467.02 364.135 453.053 364.135V364.135ZM453.508 329.643C439.597 329.643 425.69 331.381 415.369 334.826C406.029 337.942 400.694 342.115 400.731 346.27C400.768 350.554 406.447 354.792 416.316 357.896C416.653 358.001 416.994 358.107 417.334 358.209C438.193 364.436 471.309 364.113 491.149 357.493C500.489 354.377 505.824 350.204 505.787 346.05C505.75 341.765 500.068 337.527 490.199 334.42C489.861 334.315 489.521 334.21 489.178 334.107C479.169 331.121 466.339 329.64 453.508 329.64V329.643Z" fill="#5C56FA"/>
<path d="M498.04 326.059L498.053 340.389C498.059 344.733 493.036 349.085 482.941 352.456C462.755 359.191 429.815 359.476 408.712 353.178C408.365 353.075 408.025 352.97 407.684 352.862C396.992 349.497 391.623 345.024 391.617 340.538L391.604 326.207C391.611 330.693 396.98 335.166 407.672 338.531C408.013 338.639 408.353 338.741 408.7 338.847C429.802 345.145 462.742 344.86 482.929 338.125C493.021 334.758 498.046 330.402 498.04 326.059Z" fill="#5C56FA"/>
<path d="M480.939 313.419C481.289 313.524 481.63 313.627 481.97 313.735C503.017 320.358 503.447 331.275 482.929 338.122C462.743 344.856 429.803 345.141 408.7 338.843C408.353 338.741 408.013 338.636 407.673 338.527C386.629 331.904 386.199 320.987 406.716 314.141C426.9 307.406 459.84 307.121 480.939 313.419Z" fill="#232C34"/>
<path d="M444.618 344.107C431.713 344.107 418.805 342.583 408.503 339.506C408.153 339.401 407.806 339.296 407.463 339.187C396.833 335.842 390.956 331.247 390.912 326.251C390.869 321.384 396.405 316.852 406.494 313.481C426.901 306.672 459.686 306.35 481.135 312.753C481.488 312.858 481.831 312.964 482.175 313.072C492.808 316.418 498.685 321.012 498.728 326.009C498.772 330.876 493.235 335.408 483.147 338.775C472.538 342.316 458.581 344.104 444.615 344.104L444.618 344.107ZM445.073 309.615C431.162 309.615 417.254 311.353 406.934 314.798C397.594 317.914 392.259 322.087 392.296 326.241C392.333 330.526 398.012 334.764 407.881 337.868C408.218 337.973 408.555 338.078 408.899 338.181C429.76 344.407 462.87 344.088 482.713 337.465C492.053 334.348 497.385 330.179 497.351 326.021C497.314 321.737 491.632 317.499 481.763 314.392C481.426 314.287 481.085 314.181 480.742 314.079C470.734 311.093 457.903 309.612 445.073 309.612V309.615Z" fill="#5C56FA"/>
<path d="M508.498 309.556L508.511 323.887C508.517 328.231 503.494 332.583 493.399 335.954C473.213 342.688 440.273 342.973 419.17 336.675C418.823 336.573 418.483 336.468 418.143 336.359C407.45 332.995 402.081 328.522 402.075 324.036L402.062 309.705C402.069 314.191 407.438 318.664 418.13 322.029C418.471 322.137 418.811 322.239 419.158 322.344C440.26 328.642 473.2 328.358 493.387 321.623C503.479 318.255 508.504 313.9 508.498 309.556V309.556Z" fill="#8E7AFF"/>
<path d="M491.395 296.92C491.745 297.026 492.086 297.128 492.426 297.236C513.473 303.859 513.903 314.776 493.385 321.623C473.199 328.358 440.259 328.643 419.156 322.345C418.809 322.242 418.469 322.137 418.129 322.029C397.085 315.405 396.655 304.488 417.172 297.642C437.356 290.907 470.296 290.622 491.395 296.92V296.92Z" fill="#232C34"/>
<path d="M455.076 327.605C442.171 327.605 429.26 326.08 418.961 323.004C418.611 322.899 418.264 322.794 417.921 322.685C407.291 319.339 401.414 314.745 401.37 309.748C401.327 304.882 406.863 300.349 416.952 296.979C437.359 290.17 470.147 289.848 491.593 296.251C491.946 296.356 492.289 296.462 492.633 296.57C503.266 299.916 509.143 304.51 509.186 309.507C509.23 314.374 503.693 318.906 493.605 322.273C482.996 325.814 469.039 327.602 455.073 327.602L455.076 327.605ZM455.531 293.113C441.62 293.113 427.712 294.851 417.392 298.295C408.052 301.412 402.717 305.585 402.754 309.739C402.791 314.023 408.47 318.261 418.339 321.366C418.676 321.471 419.013 321.576 419.357 321.678C440.218 327.905 473.328 327.583 493.171 320.963C502.508 317.846 507.843 313.677 507.809 309.519C507.772 305.235 502.09 300.994 492.221 297.89C491.884 297.784 491.543 297.679 491.2 297.577C481.192 294.59 468.361 293.11 455.531 293.11V293.113Z" fill="#8E7AFF"/>
<path d="M496.128 293.215L496.14 307.545C496.147 311.889 491.124 316.241 481.029 319.612C460.842 326.347 427.903 326.632 406.8 320.334C406.453 320.231 406.113 320.126 405.772 320.018C395.08 316.653 389.711 312.18 389.705 307.694L389.692 293.363C389.699 297.849 395.068 302.322 405.76 305.687C406.1 305.795 406.441 305.897 406.787 306.003C427.89 312.301 460.83 312.016 481.017 305.281C491.108 301.913 496.134 297.558 496.128 293.215Z" fill="#5C56FA"/>
<path d="M479.027 280.575C479.377 280.681 479.717 280.783 480.058 280.891C501.105 287.515 501.535 298.431 481.017 305.278C460.831 312.013 427.891 312.298 406.788 306C406.441 305.897 406.101 305.792 405.761 305.684C384.717 299.06 384.286 288.143 404.804 281.297C424.988 274.562 457.928 274.277 479.027 280.575Z" fill="#232C34"/>
<path d="M442.706 311.26C429.801 311.26 416.893 309.736 406.59 306.659C406.241 306.554 405.897 306.449 405.554 306.34C394.923 302.995 389.044 298.4 389 293.403C388.957 288.537 394.493 284.001 404.582 280.634C424.988 273.825 457.777 273.503 479.223 279.906C479.576 280.011 479.919 280.117 480.266 280.225C490.896 283.571 496.776 288.165 496.819 293.162C496.863 298.029 491.326 302.561 481.238 305.928C470.629 309.469 456.672 311.257 442.706 311.257V311.26ZM443.16 276.768C429.25 276.768 415.342 278.506 405.021 281.95C395.682 285.067 390.346 289.237 390.384 293.394C390.421 297.679 396.099 301.916 405.968 305.024C406.306 305.129 406.643 305.234 406.987 305.337C427.848 311.563 460.958 311.241 480.801 304.621C490.141 301.504 495.473 297.335 495.439 293.177C495.402 288.893 489.72 284.655 479.851 281.548C479.514 281.439 479.173 281.337 478.83 281.235C468.822 278.249 455.991 276.768 443.16 276.768Z" fill="#5C56FA"/>
<path d="M505.137 274.792L505.149 289.123C505.155 293.466 500.133 297.818 490.038 301.189C469.851 307.924 436.911 308.209 415.809 301.911C415.462 301.809 415.122 301.703 414.781 301.595C404.089 298.23 398.72 293.757 398.714 289.271L398.701 274.94C398.707 279.426 404.077 283.9 414.769 287.264C415.109 287.372 415.45 287.475 415.796 287.58C436.899 293.878 469.839 293.593 490.025 286.858C500.117 283.491 505.143 279.135 505.137 274.792V274.792Z" fill="#F3FBFD"/>
<path d="M488.034 262.152C488.384 262.258 488.724 262.36 489.065 262.468C510.112 269.092 510.542 280.009 490.024 286.855C469.837 293.59 436.897 293.875 415.795 287.577C415.448 287.474 415.108 287.369 414.767 287.261C393.723 280.637 393.293 269.72 413.811 262.871C433.995 256.136 466.935 255.851 488.034 262.149V262.152Z" fill="#232C34"/>
<path d="M470.907 267.141L473.391 274.965L453.757 280.932C453.74 280.864 453.721 280.793 453.699 280.724C452.185 275.952 440.987 275.11 428.692 278.843L426.339 271.432L445.973 265.465C447.739 270.057 458.792 270.82 470.91 267.139L470.907 267.141Z" fill="#F3FBFD"/>
<path d="M451.714 292.84C438.809 292.84 425.901 291.316 415.599 288.243C415.25 288.137 414.903 288.032 414.559 287.924C403.929 284.578 398.049 279.984 398.009 274.987C397.966 270.12 403.502 265.585 413.591 262.217C434 255.408 466.785 255.086 488.232 261.489C488.584 261.595 488.928 261.7 489.271 261.808C499.905 265.154 505.782 269.748 505.825 274.745C505.868 279.612 500.332 284.144 490.243 287.512C479.635 291.053 465.678 292.837 451.711 292.837L451.714 292.84ZM452.169 258.348C438.259 258.348 424.351 260.086 414.03 263.531C404.69 266.647 399.355 270.82 399.392 274.975C399.429 279.259 405.108 283.497 414.977 286.604C415.315 286.709 415.655 286.815 415.998 286.917C436.857 293.144 469.97 292.822 489.81 286.201C499.15 283.085 504.482 278.915 504.448 274.758C504.411 270.473 498.729 266.235 488.86 263.128C488.523 263.023 488.182 262.918 487.839 262.815C477.83 259.829 465 258.348 452.169 258.348Z" fill="#F3FBFD"/>
<path d="M230.23 70.3054C230.143 70.3054 230.055 70.2803 229.976 70.2302C229.761 70.0883 229.701 69.8002 229.842 69.5852L231.2 67.5103C231.342 67.2953 231.629 67.2347 231.844 67.3746C232.059 67.5165 232.119 67.8046 231.978 68.0196L230.62 70.0945C230.531 70.2302 230.382 70.3054 230.23 70.3054V70.3054Z" fill="#8E7AFF"/>
<path d="M225.478 77.5654C225.391 77.5654 225.303 77.5403 225.224 77.4902C225.009 77.3483 224.949 77.0602 225.09 76.8452L226.448 74.7703C226.59 74.5553 226.878 74.4948 227.092 74.6346C227.307 74.7766 227.368 75.0646 227.226 75.2796L225.868 77.3545C225.779 77.4902 225.631 77.5654 225.478 77.5654Z" fill="#8E7AFF"/>
<path d="M226.004 71.1903C225.914 71.1903 225.825 71.1653 225.743 71.111L223.72 69.7438C223.508 69.5997 223.451 69.3096 223.595 69.0967C223.739 68.8837 224.029 68.8274 224.242 68.9714L226.265 70.3387C226.477 70.4827 226.533 70.7729 226.39 70.9858C226.3 71.1194 226.152 71.1903 226.004 71.1903Z" fill="#8E7AFF"/>
<path d="M233.088 75.9728C232.998 75.9728 232.908 75.9478 232.827 75.8935L230.804 74.5262C230.592 74.3822 230.535 74.092 230.679 73.8791C230.823 73.6662 231.113 73.6098 231.326 73.7539L233.348 75.1211C233.561 75.2652 233.617 75.5553 233.474 75.7682C233.384 75.9018 233.236 75.9728 233.088 75.9728Z" fill="#8E7AFF"/>
<path d="M486.4 212.075C486.327 212.075 486.252 212.059 486.183 212.021C485.956 211.9 485.868 211.618 485.989 211.391L487.148 209.199C487.269 208.971 487.551 208.884 487.778 209.005C488.005 209.126 488.093 209.408 487.972 209.635L486.813 211.827C486.729 211.986 486.567 212.075 486.4 212.075V212.075Z" fill="#E0FB92"/>
<path d="M482.342 219.744C482.269 219.744 482.194 219.728 482.125 219.69C481.898 219.569 481.81 219.287 481.931 219.06L483.091 216.868C483.212 216.64 483.493 216.553 483.721 216.674C483.948 216.795 484.035 217.077 483.914 217.304L482.755 219.496C482.672 219.655 482.509 219.744 482.342 219.744V219.744Z" fill="#E0FB92"/>
<path d="M482.273 213.349C482.198 213.349 482.121 213.33 482.05 213.292L479.908 212.119C479.683 211.996 479.6 211.712 479.723 211.487C479.846 211.261 480.129 211.178 480.355 211.301L482.496 212.474C482.721 212.597 482.805 212.881 482.682 213.106C482.596 213.261 482.438 213.349 482.273 213.349Z" fill="#E0FB92"/>
<path d="M489.767 217.453C489.692 217.453 489.615 217.434 489.544 217.396L487.403 216.223C487.177 216.1 487.094 215.816 487.217 215.591C487.34 215.365 487.624 215.282 487.849 215.405L489.99 216.578C490.216 216.701 490.299 216.985 490.176 217.21C490.09 217.365 489.932 217.453 489.767 217.453Z" fill="#E0FB92"/>
<path d="M250.2 62.7885C249.499 62.7885 248.798 62.6486 248.133 62.3668C246.786 61.799 245.743 60.7261 245.197 59.3505C244.079 56.5387 245.414 53.3199 248.171 52.1739C249.497 51.6228 250.957 51.627 252.279 52.1843C253.626 52.7521 254.668 53.825 255.215 55.2007C256.332 58.0124 254.998 61.2313 252.241 62.3773C251.582 62.6507 250.892 62.7885 250.2 62.7885V62.7885ZM250.212 52.6957C249.641 52.6957 249.071 52.8085 248.527 53.0339C246.238 53.9858 245.132 56.664 246.062 59.004C246.517 60.1458 247.38 61.035 248.496 61.5068C249.586 61.9681 250.79 61.9702 251.884 61.5151C254.174 60.5633 255.279 57.8851 254.349 55.5451C253.895 54.4012 253.031 53.514 251.918 53.0423C251.369 52.8106 250.792 52.6937 250.212 52.6937V52.6957Z" fill="#8E7AFF"/>
<path d="M496.598 199.901C496.516 199.901 496.433 199.899 496.349 199.895C494.94 199.83 493.647 199.215 492.704 198.165C491.745 197.096 491.268 195.708 491.357 194.255C491.539 191.291 494.072 188.997 496.996 189.126C498.406 189.191 499.698 189.807 500.641 190.857C501.6 191.925 502.078 193.313 501.988 194.766C501.811 197.647 499.417 199.901 496.596 199.901H496.598ZM496.75 190.055C494.416 190.055 492.435 191.925 492.287 194.315C492.214 195.516 492.609 196.664 493.399 197.545C494.172 198.407 495.236 198.912 496.393 198.966C498.814 199.085 500.908 197.171 501.06 194.712C501.133 193.512 500.739 192.364 499.949 191.483C499.175 190.621 498.112 190.116 496.954 190.061C496.885 190.057 496.819 190.057 496.75 190.057V190.055Z" fill="#11D482"/>
<path d="M337.693 84.1451C337.251 84.1451 336.809 84.0616 336.384 83.8967C335.464 83.5377 334.74 82.8321 334.346 81.9136C333.541 80.037 334.384 77.8411 336.223 77.0165C337.109 76.6199 338.098 76.5949 339.001 76.9476C339.92 77.3067 340.644 78.0122 341.04 78.9307C341.845 80.8073 341.002 83.0033 339.163 83.8278C338.692 84.0386 338.194 84.1451 337.695 84.1451H337.693ZM337.693 77.6323C337.322 77.6323 336.953 77.7116 336.605 77.8661C335.226 78.484 334.596 80.1331 335.203 81.5442C335.499 82.233 336.039 82.759 336.723 83.0262C337.393 83.2893 338.125 83.2705 338.782 82.9761C340.16 82.3603 340.79 80.7092 340.183 79.2981C339.887 78.6092 339.347 78.0832 338.661 77.816C338.346 77.6928 338.018 77.6323 337.691 77.6323H337.693Z" fill="black"/>
<path d="M371.213 26.8011C371.062 26.8011 370.916 26.7301 370.827 26.5944C370.683 26.3815 370.739 26.0913 370.952 25.9473L373.006 24.5613C373.219 24.4172 373.508 24.4736 373.652 24.6865C373.796 24.8994 373.74 25.1896 373.527 25.3336L371.473 26.7197C371.394 26.7739 371.302 26.799 371.213 26.799V26.8011Z" fill="#8E7AFF"/>
<path d="M364.022 31.6502C363.872 31.6502 363.726 31.5792 363.636 31.4435C363.492 31.2306 363.549 30.9405 363.761 30.7964L365.815 29.4104C366.028 29.2663 366.318 29.3227 366.462 29.5356C366.606 29.7485 366.549 30.0387 366.337 30.1827L364.283 31.5688C364.204 31.6231 364.112 31.6481 364.022 31.6481V31.6502Z" fill="#8E7AFF"/>
<path d="M366.975 25.9766C366.823 25.9766 366.675 25.9015 366.585 25.7658L365.249 23.7201C365.107 23.5051 365.167 23.217 365.384 23.0751C365.599 22.9352 365.889 22.9937 366.028 23.2108L367.365 25.2564C367.507 25.4715 367.446 25.7595 367.23 25.9015C367.15 25.9537 367.063 25.9766 366.975 25.9766Z" fill="#8E7AFF"/>
<path d="M371.65 33.1343C371.498 33.1343 371.35 33.0592 371.26 32.9235L369.923 30.8778C369.782 30.6628 369.842 30.3747 370.059 30.2328C370.274 30.0929 370.564 30.1514 370.703 30.3685L372.04 32.4142C372.182 32.6292 372.121 32.9172 371.904 33.0592C371.825 33.1114 371.738 33.1343 371.65 33.1343Z" fill="#8E7AFF"/>
<path d="M265.658 84.7379C265.526 84.7379 265.395 84.6836 265.303 84.5751C265.136 84.3789 265.159 84.0845 265.353 83.9175L308.821 46.6611C309.017 46.4941 309.311 46.517 309.477 46.7112C309.644 46.9074 309.621 47.2017 309.427 47.3687L265.96 84.6252C265.872 84.7003 265.764 84.7379 265.658 84.7379V84.7379Z" fill="#F3FBFD"/>
<path d="M321.399 59.6407C321.267 59.6407 321.138 59.5864 321.044 59.4779C320.877 59.2816 320.9 58.9873 321.094 58.8203L348.153 35.6269C348.349 35.4599 348.641 35.4807 348.81 35.677C348.977 35.8732 348.954 36.1675 348.76 36.3345L321.701 59.528C321.614 59.6031 321.505 59.6407 321.399 59.6407V59.6407Z" fill="#F3FBFD"/>
<path d="M290.241 379.322C279.428 379.322 268.387 378.338 258.2 375.704C257.95 375.639 257.802 375.385 257.867 375.136C257.931 374.886 258.186 374.736 258.434 374.802C298.094 385.062 350.932 370.099 351.462 369.947C351.706 369.876 351.967 370.018 352.038 370.266C352.109 370.513 351.967 370.772 351.719 370.842C351.322 370.957 321.778 379.324 290.241 379.324V379.322Z" fill="#E0FB92"/>
<path d="M290.065 386.265C277.239 386.265 263.509 385.043 252.232 381.163C251.988 381.079 251.859 380.814 251.942 380.57C252.026 380.326 252.291 380.196 252.535 380.282C282.602 390.629 330.407 381.904 330.887 381.814C331.139 381.768 331.383 381.935 331.429 382.188C331.475 382.44 331.308 382.685 331.055 382.731C330.753 382.787 311.7 386.265 290.063 386.265H290.065Z" fill="#11D582"/>
<path d="M245.328 377.967C244.925 377.967 244.523 377.892 244.135 377.744C243.307 377.426 242.65 376.802 242.289 375.99C241.929 375.178 241.904 374.274 242.223 373.446C242.542 372.617 243.163 371.959 243.974 371.598C244.786 371.237 245.688 371.212 246.516 371.532C247.344 371.849 248.001 372.473 248.362 373.283C248.723 374.095 248.748 374.999 248.428 375.83C248.112 376.658 247.488 377.316 246.677 377.677C246.245 377.869 245.784 377.967 245.326 377.967H245.328ZM245.328 372.241C244.996 372.241 244.667 372.31 244.356 372.45C243.151 372.986 242.606 374.406 243.144 375.612C243.405 376.197 243.876 376.644 244.473 376.873C245.069 377.103 245.72 377.086 246.304 376.825C246.887 376.564 247.334 376.093 247.563 375.496C247.792 374.899 247.776 374.247 247.515 373.663C247.254 373.078 246.783 372.632 246.187 372.402C245.909 372.296 245.62 372.241 245.33 372.241H245.328Z" fill="#11D582"/>
<path d="M360.132 372.068C360.066 372.068 359.999 372.053 359.936 372.024C359.784 371.953 359.682 371.807 359.669 371.64L358.931 362.505C358.919 362.351 358.983 362.203 359.102 362.105C359.221 362.009 359.38 361.975 359.528 362.019L369.124 364.864C369.295 364.914 369.422 365.058 369.451 365.236C369.481 365.411 369.408 365.589 369.262 365.693L360.403 371.98C360.324 372.037 360.228 372.066 360.134 372.066L360.132 372.068ZM359.913 363.109L360.531 370.749L367.94 365.49L359.911 363.111L359.913 363.109Z" fill="#11D582"/>
<path d="M391.408 87.42L367.93 43.6945C367.303 42.3356 365.501 42.0413 364.473 43.1309L328.842 84.341C328.275 84.9422 328.108 85.8252 328.421 86.5913C328.731 87.3573 329.465 87.875 330.291 87.9105C335.515 88.0692 340.74 88.2257 345.964 88.3844C346.723 88.4073 347.424 88.8018 347.839 89.4385C348.254 90.0752 348.331 90.8768 348.045 91.5823C340.509 110.165 325.86 138.483 297.821 163.665C240.516 215.135 175.106 213.666 157.803 213C157.803 223 157.803 232 157.804 243.334C176.194 243.236 252.621 240.74 313.3 181.296C346.437 148.832 361.251 112.734 367.951 91.4237C368.424 89.9165 369.874 88.9334 371.448 89.0523C377.433 89.5095 383.418 89.9666 389.402 90.4259C390.272 90.3674 391.033 89.8664 391.371 89.1171C391.725 88.3322 391.473 87.5911 391.41 87.4221L391.408 87.42Z" fill="#E0FB92"/>
<path d="M147.344 346.073C147.344 346.073 147.144 354.143 146.944 365.92C146.785 375.282 146.623 386.98 146.562 398.826H107.359C106.573 384.12 106.045 374.288 106.045 374.288C106.045 374.288 102.273 385.79 98.8177 398.826H55.2646C56.1676 383.749 56.9829 369.542 57.5001 360.38C57.8629 353.936 58.0819 349.987 58.0819 349.987L147.342 346.071L147.344 346.073Z" fill="#232C34"/>
<path d="M98.8181 399.294C98.7785 399.294 98.7389 399.29 98.6993 399.279C98.4511 399.212 98.3031 398.958 98.3677 398.709C101.788 385.809 105.566 374.261 105.604 374.146C105.674 373.934 105.883 373.8 106.108 373.829C106.331 373.858 106.5 374.042 106.513 374.265L107.826 398.803C107.841 399.06 107.643 399.279 107.387 399.294C107.128 399.315 106.911 399.11 106.896 398.853L105.718 376.846C104.434 380.899 101.756 389.566 99.2706 398.949C99.2164 399.158 99.0266 399.296 98.8202 399.296L98.8181 399.294Z" fill="#11D582"/>
<path d="M55.2648 399.294C55.2648 399.294 55.2461 399.294 55.2356 399.294C54.9792 399.279 54.7831 399.058 54.7998 398.801C55.7862 382.335 56.6244 367.646 57.0352 360.357C57.3981 353.913 57.617 349.966 57.617 349.966C57.6295 349.726 57.8235 349.536 58.0612 349.525L147.321 345.609C147.451 345.603 147.576 345.653 147.667 345.743C147.759 345.833 147.809 345.958 147.807 346.087C147.807 346.169 147.605 354.291 147.407 365.93C147.205 377.927 147.075 388.996 147.025 398.832C147.025 399.089 146.815 399.296 146.56 399.296H146.558C146.302 399.296 146.093 399.085 146.095 398.828C146.145 388.988 146.274 377.914 146.477 365.916C146.648 355.909 146.819 348.5 146.865 346.563L58.522 350.439C58.4574 351.617 58.2572 355.197 57.9632 360.411C57.5524 367.7 56.7141 382.39 55.7278 398.857C55.7132 399.106 55.5088 399.296 55.2627 399.296L55.2648 399.294Z" fill="#11D582"/>
<path d="M154.303 222.144C155.904 222.019 163.759 238.123 188.34 237.447C212.924 236.773 232.646 209.235 232.646 209.235C232.646 209.235 241.135 194.905 247.579 189.724C254.022 184.543 255.032 183.86 255.032 183.86C255.032 183.86 257.052 186.555 255.032 189.724C253.011 192.895 247.435 198.825 247.435 198.825C247.435 198.825 253.578 202.203 250.809 209.235C247.623 217.324 238.641 216.675 238.641 216.675C238.641 216.675 220.414 297.454 145.09 259.068L154.305 222.144H154.303Z" fill="#232C34"/>
<path d="M182.444 269.883C171.035 269.883 158.475 266.414 144.879 259.486C144.686 259.388 144.585 259.169 144.64 258.958L153.854 222.033C153.902 221.839 154.069 221.697 154.269 221.68C154.828 221.639 155.366 222.236 156.542 223.547C160.285 227.726 169.05 237.52 188.332 236.981C212.405 236.322 232.075 209.237 232.271 208.964C232.596 208.411 240.856 194.535 247.291 189.361C253.676 184.228 254.734 183.501 254.775 183.474C254.982 183.334 255.259 183.382 255.409 183.581C255.432 183.61 257.597 186.572 255.43 189.977C253.693 192.701 249.46 197.337 248.159 198.74C249.619 199.775 253.651 203.307 251.247 209.408C248.382 216.677 240.935 217.151 239.05 217.153C239.036 217.153 239.023 217.153 239.011 217.153C238.562 218.95 236.41 227.003 231.662 236.186C226.701 245.782 217.808 258.62 203.619 265.289C197.095 268.355 190.026 269.886 182.448 269.886L182.444 269.883ZM145.632 258.822C167.851 270.067 187.225 271.958 203.219 264.441C229.944 251.883 238.11 216.925 238.189 216.573C238.239 216.347 238.45 216.193 238.677 216.211C239.03 216.236 247.358 216.733 250.378 209.066C252.967 202.491 247.45 199.366 247.214 199.236C247.087 199.167 247.002 199.042 246.979 198.9C246.956 198.758 246.999 198.612 247.1 198.508C247.156 198.449 252.671 192.573 254.644 189.476C256.037 187.288 255.326 185.345 254.903 184.539C254.2 185.067 252.361 186.484 247.875 190.091C241.574 195.16 233.137 209.335 233.051 209.477C232.83 209.788 212.889 237.244 188.357 237.917C187.842 237.931 187.331 237.937 186.831 237.937C168.176 237.937 159.576 228.335 155.848 224.171C155.393 223.664 154.928 223.146 154.609 222.849L145.632 258.824V258.822Z" fill="#11D582"/>
<path d="M32.4668 259.068C32.4668 259.068 39.8445 211.404 65.9062 199.677C91.968 187.95 127.228 189.58 136.951 195.437C146.675 201.295 172.017 227.774 172.017 227.774L149.624 259.07C149.624 259.07 154.741 343.317 150.696 365.557C150.696 365.557 125.783 368.464 115.217 364.3C104.651 360.133 69.9079 354.299 53.3008 361.935L56.3182 255.273L32.4668 259.068V259.068Z" fill="#11D582"/>
<path d="M133.104 367.022C126.512 367.022 119.545 366.504 115.045 364.732C104.621 360.622 70.1432 354.702 53.4944 362.359C53.3484 362.426 53.1774 362.413 53.0439 362.323C52.9105 362.233 52.8312 362.083 52.8354 361.92L55.8382 255.822L32.5395 259.53C32.3935 259.555 32.2433 259.505 32.137 259.4C32.0306 259.296 31.9827 259.146 32.0056 258.997C32.0244 258.878 33.9157 246.88 38.9767 233.604C43.6623 221.311 52.1056 205.373 65.7141 199.251C77.4291 193.98 92.2846 190.87 107.545 190.496C120.448 190.179 132.086 191.962 137.191 195.036C146.856 200.858 171.316 226.365 172.353 227.448C172.507 227.609 172.526 227.859 172.395 228.041L150.097 259.202C150.349 263.419 155.076 344.062 151.152 365.634C151.114 365.836 150.952 365.991 150.747 366.014C150.161 366.083 141.972 367.018 133.104 367.018V367.022ZM75.8798 357.737C91.5965 357.737 108.577 361.179 115.387 363.864C125.057 367.675 147.265 365.456 150.297 365.131C154.176 342.687 149.208 259.935 149.158 259.098C149.152 258.991 149.181 258.885 149.244 258.797L171.412 227.815C168.668 224.966 145.736 201.272 136.711 195.836C131.746 192.847 120.309 191.118 107.568 191.429C92.4285 191.801 77.7002 194.882 66.0978 200.103C42.1838 210.863 34.0346 252.829 33.0337 258.507L56.2448 254.812C56.3825 254.789 56.5222 254.831 56.6244 254.923C56.7286 255.015 56.787 255.148 56.7828 255.286L53.7863 361.209C59.6897 358.689 67.6075 357.737 75.8777 357.737H75.8798Z" fill="#11D582"/>
<path d="M76.1922 340.418C75.9712 340.418 75.7731 340.259 75.7335 340.032C75.6897 339.779 75.8586 339.537 76.1109 339.491C96.899 335.813 109.786 326.516 116.936 319.362C124.669 311.626 127.521 304.698 127.55 304.629C127.646 304.389 127.92 304.276 128.157 304.372C128.395 304.468 128.512 304.739 128.414 304.98C128.385 305.051 125.459 312.154 117.595 320.022C110.351 327.269 97.3015 336.69 76.2736 340.41C76.2464 340.414 76.2193 340.416 76.1922 340.416V340.418Z" fill="#11D482"/>
<path d="M147.736 292.384H97.0205L112.906 235.675H163.622L147.736 292.384Z" fill="#8E7AFF"/>
<path d="M35.723 258.551L62.1247 253.923C62.1247 253.923 58.9905 291.303 110.92 271.199C110.92 271.199 109.006 265.604 109.275 259.069C109.546 252.533 113.452 258.858 113.998 264.168C114.544 269.479 126.737 267.324 134.065 265.231C141.392 263.137 151.009 264.508 134.065 273.864C117.12 283.22 113.408 279.047 113.408 279.047C113.408 279.047 91.7689 309.357 64.846 302.919C31.7297 295 35.723 258.553 35.723 258.553V258.551Z" fill="#232C34"/>
<path d="M72.3698 304.27C69.8904 304.27 67.3401 303.992 64.7398 303.37C47.4195 299.229 40.3254 287.234 37.4227 277.901C34.2885 267.823 35.2519 258.591 35.2603 258.499C35.2832 258.292 35.4396 258.127 35.644 258.09L62.0456 253.462C62.1853 253.437 62.3334 253.478 62.4397 253.577C62.5461 253.675 62.6024 253.817 62.5899 253.959C62.5794 254.08 61.689 266.095 70.3074 272.549C78.3483 278.571 91.8191 278.022 110.345 270.919C109.903 269.476 108.581 264.636 108.812 259.048C108.845 258.259 108.943 255.858 110.303 255.816C110.313 255.816 110.324 255.816 110.332 255.816C112.069 255.816 114.084 260.436 114.463 264.118C114.544 264.901 114.916 265.508 115.602 265.972C118.702 268.074 127.417 266.644 133.937 264.78C137.516 263.757 142.956 263.289 143.847 265.448C144.647 267.391 141.522 270.276 134.29 274.269C120.068 282.122 114.92 280.546 113.506 279.697C112.278 281.327 107.123 287.888 99.5096 293.764C92.916 298.853 83.3237 304.268 72.3719 304.268L72.3698 304.27ZM36.1569 258.947C36.0193 260.703 35.5772 268.85 38.3214 277.655C42.4419 290.877 51.4044 299.222 64.9566 302.464C67.4756 303.067 69.955 303.339 72.374 303.339C95.2056 303.341 112.837 279.047 113.031 278.776C113.112 278.661 113.243 278.588 113.385 278.582C113.533 278.576 113.664 278.632 113.758 278.738C113.79 278.77 117.612 282.421 133.842 273.457C143.136 268.324 143.192 266.306 142.988 265.809C142.479 264.573 138.287 264.513 134.196 265.682C130.782 266.656 119.313 269.616 115.082 266.748C114.167 266.128 113.648 265.277 113.539 264.216C113.139 260.334 111.106 256.751 110.343 256.751H110.334C110.207 256.756 109.823 257.194 109.746 259.089C109.481 265.462 111.348 270.992 111.366 271.048C111.448 271.284 111.327 271.545 111.093 271.635C92.0318 279.014 78.121 279.573 69.7465 273.294C61.8517 267.374 61.5764 257.065 61.639 254.482L36.1611 258.95L36.1569 258.947Z" fill="#11D582"/>
<path d="M105.448 177.953C103.232 179.984 98.8966 182.466 95.5038 180.756C92.9786 179.483 91.5668 176.185 91.6544 172.404C90.4846 172.5 88.9519 172.417 87.8571 171.45C86.1722 169.96 86.4871 167.219 86.5538 165.416C86.8583 157.099 82.0309 155.822 83.2132 150.18C84.1412 145.744 87.6215 143.101 88.2721 142.606C91.5585 140.112 93.7835 140.916 99.3094 139.467C108.606 137.029 108.902 133.019 115.026 133C115.381 133 123.715 133.092 126.545 138.855C128.845 143.544 126.159 149.242 123.38 152.236C119.783 156.112 117.199 154.196 113.587 157.448C107.248 163.155 112.034 171.914 105.446 177.951L105.448 177.953Z" fill="#F3FBFD"/>
<path d="M124.003 163.113L123.636 162.796C121.797 161.21 119.88 159.366 119.392 156.985C117.315 146.861 108.052 143.187 107.625 152.482C107.517 154.828 98.9586 154.707 99.9741 157.168C102.622 163.587 102.681 161.861 98.944 164.226C98.5207 164.243 98.1016 164.337 97.7033 164.52C95.7869 165.414 95.1092 168.019 96.1873 170.336C96.842 171.743 97.9973 172.711 99.2297 173.064V183.207C99.2297 187.008 96.9338 190.434 93.418 191.872L89.9961 193.272C89.9961 193.272 105.948 203.695 122.141 192.252L119.98 191.281C116.175 189.571 113.676 185.839 113.545 181.666L113.528 179.683C114.617 179.779 115.672 179.706 116.646 179.422C121.175 178.103 122.679 172.88 121.909 166.386L123.752 165.395C124.614 164.931 124.743 163.75 124.003 163.111V163.113Z" fill="#232C34"/>
<path d="M105.767 198.051C96.6191 198.051 89.8482 193.734 89.7439 193.665C89.598 193.569 89.5187 193.402 89.5354 193.231C89.5521 193.058 89.6626 192.909 89.8232 192.843L93.2451 191.442C96.6003 190.068 98.769 186.837 98.769 183.209V173.404C97.5011 172.933 96.398 171.883 95.7704 170.536C95.2032 169.317 95.0614 167.981 95.3763 166.779C95.6974 165.543 96.4564 164.593 97.5116 164.101C97.9099 163.915 98.3436 163.802 98.8024 163.769C99.4342 163.374 99.9513 163.097 100.37 162.873C101.136 162.464 101.384 162.314 101.405 162.105C101.44 161.75 101.1 160.967 100.537 159.671C100.264 159.043 99.9347 158.281 99.5489 157.348C99.3862 156.955 99.3925 156.563 99.5614 156.214C100.037 155.237 101.728 154.764 103.517 154.261C105.125 153.81 107.129 153.248 107.164 152.461C107.392 147.501 109.942 146.767 111.028 146.681C114.225 146.433 118.494 150.263 119.851 156.891C120.316 159.158 122.207 160.944 123.942 162.443L124.309 162.758C124.772 163.159 125.01 163.763 124.943 164.37C124.877 164.979 124.514 165.516 123.976 165.806L122.41 166.649C123.181 173.791 121.138 178.602 116.779 179.871C115.929 180.12 114.999 180.224 114.002 180.182L114.014 181.664C114.14 185.62 116.556 189.233 120.174 190.857L122.335 191.828C122.487 191.897 122.591 192.041 122.608 192.208C122.625 192.375 122.549 192.538 122.414 192.634C116.621 196.727 110.83 198.049 105.769 198.049L105.767 198.051ZM91.0514 193.348C94.3941 195.176 107.711 201.355 121.196 192.339L119.791 191.709C115.849 189.941 113.216 186.004 113.08 181.683L113.061 179.69C113.061 179.558 113.116 179.433 113.212 179.343C113.308 179.253 113.435 179.207 113.568 179.222C114.638 179.318 115.631 179.235 116.515 178.978C120.456 177.83 122.253 173.262 121.444 166.445C121.421 166.255 121.517 166.069 121.686 165.979L123.53 164.988C123.803 164.842 123.978 164.581 124.013 164.272C124.047 163.963 123.932 163.671 123.698 163.468L123.331 163.153C121.48 161.554 119.459 159.636 118.936 157.083C117.718 151.146 113.904 147.401 111.097 147.614C109.323 147.754 108.226 149.537 108.09 152.507C108.023 153.966 105.955 154.546 103.763 155.162C102.391 155.546 100.685 156.026 100.393 156.626C100.358 156.699 100.327 156.807 100.404 156.995C100.785 157.922 101.115 158.68 101.386 159.304C102.66 162.243 102.825 162.619 100.804 163.7C100.377 163.93 99.8429 164.213 99.1923 164.625C99.1235 164.668 99.0442 164.694 98.9629 164.696C98.5813 164.712 98.2247 164.796 97.8994 164.948C97.1008 165.32 96.5231 166.055 96.2729 167.017C96.0143 168.01 96.1332 169.121 96.6107 170.144C97.18 171.365 98.2081 172.292 99.3591 172.619C99.5593 172.676 99.6969 172.86 99.6969 173.068V183.211C99.6969 187.221 97.301 190.791 93.5954 192.308L91.0493 193.35L91.0514 193.348Z" fill="#11D582"/>
<path d="M113.529 180.151C113.506 180.151 113.481 180.151 113.458 180.145C107.023 179.157 104.137 174.25 104.018 174.043C103.889 173.82 103.966 173.536 104.189 173.408C104.412 173.279 104.696 173.356 104.825 173.58C104.852 173.628 107.621 178.308 113.598 179.226C113.852 179.266 114.027 179.504 113.987 179.758C113.952 179.99 113.754 180.155 113.529 180.155V180.151Z" fill="#11D582"/>
<path d="M227.017 127.491C233.687 121.377 234.297 111.177 228.38 104.708C222.463 98.2397 212.259 97.9522 205.589 104.066C198.919 110.18 198.309 120.381 204.226 126.849C210.143 133.318 220.347 133.605 227.017 127.491Z" fill="#232C34"/>
<path d="M216.46 132.63C210.235 132.63 204.182 129.371 201.029 123.669C198.287 118.709 198.251 112.787 200.939 107.827C201.062 107.602 201.344 107.516 201.571 107.639C201.798 107.762 201.882 108.044 201.758 108.272C199.225 112.95 199.258 118.538 201.846 123.218C206.142 130.987 216.126 133.962 224.102 129.849C227.991 127.843 230.817 124.481 232.062 120.379C233.286 116.342 232.825 112.065 230.763 108.336C226.467 100.567 216.483 97.5923 208.506 101.705C208.277 101.824 207.998 101.734 207.879 101.504C207.76 101.275 207.852 100.995 208.079 100.876C216.497 96.534 227.038 99.6777 231.576 107.883C233.761 111.835 234.249 116.369 232.95 120.648C231.632 124.994 228.64 128.555 224.525 130.678C221.959 132.004 219.191 132.63 216.46 132.63V132.63Z" fill="#A2A5FC"/>
<path d="M212.849 124.929L213.371 122.74C211.851 122.351 210.46 121.629 209.709 120.94L211.039 118.385C211.876 119.116 213.114 119.88 214.605 120.189C215.913 120.46 216.928 120.139 217.147 119.216C217.356 118.339 216.753 117.636 215.193 116.707C212.937 115.369 211.538 113.87 212.07 111.633C212.553 109.604 214.353 108.307 216.922 108.332L217.443 106.143L219.691 106.608L219.207 108.637C220.728 109.025 221.683 109.562 222.352 110.086L221.067 112.553C220.532 112.175 219.604 111.428 217.952 111.086C216.461 110.777 215.827 111.321 215.673 111.969C215.491 112.728 216.18 113.38 217.952 114.522C220.45 116.056 221.249 117.55 220.755 119.625C220.267 121.677 218.405 123.13 215.658 123.045L215.099 125.395L212.851 124.929H212.849Z" fill="#A2A5FC"/>
<path d="M262.692 135.14C268.36 132.024 270.511 125.042 267.495 119.545C264.48 114.048 257.441 112.117 251.772 115.232C246.104 118.348 243.953 125.33 246.969 130.827C249.984 136.325 257.023 138.256 262.692 135.14Z" fill="#232C34"/>
<path d="M256.887 137.464C255.094 137.464 253.282 137.08 251.58 136.273C248.634 134.872 246.44 132.413 245.402 129.351C244.349 126.24 244.607 122.886 246.132 119.905C249.251 113.81 256.764 111.215 262.878 114.123C266.327 115.763 268.711 119.341 269.257 123.694C269.289 123.948 269.109 124.182 268.853 124.216C268.602 124.245 268.365 124.067 268.333 123.811C267.818 119.715 265.685 116.49 262.478 114.966C256.812 112.271 249.852 114.678 246.959 120.331C245.55 123.086 245.31 126.182 246.282 129.05C247.239 131.872 249.262 134.137 251.979 135.429C257.644 138.124 264.605 135.717 267.497 130.064C267.614 129.835 267.896 129.743 268.125 129.862C268.354 129.979 268.444 130.261 268.327 130.49C266.077 134.889 261.538 137.464 256.887 137.464V137.464Z" fill="#E0FB92"/>
<path d="M257.2 132.164L257.004 130.568C255.888 130.687 254.777 130.549 254.101 130.275L254.356 128.232C255.098 128.511 256.118 128.716 257.194 128.551C258.136 128.407 258.737 127.937 258.655 127.265C258.576 126.627 257.999 126.303 256.722 126.071C254.877 125.737 253.565 125.082 253.365 123.452C253.184 121.972 254.068 120.654 255.794 120.028L255.598 118.431L257.221 118.183L257.402 119.663C258.518 119.544 259.291 119.663 259.869 119.851L259.623 121.825C259.171 121.706 258.361 121.437 257.171 121.619C256.095 121.784 255.805 122.308 255.863 122.779C255.932 123.335 256.553 123.598 258.026 123.921C260.082 124.326 260.989 125.128 261.174 126.641C261.358 128.138 260.472 129.576 258.612 130.204L258.822 131.92L257.2 132.169V132.164Z" fill="#E0FB92"/>
<path d="M274.49 163.014C275.578 155.988 270.947 149.438 264.147 148.383C257.347 147.328 250.953 152.168 249.865 159.194C248.777 166.22 253.408 172.77 260.208 173.825C267.008 174.88 273.402 170.04 274.49 163.014Z" fill="#232C34"/>
<path d="M262.063 174.844C260.657 174.844 259.246 174.612 257.878 174.145C254.479 172.984 251.745 170.521 250.181 167.206C246.978 160.426 249.745 152.17 256.349 148.799C260.342 146.76 265.022 146.893 268.869 149.154C269.09 149.283 269.165 149.569 269.036 149.793C268.907 150.014 268.621 150.089 268.398 149.96C264.828 147.86 260.482 147.739 256.772 149.632C250.613 152.776 248.033 160.483 251.023 166.81C252.481 169.895 255.023 172.187 258.18 173.264C261.287 174.324 264.626 174.078 267.58 172.571C273.74 169.427 276.32 161.72 273.33 155.393C273.219 155.16 273.319 154.882 273.551 154.771C273.782 154.661 274.061 154.761 274.17 154.993C277.373 161.773 274.606 170.03 268.002 173.4C266.123 174.36 264.096 174.844 262.063 174.844V174.844Z" fill="#E0FB92"/>
<path d="M264.548 168.406L263.793 166.807C262.671 167.317 261.464 167.559 260.665 167.505L260.227 165.286C261.099 165.321 262.231 165.181 263.297 164.639C264.231 164.163 264.694 163.466 264.377 162.793C264.075 162.155 263.359 162.017 261.95 162.215C259.91 162.505 258.317 162.274 257.546 160.641C256.847 159.161 257.314 157.481 258.899 156.233L258.144 154.634L259.75 153.813L260.448 155.293C261.57 154.784 262.419 154.642 263.086 154.636L263.51 156.779C262.997 156.813 262.06 156.809 260.88 157.412C259.815 157.955 259.694 158.602 259.917 159.074C260.179 159.629 260.92 159.689 262.567 159.516C264.85 159.228 266.075 159.752 266.79 161.265C267.497 162.762 267.069 164.568 265.345 165.866L266.156 167.582L264.55 168.402L264.548 168.406Z" fill="#E0FB92"/>
</svg>
