<svg width="200" height="180" viewBox="0 0 200 180" fill="none" xmlns="http://www.w3.org/2000/svg">
<path d="M9 40.9922L9 58.9922L38 38.9922L67 58.9922L67 40.9922L38 20.9922L9 40.9922Z" fill="#3418D8"/>
<path d="M9 70.9922L9 88.9922L38 68.9922L67 88.9922L67 70.9922L38 50.9922L9 70.9922Z" fill="#3418D8"/>
<path d="M150.24 104.969L150.244 104.89L150.244 104.89L150.244 104.887L150.244 104.884L150.244 104.88L150.244 104.877L150.244 104.875L150.245 104.863C149.996 104.587 149.732 104.499 149.496 104.5L149.5 104.336L35.0495 102.313L34.321 102.301L34.2843 103.029L33.6777 115.068C33.6777 115.068 33.6777 115.068 33.6777 115.068C33.2756 123.046 39.7035 130.164 49.8794 135.303C60.1099 140.469 74.3799 143.783 90.2688 144.062C106.154 144.343 120.726 141.537 131.449 136.742C142.111 131.976 149.218 125.116 149.624 117.159L149.625 117.159L150.213 105.506L150.232 105.121L150.232 105.121L150.232 105.121L150.232 105.119L150.232 105.113L150.233 105.091L150.237 105.022L150.24 104.969Z" fill="#1B242C" stroke="#F3FBFD" stroke-width="1.5" stroke-miterlimit="10"/>
<path d="M150.254 104.657C150.655 96.6872 144.24 89.5779 134.07 84.4411C123.845 79.2766 109.58 75.9633 93.6928 75.6842C77.8059 75.4052 63.2322 78.2118 52.5053 83.0084C41.8363 87.7791 34.7164 94.6506 34.3148 102.62C33.9133 110.589 40.3287 117.699 50.4985 122.835C60.7234 128 74.9888 131.313 90.8757 131.592C106.763 131.871 121.336 129.065 132.063 124.268C142.732 119.497 149.852 112.626 150.254 104.657Z" fill="#141414" stroke="#F3FBFD" stroke-width="1.5"/>
<path d="M133.24 92.4805L133.244 92.4019L133.244 92.4016L133.244 92.3986L133.244 92.3955L133.244 92.3919L133.244 92.389L133.244 92.387L133.245 92.3751C132.996 92.0989 132.732 92.0106 132.496 92.0117L132.5 91.8481L18.0495 89.8252L17.321 89.8123L17.2843 90.5412L16.6777 102.579C16.6777 102.579 16.6777 102.579 16.6777 102.579C16.2756 110.557 22.7035 117.675 32.8794 122.814C43.1099 127.981 57.3799 131.295 73.2688 131.574C89.1543 131.854 103.726 129.048 114.449 124.254C125.111 119.488 132.218 112.628 132.624 104.671L132.625 104.671L133.213 93.0181L133.232 92.633L133.232 92.6328L133.232 92.6324L133.232 92.6309L133.232 92.6249L133.233 92.6031L133.237 92.5341L133.24 92.4805Z" fill="#1B242C" stroke="#F3FBFD" stroke-width="1.5" stroke-miterlimit="10"/>
<path d="M133.254 92.1683C133.655 84.1989 127.24 77.0897 117.07 71.9529C106.845 66.7883 92.5797 63.475 76.6928 63.196C60.8059 62.9169 46.2322 65.7235 35.5053 70.5201C24.8363 75.2908 17.7164 82.1623 17.3148 90.1317C16.9133 98.101 23.3287 105.21 33.4985 110.347C43.7234 115.512 57.9888 118.825 73.8757 119.104C89.7625 119.383 104.336 116.576 115.063 111.78C125.732 107.009 132.852 100.138 133.254 92.1683Z" fill="#141414" stroke="#F3FBFD" stroke-width="1.5"/>
<path d="M150.24 79.9922L150.244 79.9136L150.244 79.9133L150.244 79.9103L150.244 79.9072L150.244 79.9036L150.244 79.9007L150.244 79.8987L150.245 79.8868C149.996 79.6106 149.732 79.5223 149.496 79.5234L149.5 79.3598L35.0495 77.3369L34.321 77.324L34.2843 78.0529L33.6777 90.091C33.6777 90.0911 33.6777 90.0911 33.6777 90.0911C33.2756 98.069 39.7035 105.187 49.8794 110.326C60.1099 115.493 74.3799 118.806 90.2688 119.086C106.154 119.366 120.726 116.56 131.449 111.766C142.111 106.999 149.218 100.139 149.624 92.1829L149.625 92.1828L150.213 80.5299L150.232 80.1447L150.232 80.1446L150.232 80.1442L150.232 80.1426L150.232 80.1366L150.233 80.1148L150.237 80.0458L150.24 79.9922Z" fill="#1B242C" stroke="#F3FBFD" stroke-width="1.5" stroke-miterlimit="10"/>
<path d="M150.254 79.68C150.655 71.7106 144.24 64.6014 134.07 59.4646C123.845 54.3 109.58 50.9868 93.6928 50.7077C77.8059 50.4286 63.2322 53.2353 52.5053 58.0318C41.8363 62.8025 34.7164 69.674 34.3148 77.6434C33.9133 85.6127 40.3287 92.722 50.4985 97.8588C60.7234 103.023 74.9888 106.337 90.8757 106.616C106.763 106.895 121.336 104.088 132.063 99.2916C142.732 94.5208 149.852 87.6493 150.254 79.68Z" fill="#141414" stroke="#F3FBFD" stroke-width="1.5"/>
<path d="M90.3375 87.5207L64.6727 85.5982L65.655 74.6501C77.7767 75.4988 87.9433 71.8618 88.4309 66.4763C88.4345 66.43 88.4388 66.3912 88.4345 66.3456L113.672 68.2321L112.687 79.2341C100.76 78.5049 90.8236 82.12 90.3461 87.4432C90.3483 87.466 90.3433 87.4971 90.3454 87.5199L90.3375 87.5207Z" fill="#F3FBFD"/>
<path d="M186.742 134.341L186.808 134.297L186.808 134.297L186.811 134.296L186.814 134.294L186.817 134.292L186.819 134.29L186.821 134.289L186.831 134.283C186.907 133.919 186.823 133.654 186.683 133.464L186.817 133.37L121.015 39.7061L120.596 39.1099L119.985 39.5097L109.901 46.1129C109.901 46.1129 109.901 46.1129 109.901 46.1129C103.219 50.4888 101.255 59.8765 103.099 71.1263C104.952 82.4365 110.683 95.9186 119.82 108.921C128.953 121.921 139.806 132.041 149.998 137.88C160.132 143.686 169.862 145.387 176.53 141.026L176.531 141.027L186.292 134.636L186.615 134.424L186.615 134.424L186.615 134.424L186.616 134.423L186.621 134.42L186.64 134.408L186.697 134.37L186.742 134.341Z" fill="#303D48" stroke="#F3FBFD" stroke-width="1.5" stroke-miterlimit="10"/>
<path d="M187.002 134.169C193.678 129.797 195.642 120.425 193.8 109.181C191.948 97.877 186.219 84.3987 177.084 71.3982C167.948 58.3977 157.093 48.2763 146.897 42.4356C136.756 36.6264 127.009 34.9227 120.334 39.294C113.658 43.6653 111.694 53.0377 113.536 64.2813C115.388 75.5858 121.117 89.064 130.252 102.065C139.388 115.065 150.242 125.186 160.438 131.027C170.58 136.836 180.327 138.54 187.002 134.169Z" fill="#141414" stroke="#F3FBFD" stroke-width="1.5"/>
<path d="M140.664 87.8524C137.839 83.2373 136.462 78.8979 137.286 75.5024C138.156 71.9139 140.871 71.4491 144.89 73.6525C146.275 74.4127 146.538 74.1532 146.351 72.6164C145.66 66.9237 149.212 64.7086 154.107 67.5963C159.156 70.5765 164.003 77.6689 164.834 83.5022C165.891 90.9278 166.758 98.2452 167.749 105.633C167.911 106.857 167.555 106.983 166.541 106.373C160.253 102.595 153.974 98.8877 147.686 95.1154C145.165 93.6037 142.901 91.134 140.664 87.8524Z" fill="#11D58E"/>
<path d="M95.4996 45.7512C96.4161 31.6604 108.573 20.9824 122.656 21.8984" stroke="#E0FB92" stroke-width="2.5" stroke-miterlimit="10"/>
</svg>
