<svg width="56" height="56" viewBox="0 0 56 56" fill="none" xmlns="http://www.w3.org/2000/svg">
<path d="M39.7385 24.034L43.7397 20.7689C44.9273 19.7997 44.242 17.876 42.7091 17.876H31.8892C31.183 17.876 30.5572 17.4213 30.339 16.7497L27.1317 6.87875C26.6438 5.37701 24.5192 5.377 24.0312 6.87875L20.824 16.7497C20.6058 17.4213 19.9799 17.876 19.2738 17.876H8.89486C7.31583 17.876 6.65929 19.8966 7.93676 20.8247L16.3335 26.9253C16.9048 27.3403 17.1438 28.0761 16.9256 28.7477L13.7088 38.648C13.2218 40.1469 14.9339 41.3956 16.2123 40.4739L21.8083 35.8516M42.3562 25.1262L45.2567 27.4943C49.4261 30.8986 48.7676 38.6034 43.7931 44.6961C38.8186 50.7888 31.3955 52.982 27.2261 49.5778L24.3256 47.2096M41.6698 24.5657C45.8389 27.9697 45.1836 35.6712 40.2062 41.7675C35.2287 47.8638 27.8139 50.0463 23.6448 46.6423C19.4757 43.2383 20.1309 35.5368 25.1084 29.4405C30.0858 23.3442 37.5006 21.1617 41.6698 24.5657ZM29.537 32.7355L26.7673 36.1277L30.1595 38.8974C31.6892 37.0239 34.4479 36.7452 36.3214 38.2749L39.0912 34.8826L35.6992 32.1131C34.1695 33.9866 31.4105 34.2652 29.537 32.7355Z" stroke="#3418D8" stroke-width="2.5"/>
</svg>
