<svg width="56" height="56" viewBox="0 0 56 56" fill="none" xmlns="http://www.w3.org/2000/svg">
<path d="M37.1891 37H50V39.8271C50 43.7851 45.8815 47 40.8109 47H28V44.1729C28 40.2149 32.1185 37 37.1891 37Z" stroke="#3418D8" stroke-width="2.5"/>
<path d="M28 47H15.1891C10.1185 47 6 43.7851 6 39.8271V37H18.8109C23.8815 37 28 40.2149 28 44.1729V47Z" stroke="#3418D8" stroke-width="2.5"/>
<path d="M28 56L28 34" stroke="#3418D8" stroke-width="2.5"/>
<path d="M27.6351 34.2076C36.2528 34.2076 43.2389 27.2216 43.2389 18.6038C43.2389 9.98606 36.2528 3 27.6351 3C19.0173 3 12.0312 9.98606 12.0312 18.6038C12.0312 27.2216 19.0173 34.2076 27.6351 34.2076Z" stroke="#3418D8" stroke-width="2.5"/>
<path d="M31.0836 13.1855H26.8937C25.3947 13.1855 24.1847 14.3956 24.1847 15.8945C24.1847 17.3935 25.3947 18.6035 26.8937 18.6035H28.3746C29.8736 18.6035 31.0836 19.8136 31.0836 21.3125C31.0836 22.8115 29.8736 24.0215 28.3746 24.0215H23.457" stroke="#3418D8" stroke-width="2.5"/>
</svg>
