<svg width="56" height="56" viewBox="0 0 56 56" fill="none" xmlns="http://www.w3.org/2000/svg">
<g clip-path="url(#clip0_117_5273)">
<path d="M31.4381 44.7747C42.1455 44.7747 50.8255 36.0947 50.8255 25.3874C50.8255 14.68 42.1455 6 31.4381 6C20.7308 6 12.0508 14.68 12.0508 25.3874C12.0508 36.0947 20.7308 44.7747 31.4381 44.7747Z" stroke="#3418D8" stroke-width="2.5" stroke-miterlimit="10"/>
<path d="M23.5039 34.2093L40.33 17.3477" stroke="#3418D8" stroke-width="2.5" stroke-miterlimit="10"/>
<path d="M37.3764 36.1297C39.0071 36.1297 40.329 34.8078 40.329 33.1772C40.329 31.5465 39.0071 30.2246 37.3764 30.2246C35.7457 30.2246 34.4238 31.5465 34.4238 33.1772C34.4238 34.8078 35.7457 36.1297 37.3764 36.1297Z" stroke="#3418D8" stroke-width="2.5" stroke-miterlimit="10"/>
<path d="M26.5991 21.3671C28.2297 21.3671 29.5516 20.0451 29.5516 18.4145C29.5516 16.7838 28.2297 15.4619 26.5991 15.4619C24.9684 15.4619 23.6465 16.7838 23.6465 18.4145C23.6465 20.0451 24.9684 21.3671 26.5991 21.3671Z" stroke="#3418D8" stroke-width="2.5" stroke-miterlimit="10"/>
<path d="M5.57419 51.6507L15.7361 41.4887" stroke="#3418D8" stroke-width="2.5" stroke-miterlimit="10"/>
<path d="M11.2775 37.3081L6.61912 41.9664" stroke="#3418D8" stroke-width="2.5" stroke-miterlimit="10"/>
<path d="M19.5536 45.6094L11.0005 54.1625" stroke="#3418D8" stroke-width="2.5" stroke-miterlimit="10"/>
</g>
<defs>
<clipPath id="clip0_117_5273">
<rect width="56" height="56" fill="white"/>
</clipPath>
</defs>
</svg>
