<svg width="56" height="56" viewBox="0 0 56 56" fill="none" xmlns="http://www.w3.org/2000/svg">
<path d="M29.4922 49.1024L29.4922 50.3524H29.4922L29.4922 49.1024ZM29.4922 19.2221L29.4922 17.9721L29.4922 17.9721L29.4922 19.2221ZM24.6389 49.1024L24.6389 50.3524L24.6389 49.1024ZM34.853 34.1669L36.103 34.1669L34.853 34.1669ZM24.6389 19.2314L24.6389 20.4814L24.6389 19.2314ZM14.4247 34.1669L15.6747 34.1669L14.4247 34.1669ZM20.2042 34.4274L18.9542 34.4274L18.9542 35.6774L20.2042 35.6774L20.2042 34.4274ZM20.2042 29.8375V28.5875H18.9542L18.9542 29.8375L20.2042 29.8375ZM24.7941 29.8375L26.0441 29.8374L26.0441 28.5875H24.7941V29.8375ZM29.384 34.4273L30.634 34.4273L30.634 33.1773L29.384 33.1773L29.384 34.4273ZM29.3841 39.0173L29.3841 40.2673L30.6341 40.2673L30.6341 39.0173L29.3841 39.0173ZM24.7945 39.0173L23.5445 39.0173L23.5445 40.2673L24.7945 40.2673L24.7945 39.0173ZM5.7921 18.7298C5.96976 19.3969 6.65457 19.7936 7.32168 19.616L18.1928 16.7209C18.8599 16.5432 19.2567 15.8584 19.079 15.1913C18.9013 14.5242 18.2165 14.1274 17.5494 14.3051L7.88622 16.8785L5.3128 7.2153C5.13514 6.54819 4.45033 6.15142 3.78322 6.32907C3.11612 6.50673 2.71934 7.19155 2.897 7.85865L5.7921 18.7298ZM25.5677 50.3524H29.4922V47.8524H25.5677V50.3524ZM29.4922 50.3524C32.8464 50.3524 35.743 48.3622 37.7467 45.4316C39.7546 42.4948 40.9563 38.5078 40.9563 34.1669L38.4563 34.1669C38.4563 38.0698 37.3718 41.5506 35.683 44.0206C33.99 46.4968 31.7794 47.8524 29.4922 47.8524L29.4922 50.3524ZM40.9563 34.1669C40.9563 29.8261 39.7546 25.8369 37.747 22.898C35.7436 19.9654 32.8471 17.9721 29.4922 17.9721L29.4922 20.4721C31.7787 20.4721 33.9893 21.8293 35.6827 24.3081C37.3717 26.7807 38.4563 30.2639 38.4563 34.1669L40.9563 34.1669ZM29.4922 17.9721L25.5677 17.9721L25.5677 20.4721L29.4922 20.4721L29.4922 17.9721ZM24.6389 50.3524C27.9926 50.3524 30.8892 48.3638 32.8931 45.4335C34.9012 42.4973 36.103 38.5101 36.103 34.1669L33.603 34.1669C33.603 38.0724 32.5183 41.553 30.8296 44.0223C29.1367 46.4977 26.9263 47.8524 24.6389 47.8524L24.6389 50.3524ZM36.103 34.1669C36.103 29.8237 34.9012 25.8365 32.8931 22.9003C30.8892 19.97 27.9926 17.9814 24.6389 17.9814L24.6389 20.4814C26.9263 20.4814 29.1367 21.8361 30.8296 24.3115C32.5183 26.7808 33.603 30.2614 33.603 34.1669L36.103 34.1669ZM24.6389 17.9814C21.2851 17.9814 18.3885 19.97 16.3846 22.9003C14.3765 25.8365 13.1747 29.8237 13.1747 34.1669L15.6747 34.1669C15.6747 30.2614 16.7594 26.7808 18.4481 24.3115C20.141 21.8361 22.3515 20.4814 24.6389 20.4814L24.6389 17.9814ZM13.1747 34.1669C13.1747 38.5101 14.3765 42.4973 16.3846 45.4335C18.3885 48.3638 21.2851 50.3524 24.6389 50.3524L24.6389 47.8524C22.3515 47.8524 20.141 46.4977 18.4481 44.0223C16.7594 41.553 15.6747 38.0724 15.6747 34.1669L13.1747 34.1669ZM21.4542 34.4274L21.4542 29.8374L18.9542 29.8375L18.9542 34.4274L21.4542 34.4274ZM20.2042 31.0875H24.7941V28.5875H20.2042V31.0875ZM23.5441 29.8375C23.5441 33.0627 26.1587 35.6773 29.384 35.6773L29.384 33.1773C27.5394 33.1773 26.0441 31.682 26.0441 29.8374L23.5441 29.8375ZM28.134 34.4273L28.1341 39.0173L30.6341 39.0173L30.634 34.4273L28.134 34.4273ZM29.3841 37.7673L24.7945 37.7673L24.7945 40.2673L29.3841 40.2673L29.3841 37.7673ZM26.0445 39.0173C26.0445 35.7919 23.4294 33.1774 20.2042 33.1774L20.2042 35.6774C22.0489 35.6774 23.5445 37.1728 23.5445 39.0173L26.0445 39.0173ZM50.633 30.118C50.633 16.6789 39.9025 5.75 26.6254 5.75V8.25C38.4849 8.25 48.133 18.0225 48.133 30.118H50.633ZM26.6254 5.75C17.7938 5.75 10.0848 10.5905 5.91842 17.7814L8.08158 19.0347C11.826 12.5721 18.7347 8.25 26.6254 8.25V5.75Z" fill="#3418D8"/>
</svg>
