<svg width="56" height="56" viewBox="0 0 56 56" fill="none" xmlns="http://www.w3.org/2000/svg">
<path d="M38.6526 41.6584C37.7416 45.2415 33.4042 48 25.1093 48C16.8144 48 9.16549 44.2153 9.16549 38.3448V34.2068M30.1132 42.4757C28.1753 42.9425 26.8087 42.9425 24.9167 42.9425C19.1873 42.9425 9.16549 39.0314 9.16549 33.2873C9.16549 31.9081 10.4093 30.5288 11.3716 29.991M47 27.3104V32.9558C47 39.0288 41.0211 42.5719 32.2284 42.5719C23.4358 42.5719 15.7851 39.2643 16.2886 33.4155M21.7978 35.0016C24.0754 36.9656 29.2091 37.4254 32.3979 37.4254C40.4486 37.4254 46.9751 32.8968 46.9751 27.3104C46.9751 21.7241 41.9642 19.4943 40.8698 18.9955M40.8698 18.9955C40.8698 25.0681 33.7377 29.991 24.9398 29.991C16.142 29.991 9.00991 25.0681 9.00991 18.9955C9.00991 12.9228 16.142 8 24.9398 8C33.7377 8 40.8698 12.9228 40.8698 18.9955ZM40.8698 19.9953V24.2201C40.8698 30.2931 33.7325 35.2155 24.9398 35.2155C16.1472 35.2155 9 30.2931 9 24.2201V19.9953M25.2177 14.2216H20.3221V19.1626C23.0258 19.1626 25.2176 21.3748 25.2176 24.1036L30.1132 24.1037L30.1132 19.163C27.4095 19.163 25.2177 16.9505 25.2177 14.2216Z" stroke="#3418D8" stroke-width="2.5"/>
</svg>
