<svg width="56" height="56" viewBox="0 0 56 56" fill="none" xmlns="http://www.w3.org/2000/svg">
<g clip-path="url(#clip0_117_5313)">
<mask id="path-1-inside-1_117_5313" fill="white">
<path d="M27.7891 52.0002L20.5491 52.0002C9.46074 52.0002 2.99947 41.2505 2.99947 28.0076C2.99947 14.7646 9.46074 4 20.5491 4L27.7891 4"/>
</mask>
<path d="M20.5491 4L20.5491 1.5L20.5491 4ZM27.7891 49.5002L20.5491 49.5002L20.5491 54.5002L27.7891 54.5002L27.7891 49.5002ZM20.5491 49.5002C15.9295 49.5002 12.2694 47.3058 9.67278 43.5486C7.0298 39.7244 5.49947 34.2594 5.49947 28.0076L0.499472 28.0076C0.499472 34.9988 2.19978 41.53 5.55952 46.3914C8.96561 51.3198 14.0804 54.5002 20.5491 54.5002L20.5491 49.5002ZM5.49947 28.0076C5.49947 21.7557 7.02983 16.2865 9.67335 12.4582C12.2707 8.69679 15.9309 6.5 20.5491 6.5L20.5491 1.5C14.079 1.5 8.96435 4.6855 5.55895 9.61713C2.19975 14.4819 0.499473 21.0164 0.499472 28.0076L5.49947 28.0076ZM20.5491 6.5L27.7891 6.5L27.7891 1.5L20.5491 1.5L20.5491 6.5Z" fill="#3418D8" mask="url(#path-1-inside-1_117_5313)"/>
<path d="M24 17.8945V39.3683" stroke="#3418D8" stroke-width="2.5"/>
<path d="M30.3164 21.6841V39.3684" stroke="#3418D8" stroke-width="2.5"/>
<path d="M36.6309 30.1743L36.6309 39.3684" stroke="#3418D8" stroke-width="2.5"/>
<path d="M35 22L52 38" stroke="#3418D8" stroke-width="2.5"/>
<path d="M44 37.918L52.2053 38.2052L51.918 29.9999" stroke="#3418D8" stroke-width="2.5" stroke-miterlimit="10"/>
<path d="M37.8951 44.2945C34.8377 48.4015 30.7726 50.7371 26.5025 50.7371C22.2325 50.7371 18.1674 48.4171 15.11 44.2945C12.0526 40.1876 10.1055 34.4348 10.1055 27.9923C10.1055 21.5498 12.0355 15.8126 15.0929 11.7057C18.1674 7.58312 22.2154 5.26318 26.4854 5.26318C30.7555 5.26318 34.8206 7.58312 37.878 11.7057" stroke="#3418D8" stroke-width="2.5"/>
</g>
<defs>
<clipPath id="clip0_117_5313">
<rect width="56" height="56" fill="white"/>
</clipPath>
</defs>
</svg>
