<svg width="56" height="56" viewBox="0 0 56 56" fill="none" xmlns="http://www.w3.org/2000/svg">
<path d="M48.5312 8.17529C48.5312 7.48494 47.9716 6.92529 47.2812 6.92529H36.0312C35.3409 6.92529 34.7812 7.48494 34.7812 8.17529C34.7812 8.86565 35.3409 9.42529 36.0312 9.42529H46.0312V19.4253C46.0312 20.1156 46.5909 20.6753 47.2812 20.6753C47.9716 20.6753 48.5312 20.1156 48.5312 19.4253V8.17529ZM8.47568 48.7486L48.1651 9.05918L46.3973 7.29141L6.70791 46.9808L8.47568 48.7486Z" fill="#3418D8"/>
<path d="M46.1719 40.6313C46.1719 44.9116 42.7021 48.3813 38.4219 48.3813C34.1417 48.3813 30.6719 44.9116 30.6719 40.6313C30.6719 36.3511 34.1417 32.8813 38.4219 32.8813C42.7021 32.8813 46.1719 36.3511 46.1719 40.6313Z" stroke="#3418D8" stroke-width="2.5"/>
<circle cx="15" cy="15" r="7.75" stroke="#3418D8" stroke-width="2.5"/>
</svg>
