<svg width="56" height="56" viewBox="0 0 56 56" fill="none" xmlns="http://www.w3.org/2000/svg">
<path d="M9.37983 23.3355C9.37983 35.5329 19.2678 45.421 31.4653 45.421C43.6628 45.421 53.5508 35.5329 53.5508 23.3355C53.5508 11.138 43.6628 1.25 31.4653 1.25C19.2678 1.25 9.37983 11.138 9.37983 23.3355Z" stroke="#3418D8" stroke-width="2.5"/>
<path d="M4.19668 51.9277L16.5391 38.3511" stroke="#3418D8" stroke-width="2.5"/>
<path d="M15.1842 22.4352C14.8929 22.8384 14.6597 23.187 14.4849 23.4598C14.6845 23.7396 14.952 24.1013 15.2843 24.5213C16.1042 25.5578 17.3105 26.9394 18.8522 28.3183C21.9547 31.0929 26.2933 33.75 31.5 33.75C36.6823 33.75 41.021 31.0937 44.1309 28.3175C45.6759 26.9382 46.8869 25.5561 47.7107 24.5193C48.0203 24.1295 48.2742 23.79 48.4695 23.5195C48.2616 23.2453 47.9905 22.899 47.6605 22.5008C46.798 21.4601 45.5403 20.0735 43.962 18.69C40.7774 15.8983 36.4388 13.25 31.5 13.25C25.8049 13.25 21.4693 15.923 18.5149 18.666C17.0399 20.0356 15.9269 21.4074 15.1842 22.4352Z" stroke="#3418D8" stroke-width="2.5"/>
<path d="M31.5 17.25C31.1225 17.25 30.7517 17.2863 30.3886 17.3544C30.5757 17.9651 30.648 18.6273 30.5709 19.3127C30.2804 21.9843 27.9081 23.9151 25.253 23.6966C25.3569 27.0576 28.1138 29.75 31.5 29.75C34.952 29.75 37.75 26.952 37.75 23.5C37.75 20.048 34.952 17.25 31.5 17.25Z" stroke="#3418D8" stroke-width="2.5"/>
</svg>
