<svg width="56" height="56" viewBox="0 0 56 56" fill="none" xmlns="http://www.w3.org/2000/svg">
<g clip-path="url(#clip0_108_3940)">
<path d="M32.8087 15.5763C34.9687 18.3993 37.9628 20.709 40.1014 23.5961C45.9826 31.509 47.4154 42.9613 39.6523 50.2647C36.455 53.2695 31.9532 54.9055 26.3394 54.5206C20.7255 54.1356 16.491 51.8901 13.7429 48.479C10.5136 44.4584 9.46566 39.1867 9.98963 34.1395C10.4494 29.6057 12.1603 23.4999 15.5393 20.2278C16.1916 21.8318 16.6407 23.3823 17.9025 24.7082L19.5813 26.4726L19.7524 24.0453C19.7631 23.8849 19.7738 23.6924 19.7845 23.4678C20.255 15.2769 22.8641 5.47135 31.1833 1.99609C30.9374 2.96917 30.6808 4.22026 30.5204 5.61036C30.1675 8.77551 30.4455 12.1759 32.3061 14.8813C32.4772 15.1272 32.6483 15.3625 32.8194 15.587L32.8087 15.5763Z" stroke="#3418D8" stroke-width="2.5"/>
<circle cx="28" cy="44" r="10.75" stroke="#3418D8" stroke-width="2.5"/>
</g>
<defs>
<clipPath id="clip0_108_3940">
<rect width="56" height="56" fill="white"/>
</clipPath>
</defs>
</svg>
