<svg width="56" height="56" viewBox="0 0 56 56" fill="none" xmlns="http://www.w3.org/2000/svg">
<g clip-path="url(#clip0_117_5124)">
<mask id="path-1-inside-1_117_5124" fill="white">
<path d="M38.1313 33.0332V35.8286C38.1313 39.847 33.3648 43.1041 27.4928 43.1041C21.6207 43.1041 16.8477 39.847 16.8477 35.8286V33.0332"/>
</mask>
<path d="M35.6313 33.0332V35.8286H40.6313V33.0332H35.6313ZM35.6313 35.8286C35.6313 36.7708 35.0742 37.9036 33.603 38.9095C32.1441 39.907 29.9908 40.6041 27.4928 40.6041V45.6041C30.8667 45.6041 34.0327 44.6727 36.425 43.037C38.8051 41.4097 40.6313 38.9048 40.6313 35.8286H35.6313ZM27.4928 40.6041C24.9946 40.6041 22.8393 39.9069 21.3784 38.9089C19.9048 37.9023 19.3477 36.7694 19.3477 35.8286H14.3477C14.3477 38.9062 16.177 41.411 18.558 43.0376C20.9517 44.6727 24.1189 45.6041 27.4928 45.6041V40.6041ZM19.3477 35.8286V33.0332H14.3477V35.8286H19.3477Z" fill="#3418D8" mask="url(#path-1-inside-1_117_5124)"/>
<path d="M36.8805 21.4093C36.8805 22.8852 36.0067 24.361 34.3089 25.522C32.6172 26.679 30.2109 27.4348 27.492 27.4348C24.7731 27.4348 22.3668 26.679 20.6751 25.522C18.9773 24.361 18.1035 22.8852 18.1035 21.4093C18.1035 19.9334 18.9773 18.4576 20.6751 17.2965C22.3668 16.1396 24.7731 15.3838 27.492 15.3838C30.2109 15.3838 32.6172 16.1396 34.3089 17.2965C36.0067 18.4576 36.8805 19.9334 36.8805 21.4093Z" stroke="#3418D8" stroke-width="2.5"/>
<mask id="path-4-inside-2_117_5124" fill="white">
<path d="M38.1313 28.5835V31.3789C38.1313 35.3973 33.3648 38.6544 27.4928 38.6544C21.6207 38.6544 16.8477 35.3973 16.8477 31.3789V28.5835"/>
</mask>
<path d="M35.6313 28.5835V31.3789H40.6313V28.5835H35.6313ZM35.6313 31.3789C35.6313 32.3211 35.0742 33.4539 33.603 34.4598C32.1441 35.4573 29.9908 36.1544 27.4928 36.1544V41.1544C30.8667 41.1544 34.0327 40.223 36.425 38.5873C38.8051 36.96 40.6313 34.4551 40.6313 31.3789H35.6313ZM27.4928 36.1544C24.9946 36.1544 22.8393 35.4572 21.3784 34.4592C19.9048 33.4526 19.3477 32.3197 19.3477 31.3789H14.3477C14.3477 34.4565 16.177 36.9613 18.558 38.5879C20.9517 40.223 24.1189 41.1544 27.4928 41.1544V36.1544ZM19.3477 31.3789V28.5835H14.3477V31.3789H19.3477Z" fill="#3418D8" mask="url(#path-4-inside-2_117_5124)"/>
<mask id="path-6-inside-3_117_5124" fill="white">
<path d="M38.1313 23.7573V26.5527C38.1313 30.5711 33.3648 33.8282 27.4928 33.8282C21.6207 33.8282 16.8477 30.5711 16.8477 26.5527V23.7573"/>
</mask>
<path d="M35.6313 23.7573V26.5527H40.6313V23.7573H35.6313ZM35.6313 26.5527C35.6313 27.495 35.0742 28.6278 33.603 29.6336C32.1441 30.6311 29.9908 31.3282 27.4928 31.3282V36.3282C30.8667 36.3282 34.0327 35.3968 36.425 33.7611C38.8051 32.1338 40.6313 29.6289 40.6313 26.5527H35.6313ZM27.4928 31.3282C24.9946 31.3282 22.8393 30.631 21.3784 29.6331C19.9048 28.6265 19.3477 27.4935 19.3477 26.5527H14.3477C14.3477 29.6303 16.177 32.1352 18.558 33.7617C20.9517 35.3968 24.1189 36.3282 27.4928 36.3282V31.3282ZM19.3477 26.5527V23.7573H14.3477V26.5527H19.3477Z" fill="#3418D8" mask="url(#path-6-inside-3_117_5124)"/>
<path d="M0.998047 29.0638C0.998047 14.1174 12.9265 2 27.6399 2C37.4282 2 45.9846 7.36325 50.6151 15.3552" stroke="#3418D8" stroke-width="2.5" stroke-miterlimit="10"/>
<path d="M43.5 14.7129L51.3514 17.1141L53.1976 9.11399" stroke="#3418D8" stroke-width="2.5" stroke-miterlimit="10"/>
<path d="M53.9991 28.064C53.9991 42.3876 42.1303 54.0001 27.4905 54.0001C18.3397 54.0001 10.2736 49.4643 5.50977 42.5667" stroke="#3418D8" stroke-width="2.5" stroke-miterlimit="10"/>
<path d="M12.6973 43.2007L4.84589 40.7995L2.99969 48.7996" stroke="#3418D8" stroke-width="2.5" stroke-miterlimit="10"/>
</g>
<defs>
<clipPath id="clip0_117_5124">
<rect width="56" height="56" fill="white"/>
</clipPath>
</defs>
</svg>
