<svg width="56" height="56" viewBox="0 0 56 56" fill="none" xmlns="http://www.w3.org/2000/svg">
<g clip-path="url(#clip0_117_4795)">
<path d="M43.7293 24.2339C43.7293 27.0027 42.0892 29.649 39.1525 31.6574C36.2219 33.6616 32.104 34.9415 27.4945 34.9415C22.8851 34.9415 18.7672 33.6616 15.8366 31.6574C12.8999 29.649 11.2598 27.0027 11.2598 24.2339C11.2598 21.4651 12.8999 18.8188 15.8366 16.8104C18.7672 14.8062 22.8851 13.5264 27.4945 13.5264C32.104 13.5264 36.2219 14.8062 39.1525 16.8104C42.0892 18.8188 43.7293 21.4651 43.7293 24.2339Z" stroke="#3418D8" stroke-width="2.5"/>
<path d="M27.7991 19.0425H22.4258V24.4158C25.3934 24.4158 27.7991 26.8215 27.7991 29.7891L33.1725 29.7892L33.1725 24.4162C30.2049 24.4162 27.7991 22.0101 27.7991 19.0425Z" stroke="#3418D8" stroke-width="2.5"/>
<mask id="path-3-inside-1_117_4795" fill="white">
<path d="M44.9785 25.3213V29.9156C44.9785 36.52 37.1446 41.8732 27.4937 41.8732C17.8428 41.8732 9.99805 36.52 9.99805 29.9156V25.3213"/>
</mask>
<path d="M42.4785 25.3213V29.9156H47.4785V25.3213H42.4785ZM42.4785 29.9156C42.4785 32.1509 41.1546 34.4542 38.4442 36.3073C35.7461 38.1521 31.8812 39.3732 27.4937 39.3732V44.3732C32.7571 44.3732 37.6346 42.9177 41.2662 40.4348C44.8855 37.9603 47.4785 34.2848 47.4785 29.9156H42.4785ZM27.4937 39.3732C23.1061 39.3732 19.2382 38.152 16.537 36.3068C13.8232 34.4529 12.498 32.1495 12.498 29.9156H7.49805C7.49805 34.2862 10.0953 37.9616 13.7166 40.4354C17.3505 42.9178 22.2304 44.3732 27.4937 44.3732V39.3732ZM12.498 29.9156V25.3213H7.49805V29.9156H12.498Z" fill="#3418D8" mask="url(#path-3-inside-1_117_4795)"/>
<path d="M0.998047 29.0638C0.998047 14.1174 12.9265 2 27.6399 2C37.4282 2 45.9846 7.36325 50.6151 15.3552" stroke="#3418D8" stroke-width="2.5" stroke-miterlimit="10"/>
<path d="M43.5 14.7129L51.3514 17.1141L53.1976 9.11399" stroke="#3418D8" stroke-width="2.5" stroke-miterlimit="10"/>
<path d="M53.9991 28.064C53.9991 42.3876 42.1303 54.0001 27.4905 54.0001C18.3397 54.0001 10.2736 49.4643 5.50977 42.5667" stroke="#3418D8" stroke-width="2.5" stroke-miterlimit="10"/>
<path d="M12.6973 43.2007L4.84589 40.7995L2.99969 48.7996" stroke="#3418D8" stroke-width="2.5" stroke-miterlimit="10"/>
</g>
<defs>
<clipPath id="clip0_117_4795">
<rect width="56" height="56" fill="white"/>
</clipPath>
</defs>
</svg>
