<svg width="56" height="56" viewBox="0 0 56 56" fill="none" xmlns="http://www.w3.org/2000/svg">
<path d="M32.9451 20H28.0006C26.2317 20 24.8037 21.4517 24.8037 23.25C24.8037 25.0483 26.2317 26.5 28.0006 26.5H29.7482C31.5171 26.5 32.9451 27.9517 32.9451 29.75C32.9451 31.5483 31.5171 33 29.7482 33H23.9451M28.1831 46.1538C14.8622 33.8365 8 27.5769 8 20.1058C8 13.8462 12.8439 9 19.1007 9C22.5318 9 25.9629 10.6154 28.1831 13.2404C30.4032 10.6154 33.8343 9 37.2654 9C43.5222 9 48.3661 13.8462 48.3661 20.1058C48.3661 27.7788 41.5039 34.0385 28.1831 46.1538Z" stroke="#3418D8" stroke-width="2.5"/>
</svg>
