<svg width="22" height="11" viewBox="0 0 22 11" fill="none" xmlns="http://www.w3.org/2000/svg">
<path d="M21.5 6.0791C21.5 8.8541 21.05 11.1041 20.45 11.1041C19.85 11.1041 19.4 8.8541 19.4 6.0791C19.4 3.3041 19.85 1.0541 20.45 1.0541C21.05 1.0541 21.5 3.3041 21.5 6.0791ZM18.875 6.0791C18.875 9.1541 17.525 11.7041 15.95 11.7041C14.375 11.7041 13.025 9.1541 13.025 6.0791C13.025 3.0041 14.375 0.454102 15.95 0.454102C17.525 0.454102 18.875 3.0041 18.875 6.0791ZM12.35 6.0791C12.35 9.3791 9.725 12.0791 6.425 12.0791C3.125 12.0791 0.5 9.3791 0.5 6.0791C0.5 2.7791 3.125 0.0791016 6.425 0.0791016C9.725 0.0791016 12.35 2.7791 12.35 6.0791Z" fill="black"/>
</svg>
