<svg width="11" height="14" viewBox="0 0 11 14" fill="none" xmlns="http://www.w3.org/2000/svg">
<path d="M9.975 3.77637H6.825C6.24508 3.77637 5.775 4.22409 5.775 4.77637V7.77637H9.975C10.0944 7.77385 10.2077 7.82677 10.2787 7.91827C10.3496 8.00977 10.3696 8.12837 10.332 8.23637L9.555 10.4364C9.48339 10.6383 9.28525 10.7748 9.0615 10.7764H5.775V18.2764C5.775 18.5525 5.5399 18.7764 5.25 18.7764H2.625C2.33505 18.7764 2.1 18.5525 2.1 18.2764V10.7764H0.525C0.235053 10.7764 0 10.5525 0 10.2764V8.27637C0 8.00027 0.235053 7.77637 0.525 7.77637H2.1V4.77637C2.1 2.56723 3.98044 0.776367 6.3 0.776367H9.975C10.2649 0.776367 10.5 1.00023 10.5 1.27637V3.27637C10.5 3.55251 10.2649 3.77637 9.975 3.77637Z" fill="black"/>
</svg>
