<svg width="18" height="14" viewBox="0 0 18 14" fill="none" xmlns="http://www.w3.org/2000/svg">
<path fill-rule="evenodd" clip-rule="evenodd" d="M6.87892 5.77579H9.94298V7.30204C10.3843 6.42424 11.5162 5.63554 13.2166 5.63554C16.4761 5.63554 17.25 7.38289 17.25 10.5888V16.5264H13.95V11.319C13.95 9.49324 13.5086 8.46364 12.385 8.46364C10.8266 8.46364 10.1789 9.57327 10.1789 11.3181V16.5264H6.87892V5.77579ZM1.22025 16.3861H4.52025V5.63554H1.22025V16.3861ZM4.99298 2.13012C4.9931 2.40672 4.93824 2.68059 4.83159 2.9358C4.72495 3.19102 4.56864 3.42249 4.37175 3.61677C3.97278 4.01328 3.43274 4.23523 2.87025 4.23387C2.30875 4.23349 1.76996 4.01211 1.3704 3.61759C1.17422 3.42265 1.01844 3.19092 0.911984 2.93567C0.805524 2.68042 0.750478 2.40668 0.75 2.13012C0.75 1.57159 0.97275 1.03699 1.37122 0.642642C1.77043 0.247598 2.30945 0.0261203 2.87108 0.0263674C3.43373 0.0263674 3.97327 0.248292 4.37175 0.642642C4.7694 1.03699 4.99298 1.57159 4.99298 2.13012Z" fill="black"/>
</svg>
