<svg width="18" height="12" viewBox="0 0 18 12" fill="none" xmlns="http://www.w3.org/2000/svg">
<path d="M17.2248 2.3416C16.7797 2.9186 16.2417 3.42193 15.6315 3.83213C15.6315 3.98286 15.6315 4.13358 15.6315 4.29269C15.6364 7.02986 14.5114 9.65447 12.5088 11.5781C10.5061 13.5018 7.79322 14.5636 4.97845 14.5254C3.35115 14.5307 1.74467 14.1696 0.28489 13.4703C0.206173 13.4369 0.15541 13.3612 0.155707 13.2777V13.1856C0.155707 13.0653 0.255958 12.9679 0.379622 12.9679C1.97922 12.9166 3.52176 12.3776 4.78898 11.4272C3.34112 11.3987 2.03842 10.5652 1.4389 9.28341C1.40862 9.21346 1.41804 9.13309 1.46378 9.07152C1.50952 9.00996 1.58495 8.97606 1.66281 8.98202C2.10285 9.02495 2.54729 8.98518 2.97185 8.86476C1.37353 8.54232 0.172564 7.25273 0.000686703 5.67434C-0.00541788 5.59861 0.0294941 5.52531 0.0928208 5.4808C0.156138 5.43637 0.238718 5.42715 0.310727 5.45667C0.739639 5.64062 1.20266 5.73748 1.67143 5.7413C0.270917 4.84798 -0.334011 3.14877 0.198765 1.60471C0.253763 1.45468 0.385889 1.34384 0.546592 1.31293C0.707285 1.28202 0.872866 1.3356 0.982461 1.45399C2.87236 3.40881 5.46911 4.57369 8.22514 4.703C8.15461 4.42923 8.11992 4.14787 8.12184 3.86562C8.14762 2.38567 9.08985 1.0673 10.5074 0.527719C11.9249 -0.0118543 13.5372 0.334142 14.5895 1.40374C15.3068 1.27094 16.0002 1.03679 16.6477 0.708722C16.6952 0.679943 16.7554 0.679943 16.8028 0.708722C16.8324 0.754844 16.8324 0.813325 16.8028 0.859447C16.4891 1.55749 15.9593 2.14295 15.2871 2.5342C15.8757 2.46786 16.454 2.33291 17.0095 2.13226C17.0563 2.10132 17.1177 2.10132 17.1645 2.13226C17.2037 2.14968 17.233 2.18299 17.2446 2.22333C17.2562 2.26367 17.2489 2.30693 17.2248 2.3416Z" fill="black"/>
</svg>
