<svg width="28" height="32" viewBox="0 0 28 32" fill="none" xmlns="http://www.w3.org/2000/svg">
<path fill-rule="evenodd" clip-rule="evenodd" d="M0.570558 0.709415C4.2486 5.13993 8.28701 10.706 8.9402 11.6063C8.97503 11.6543 9.00023 11.689 9.01524 11.7096C9.36344 12.1873 9.65089 12.5423 9.86918 12.812C10.3538 13.4106 10.4976 13.5882 10.2084 13.7514C9.9752 13.883 9.73459 13.9264 9.4945 13.9264C9.22294 13.9264 8.91699 13.7966 8.69422 13.5868C8.53676 13.4386 7.45932 11.8856 5.99216 9.62621C4.8696 7.89742 3.93014 6.46331 3.90451 6.43931C3.84526 6.38377 3.84627 6.38565 5.87771 9.9931C7.15327 12.2583 8.02581 13.9323 8.02581 14.0394C8.02581 14.2572 7.96592 14.3717 7.69515 14.6715C7.24378 15.1713 7.042 15.7329 6.89635 16.895C6.73306 18.1977 6.27389 19.1181 5.00141 20.693C4.25655 21.6151 4.13467 21.784 3.94672 22.1557C3.70999 22.6236 3.64488 22.8857 3.6185 23.4766C3.59061 24.1015 3.64493 24.5051 3.83725 25.1023C4.00563 25.6253 4.18138 25.9707 4.63068 26.6614C5.01842 27.2573 5.24168 27.7003 5.24168 27.8736C5.24168 28.0115 5.2682 28.0116 5.86904 27.877C7.30693 27.5547 8.47448 26.988 9.13114 26.2934C9.53754 25.8634 9.63296 25.626 9.63604 25.0369C9.63808 24.6516 9.62441 24.5709 9.51947 24.3492C9.34862 23.9883 9.03759 23.6884 8.35209 23.2233C7.45387 22.6138 7.07023 22.1233 6.96426 21.4485C6.87734 20.895 6.97819 20.5043 7.47508 19.4708C7.98939 18.4009 8.11685 17.945 8.20306 16.8665C8.25874 16.1698 8.33586 15.895 8.53755 15.6745C8.74792 15.4446 8.93728 15.3666 9.45786 15.296C10.3066 15.181 10.847 14.963 11.2912 14.5568C11.6766 14.2043 11.8378 13.8647 11.8626 13.3535L11.8814 12.966L11.666 12.7168C10.8862 11.8144 0.0482897 0 0.000296834 0C-0.00995581 0 0.246672 0.319259 0.570558 0.709415ZM5.67947 24.1836C5.85579 23.8736 5.76211 23.4753 5.46715 23.2806C5.18848 23.0967 4.75557 23.1833 4.75557 23.423C4.75557 23.4961 4.79631 23.5493 4.88816 23.5963C5.04278 23.6753 5.05401 23.764 4.93235 23.9455C4.80913 24.1293 4.81907 24.2909 4.9604 24.4006C5.18817 24.5777 5.51059 24.4803 5.67947 24.1836ZM10.9867 7.28296C10.6388 7.2294 10.6241 7.22311 10.7878 7.19814C11.1016 7.15025 11.8425 7.21552 12.353 7.33601C13.5449 7.61719 14.6295 8.33752 15.7872 9.61683L16.0947 9.9567L16.5348 9.8865C18.3884 9.59085 20.2741 9.82581 21.8513 10.5489C22.2852 10.7479 22.9693 11.1439 23.0547 11.2456C23.0819 11.2781 23.132 11.4869 23.1658 11.7096C23.2829 12.4803 23.2244 13.0711 22.9868 13.5123C22.8576 13.7524 22.8504 13.8285 22.9372 14.034C23.0065 14.198 23.2 14.3193 23.3915 14.3191C23.7834 14.3186 24.2052 13.6897 24.4008 12.8148L24.4784 12.4672L24.6322 12.6402C25.4758 13.5889 26.1386 14.8827 26.2524 15.8036L26.282 16.0436L26.1403 15.8254C25.8961 15.4498 25.651 15.1941 25.3369 14.9879C24.7709 14.6161 24.1722 14.4896 22.5872 14.4067C21.1555 14.3318 20.3454 14.2105 19.542 13.9505C18.1749 13.5081 17.4859 12.919 15.8621 10.8047C15.1409 9.86554 14.6951 9.34593 14.2517 8.92749C13.2441 7.97671 12.254 7.47807 10.9867 7.28296ZM23.3776 9.37981C23.4136 8.75051 23.4997 8.33543 23.6725 7.95636C23.7409 7.80632 23.8051 7.6835 23.8149 7.6835C23.8248 7.6835 23.7951 7.79426 23.7488 7.9296C23.6231 8.29749 23.6024 8.80067 23.6891 9.3861C23.7989 10.1289 23.8615 10.2361 24.6525 11.0385C25.0235 11.4149 25.4551 11.8895 25.6116 12.0933L25.8961 12.4639L25.6116 12.1991C25.2637 11.8752 24.4637 11.2436 24.287 11.1533C24.1684 11.0928 24.1508 11.0938 24.0778 11.1661C24.0104 11.2326 23.9962 11.3326 23.9868 11.8052C23.9722 12.5418 23.8712 13.0146 23.627 13.4874C23.4949 13.7431 23.4741 13.6885 23.5935 13.3999C23.6828 13.1844 23.6919 13.0896 23.6912 12.3766C23.6899 10.9438 23.5184 10.5994 22.5133 10.0093C22.2588 9.85982 21.8392 9.64425 21.581 9.53021C21.323 9.41618 21.118 9.31686 21.1253 9.30945C21.1539 9.28133 22.1341 9.56528 22.5286 9.71588C23.1155 9.93993 23.2122 9.96897 23.2836 9.94193C23.3313 9.92381 23.3544 9.78574 23.3776 9.37981ZM10.6138 8.27986C10.5192 9.38602 10.9562 10.8657 11.6625 11.8309C12.2101 12.579 13.0588 13.1604 13.6854 13.2165C14.0957 13.2533 14.219 13.1258 14.0334 12.8568C13.7757 12.4833 13.4588 11.9081 13.3749 11.6619C13.3228 11.5089 13.2096 11.0571 13.1233 10.6578C12.8286 9.29465 12.539 8.76379 11.8701 8.36058C11.6263 8.21362 11.1058 8.02132 10.8038 7.96667L10.6431 7.93754L10.6138 8.27986ZM22.5209 19.0137C19.22 17.6947 18.0574 16.5497 18.0574 14.6179C18.0574 14.3336 18.0674 14.101 18.0793 14.101C18.0915 14.101 18.2191 14.1948 18.3631 14.3095C19.0324 14.8423 19.782 15.0699 21.8571 15.3703C23.078 15.5472 23.7652 15.6899 24.3991 15.8986C26.4138 16.5618 27.6603 17.9075 27.9575 19.7405C28.0439 20.2731 27.9933 21.2719 27.8532 21.7983C27.7427 22.2141 27.4052 22.9635 27.3158 22.9922C27.2909 23.0002 27.2666 22.9059 27.2603 22.7775C27.2264 22.0892 26.8759 21.4191 26.2874 20.9171C25.6182 20.3464 24.7191 19.8921 22.5209 19.0137ZM20.0441 18.8685C20.0905 19.0055 20.1623 19.3173 20.2035 19.5616C20.4679 21.1233 19.642 22.385 18.0353 22.8739C17.8652 22.9256 17.1952 23.0558 16.5464 23.163C15.2331 23.38 14.6469 23.5337 14.0581 23.8153C13.6405 24.015 13.1348 24.314 13.1649 24.3437C13.1746 24.3533 13.2699 24.3307 13.3767 24.2935C14.1193 24.0347 14.9457 23.9007 16.2013 23.8359C16.6997 23.8103 17.2664 23.7693 17.4609 23.745C18.5795 23.6052 19.3549 23.2679 19.9578 22.6589C20.2932 22.3199 20.4932 22.0042 20.6545 21.559C20.7566 21.2766 20.7704 21.1717 20.7712 20.6713C20.7721 20.1615 20.7597 20.0682 20.6489 19.7546C20.504 19.3434 20.333 19.0349 20.1164 18.7936L19.9599 18.6194L20.0441 18.8685ZM21.7168 22.2288C21.2781 21.293 21.1775 20.3896 21.4177 19.5472C21.4434 19.4571 21.4847 19.3834 21.5097 19.3834C21.5346 19.3834 21.6379 19.439 21.7396 19.5068C21.9416 19.6418 22.347 19.8692 23.4268 20.4535C24.7744 21.1827 25.5427 21.7472 26.0651 22.3924C26.5227 22.9573 26.8058 23.6007 26.942 24.3853C27.0193 24.8297 26.9741 25.8991 26.8592 26.3466C26.4969 27.7577 25.6548 28.866 24.4539 29.5128C24.2779 29.6075 24.1199 29.6853 24.1028 29.6857C24.0857 29.686 24.1499 29.5243 24.2453 29.3261C24.6493 28.4879 24.6953 27.6725 24.3899 26.7651C24.2028 26.2094 23.8215 25.5314 23.0515 24.3854C22.1564 23.0531 21.9369 22.6985 21.7168 22.2288ZM13.4557 25.2978C12.0674 25.5216 10.5433 26.2507 9.31839 27.2772L8.95371 27.5829L9.2742 27.6326C10.9467 27.8917 11.397 28.1215 12.5571 29.3076C13.2247 29.99 13.4502 30.1419 14.0039 30.2822C14.8173 30.4882 15.6189 30.1097 15.894 29.3896C16.0168 29.0678 16.0004 28.535 15.8595 28.2675C15.5242 27.6305 14.5473 27.4246 14.075 27.8912C13.6815 28.2799 13.7961 28.8654 14.2855 28.9661C14.3975 28.9893 14.3943 28.9843 14.2569 28.9227C14.0428 28.8265 13.9497 28.6933 13.9486 28.4812C13.9458 27.984 14.5191 27.7049 15.0524 27.9437C15.4429 28.1186 15.5979 28.3471 15.5979 28.7477C15.5979 29.3645 15.069 29.8293 14.4534 29.7534C14.1243 29.7127 13.7219 29.5038 13.5061 29.2618C12.9632 28.6524 13.1747 27.6909 13.9327 27.322C14.5098 27.0412 15.277 27.1104 15.8719 27.497C16.5553 27.9412 16.846 28.3473 17.4347 29.6798C17.6264 30.1137 17.873 30.6022 17.9827 30.7652C18.5404 31.5937 19.2085 32 20.0133 32C20.4572 32 20.7911 31.9195 21.2112 31.7114C21.5234 31.5566 21.9659 31.2626 21.934 31.2311C21.9249 31.2222 21.7955 31.2621 21.6462 31.3198C20.7675 31.66 19.8742 31.6366 19.3555 31.2597C19.0288 31.0225 18.7653 30.5499 18.6298 29.9588C18.6064 29.8565 18.529 29.4046 18.4579 28.9546C18.2775 27.814 18.1043 27.3013 17.7005 26.713C17.2873 26.111 16.4929 25.6058 15.6048 25.3802C15.0508 25.2395 14.054 25.2012 13.4557 25.2978ZM11.5113 16.4793C11.6312 16.0399 12.0185 15.6207 12.417 15.4993C12.6703 15.4221 13.194 15.4714 13.4403 15.5956C13.9174 15.8364 14.2639 16.3848 14.1887 16.7808C14.097 17.2635 13.3082 17.6497 12.4009 17.6561C11.9374 17.6592 11.7662 17.5974 11.5893 17.3629C11.4797 17.2177 11.4382 16.7474 11.5113 16.4793ZM13.3184 15.7677C13.5564 15.9119 13.6176 16.1252 13.4777 16.3224C13.3813 16.4584 13.0829 16.5875 12.8649 16.5875C12.5373 16.5875 12.1799 16.3567 12.1799 16.1452C12.1799 15.7204 12.8652 15.4929 13.3184 15.7677Z" fill="#CF326B"/>
</svg>
