<svg width="72" height="73" viewBox="0 0 72 73" fill="none" xmlns="http://www.w3.org/2000/svg">
<circle cx="36" cy="36.1387" r="36" fill="#E0FB92"/>
<path d="M33 36C33 42.0751 30.8125 47 26 47C21.1875 47 19 42.0751 19 36C19 29.9249 21.1875 25 26 25C30.8125 25 33 29.9249 33 36Z" stroke="#3418D8" stroke-width="1.8" stroke-linecap="round" stroke-linejoin="round"/>
<path d="M52.5025 29.7224L39.5 42.725" stroke="#3418D8" stroke-width="1.8" stroke-linecap="round" stroke-linejoin="round"/>
<path d="M41.3056 34.0565C42.7019 34.0565 43.8339 32.9246 43.8339 31.5283C43.8339 30.1319 42.7019 29 41.3056 29C39.9093 29 38.7773 30.1319 38.7773 31.5283C38.7773 32.9246 39.9093 34.0565 41.3056 34.0565Z" stroke="#3418D8" stroke-width="1.8" stroke-linecap="round" stroke-linejoin="round"/>
<path d="M50.6962 43.4472C52.0926 43.4472 53.2245 42.3152 53.2245 40.9189C53.2245 39.5226 52.0926 38.3906 50.6962 38.3906C49.2999 38.3906 48.168 39.5226 48.168 40.9189C48.168 42.3152 49.2999 43.4472 50.6962 43.4472Z" stroke="#3418D8" stroke-width="1.8" stroke-linecap="round" stroke-linejoin="round"/>
<path d="M32 31L20 42" stroke="#3418D8" stroke-width="1.8" stroke-linecap="round" stroke-linejoin="round"/>
</svg>
