<svg width="72" height="73" viewBox="0 0 72 73" fill="none" xmlns="http://www.w3.org/2000/svg">
<circle cx="36" cy="36.1387" r="36" fill="#E0FB92"/>
<path d="M50.0005 35.52C50.0005 34.6867 49.6186 33.8876 48.9387 33.2984C48.2589 32.7092 47.3369 32.3782 46.3754 32.3782L40.3337 32.3782C40.3337 33.4892 39.8244 34.5547 38.918 35.3403C38.0115 36.1259 36.7821 36.5673 35.5002 36.5673C34.2183 36.5673 32.9889 36.1259 32.0825 35.3403C31.1761 34.5547 30.6668 33.4892 30.6668 32.3782L24.6251 32.3782C23.6636 32.3782 22.7416 32.7092 22.0618 33.2984C21.3819 33.8876 21 34.6867 21 35.52M50.0005 35.52L50.0005 43.8982C50.0005 44.7314 49.6186 45.5306 48.9387 46.1198C48.2589 46.709 47.3369 47.04 46.3754 47.04L24.6251 47.04C23.6636 47.04 22.7416 46.709 22.0618 46.1198C21.3819 45.5306 21 44.7314 21 43.8982L21 35.52M50.0005 35.52L50.0005 31.3309M21 35.52L21 31.3309M50.0005 31.3309C50.0005 30.4976 49.6186 29.6985 48.9387 29.1093C48.2589 28.5201 47.3369 28.1891 46.3754 28.1891L24.6251 28.1891C23.6636 28.1891 22.7416 28.5201 22.0618 29.1093C21.3819 29.6985 21 30.4976 21 31.3309M50.0005 31.3309L50.0005 27.1418C50.0005 26.3086 49.6186 25.5094 48.9387 24.9202C48.2589 24.331 47.3369 24 46.3754 24L24.6251 24C23.6636 24 22.7416 24.331 22.0618 24.9202C21.3819 25.5094 21 26.3086 21 27.1418L21 31.3309" stroke="#3418D8" stroke-width="1.5" stroke-linecap="round" stroke-linejoin="round"/>
</svg>
