<svg width="72" height="73" viewBox="0 0 72 73" fill="none" xmlns="http://www.w3.org/2000/svg">
<circle cx="36" cy="36.1387" r="36" fill="#E0FB92"/>
<path d="M40.1238 30.5637C40.0609 30.329 40.0938 30.079 40.2153 29.8686C40.3367 29.6583 40.5368 29.5048 40.7714 29.4419L44.3103 28.4937C44.5449 28.4308 44.7949 28.4637 45.0053 28.5852C45.2156 28.7066 45.3692 28.9067 45.432 29.1413L45.9061 30.9107C45.969 31.1454 45.9361 31.3954 45.8146 31.6058C45.6932 31.8161 45.4931 31.9696 45.2585 32.0325L41.7197 32.9807C41.485 33.0436 41.235 33.0107 41.0246 32.8892C40.8143 32.7678 40.6608 32.5677 40.5979 32.3331L40.1238 30.5637Z" fill="#3418D8"/>
<path d="M22.5388 28.6377C21.6003 28.8892 20.8001 29.5032 20.3142 30.3447C19.8284 31.1862 19.6967 32.1862 19.9482 33.1248L23.7411 47.2801C23.9926 48.2187 24.6067 49.0189 25.4481 49.5047C26.2896 49.9905 27.2896 50.1222 28.2282 49.8707L49.4612 44.1813C50.3998 43.9299 51.2 43.3158 51.6858 42.4743C52.1716 41.6329 52.3033 40.6328 52.0518 39.6943L48.2589 25.5389C48.0074 24.6004 47.3934 23.8002 46.5519 23.3143C45.7104 22.8285 44.7104 22.6969 43.7718 22.9483L22.5388 28.6377ZM46.4895 26.0131L48.8601 34.8601L24.0882 41.4977L21.7176 32.6507C21.5919 32.1814 21.6577 31.6814 21.9006 31.2606C22.1436 30.8399 22.5437 30.5329 23.0129 30.4071L44.246 24.7178C44.7152 24.592 45.2152 24.6578 45.636 24.9008C46.0567 25.1437 46.3637 25.5438 46.4895 26.0131ZM48.9871 42.4119L27.7541 48.1013C27.2848 48.227 26.7848 48.1612 26.3641 47.9183C25.9433 47.6754 25.6363 47.2753 25.5106 46.806L25.0364 45.0366L49.8083 38.399L50.2824 40.1684C50.4081 40.6377 50.3423 41.1377 50.0994 41.5584C49.8565 41.9792 49.4564 42.2862 48.9871 42.4119Z" fill="#3418D8"/>
</svg>
