<svg width="72" height="73" viewBox="0 0 72 73" fill="none" xmlns="http://www.w3.org/2000/svg">
<circle cx="36" cy="36.1387" r="36" fill="#E0FB92"/>
<path d="M48.3047 46.4492L48.3047 46.9492L48.8047 46.9492L50.1719 46.9492C50.2568 46.9492 50.3383 46.983 50.3984 47.043C50.4584 47.1031 50.4922 47.1846 50.4922 47.2695C50.4922 47.3545 50.4584 47.436 50.3984 47.496C50.3383 47.5561 50.2568 47.5898 50.1719 47.5898L22.8281 47.5898C22.7432 47.5898 22.6617 47.5561 22.6016 47.496C22.5416 47.436 22.5078 47.3545 22.5078 47.2695C22.5078 47.1846 22.5416 47.1031 22.6016 47.043C22.6617 46.983 22.7432 46.9492 22.8281 46.9492L24.1953 46.9492L24.6953 46.9492L24.6953 46.4492L24.6953 37.4258C24.6953 37.3408 24.7291 37.2594 24.7891 37.1993C24.8492 37.1392 24.9307 37.1055 25.0156 37.1055L31.8516 37.1055L32.3516 37.1055L32.3516 36.6055L32.3516 30.8633C32.3516 30.7783 32.3853 30.6969 32.4454 30.6368C32.5055 30.5767 32.5869 30.543 32.6719 30.543L39.5078 30.543L40.0078 30.543L40.0078 30.043L40.0078 24.3008C40.0078 24.2158 40.0416 24.1344 40.1016 24.0743C40.1617 24.0142 40.2432 23.9805 40.3281 23.9805L47.9844 23.9805C48.0693 23.9805 48.1508 24.0142 48.2109 24.0743C48.2709 24.1344 48.3047 24.2158 48.3047 24.3008L48.3047 46.4492ZM33.4922 31.1836L32.9922 31.1836L32.9922 31.6836L32.9922 46.4492L32.9922 46.9492L33.4922 46.9492L39.5078 46.9492L40.0078 46.9492L40.0078 46.4492L40.0078 31.6836L40.0078 31.1836L39.5078 31.1836L33.4922 31.1836ZM25.8359 37.7461L25.3359 37.7461L25.3359 38.2461L25.3359 46.4492L25.3359 46.9492L25.8359 46.9492L31.8516 46.9492L32.3516 46.9492L32.3516 46.4492L32.3516 38.2461L32.3516 37.7461L31.8516 37.7461L25.8359 37.7461ZM40.6484 46.4492L40.6484 46.9492L41.1484 46.9492L47.1641 46.9492L47.6641 46.9492L47.6641 46.4492L47.6641 25.1211L47.6641 24.6211L47.1641 24.6211L41.1484 24.6211L40.6484 24.6211L40.6484 25.1211L40.6484 46.4492Z" fill="#E0FB92" stroke="#3418D8"/>
</svg>
