<svg width="72" height="73" viewBox="0 0 72 73" fill="none" xmlns="http://www.w3.org/2000/svg">
<circle cx="36" cy="36.1387" r="36" fill="#E0FB92"/>
<path d="M31 35.8213C31 38.679 30.4594 40.7475 29.5683 42.0717C29.2838 42.4944 28.9588 42.8493 28.5912 43.1348C29.0039 42.7305 29.3446 42.2274 29.6148 41.6562C30.3026 40.2018 30.5955 38.2148 30.5955 35.933C30.5955 33.6575 30.3156 31.7034 29.6317 30.282C29.3286 29.6519 28.9329 29.0992 28.4229 28.6764C28.8613 28.9786 29.2505 29.3813 29.5878 29.8832C30.454 31.1719 31 33.1582 31 35.8213ZM23.7849 43.4246C23.2955 43.1166 22.8578 42.6838 22.4788 42.123C21.6005 40.8237 21.0223 38.8025 21 36.0407C21.0006 33.2597 21.6143 31.2255 22.5449 29.9157C22.8316 29.5122 23.151 29.1727 23.4997 28.8969C23.1283 29.263 22.8068 29.7109 22.5396 30.2206C21.7952 31.6409 21.4045 33.6355 21.4045 36.0893C21.4045 38.4374 21.7653 40.3922 22.4913 41.7989C22.831 42.457 23.2643 43.014 23.7849 43.4246Z" stroke="#3418D8" stroke-width="2"/>
<mask id="path-3-inside-1_1380_11319" fill="white">
<path d="M41.9943 32.2035C41.9943 35.866 40.1311 37.6973 37.943 37.6973C35.7548 37.6973 34.0217 35.9553 34 32.4491C34 28.9653 35.8415 27.0223 38.073 27.0223C40.4344 27.0223 41.9943 28.8983 41.9943 32.2258V32.2035ZM35.8198 32.3598C35.7765 34.5931 36.5781 36.268 38.008 36.268C39.5245 36.268 40.1961 34.6154 40.1961 32.3151C40.1961 30.1935 39.5895 28.4293 38.008 28.4293C36.5781 28.4293 35.8198 30.1712 35.8198 32.3598ZM37.7913 45L47.7138 27H49.1653L39.2429 45H37.7913ZM53 39.3945C53 43.0571 51.1368 44.8883 48.9704 44.8883C46.8039 44.8883 45.049 43.1464 45.0274 39.6625C45.0274 36.1563 46.8689 34.1911 49.1003 34.1911C51.4618 34.1911 53 36.067 53 39.3945ZM46.8255 39.5509C46.8039 41.7841 47.6271 43.4591 49.0353 43.4591C50.5519 43.4591 51.2235 41.8065 51.2235 39.4839C51.2235 37.3623 50.6169 35.598 49.0353 35.598C47.6055 35.598 46.8255 37.34 46.8255 39.5285V39.5509Z"/>
</mask>
<path d="M34 32.4491H32L32 32.4615L34 32.4491ZM37.7913 45L36.0398 44.0345L34.4051 47H37.7913V45ZM47.7138 27V25H46.5325L45.9623 26.0345L47.7138 27ZM49.1653 27L50.9168 27.9655L52.5516 25H49.1653V27ZM39.2429 45V47H40.4241L40.9944 45.9655L39.2429 45ZM45.0274 39.6625H43.0273L43.0274 39.675L45.0274 39.6625ZM46.8255 39.5509L48.8254 39.5703L48.8255 39.5606V39.5509H46.8255ZM39.9943 32.2035C39.9943 33.7108 39.6113 34.599 39.2331 35.0674C38.8785 35.5066 38.4407 35.6973 37.943 35.6973V39.6973C39.6335 39.6973 41.2213 38.9723 42.3453 37.5802C43.4457 36.2174 43.9943 34.3586 43.9943 32.2035H39.9943ZM37.943 35.6973C37.4204 35.6973 37.0223 35.5099 36.7116 35.1273C36.3697 34.7061 36.0089 33.8822 36 32.4368L32 32.4615C32.0128 34.5223 32.5294 36.3224 33.6065 37.6488C34.7148 39.0137 36.2774 39.6973 37.943 39.6973V35.6973ZM36 32.4491C36 31.0471 36.3697 30.1667 36.7595 29.6811C37.1293 29.2203 37.5797 29.0223 38.073 29.0223V25.0223C36.3348 25.0223 34.7487 25.7958 33.6399 27.1775C32.551 28.5343 32 30.3673 32 32.4491H36ZM38.073 29.0223C38.6692 29.0223 39.0519 29.2314 39.3378 29.6006C39.6683 30.0275 39.9943 30.8467 39.9943 32.2258H43.9943C43.9943 30.2773 43.5404 28.4948 42.5006 27.1518C41.4162 25.7512 39.8382 25.0223 38.073 25.0223V29.0223ZM43.9943 32.2258V32.2035H39.9943V32.2258H43.9943ZM33.8202 32.321C33.7945 33.6472 34.01 34.9968 34.5983 36.0955C35.2135 37.2443 36.3542 38.268 38.008 38.268V34.268C38.0648 34.268 38.1446 34.2917 38.1998 34.3302C38.2379 34.3567 38.1977 34.3438 38.1246 34.2072C37.9655 33.9102 37.8019 33.3057 37.8195 32.3986L33.8202 32.321ZM38.008 38.268C39.6825 38.268 40.8351 37.2729 41.4523 36.0631C42.0156 34.9588 42.1961 33.6075 42.1961 32.3151H38.1961C38.1961 33.323 38.0408 33.9481 37.8892 34.2453C37.8234 34.3742 37.7956 34.3679 37.8527 34.3284C37.8815 34.3086 37.9177 34.2905 37.9559 34.2789C37.9934 34.2675 38.014 34.268 38.008 34.268V38.268ZM42.1961 32.3151C42.1961 31.1168 42.0329 29.7919 41.4878 28.6899C40.8922 27.4858 39.7451 26.4293 38.008 26.4293V30.4293C38.0176 30.4293 37.9982 30.4302 37.9605 30.4185C37.9222 30.4065 37.8861 30.388 37.8582 30.3681C37.8042 30.3297 37.8352 30.3274 37.9024 30.4633C38.056 30.7738 38.1961 31.3918 38.1961 32.3151H42.1961ZM38.008 26.4293C36.3086 26.4293 35.1897 27.5222 34.6029 28.6519C34.0363 29.7427 33.8198 31.0754 33.8198 32.3598H37.8198C37.8198 31.4556 37.9826 30.823 38.1526 30.4957C38.2316 30.3435 38.2762 30.3263 38.2375 30.3544C38.178 30.3975 38.0845 30.4293 38.008 30.4293V26.4293ZM39.5428 45.9655L49.4653 27.9655L45.9623 26.0345L36.0398 44.0345L39.5428 45.9655ZM47.7138 29H49.1653V25H47.7138V29ZM47.4138 26.0345L37.4914 44.0345L40.9944 45.9655L50.9168 27.9655L47.4138 26.0345ZM39.2429 43H37.7913V47H39.2429V43ZM51 39.3945C51 40.9017 50.6171 41.7916 50.2393 42.2613C49.8844 42.7024 49.4513 42.8883 48.9704 42.8883V46.8883C50.6559 46.8883 52.2376 46.1587 53.3559 44.7685C54.4513 43.4069 55 41.5499 55 39.3945H51ZM48.9704 42.8883C48.4621 42.8883 48.0596 42.7032 47.7428 42.3158C47.3982 41.8944 47.0362 41.0757 47.0273 39.6501L43.0274 39.675C43.0402 41.7332 43.5665 43.5275 44.6463 44.848C45.754 46.2025 47.3122 46.8883 48.9704 46.8883V42.8883ZM47.0274 39.6625C47.0274 38.2464 47.3987 37.3519 47.7924 36.8569C48.1657 36.3874 48.6155 36.1911 49.1003 36.1911V32.1911C47.3537 32.1911 45.767 32.9773 44.6617 34.3671C43.5768 35.7312 43.0274 37.5724 43.0274 39.6625H47.0274ZM49.1003 36.1911C49.6947 36.1911 50.0693 36.3984 50.3496 36.7633C50.6767 37.1892 51 38.0096 51 39.3945H55C55 37.4519 54.5542 35.6706 53.5218 34.3267C52.4427 32.9217 50.8674 32.1911 49.1003 32.1911V36.1911ZM44.8256 39.5315C44.8127 40.861 45.0439 42.2057 45.6368 43.2972C46.2513 44.4283 47.3859 45.4591 49.0353 45.4591V41.4591C49.104 41.4591 49.1863 41.4866 49.2379 41.5226C49.2721 41.5465 49.2284 41.529 49.1517 41.3877C48.9863 41.0834 48.8167 40.474 48.8254 39.5703L44.8256 39.5315ZM49.0353 45.4591C50.7113 45.4591 51.8643 44.4623 52.4811 43.2485C53.0436 42.1416 53.2235 40.7852 53.2235 39.4839H49.2235C49.2235 40.5051 49.0676 41.1364 48.9151 41.4364C48.849 41.5665 48.821 41.56 48.8787 41.5201C48.9077 41.5 48.9443 41.4818 48.9828 41.47C49.0206 41.4586 49.0414 41.4591 49.0353 41.4591V45.4591ZM53.2235 39.4839C53.2235 38.2856 53.0603 36.9607 52.5152 35.8586C51.9196 34.6546 50.7724 33.598 49.0353 33.598V37.598C49.0449 37.598 49.0255 37.599 48.9879 37.5872C48.9495 37.5753 48.9135 37.5567 48.8856 37.5369C48.8316 37.4985 48.8626 37.4961 48.9298 37.6321C49.0834 37.9426 49.2235 38.5606 49.2235 39.4839H53.2235ZM49.0353 33.598C47.3422 33.598 46.2187 34.6834 45.6249 35.81C45.0499 36.9011 44.8255 38.2363 44.8255 39.5285H48.8255C48.8255 38.6322 48.9912 38.0021 49.1635 37.6751C49.2439 37.5225 49.2905 37.5022 49.2558 37.5272C49.2009 37.5667 49.1113 37.598 49.0353 37.598V33.598ZM44.8255 39.5285V39.5509H48.8255V39.5285H44.8255Z" fill="#3418D8" mask="url(#path-3-inside-1_1380_11319)"/>
</svg>
