<svg width="72" height="73" viewBox="0 0 72 73" fill="none" xmlns="http://www.w3.org/2000/svg">
<circle cx="36" cy="36.1387" r="36" fill="#E0FB92"/>
<path d="M36.0352 21.3416C43.3235 21.3416 49.0352 24.5945 49.0352 28.7533L49.0352 41.9298C49.0352 46.0886 43.3235 49.3416 36.0352 49.3416C28.7469 49.3416 23.0352 46.0886 23.0352 41.9298L23.0352 28.7533C23.0352 24.5945 28.7469 21.3416 36.0352 21.3416ZM36.0352 22.9886C29.8947 22.9886 24.6947 25.6239 24.6947 28.7533C24.6947 31.8827 29.8947 34.518 36.0352 34.518C42.1756 34.518 47.3756 31.8827 47.3756 28.7533C47.3756 25.6239 42.1756 22.9886 36.0352 22.9886ZM24.6947 41.9298C24.6947 45.0592 29.8947 47.6945 36.0352 47.6945C42.1756 47.6945 47.3756 45.0592 47.3756 41.9298L47.3756 39.02C45.1628 41.271 40.9586 42.7533 36.0352 42.7533C31.1118 42.7533 26.9075 41.271 24.6947 39.02L24.6947 41.9298ZM24.6947 35.3416C24.6947 38.471 29.8947 41.1063 36.0352 41.1063C42.1756 41.1063 47.3756 38.471 47.3756 35.3416L47.3756 32.4317C45.1628 34.6827 40.9586 36.1651 36.0352 36.1651C31.1118 36.1651 26.9075 34.6827 24.6947 32.4317L24.6947 35.3416Z" fill="#3418D8"/>
</svg>
