<svg width="72" height="73" viewBox="0 0 72 73" fill="none" xmlns="http://www.w3.org/2000/svg">
<circle cx="36" cy="36.1387" r="36" fill="#E0FB92"/>
<path d="M34.375 20.8613H31.1875C30.3421 20.8613 29.5314 21.1972 28.9336 21.7949C28.3358 22.3927 28 23.2035 28 24.0488V47.4238C28 48.2692 28.3358 49.08 28.9336 49.6777C29.5314 50.2755 30.3421 50.6113 31.1875 50.6113H41.8125C42.6579 50.6113 43.4686 50.2755 44.0664 49.6777C44.6642 49.08 45 48.2692 45 47.4238V24.0488C45 23.2035 44.6642 22.3927 44.0664 21.7949C43.4686 21.1972 42.6579 20.8613 41.8125 20.8613H38.625M34.375 20.8613V22.9863H38.625V20.8613M34.375 20.8613H38.625M34.375 47.4238H38.625" stroke="#3418D8" stroke-width="1.5" stroke-linecap="round" stroke-linejoin="round"/>
</svg>
