<svg width="652" height="637" viewBox="0 0 652 637" fill="none" xmlns="http://www.w3.org/2000/svg">
<path d="M1.06689 551.56C0.981049 551.56 0.895187 551.548 0.809341 551.527C-0.0205841 551.299 -82.4324 528.279 -107.093 480.406C-115.523 464.039 -116.373 446.52 -109.624 428.324C-88.1479 370.456 -83.1274 350.643 -88.1356 343.529C-90.4414 340.257 -95.2165 339.63 -102.179 339.683C-126.463 339.858 -138.405 326.836 -144.1 315.872C-146.328 311.586 -146.61 306.526 -144.873 301.987C-143.115 297.391 -139.46 293.749 -134.848 292.001L328.445 116.181C328.85 116.027 329.304 116.161 329.561 116.503C329.819 116.846 329.819 117.318 329.561 117.66L1.83958 551.177C1.65561 551.421 1.36534 551.56 1.06689 551.56ZM-101.455 337.751C-94.264 337.751 -89.2558 338.591 -86.5575 342.421C-81.0342 350.264 -85.8012 369.682 -107.813 428.992C-114.37 446.658 -113.548 463.66 -105.376 479.526C-82.228 524.457 -6.98705 547.27 0.690781 549.494L326 119.168L-134.162 293.798C-138.258 295.354 -141.504 298.585 -143.07 302.672C-144.611 306.697 -144.362 311.183 -142.387 314.984C-136.938 325.467 -125.519 337.927 -102.195 337.751C-101.946 337.751 -101.701 337.751 -101.455 337.751Z" fill="#F3FBFD"/>
<path d="M-56.0561 310.495C-56.4159 310.495 -56.7634 310.291 -56.9269 309.949C-57.1558 309.468 -56.9555 308.894 -56.4731 308.666L78.7268 244.21C79.2051 243.982 79.7857 244.181 80.0146 244.662C80.2436 245.143 80.0432 245.717 79.5608 245.946L-55.6391 310.401C-55.774 310.467 -55.9171 310.495 -56.0561 310.495Z" fill="#F3FBFD"/>
<path d="M287.322 293.183C288.05 293.48 288.683 293.953 289.19 294.548C299.493 306.66 312.653 324.946 322.808 349.612C334.914 379.008 337.82 405.479 338.242 423.203C338.295 425.411 336.582 426.776 334.807 428.104C309.959 446.724 261.839 465.657 223.553 478.577C185.487 491.423 143.819 492.56 105.753 505.41C103.246 506.254 100.511 505.035 99.4811 502.607C95.7771 493.917 92.0772 485.226 88.3732 476.531C87.5759 474.661 87.9848 472.502 89.4075 471.043C106.738 453.304 140.85 423.887 192.085 410.425C209.828 405.76 226.202 403.911 240.274 403.487C244.546 403.357 246.717 398.321 243.892 395.126L212.943 360.152C211.157 358.136 211.308 355.068 213.279 353.23L213.324 353.185C248.037 320.737 253.172 294.103 272.911 291.129C276.091 290.648 280.948 290.591 287.318 293.183H287.322Z" fill="#110845"/>
<path d="M-42.7793 583.198L-12.7835 610.064L301.839 302.334C301.839 302.334 235.67 248.386 165.25 287.422C165.25 287.422 101.182 344.858 82.4983 399.857C63.8148 454.857 32.4004 444.675 8.6351 482.798C-15.1302 520.922 -42.7793 583.198 -42.7793 583.198Z" fill="#110845"/>
<path d="M167.096 435.087C166.846 435.087 166.597 434.99 166.405 434.798C166.033 434.419 166.037 433.808 166.417 433.437L253.257 348.5C253.637 348.129 254.25 348.133 254.622 348.512C254.994 348.891 254.99 349.502 254.61 349.873L167.77 434.81C167.582 434.994 167.337 435.087 167.092 435.087H167.096Z" fill="#3418D8"/>
<path d="M133.365 468.082C133.116 468.082 132.867 467.984 132.674 467.792C132.302 467.414 132.306 466.802 132.687 466.432L147.012 452.42C147.392 452.049 148.006 452.053 148.378 452.432C148.75 452.811 148.746 453.422 148.365 453.793L134.04 467.805C133.852 467.988 133.607 468.082 133.361 468.082H133.365Z" fill="#3418D8"/>
<path d="M-12.7772 611.026C-13.0266 611.026 -13.276 610.928 -13.4681 610.737C-13.8402 610.358 -13.8361 609.747 -13.4559 609.376L124.72 474.226C125.1 473.856 125.714 473.86 126.086 474.239C126.458 474.617 126.454 475.229 126.074 475.599L-12.1027 610.749C-12.2907 610.932 -12.536 611.026 -12.7813 611.026H-12.7772Z" fill="#3418D8"/>
<path d="M578.743 44.2004C578.743 44.2004 589.43 30.967 602.627 23.7921C615.824 16.6173 649.327 1.37927 649.327 1.37927C649.327 1.37927 653.362 7.51928 649.049 12.3474C644.736 17.1714 620.317 35.8684 619.209 37.6449C618.097 39.4213 608.183 49.6519 596.065 51.4446C583.943 53.2332 575.836 64.5313 575.836 64.5313L578.747 44.2004H578.743Z" fill="#3418D8"/>
<path d="M575.831 65.4933C575.713 65.4933 575.59 65.4689 575.471 65.4241C575.059 65.257 574.813 64.8333 574.875 64.3933L577.785 44.0624C577.81 43.8913 577.879 43.7283 577.99 43.5938C578.431 43.0479 588.946 30.1282 602.164 22.9452C615.242 15.8395 648.595 0.654507 648.93 0.503757C649.363 0.308189 649.878 0.454865 650.14 0.854149C651.677 3.19281 653.574 8.7339 649.776 12.9875C647.344 15.7091 638.897 22.5499 631.444 28.584C626.346 32.7113 620.565 37.3927 620.026 38.1628C619.155 39.5562 609.179 50.4795 596.207 52.3944C584.625 54.1056 576.702 64.98 576.624 65.09C576.44 65.3507 576.142 65.4933 575.839 65.4933H575.831ZM579.662 44.6002L577.27 61.2927C580.533 57.7399 587.168 51.7792 595.917 50.4876C607.421 48.7886 617.164 39.0836 618.386 37.132C618.918 36.2845 622.225 33.5628 630.222 27.0847C637.25 21.3928 645.999 14.3076 648.329 11.7C651.297 8.37536 649.739 4.25621 648.918 2.61833C643.717 4.99366 614.964 18.1741 603.088 24.6278C591.089 31.1508 581.06 42.9094 579.662 44.592V44.6002Z" fill="#F3FBFD"/>
<path d="M607.912 34.9582C611.092 33.8866 613.167 32.741 614.685 31.5807C616.205 30.4189 617.186 29.2284 618.184 28.018L618.184 28.0179L618.189 28.012C619.494 26.429 620.769 24.8826 623.357 23.4229L623.357 23.4228C626.779 21.4931 628.347 19.7369 629.06 18.4694C629.767 17.2127 629.65 16.407 629.636 16.3237C629.612 16.19 629.532 16.0748 629.42 16.0078L629.415 16.0046L629.415 16.0045C629.306 15.9371 629.166 15.9186 629.033 15.9592C629.032 15.9593 629.032 15.9594 629.031 15.9596L600.927 24.7673L600.926 24.7677C600.679 24.8445 600.545 25.1008 600.621 25.3451C600.701 25.5924 600.962 25.7273 601.21 25.6504C601.21 25.6504 601.21 25.6503 601.21 25.6503L627.611 17.3716L628.847 16.9841L628.192 18.1015C627.537 19.2196 626.089 20.8068 622.892 22.6111L622.892 22.6113C620.155 24.1527 618.801 25.7909 617.456 27.4272L617.456 27.4274L617.452 27.4313C616.502 28.5865 615.542 29.7516 614.064 30.8743C612.582 31.9991 610.6 33.0667 607.602 34.0779M607.912 34.9582L607.442 33.6041M607.912 34.9582C607.873 34.9705 607.838 34.9782 607.809 34.9824M607.912 34.9582C607.91 34.9587 607.909 34.9592 607.908 34.9597L607.915 34.9824H607.809M607.602 34.0779L607.442 33.6041M607.602 34.0779C607.602 34.0779 607.602 34.0779 607.602 34.0779L607.442 33.6041M607.602 34.0779C607.356 34.1608 607.228 34.4228 607.31 34.6655L607.311 34.6678C607.375 34.8587 607.554 34.9824 607.752 34.9824H607.809M607.442 33.6041C606.935 33.7752 606.665 34.3212 606.837 34.8264C606.972 35.2298 607.348 35.4824 607.752 35.4824L607.757 35.4865M607.809 34.9824C607.789 34.9852 607.772 34.9865 607.757 34.9865V35.4783V35.4865M607.757 35.4865L608.002 35.24L608.067 35.4335M607.757 35.4865C607.859 35.4865 607.965 35.4661 608.067 35.4335M608.067 35.4335C614.507 33.2642 616.571 30.7616 618.564 28.3439L618.57 28.336C619.87 26.7593 621.097 25.2721 623.603 23.8583L608.067 35.4335Z" fill="white" stroke="#141414"/>
<path d="M579.954 39.7862C580.345 39.5552 580.665 39.366 580.911 39.2207L588.739 74.3112C579.777 82.489 573.301 89.4878 566.55 96.7829C563.477 100.105 560.346 103.488 556.897 107.073C545.808 118.599 531.377 132.267 504.872 152.786C478.366 173.305 458.732 185.835 445.732 193.231C439.232 196.93 434.39 199.345 431.178 200.834C429.571 201.579 428.372 202.092 427.577 202.418C427.179 202.581 426.882 202.698 426.685 202.773C426.587 202.811 426.514 202.838 426.466 202.856L426.412 202.876L426.4 202.88L426.397 202.881L426.396 202.881L426.159 202.966L426.086 203.206C413.784 243.457 381.04 264.05 349.03 284.182C347.942 284.866 346.856 285.549 345.77 286.233C332.355 294.685 325.103 304.148 321.205 311.517C319.257 315.2 318.148 318.357 317.526 320.599C317.215 321.719 317.026 322.611 316.914 323.226C316.868 323.48 316.835 323.687 316.812 323.842C265.772 337.078 227.05 330.011 200.994 317.44C187.934 311.14 178.055 303.457 171.399 296.253C168.07 292.65 165.552 289.173 163.844 286.054C162.132 282.928 161.251 280.194 161.157 278.07C161.064 275.986 161.963 273.412 163.72 270.439C165.47 267.479 168.034 264.184 171.183 260.673C177.479 253.654 186.064 245.83 195.008 238.183C202.13 232.095 209.469 226.129 216.048 220.78C217.73 219.412 219.362 218.085 220.928 216.807C228.601 210.545 234.732 205.418 237.31 202.454C239.94 199.432 241.601 194.817 242.635 189.668C243.672 184.506 244.09 178.74 244.19 173.357C244.29 167.972 244.07 162.955 243.826 159.285C243.704 157.45 243.576 155.951 243.478 154.91C243.429 154.389 243.388 153.983 243.359 153.707C243.351 153.638 243.345 153.577 243.339 153.525C243.443 153.422 243.594 153.273 243.788 153.082C244.195 152.683 244.794 152.098 245.564 151.358C247.103 149.877 249.325 147.771 252.053 145.274C257.509 140.28 264.987 133.724 273.075 127.474C281.167 121.221 289.852 115.288 297.725 111.526C301.661 109.645 305.376 108.316 308.699 107.755C312.023 107.193 314.916 107.406 317.246 108.559C363.596 131.485 408.386 130.933 426.167 125.629L426.026 125.154L426.168 125.629C428.422 124.956 432.54 123.086 437.983 120.358C443.441 117.624 450.268 114.007 457.96 109.818C473.344 101.439 492.199 90.7629 510.501 80.2528C528.803 69.7424 546.554 59.3967 559.729 51.6788C566.316 47.8198 571.76 44.6177 575.556 42.3803C577.455 41.2616 578.942 40.3841 579.954 39.7862Z" fill="#8D71FF" stroke="black"/>
<path d="M114.811 241.961L96.818 264.052C96.818 264.052 92.0878 279.147 93.253 285.226C94.4182 291.305 111.058 297.665 123.253 291.92C123.253 291.92 116.687 283.279 118.756 278.838L130.416 275.607L125.735 258.197L130.416 246.989L114.807 241.961H114.811Z" fill="#3418D8"/>
<path d="M112.546 295.139C107.398 295.139 102.427 293.843 98.7271 291.969C95.0395 290.099 92.7582 287.769 92.3044 285.41C91.1065 279.164 95.7018 264.394 95.8939 263.767C95.9307 263.649 95.9879 263.543 96.0656 263.449L114.058 241.358C114.312 241.048 114.729 240.926 115.105 241.048L130.714 246.076C130.971 246.157 131.18 246.345 131.294 246.589C131.409 246.834 131.413 247.115 131.311 247.363L126.756 258.27L131.352 275.362C131.491 275.872 131.188 276.397 130.677 276.54L119.483 279.64C118.461 282.965 122.366 289.154 124.025 291.342C124.201 291.574 124.263 291.871 124.193 292.153C124.124 292.434 123.931 292.67 123.666 292.792C120.146 294.45 116.295 295.139 112.541 295.139H112.546ZM97.6887 264.512C97.1736 266.199 93.1629 279.612 94.2054 285.043C94.5325 286.754 96.5521 288.702 99.6061 290.246C105.313 293.139 114.23 294.565 121.777 291.513C120.011 288.97 116 282.476 117.881 278.43C117.999 278.173 118.224 277.982 118.498 277.909L129.234 274.934L124.798 258.446C124.741 258.242 124.757 258.022 124.839 257.826L129.119 247.579L115.142 243.077L97.6846 264.512H97.6887Z" fill="#F3FBFD"/>
<path d="M328.292 117.192C328.255 125.654 324.508 133.046 318.142 139.663C311.741 146.315 302.713 152.161 292.217 157.484C276.845 165.281 258.416 171.913 240.634 178.313C234.122 180.656 227.696 182.969 221.539 185.296C198.517 193.997 177.217 211.045 161.69 225.888C153.922 233.314 147.59 240.196 143.2 245.223C141.004 247.737 139.294 249.787 138.132 251.21C137.551 251.921 137.107 252.475 136.808 252.852C136.706 252.98 136.621 253.088 136.553 253.174L99.6814 244.296C99.8416 243.96 100.072 243.478 100.368 242.864C100.986 241.58 101.886 239.719 103.019 237.408C105.283 232.787 108.474 226.369 112.179 219.182C119.59 204.802 129.048 187.363 137.255 175.073C145.407 162.868 160.197 152.857 174.304 145.159C181.348 141.314 188.205 138.056 193.95 135.395C195.135 134.846 196.273 134.322 197.358 133.823C201.519 131.909 204.878 130.363 206.944 129.204C208.962 128.072 211.538 126.143 214.67 123.799C227.84 113.94 250.838 96.7234 283.499 100.427L283.555 99.9298L283.499 100.427C303.776 102.724 315.009 106.998 321.157 110.662C324.229 112.494 326.029 114.172 327.056 115.375C327.569 115.976 327.89 116.46 328.08 116.786C328.174 116.949 328.237 117.073 328.274 117.153C328.281 117.167 328.287 117.181 328.292 117.192Z" fill="#8D71FF" stroke="black"/>
<path d="M381.784 86.395L373.677 87.7476C373.677 87.7476 364.621 81.9336 358.816 72.5422C353.015 63.1509 340.472 51.2906 364.025 41.1292C387.577 30.9678 392.397 27.635 397.103 20.3746C401.804 13.1141 412.953 2.43123 423.873 11.2847C434.793 20.1383 426.87 37.6864 426.87 37.6864C426.87 37.6864 435.177 38.2975 432.148 45.3624C429.118 52.4314 381.788 86.395 381.788 86.395H381.784Z" fill="#141414"/>
<path d="M428.069 70.8682C428.29 70.5259 428.2 70.0818 427.873 69.8414C422.199 65.706 417.93 59.9245 415.657 53.2834C413.584 47.2289 412.105 42.9672 412.105 42.9672C403.822 66.582 371.332 54.3834 373.106 58.5678C374.885 62.7521 370.604 76.78 370.604 76.78C357.092 91.9202 344.868 101.523 323.523 110.976C358.131 155.072 381.226 137.019 381.226 137.019L395.625 108.071C410.187 107.566 429.431 98.4269 428.458 93.0569C428.118 91.1828 426.54 86.0084 424.488 79.6606C424.046 78.2916 424.239 76.7963 425.019 75.5862L428.069 70.8641V70.8682Z" fill="#D9D4F7"/>
<path d="M368.271 141.643C367.106 141.643 365.867 141.574 364.567 141.415C351.092 139.781 337.028 129.742 322.764 111.571C322.58 111.338 322.515 111.033 322.588 110.743C322.662 110.454 322.862 110.218 323.132 110.096C343.144 101.234 355.364 92.3764 369.743 76.2991C370.936 72.3307 373.541 62.0593 372.22 58.9465C371.913 58.2213 372.159 57.7038 372.33 57.4594C373.075 56.4245 374.89 56.5508 378.872 56.8319C388.197 57.4879 405.56 58.7102 411.19 42.6533C411.325 42.2662 411.693 42.0095 412.101 42.0095C412.514 42.0095 412.878 42.2703 413.013 42.6573C413.013 42.6573 414.493 46.9191 416.566 52.9776C418.786 59.4599 422.89 65.0254 428.438 69.0712C429.178 69.609 429.37 70.6317 428.876 71.3936L425.826 76.1157C425.2 77.0854 425.045 78.271 425.401 79.3711C427.776 86.7171 429.084 91.1418 429.403 92.8897C429.612 94.0468 429.182 95.2976 428.119 96.6137C423.925 101.8 408.892 108.393 396.235 109.012L382.089 137.451C382.024 137.581 381.934 137.691 381.819 137.781C381.59 137.96 376.762 141.647 368.267 141.647L368.271 141.643ZM325.053 111.35C338.545 128.259 352.273 137.984 364.8 139.504C373.868 140.6 379.46 137.08 380.47 136.379L394.767 107.639C394.926 107.321 395.245 107.117 395.601 107.105C407.547 106.689 422.645 100.321 426.627 95.3954C427.105 94.8046 427.645 93.949 427.514 93.2238C427.216 91.5819 425.891 87.1164 423.573 79.9537C423.038 78.3036 423.271 76.5191 424.211 75.0645L427.154 70.5054C421.361 66.2355 417.073 60.3888 414.746 53.5888C413.622 50.2967 412.67 47.5384 412.036 45.7049C405.07 60.6007 387.437 59.358 378.741 58.7469C376.975 58.6246 375.012 58.4861 374.15 58.5961C375.634 63.3386 371.971 75.6309 371.533 77.0569C371.492 77.1913 371.423 77.3136 371.329 77.4154C357.142 93.3094 344.51 102.595 325.053 111.346V111.35Z" fill="#D9D4F7"/>
<path d="M378.889 92.9589C378.795 92.9589 378.697 92.9467 378.603 92.9141C373.66 91.3822 370.177 88.6157 368.799 85.1199C367.708 82.3453 368.039 79.2977 369.768 76.299C370.218 75.5208 371.584 73.1536 373.526 73.4999C375.97 73.9359 376.923 78.491 377.16 79.8763C377.25 80.4018 376.894 80.8989 376.367 80.9845C375.835 81.0741 375.341 80.7196 375.251 80.1941C374.883 78.0347 373.922 75.5249 373.182 75.3945C372.982 75.3578 372.34 75.696 371.441 77.2565C369.997 79.7622 369.711 82.1701 370.594 84.4151C371.739 87.3119 374.862 89.7402 379.176 91.0766C379.687 91.2355 379.969 91.7733 379.813 92.2826C379.683 92.6941 379.302 92.9589 378.889 92.9589Z" fill="#D9D4F7"/>
<path d="M395.627 109.032C395.627 109.032 395.607 109.032 395.595 109.032C384.789 108.682 382.565 101.259 382.475 100.945C382.332 100.432 382.631 99.9019 383.142 99.7552C383.653 99.6126 384.184 99.906 384.331 100.415C384.409 100.68 386.318 106.804 395.652 107.105C396.187 107.122 396.604 107.566 396.588 108.099C396.572 108.621 396.142 109.032 395.623 109.032H395.627Z" fill="#3418D8"/>
<path d="M474.998 252.139C474.462 252.139 474.033 251.707 474.033 251.177V243.705C474.033 243.171 474.467 242.744 474.998 242.744C475.53 242.744 475.963 243.176 475.963 243.705V251.177C475.963 251.711 475.53 252.139 474.998 252.139Z" fill="#E0FB92"/>
<path d="M474.998 269.54C474.462 269.54 474.033 269.108 474.033 268.579V261.106C474.033 260.573 474.467 260.145 474.998 260.145C475.53 260.145 475.963 260.577 475.963 261.106V268.579C475.963 269.112 475.53 269.54 474.998 269.54Z" fill="#E0FB92"/>
<path d="M470.016 257.106H462.518C461.982 257.106 461.553 256.674 461.553 256.144C461.553 255.614 461.986 255.182 462.518 255.182H470.016C470.551 255.182 470.98 255.614 470.98 256.144C470.98 256.674 470.547 257.106 470.016 257.106Z" fill="#E0FB92"/>
<path d="M487.48 257.106H479.982C479.447 257.106 479.018 256.674 479.018 256.144C479.018 255.614 479.451 255.182 479.982 255.182H487.48C488.016 255.182 488.445 255.614 488.445 256.144C488.445 256.674 488.012 257.106 487.48 257.106Z" fill="#E0FB92"/>
<path d="M29.1726 139.9C28.3844 140.599 27.1873 140.524 26.4941 139.744L16.7136 128.744C16.015 127.959 16.0929 126.764 16.8751 126.07C17.6573 125.376 18.8604 125.446 19.5537 126.226L29.3341 137.225C30.0327 138.011 29.9549 139.206 29.1726 139.9Z" fill="#11D58E"/>
<path d="M51.9519 165.52C51.1637 166.219 49.9666 166.143 49.2734 165.364L39.4929 154.364C38.7943 153.579 38.8722 152.383 39.6544 151.69C40.4366 150.996 41.6397 151.066 42.333 151.846L52.1134 162.845C52.812 163.631 52.7342 164.826 51.9519 165.52Z" fill="#11D58E"/>
<path d="M28.3354 153.716L17.2989 163.503C16.5106 164.202 15.3133 164.126 14.62 163.346C13.9267 162.567 13.9992 161.365 14.7815 160.671L25.8181 150.885C26.6064 150.186 27.8036 150.261 28.4969 151.041C29.1903 151.821 29.1177 153.022 28.3354 153.716Z" fill="#11D58E"/>
<path d="M54.0386 130.925L43.002 140.712C42.2137 141.411 41.0165 141.335 40.3231 140.556C39.6298 139.776 39.7023 138.574 40.4846 137.881L51.5212 128.094C52.3095 127.395 53.5067 127.47 54.2001 128.25C54.8934 129.03 54.8209 130.231 54.0386 130.925Z" fill="#11D58E"/>
</svg>
