<svg width="601" height="625" viewBox="0 0 601 625" fill="none" xmlns="http://www.w3.org/2000/svg">
<g clip-path="url(#clip0_1343_14284)">
<path d="M339.346 466.524C466.623 466.524 569.803 362.735 569.803 234.705C569.803 106.675 466.623 2.88672 339.346 2.88672C212.068 2.88672 108.889 106.675 108.889 234.705C108.889 362.735 212.068 466.524 339.346 466.524Z" fill="#3418D8"/>
<path d="M278.4 21.542C277.451 22.94 280.267 27.6419 285.864 27.6419C291.461 27.6419 294.259 26.7043 296.594 32.8042C298.924 38.9042 295.662 59.5533 298.924 67.0614C302.19 74.5696 307.787 79.2613 311.985 75.0401C316.183 70.8155 315.719 59.5533 320.848 56.7403C325.981 53.9239 344.638 42.6616 345.574 33.2781C346.505 23.8946 339.977 16.8536 323.647 14.9783C307.32 13.0996 285.393 11.2242 278.397 21.5488L278.4 21.542Z" fill="white"/>
<path d="M218.113 231.797C215.931 233.023 214.627 235.372 214.732 237.88C215.064 245.751 212.096 265.364 205.869 271.626C197.938 279.605 200.862 293.978 200.736 299.78C200.485 311.567 201.617 316.807 214.214 322.44C226.81 328.07 231.74 328.391 232.675 339.653C233.606 350.916 235.06 394.421 238.79 405.683C242.523 416.945 250.451 435.245 254.652 439.47C258.85 443.694 268.648 446.04 262.584 430.083C256.519 414.129 252.786 406.621 259.785 397.704C266.781 388.788 278.446 368.142 279.378 360.164C280.31 352.185 284.511 347.493 288.241 346.556C291.974 345.618 299.902 342.801 302.237 339.985C304.567 337.169 299.906 329.193 298.503 322.152C297.1 315.111 297.104 310.89 308.765 305.261C320.427 299.631 314.83 283.674 298.967 279.453C283.105 275.228 273.31 266.315 275.177 257.399C277.044 248.482 264.447 249.42 256.983 245.199C249.52 240.974 249.743 234.343 241.436 231.181C230.208 226.909 222.324 229.431 218.11 231.797H218.113Z" fill="white"/>
<path d="M507.134 221.957C503.204 216.026 503.696 206.632 513.524 193.783C521.242 183.688 510.167 173.594 505.058 169.728C504.119 169.017 504.543 167.545 505.708 167.409C512.037 166.688 526.72 168.828 533.178 201.69C541.533 244.197 544.971 229.37 549.393 224.428C553.814 219.486 545.541 210.254 553.814 200.702C559.028 194.683 561.678 185.899 563.023 178.736C546.405 111.311 500.46 55.5351 439.582 25.9087C439.67 33.3085 437.898 59.0962 407.877 48.4602C407.877 48.4602 389.206 39.5608 393.627 75.646C398.048 111.728 413.281 73.1748 416.232 71.6922C419.179 70.2095 427.043 68.2326 423.604 92.453C423.604 92.453 423.113 100.855 407.88 99.3721C392.648 97.8895 389.7 105.303 389.7 109.257C389.7 113.21 391.174 123.589 382.823 131.006C374.468 138.419 376.928 157.697 388.227 151.272C399.529 144.848 407.392 124.581 417.709 122.604C428.029 120.627 437.362 133.971 447.191 130.512C457.02 127.052 452.595 110.245 457.511 110.245C462.427 110.245 472.743 120.13 471.269 127.546C469.796 134.96 454.563 138.419 458.493 147.319C462.423 156.215 470.778 153.249 473.234 159.18C475.691 165.111 460.95 172.033 449.156 164.617C437.362 157.203 435.397 168.076 429.502 163.134C423.604 158.192 423.113 147.813 414.761 151.272C406.407 154.732 401.494 161.651 390.683 166.593C379.872 171.536 371.029 177.961 371.029 184.883C371.029 191.806 374.959 199.219 372.994 210.092C371.029 220.965 367.591 250.622 402.968 244.691C438.348 238.76 433.924 257.047 433.924 259.024C433.924 261.001 433.432 286.704 436.871 291.152C440.31 295.6 448.174 308.453 436.871 325.257C425.569 342.064 429.99 379.628 440.31 374.686C450.63 369.744 460.95 350.465 473.722 340.581C486.498 330.696 504.187 287.692 496.818 274.348C489.449 261.001 507.138 250.128 509.594 241.228C512.05 232.332 511.068 227.884 507.138 221.95L507.134 221.957Z" fill="#EBE8FC"/>
<path d="M172.962 74.3157C173.149 82.5517 171.699 91.512 166.905 99.9071C152.441 125.248 152.909 137.918 151.51 163.256C150.11 188.597 181.94 233.267 189.872 237.958C197.803 242.65 199.026 231.489 199.026 222.573C199.026 213.657 195.638 202.963 190.973 192.639C186.307 182.314 186.307 175.743 187.707 171.522C189.106 167.298 194.703 165.893 198.436 170.114C202.167 174.339 211.138 178.083 215.447 175.446C220.746 172.203 218.683 159.502 220.55 155.277C222.417 151.053 232.679 148.24 236.876 139.323C241.074 130.407 248.074 126.653 256.469 122.428C264.865 118.204 272.332 116.328 273.731 113.512C275.13 110.695 273.263 104.125 275.598 96.6168C277.932 89.1086 283.529 80.1923 281.195 76.4382C278.864 72.6841 271.864 66.5842 258.803 75.971C245.743 85.3545 242.477 85.3545 238.743 78.3169C235.013 71.2793 242.941 52.976 259.268 52.976C275.594 52.976 278.86 47.3466 279.328 43.122C279.795 38.8974 274.663 34.2057 269.066 33.268C263.469 32.3303 262.534 35.6139 239.211 44.9974C223.643 51.2598 209.956 49.7907 202.566 48.1218C191.965 55.9989 182.059 64.7596 172.959 74.309L172.962 74.3157Z" fill="#EBE8FC"/>
<path d="M558.94 276.471C555.457 275.692 556.233 284.253 551.588 285.81C546.947 287.367 545.012 289.703 546.171 298.264C547.333 306.825 545.398 318.111 540.754 322.393C536.112 326.672 529.536 329.786 529.146 340.293C528.76 350.801 519.087 360.919 513.284 364.422C507.48 367.926 498.583 373.372 498.583 382.323C498.583 388.088 498.431 395.453 499.762 401.12C530.471 371.159 552.91 332.677 563.311 289.463C562.403 283.718 560.919 276.921 558.93 276.477L558.94 276.471Z" fill="white"/>
<path d="M471.531 425.374C471.298 425.374 471.064 425.263 470.918 425.056C470.681 424.718 470.759 424.251 471.098 424.014C508.65 397.518 537.204 360.858 553.676 317.999C553.825 317.613 554.259 317.42 554.645 317.569C555.031 317.718 555.225 318.151 555.076 318.537C538.498 361.677 509.758 398.575 471.962 425.239C471.83 425.33 471.68 425.374 471.531 425.374Z" fill="black"/>
<path d="M560.913 299.445C560.845 299.445 560.778 299.435 560.707 299.415C560.31 299.303 560.076 298.887 560.192 298.491C566.073 277.848 569.054 256.387 569.054 234.705C569.054 221.165 567.882 207.597 565.568 194.375C565.497 193.969 565.768 193.58 566.178 193.509C566.588 193.438 566.974 193.708 567.045 194.118C569.373 207.425 570.555 221.08 570.555 234.705C570.555 256.526 567.554 278.126 561.635 298.9C561.54 299.229 561.242 299.445 560.913 299.445Z" fill="black"/>
<path d="M175.16 72.7789C174.97 72.7789 174.781 72.7079 174.635 72.5657C174.34 72.278 174.334 71.804 174.625 71.5061C195.905 49.7738 220.773 32.7027 248.53 20.7635C277.27 8.40449 307.827 2.13867 339.345 2.13867C374.587 2.13867 408.422 9.90748 439.91 25.2318C440.283 25.4112 440.435 25.8615 440.256 26.2338C440.076 26.6062 439.626 26.7585 439.253 26.5791C407.972 11.3563 374.36 3.63489 339.345 3.63489C277.335 3.63489 219.217 28.1092 175.696 72.5521C175.55 72.7011 175.353 72.7789 175.16 72.7789Z" fill="black"/>
<path d="M304.838 458.826L207.173 444.246C206.539 444.246 206.333 444.835 206.333 445.397V528.42C206.333 536.368 150.844 557.021 150.302 555.972L150.234 564.759C150.231 566.394 151.596 567.505 153.504 567.847L236.635 583.039C240.436 583.039 244.186 582.189 247.629 580.751L292.651 561.807C300.755 558.399 305.868 551.073 305.868 543.088V459.98C305.868 459.415 305.471 458.829 304.838 458.829V458.826Z" fill="black"/>
<path d="M196.443 439.409V522.449C196.443 530.634 191.171 538.095 182.888 541.626L152.518 554.577C150.532 555.423 151.003 557.708 153.409 558.08L236.855 573.273C240.609 573.273 244.312 572.532 247.706 571.106L281.356 556.95C289.704 553.44 295.026 545.952 295.026 537.723V454.601C295.026 454.263 294.718 453.985 294.335 453.985L197.134 438.793C196.751 438.793 196.443 439.067 196.443 439.409Z" fill="#EBE8FC"/>
<path d="M236.854 574.021C236.81 574.021 236.762 574.018 236.718 574.007L153.273 558.815C151.775 558.585 150.694 557.654 150.545 556.446C150.41 555.366 151.053 554.387 152.222 553.886L182.592 540.935C190.55 537.54 195.693 530.282 195.693 522.446V439.406C195.693 438.654 196.34 438.042 197.133 438.042C197.171 438.042 197.211 438.042 197.248 438.052L294.402 453.237C295.164 453.271 295.774 453.87 295.774 454.601V537.723C295.774 546.209 290.228 554.029 281.643 557.637L247.994 571.794C244.531 573.249 240.679 574.021 236.851 574.021H236.854ZM197.194 439.561V522.449C197.194 530.888 191.696 538.684 183.182 542.316L152.812 555.268C152.273 555.498 151.982 555.867 152.033 556.259C152.087 556.693 152.568 557.194 153.523 557.339L236.922 572.521C240.526 572.511 244.155 571.783 247.414 570.412L281.064 556.256C289.09 552.881 294.277 545.603 294.277 537.719V454.727C294.256 454.727 294.236 454.723 294.219 454.72L197.191 439.555L197.194 439.561Z" fill="black"/>
<path d="M456.66 525.367L445.764 535.529L51.2444 467.319C45.7965 466.378 41.8495 461.612 41.941 456.091L46.1116 204.392L59.1858 197.381C61.5845 196.102 64.3457 195.668 67.0222 196.152L450.463 265.269C456.216 266.309 460.404 271.312 460.404 277.154L460.485 516.556C460.485 519.893 459.103 523.085 456.663 525.367H456.66Z" fill="black"/>
<path d="M440.482 274.576L440.571 274.084L440.482 274.576C445.052 275.4 448.375 279.373 448.375 284.013V526.927C448.375 532.903 442.961 537.424 437.075 536.364L437.075 536.364L50.3712 466.6C45.8014 465.777 42.4785 461.803 42.4785 457.164V214.249C42.4785 208.272 47.8945 203.751 53.7815 204.813C53.7815 204.813 53.7816 204.813 53.7816 204.813L440.482 274.576Z" fill="#EBE8FC" stroke="white"/>
<path d="M438.789 537.766C438.146 537.766 437.498 537.709 436.851 537.594L50.151 467.827C44.981 466.896 41.2305 462.411 41.2305 457.16V214.249C41.2305 211.03 42.65 207.997 45.1233 205.932C47.5965 203.867 50.8354 203.01 54.0065 203.583L440.707 273.346C445.877 274.277 449.627 278.762 449.627 284.013V526.927C449.627 530.147 448.208 533.18 445.735 535.245C443.766 536.89 441.31 537.766 438.789 537.766ZM437.119 536.118C439.85 536.609 442.641 535.874 444.776 534.094C446.907 532.313 448.13 529.7 448.13 526.927V284.013C448.13 279.49 444.898 275.624 440.443 274.822L53.7389 205.055C51.0048 204.561 48.2165 205.299 46.0821 207.079C43.951 208.86 42.728 211.47 42.728 214.246V457.16C42.728 461.683 45.9601 465.549 50.4153 466.351L437.116 536.115L437.119 536.118Z" fill="black"/>
<path d="M114.514 503.717L114.514 503.717C112.842 503.422 111.5 501.863 111.5 500.303V122.748C111.5 121.985 111.818 121.375 112.313 120.986C112.811 120.596 113.52 120.403 114.34 120.548C114.34 120.548 114.34 120.548 114.34 120.548L406.486 172.283L406.573 171.79L406.486 172.283C408.158 172.578 409.5 174.137 409.5 175.697V553.252C409.5 554.015 409.182 554.625 408.687 555.014C408.189 555.404 407.48 555.597 406.66 555.452L114.514 503.717Z" fill="#E0FB92" stroke="black"/>
<path d="M369.592 383.2C369.152 383.2 368.701 383.159 368.244 383.074L152.087 343.147C148.11 342.413 144.871 338.56 144.871 334.562C144.871 332.579 145.644 330.846 147.046 329.678C148.469 328.493 150.356 328.046 152.359 328.415L368.515 368.342C372.492 369.077 375.731 372.929 375.731 376.927C375.731 378.911 374.959 380.644 373.556 381.812C372.458 382.726 371.083 383.2 369.596 383.2H369.592ZM151.017 329.786C149.875 329.786 148.832 330.142 148.005 330.829C146.951 331.705 146.369 333.032 146.369 334.562C146.369 337.876 149.055 341.065 152.359 341.678L368.515 381.605C370.07 381.893 371.52 381.558 372.597 380.664C373.654 379.787 374.234 378.46 374.234 376.93C374.234 373.616 371.547 370.428 368.244 369.818L152.087 329.891C151.725 329.823 151.366 329.789 151.017 329.789V329.786Z" fill="#A7DD08"/>
<path d="M170.46 314.313C170.02 314.313 169.569 314.272 169.112 314.188L152.087 311.043C148.11 310.308 144.871 306.456 144.871 302.458C144.871 300.475 145.644 298.741 147.046 297.574C148.469 296.389 150.356 295.942 152.359 296.311L169.383 299.456C173.361 300.19 176.599 304.042 176.599 308.04C176.599 310.024 175.827 311.757 174.424 312.925C173.327 313.839 171.951 314.313 170.464 314.313H170.46ZM151.017 297.682C149.875 297.682 148.832 298.037 148.005 298.724C146.948 299.601 146.369 300.928 146.369 302.458C146.369 305.772 149.055 308.961 152.359 309.574L169.383 312.718C170.938 313.006 172.388 312.671 173.466 311.777C174.523 310.901 175.102 309.574 175.102 308.044C175.102 304.73 172.415 301.541 169.112 300.928L152.087 297.783C151.725 297.716 151.366 297.682 151.017 297.682V297.682Z" fill="#A7DD08"/>
<path d="M366.647 350.55C366.207 350.55 365.756 350.51 365.299 350.425L202.13 320.284C198.153 319.549 194.914 315.697 194.914 311.699C194.914 309.716 195.687 307.983 197.089 306.815C198.515 305.63 200.403 305.183 202.402 305.552L365.57 335.693C369.547 336.428 372.786 340.28 372.786 344.278C372.786 346.261 372.014 347.994 370.611 349.162C369.513 350.076 368.138 350.554 366.647 350.554V350.55ZM365.57 348.952C367.125 349.24 368.575 348.905 369.652 348.011C370.706 347.135 371.289 345.808 371.289 344.278C371.289 340.964 368.602 337.775 365.299 337.166L202.13 307.025C200.575 306.737 199.125 307.072 198.048 307.966C196.991 308.842 196.412 310.169 196.412 311.699C196.412 315.013 199.098 318.202 202.402 318.815L365.57 348.956V348.952Z" fill="#A7DD08"/>
<path d="M368.098 447.344C367.658 447.344 367.207 447.303 366.75 447.219L150.593 407.291C146.616 406.557 143.377 402.705 143.377 398.707C143.377 396.723 144.149 394.99 145.552 393.822C146.975 392.637 148.865 392.19 150.864 392.559L367.021 432.487C371.002 433.221 374.237 437.074 374.237 441.071C374.237 443.055 373.465 444.788 372.062 445.956C370.964 446.87 369.589 447.347 368.098 447.347V447.344ZM367.021 445.746C368.576 446.034 370.026 445.699 371.103 444.805C372.157 443.928 372.74 442.601 372.74 441.071C372.74 437.757 370.053 434.569 366.75 433.959L150.593 394.032C149.038 393.744 147.588 394.079 146.511 394.973C145.454 395.85 144.874 397.177 144.874 398.707C144.874 402.021 147.561 405.21 150.864 405.819L367.021 445.746V445.746Z" fill="#A7DD08"/>
<path d="M365.153 414.698C364.713 414.698 364.262 414.657 363.805 414.573L200.636 384.432C196.659 383.697 193.42 379.845 193.42 375.847C193.42 373.863 194.192 372.13 195.595 370.962C197.018 369.778 198.905 369.331 200.907 369.7L364.076 399.837C368.053 400.572 371.292 404.424 371.292 408.422C371.292 410.406 370.52 412.139 369.117 413.307C368.019 414.221 366.644 414.695 365.156 414.695L365.153 414.698ZM199.562 371.071C198.421 371.071 197.377 371.426 196.55 372.113C195.493 372.99 194.914 374.317 194.914 375.847C194.914 379.161 197.601 382.35 200.904 382.959L364.072 413.1C365.627 413.388 367.077 413.053 368.155 412.159C369.212 411.282 369.791 409.955 369.791 408.425C369.791 405.111 367.105 401.923 363.801 401.31L200.633 371.172C200.27 371.105 199.911 371.071 199.562 371.071V371.071Z" fill="#A7DD08"/>
<path d="M326.738 311.073C326.297 311.073 325.847 311.033 325.389 310.948L152.087 278.939C148.11 278.204 144.871 274.352 144.871 270.354C144.871 268.37 145.644 266.637 147.046 265.469C148.469 264.284 150.356 263.838 152.359 264.207L325.66 296.216C329.638 296.951 332.877 300.803 332.877 304.801C332.877 306.784 332.104 308.518 330.702 309.685C329.604 310.599 328.228 311.073 326.741 311.073H326.738ZM151.017 265.574C149.875 265.574 148.832 265.93 148.005 266.617C146.948 267.494 146.369 268.821 146.369 270.351C146.369 273.665 149.055 276.853 152.359 277.466L325.66 309.476C327.215 309.763 328.665 309.428 329.743 308.535C330.8 307.658 331.379 306.331 331.379 304.801C331.379 301.487 328.693 298.298 325.389 297.685L152.087 265.676C151.725 265.608 151.366 265.574 151.017 265.574V265.574Z" fill="#A7DD08"/>
<path d="M369.592 286.887C369.152 286.887 368.701 286.846 368.244 286.761L152.087 246.834C148.11 246.1 144.871 242.247 144.871 238.25C144.871 236.266 145.644 234.533 147.046 233.365C148.469 232.18 150.356 231.733 152.359 232.102L368.515 272.029C372.492 272.764 375.731 276.616 375.731 280.614C375.731 282.598 374.959 284.331 373.556 285.499C372.458 286.413 371.083 286.887 369.596 286.887H369.592ZM151.017 233.473C149.875 233.473 148.832 233.829 148.005 234.516C146.948 235.392 146.369 236.719 146.369 238.25C146.369 241.564 149.055 244.752 152.359 245.365L368.515 285.292C370.07 285.58 371.52 285.245 372.597 284.351C373.654 283.474 374.234 282.147 374.234 280.617C374.234 277.303 371.547 274.115 368.244 273.502L152.087 233.575C151.725 233.507 151.366 233.473 151.017 233.473V233.473Z" fill="#A7DD08"/>
<path d="M307.904 234.665C307.464 234.665 307.013 234.624 306.556 234.54L213.769 217.401C209.792 216.666 206.553 212.814 206.553 208.816C206.553 206.832 207.325 205.099 208.728 203.931C210.151 202.747 212.038 202.3 214.04 202.669L306.827 219.808C310.804 220.542 314.043 224.394 314.043 228.392C314.043 230.376 313.271 232.109 311.868 233.277C310.77 234.191 309.395 234.665 307.904 234.665V234.665ZM306.827 233.067C308.382 233.355 309.832 233.02 310.909 232.126C311.963 231.249 312.546 229.922 312.546 228.392C312.546 225.078 309.859 221.889 306.556 221.28L213.769 204.141C212.214 203.854 210.764 204.189 209.687 205.082C208.633 205.959 208.05 207.286 208.05 208.816C208.05 212.13 210.737 215.319 214.04 215.928L306.827 233.067Z" fill="#A7DD08"/>
<path d="M180.668 461.89C180.268 461.89 179.858 461.852 179.445 461.774L117.868 450.4C114.267 449.737 111.34 446.25 111.34 442.628C111.34 440.827 112.041 439.253 113.318 438.194C114.613 437.117 116.324 436.708 118.143 437.046L179.719 448.42C183.321 449.084 186.248 452.57 186.248 456.192C186.248 457.993 185.547 459.567 184.269 460.63C183.27 461.46 182.023 461.893 180.671 461.893L180.668 461.89ZM116.92 438.431C115.914 438.431 114.995 438.746 114.27 439.345C113.342 440.117 112.834 441.284 112.834 442.632C112.834 445.563 115.212 448.39 118.139 448.931L179.716 460.305C181.085 460.556 182.362 460.265 183.307 459.479C184.236 458.708 184.747 457.543 184.747 456.192C184.747 453.261 182.369 450.434 179.445 449.893L117.868 438.519C117.547 438.461 117.232 438.431 116.923 438.431H116.92Z" fill="#A7DD08"/>
<path d="M100.171 272.51L100.432 288.264C100.669 290.224 102.082 291.842 103.992 292.34L104.792 292.797C106.096 293.129 106.774 293.406 107.584 296.382C97.5655 299.523 87.9369 298.85 78.83 293.044C78.4404 292.191 78.5657 291.199 79.8362 291.094L81.2049 290.766C83.0954 290.343 84.5455 288.83 84.8911 286.924L86.6325 266.793L100.171 272.51Z" fill="white"/>
<path d="M96.2136 298.971C89.9086 298.971 83.9559 297.204 78.4267 293.677C78.3048 293.599 78.2099 293.488 78.1489 293.359C77.8033 292.604 77.7999 291.842 78.1354 291.27C78.3488 290.901 78.7994 290.451 79.7141 290.356L81.0321 290.042C82.6447 289.683 83.8644 288.407 84.1558 286.792L85.887 266.728C85.9074 266.488 86.0429 266.275 86.2462 266.153C86.4528 266.028 86.7035 266.011 86.9238 266.105L100.462 271.823C100.737 271.938 100.913 272.205 100.919 272.5L101.18 288.214C101.397 289.862 102.573 291.196 104.182 291.616C104.246 291.633 104.307 291.656 104.365 291.69L105.08 292.096C106.632 292.506 107.468 293.088 108.309 296.186C108.414 296.575 108.193 296.974 107.811 297.096C103.83 298.345 99.9607 298.968 96.2136 298.968V298.971ZM79.4397 292.547C87.7335 297.76 96.6473 298.853 106.662 295.884C106.042 293.89 105.558 293.765 104.609 293.525C104.545 293.508 104.48 293.484 104.423 293.45L103.704 293.041C101.533 292.431 99.9607 290.607 99.6863 288.359C99.6863 288.332 99.6795 288.308 99.6795 288.281L99.4254 273.014L87.2863 267.886L85.6329 286.992C85.2264 289.266 83.5527 291.01 81.3641 291.501L80.0089 291.826C79.9716 291.836 79.9344 291.839 79.8971 291.842C79.7819 291.853 79.5075 291.89 79.4262 292.025C79.372 292.117 79.3618 292.303 79.4363 292.547H79.4397Z" fill="black"/>
<path d="M108.031 242.061C104.114 241.635 107.194 246.306 93.3742 241.245C87.7095 239.17 90.2539 246.133 88.7768 245.626C83.3086 243.747 81.1877 245.487 79.8494 246.377C78.3045 247.41 76.6952 249.979 76.9053 252.453C77.1831 255.717 81.4418 256.922 83.4712 263.892C84.8975 268.786 84.3351 271.687 86.2392 272.49C88.1635 273.299 89.7457 270.76 91.914 271.488C94.7193 272.429 93.9062 277.3 96.5725 279.473C98.2529 280.844 102.291 281.65 108.969 278.83C110.053 278.373 110.656 277.209 110.402 276.061C110.077 274.592 109.653 272.737 109.105 271C106.476 262.72 103.66 260.733 104.826 258.682C106.608 255.541 112.648 257.704 113.8 255.111C114.996 252.413 113.394 242.647 108.027 242.061H108.031Z" fill="#8366F4"/>
<path d="M94.2004 260.337C94.6815 261.349 95.088 262.392 95.4234 263.462C96.0536 265.462 97.1581 268.888 97.9238 270.76C98.8724 273.082 105.638 271.288 107.742 270.669C108.081 270.567 108.264 270.201 108.142 269.873L107.525 267.876L109.175 267.547C109.372 267.48 109.558 267.368 109.697 267.212C110.039 266.816 110.07 266.271 109.816 265.855C108.501 263.692 106.146 260.124 105.116 255.808C105.011 255.368 104.659 255.029 104.215 254.945C102.684 254.66 99.0384 254.329 95.3557 256.556C94.0581 257.341 93.5567 258.973 94.2038 260.341L94.2004 260.337Z" fill="white"/>
<path d="M100.909 272.669C99.1197 272.669 97.7205 272.232 97.2326 271.041C96.45 269.128 95.3184 265.611 94.712 263.685C94.3867 262.653 93.9903 261.634 93.5262 260.659C92.7131 258.942 93.3331 256.905 94.9661 255.913C98.9063 253.526 102.84 253.922 104.351 254.203C105.083 254.339 105.672 254.901 105.845 255.628C106.76 259.447 108.759 262.7 110.083 264.853L110.456 265.462C110.886 266.17 110.808 267.07 110.263 267.7C110.049 267.943 109.758 268.136 109.423 268.255C109.389 268.265 109.358 268.275 109.324 268.282L108.487 268.448L108.86 269.65C108.979 269.964 108.955 270.357 108.786 270.692C108.616 271.027 108.315 271.278 107.956 271.386C105.631 272.07 103.002 272.669 100.909 272.669ZM101.939 255.486C100.261 255.486 98.0017 255.825 95.7419 257.192C94.7662 257.781 94.3969 258.997 94.878 260.016C95.3692 261.055 95.7961 262.138 96.1383 263.235C96.738 265.137 97.856 268.61 98.6149 270.472C99.0553 271.549 102.735 271.342 107.393 269.985L106.807 268.092C106.746 267.889 106.77 267.669 106.878 267.49C106.987 267.307 107.166 267.182 107.376 267.138L108.969 266.82C109.04 266.789 109.094 266.755 109.131 266.715C109.25 266.576 109.267 266.39 109.175 266.237L108.806 265.635C107.43 263.401 105.354 260.026 104.385 255.974C104.347 255.818 104.225 255.7 104.073 255.672C103.599 255.584 102.853 255.483 101.935 255.483L101.939 255.486ZM107.437 270.117C107.437 270.117 107.437 270.123 107.441 270.13V270.117H107.437Z" fill="black"/>
<path d="M92.9535 267.747C88.8439 269.176 87.4514 265.35 88.3594 263.072C88.7423 262.114 90.067 262.02 90.6158 262.893L93.211 267.033C93.377 267.297 93.2483 267.646 92.9535 267.751V267.747Z" fill="white"/>
<path d="M51.3984 573.848L52.2861 590.246L63.2597 592.094L64.2355 572.755L51.3984 573.848Z" fill="white"/>
<path d="M63.2589 592.842C63.2183 592.842 63.1742 592.842 63.1336 592.832L52.1599 590.984C51.8144 590.926 51.5569 590.635 51.5365 590.286L50.6455 573.889C50.6252 573.486 50.9267 573.137 51.3299 573.104L64.1703 572.01C64.3871 571.993 64.5972 572.068 64.753 572.217C64.9089 572.366 64.9902 572.576 64.98 572.792L64.0043 592.131C63.9941 592.344 63.8925 592.544 63.7265 592.676C63.591 592.785 63.4283 592.842 63.2589 592.842ZM53.0001 589.606L62.5509 591.217L63.4419 573.574L52.1803 574.532L53.0001 589.606Z" fill="black"/>
<path d="M63.5636 620.576C58.9322 620.993 51.3601 621.179 42.5649 619.51C39.6818 618.962 37.8997 616.054 38.7433 613.244C41.0912 605.425 45.2109 590.571 51.3296 583.902L52.573 587.751L54.7312 584.295C55.0259 583.821 55.5307 583.516 56.0863 583.476L60.4467 583.144C61.358 583.076 62.1678 583.716 62.3134 584.616L62.8386 587.927L64.5665 583.702L68.0256 615.265C68.2424 617.956 66.2571 620.333 63.5636 620.573V620.576Z" fill="white"/>
<path d="M57.0088 621.612C52.8586 621.612 47.8749 621.28 42.427 620.245C40.8414 619.943 39.449 618.979 38.6155 617.604C37.7821 616.233 37.5686 614.568 38.0294 613.031L38.5342 611.345C40.9397 603.265 44.9612 589.741 50.7817 583.398C50.9613 583.201 51.2323 583.113 51.4932 583.171C51.7541 583.228 51.9641 583.418 52.0455 583.672L52.7908 585.987L54.0952 583.899C54.5153 583.225 55.2403 582.788 56.0297 582.728L60.39 582.396C61.6775 582.294 62.8497 583.222 63.053 584.498L63.158 585.161L63.8729 583.418C64.0016 583.1 64.3336 582.91 64.6724 582.961C65.0112 583.008 65.2755 583.279 65.3128 583.621L68.7753 615.184C69.0294 618.302 66.7222 621.043 63.6357 621.321C61.7994 621.484 59.5634 621.612 57.0122 621.612H57.0088ZM51.0325 585.409C45.8963 591.861 42.2169 604.226 39.9707 611.768L39.4659 613.457C39.1203 614.605 39.2728 615.8 39.8962 616.822C40.5128 617.838 41.5393 618.549 42.7082 618.769C51.3374 620.407 58.7774 620.248 63.5002 619.825C65.7701 619.622 67.4641 617.601 67.2812 615.323L64.1439 586.712L63.5341 588.205C63.4053 588.516 63.0835 588.706 62.7549 588.665C62.4194 588.628 62.1552 588.37 62.101 588.039L61.5758 584.728C61.4945 584.217 61.0304 583.851 60.5052 583.885L56.1449 584.217C55.8264 584.241 55.5385 584.417 55.3691 584.688L53.2109 588.144C53.0551 588.391 52.7739 588.526 52.4825 588.489C52.1945 588.452 51.9506 588.252 51.8625 587.974L51.0325 585.405V585.409Z" fill="black"/>
<path d="M53.5863 616.209C49.9544 616.209 45.7939 615.844 41.6911 614.689C41.2913 614.578 41.0609 614.165 41.1727 613.765C41.2845 613.366 41.7013 613.136 42.0977 613.247C52.7562 616.243 64.2144 613.657 64.3296 613.63C64.7327 613.535 65.1359 613.786 65.2274 614.192C65.3222 614.595 65.0681 614.997 64.6684 615.089C64.3668 615.16 59.7287 616.209 53.5863 616.209Z" fill="black"/>
<path d="M59.349 604.067H59.3354L48.9716 603.888C48.5583 603.881 48.2297 603.539 48.2364 603.126C48.2432 602.713 48.5549 602.375 48.9987 602.391L59.3625 602.571C59.7759 602.578 60.1045 602.92 60.0977 603.333C60.091 603.742 59.7555 604.067 59.349 604.067Z" fill="black"/>
<path d="M103.537 567.769L103.991 591.654L117.272 592.324L119.091 568.551L103.537 567.769Z" fill="white"/>
<path d="M117.275 593.072C117.275 593.072 117.248 593.072 117.237 593.072L103.957 592.402C103.564 592.382 103.252 592.064 103.245 591.667L102.791 567.782C102.788 567.576 102.869 567.376 103.018 567.23C103.167 567.085 103.367 567.007 103.577 567.021L119.131 567.806C119.335 567.816 119.521 567.907 119.656 568.06C119.789 568.212 119.856 568.412 119.843 568.612L118.023 592.385C117.993 592.778 117.668 593.076 117.278 593.076L117.275 593.072ZM104.729 590.943L116.584 591.539L118.288 569.261L104.302 568.557L104.726 590.943H104.729Z" fill="black"/>
<path d="M99.8422 604.917C99.6965 607.168 101.136 609.223 103.305 609.842C110.85 612.002 127.854 616.822 132.722 617.8C139.044 619.07 146.969 617.513 150.52 613.962C154.07 610.411 143.622 600.973 138.611 597.48C131.167 592.29 124.266 582.426 121.193 581.841C118.12 581.258 111.886 589.938 111.886 589.938L102.641 585.496C102.641 585.496 100.588 593.502 99.8388 604.913L99.8422 604.917Z" fill="white"/>
<path d="M137.3 618.985C135.697 618.985 134.102 618.84 132.574 618.532C127.648 617.543 110.318 612.628 103.098 610.56C100.608 609.845 98.9243 607.452 99.0937 604.866C99.8357 593.516 101.896 585.395 101.916 585.314C101.974 585.097 102.123 584.914 102.326 584.819C102.529 584.725 102.763 584.724 102.966 584.823L111.65 588.993C113.3 586.766 118.236 580.513 121.332 581.102C123.111 581.441 125.51 583.956 128.83 587.439C131.906 590.662 135.389 594.318 139.041 596.863C143.08 599.68 151.557 607.029 151.973 611.768C152.072 612.865 151.76 613.779 151.048 614.49C148.25 617.289 142.761 618.985 137.3 618.985ZM100.588 604.964C100.466 606.853 101.692 608.603 103.508 609.121C110.711 611.182 127.993 616.087 132.868 617.066C139.167 618.328 146.688 616.734 149.988 613.43C150.374 613.044 150.537 612.543 150.479 611.9C150.157 608.261 143.131 601.545 138.181 598.092C134.407 595.462 130.866 591.749 127.742 588.472C124.971 585.567 122.356 582.822 121.051 582.575C119.252 582.233 114.966 586.932 112.493 590.374C112.283 590.669 111.887 590.77 111.562 590.611L103.156 586.573C102.614 588.956 101.181 595.916 100.588 604.961V604.964Z" fill="black"/>
<path d="M137.859 614.625C123.85 614.625 104.101 605.472 103.03 604.971C102.654 604.795 102.495 604.351 102.671 603.976C102.847 603.6 103.295 603.441 103.667 603.617C103.999 603.773 136.88 619.016 147.172 610.631C147.494 610.37 147.965 610.417 148.226 610.739C148.487 611.061 148.44 611.531 148.118 611.792C145.611 613.833 141.982 614.629 137.859 614.629V614.625Z" fill="black"/>
<path d="M122.136 599.419C121.919 599.419 121.702 599.325 121.553 599.142C121.292 598.82 121.34 598.35 121.661 598.089L128.725 592.341C129.047 592.081 129.518 592.128 129.779 592.449C130.04 592.771 129.992 593.242 129.671 593.502L122.607 599.25C122.468 599.362 122.302 599.419 122.132 599.419H122.136Z" fill="black"/>
<path d="M60.2586 408.787C60.2586 408.787 48.028 484.001 44.5791 509.579C41.1301 535.157 46.2358 576.81 46.2358 576.81L66.7907 576.766C66.7907 576.766 70.7309 526.633 72.9568 512.767C72.9568 512.767 82.5718 494.305 85.9869 477.576C89.4054 460.85 99.4914 434.663 99.4914 434.663C99.4914 434.663 99.8844 567.911 100.04 578.388C100.04 578.388 116.082 579.914 122.028 576.58C122.028 576.58 134.686 528.637 134.55 502.199C134.415 475.762 134.127 409.6 134.127 409.6L60.2552 408.784L60.2586 408.787Z" fill="white"/>
<path d="M108.164 579.495C103.838 579.495 100.28 579.166 99.972 579.136C99.5926 579.099 99.3012 578.784 99.2944 578.401C99.1555 569.082 98.8235 461.29 98.7557 438.769C95.8455 446.66 89.3134 465.038 86.7216 477.728C83.459 493.699 74.4775 511.447 73.6779 513.004C71.4791 526.846 67.5762 576.326 67.5389 576.824C67.5084 577.213 67.1832 577.514 66.7936 577.514L46.2353 577.558C45.8559 577.558 45.5374 577.277 45.49 576.902C45.4391 576.485 40.4114 534.859 43.8366 509.477C47.2483 484.18 59.3976 409.417 59.5196 408.666C59.5772 408.303 59.8923 408.036 60.2582 408.036H60.2649L134.136 408.852C134.546 408.855 134.875 409.187 134.878 409.596C134.878 409.596 135.166 475.758 135.302 502.196C135.437 528.43 122.882 576.289 122.753 576.77C122.702 576.966 122.573 577.132 122.394 577.23C119.141 579.055 113.138 579.488 108.161 579.488L108.164 579.495ZM100.785 577.704C103.804 577.938 116.211 578.709 121.391 576.079C122.482 571.875 133.936 527.131 133.808 502.209C133.679 477.41 133.418 417.653 133.388 410.345L60.8985 409.542C59.7025 416.912 48.5662 485.649 45.3273 509.68C42.1664 533.122 46.2794 570.639 46.9061 576.062L66.1024 576.021C66.5869 569.935 70.1578 525.502 72.2211 512.652C72.2347 512.575 72.2584 512.497 72.2956 512.426C72.3905 512.243 81.9006 493.858 85.258 477.43C88.6494 460.833 98.6947 434.663 98.7964 434.399C98.9251 434.064 99.2775 433.864 99.6298 433.932C99.9856 433.996 100.243 434.304 100.243 434.666C100.246 435.973 100.626 563.304 100.785 577.704Z" fill="black"/>
<path d="M69.1815 513.323C69.1815 513.323 69.1544 513.323 69.1442 513.323L62.8765 513.008C62.4631 512.988 62.1447 512.635 62.165 512.223C62.1853 511.81 62.5444 511.495 62.951 511.512L69.2187 511.826C69.6321 511.847 69.9506 512.199 69.9302 512.612C69.9099 513.011 69.5779 513.323 69.1815 513.323Z" fill="black"/>
<path d="M111.874 554.222C111.857 554.222 111.84 554.222 111.824 554.222C111.41 554.194 111.099 553.836 111.129 553.423C111.976 541.118 126.599 519.748 127.222 518.844C127.456 518.505 127.923 518.417 128.265 518.651C128.608 518.884 128.692 519.352 128.459 519.694C128.309 519.91 113.446 541.629 112.626 553.528C112.599 553.924 112.271 554.225 111.881 554.225L111.874 554.222Z" fill="black"/>
<path d="M120.529 299.479C143.5 342.463 137.239 363.82 167.805 322.488C168.71 321.266 170.631 321.631 171.017 323.1L174.053 334.633C174.053 334.633 110.863 431.092 122.061 337.484L120.533 299.476L120.529 299.479Z" fill="#11D58E"/>
<path d="M60.6031 411.973C69.4084 414.972 78.1494 419.867 92.4128 417.331L99.5038 409.874L105.85 416.587C115.339 420.276 126.079 420.202 137.578 417.331L128.031 335.994L124.761 311.164C122.274 296.991 116.102 292.604 103.166 291.467C100.043 291.192 98.108 303.92 94.4015 303.704C90.4715 303.477 84.7424 290.312 80.2195 290.207C74.199 290.065 67.6772 290.058 60.7284 290.245C51.4284 290.495 43.1279 293.311 36.6094 299.943C27.5534 309.157 55.7854 345.32 55.7854 345.32C55.7854 345.32 62.3005 380.647 60.6031 411.969V411.973Z" fill="#11D58E"/>
<path d="M78.4815 294.564C81.5544 310.23 86.5144 325.917 93.1582 341.624C99.4023 327.129 103.956 312.64 106.171 298.162C106.676 294.872 104.264 291.849 100.937 291.636C95.1639 297.671 88.8115 296.348 82.1033 290.438C79.8333 290.292 78.0411 292.333 78.4781 294.564H78.4815Z" fill="white"/>
<path d="M93.1591 342.372C92.8576 342.372 92.5899 342.192 92.4714 341.915C85.7123 325.93 80.7591 310.047 77.7506 294.71C77.4965 293.416 77.8489 292.11 78.7196 291.118C79.5903 290.13 80.8438 289.612 82.155 289.693C82.321 289.703 82.4768 289.767 82.6022 289.879C89.6288 296.07 95.2834 296.466 100.396 291.121C100.548 290.962 100.762 290.878 100.985 290.891C102.771 291.006 104.441 291.87 105.562 293.264C106.694 294.666 107.185 296.494 106.911 298.278C104.787 312.17 100.511 326.448 93.8435 341.922C93.7249 342.196 93.4539 342.375 93.1557 342.375L93.1591 342.372ZM81.8162 291.182C81.0573 291.199 80.3492 291.528 79.841 292.106C79.2786 292.746 79.0516 293.589 79.2142 294.422C82.1008 309.14 86.7897 324.363 93.1591 339.701C99.3794 324.969 103.394 311.33 105.427 298.051C105.637 296.68 105.258 295.278 104.394 294.202C103.591 293.207 102.476 292.58 101.222 292.418C95.6933 297.98 89.1681 297.563 81.8162 291.182Z" fill="black"/>
<path d="M96.3556 309.303L99.3167 322.975L94.089 341.752L88.6784 326.891L91.853 309.394L87.7637 301.402L92.4425 295.989L95.8609 295.901L99.9875 301.635L96.3556 309.303Z" fill="white"/>
<path d="M94.0865 342.504C93.7714 342.504 93.4902 342.307 93.3818 342.009L87.9712 327.149C87.9272 327.024 87.9136 326.888 87.9373 326.76L91.0678 309.509L87.0937 301.744C86.9548 301.473 86.9955 301.145 87.192 300.914L91.8708 295.502C92.0097 295.342 92.2062 295.248 92.4196 295.244L95.8415 295.153C96.0922 295.139 96.326 295.261 96.4683 295.464L100.591 301.199C100.751 301.419 100.778 301.71 100.659 301.957L97.1391 309.397L100.046 322.823C100.073 322.941 100.066 323.063 100.036 323.182L94.8082 341.959C94.7201 342.273 94.4423 342.494 94.1136 342.507C94.1035 342.507 94.0933 342.507 94.0831 342.507L94.0865 342.504ZM89.4518 326.827L93.9917 339.301L98.5417 322.951L95.6213 309.458C95.5874 309.296 95.6043 309.13 95.6755 308.981L99.1177 301.71L95.4824 296.656L92.7889 296.727L88.659 301.507L92.5213 309.049C92.5958 309.194 92.6195 309.364 92.5924 309.523L89.4518 326.821V326.827Z" fill="black"/>
<path d="M81.856 308.941C78.6069 303.196 75.9507 295.779 79.5454 291.101L84.4681 285.79C84.4681 285.79 87.1412 293.846 93.6427 295.935L81.8593 308.941H81.856Z" fill="white"/>
<path d="M81.8567 309.689C81.8296 309.689 81.8025 309.689 81.7754 309.685C81.5349 309.658 81.3248 309.519 81.2063 309.309C77.9978 303.633 74.9995 295.789 78.9532 290.647L83.92 285.285C84.0996 285.092 84.3672 285.008 84.6281 285.062C84.8856 285.12 85.099 285.306 85.1804 285.556C85.2075 285.634 87.8196 293.278 93.8739 295.224C94.1144 295.302 94.3008 295.498 94.3685 295.742C94.4329 295.989 94.3685 296.25 94.1991 296.439L82.4158 309.445C82.2735 309.604 82.0702 309.692 81.8601 309.692L81.8567 309.689ZM84.2046 287.174L80.095 291.609C76.7443 295.972 79.6207 303.199 82.0058 307.658L92.3493 296.246C87.6942 294.212 85.1634 289.398 84.2046 287.174Z" fill="black"/>
<path d="M94.8178 295.823C99.2663 293.521 100.042 286.375 100.042 286.375C100.042 286.375 105.178 290.194 106.3 295.827C107.95 304.107 104.596 309.679 104.596 309.679L94.8145 295.827L94.8178 295.823Z" fill="white"/>
<path d="M104.599 310.423C104.355 310.423 104.128 310.305 103.986 310.105L94.2049 296.253C94.0795 296.077 94.0389 295.854 94.0897 295.644C94.1405 295.434 94.2794 295.255 94.4725 295.156C98.5042 293.068 99.2902 286.359 99.297 286.291C99.3275 286.023 99.4969 285.793 99.7442 285.685C99.9915 285.577 100.276 285.61 100.49 285.77C100.71 285.932 105.87 289.825 107.035 295.674C108.722 304.141 105.382 309.821 105.24 310.058C105.107 310.274 104.877 310.41 104.626 310.42C104.616 310.42 104.609 310.42 104.599 310.42V310.423ZM95.8989 296.05L104.481 308.206C105.311 306.249 106.727 301.784 105.568 295.969C104.806 292.147 102.055 289.168 100.567 287.797C100.13 289.92 98.9243 293.999 95.8989 296.047V296.05Z" fill="black"/>
<path d="M205.229 310.193L188.187 292.367L21.0517 452.526C19.273 454.229 19.3611 457.499 21.3397 460.508C23.7113 464.117 26.6453 467.184 30.1417 469.712C33.0621 471.821 36.3179 472.051 38.0966 470.349L205.229 310.19V310.193Z" fill="#3418D8"/>
<path d="M35.0209 472.224C33.3337 472.224 31.4466 471.581 29.6984 470.322C26.1444 467.752 23.1189 464.587 20.7101 460.921C18.5486 457.631 18.474 453.958 20.5305 451.988L187.663 291.829C187.805 291.69 188.005 291.626 188.198 291.619C188.398 291.622 188.584 291.707 188.723 291.849L205.765 309.675C206.049 309.973 206.039 310.447 205.741 310.731L38.6122 470.894C37.6805 471.787 36.4201 472.228 35.0209 472.228V472.224ZM188.161 293.427L21.5706 453.068C20.0427 454.53 20.2087 457.421 21.967 460.099C24.2776 463.612 27.1743 466.646 30.5827 469.11C33.1778 470.985 36.0542 471.273 37.5788 469.814L204.172 310.173L188.164 293.43L188.161 293.427Z" fill="black"/>
<path d="M58.6073 427.094C58.4108 427.094 58.2143 427.016 58.0652 426.864C57.7773 426.566 57.7874 426.092 58.0856 425.804L128.728 358.112C129.026 357.825 129.501 357.835 129.789 358.133C130.077 358.431 130.067 358.905 129.768 359.192L59.1257 426.884C58.98 427.023 58.7937 427.094 58.6073 427.094Z" fill="black"/>
<path d="M145.4 343.922C145.204 343.922 145.007 343.844 144.858 343.692C144.57 343.394 144.58 342.92 144.879 342.632L175.54 313.25C175.838 312.962 176.312 312.972 176.6 313.27C176.888 313.568 176.878 314.042 176.58 314.329L145.919 343.712C145.773 343.851 145.587 343.922 145.4 343.922Z" fill="black"/>
<path d="M44.205 453.339C44.0085 453.339 43.812 453.261 43.6629 453.109C43.3749 452.811 43.3851 452.337 43.6832 452.049L161.141 339.495C161.439 339.207 161.913 339.217 162.201 339.515C162.489 339.813 162.479 340.287 162.181 340.574L44.7233 453.129C44.5777 453.268 44.3913 453.339 44.205 453.339Z" fill="black"/>
<path d="M234.885 273.793L234.868 273.817C233.022 272.659 230.759 270.52 229.197 268.888C227.635 267.253 226.859 266.217 225.785 264.318L188.209 292.347C191.966 300.132 197.648 306.073 205.254 310.173L234.889 273.793H234.885Z" fill="white"/>
<path d="M225.351 266.508C226.127 267.713 226.906 268.661 228.113 269.92C228.936 270.784 230.799 272.662 232.69 274.115L204.885 308.25C198.485 304.55 193.521 299.357 190.11 292.794L225.351 266.505V266.508ZM225.785 264.318L188.209 292.347C191.966 300.132 197.648 306.073 205.251 310.173L234.865 273.817C233.018 272.659 230.755 270.52 229.193 268.888C227.631 267.253 226.856 266.217 225.782 264.318H225.785ZM234.885 273.793L234.865 273.817L234.882 273.793H234.885Z" fill="black"/>
<path d="M229.725 269.639C231.287 271.274 233.015 272.659 234.864 273.817L252.977 251.583C254.572 249.627 250.788 245.666 248.762 247.176L225.781 264.318C226.855 266.217 228.163 268.008 229.725 269.639Z" fill="black"/>
<path d="M37.5409 299.107L56.0799 346.224C48.1588 366.176 51.3842 384.235 68.7069 407.823L61.4295 421.062C-8.18325 396.821 5.87685 334.664 37.5409 299.107Z" fill="#11D58E"/>
<path d="M76.4263 412.037C71.6831 409.681 67.7463 406.665 64.4667 403.239C60.3537 407.426 56.6778 411.956 53.3711 416.762C64.0771 422.101 73.8887 423.611 77.4901 422.619C87.8336 419.775 100.193 420.33 100.193 420.33C94.081 409.853 76.4263 412.033 76.4263 412.033V412.037Z" fill="white"/>
<path d="M74.7754 423.661C69.8425 423.661 61.6572 421.728 53.0382 417.433C52.8451 417.335 52.7028 417.159 52.6486 416.949C52.5943 416.739 52.635 416.515 52.757 416.336C56.1822 411.36 59.9429 406.776 63.9373 402.711C64.0796 402.565 64.2727 402.464 64.476 402.488C64.6793 402.488 64.8724 402.572 65.0113 402.718C68.3518 406.211 72.2378 409.085 76.5643 411.265C78.7733 411.032 94.8628 409.705 100.843 419.951C100.981 420.188 100.978 420.479 100.836 420.716C100.693 420.95 100.426 421.082 100.162 421.075C100.04 421.068 87.7988 420.557 77.6925 423.336C76.9268 423.546 75.9409 423.655 74.7754 423.655V423.661ZM54.4848 416.475C65.1095 421.613 74.1724 422.758 77.2927 421.898C85.556 419.623 95.188 419.508 98.7793 419.548C92.3828 410.93 76.6829 412.758 76.5169 412.778C76.3712 412.795 76.2221 412.771 76.09 412.707C71.7635 410.554 67.8538 407.734 64.4658 404.312C60.922 407.978 57.5679 412.064 54.4815 416.475H54.4848Z" fill="black"/>
<path d="M185.386 328.567C191.657 327.721 203.149 324.343 196.644 310.894C196.021 309.604 194.449 309.079 193.158 309.706C189.19 311.632 182.994 318.277 181.757 324.766C181.344 326.926 183.204 328.862 185.386 328.567Z" fill="white"/>
<path d="M184.938 329.349C183.847 329.349 182.817 328.906 182.048 328.097C181.157 327.156 180.784 325.893 181.025 324.63C182.359 317.633 188.854 310.968 192.835 309.039C193.648 308.643 194.566 308.588 195.42 308.886C196.264 309.177 196.938 309.777 197.324 310.576C199.638 315.362 199.953 319.39 198.252 322.545C195.833 327.044 189.976 328.71 185.49 329.315C185.307 329.339 185.124 329.353 184.941 329.353L184.938 329.349ZM194.305 310.193C194.024 310.193 193.746 310.257 193.486 310.383C189.701 312.221 183.691 318.635 182.492 324.911C182.343 325.697 182.576 326.482 183.132 327.068C183.694 327.66 184.48 327.938 185.283 327.829C188.675 327.372 194.695 325.984 196.928 321.834C198.385 319.123 198.063 315.555 195.969 311.225C195.759 310.789 195.386 310.46 194.922 310.301C194.719 310.23 194.512 310.196 194.305 310.196V310.193Z" fill="black"/>
<path d="M580.715 126.754L600.25 120.807L598.593 103.042L578.293 100.452C577.154 96.4914 575.643 92.5917 573.783 88.7903L587.566 74.3664L576.778 59.7698L557.812 67.1764C554.679 64.2212 551.331 61.547 547.794 59.1842L552.131 40.1701L535.106 32.6518L522.577 48.0777C518.356 47.0283 514.053 46.3107 509.707 45.9383L503.442 27.3879L484.737 28.962L482.01 48.2435C477.839 49.3234 473.733 50.7587 469.728 52.5257L454.54 39.4355L439.172 49.6822L446.971 67.6977C443.858 70.6766 441.042 73.8552 438.556 77.2098L418.536 73.0902L410.618 89.2608L426.86 101.159C425.756 105.167 425 109.257 424.607 113.383L405.072 119.331L406.729 137.096L427.03 139.685C428.168 143.646 429.679 147.545 431.539 151.35L417.757 165.774L428.544 180.371L447.51 172.964C450.644 175.919 453.991 178.594 457.525 180.956L453.188 199.971L470.216 207.489L482.745 192.063C486.963 193.112 491.269 193.83 495.616 194.206L501.88 212.756L520.585 211.182L523.313 191.9C527.483 190.821 531.586 189.385 535.594 187.618L550.782 200.708L566.15 190.462L558.351 172.446C561.461 169.467 564.277 166.289 566.767 162.934L586.786 167.054L594.704 150.883L578.462 138.981C579.567 134.973 580.322 130.884 580.715 126.758V126.754ZM506.823 175.55C475.366 177.764 447.978 155.341 445.647 125.464C443.316 95.5909 466.923 69.5764 498.381 67.3626C529.838 65.1487 557.226 87.5716 559.557 117.449C561.888 147.325 538.277 173.337 506.823 175.55ZM580.715 126.754L600.25 120.807L598.593 103.042L578.293 100.452C577.154 96.4914 575.643 92.5917 573.783 88.7903L587.566 74.3664L576.778 59.7698L557.812 67.1764C554.679 64.2212 551.331 61.547 547.794 59.1842L552.131 40.1701L535.106 32.6518L522.577 48.0777C518.356 47.0283 514.053 46.3107 509.707 45.9383L503.442 27.3879L484.737 28.962L482.01 48.2435C477.839 49.3234 473.733 50.7587 469.728 52.5257L454.54 39.4355L439.172 49.6822L446.971 67.6977C443.858 70.6766 441.042 73.8552 438.556 77.2098L418.536 73.0902L410.618 89.2608L426.86 101.159C425.756 105.167 425 109.257 424.607 113.383L405.072 119.331L406.729 137.096L427.03 139.685C428.168 143.646 429.679 147.545 431.539 151.35L417.757 165.774L428.544 180.371L447.51 172.964C450.644 175.919 453.991 178.594 457.525 180.956L453.188 199.971L470.216 207.489L482.745 192.063C486.963 193.112 491.269 193.83 495.616 194.206L501.88 212.756L520.585 211.182L523.313 191.9C527.483 190.821 531.586 189.385 535.594 187.618L550.782 200.708L566.15 190.462L558.351 172.446C561.461 169.467 564.277 166.289 566.767 162.934L586.786 167.054L594.704 150.883L578.462 138.981C579.567 134.973 580.322 130.884 580.715 126.758V126.754Z" fill="#8366F4"/>
<path d="M506.309 28.1159C500.879 24.1926 493.96 23.8947 486.642 24.3483C483.034 24.5717 482.373 25.3875 478.725 23.9929C477.23 23.4208 475.55 23.2041 473.802 23.9049C471.43 24.8561 470.068 32.7027 471.254 36.8224C472.433 40.915 476.665 38.7756 478.979 42.2318C482.587 47.6243 486.093 52.0824 490.772 56.7776C495.495 61.5167 495.797 69.641 496.112 76.1099C496.396 81.9763 497.392 84.8434 496.501 90.6387C494.353 104.65 505.791 114.087 518.953 117.354C524.12 118.637 529.737 118.701 534.609 116.738C542.872 113.41 542.422 107.341 545.745 100.753C547.111 98.0487 549.733 96.17 551.868 93.9663C558.295 87.3281 563.753 68.3242 550.025 65.5077C546.599 64.8036 542.795 65.8124 539.695 64.235C535.453 62.0786 535.866 57.6814 534.382 54.0356C532.892 50.373 530.008 47.1707 526.861 44.6928C520.163 39.4222 513.231 33.1089 506.316 28.1125L506.309 28.1159Z" fill="#8366F4"/>
<path d="M365.244 62.5087C364.543 61.5134 364.855 60.1086 365.973 59.5196C366.762 59.1066 367.741 59.2962 368.382 59.9157L378.559 69.7595L379.643 69.5531C381.778 69.1435 383.814 70.616 384.095 72.7689C384.095 72.7689 383.963 79.0618 385.86 81.5228C395.645 94.2135 418.043 116.467 421.502 116.467C425.211 116.467 431.398 113.008 431.398 113.008L459.352 118.444C459.352 118.444 445.004 141.182 420.512 135.745C399.883 131.165 381.188 97.4801 375.805 86.966C375.161 85.7068 374.117 84.7081 372.857 84.065C372.332 83.7942 371.834 83.4557 371.38 83.0461L367.179 79.2412C365.59 77.8025 365.072 75.5278 365.874 73.5441L366.881 71.0594C367.88 68.5917 367.555 65.7854 366.02 63.6088L365.244 62.5087Z" fill="white"/>
<path d="M427.938 137.326C425.526 137.326 422.995 137.065 420.352 136.476C399.384 131.822 380.445 97.6663 375.14 87.3079C374.581 86.2145 373.673 85.3242 372.517 84.7318C371.924 84.4271 371.376 84.048 370.881 83.6012L366.68 79.7963C364.867 78.1545 364.268 75.5311 365.182 73.2631L366.189 70.7784C367.097 68.5375 366.805 66.0189 365.409 64.042L364.634 62.9419C364.169 62.2852 364.014 61.4626 364.2 60.6806C364.39 59.8987 364.908 59.2352 365.626 58.8595C366.69 58.3009 368.008 58.5108 368.906 59.3808L378.802 68.9538L379.503 68.8184C380.74 68.5815 381.983 68.8591 383.003 69.5936C384.023 70.3316 384.677 71.425 384.839 72.6707C384.843 72.7079 384.846 72.7451 384.846 72.7824C384.812 74.4614 385.033 79.2175 386.455 81.0657C396.938 94.6603 418.706 115.719 421.504 115.719C424.973 115.719 430.973 112.388 431.034 112.354C431.19 112.266 431.37 112.239 431.543 112.273L459.497 117.709C459.741 117.757 459.944 117.919 460.042 118.146C460.141 118.373 460.12 118.634 459.988 118.843C459.856 119.05 448.066 137.326 427.941 137.326H427.938ZM366.883 60.051C366.687 60.051 366.497 60.095 366.324 60.1864C365.982 60.3658 365.745 60.6671 365.657 61.0327C365.569 61.3949 365.643 61.7774 365.857 62.0787L366.632 63.1789C368.323 65.5721 368.675 68.6255 367.578 71.3403L366.571 73.825C365.89 75.5108 366.338 77.464 367.686 78.686L371.887 82.4909C372.284 82.8497 372.727 83.1577 373.202 83.3981C374.638 84.1326 375.77 85.2497 376.471 86.6241C381.702 96.8335 400.343 130.498 420.674 135.014C441.547 139.645 455.072 123.099 458.081 118.959L431.519 113.793C430.306 114.45 424.98 117.215 421.501 117.215C417.422 117.215 394.248 93.6244 385.266 81.9797C383.311 79.4443 383.335 73.5237 383.345 72.8128C383.223 72.0004 382.793 71.2896 382.122 70.8055C381.441 70.3146 380.608 70.1285 379.781 70.2876L378.697 70.4941C378.456 70.5381 378.209 70.467 378.036 70.2977L367.862 60.4538C367.588 60.1898 367.229 60.0476 366.88 60.0476L366.883 60.051Z" fill="black"/>
<path d="M512.561 188.146L523.582 182.273C523.582 182.273 513.404 183.682 514.546 180.219C515.132 178.438 516.013 178.529 518.324 178.492C520.014 178.465 522.897 178.306 525.499 178.144C529.568 177.89 533.339 175.882 535.782 172.622C542.88 163.148 546.308 149.946 544.919 144.462C543.906 140.471 539.973 135.024 537.127 130.651C544.496 124.828 547.951 124.937 555.402 119.805C562.723 131.994 563.567 144.089 562.916 148.168C560.168 165.429 542.612 179.978 537.174 184.118C536.127 184.914 535.128 185.767 534.186 186.681C530.425 190.323 523.226 196.393 518.144 195.12C510.972 193.322 512.567 188.15 512.567 188.15L512.561 188.146Z" fill="white"/>
<path d="M519.57 196.034C519.018 196.034 518.479 195.973 517.957 195.841C515.247 195.16 513.377 193.938 512.394 192.202C511.202 190.086 511.818 188.015 511.845 187.927C511.903 187.737 512.035 187.578 512.208 187.486L520.044 183.309C517.764 183.36 515.135 183.133 514.149 181.952C513.831 181.573 513.519 180.923 513.831 179.982C514.552 177.792 515.901 177.771 517.944 177.748L518.31 177.741C519.719 177.717 522.121 177.602 525.452 177.392C529.331 177.148 532.875 175.246 535.182 172.169C542.019 163.039 545.579 150.105 544.19 144.638C543.374 141.415 540.487 137.072 537.943 133.244C537.445 132.492 536.957 131.758 536.496 131.05C536.286 130.725 536.357 130.295 536.659 130.055C540.775 126.802 543.662 125.383 546.721 123.884C549.154 122.689 551.668 121.457 554.974 119.182C555.144 119.063 555.357 119.023 555.557 119.067C555.76 119.111 555.933 119.236 556.042 119.412C563.072 131.114 564.44 143.328 563.654 148.277C560.859 165.825 543.025 180.594 537.628 184.704C536.591 185.493 535.609 186.336 534.707 187.209C531.157 190.648 524.771 196.027 519.573 196.027L519.57 196.034ZM513.218 188.644C513.133 189.166 513.048 190.33 513.709 191.488C514.481 192.842 516.033 193.817 518.316 194.392C521.759 195.255 527.349 192.249 533.654 186.143C534.599 185.229 535.626 184.345 536.71 183.523C541.998 179.498 559.46 165.05 562.167 148.05C562.665 144.926 562.408 133.345 555.154 120.874C552.084 122.929 549.692 124.1 547.375 125.238C544.526 126.636 541.832 127.956 538.123 130.817C538.465 131.341 538.824 131.876 539.186 132.421C541.798 136.351 544.756 140.806 545.637 144.276C547.107 150.068 543.459 163.611 536.374 173.069C533.806 176.498 529.856 178.621 525.54 178.888C522.185 179.098 519.76 179.217 518.33 179.237L517.961 179.244C515.87 179.271 515.63 179.311 515.254 180.449C515.138 180.798 515.244 180.923 515.301 180.99C516.162 182.02 520.6 181.925 523.476 181.529C523.839 181.481 524.181 181.695 524.293 182.04C524.405 182.385 524.252 182.761 523.934 182.93L513.218 188.641V188.644Z" fill="black"/>
<path d="M558.641 116.545C551.753 105.391 543.554 94.8228 537.687 87.6938C533.208 82.254 526.686 78.9298 519.683 78.4897C519.158 78.3713 518.619 78.3002 518.06 78.29L470.611 77.6231C462.335 77.481 454.495 81.3772 449.653 88.0899C445.161 94.3185 438.941 101.999 432.222 107.5C430.376 109.01 429.322 111.285 429.427 113.668C429.898 124.47 436.349 129.524 439.71 136.964C440.421 138.538 442.373 139.127 443.836 138.21C451.002 133.707 455.315 128.271 457.513 124.889C458.028 124.097 459.262 124.493 459.228 125.434L458.117 158.977C458.117 158.977 469.192 187.013 481.687 182.839C494.182 178.665 509.16 181.133 534.197 174.461L527.021 121.572C529.457 124.006 532.574 127.432 535.461 131.538C536.142 132.509 537.449 132.777 538.476 132.177C545.235 128.213 554.04 129.408 558.814 120.468C559.475 119.229 559.383 117.73 558.645 116.535L558.641 116.545Z" fill="#11D58E"/>
<path d="M479.097 184.02C467.344 184.02 457.848 160.341 457.418 159.255C457.38 159.16 457.363 159.058 457.367 158.953L458.478 125.411C458.478 125.316 458.437 125.251 458.346 125.224C458.214 125.184 458.16 125.265 458.143 125.295C455.73 129.005 451.357 134.367 444.235 138.843C443.354 139.394 442.277 139.54 441.277 139.239C440.274 138.937 439.455 138.22 439.028 137.272C437.964 134.919 436.605 132.837 435.162 130.634C432.137 126.003 429.006 121.216 428.677 113.698C428.566 111.119 429.711 108.587 431.747 106.921C438.614 101.298 444.946 93.3367 449.046 87.6497C454.019 80.7577 462.09 76.7294 470.624 76.8716L518.073 77.5384C518.638 77.5452 519.218 77.6163 519.794 77.7415C526.966 78.2087 533.695 81.6581 538.268 87.213C544.011 94.1897 552.318 104.873 559.284 116.149C560.175 117.591 560.249 119.382 559.477 120.827C556.167 127.029 550.997 128.572 545.996 130.062C543.459 130.82 541.06 131.534 538.858 132.827C537.482 133.633 535.758 133.267 534.85 131.971C532.875 129.161 530.601 126.396 528.074 123.725L534.945 174.362C534.995 174.735 534.762 175.09 534.396 175.185C520.634 178.851 509.728 179.785 500.967 180.533C493.744 181.153 487.506 181.684 481.93 183.546C480.978 183.864 480.032 184.013 479.104 184.013L479.097 184.02ZM458.868 158.849C459.735 160.971 470.2 185.892 481.445 182.135C487.188 180.215 493.51 179.674 500.828 179.047C509.396 178.316 520.027 177.406 533.363 173.912L526.275 121.68C526.231 121.362 526.397 121.05 526.685 120.908C526.973 120.766 527.322 120.824 527.549 121.051C530.777 124.277 533.644 127.665 536.07 131.118C536.527 131.768 537.394 131.951 538.092 131.541C540.45 130.16 543.049 129.381 545.563 128.633C550.485 127.164 555.134 125.776 558.149 120.126C558.671 119.151 558.613 117.929 558.003 116.941C551.082 105.736 542.818 95.1105 537.106 88.171C532.783 82.9207 526.414 79.6643 519.634 79.2377C519.594 79.2377 519.553 79.231 519.516 79.2208C519.025 79.1091 518.53 79.0482 518.049 79.0414L470.6 78.3712C462.557 78.2222 454.948 82.0305 450.262 88.5265C446.109 94.2845 439.688 102.355 432.696 108.079C431.025 109.446 430.08 111.525 430.171 113.634C430.48 120.739 433.498 125.353 436.412 129.818C437.822 131.974 439.278 134.202 440.386 136.659C440.637 137.211 441.115 137.631 441.704 137.807C442.29 137.983 442.92 137.898 443.432 137.577C450.323 133.247 454.551 128.064 456.882 124.483C457.296 123.843 458.065 123.569 458.793 123.796C459.525 124.026 459.999 124.696 459.976 125.461L458.868 158.849Z" fill="#11D58E"/>
<path d="M484.156 35.9592C482.845 37.0424 482.086 37.3471 481.019 38.3795C478.854 40.4749 476.964 46.6595 473.318 47.9356C472.929 49.9565 474.545 50.1901 475.158 51.3174C474.704 52.3092 473.959 56.94 473.166 59.7733C472.888 60.7652 473.393 61.8179 474.348 62.2038C475.957 62.8538 477.77 63.2803 479.799 63.4292C479.799 63.4292 490.187 75.2534 479.613 83.381C479.613 83.381 489.526 91.5357 500.754 79.654C502.726 77.5688 493.639 59.1979 493.639 59.1979C493.951 59.0828 498.006 57.529 498.433 54.1778C498.593 52.9456 498.321 50.9856 497.21 50.5693C496.126 50.163 494.314 51.2497 493.168 53.5684C492.918 53.0167 492.697 52.3092 492.474 51.4934C492.166 50.3763 491.939 49.0967 492.257 48.4502C482.137 45.7116 491.234 35.8847 484.153 35.9592H484.156Z" fill="white"/>
<path d="M487.941 86.8271C482.734 86.8271 479.2 84.004 479.143 83.9566C478.967 83.811 478.865 83.5944 478.868 83.3676C478.872 83.1408 478.98 82.9241 479.16 82.7853C481.809 80.7475 483.293 78.2899 483.568 75.4769C484.079 70.2503 480.322 65.2539 479.427 64.1469C477.506 63.9777 475.704 63.5579 474.071 62.8945C472.763 62.3664 472.065 60.9345 472.448 59.5669C472.818 58.2467 473.183 56.4966 473.505 54.953C473.854 53.2808 474.105 52.1095 474.325 51.419C474.19 51.2633 474.02 51.1143 473.831 50.9484C473.16 50.3628 472.245 49.5606 472.584 47.7901C472.635 47.5295 472.821 47.3128 473.072 47.2248C475.125 46.5072 476.656 43.8431 478.011 41.4905C478.845 40.0417 479.634 38.6741 480.498 37.8346C481.142 37.2117 481.687 36.8326 482.26 36.4331C482.69 36.1352 483.131 35.8272 483.679 35.377C483.812 35.2687 483.978 35.2077 484.15 35.2043C485.485 35.1942 486.444 35.5022 487.067 36.1556C488.046 37.1812 487.955 38.7553 487.86 40.4174C487.691 43.3489 487.515 46.3819 492.458 47.7191C492.674 47.7766 492.854 47.9289 492.945 48.1354C493.037 48.3385 493.034 48.5755 492.935 48.7752C492.891 48.8666 492.688 49.4218 493.203 51.287C493.25 51.4664 493.305 51.6525 493.359 51.8387C494.592 50.2071 496.212 49.3845 497.482 49.8618C499.068 50.4576 499.369 52.8238 499.183 54.2658C498.803 57.2244 496.059 58.9 494.663 59.5669C497.601 65.5653 503.323 78.0225 501.304 80.1585C496.425 85.3241 491.739 86.8237 487.941 86.8237V86.8271ZM480.854 83.3337C483.297 84.8875 491.235 88.6382 500.213 79.1328C501.1 77.8668 497.147 67.9653 492.973 59.5229C492.878 59.3333 492.871 59.1099 492.949 58.9136C493.027 58.7173 493.186 58.5615 493.386 58.4871C493.545 58.4295 497.319 57.0112 497.695 54.0729C497.838 52.9558 497.546 51.4833 496.953 51.2599C496.313 51.0195 494.826 51.903 493.847 53.8901C493.718 54.1508 493.457 54.3099 493.162 54.3065C492.874 54.3031 492.61 54.1304 492.492 53.8698C492.193 53.2165 491.953 52.3973 491.756 51.683C491.445 50.5456 491.316 49.6452 491.373 48.958C485.966 47.1842 486.193 43.2406 486.363 40.3294C486.444 38.9415 486.512 37.7432 485.98 37.188C485.692 36.8867 485.17 36.7243 484.418 36.7006C483.92 37.1 483.493 37.3945 483.114 37.6585C482.568 38.0377 482.097 38.366 481.538 38.9043C480.823 39.5948 480.088 40.8744 479.309 42.2284C477.913 44.6555 476.341 47.3873 474.007 48.4502C473.986 49.0833 474.301 49.3642 474.816 49.8111C475.159 50.1123 475.548 50.4508 475.819 50.9451C475.931 51.1515 475.941 51.3987 475.843 51.6119C475.64 52.0588 475.301 53.6802 474.972 55.2475C474.644 56.8148 474.271 58.592 473.888 59.9596C473.712 60.5926 474.03 61.2527 474.63 61.4964C476.212 62.1362 477.971 62.5289 479.854 62.6677C480.051 62.6812 480.234 62.7726 480.363 62.9215C480.579 63.1687 485.695 69.0757 485.058 75.6123C484.77 78.5607 483.358 81.1503 480.85 83.3269L480.854 83.3337Z" fill="black"/>
<path d="M488.142 62.1938C488.142 62.1938 484.679 64.3366 480.133 63.4599L488.142 62.1938Z" fill="white"/>
<path d="M482.355 64.4211C481.609 64.4211 480.82 64.3534 479.993 64.1943C479.587 64.1165 479.322 63.7238 479.4 63.3176C479.478 62.9114 479.875 62.644 480.278 62.7252C484.465 63.5309 487.718 61.5776 487.752 61.5573C488.104 61.3407 488.565 61.449 488.782 61.8011C488.998 62.1531 488.89 62.6135 488.541 62.8301C488.416 62.908 485.922 64.4211 482.358 64.4211H482.355Z" fill="black"/>
<path d="M45.4321 130.502C44.8765 130.502 44.3107 130.417 43.7517 130.244C40.7804 129.317 39.1203 126.145 40.0486 123.176C40.4992 121.738 41.4817 120.56 42.82 119.862C44.1548 119.162 45.6862 119.026 47.1227 119.476C50.094 120.404 51.7541 123.576 50.8258 126.544C50.0702 128.955 47.8376 130.502 45.4321 130.502ZM44.1989 128.816C46.3841 129.5 48.7117 128.278 49.396 126.098C50.077 123.918 48.8574 121.589 46.6755 120.905C45.6184 120.576 44.4936 120.675 43.5145 121.189C42.532 121.704 41.8104 122.567 41.4817 123.623C41.1497 124.679 41.2513 125.8 41.7663 126.781C42.2813 127.763 43.1452 128.484 44.2023 128.812L44.1989 128.816Z" fill="black"/>
<path d="M23.5144 164.891C22.7893 164.891 22.0643 164.779 21.3528 164.559C19.5132 163.984 18.0089 162.728 17.1145 161.022C16.22 159.316 16.0439 157.366 16.6198 155.528C17.809 151.733 21.8644 149.614 25.6589 150.799C27.4986 151.374 29.0029 152.63 29.8973 154.336C30.7917 156.042 30.9679 157.992 30.3919 159.83C29.816 161.668 28.5591 163.171 26.8515 164.065C25.8046 164.613 24.6629 164.891 23.5144 164.891ZM23.5076 151.967C21.075 151.967 18.8118 153.534 18.0495 155.975C17.5956 157.43 17.7345 158.977 18.4426 160.328C19.1506 161.678 20.3432 162.674 21.8 163.131C24.8086 164.072 28.0204 162.389 28.9622 159.383C29.4162 157.928 29.2773 156.381 28.5692 155.03C27.8611 153.679 26.6686 152.684 25.2117 152.227C24.6459 152.051 24.0734 151.967 23.511 151.967H23.5076Z" fill="#11D58E"/>
<path d="M0.748079 206.632C0.477041 206.632 0.216167 206.487 0.0840356 206.23C-0.105691 205.864 0.0366039 205.41 0.402505 205.221L5.4201 202.614C5.786 202.425 6.23999 202.567 6.42972 202.932C6.61944 203.298 6.47715 203.752 6.11125 203.941L1.09365 206.548C0.981849 206.605 0.866658 206.632 0.748079 206.632Z" fill="black"/>
<path d="M18.3086 197.51C18.0376 197.51 17.7767 197.364 17.6446 197.107C17.4549 196.741 17.5972 196.288 17.9631 196.098L22.9806 193.491C23.3465 193.302 23.8005 193.444 23.9903 193.81C24.18 194.175 24.0377 194.629 23.6718 194.818L18.6542 197.425C18.5424 197.482 18.4272 197.51 18.3086 197.51Z" fill="black"/>
<path d="M17.9688 212.015C17.7012 212.015 17.4403 211.869 17.3048 211.615L14.669 206.619C14.4758 206.253 14.6147 205.8 14.984 205.607C15.3499 205.414 15.8039 205.556 15.997 205.922L18.6329 210.918C18.826 211.284 18.6871 211.737 18.3178 211.93C18.206 211.988 18.0874 212.015 17.9688 212.015Z" fill="black"/>
<path d="M8.74033 194.524C8.47268 194.524 8.21181 194.378 8.07629 194.125L5.44044 189.128C5.24733 188.763 5.38623 188.309 5.75552 188.116C6.12142 187.923 6.57541 188.065 6.76853 188.431L9.40437 193.427C9.59749 193.793 9.45858 194.246 9.08929 194.439C8.97749 194.497 8.85891 194.524 8.74033 194.524Z" fill="black"/>
<path d="M568.502 384.415C568.231 384.415 567.97 384.269 567.838 384.012C567.648 383.646 567.79 383.193 568.156 383.003L573.174 380.397C573.543 380.207 573.994 380.349 574.184 380.715C574.373 381.08 574.231 381.534 573.865 381.724L568.848 384.33C568.736 384.388 568.621 384.415 568.502 384.415Z" fill="#8366F4"/>
<path d="M586.063 375.292C585.791 375.292 585.531 375.146 585.398 374.889C585.209 374.523 585.351 374.07 585.717 373.88L590.735 371.274C591.1 371.084 591.554 371.226 591.744 371.592C591.934 371.957 591.792 372.411 591.426 372.601L586.408 375.207C586.296 375.265 586.181 375.292 586.063 375.292Z" fill="#8366F4"/>
<path d="M585.723 389.794C585.455 389.794 585.194 389.648 585.059 389.394L582.423 384.398C582.23 384.032 582.369 383.579 582.738 383.386C583.104 383.193 583.558 383.332 583.751 383.701L586.387 388.697C586.58 389.062 586.441 389.516 586.072 389.709C585.96 389.767 585.841 389.794 585.723 389.794Z" fill="#8366F4"/>
<path d="M576.494 372.303C576.227 372.303 575.966 372.157 575.83 371.903L573.194 366.907C573.001 366.541 573.14 366.088 573.509 365.895C573.875 365.702 574.329 365.844 574.522 366.21L577.158 371.206C577.351 371.572 577.212 372.025 576.843 372.218C576.731 372.276 576.613 372.303 576.494 372.303Z" fill="#8366F4"/>
<path d="M430.545 567.87C430.203 567.87 429.891 567.633 429.814 567.284C429.722 566.882 429.976 566.482 430.379 566.391C430.583 566.347 450.961 561.631 477.404 542.665C501.815 525.16 536.531 491.583 563.307 431.051C563.473 430.672 563.916 430.503 564.296 430.669C564.675 430.834 564.845 431.278 564.679 431.657C537.748 492.545 502.787 526.325 478.204 543.937C451.527 563.05 430.915 567.809 430.708 567.853C430.654 567.867 430.596 567.87 430.545 567.87Z" fill="black"/>
<path d="M420.433 586.468C420.061 586.468 419.739 586.19 419.691 585.815C419.64 585.405 419.932 585.029 420.342 584.978C420.542 584.955 440.717 582.26 468.261 565.985C493.688 550.958 530.773 520.949 563.05 463.321C563.25 462.959 563.707 462.83 564.07 463.034C564.432 463.237 564.561 463.69 564.358 464.052C531.891 522.016 494.549 552.204 468.942 567.322C441.151 583.729 420.735 586.437 420.532 586.464C420.501 586.468 420.467 586.471 420.437 586.471L420.433 586.468Z" fill="black"/>
<path d="M341.497 608.735C341.419 608.735 341.341 608.722 341.26 608.698C340.867 608.569 340.653 608.146 340.785 607.754C342.54 602.456 344.681 599.7 347.334 599.335C349.414 599.047 350.915 600.381 352.362 601.67C353.724 602.886 355.008 604.03 356.776 603.969C358.891 603.894 360.256 602.087 361.699 600.174C363.285 598.076 364.928 595.902 367.737 595.77C370.23 595.655 371.924 597.266 373.422 598.688C374.855 600.049 376.091 601.227 377.799 600.949C379.252 600.712 380.201 599.565 381.204 598.35C382.373 596.931 383.701 595.327 385.967 595.327H386.001C387.201 595.334 388.031 595.78 388.762 596.176C389.484 596.562 390.053 596.87 390.904 596.745C392.269 596.545 393.543 595.371 394.691 593.248C394.888 592.886 395.345 592.747 395.708 592.947C396.07 593.143 396.209 593.597 396.009 593.963C394.624 596.522 392.977 597.957 391.117 598.228C389.775 598.424 388.861 597.93 388.051 597.497C387.387 597.141 386.814 596.833 385.988 596.826H385.967C384.405 596.826 383.457 597.974 382.359 599.304C381.275 600.614 380.048 602.104 378.039 602.429C375.603 602.828 373.97 601.274 372.388 599.775C370.982 598.441 369.644 597.182 367.808 597.266C365.7 597.365 364.338 599.169 362.895 601.078C361.303 603.187 359.653 605.367 356.827 605.469C354.456 605.55 352.813 604.084 351.362 602.791C350.062 601.63 348.94 600.628 347.537 600.824C345.566 601.098 343.723 603.658 342.205 608.231C342.1 608.546 341.808 608.745 341.493 608.745L341.497 608.735Z" fill="black"/>
</g>
<defs>
<clipPath id="clip0_1343_14284">
<rect width="601" height="619.473" fill="white" transform="translate(0 2.13867)"/>
</clipPath>
</defs>
</svg>
