<svg width="160" height="34" viewBox="0 0 160 34" fill="none" xmlns="http://www.w3.org/2000/svg">
<path fill-rule="evenodd" clip-rule="evenodd" d="M1.58519 0.243095C5.5527 5.02023 9.90894 11.0218 10.6135 11.9925C10.6511 12.0442 10.6783 12.0817 10.6945 12.1039C11.0701 12.6189 11.3802 13.0018 11.6156 13.2925L11.6157 13.2925C12.1384 13.938 12.2935 14.1295 11.9816 14.3054C11.73 14.4473 11.4704 14.494 11.2115 14.494C10.9185 14.494 10.5885 14.3541 10.3482 14.128C10.1783 13.9682 9.01611 12.2936 7.43349 9.85748C6.22257 7.99344 5.20918 6.44714 5.18153 6.42125C5.11761 6.36137 5.11871 6.3634 7.31003 10.2531C8.68598 12.6955 9.62719 14.5004 9.62719 14.6159C9.62719 14.8508 9.56258 14.9743 9.27051 15.2975C8.78361 15.8364 8.56594 16.4419 8.40883 17.6949C8.23269 19.0996 7.73739 20.092 6.36476 21.7901C5.56128 22.7843 5.42981 22.9664 5.22706 23.3671C4.9717 23.8717 4.90147 24.1543 4.87301 24.7915C4.84293 25.4652 4.90152 25.9004 5.10898 26.5443C5.29061 27.1082 5.48019 27.4807 5.96485 28.2254C6.38311 28.8679 6.62394 29.3455 6.62394 29.5324C6.62394 29.6811 6.65255 29.6812 7.30068 29.5361C8.85173 29.1885 10.1112 28.5775 10.8195 27.8286C11.2579 27.365 11.3608 27.109 11.3641 26.4738C11.3663 26.0583 11.3516 25.9714 11.2384 25.7323C11.0541 25.3431 10.7186 25.0198 9.97914 24.5183C9.01023 23.8611 8.5964 23.3322 8.48209 22.6047C8.38833 22.0078 8.49712 21.5866 9.03312 20.4722C9.5879 19.3186 9.72539 18.8271 9.81839 17.6642C9.87845 16.913 9.96164 16.6167 10.1792 16.379C10.4061 16.131 10.6104 16.047 11.1719 15.9708C12.0875 15.8468 12.6704 15.6118 13.1496 15.1738C13.5653 14.7938 13.7392 14.4276 13.7659 13.8764L13.7862 13.4586L13.5539 13.1899C12.7127 12.2168 1.02182 -0.52182 0.970047 -0.52182C0.958987 -0.52182 1.23581 -0.177585 1.58519 0.243095ZM7.09618 25.5537C7.28638 25.2195 7.18532 24.79 6.86716 24.58C6.56655 24.3818 6.09958 24.4752 6.09958 24.7336C6.09958 24.8124 6.14352 24.8698 6.24259 24.9205C6.40939 25.0056 6.4215 25.1013 6.29026 25.297C6.15735 25.4952 6.16807 25.6694 6.32052 25.7877C6.56622 25.9787 6.91402 25.8737 7.09618 25.5537ZM12.8211 7.33091C12.4458 7.27316 12.43 7.26638 12.6066 7.23946C12.945 7.18781 13.7442 7.25819 14.295 7.38811C15.5807 7.69129 16.7506 8.46797 17.9994 9.84737L18.3312 10.2138L18.8058 10.1381C20.8053 9.81936 22.8394 10.0727 24.5408 10.8524C25.0088 11.0669 25.7467 11.4939 25.8389 11.6036C25.8682 11.6386 25.9223 11.8637 25.9587 12.1039C26.0851 12.9349 26.0219 13.5719 25.7656 14.0476C25.6263 14.3065 25.6185 14.3886 25.7122 14.6101C25.7869 14.7869 25.9956 14.9178 26.2022 14.9175C26.625 14.9169 27.08 14.2389 27.2909 13.2955L27.3746 12.9208L27.5406 13.1072C28.4506 14.1301 29.1655 15.5252 29.2883 16.5181L29.3202 16.777L29.1673 16.5417C28.9039 16.1367 28.6395 15.8609 28.3007 15.6386C27.6901 15.2378 27.0444 15.1014 25.3346 15.012C23.7903 14.9312 22.9163 14.8004 22.0497 14.52C20.575 14.0431 19.8318 13.4079 18.0802 11.1281C17.3022 10.1155 16.8214 9.55528 16.343 9.1041C15.2562 8.07893 14.1882 7.54128 12.8211 7.33091ZM26.1872 9.59181C26.2261 8.91327 26.3189 8.46572 26.5053 8.057C26.5791 7.89521 26.6483 7.76279 26.6589 7.76279C26.6696 7.76279 26.6375 7.88221 26.5876 8.02814C26.4521 8.42481 26.4297 8.96735 26.5232 9.59858C26.6417 10.3995 26.7092 10.5151 27.5624 11.3802C27.9627 11.7861 28.4282 12.2979 28.597 12.5176L28.9039 12.9171L28.597 12.6316C28.2217 12.2824 27.3587 11.6014 27.1681 11.5041C27.0403 11.4388 27.0212 11.4399 26.9425 11.5178C26.8698 11.5895 26.8544 11.6973 26.8444 12.2069C26.8286 13.0012 26.7196 13.511 26.4562 14.0207C26.3138 14.2964 26.2912 14.2376 26.4201 13.9264C26.5164 13.694 26.5262 13.5919 26.5255 12.823C26.524 11.2782 26.3391 10.9068 25.2549 10.2705C24.9804 10.1094 24.5277 9.87693 24.2492 9.75397C23.9709 9.63102 23.7497 9.52393 23.7577 9.51594C23.7884 9.48561 24.8459 9.79178 25.2714 9.95417C25.9044 10.1957 26.0088 10.2271 26.0858 10.1979C26.1372 10.1784 26.1622 10.0295 26.1872 9.59181ZM12.4189 8.4058C12.3168 9.5985 12.7882 11.194 13.5501 12.2346C14.1408 13.0413 15.0563 13.6681 15.7322 13.7287C16.1748 13.7683 16.3078 13.6308 16.1076 13.3408C15.8296 12.938 15.4877 12.3179 15.3973 12.0524C15.3411 11.8875 15.2189 11.4003 15.1258 10.9698C14.808 9.49998 14.4956 8.92759 13.774 8.49284C13.5111 8.33438 12.9495 8.12703 12.6239 8.06811L12.4504 8.0367L12.4189 8.4058ZM25.2631 19.9793C21.7024 18.5571 20.4483 17.3226 20.4483 15.2397C20.4483 14.9331 20.459 14.6823 20.4719 14.6823C20.485 14.6823 20.6227 14.7835 20.778 14.9072C21.5001 15.4817 22.3086 15.727 24.547 16.0509C25.864 16.2417 26.6053 16.3956 27.2891 16.6206C29.4623 17.3356 30.8069 18.7866 31.1276 20.7631C31.2207 21.3374 31.1661 22.4142 31.0151 22.9819C30.8958 23.4302 30.5318 24.2381 30.4353 24.2692C30.4085 24.2778 30.3822 24.1761 30.3754 24.0376C30.3389 23.2955 29.9608 22.573 29.326 22.0317C28.6041 21.4163 27.6342 20.9266 25.2631 19.9793ZM22.5914 19.8229C22.6414 19.9706 22.7188 20.3068 22.7633 20.5702C23.0485 22.254 22.1576 23.6145 20.4245 24.1416C20.241 24.1974 19.5183 24.3378 18.8184 24.4533C17.4017 24.6873 16.7694 24.853 16.1342 25.1566C15.6837 25.3719 15.1383 25.6943 15.1707 25.7263C15.1812 25.7367 15.284 25.7123 15.3992 25.6722C16.2002 25.3932 17.0917 25.2487 18.4461 25.1789C18.9837 25.1512 19.595 25.107 19.8048 25.0809C21.0115 24.9301 21.8479 24.5664 22.4982 23.9097C22.8601 23.5443 23.0758 23.2038 23.2497 22.7238C23.3599 22.4193 23.3748 22.3062 23.3756 21.7667C23.3766 21.2169 23.3632 21.1164 23.2438 20.7782C23.0874 20.3349 22.9029 20.0023 22.6693 19.7421L22.5006 19.5542L22.5914 19.8229ZM24.3957 23.446C23.9225 22.437 23.8139 21.463 24.073 20.5546C24.1008 20.4574 24.1453 20.378 24.1723 20.378C24.1991 20.378 24.3106 20.4379 24.4203 20.511C24.6382 20.6566 25.0755 20.9019 26.2403 21.5319C27.694 22.318 28.5227 22.9268 29.0862 23.6224C29.5798 24.2315 29.8852 24.9252 30.0321 25.7712C30.1155 26.2504 30.0667 27.4035 29.9428 27.8859C29.552 29.4074 28.6437 30.6025 27.3482 31.2999C27.1584 31.402 26.988 31.4858 26.9694 31.4863C26.9511 31.4866 27.0202 31.3123 27.1231 31.0986C27.5589 30.1947 27.6086 29.3156 27.2792 28.3372C27.0773 27.7381 26.666 27.007 25.8354 25.7713C24.8698 24.3348 24.6331 23.9525 24.3957 23.446ZM15.4844 26.7551C13.9869 26.9964 12.3428 27.7826 11.0215 28.8894L10.6281 29.2189L10.9738 29.2726C12.7779 29.5519 13.2637 29.7997 14.5151 31.0786C15.2353 31.8144 15.4785 31.9782 16.0758 32.1295C16.9531 32.3516 17.8179 31.9434 18.1146 31.167C18.2471 30.82 18.2294 30.2456 18.0774 29.9572C17.7157 29.2703 16.662 29.0483 16.1524 29.5514C15.728 29.9705 15.8517 30.6018 16.3795 30.7104C16.5004 30.7354 16.4969 30.73 16.3487 30.6636C16.1177 30.5599 16.0174 30.4162 16.0161 30.1876C16.0131 29.6515 16.6315 29.3506 17.2068 29.608C17.628 29.7966 17.7953 30.043 17.7953 30.4749C17.7953 31.14 17.2247 31.6412 16.5606 31.5593C16.2057 31.5154 15.7716 31.2902 15.5388 31.0292C14.9531 30.3722 15.1813 29.3354 15.999 28.9376C16.6215 28.6349 17.449 28.7095 18.0908 29.1263C18.828 29.6054 19.1415 30.0431 19.7766 31.48C19.9834 31.9478 20.2494 32.4745 20.3677 32.6503C20.9693 33.5435 21.69 33.9816 22.5581 33.9816C23.037 33.9816 23.3972 33.8949 23.8503 33.6705C24.187 33.5036 24.6644 33.1865 24.6299 33.1526C24.6202 33.143 24.4805 33.186 24.3195 33.2483C23.3717 33.615 22.4081 33.5899 21.8485 33.1834C21.4961 32.9277 21.2119 32.4181 21.0658 31.7807C21.0404 31.6704 20.9571 31.1832 20.8803 30.698C20.6857 29.4682 20.4989 28.9154 20.0633 28.281C19.6176 27.632 18.7607 27.0873 17.8027 26.844C17.205 26.6922 16.1299 26.6509 15.4844 26.7551ZM13.387 17.2467C13.5164 16.7729 13.9342 16.321 14.364 16.19C14.6372 16.1068 15.2022 16.1599 15.4678 16.2938C15.9825 16.5535 16.3562 17.1449 16.2751 17.5717C16.1762 18.0922 15.3253 18.5087 14.3466 18.5155C13.8466 18.519 13.662 18.4523 13.4711 18.1995C13.3529 18.0428 13.3081 17.5358 13.387 17.2467ZM15.3363 16.4794C15.593 16.6349 15.6591 16.8649 15.5081 17.0776C15.4042 17.2242 15.0823 17.3634 14.8471 17.3634C14.4937 17.3634 14.1082 17.1145 14.1082 16.8865C14.1082 16.4284 14.8475 16.1832 15.3363 16.4794ZM92.0567 17.7911C91.2582 15.1826 92.575 13.0189 95.3848 12.3236C96.1905 12.1241 99.8392 12.2141 100.464 12.449C100.694 12.5351 100.794 12.8654 100.796 13.5444C100.798 14.0791 100.857 14.7285 100.928 14.9875C101.035 15.38 100.972 15.4573 100.551 15.451C100.169 15.4451 99.9385 15.2255 99.6164 14.5612C99.102 13.5002 98.4791 13.1627 97.0275 13.1587C95.1745 13.1535 93.8186 14.3789 94.0393 15.8595C94.1831 16.8229 95.1632 17.771 97.3627 19.0742C99.4556 20.3139 100.677 21.3335 101.164 22.2469C102.465 24.6889 101.354 27.3022 98.4542 28.619C96.9658 29.2948 94.4713 29.3647 92.7175 28.7797L91.5944 28.405V26.6425C91.5944 25.0463 91.6331 24.8797 92.0036 24.8797C92.3135 24.8797 92.4473 25.0809 92.556 25.711C92.8267 27.278 94.0391 28.2293 95.766 28.2293C97.4576 28.2293 98.64 27.3216 99.0931 25.6756C99.286 24.9744 99.2527 24.7159 98.87 23.9424C98.4114 23.015 97.6217 22.3996 94.9395 20.8799C93.4513 20.0365 92.3988 18.909 92.0567 17.7911ZM39.4791 13.3649C39.1132 13.3649 38.9704 13.2475 38.9704 12.9462C38.9704 12.5474 39.1132 12.5275 41.981 12.5275C44.6428 12.5275 44.9834 12.5669 44.9224 12.8669C44.8842 13.0536 44.5164 13.3126 44.1045 13.4426L43.3557 13.679L43.2918 19.0177C43.249 22.58 43.3092 24.635 43.4725 25.1936C43.9581 26.8552 45.4394 27.8107 47.5294 27.8107C48.9844 27.8107 49.8343 27.4766 50.9022 26.4844C52.0507 25.4177 52.2339 24.4042 52.2303 19.1366C52.2268 13.9407 52.1346 13.5119 50.9985 13.4041C50.4814 13.3549 50.3082 13.2366 50.3082 12.933C50.3082 12.5545 50.4788 12.5275 52.8752 12.5275C55.2996 12.5275 55.4422 12.5508 55.4422 12.9462C55.4422 13.2042 55.2984 13.3662 55.0678 13.3681C54.077 13.3767 54.0588 13.4692 53.9255 19.1667C53.7872 25.0833 53.6579 25.7838 52.4371 27.2332C52.085 27.6513 51.2453 28.2584 50.5713 28.5824C49.4728 29.1104 49.1234 29.171 47.2063 29.1676C45.4391 29.164 44.8812 29.0802 43.9975 28.6851C42.7076 28.1084 41.8688 27.362 41.2503 26.2405C40.8187 25.4575 40.7818 25.0339 40.6818 19.7294C40.5673 13.6577 40.5119 13.3649 39.4791 13.3649ZM59.4966 13.3649C59.0075 13.3649 58.8649 13.2703 58.8649 12.9462C58.8649 12.5537 59.0016 12.5286 61.0575 12.5447L63.2502 12.5619L64.2994 13.7485C64.876 14.4011 66.7562 16.4425 68.477 18.2848C70.1981 20.1272 72.1739 22.2704 72.8677 23.0477C73.5616 23.8251 74.2146 24.4609 74.319 24.4609C74.4262 24.4609 74.4797 22.2652 74.4414 19.4179L74.3739 14.3749L73.7737 13.8699C73.4436 13.5921 72.9385 13.3649 72.6507 13.3649C72.2681 13.3649 72.1279 13.251 72.1279 12.9404C72.1279 12.5315 72.2371 12.5179 75.0692 12.574C77.4773 12.6217 78.0106 12.6877 78.0106 12.9377C78.0106 13.1158 77.7128 13.3028 77.2955 13.3863C76.9024 13.465 76.4691 13.6384 76.3329 13.7715C76.1572 13.9434 76.0677 16.1658 76.0242 21.4355L75.9628 28.8574H75.3428C74.8091 28.8574 74.1737 28.2675 70.777 24.6179C68.6068 22.286 66.0735 19.5148 65.1476 18.4595C64.2216 17.404 63.3918 16.5326 63.3037 16.523C63.0553 16.4957 63.1154 25.9249 63.3693 26.8199C63.5674 27.5174 63.7036 27.6375 64.5449 27.8578C65.2224 28.0351 65.4964 28.215 65.4964 28.4822C65.4964 28.8252 65.2381 28.8574 62.5015 28.8574C59.7158 28.8574 59.5067 28.8301 59.5067 28.4649C59.5067 28.1976 59.7082 28.033 60.1387 27.9487C61.445 27.6931 61.5317 27.2873 61.605 21.0847C61.646 17.6107 61.5858 15.1801 61.4456 14.6712C61.1994 13.7762 60.5859 13.3649 59.4966 13.3649ZM81.9273 13.3649C81.469 13.3649 81.3264 13.2655 81.3264 12.9462C81.3264 12.5462 81.469 12.5275 84.5352 12.5275C87.6012 12.5275 87.744 12.5462 87.744 12.9462C87.744 13.2534 87.6012 13.3649 87.2091 13.3649C86.9151 13.3649 86.478 13.5572 86.2379 13.7921C85.8141 14.2068 85.8032 14.413 85.8636 20.8227C85.9224 27.0798 85.9475 27.4418 86.3408 27.7231C86.5693 27.8864 86.9783 28.02 87.2499 28.02C87.6012 28.02 87.744 28.1407 87.744 28.4388C87.744 28.8388 87.6012 28.8574 84.5352 28.8574C81.542 28.8574 81.3264 28.831 81.3264 28.4656C81.3264 28.1708 81.5364 28.0406 82.1739 27.9409C83.4397 27.7428 83.5044 27.3372 83.4255 20.0996C83.3625 14.3035 83.3353 13.9421 82.9434 13.6618C82.7149 13.4985 82.2578 13.3649 81.9273 13.3649ZM104.31 13.3649C104.018 13.3649 103.795 13.2056 103.726 12.9462C103.618 12.5413 103.719 12.5275 106.803 12.5275C109.849 12.5275 109.991 12.5462 109.991 12.9462C109.991 13.268 109.849 13.3649 109.376 13.3649C108.029 13.3649 108.059 13.6044 110.098 19.0796C111.135 21.8666 112.142 24.5141 112.336 24.9627L112.688 25.7786L114.322 21.5083C116.245 16.4817 116.495 15.5521 116.168 14.6353C115.941 13.9964 115.055 13.3649 114.387 13.3649C114.199 13.3649 114.056 13.1849 114.056 12.9462C114.056 12.5455 114.199 12.5275 117.372 12.5275C120.545 12.5275 120.687 12.5455 120.687 12.9462C120.687 13.2442 120.545 13.3649 120.194 13.3649C119.294 13.3649 118.898 13.8343 119.027 14.7463C119.16 15.6851 122.839 25.7746 122.993 25.6236C123.244 25.3781 127.319 14.5166 127.319 14.0933C127.319 13.586 126.956 13.3649 126.125 13.3649C125.75 13.3649 125.608 13.2496 125.608 12.9462C125.608 12.5508 125.75 12.5275 128.175 12.5275C130.352 12.5275 130.742 12.5769 130.742 12.8525C130.742 13.0313 130.475 13.2684 130.149 13.3796C129.416 13.6298 129.231 13.9153 128.311 16.2285C127.908 17.2443 126.643 20.4235 125.502 23.2929C124.361 26.1626 123.378 28.6357 123.318 28.7886C123.258 28.9417 122.904 29.0668 122.531 29.0668H121.854L120.318 25.1413C119.473 22.9825 118.474 20.4248 118.099 19.4576C117.456 17.8002 117.402 17.7282 117.16 18.2013C117.019 18.4777 116.004 21.04 114.904 23.8954L112.904 29.0873L112.158 29.0247L111.411 28.9622L108.565 21.651C106.975 17.5662 105.512 14.1245 105.251 13.8523C104.993 13.5842 104.57 13.3649 104.31 13.3649ZM147.084 13.4537C147.048 13.3742 147.048 13.0884 147.048 13.0884C147.048 13.0884 147.04 12.9853 147.084 12.9303C147.128 12.8755 147.143 12.874 147.301 12.8594L147.302 12.8592C147.88 12.8053 149.039 12.7145 150.006 12.673C150.094 12.6692 150.193 12.6648 150.3 12.6601L150.302 12.66L150.303 12.6599L150.304 12.6599C151.368 12.6124 153.273 12.549 154.582 12.6133C157.094 12.7365 158.88 13.9289 159.489 15.8993C160.098 17.8696 159.776 19.7192 158.946 20.8965C158.116 22.0738 156.721 23.0875 154.401 23.0215C152.487 22.9671 151.974 22.6149 151.565 22.3336C151.479 22.2742 151.397 22.2178 151.307 22.1682V24.681C151.327 26.3947 151.342 27.2177 151.477 27.5224C151.659 27.9326 152.07 28.1853 152.872 28.379C152.872 28.379 153.235 28.4625 153.329 28.5515C153.422 28.6406 153.422 28.8384 153.422 28.8384C153.422 28.8384 153.441 29.0233 153.366 29.1175C153.291 29.2118 153.146 29.1929 153.146 29.1929L149.595 29.1648L147.454 29.1593C147.454 29.1593 147.23 29.2015 147.145 29.1128C147.061 29.0239 147.069 28.8388 147.069 28.8388C147.069 28.8388 147.088 28.6395 147.186 28.5502C147.284 28.4609 147.65 28.3611 147.65 28.3611C148.475 28.1334 148.833 27.8926 149.02 27.4389C149.171 27.0731 149.172 26.3948 149.171 20.8596C149.169 15.6104 149.161 14.6312 149.039 14.3496C148.857 13.9327 148.403 13.8223 147.757 13.665L147.756 13.6649C147.628 13.6338 147.492 13.6007 147.35 13.5631C147.35 13.5631 147.12 13.5333 147.084 13.4537ZM157.422 17.737C157.422 18.5978 157.407 19.9454 156.474 20.8068C155.541 21.6682 153.704 21.904 152.457 21.6641C152.064 21.5886 151.839 21.4721 151.666 21.3822L151.648 21.3733L151.329 21.2082L151.311 18.1839C151.299 16.289 151.319 15.0544 151.365 14.8779C151.406 13.8787 152.907 13.7544 153.64 13.7914C156.777 13.7914 157.331 16.3873 157.422 17.737ZM137.234 12.6448C137.234 12.6448 137.08 12.7025 136.848 12.789L136.01 13.2139L135.407 14.6928C135.076 15.5061 134.469 16.9993 134.059 18.0108C133.312 19.8532 132.819 21.0637 132.301 22.3271C132.148 22.6988 131.687 23.8304 131.277 24.842C130.866 25.8534 130.456 26.816 130.365 26.9811C130.35 27.0086 130.333 27.0382 130.317 27.0694C130.087 27.4932 129.688 28.2293 128.984 28.3406C128.984 28.3406 128.597 28.378 128.453 28.5171C128.31 28.6564 128.324 28.7701 128.324 28.7701V28.9454C128.324 28.9454 128.337 29.0304 128.418 29.0727C128.499 29.1151 128.609 29.1175 128.609 29.1175L131.186 29.0888H133.848C133.848 29.0888 134.037 29.1104 134.109 29.0512C134.182 28.9921 134.202 28.9043 134.202 28.9043V28.7197C134.202 28.7197 134.165 28.5195 134.059 28.4414C133.954 28.3634 133.559 28.3099 133.559 28.3099C132.493 28.1723 132.309 27.3804 132.441 26.6683C132.506 26.3185 132.934 25.0243 133.416 23.7214L133.583 23.2711L136.373 23.2501C137.908 23.2386 139.233 23.2464 139.318 23.2675C139.439 23.2976 139.608 23.6358 140.106 24.8402C140.86 26.6651 140.921 26.8874 140.754 27.2288C140.743 27.2496 140.733 27.2725 140.721 27.2972C140.564 27.6274 140.26 28.269 139.493 28.3343C139.493 28.3343 139.087 28.3481 138.985 28.4675C138.884 28.5871 138.906 28.7246 138.906 28.7246V28.9073C138.906 28.9073 138.933 29.0143 138.985 29.0568C139.038 29.0992 139.126 29.0884 139.126 29.0884L141.659 29.0706L145.219 29.0704C145.219 29.0704 145.358 29.085 145.396 29.0324C145.434 28.9796 145.442 28.9175 145.442 28.9175V28.6749C145.442 28.6749 145.427 28.5459 145.358 28.4747C145.29 28.4037 144.828 28.3286 144.828 28.3286C144.238 28.2352 143.945 27.7571 143.726 27.401C143.67 27.3102 143.619 27.2273 143.57 27.1609C143.468 27.0252 143.106 26.2816 142.823 25.5664C142.539 24.8513 141.899 23.2357 141.401 21.9765C140.903 20.7173 140.208 18.9606 139.856 18.0731C139.504 17.1853 138.836 15.4963 138.371 14.3196C138.295 14.1265 138.226 13.953 138.165 13.7977L138.165 13.797C137.853 13.0068 137.727 12.6879 137.693 12.6448C137.581 12.5046 137.234 12.6448 137.234 12.6448ZM137.068 17.4533C136.955 17.185 136.758 16.7037 136.628 16.3837C136.393 15.8021 136.304 15.6682 136.231 15.7883C136.21 15.8234 136.062 16.2209 135.903 16.6717C134.87 19.5902 134.403 20.9043 134.309 21.1519C134.25 21.3076 134.202 21.468 134.202 21.5085C134.202 21.5549 135.042 21.5821 136.481 21.5821C137.734 21.5821 138.759 21.5668 138.759 21.5481C138.759 21.5294 138.647 21.2509 138.511 20.9288C138.374 20.6068 138.039 19.8029 137.767 19.1423C137.495 18.4817 137.18 17.7217 137.068 17.4533Z" fill="white"/>
</svg>
